<?xml version="1.0" encoding="UTF-8" standalone="no"?>
<svg
   xmlns:dc="http://purl.org/dc/elements/1.1/"
   xmlns:cc="http://creativecommons.org/ns#"
   xmlns:rdf="http://www.w3.org/1999/02/22-rdf-syntax-ns#"
   xmlns:svg="http://www.w3.org/2000/svg"
   xmlns="http://www.w3.org/2000/svg"
   xmlns:xlink="http://www.w3.org/1999/xlink"
   xmlns:sodipodi="http://sodipodi.sourceforge.net/DTD/sodipodi-0.dtd"
   xmlns:inkscape="http://www.inkscape.org/namespaces/inkscape"
   sodipodi:docname="preferences-shortcuts.svg"
   inkscape:version="1.0 (4035a4fb49, 2020-05-01)"
   id="svg8"
   version="1.1"
   viewBox="0 0 16.933333 16.933334"
   height="64"
   width="64">
  <defs
     id="defs2">
    <linearGradient
       id="linearGradient1015"
       inkscape:collect="always">
      <stop
         id="stop1011"
         offset="0"
         style="stop-color:#4d4d4d;stop-opacity:1" />
      <stop
         id="stop1013"
         offset="1"
         style="stop-color:#333333;stop-opacity:1" />
    </linearGradient>
    <linearGradient
       id="linearGradient1403"
       inkscape:collect="always">
      <stop
         id="stop1399"
         offset="0"
         style="stop-color:#ed5353;stop-opacity:1;" />
      <stop
         style="stop-color:#e54a4c;stop-opacity:1;"
         offset="0.60343933"
         id="stop1475" />
      <stop
         id="stop1401"
         offset="1"
         style="stop-color:#c6262e;stop-opacity:1" />
    </linearGradient>
    <linearGradient
       id="linearGradient1393"
       inkscape:collect="always">
      <stop
         id="stop1389"
         offset="0"
         style="stop-color:#d4d4d4;stop-opacity:1" />
      <stop
         style="stop-color:#cdcdcd;stop-opacity:0.99215686;"
         offset="0.52677441"
         id="stop1473" />
      <stop
         id="stop1391"
         offset="1"
         style="stop-color:#abacae;stop-opacity:0.95977014" />
    </linearGradient>
    <inkscape:path-effect
       min_radius="5"
       phi="5"
       teeth="5"
       lpeversion="1"
       is_visible="true"
       id="path-effect1214"
       effect="gears" />
    <linearGradient
       id="linearGradient1173"
       inkscape:collect="always">
      <stop
         id="stop1169"
         offset="0"
         style="stop-color:#d4d4d4;stop-opacity:1" />
      <stop
         id="stop1171"
         offset="1"
         style="stop-color:#fafafa;stop-opacity:1" />
    </linearGradient>
    <linearGradient
       id="linearGradient1040"
       inkscape:collect="always">
      <stop
         id="stop1036"
         offset="0"
         style="stop-color:#000000;stop-opacity:0.1" />
      <stop
         id="stop1038"
         offset="1"
         style="stop-color:#ffffff;stop-opacity:0.2" />
    </linearGradient>
    <linearGradient
       inkscape:collect="always"
       id="linearGradient889">
      <stop
         style="stop-color:#0d52bf;stop-opacity:1"
         offset="0"
         id="stop885" />
      <stop
         style="stop-color:#3689e6;stop-opacity:0.99000001"
         offset="1"
         id="stop887" />
    </linearGradient>
    <linearGradient
       inkscape:collect="always"
       id="linearGradient881">
      <stop
         style="stop-color:#3a9104;stop-opacity:1"
         offset="0"
         id="stop877" />
      <stop
         style="stop-color:#68b723;stop-opacity:1"
         offset="1"
         id="stop879" />
    </linearGradient>
    <linearGradient
       inkscape:collect="always"
       id="linearGradient873">
      <stop
         style="stop-color:#d48e15;stop-opacity:1"
         offset="0"
         id="stop869" />
      <stop
         style="stop-color:#f9c440;stop-opacity:1"
         offset="1"
         id="stop871" />
    </linearGradient>
    <linearGradient
       gradientTransform="translate(0,-58.532027)"
       inkscape:collect="always"
       xlink:href="#linearGradient873"
       id="linearGradient875"
       x1="8.3454571"
       y1="299.26587"
       x2="8.4375372"
       y2="291.73221"
       gradientUnits="userSpaceOnUse" />
    <linearGradient
       gradientTransform="translate(0,-58.532027)"
       inkscape:collect="always"
       xlink:href="#linearGradient881"
       id="linearGradient883"
       x1="8.1183119"
       y1="293.59232"
       x2="8.1851292"
       y2="287.39499"
       gradientUnits="userSpaceOnUse" />
    <linearGradient
       gradientTransform="translate(0,-58.532027)"
       inkscape:collect="always"
       xlink:href="#linearGradient889"
       id="linearGradient891"
       x1="8.385581"
       y1="291.6546"
       x2="8.3354683"
       y2="283.01846"
       gradientUnits="userSpaceOnUse" />
    <linearGradient
       gradientTransform="matrix(3.7795275,0,0,3.7795275,0,-1058.5196)"
       y2="280.86041"
       x2="8.3194199"
       y1="296.20624"
       x1="8.3454571"
       gradientUnits="userSpaceOnUse"
       id="linearGradient1033"
       xlink:href="#linearGradient1040"
       inkscape:collect="always" />
    <linearGradient
       gradientTransform="translate(0,-38.887701)"
       gradientUnits="userSpaceOnUse"
       y2="280.86041"
       x2="8.5753355"
       y1="298.97018"
       x1="8.6934528"
       id="linearGradient1175"
       xlink:href="#linearGradient1173"
       inkscape:collect="always" />
    <linearGradient
       inkscape:collect="always"
       id="linearGradient971">
      <stop
         style="stop-color:#a3907c;stop-opacity:1;"
         offset="0"
         id="stop967" />
      <stop
         id="stop975"
         offset="0.46085978"
         style="stop-color:#9f8c78;stop-opacity:1;" />
      <stop
         style="stop-color:#8a715e;stop-opacity:1"
         offset="1"
         id="stop969" />
    </linearGradient>
    <inkscape:path-effect
       hide_knots="false"
       only_selected="false"
       apply_with_radius="true"
       apply_no_radius="true"
       use_knot_distance="true"
       flexible="false"
       chamfer_steps="1"
       radius="0"
       mode="F"
       method="auto"
       unit="px"
       satellites_param="F,0,0,1,0,0,0,1 @ F,0,0,1,0,0,0,1 @ F,0,0,1,0,0,0,1"
       lpeversion="1"
       is_visible="true"
       id="path-effect938"
       effect="fillet_chamfer" />
    <inkscape:path-effect
       hide_knots="false"
       only_selected="false"
       apply_with_radius="true"
       apply_no_radius="true"
       use_knot_distance="true"
       flexible="false"
       chamfer_steps="1"
       radius="0"
       mode="F"
       method="auto"
       unit="px"
       satellites_param="F,0,0,1,0,0,0,1 @ F,0,0,1,0,0,0,1 @ F,0,0,1,0,0,0,1"
       lpeversion="1"
       is_visible="true"
       id="path-effect895"
       effect="fillet_chamfer" />
    <inkscape:path-effect
       effect="fillet_chamfer"
       id="path-effect935"
       is_visible="true"
       lpeversion="1"
       satellites_param="F,0,0,1,0,0,0,1 @ F,0,0,1,0,0,0,1 @ F,0,0,1,0,0,0,1"
       unit="px"
       method="auto"
       mode="F"
       radius="0"
       chamfer_steps="1"
       flexible="false"
       use_knot_distance="true"
       apply_no_radius="true"
       apply_with_radius="true"
       only_selected="false"
       hide_knots="false" />
    <inkscape:path-effect
       effect="fillet_chamfer"
       id="path-effect951"
       is_visible="true"
       lpeversion="1"
       satellites_param="F,0,0,1,0,0,0,1 @ F,0,0,1,0,0,0,1 @ F,0,0,1,0,0,0,1"
       unit="px"
       method="auto"
       mode="F"
       radius="0"
       chamfer_steps="1"
       flexible="false"
       use_knot_distance="true"
       apply_no_radius="true"
       apply_with_radius="true"
       only_selected="false"
       hide_knots="false" />
    <linearGradient
       inkscape:collect="always"
       id="linearGradient870-3">
      <stop
         style="stop-color:#f9c440;stop-opacity:1;"
         offset="0"
         id="stop866" />
      <stop
         id="stop874"
         offset="0.46516398"
         style="stop-color:#f1b937;stop-opacity:1;" />
      <stop
         style="stop-color:#d48e15;stop-opacity:1"
         offset="1"
         id="stop868" />
    </linearGradient>
    <inkscape:path-effect
       effect="fillet_chamfer"
       id="path-effect860"
       is_visible="true"
       lpeversion="1"
       satellites_param="F,0,0,1,0,0.61935052,0,1 @ F,0,0,1,0,0,0,1 @ F,0,0,1,0,0,0,1"
       unit="px"
       method="auto"
       mode="F"
       radius="0"
       chamfer_steps="1"
       flexible="false"
       use_knot_distance="true"
       apply_no_radius="true"
       apply_with_radius="true"
       only_selected="false"
       hide_knots="false" />
    <inkscape:path-effect
       effect="fillet_chamfer"
       id="path-effect852"
       is_visible="true"
       lpeversion="1"
       satellites_param="F,0,0,1,0,0,0,1 @ F,0,0,1,0,0.61950093,0,1 @ F,0,0,1,0,0,0,1"
       unit="px"
       method="auto"
       mode="F"
       radius="0"
       chamfer_steps="1"
       flexible="false"
       use_knot_distance="true"
       apply_no_radius="true"
       apply_with_radius="true"
       only_selected="false"
       hide_knots="false" />
    <inkscape:path-effect
       effect="fillet_chamfer"
       id="path-effect1004"
       is_visible="true"
       lpeversion="1"
       satellites_param="F,0,0,1,0,0,0,1 @ F,0,0,1,0,0.61950093,0,1 @ F,0,0,1,0,0,0,1"
       unit="px"
       method="auto"
       mode="F"
       radius="0"
       chamfer_steps="1"
       flexible="false"
       use_knot_distance="true"
       apply_no_radius="true"
       apply_with_radius="true"
       only_selected="false"
       hide_knots="false" />
    <inkscape:path-effect
       effect="fillet_chamfer"
       id="path-effect995"
       is_visible="true"
       lpeversion="1"
       satellites_param="F,0,0,1,0,0,0,1 @ F,0,0,1,0,0.61950093,0,1 @ F,0,0,1,0,0,0,1"
       unit="px"
       method="auto"
       mode="F"
       radius="0"
       chamfer_steps="1"
       flexible="false"
       use_knot_distance="true"
       apply_no_radius="true"
       apply_with_radius="true"
       only_selected="false"
       hide_knots="false" />
    <inkscape:path-effect
       effect="fillet_chamfer"
       id="path-effect987"
       is_visible="true"
       lpeversion="1"
       satellites_param="F,0,0,1,0,0.61935052,0,1 @ F,0,0,1,0,0,0,1 @ F,0,0,1,0,0,0,1"
       unit="px"
       method="auto"
       mode="F"
       radius="0"
       chamfer_steps="1"
       flexible="false"
       use_knot_distance="true"
       apply_no_radius="true"
       apply_with_radius="true"
       only_selected="false"
       hide_knots="false" />
    <inkscape:path-effect
       hide_knots="false"
       only_selected="false"
       apply_with_radius="true"
       apply_no_radius="true"
       use_knot_distance="true"
       flexible="false"
       chamfer_steps="1"
       radius="0"
       mode="F"
       method="auto"
       unit="px"
       satellites_param="F,0,0,1,0,0,0,1 @ F,0,0,1,0,0,0,1 @ F,0,0,1,0,0,0,1"
       lpeversion="1"
       is_visible="true"
       id="path-effect16"
       effect="fillet_chamfer" />
    <inkscape:path-effect
       hide_knots="false"
       only_selected="false"
       apply_with_radius="true"
       apply_no_radius="true"
       use_knot_distance="true"
       flexible="false"
       chamfer_steps="1"
       radius="0"
       mode="F"
       method="auto"
       unit="px"
       satellites_param="F,0,0,1,0,0,0,1 @ F,0,0,1,0,0.61950093,0,1 @ F,0,0,1,0,0,0,1"
       lpeversion="1"
       is_visible="true"
       id="path-effect933"
       effect="fillet_chamfer" />
    <linearGradient
       gradientTransform="matrix(0.36090195,0,0,0.36090195,-0.46940823,265.5281)"
       inkscape:collect="always"
       xlink:href="#linearGradient971"
       id="linearGradient973"
       x1="4.1944799"
       y1="14.138259"
       x2="18.109629"
       y2="27.964722"
       gradientUnits="userSpaceOnUse" />
    <linearGradient
       gradientTransform="matrix(0.96449895,0.96449895,-0.96449895,0.96449895,276.01282,-20.348335)"
       gradientUnits="userSpaceOnUse"
       y2="283.62638"
       x2="13.453443"
       y1="283.62638"
       x1="8.2604779"
       id="linearGradient1405"
       xlink:href="#linearGradient1403"
       inkscape:collect="always" />
    <linearGradient
       y2="-2.0913575"
       x2="7.806932"
       y1="-2.0579488"
       x1="1.9417232"
       gradientTransform="matrix(0.98270927,0.98270927,-1.3652487,1.3652487,0.66206051,267.12014)"
       gradientUnits="userSpaceOnUse"
       id="linearGradient1407"
       xlink:href="#linearGradient870-3"
       inkscape:collect="always" />
    <linearGradient
       gradientTransform="translate(2.0789e-4,-20.39216)"
       gradientUnits="userSpaceOnUse"
       y2="288.90329"
       x2="14.119064"
       y1="283.22382"
       x1="7.7695704"
       id="linearGradient1469"
       xlink:href="#linearGradient1393"
       inkscape:collect="always" />
    <linearGradient
       gradientTransform="matrix(0.89839891,0,0,0.89839891,0.86022176,29.3153)"
       gradientUnits="userSpaceOnUse"
       y2="297.07397"
       x2="9.0410166"
       y1="277.03015"
       x1="9.0410166"
       id="linearGradient1017"
       xlink:href="#linearGradient1015"
       inkscape:collect="always" />
  </defs>
  <sodipodi:namedview
     inkscape:snap-nodes="true"
     inkscape:snap-to-guides="true"
     inkscape:object-paths="true"
     inkscape:snap-intersection-paths="true"
     inkscape:bbox-nodes="true"
     inkscape:snap-bbox-edge-midpoints="true"
     inkscape:snap-bbox-midpoints="true"
     inkscape:snap-bbox="false"
     inkscape:snap-smooth-nodes="true"
     id="base"
     pagecolor="#ffffff"
     bordercolor="#666666"
     borderopacity="1.0"
     inkscape:pageopacity="0.0"
     inkscape:pageshadow="2"
     inkscape:zoom="1.4"
     inkscape:cx="29.645267"
     inkscape:cy="37.828278"
     inkscape:document-units="px"
     inkscape:current-layer="layer1"
     inkscape:document-rotation="0"
     showgrid="true"
     units="px"
     showguides="true"
     inkscape:guide-bbox="true"
     inkscape:lockguides="true"
     inkscape:snap-grids="false"
     inkscape:object-nodes="true">
    <inkscape:grid
       type="xygrid"
       id="grid833" />
    <sodipodi:guide
       position="12.964583,16.139583"
       orientation="0,1"
       id="guide835"
       inkscape:locked="true" />
    <sodipodi:guide
       position="0.79374998,15.081251"
       orientation="1,0"
       id="guide837"
       inkscape:locked="true" />
    <sodipodi:guide
       position="16.139583,14.022917"
       orientation="1,0"
       id="guide839"
       inkscape:locked="true" />
    <sodipodi:guide
       position="14.022916,0.79375003"
       orientation="0,1"
       id="guide841"
       inkscape:locked="true" />
    <sodipodi:guide
       inkscape:locked="true"
       position="8.9826612,9.9598905"
       orientation="1,0"
       id="guide977" />
    <sodipodi:guide
       inkscape:locked="true"
       position="11.435766,7.0588637"
       orientation="1,0"
       id="guide979" />
    <sodipodi:guide
       inkscape:locked="true"
       position="4.2924808,8.6370787"
       orientation="1,0"
       id="guide981" />
  </sodipodi:namedview>
  <metadata
     id="metadata5">
    <rdf:RDF>
      <cc:Work
         rdf:about="">
        <dc:format>image/svg+xml</dc:format>
        <dc:type
           rdf:resource="http://purl.org/dc/dcmitype/StillImage" />
        <dc:title />
      </cc:Work>
    </rdf:RDF>
  </metadata>
  <g
     style="display:inline"
     inkscape:label="Layer 1"
     inkscape:groupmode="layer"
     id="layer1"
     transform="translate(0,-280.06666)">
    <path
       d="m 14.692632,261.91536 c -0.432414,-0.43241 -0.929504,-0.80065 -1.445908,-1.05914 -1.032752,-0.51681 -1.986696,-0.51737 -2.502569,-0.001 l -2.086857,2.08685 c 0.5158608,-0.51589 1.469816,-0.51531 2.502568,10e-4 1.032654,0.5169 1.987157,1.47141 2.504056,2.50406 0.517071,1.03287 0.517822,1.98704 0.002,2.50306 l 2.086858,-2.08685 c 0.515872,-0.51587 0.515315,-1.46981 -0.0015,-2.50257 -0.25846,-0.51644 -0.626233,-1.01299 -1.058645,-1.44541 z"
       style="opacity:0.998;fill:url(#linearGradient1405);fill-opacity:1;stroke:none;stroke-width:0.264583;stroke-linecap:round;stroke-linejoin:round;stroke-miterlimit:4;stroke-dasharray:none;stroke-opacity:1"
       id="path1397"
       sodipodi:nodetypes="scsccccscs" />
    <path
       sodipodi:nodetypes="sccccccccs"
       d="m 12.605802,264.00219 c -0.432412,-0.43241 -0.929467,-0.80068 -1.445912,-1.05913 -1.032746,-0.51681 -1.9867012,-0.51739 -2.5025606,-10e-4 l -1.3051599,1.30517 c 0.5158578,-0.51588 1.4698133,-0.51531 2.5025593,10e-4 1.0326532,0.5169 1.9871572,1.47141 2.5040542,2.50406 0.517072,1.03287 0.517832,1.98704 0.002,2.50306 l 1.305162,-1.30516 c 0.515881,-0.51586 0.515311,-1.46982 -0.0015,-2.50256 -0.258458,-0.51644 -0.62623,-1.01301 -1.058642,-1.44541 z"
       style="opacity:0.998;fill:url(#linearGradient1469);fill-opacity:1;stroke:none;stroke-width:0.264583;stroke-linecap:round;stroke-linejoin:round;stroke-miterlimit:4;stroke-dasharray:none;stroke-opacity:1"
       id="rect1366" />
    <path
       sodipodi:nodetypes="cccccc"
       d="m 16.070029,264.25198 c -0.06269,0.21511 -0.167368,0.40301 -0.317294,0.55294 l -1.72961,1.72961 c 0.08725,0.58638 -0.03066,1.08887 -0.357084,1.41541 l 2.086694,-2.08669 c 0.362072,-0.36207 0.463962,-0.94181 0.317294,-1.61127 z"
       style="opacity:0.998;fill:#a10705;fill-opacity:1;stroke:none;stroke-width:0.264583;stroke-linecap:round;stroke-linejoin:round;stroke-miterlimit:4;stroke-dasharray:none;stroke-opacity:1"
       id="path1495" />
    <path
       sodipodi:nodetypes="scccccccccccs"
       d="m 11.801555,260.46823 c -0.432064,-1.9e-4 -0.799363,0.12887 -1.0573,0.38706 l -2.0872109,2.08669 c 0.3266265,-0.32664 0.8297624,-0.44487 1.4164509,-0.3576 l 0.67076,-0.67076 c 0.515873,-0.51637 1.469938,-0.51578 2.50269,0.001 0.516404,0.25849 1.013492,0.62645 1.445907,1.05886 0.432412,0.43241 0.799873,0.92894 1.058333,1.44538 0.154081,0.30791 0.256542,0.60705 0.318844,0.89142 0.153019,-0.52504 0.04777,-1.21714 -0.318844,-1.94975 -0.25846,-0.51644 -0.625921,-1.01297 -1.058333,-1.44539 -0.432415,-0.43241 -0.929503,-0.80036 -1.445907,-1.05885 -0.516376,-0.2584 -1.013326,-0.38789 -1.44539,-0.38809 z"
       style="opacity:0.998;fill:#ff8c82;fill-opacity:1;stroke:none;stroke-width:0.264583;stroke-linecap:round;stroke-linejoin:round;stroke-miterlimit:4;stroke-dasharray:none;stroke-opacity:1"
       id="path1486" />
    <path
       d="m 14.692632,261.91536 c -0.432414,-0.43241 -0.929504,-0.80065 -1.445908,-1.05914 -1.032752,-0.51681 -1.986696,-0.51737 -2.502569,-0.001 l -2.086857,2.08685 c 0.5158608,-0.51589 1.469816,-0.51531 2.502568,10e-4 1.032654,0.5169 1.987157,1.47141 2.504056,2.50406 0.517071,1.03287 0.517822,1.98704 0.002,2.50306 l 2.086858,-2.08685 c 0.515872,-0.51587 0.515315,-1.46981 -0.0015,-2.50257 -0.25846,-0.51644 -0.626233,-1.01299 -1.058645,-1.44541 z"
       style="opacity:0.998;fill:none;fill-opacity:0.992157;stroke:#7a0000;stroke-width:0.264583;stroke-linecap:round;stroke-linejoin:round;stroke-miterlimit:4;stroke-dasharray:none;stroke-opacity:1"
       id="path1383"
       sodipodi:nodetypes="scsccccscs" />
    <path
       sodipodi:nodetypes="cccccc"
       d="m 13.983334,266.33867 c -0.06268,0.21518 -0.167326,0.40298 -0.317293,0.55294 l -0.948263,0.94826 c 0.08725,0.58638 -0.03065,1.08887 -0.357084,1.41542 l 1.305347,-1.30535 c 0.362078,-0.36206 0.463964,-0.94181 0.317293,-1.61127 z"
       style="opacity:0.998;fill:#7e8087;fill-opacity:1;stroke:none;stroke-width:0.264583;stroke-linecap:round;stroke-linejoin:round;stroke-miterlimit:4;stroke-dasharray:none;stroke-opacity:1"
       id="path1497" />
    <path
       d="m 9.7148607,262.55493 c -0.4320646,-2e-4 -0.7993701,0.12886 -1.0572999,0.38705 l -1.3053468,1.30535 c 0.3292539,-0.32927 0.8376304,-0.44583 1.4304037,-0.3545 0.5362231,-0.40488 1.4226103,-0.36914 2.3771163,0.10852 0.516445,0.25845 1.013494,0.62696 1.445906,1.05937 0.432412,0.4324 0.800393,0.92894 1.058851,1.44538 0.154079,0.3079 0.256541,0.60654 0.318843,0.89091 0.152948,-0.52503 0.04773,-1.21672 -0.318843,-1.94924 -0.258458,-0.51644 -0.626439,-1.01299 -1.058851,-1.44539 -0.432412,-0.43241 -0.929461,-0.80091 -1.445906,-1.05936 -0.516373,-0.25841 -1.012809,-0.3879 -1.4448733,-0.38809 z m 2.9631273,6.14846 c -0.06269,0.21476 -0.167601,0.40215 -0.317294,0.5519 l 0.357084,-0.35708 c -0.0094,-0.0635 -0.0255,-0.1295 -0.03979,-0.19482 z"
       style="opacity:0.998;fill:#fafafa;fill-opacity:1;stroke:none;stroke-width:0.264583;stroke-linecap:round;stroke-linejoin:round;stroke-miterlimit:4;stroke-dasharray:none;stroke-opacity:1"
       id="path1477" />
    <path
       id="path1385"
       style="opacity:0.998;fill:none;fill-opacity:1;stroke:#555761;stroke-width:0.264583;stroke-linecap:round;stroke-linejoin:round;stroke-miterlimit:4;stroke-dasharray:none;stroke-opacity:1"
       d="m 12.605802,264.00219 c -0.432412,-0.43241 -0.929467,-0.80068 -1.445912,-1.05913 -1.032746,-0.51681 -1.9867012,-0.51739 -2.5025606,-10e-4 l -1.3051599,1.30517 c 0.5158578,-0.51588 1.4698133,-0.51531 2.5025593,10e-4 1.0326532,0.5169 1.9871572,1.47141 2.5040542,2.50406 0.517072,1.03287 0.517832,1.98704 0.002,2.50306 l 1.305162,-1.30516 c 0.515881,-0.51586 0.515311,-1.46982 -0.0015,-2.50256 -0.258458,-0.51644 -0.62623,-1.01301 -1.058642,-1.44541 z"
       sodipodi:nodetypes="sccccccccs" />
    <rect
       style="fill:url(#linearGradient875);fill-opacity:1;stroke:none;stroke-width:0.264583;stroke-linecap:round;stroke-linejoin:round"
       id="rect849"
       width="15.345834"
       height="4.3711257"
       x="0.79375005"
       y="233.30312" />
    <rect
       style="fill:#ffe16b;fill-opacity:1;stroke:none;stroke-width:0.264583;stroke-linecap:round;stroke-linejoin:round;stroke-opacity:1"
       id="rect899"
       width="2"
       height="3.5003655"
       x="2.2924807"
       y="233.73851"
       ry="0.46773192"
       rx="0.46773192" />
    <path
       d="m 0.79375002,237.14505 v 0.52917 H 16.139584 v -0.52917 z"
       style="fill:#d48e15;fill-opacity:1;stroke:none;stroke-width:0.264583;stroke-linecap:round;stroke-linejoin:round"
       id="rect2597" />
    <rect
       y="233.30312"
       x="0.79375005"
       height="4.3711257"
       width="15.345834"
       id="rect905"
       style="fill:none;fill-opacity:1;stroke:#ad5f00;stroke-width:0.264583;stroke-linecap:round;stroke-linejoin:round;stroke-opacity:1" />
    <rect
       rx="0.46773192"
       ry="0.46773192"
       y="233.73851"
       x="2.2924807"
       height="3.5003655"
       width="2"
       id="rect913"
       style="fill:none;fill-opacity:1;stroke:#ad5f00;stroke-width:0.264583;stroke-linecap:round;stroke-linejoin:round;stroke-opacity:1" />
    <rect
       y="228.93196"
       x="0.79375005"
       height="4.3711257"
       width="15.345834"
       id="rect847"
       style="fill:url(#linearGradient883);fill-opacity:1;stroke:none;stroke-width:0.264583;stroke-linecap:round;stroke-linejoin:round" />
    <rect
       rx="0.46773192"
       ry="0.46773192"
       y="229.36736"
       x="11.435766"
       height="3.5003655"
       width="2"
       id="rect897"
       style="fill:#9bdb4d;fill-opacity:1;stroke:none;stroke-width:0.264583;stroke-linecap:round;stroke-linejoin:round;stroke-opacity:1" />
    <path
       d="m 0.79375002,232.77374 v 0.52917 H 16.139584 v -0.52917 z"
       style="fill:#3a9104;fill-opacity:1;stroke:none;stroke-width:0.264583;stroke-linecap:round;stroke-linejoin:round"
       id="rect2608" />
    <rect
       style="fill:none;fill-opacity:1;stroke:#206b00;stroke-width:0.264583;stroke-linecap:round;stroke-linejoin:round;stroke-opacity:1"
       id="rect903"
       width="15.345834"
       height="4.3711257"
       x="0.79375005"
       y="228.93196" />
    <rect
       style="fill:none;fill-opacity:1;stroke:#206b00;stroke-width:0.264583;stroke-linecap:round;stroke-linejoin:round;stroke-opacity:1"
       id="rect911"
       width="2"
       height="3.5003655"
       x="11.435766"
       y="229.36736"
       ry="0.46773192"
       rx="0.46773192" />
    <rect
       style="fill:url(#linearGradient891);fill-opacity:1;stroke:none;stroke-width:0.264583;stroke-linecap:round;stroke-linejoin:round"
       id="rect843"
       width="15.345834"
       height="4.3711257"
       x="0.79375005"
       y="224.56081" />
    <rect
       style="fill:#64baff;fill-opacity:1;stroke:none;stroke-width:0.264583;stroke-linecap:round;stroke-linejoin:round;stroke-opacity:1"
       id="rect895"
       width="2"
       height="3.5003655"
       x="8.9826612"
       y="224.9962"
       ry="0.46773192"
       rx="0.46773192" />
    <path
       d="m 0.79375002,228.40295 v 0.52916 H 16.139584 v -0.52916 z"
       style="fill:#0d52bf;fill-opacity:1;stroke:none;stroke-width:0.264583;stroke-linecap:round;stroke-linejoin:round"
       id="rect2619" />
    <rect
       y="224.56081"
       x="0.79375005"
       height="4.3711257"
       width="15.345834"
       id="rect901"
       style="fill:none;fill-opacity:1;stroke:#002e99;stroke-width:0.264583;stroke-linecap:round;stroke-linejoin:round;stroke-miterlimit:4;stroke-dasharray:none;stroke-opacity:1" />
    <rect
       rx="0.46773192"
       ry="0.46773192"
       y="224.9962"
       x="8.9826612"
       height="3.5003655"
       width="2"
       id="rect909"
       style="fill:none;fill-opacity:1;stroke:#002e99;stroke-width:0.264583;stroke-linecap:round;stroke-linejoin:round;stroke-opacity:1" />
    <rect
       y="222.32838"
       x="0.79375005"
       height="2.2324121"
       width="15.345834"
       id="rect845"
       style="fill:#d4d4d4;fill-opacity:1;stroke:none;stroke-width:0.264583;stroke-linecap:round;stroke-linejoin:round" />
    <path
       d="m 0.79375002,224.03164 v 0.52917 H 16.139584 v -0.52917 z"
       style="fill:#7e8087;fill-opacity:1;stroke:none;stroke-width:0.264583;stroke-linecap:round;stroke-linejoin:round"
       id="rect2637" />
    <rect
       style="fill:none;fill-opacity:1;stroke:#000000;stroke-width:0.264583;stroke-linecap:round;stroke-linejoin:round;stroke-opacity:1"
       id="rect915"
       width="15.345834"
       height="2.2324121"
       x="0.79375005"
       y="222.32838" />
    <path
       style="fill:none;stroke:#000000;stroke-width:0.264583px;stroke-linecap:butt;stroke-linejoin:miter;stroke-opacity:1"
       d="m 16.139583,222.32838 v 1.08897"
       id="path917" />
    <path
       id="path919"
       d="m 0.79374997,222.32838 v 1.08897"
       style="fill:none;stroke:#000000;stroke-width:0.265;stroke-linecap:round;stroke-linejoin:miter;stroke-miterlimit:4;stroke-dasharray:none;stroke-opacity:1" />
    <path
       id="rect1036"
       style="fill:#dfdfdf;fill-opacity:1;stroke:none;stroke-width:0.264583;stroke-linecap:round;stroke-linejoin:round"
       d="m 0.79375002,222.32838 v 0.52917 H 16.139584 v -0.52917 z" />
    <path
       style="fill:none;stroke:#000000;stroke-width:0.265;stroke-linecap:round;stroke-linejoin:miter;stroke-miterlimit:4;stroke-dasharray:none;stroke-opacity:1"
       d="m 0.79375,222.32797 v 1.089"
       id="path959" />
    <path
       style="fill:none;stroke:#000000;stroke-width:0.265;stroke-linecap:round;stroke-linejoin:miter;stroke-miterlimit:4;stroke-dasharray:none;stroke-opacity:1"
       d="m 2.18883,222.32797 v 1.089"
       id="path961" />
    <path
       style="fill:none;stroke:#000000;stroke-width:0.265;stroke-linecap:round;stroke-linejoin:miter;stroke-miterlimit:4;stroke-dasharray:none;stroke-opacity:1"
       d="m 3.5839,222.32797 v 1.089"
       id="path963" />
    <path
       style="fill:none;stroke:#000000;stroke-width:0.265;stroke-linecap:round;stroke-linejoin:miter;stroke-miterlimit:4;stroke-dasharray:none;stroke-opacity:1"
       d="m 4.97898,222.32797 v 1.089"
       id="path965" />
    <path
       style="fill:none;stroke:#000000;stroke-width:0.265;stroke-linecap:round;stroke-linejoin:miter;stroke-miterlimit:4;stroke-dasharray:none;stroke-opacity:1"
       d="m 6.37405,222.32797 v 1.089"
       id="path967" />
    <path
       style="fill:none;stroke:#000000;stroke-width:0.265;stroke-linecap:round;stroke-linejoin:miter;stroke-miterlimit:4;stroke-dasharray:none;stroke-opacity:1"
       d="m 7.7691298,222.32796 v 1.70706"
       id="path969" />
    <path
       style="fill:none;stroke:#000000;stroke-width:0.265;stroke-linecap:round;stroke-linejoin:miter;stroke-miterlimit:4;stroke-dasharray:none;stroke-opacity:1"
       d="m 9.1642,222.32797 v 1.089"
       id="path971" />
    <path
       style="fill:none;stroke:#000000;stroke-width:0.265;stroke-linecap:round;stroke-linejoin:miter;stroke-miterlimit:4;stroke-dasharray:none;stroke-opacity:1"
       d="m 10.5593,222.32797 v 1.089"
       id="path973" />
    <path
       style="fill:none;stroke:#000000;stroke-width:0.265;stroke-linecap:round;stroke-linejoin:miter;stroke-miterlimit:4;stroke-dasharray:none;stroke-opacity:1"
       d="m 11.9544,222.32797 v 1.089"
       id="path975" />
    <path
       style="fill:none;stroke:#000000;stroke-width:0.265;stroke-linecap:round;stroke-linejoin:miter;stroke-miterlimit:4;stroke-dasharray:none;stroke-opacity:1"
       d="m 13.3494,222.32797 v 1.089"
       id="path977" />
    <path
       style="fill:none;stroke:#000000;stroke-width:0.265;stroke-linecap:round;stroke-linejoin:miter;stroke-miterlimit:4;stroke-dasharray:none;stroke-opacity:1"
       d="m 14.744499,222.32796 v 1.70706"
       id="path979" />
    <path
       style="fill:none;stroke:#000000;stroke-width:0.264583;stroke-linecap:butt;stroke-linejoin:miter;stroke-opacity:1"
       d="m 16.1396,222.32797 v 1.089"
       id="path981" />
    <rect
       style="fill:#ed5353;fill-opacity:1;stroke:none;stroke-width:0.264583;stroke-linecap:round;stroke-linejoin:round;stroke-opacity:1"
       id="rect893"
       width="2.03793"
       height="15.345832"
       x="4.744153"
       y="222.32838" />
    <path
       d="m 4.7438967,237.14505 v 0.52917 H 6.782015 v -0.52917 z"
       style="fill:#a10705;fill-opacity:1;stroke:none;stroke-width:0.264583;stroke-linecap:round;stroke-linejoin:round;stroke-opacity:1"
       id="rect2630" />
    <rect
       y="222.32838"
       x="4.744153"
       height="15.345832"
       width="2.03793"
       id="rect907"
       style="fill:none;fill-opacity:1;stroke:#7a0000;stroke-width:0.265;stroke-linecap:round;stroke-linejoin:round;stroke-miterlimit:4;stroke-dasharray:none;stroke-opacity:1" />
    <path
       d="m 2.3130372,241.97269 v 15.34584 H 14.620296 l 0.0167,-9.70568 -5.6376347,0 -0.016704,-5.64016 z"
       style="fill:url(#linearGradient1175);fill-opacity:1;stroke:none;stroke-width:0.264999;stroke-linecap:round;stroke-linejoin:round"
       id="rect1167"
       sodipodi:nodetypes="ccccccc" />
    <path
       d="m 2.3130372,256.78936 v 0.52916 H 14.620296 v -0.52916 z"
       style="fill:#7e8087;fill-opacity:1;stroke:none;stroke-width:0.264998;stroke-linecap:round;stroke-linejoin:round"
       id="path1530" />
    <path
       id="path1192"
       style="fill:none;fill-opacity:1;stroke:#000000;stroke-width:0.264999;stroke-linecap:round;stroke-linejoin:round;stroke-opacity:1"
       d="m 2.3130372,241.97269 v 15.34584 H 14.620296 l 0.0167,-9.70568 H 8.9993613 l -0.016704,-5.64016 z"
       sodipodi:nodetypes="ccccccc" />
    <path
       sodipodi:nodetypes="ccccccc"
       d="m 9.8547097,264.24823 c -1.0327446,-0.5168 -1.9867001,-0.51738 -2.5025593,-10e-4 l -5.7811398,5.78114 5.0086096,5.00861 5.7811398,-5.78114 c 0.515837,-0.51602 0.515078,-1.4702 -0.002,-2.50305 -0.516899,-1.03266 -1.471401,-1.98717 -2.5040561,-2.50406 z"
       inkscape:transform-center-y="0.52909185"
       inkscape:transform-center-x="-9.679129"
       style="display:inline;fill:url(#linearGradient1407);fill-opacity:1;stroke:none;stroke-width:0.264999;stroke-linecap:round;stroke-linejoin:round;stroke-miterlimit:4;stroke-dasharray:none;stroke-opacity:0.984314"
       id="rect976" />
    <path
       sodipodi:nodetypes="cccc"
       id="path890"
       d="m 0.79385228,275.81333 0.77723882,-5.78603 5.0087842,5.00879 z"
       style="display:inline;fill:#a3907c;fill-opacity:0.988506;stroke:none;stroke-width:0.264583px;stroke-linecap:butt;stroke-linejoin:miter;stroke-opacity:1"
       inkscape:original-d="m 0.79385228,275.81333 0.77723882,-5.78603 5.0087842,5.00879 z"
       inkscape:path-effect="#path-effect935"
       inkscape:transform-center-x="-5.5242533"
       inkscape:transform-center-y="-1.2520994" />
    <path
       d="m 12.677988,267.64557 c -0.06269,0.21476 -0.167599,0.40216 -0.317294,0.5519 l -5.7810424,5.78105 -4.4793134,-4.47932 -0.5291667,0.52917 5.0084801,5.00848 5.7810424,-5.78104 c 0.361759,-0.36189 0.463593,-0.94135 0.317294,-1.61024 z"
       inkscape:transform-center-y="0.52909185"
       inkscape:transform-center-x="-9.679129"
       style="display:inline;fill:#d48e15;fill-opacity:1;stroke:none;stroke-width:0.264999;stroke-linecap:round;stroke-linejoin:round;stroke-miterlimit:4;stroke-dasharray:none;stroke-opacity:0.984314"
       id="path1446" />
    <path
       d="m 8.4095139,263.86027 c -0.4320643,-2e-4 -0.7993703,0.12887 -1.0572999,0.38706 l -5.7810425,5.78104 0.5291667,0.52917 5.2518758,-5.25188 c 0.5158592,-0.51638 1.4699451,-0.51576 2.5026899,0.001 v 5.2e-4 c 1.0326551,0.51689 1.9868241,1.47106 2.5037231,2.50372 0.154448,0.30851 0.25705,0.60808 0.319361,0.89297 0.153339,-0.52529 0.04766,-1.21818 -0.319361,-1.9513 -0.516899,-1.03266 -1.471068,-1.98683 -2.5037231,-2.50372 v -5.2e-4 c -0.5163725,-0.2584 -1.0133257,-0.38789 -1.44539,-0.38809 z"
       inkscape:transform-center-y="0.52909185"
       inkscape:transform-center-x="-9.679129"
       style="display:inline;fill:#ffe16b;fill-opacity:1;stroke:none;stroke-width:0.264999;stroke-linecap:round;stroke-linejoin:round;stroke-miterlimit:4;stroke-dasharray:none;stroke-opacity:0.984314"
       id="path1421" />
    <path
       style="display:inline;fill:#a28f7c;fill-opacity:0.992157;stroke:none;stroke-width:0.265001;stroke-linecap:round;stroke-linejoin:round;stroke-miterlimit:4;stroke-dasharray:none;stroke-opacity:0.984314"
       id="path942"
       sodipodi:type="arc"
       sodipodi:cx="-195.59081"
       sodipodi:cy="-189.82719"
       sodipodi:rx="3.5417447"
       sodipodi:ry="2.0421731"
       sodipodi:start="0"
       sodipodi:end="3.1415927"
       sodipodi:arc-type="slice"
       transform="rotate(-135)"
       inkscape:transform-center-y="-0.19316553"
       inkscape:transform-center-x="-5.2881937"
       d="m -192.04906,-189.82719 a 3.5417447,2.0421731 0 0 1 -1.77087,1.76857 3.5417447,2.0421731 0 0 1 -3.54175,0 3.5417447,2.0421731 0 0 1 -1.77087,-1.76857 h 3.54174 z" />
    <path
       inkscape:transform-center-y="-0.10563087"
       transform="rotate(-135)"
       sodipodi:arc-type="slice"
       sodipodi:end="3.1415927"
       sodipodi:start="0"
       sodipodi:ry="1.1370422"
       sodipodi:rx="2.0120928"
       sodipodi:cy="-191.83144"
       sodipodi:cx="-195.59068"
       sodipodi:type="arc"
       id="path913"
       style="display:inline;fill:#333333;fill-opacity:1;stroke:none;stroke-width:0.265;stroke-linecap:round;stroke-linejoin:round;stroke-miterlimit:4;stroke-dasharray:none;stroke-opacity:0.984314"
       inkscape:transform-center-x="-3.119608"
       d="m -193.57859,-191.83144 a 2.0120928,1.1370422 0 0 1 -1.00605,0.98471 2.0120928,1.1370422 0 0 1 -2.01209,0 2.0120928,1.1370422 0 0 1 -1.00605,-0.98471 h 2.0121 z" />
    <path
       style="fill:#333333;fill-opacity:1;stroke:none;stroke-width:0.264583px;stroke-linecap:butt;stroke-linejoin:miter;stroke-opacity:1"
       d="m 4.0809697,275.37158 -3.28708968,0.44157 0.44156098,-3.2871 z"
       id="path891"
       inkscape:transform-center-x="-3.2635002"
       inkscape:transform-center-y="-0.71124868" />
    <path
       id="path1387"
       style="display:inline;fill:none;fill-opacity:1;stroke:#ad5f00;stroke-width:0.264999;stroke-linecap:round;stroke-linejoin:round;stroke-miterlimit:4;stroke-dasharray:none;stroke-opacity:1"
       inkscape:transform-center-x="-9.679129"
       inkscape:transform-center-y="0.52909185"
       d="m 9.8547097,264.24823 c -1.0327446,-0.5168 -1.9867001,-0.51738 -2.5025593,-10e-4 l -5.7811398,5.78114 5.0086096,5.00861 5.7811398,-5.78114 c 0.515837,-0.51602 0.515078,-1.4702 -0.002,-2.50305 -0.516899,-1.03266 -1.471401,-1.98717 -2.5040561,-2.50406 z"
       sodipodi:nodetypes="ccccccc" />
    <path
       id="path936"
       style="display:inline;fill:url(#linearGradient973);fill-opacity:1;stroke:none;stroke-width:0.264583px;stroke-linecap:butt;stroke-linejoin:miter;stroke-opacity:1"
       inkscape:transform-center-x="-4.9953435"
       inkscape:transform-center-y="-0.72332276"
       d="m 2.5827498,269.64112 a 3.5418264,2.0422202 45 0 0 -1.0115099,0.38627 l -0.77748989,5.78571 5.78641389,-0.77679 a 3.5418264,2.0422202 45 0 0 -0.00218,-2.50306 3.5418264,2.0422202 45 0 0 -2.5044627,-2.50444 3.5418264,2.0422202 45 0 0 -1.4908427,-0.38769 z" />
    <path
       d="m 2.5827498,269.64112 a 3.5418263,2.0422202 45 0 0 -1.0115099,0.38627 l -0.77748989,5.78571 0.62523449,-0.0839 0.6936084,-5.16048 a 3.5418264,2.0422202 45 0 1 1.0115098,-0.38627 3.5418264,2.0422202 45 0 1 1.4908317,0.38769 3.5418264,2.0422202 45 0 1 1.1651798,0.79512 3.5418263,2.0422202 45 0 0 -1.7065327,-1.33647 3.5418263,2.0422202 45 0 0 -1.4908317,-0.38769 z"
       inkscape:transform-center-y="-0.99396093"
       inkscape:transform-center-x="-4.1315849"
       style="display:inline;fill:#b8a99a;fill-opacity:1;stroke:none;stroke-width:0.264583px;stroke-linecap:butt;stroke-linejoin:miter;stroke-opacity:1"
       id="path915" />
    <path
       d="m 5.2394651,270.82463 a 3.5418264,2.0422202 45 0 1 0.7972261,1.16728 3.5418264,2.0422202 45 0 1 0.00218,2.50306 l -5.16119721,0.6929 -0.0838884,0.62523 5.78641391,-0.77679 a 3.5418263,2.0422202 45 0 0 -0.00218,-2.50306 3.5418263,2.0422202 45 0 0 -1.3385791,-1.70864 z"
       inkscape:transform-center-y="0.13906949"
       inkscape:transform-center-x="-5.2662039"
       style="display:inline;fill:#57392d;fill-opacity:1;stroke:none;stroke-width:0.264583px;stroke-linecap:butt;stroke-linejoin:miter;stroke-opacity:1"
       id="path924" />
    <path
       d="m 2.5827498,269.64112 a 3.5418264,2.0422202 45 0 0 -1.0115099,0.38627 l -0.77748989,5.78571 5.78641389,-0.77679 a 3.5418264,2.0422202 45 0 0 -0.00218,-2.50306 3.5418264,2.0422202 45 0 0 -2.5044627,-2.50444 3.5418264,2.0422202 45 0 0 -1.4908427,-0.38769 z"
       inkscape:transform-center-y="-0.72332276"
       inkscape:transform-center-x="-4.9953435"
       style="display:inline;fill:none;fill-opacity:0.988506;stroke:#3d211b;stroke-width:0.264583px;stroke-linecap:round;stroke-linejoin:round;stroke-opacity:1"
       id="path944" />
    <path
       id="path899"
       style="display:inline;fill:#000000;fill-opacity:1;stroke:none;stroke-width:0.265;stroke-linecap:round;stroke-linejoin:round;stroke-miterlimit:4;stroke-dasharray:none;stroke-opacity:0.984314"
       inkscape:transform-center-y="-0.41417196"
       d="m 2.6430623,272.5408 a 2.012093,1.1370423 45 0 0 -1.4079136,-0.0137 l -0.44103829,3.28702 3.28640179,-0.44165 a 2.012093,1.1370423 45 0 0 -0.014443,-1.40792 2.012093,1.1370423 45 0 0 -1.4229973,-1.423 z"
       inkscape:transform-center-x="-3.1169637" />
    <path
       id="path983"
       style="display:inline;fill:#fafafa;fill-opacity:1;stroke:none;stroke-width:1.00157;stroke-linecap:round;stroke-linejoin:round;stroke-miterlimit:4;stroke-dasharray:none;stroke-opacity:0.984314"
       inkscape:transform-center-x="-3.1169637"
       inkscape:transform-center-y="-0.41417196"
       d="M 6.8144531 -29.298828 A 7.6047609 4.2974827 45 0 0 4.6679688 -28.496094 L 3.0019531 -16.072266 L 5.3125 -16.382812 L 6.6679688 -26.496094 A 7.6047609 4.2974827 45 0 1 11.988281 -26.445312 L 11.988281 -26.441406 A 7.6047609 4.2974827 45 0 1 14.033203 -25.105469 A 7.6047609 4.2974827 45 0 0 9.9902344 -28.441406 L 9.9902344 -28.443359 A 7.6047609 4.2974827 45 0 0 6.8144531 -29.298828 z "
       transform="matrix(0.26458334,0,0,0.26458334,0,280.06666)" />
    <path
       d="m 2.6430623,272.5408 a 2.012093,1.1370423 45 0 0 -1.4079136,-0.0137 l -0.44103829,3.28702 3.28640179,-0.44165 a 2.012093,1.1370423 45 0 0 -0.014443,-1.40792 2.012093,1.1370423 45 0 0 -1.4229973,-1.423 z"
       inkscape:transform-center-y="-0.41417196"
       style="display:inline;fill:none;fill-opacity:1;stroke:#000000;stroke-width:0.265113;stroke-linecap:round;stroke-linejoin:round;stroke-miterlimit:4;stroke-dasharray:none;stroke-opacity:1"
       id="path916"
       inkscape:transform-center-x="-3.1169637" />
    <path
       id="path1185"
       d="m 14.620184,247.61019 -5.637523,-5.63751 v 5.63751 z"
       style="fill:#fafafa;fill-opacity:1;stroke:none;stroke-width:0.264583px;stroke-linecap:butt;stroke-linejoin:miter;stroke-opacity:1" />
    <path
       id="path1187"
       d="M 14.620184,247.61019 H 8.982661 v -5.63751 z"
       style="fill:none;stroke:#000000;stroke-width:0.264583;stroke-linecap:round;stroke-linejoin:round;stroke-miterlimit:4;stroke-dasharray:none;stroke-opacity:1" />
    <rect
       ry="0.66145837"
       rx="0.66145837"
       y="281.63998"
       x="1.5733259"
       height="13.786666"
       width="13.786666"
       id="rect980"
       style="fill:url(#linearGradient1017);fill-opacity:1;stroke:none;stroke-width:0.264583;stroke-linecap:round;stroke-linejoin:round" />
    <path
       transform="matrix(0.26458334,0,0,0.26458334,0,280.06666)"
       d="M 5.9472656 54.054688 L 5.9472656 55.552734 C 5.9472656 56.937742 7.0622657 58.052734 8.4472656 58.052734 L 55.552734 58.052734 C 56.937735 58.052734 58.052734 56.937742 58.052734 55.552734 L 58.052734 54.054688 C 58.052734 55.439695 56.937735 56.554688 55.552734 56.554688 L 8.4472656 56.554688 C 7.0622657 56.554688 5.9472656 55.439695 5.9472656 54.054688 z "
       style="fill:#1a1a1a;fill-opacity:1;stroke:none;stroke-width:0.999999;stroke-linecap:round;stroke-linejoin:round"
       id="rect1033" />
    <path
       sodipodi:nodetypes="csssccsssccsssccssscc"
       d="m 5.4972192,286.90016 c -0.5404584,0 -1.0276999,-0.32556 -1.234523,-0.82488 -0.2068237,-0.49932 -0.092501,-1.07406 0.2896599,-1.45622 0.3821629,-0.38216 0.9569029,-0.49649 1.4562204,-0.28965 0.4993169,0.20681 0.8248802,0.69405 0.8248816,1.23451 v 5.93879 c -1.4e-6,0.54047 -0.3255647,1.02771 -0.8248816,1.23453 -0.4993175,0.20682 -1.0740575,0.0925 -1.4562204,-0.28965 -0.3821608,-0.38217 -0.4964836,-0.9569 -0.2896599,-1.45622 0.2068231,-0.49932 0.6940646,-0.82489 1.234523,-0.82489 h 5.9388398 c 0.540459,0 1.0277,0.32557 1.234523,0.82489 0.206824,0.49932 0.0925,1.07405 -0.289659,1.45622 -0.382163,0.38215 -0.956903,0.49647 -1.456221,0.28965 -0.499317,-0.20682 -0.82488,-0.69406 -0.824882,-1.23453 l 4e-5,-5.93879 c 1e-6,-0.54046 0.325565,-1.0277 0.824881,-1.23451 0.499318,-0.20684 1.074058,-0.0925 1.45622,0.28965 0.382162,0.38216 0.496485,0.9569 0.289661,1.45622 -0.206823,0.49932 -0.694065,0.82488 -1.234523,0.82488 z"
       style="fill:none;stroke:#fafafa;stroke-width:0.79375;stroke-linecap:round;stroke-linejoin:round;stroke-miterlimit:4;stroke-dasharray:none;stroke-opacity:1"
       id="path1007" />
    <path
       transform="matrix(0.26458334,0,0,0.26458334,0,280.06666)"
       d="M 8.4472656 5.9472656 C 7.0622657 5.9472656 5.9472656 7.0622578 5.9472656 8.4472656 L 5.9472656 9.9472656 C 5.9472656 8.5622578 7.0622657 7.4472656 8.4472656 7.4472656 L 55.552734 7.4472656 C 56.937735 7.4472656 58.052734 8.5622578 58.052734 9.9472656 L 58.052734 8.4472656 C 58.052734 7.0622578 56.937735 5.9472656 55.552734 5.9472656 L 8.4472656 5.9472656 z "
       style="fill:#abacae;fill-opacity:1;stroke:none;stroke-width:0.999999;stroke-linecap:round;stroke-linejoin:round;stroke-opacity:1"
       id="rect1022" />
    <rect
       style="fill:none;fill-opacity:1;stroke:#000000;stroke-width:0.26458334;stroke-linecap:round;stroke-linejoin:round;stroke-opacity:1;stroke-miterlimit:4;stroke-dasharray:none"
       id="rect1019"
       width="13.786666"
       height="13.786666"
       x="1.5733259"
       y="281.63998"
       rx="0.66145837"
       ry="0.66145837" />
    <path
       id="path1048"
       d="M 5.1601562 283.86523 C 4.8306504 283.93078 4.5189146 284.09046 4.2714844 284.33789 C 3.7766233 284.83275 3.6286689 285.57999 3.8964844 286.22656 C 4.1643 286.87313 4.7982094 287.29688 5.4980469 287.29688 L 6.4375 287.29688 L 6.4375 289.76953 L 5.4980469 289.76953 C 4.7982045 289.76953 4.1642993 290.19327 3.8964844 290.83984 C 3.6286696 291.48641 3.776631 292.23365 4.2714844 292.72852 C 4.766348 293.22336 5.5135915 293.37133 6.1601562 293.10352 C 6.8067244 292.8357 7.2304669 292.2018 7.2304688 291.50195 L 7.2304688 290.5625 L 9.703125 290.5625 L 9.703125 291.50195 C 9.7031276 292.2018 10.126869 292.8357 10.773438 293.10352 C 11.420003 293.37133 12.167246 293.22336 12.662109 292.72852 C 13.15696 292.23365 13.304925 291.48641 13.037109 290.83984 C 12.769295 290.19328 12.13539 289.76953 11.435547 289.76953 L 10.496094 289.76953 L 10.496094 287.29688 L 11.435547 287.29688 C 12.135384 287.29688 12.769294 286.87313 13.037109 286.22656 C 13.304925 285.57999 13.156972 284.83275 12.662109 284.33789 C 12.167251 283.84305 11.420014 283.69505 10.773438 283.96289 C 10.126864 284.23069 9.7031263 284.86461 9.703125 285.56445 L 9.703125 286.50391 L 7.2304688 286.50391 L 7.2304688 285.56445 C 7.2304669 284.86461 6.8067303 284.23069 6.1601562 283.96289 C 5.8368701 283.82897 5.4896621 283.79969 5.1601562 283.86523 z M 5.8574219 284.69531 C 6.2094816 284.84113 6.437499 285.18337 6.4375 285.56445 L 6.4375 286.50391 L 5.4980469 286.50391 C 5.1169675 286.50391 4.7747368 286.2759 4.6289062 285.92383 C 4.4830743 285.57176 4.5625705 285.16985 4.8320312 284.90039 C 5.1014966 284.63093 5.5053592 284.54947 5.8574219 284.69531 z M 11.076172 284.69531 C 11.428231 284.54947 11.830143 284.63093 12.099609 284.90039 C 12.369071 285.16985 12.45052 285.57176 12.304688 285.92383 C 12.158857 286.2759 11.816626 286.50391 11.435547 286.50391 L 10.496094 286.50391 L 10.496094 285.56445 C 10.496094 285.18337 10.724113 284.84113 11.076172 284.69531 z M 7.2304688 287.29688 L 9.703125 287.29688 L 9.703125 289.76953 L 7.2304688 289.76953 L 7.2304688 287.29688 z M 5.4980469 290.5625 L 6.4375 290.5625 L 6.4375 291.50195 C 6.437499 291.88305 6.2094875 292.22527 5.8574219 292.37109 C 5.5053516 292.51692 5.1014934 292.43547 4.8320312 292.16602 C 4.562563 291.89654 4.4830736 291.49465 4.6289062 291.14258 C 4.7747375 290.79051 5.1169724 290.5625 5.4980469 290.5625 z M 10.496094 290.5625 L 11.435547 290.5625 C 11.816622 290.5625 12.158856 290.79051 12.304688 291.14258 C 12.45052 291.49465 12.369077 291.89654 12.099609 292.16602 C 11.830147 292.43547 11.428243 292.51692 11.076172 292.37109 C 10.724106 292.22527 10.496095 291.88305 10.496094 291.50195 L 10.496094 290.5625 z "
       style="color:#000000;font-style:normal;font-variant:normal;font-weight:normal;font-stretch:normal;font-size:medium;line-height:normal;font-family:sans-serif;font-variant-ligatures:normal;font-variant-position:normal;font-variant-caps:normal;font-variant-numeric:normal;font-variant-alternates:normal;font-variant-east-asian:normal;font-feature-settings:normal;font-variation-settings:normal;text-indent:0;text-align:start;text-decoration:none;text-decoration-line:none;text-decoration-style:solid;text-decoration-color:#000000;letter-spacing:normal;word-spacing:normal;text-transform:none;writing-mode:lr-tb;direction:ltr;text-orientation:mixed;dominant-baseline:auto;baseline-shift:baseline;text-anchor:start;white-space:normal;shape-padding:0;shape-margin:0;inline-size:0;clip-rule:nonzero;display:inline;overflow:visible;visibility:visible;isolation:auto;mix-blend-mode:normal;color-interpolation:sRGB;color-interpolation-filters:linearRGB;solid-color:#000000;solid-opacity:1;vector-effect:none;fill:none;fill-opacity:1;fill-rule:nonzero;stroke:#000000;stroke-width:0.26458334;stroke-linecap:round;stroke-linejoin:round;stroke-miterlimit:4;stroke-dasharray:none;stroke-dashoffset:0;stroke-opacity:1;color-rendering:auto;image-rendering:auto;shape-rendering:auto;text-rendering:auto;enable-background:accumulate;stop-color:#000000;stop-opacity:1;opacity:1" />
  </g>
  <g
     style="display:none"
     inkscape:label="Layer 2"
     id="layer2"
     inkscape:groupmode="layer">
    <path
       transform="scale(0.26458334)"
       d="M 3,3 V 11.4375 27.958984 44.478516 61 H 61 V 44.478516 27.958984 11.4375 3 Z"
       style="display:inline;fill:url(#linearGradient1033);fill-opacity:1;stroke:none;stroke-width:0.999999;stroke-linecap:round;stroke-linejoin:round"
       id="rect1021" />
  </g>
</svg>
