<?xml version="1.0"?>
<!-- Converted with SVG Converter - Version 0.9.6 (Compiled Thu Aug 31 04:01:04 2017) - Copyright (C) 2011 Nokia -->
<svg xmlns="http://www.w3.org/2000/svg" version="1.1" xmlns:xlink="http://www.w3.org/1999/xlink" height="100%" width="100%" baseProfile="tiny" xml:space="preserve" viewBox="0 0 24 24">
 <g transform="matrix(1,0,0,1,-246,-121)">
  <g transform="matrix(1,0,0,1,33,68)">
   <g id="detailed">
    <rect style="fill:none;" id="brush_detailed" y="53" x="213" height="24" width="24"/>
    <g>
     <g transform="matrix(0.801415,0.852437,-0.872946,0.928521,154.264,-100.13)">
      <path style="fill:rgb(107,107,107);" d="M137.65,45.499C137.077,43.381 137,33.966 137,33.966C137,33.69 137.244,33.465 137.545,33.465L144.455,33.465C144.756,33.465 145,33.69 145,33.966C145,33.966 144.869,42.365 144.038,45.176C144.022,45.226 144.002,45.275 143.978,45.323L143.881,45.023C143.881,45.023 143.121,44.048 141.241,44.048C140.077,44.048 138.969,44.039 137.869,45.017C137.716,45.152 137.634,45.289 137.65,45.499Z"/>
     </g>
     <g transform="matrix(2.10739,-2.24156,1.43324,1.52449,-108.252,320.214)">
      <path style="fill:url(#_Linear2);" d="M137.199,30.686C137.828,30.455 139.978,30.37 141.173,30.346C141.688,30.729 142.085,31.322 142.184,32.201L142.184,33.173C142.097,33.868 141.816,34.389 141.438,34.769C140.404,34.736 138.211,34.608 137.333,34.258L137.205,34.153C137.205,34.153 137.249,34.212 137.281,34.215C137.313,34.218 137.396,34.17 137.396,34.17C137.396,34.17 137.8,33.745 137.8,32.694C137.8,32.043 137.804,31.424 137.399,30.808C137.351,30.735 137.302,30.691 137.199,30.686Z"/>
     </g>
     <g transform="matrix(2.10739,-2.24156,1.43324,1.52449,-108.252,320.214)">
      <path style="fill:url(#_Linear3);" d="M141.173,30.346C141.688,30.729 142.085,31.322 142.184,32.201L142.184,33.173C142.097,33.868 141.816,34.389 141.438,34.769C140.404,34.736 138.211,34.608 137.333,34.258C136.878,34.076 136.859,32.581 136.859,32.581L136.857,31.87L136.877,31.512C136.905,31.12 136.995,30.769 137.199,30.686C137.766,30.458 139.961,30.37 141.173,30.346Z"/>
     </g>
     <g transform="matrix(1.33735,-1.42249,1.54595,1.64437,-7.32409,205.079)">
      <g transform="matrix(0.373875,0.323425,-0.351497,0.304067,135.829,25.0162)">
      </g>
     </g>
     <g transform="matrix(0.974018,-1.03603,1.43324,1.52449,46.6927,155.405)">
      <path style="fill:url(#_Linear5);" d="M137.266,31.008C137.377,30.852 137.54,30.736 137.767,30.686C137.955,30.677 138.078,30.723 138.199,30.808C139.076,31.424 139.067,32.043 139.067,32.694C139.067,33.745 138.324,34.121 138.227,34.193C138.126,34.232 138.012,34.247 137.944,34.227C137.886,34.225 137.781,34.153 137.781,34.153C137.781,34.153 137.052,32.702 137.03,32.581C137.03,32.581 137.027,31.87 137.027,31.87L137.07,31.512L137.266,31.008Z"/>
     </g>
     <g transform="matrix(0.923041,-0.981806,1.35823,1.4447,56.1621,150.512)">
      <path d="M137.767,30.686C137.916,30.672 137.996,30.676 138.199,30.808C138.96,31.406 139,32.043 139,32.694C139,33.745 138.194,34.17 138.194,34.17C137.379,34.586 137.03,32.581 137.03,32.581C137.03,32.413 136.774,30.871 137.767,30.686Z"/>
     </g>
     <g transform="matrix(-0.268725,-1.06674,-1.0636,0.303135,355.783,283.962)">
      <path style="fill:url(#_Linear6);" d="M223.873,61.787C225.552,62.188 228.752,64.002 228.606,66.172C227.988,72.31 221.642,71.721 218.512,76.213C218.397,76.379 217.798,72.397 217.509,70.11C216.92,65.462 220.725,61.902 223.873,61.787Z"/>
      <g>
       <g transform="matrix(0.864972,0.136499,-0.136499,0.864972,38.3522,-19.8649)">
        <path style="fill:url(#_Radial8);" d="M229.921,63.501C229.248,61.66 227.769,60.17 226.258,59.357C225.373,59.044 224.494,58.945 223.805,59.08C220.275,59.771 216.616,64.463 218.108,69.602C218.842,72.13 220.226,76.515 220.326,76.307C223.013,70.772 230.091,70.234 229.921,63.501Z"/>
       </g>
       <g id="Strokes">
        <g stroke-opacity="0.664937" fill-opacity="0.664937">
         <g transform="matrix(-0.236089,-0.830809,-0.881097,0.222615,335.383,237.062)">
          <path style="fill:none;stroke:rgb(143,93,50);stroke-width:0.21px;stroke-linecap:round;" d="M225.978,62.725C225.796,62.7 223.806,63.875 222.929,64.94C220.939,67.359 219.446,70.174 217.291,72.448C216.406,73.382 215.454,74.244 214.56,75.166"/>
         </g>
         <g transform="matrix(-0.236089,-0.830809,-0.881097,0.222615,335.383,237.062)">
          <path style="fill:none;stroke:rgb(143,93,50);stroke-width:0.21px;stroke-linecap:round;" d="M225.561,62.47C224.026,62.703 223.583,63.058 222.322,63.982C221.243,64.772 220.34,65.902 219.58,66.989C218.263,68.873 217.897,70.424 216.505,72.261C216.195,72.67 215.602,73.957 214.56,75.166"/>
         </g>
         <g transform="matrix(-0.236089,-0.830809,-0.881097,0.222615,335.383,237.062)">
          <path style="fill:none;stroke:rgb(143,93,50);stroke-width:0.21px;stroke-linecap:round;" d="M224.655,61.959C222.708,62.81 219.816,64.684 218.549,66.435C217.681,67.636 217.056,69.041 216.551,70.43C216.259,71.234 216.04,72.062 215.667,72.835C215.069,74.077 215.195,74.162 214.237,75.144"/>
         </g>
         <g transform="matrix(-0.236089,-0.830809,-0.881097,0.222615,335.383,237.062)">
          <path style="fill:none;stroke:rgb(143,93,50);stroke-width:0.21px;stroke-linecap:round;" d="M223.771,61.992C222.64,62.408 221.475,63.002 220.531,63.756C219.15,64.858 218.011,66.394 217.275,67.993C216.717,69.203 216.605,70.548 216.105,71.779C215.588,73.05 214.833,73.957 214.179,75.161"/>
         </g>
         <g transform="matrix(-0.236089,-0.830809,-0.881097,0.222615,335.383,237.062)">
          <path style="fill:none;stroke:rgb(143,93,50);stroke-width:0.21px;stroke-linecap:round;" d="M223.82,61.777C223.817,61.775 223.326,61.679 222.085,62.238C219.53,63.392 218.589,64.822 217.59,67.463"/>
         </g>
         <g transform="matrix(-0.236089,-0.830809,-0.881097,0.222615,335.383,237.062)">
          <path style="fill:none;stroke:rgb(143,93,50);stroke-width:0.21px;stroke-linecap:round;" d="M228.101,64.865C228.188,64.972 228.64,66.709 227.792,68.378C227.412,69.124 226.818,69.807 226.25,70.414C224.473,72.314 221.871,73.586 219.394,74.287C218.301,74.597 216.063,74.944 214.96,75.209"/>
         </g>
         <g transform="matrix(-0.236089,-0.830809,-0.881097,0.222615,335.383,237.062)">
          <path style="fill:none;stroke:rgb(143,93,50);stroke-width:0.21px;stroke-linecap:round;" d="M227.655,64.282C227.371,69.554 223.014,72.291 218.399,74.134C216.453,74.911 216.378,74.327 214.478,75.229"/>
         </g>
         <g transform="matrix(-0.236089,-0.830809,-0.881097,0.222615,335.383,237.062)">
          <path style="fill:none;stroke:rgb(143,93,50);stroke-width:0.21px;stroke-linecap:round;" d="M227.161,63.787C226.68,65.369 226.59,66.105 225.655,67.487C223.34,70.907 219.529,72.839 215.958,74.651"/>
         </g>
         <g transform="matrix(-0.236089,-0.830809,-0.881097,0.222615,335.383,237.062)">
          <path style="fill:none;stroke:rgb(143,93,50);stroke-width:0.21px;stroke-linecap:round;" d="M226.566,64.442C225.838,65.692 224.82,66.816 223.797,67.83C221.574,70.033 219.236,72.252 216.586,73.941"/>
         </g>
         <g transform="matrix(-0.236089,-0.830809,-0.881097,0.222615,335.383,237.062)">
          <path style="fill:none;stroke:rgb(143,93,50);stroke-width:0.21px;stroke-linecap:round;" d="M226.726,63.341C226.553,63.404 225.534,64.318 224.659,65.145C222.724,66.976 221.112,69.041 219.4,71.071C218.935,71.622 218.417,72.27 217.904,72.774"/>
         </g>
         <g transform="matrix(-0.236089,-0.830809,-0.881097,0.222615,335.383,237.062)">
          <path style="fill:none;stroke:rgb(143,93,50);stroke-width:0.21px;stroke-linecap:round;" d="M225.377,62.505C223.052,62.786 220.77,64.262 218.777,67.141C218.103,68.114 217.64,69.205 217.102,70.254C216.399,71.626 215.667,72.978 214.853,74.288"/>
         </g>
         <g transform="matrix(-0.236089,-0.830809,-0.881097,0.222615,335.383,237.062)">
          <path style="fill:none;stroke:rgb(143,93,50);stroke-width:0.21px;stroke-linecap:round;" d="M225.943,62.765C223.642,63.377 221.662,64.971 219.654,67.908C218.688,69.32 217.997,70.9 217.029,72.311C215.855,74.023 216.318,73.437 214.895,74.933"/>
         </g>
         <g transform="matrix(-0.236089,-0.830809,-0.881097,0.222615,335.383,237.062)">
          <path style="fill:none;stroke:rgb(143,93,50);stroke-width:0.21px;stroke-linecap:round;" d="M226.426,63.095C226.238,63.165 224.91,63.957 223.853,65.024C221.926,66.968 220.285,69.123 218.586,71.263C217.148,73.075 216.46,73.623 214.765,75.187"/>
         </g>
         <g transform="matrix(-0.236089,-0.830809,-0.881097,0.222615,335.383,237.062)">
          <path style="fill:none;stroke:rgb(143,93,50);stroke-width:0.21px;stroke-linecap:round;" d="M227.153,63.909C225.956,66.813 223.562,68.497 221.195,70.435C218.816,72.383 217.416,74.116 214.502,75.193"/>
         </g>
         <g transform="matrix(-0.236089,-0.830809,-0.881097,0.222615,335.383,237.062)">
          <path style="fill:none;stroke:rgb(143,93,50);stroke-width:0.21px;stroke-linecap:round;" d="M227.116,63.898C226.483,65.859 225.248,67.07 223.866,68.546C220.995,71.611 219.497,72.903 215.814,74.898"/>
         </g>
         <g transform="matrix(-0.236089,-0.830809,-0.881097,0.222615,335.383,237.062)">
          <path style="fill:none;stroke:rgb(143,93,50);stroke-width:0.21px;stroke-linecap:round;" d="M227.595,64.963C227.465,68.648 224.747,71.256 221.897,73.218C220.938,73.878 220.575,74.129 219.543,74.671"/>
         </g>
         <g transform="matrix(-0.236089,-0.830809,-0.881097,0.222615,335.383,237.062)">
          <path style="fill:none;stroke:rgb(143,93,50);stroke-width:0.21px;stroke-linecap:round;" d="M226.989,63.98C225.063,65.82 223.705,67.019 221.796,68.877C220.236,70.395 218.738,71.973 217.183,73.494C216.331,74.327 216.014,74.4 214.702,75.192"/>
         </g>
         <g transform="matrix(-0.236089,-0.830809,-0.881097,0.222615,335.383,237.062)">
          <path style="fill:none;stroke:rgb(143,93,50);stroke-width:0.21px;stroke-linecap:round;" d="M225.875,62.793C224.434,63.22 223.899,63.859 222.819,64.872C221.242,66.35 219.886,68.102 218.773,69.955C217.9,71.409 217.218,72.964 216.309,74.398"/>
         </g>
         <g transform="matrix(-0.236089,-0.830809,-0.881097,0.222615,335.383,237.062)">
          <path style="fill:none;stroke:rgb(143,93,50);stroke-width:0.21px;stroke-linecap:round;" d="M224.356,61.869C222.733,62.072 222.552,62.326 221.214,63.244C220.559,63.693 219.897,64.136 219.316,64.68C217.827,66.075 217.463,67.683 216.795,69.606"/>
         </g>
        </g>
       </g>
      </g>
     </g>
     <g transform="matrix(-0.26917,-1.06851,-1.06303,0.302972,355.85,284.376)">
      <path style="fill:url(#_Radial9);" d="M228.232,64.462C227.373,62.874 225.277,61.735 223.873,61.787C220.725,61.902 216.92,65.462 217.509,70.11C217.653,71.254 217.876,72.821 218.076,74.081L218.512,76.213C221.642,71.721 227.988,72.31 228.606,66.172C228.636,65.875 228.615,65.583 228.549,65.29L228.232,64.462Z"/>
     </g>
    </g>
   </g>
  </g>
 </g>
 <defs>
  <linearGradient y2="0" gradientTransform="matrix(0.108095,3.46074,-2.35366,0.158939,137.852,29.6269)" x2="1" y1="0" id="_Linear2" x1="0" gradientUnits="userSpaceOnUse">
   <stop style="stop-color:black;stop-opacity:1" offset="0.0"/>
   <stop style="stop-color:rgb(13,13,13);stop-opacity:1" offset="0.2"/>
   <stop style="stop-color:rgb(50,50,50);stop-opacity:1" offset="0.3"/>
   <stop style="stop-color:rgb(94,94,94);stop-opacity:1" offset="0.3"/>
   <stop style="stop-color:white;stop-opacity:1" offset="0.5"/>
   <stop style="stop-color:rgb(95,95,95);stop-opacity:1" offset="0.9"/>
   <stop style="stop-color:rgb(81,81,81);stop-opacity:0.784314" offset="1.0"/>
  </linearGradient>
  <linearGradient y2="0" gradientTransform="matrix(0.121046,-2.03602,1.3847,0.177982,138.727,35.0912)" x2="1" y1="0" id="_Linear3" x1="0" gradientUnits="userSpaceOnUse">
   <stop style="stop-color:black;stop-opacity:1" offset="0.0"/>
   <stop style="stop-color:rgb(24,24,24);stop-opacity:0.686275" offset="0.4"/>
   <stop style="stop-color:rgb(75,75,75);stop-opacity:0" offset="1.0"/>
  </linearGradient>
  <linearGradient y2="0" gradientTransform="matrix(-0.0379099,-3.27825,4.82387,-0.0257632,138.055,34.3564)" x2="1" y1="0" id="_Linear5" x1="0" gradientUnits="userSpaceOnUse">
   <stop style="stop-color:rgb(58,67,72);stop-opacity:1" offset="0.0"/>
   <stop style="stop-color:rgb(209,216,220);stop-opacity:1" offset="1.0"/>
  </linearGradient>
  <linearGradient y2="0" gradientTransform="matrix(9.76828,3.14276,3.14276,-9.76828,218.27,64.4608)" x2="1" y1="0" id="_Linear6" x1="0" gradientUnits="userSpaceOnUse">
   <stop style="stop-color:rgb(135,78,52);stop-opacity:1" offset="0.0"/>
   <stop style="stop-color:rgb(132,71,23);stop-opacity:1" offset="1.0"/>
  </linearGradient>
  <radialGradient gradientTransform="matrix(5.25593,2.02096,4.1531,-10.801,223.945,67.2668)" id="_Radial8" cy="0" cx="0" r="1" gradientUnits="userSpaceOnUse">
   <stop style="stop-color:rgb(255,211,138);stop-opacity:1" offset="0.0"/>
   <stop style="stop-color:rgb(255,211,138);stop-opacity:0" offset="1.0"/>
  </radialGradient>
  <radialGradient gradientTransform="matrix(-6.95466,12.0478,9.86174,5.75568,219.746,74.3515)" id="_Radial9" cy="0" cx="0" r="1" gradientUnits="userSpaceOnUse">
   <stop style="stop-color:black;stop-opacity:0" offset="0.0"/>
   <stop style="stop-color:black;stop-opacity:0.141176" offset="0.7"/>
   <stop style="stop-color:black;stop-opacity:0.533333" offset="0.8"/>
   <stop style="stop-color:black;stop-opacity:1" offset="1.0"/>
  </radialGradient>
 </defs>
</svg>
