<svg xmlns="http://www.w3.org/2000/svg" viewBox="0 0 18 18" fill-rule="evenodd" stroke-linejoin="round" stroke-miterlimit="2" xmlns:v="https://vecta.io/nano"><path fill-opacity=".41" d="M.98 3.89h16.01v11.22H.98z"/><path fill="none" stroke="#000" stroke-width=".75" d="M.99 2.89h16.03v11.22H.99z"/><path fill="url(#A)" d="M.99 2.89h16.03v11.22H.99z"/><path d="M5.8 8.02c-.6 0-1.08.49-1.08 1.1v2.72c0 .6.48 1.1 1.09 1.1h3.93c.6 0 1.09-1.26 1.09-1.87v-.32c.22.1.68-.04 1.02.07.62.19 1.65.87 2.06 1.06.4.19.25-.26.25-.7V9c0-.45-.32-.65-.71-.46-.41.18-.96.63-1.56.82-.36.1-.82-.05-1.06.06V9.1c0-.6-.49-1.1-1.1-1.1H5.82Z" fill="url(#B)" fill-rule="nonzero"/><path d="m11.85 10.24 2.31.91.03.84-2.34-1.13v-.62Z" fill="#6d707d"/><path d="m11.9 9.47 2.3-1.07v.75l-2.32.7.01-.38Z" fill="#6d707c"/><path d="m11.84 10.3 2.28.97-.03-1.14-2.27-.1.02.27Z" fill="#b8bac1"/><path d="M11.85 9.56v1.1" fill="none" stroke="#555761" stroke-width=".25" stroke-linecap="round" stroke-miterlimit="1.5"/><g fill="#7a0000"><path d="M9.7 8.18V6.11H5.87v2.07h3.81Z"/><circle cx="5.85" cy="6.06" r="1.54"/></g><circle cx="5.85" cy="6.06" r="1.25" fill="#c6262e"/><path d="M10.73 10.8s.13 1.46-1 1.46H5.82c-.6 0-1.1-.49-1.1-1.1v.68c0 .6.5 1.1 1.1 1.1h3.93c1.13-.57 1.18-2.14 1-2.14Z" fill="#666975" fill-rule="nonzero"/><circle cx="9.91" cy="5.75" r="1.85" fill="#7a0000"/><circle cx="9.91" cy="5.75" r="1.59" fill="#c6262e"/><ellipse cx="9.91" cy="5.75" rx=".51" ry=".49" fill="#7a0000"/><path d="M5.8 8.02c-.6 0-1.08.49-1.08 1.1v2.72c0 .6.48 1.1 1.09 1.1h3.93c.6 0 1.09-1.23 1.09-1.84v-.32l1.1.03 2.23 1.18v-3.6l-2.19 1.03-1.14.01v-.32c0-.6-.49-1.1-1.1-1.1H5.82Z" fill="none" stroke="#555761" stroke-width=".34" stroke-miterlimit="4"/><ellipse cx="5.85" cy="6.11" rx=".51" ry=".49" fill="#7a0000"/><defs><linearGradient id="A" x1="0" y1="0" x2="1" y2="0" gradientUnits="userSpaceOnUse" gradientTransform="matrix(.09795 19.0262 -23.4116 .0796 8.32 2.89)"><stop offset="0" stop-color="#f4f4f4"/><stop offset="1" stop-color="#dbdbdb"/></linearGradient><linearGradient id="B" x1="10.096" y1="7.076" x2="9.858" y2="13.392" gradientUnits="userSpaceOnUse"><stop offset="0" stop-color="#abacae"/><stop offset="1" stop-color="#7e8087"/></linearGradient></defs></svg>