<svg xmlns="http://www.w3.org/2000/svg" viewBox="0 0 18 18" fill-rule="evenodd" stroke-linejoin="round" stroke-miterlimit="2" xmlns:v="https://vecta.io/nano"><path fill-opacity=".41" d="M.98 3.87h16.01v11.22H.98z"/><path fill="none" stroke="#000" stroke-width=".75" d="M.99 2.87h16.03v11.22H.99z"/><path fill="url(#A)" d="M.99 2.87h16.03v11.22H.99z"/><path d="M10.16 6.93c2.52.18 2.39 3.18 0 3.36m2.04-3.96c1.97.24 1.88 4.32 0 4.56" fill="none" stroke="#2f7ede" stroke-width=".5" stroke-linecap="round" stroke-miterlimit="1.5"/><g fill-rule="nonzero"><path d="M10.44 4.5 8.48 6.35l-.47.27H5.52a.84.84 0 0 0-.84.84v2.32c0 .46.38.84.84.84h2.49l.47.27 1.96 1.86a.49.49 0 0 0 .73-.42V4.9a.49.49 0 0 0-.73-.42Z" fill="url(#B)"/><path d="M4.68 8.6v1.18c0 .46.38.84.84.84h2.49l.47.27 1.95 1.86a.49.49 0 0 0 .73-.42v-1.17a.49.49 0 0 1-.73.4L8.48 9.7l-.47-.27H5.52a.84.84 0 0 1-.84-.84Z" fill="#959595"/></g><path d="M10.44 4.5 8 6.62H5.52a.84.84 0 0 0-.84.84v2.32c0 .46.38.84.84.84h2.49l2.43 2.13a.49.49 0 0 0 .73-.42V4.9a.49.49 0 0 0-.73-.42Z" fill="none" stroke="#0e141f" stroke-width=".35" stroke-miterlimit="4"/><defs><linearGradient id="A" x1="0" y1="0" x2="1" y2="0" gradientUnits="userSpaceOnUse" gradientTransform="matrix(.09795 19.0262 -23.4116 .0796 8.32 2.87)"><stop offset="0" stop-color="#f4f4f4"/><stop offset="1" stop-color="#dbdbdb"/></linearGradient><linearGradient id="B" x1="0" y1="0" x2="1" y2="-.01" gradientUnits="userSpaceOnUse" gradientTransform="matrix(.03958 14.2086 -9.46033 .05945 7.65 4.43)"><stop offset="0" stop-color="#f4f4f4"/><stop offset="1" stop-color="#dbdbdb"/></linearGradient></defs></svg>