<svg xmlns="http://www.w3.org/2000/svg" width="100%" height="100%" viewBox="0 0 20 20" fill-rule="evenodd" stroke-linejoin="round" stroke-miterlimit="2" xmlns:v="https://vecta.io/nano"><path d="M18.885 17.25a.25.25 0 0 0-.25-.25H1.383a.25.25 0 0 0-.25.25v.5a.25.25 0 0 0 .25.25h17.252a.25.25 0 0 0 .25-.25v-.5z" fill="#494949" fill-opacity=".49"/><path d="M19.5 7.5l-5-5H.5v15h19v-10z" fill="url(#A)"/><path d="M19.5 7.5l-5-5H.5v15h19v-10z" fill="none" stroke="#6c6c6c"/><path d="M19 17.25a.25.25 0 0 0-.25-.25H1.25a.25.25 0 0 0-.25.25v.5a.25.25 0 0 0 .25.25h17.5a.25.25 0 0 0 .25-.25v-.5z" fill="#0a0a0a" fill-opacity=".49"/><path d="M19.5 7.5l-5-5v5h5z" fill="#fff"/><path d="M19.5 7.5l-5-5v5h5z" fill="none" stroke="#6c6c6c"/><path d="M8.5 8.5h7v7h-7z" fill="#68b723"/><path d="M8.5 8.5h7v7h-7z" fill="none" stroke="#206b00" stroke-miterlimit="4"/><ellipse cx="8.484" cy="9" rx="3.984" ry="4" fill="#c6262e"/><path d="M12 9c-.226 1.382-1.002 3-3.5 3-1.498 0-3.238-1.118-3.465-2.5-.023.142-.035.285-.035.428h0c0 1.56 1.924 2.848 3.595 2.848h.001C10.267 12.776 12 11.56 12 10V9z" fill="#a10705" fill-rule="nonzero"/><circle cx="8.5" cy="9" r="4" fill="none" stroke="#7a0000"/><g fill-rule="nonzero"><path d="M8.5 8.5v3.808c.193.036.191.05.388.05 1.873 0 3.413-1.57 3.413-3.475 0-.189-.166-.187-.199-.383H8.5z" fill="#3f90e7"/><path d="M12 9c-.253 1.688-1.235 3-2.914 3-.196 0-.393.035-.586 0v.951a3.29 3.29 0 0 0 .586.049C10.959 13 12 11.405 12 9.5c0-.175.026-.325 0-.5z" fill="#0d52bf"/></g><path d="M8.5 8.5V13c.186.035.411 0 .6 0 1.798 0 3.4-1.984 3.4-3.889-.001-.189.031-.415 0-.611h-4z" fill="none" stroke="#002e99" stroke-miterlimit="4"/><defs><linearGradient id="A" x1="14" y1="9.5" x2="17.5" y2="4" gradientUnits="userSpaceOnUse"><stop offset="0" stop-color="#f4f4f4"/><stop offset="1" stop-color="#b3b3b3"/></linearGradient></defs></svg>