<svg xmlns="http://www.w3.org/2000/svg" viewBox="0 0 18 18" fill-rule="evenodd" stroke-linejoin="round" stroke-miterlimit="2" xmlns:v="https://vecta.io/nano"><path fill-opacity=".41" d="M.99 3.89H17v11.22H.99z"/><path fill="none" stroke="#000" stroke-width=".75" d="M.99 2.89h16.03v11.22H.99z"/><path fill="url(#A)" d="M.99 2.89h16.03v11.22H.99z"/><path fill="#68b723" d="M7.1 6.74h6.5v6.5H7.1z"/><path fill="#428625" d="M7.1 12.26h6.5v.98H7.1z"/><path fill="none" stroke="#206b00" stroke-width=".33" stroke-miterlimit="4" d="M7.1 6.74h6.5v6.5H7.1z"/><circle cx="7.65" cy="7.28" r="3.25" fill="#c6262e"/><path d="M10.87 6.8a3.26 3.26 0 0 1-6.42 0 3.26 3.26 0 0 0 3.21 3.74 3.26 3.26 0 0 0 3.2-3.75Z" fill="#a10705" fill-rule="nonzero"/><circle cx="7.65" cy="7.28" r="3.25" fill="none" stroke="#7a0000" stroke-width=".33"/><g fill-rule="nonzero"><path d="M7.1 6.74v3.74a3.26 3.26 0 0 0 3.76-3.74H7.1Z" fill="#3f90e7"/><path d="M10.87 6.79A3.26 3.26 0 0 1 7.1 9.5v.98a3.26 3.26 0 0 0 3.77-3.7Z" fill="#0d52bf"/></g><path d="M7.1 6.74v3.74a3.26 3.26 0 0 0 3.76-3.74H7.1Z" fill="none" stroke="#002e99" stroke-width=".33" stroke-miterlimit="4"/><defs><linearGradient id="A" x1="0" y1="0" x2="1" y2="0" gradientUnits="userSpaceOnUse" gradientTransform="matrix(.09795 19.0261 -23.4114 .0796 8.32 2.89)"><stop offset="0" stop-color="#f4f4f4"/><stop offset="1" stop-color="#dbdbdb"/></linearGradient></defs></svg>