<svg xmlns="http://www.w3.org/2000/svg" width="100%" height="100%" viewBox="0 0 20 20" fill-rule="evenodd" stroke-linejoin="round" stroke-miterlimit="2" xmlns:v="https://vecta.io/nano"><path d="M19.5 7.5l-5-5H.5v15h19v-10z" fill="url(#A)"/><path d="M19.5 7.5l-5-5H.5v15h19v-10z" fill="none" stroke="#6c6c6c"/><path d="M19.5 7.5l-5-5v5h5z" fill="#fff"/><path d="M19.5 7.5l-5-5v5h5z" fill="none" stroke="#6c6c6c"/><path d="M19 17.25a.25.25 0 0 0-.25-.25H1.25a.25.25 0 0 0-.25.25v.5a.25.25 0 0 0 .25.25h17.5a.25.25 0 0 0 .25-.25v-.5z" fill="#0a0a0a" fill-opacity=".49"/><g fill="none" stroke="#494949"><path d="M8.5 8.5h7v7h-7z" stroke-miterlimit="4"/><circle cx="8.5" cy="9" r="4"/></g><defs><linearGradient id="A" x1="14" y1="9.5" x2="17.5" y2="4" gradientUnits="userSpaceOnUse"><stop offset="0" stop-color="#f4f4f4"/><stop offset="1" stop-color="#b3b3b3"/></linearGradient></defs></svg>