<svg xmlns="http://www.w3.org/2000/svg" width="100%" height="100%" viewBox="0 0 20 20" fill-rule="evenodd" stroke-linejoin="round" stroke-miterlimit="2" xmlns:v="https://vecta.io/nano"><path d="M19.5 7.5l-5-5H.5v15h19v-10z" fill="url(#A)"/><path d="M19.5 7.5l-5-5H.5v15h19v-10z" fill="none" stroke="#6c6c6c"/><path d="M19.5 7.5l-5-5v5h5z" fill="#fff"/><path d="M19.5 7.5l-5-5v5h5z" fill="none" stroke="#6c6c6c"/><path d="M19 17.25a.25.25 0 0 0-.25-.25H1.25a.25.25 0 0 0-.25.25v.5a.25.25 0 0 0 .25.25h17.5a.25.25 0 0 0 .25-.25v-.5z" fill="#0a0a0a" fill-opacity=".49"/><g fill-rule="nonzero"><path d="M12 7.5c1.587 0 2.5.771 2.5 2.496S13.587 12.5 12 12.5" fill="url(#B)"/><path d="M14.058 9.5c-.206 1.053-1.068 1.816-2.058 1.816V13c1.155 0 2.106-1.764 2.106-3.02a2.52 2.52 0 0 0-.048-.48z" fill="#7e8087"/></g><path d="M12 7.5c1.587 0 2.5.771 2.5 2.496S13.587 12.5 12 12.5" fill="none" stroke="#0e141f" stroke-linecap="round" stroke-miterlimit="4"/><g fill-rule="nonzero"><path d="M10.5 4.5l-3 3h-2c-.553 0-1 .385-1 .988v3.156c0 .604.447.856 1 .856h3l2 3h.52c.32 0 .48-.652.48-1v-9c0-.348-.181-1-.5-1h-.5z" fill="url(#C)"/><path d="M4.5 9.996v1.374c.001.603.516 1.246 1.069 1.246h2.242l.571.361 2.118 2.43c.089.056.398.093.5.093.319 0 .499-.652.5-1v-1c-.013.338-.169.434-.479.434-.102 0-2.521-2.434-2.521-2.434s-.321-.474-.5-.5c-.484-.001-2.5 0-2.5 0a.97.97 0 0 1-1-1.004z" fill="#959595"/></g><path d="M10.5 4.5L8 7.5H5.5c-.553 0-1 .396-1 1v3c0 .604.447 1 1 1H8l2.5 3h.5c.319 0 .5-.652.5-1v-9c0-.348-.181-1-.5-1h-.5z" fill="none" stroke="#0e141f" stroke-miterlimit="4"/><defs><linearGradient id="A" x1="14" y1="9.5" x2="17.5" y2="4" gradientUnits="userSpaceOnUse"><stop offset="0" stop-color="#f4f4f4"/><stop offset="1" stop-color="#b3b3b3"/></linearGradient><linearGradient id="B" x1="0" y1="0" x2="1" y2=".003" gradientUnits="userSpaceOnUse" gradientTransform="matrix(-0.101215,7.38465,-6.77112,-0.110386,12.9052,6.64626)"><stop offset="0" stop-color="#d4d4d4"/><stop offset="1" stop-color="#abacae"/></linearGradient><linearGradient id="C" x1="0" y1="0" x2="1" y2="-.007" gradientUnits="userSpaceOnUse" gradientTransform="matrix(0.047601,18.6358,-11.3772,0.0779703,7.37629,4.50024)"><stop offset="0" stop-color="#f4f4f4"/><stop offset="1" stop-color="#dbdbdb"/></linearGradient></defs></svg>