<svg xmlns="http://www.w3.org/2000/svg" xml:space="preserve" style="fill-rule:evenodd;clip-rule:evenodd;stroke-linecap:round;stroke-linejoin:round;stroke-miterlimit:2" viewBox="0 0 20 20"><path d="m19.5 7.5-5-5H.5v15h19v-10Z" style="fill:#ececec;fill-opacity:.99;stroke:#555761;stroke-opacity:.99;stroke-width:1px"/><path d="M15.08 7.57A3.2 3.2 0 0 1 17 10.5a3.2 3.2 0 0 1-1.92 2.93M12.86 9.22a1.6 1.6 0 0 1 0 2.56" style="fill:none;stroke:#2f7ede;stroke-opacity:.99;stroke-width:2px;stroke-miterlimit:1.5"/><path d="m19.5 7.5-5-5v5h5Z" style="fill:#ececec;fill-opacity:.99;stroke:#555761;stroke-opacity:.99;stroke-width:1px"/><path d="M14.5 2.5v5" style="fill:none;stroke:#7e8087;stroke-opacity:.99;stroke-width:1px;stroke-miterlimit:1.5"/><path d="M14.5 7.5h5" style="fill:none;stroke:#333;stroke-width:1px"/><path d="M1.5 17.5h17" style="fill:none;stroke:#333;stroke-width:1px;stroke-miterlimit:1.5"/><path d="m10.28 5.24-3.2 2.55H4.53c-.07 0-1.28.58-1.28.64v3.84c0 .06 1.21.63 1.28.63h2.55l3.2 2.57c.11.07.5 0 .64 0 .4 0 .64-.24.64-.65V5.88c0-.4-.24-.64-.64-.64-.13 0-.53-.07-.64 0Z" style="fill:#ececec;fill-rule:nonzero"/><path d="M7 7.5H3.5c-.55 0-1 1-1 1v3s.45 1 1 1H7v-5Z" style="fill:#b6b6b6"/><path d="M9 5 6.5 7.5h-3c-.57 0-1 .44-1 1.01v2.99c0 .57.43 1 1 1h3L9 15h1c.33 0 .5-.17.5-.5V5.56c0-.33-.17-.56-.5-.56H9Z" style="fill:none;fill-rule:nonzero;stroke:#333;stroke-width:1px;stroke-miterlimit:4"/></svg>