<svg xmlns="http://www.w3.org/2000/svg" width="100%" height="100%" viewBox="0 0 16 16" fill-rule="evenodd" stroke-linejoin="round" stroke-miterlimit="2" xmlns:v="https://vecta.io/nano"><path d="M1 1.5h14.015V14H1z" fill="url(#B)"/><path d="M.5 1.5h15v12H.5z" fill="none" stroke="#6c6c6c"/><path d="M15.015 13.25a.25.25 0 0 0-.25-.25H1.25a.25.25 0 0 0-.25.25v.5a.25.25 0 0 0 .25.25h13.515a.25.25 0 0 0 .25-.25v-.5z" fill="#494949" fill-opacity=".49"/><path d="M6.5 6.338h5V11.5h-5z" fill="#68b723"/><path d="M6.5 6.5h5v5h-5z" fill="none" stroke="#206b00" stroke-width=".97" stroke-miterlimit="4"/><ellipse cx="6.516" cy="6.5" rx="3.016" ry="3" fill="#c6262e"/><path d="M9.5 6.383c-.211 1.382-1.279 2.416-2.677 2.416S3.712 7.765 3.5 6.383c-.022.142-.032.285-.032.428v.001c0 1.559 1.794 2.847 3.354 2.847h.001c1.559 0 2.71-1.286 2.709-2.846a2.7 2.7 0 0 0-.032-.43z" fill="#a10705" fill-rule="nonzero"/><circle cx="6.5" cy="6.5" r="3" fill="none" stroke="#7a0000"/><g fill-rule="nonzero"><path d="M6.5 6.5v3.117c.161.028.159.04.323.04a2.86 2.86 0 0 0 2.843-2.844c-.001-.154-.139-.152-.166-.313h-3z" fill="#3f90e7"/><path d="M9.633 6.383c-.211 1.382-1.412 2.414-2.81 2.414-.164 0-.327-.012-.489-.04v.86c.162.028.325.04.489.04a2.86 2.86 0 0 0 2.843-2.844 2.84 2.84 0 0 0-.033-.43z" fill="#0d52bf"/><path d="M6.5 6.5v3c.155.029.343 0 .5 0 1.497 0 2.532-.941 2.532-2.5 0-.155.026-.339 0-.5H6.5z" fill="none" stroke="#002e99" stroke-miterlimit="4"/></g><defs><linearGradient id="B" x1="0" y1="0" x2="1" y2="0" gradientUnits="userSpaceOnUse" gradientTransform="matrix(0.0856422,21.1914,-20.4695,0.0886629,7.41102,1.50027)"><stop offset="0" stop-color="#f4f4f4"/><stop offset="1" stop-color="#dbdbdb"/></linearGradient></defs></svg>