<svg xmlns="http://www.w3.org/2000/svg" xml:space="preserve" style="fill-rule:evenodd;clip-rule:evenodd;stroke-linecap:round;stroke-linejoin:round;stroke-miterlimit:2" viewBox="0 0 20 20"><path d="m19.5 7.5-5-5H.5v15h19v-10Z" style="fill:#ececec;fill-opacity:.99;stroke:#555761;stroke-opacity:.99;stroke-width:1px"/><path d="m19.5 7.5-5-5v5h5Z" style="fill:none;stroke:#555761;stroke-opacity:.99;stroke-width:1px"/><path d="M14.5 2.5v5" style="fill:none;stroke:#7e8087;stroke-opacity:.99;stroke-width:1px;stroke-miterlimit:1.5"/><path d="M14.5 7.5h5" style="fill:none;stroke:#333;stroke-width:1px"/><path d="M1.5 17.5h17" style="fill:none;stroke:#333;stroke-width:1px;stroke-miterlimit:1.5"/><path d="m15 12.5 2.5 1v-4l-2.5 1" style="fill:#3c3c3c;fill-rule:nonzero"/><path d="M15 10.25a.25.25 0 0 0-.25-.25h-.5a.25.25 0 0 0-.25.25v2.5c0 .14.11.25.25.25h.5c.14 0 .25-.11.25-.25v-2.5ZM10.08 5.57 3.63 9.3l.62 1.08 6.45-3.72-.62-1.08Z" style="fill:#b5b5b5"/><circle cx="9.44" cy="7.52" r="2.48" style="fill:#b5b5b5"/><circle cx="9.5" cy="7.5" r="2" style="fill:#3c3c3c"/><circle cx="9.5" cy="7.5" r=".5"/><circle cx="4.48" cy="9.52" r="2.48" style="fill:#b5b5b5"/><circle cx="4.5" cy="9.5" r="2" style="fill:#3c3c3c"/><path d="M13.5 10.9v-.6c0-1.88-.51-1.8-1.33-1.8H6.83c-.82 0-1.33.52-1.33 2.4v2.4c0 .68.55 1.2 1.37 1.2h5.3c.82 0 1.33-.52 1.33-1.2" style="fill:#b5b5b5;fill-rule:nonzero"/><path d="M13.5 13.3V9.7c0-.76-.51-1.2-1.33-1.2H6.83C6 8.5 5.5 8.85 5.5 9.61v3.96c0 .76.5.93 1.33.93h5.34c.82 0 1.33-.44 1.33-1.2Z" style="fill:none;fill-rule:nonzero;stroke:#767676;stroke-width:1px;stroke-miterlimit:4"/><circle cx="4.5" cy="9.5" r=".5"/><path d="M6.5 10.5h4v3h-4z" style="fill:none;stroke:#3c3c3c;stroke-width:1px;stroke-linecap:butt;stroke-miterlimit:1.5"/><path d="M6.5 10.5h4v3h-4z" style="fill:#b5b5b5"/></svg>