<svg xmlns="http://www.w3.org/2000/svg" width="100%" height="100%" viewBox="0 0 16 16" fill-rule="evenodd" stroke-linejoin="round" stroke-miterlimit="2" xmlns:v="https://vecta.io/nano"><path d="M1 1.5h14.015V14H1z" fill="url(#B)"/><path d="M.5 1.5h15v12H.5z" fill="none" stroke="#6c6c6c"/><path d="M15.015 13.25a.25.25 0 0 0-.25-.25H1.25a.25.25 0 0 0-.25.25v.5a.25.25 0 0 0 .25.25h13.515a.25.25 0 0 0 .25-.25v-.5z" fill="#494949" fill-opacity=".49"/><g fill-rule="nonzero"><path d="M9.672 5.204c1.155 0 2.106 1.04 2.106 2.296s-.951 2.296-2.106 2.296" fill="url(#C)"/><path d="M11.73 7.02c-.206 1.053-1.068 1.816-2.058 1.816v.96c1.155 0 2.106-1.04 2.106-2.296a2.52 2.52 0 0 0-.048-.48z" fill="#7e8087"/></g><path d="M9.778 5.204c1.155 0 2 1.04 2 2.296s-.845 2.296-2 2.296" fill="none" stroke="#0e141f" stroke-width=".52" stroke-linecap="round" stroke-miterlimit="4"/><g fill-rule="nonzero"><path d="M9.034 3.562L7.325 5.331l-.415.262L5.734 5.5c-.403 0-1.234.547-1.234.987v2.212c0 .44.831.801 1.234.801l1.176-.093.415.262 1.709 1.769a.4.4 0 0 0 .211.062c.233 0 .424-.208.424-.462V3.962c0-.254-.191-.462-.424-.462a.4.4 0 0 0-.211.062z" fill="url(#D)"/><path d="M4.5 7.5v1c0 .439.375.907.778.907H6.91l.415.262 1.708 1.769c.065.04.138.062.212.062.232 0 .424-.208.424-.462V9.923c-.009.246-.197.443-.423.443-.075 0-.148-.021-.213-.062L7.325 8.535l-.415-.262H5.278c-.403 0-.778-.334-.778-.773z" fill="#959595"/></g><path d="M9.034 3.562L7 5.5H5.5c-.402 0-1 .348-1 .787V8.5c0 .439.598 1 1 1H7l2.034 1.938a.4.4 0 0 0 .211.062c.233 0 .424-.208.424-.462V3.962c0-.254-.191-.462-.424-.462a.4.4 0 0 0-.211.062z" fill="none" stroke="#0e141f" stroke-width=".52" stroke-miterlimit="4"/><defs><linearGradient id="B" x1="0" y1="0" x2="1" y2="0" gradientUnits="userSpaceOnUse" gradientTransform="matrix(0.0856422,21.1914,-20.4695,0.0886629,7.41102,1.50027)"><stop offset="0" stop-color="#f4f4f4"/><stop offset="1" stop-color="#dbdbdb"/></linearGradient><linearGradient id="C" x1="0" y1="0" x2="1" y2=".003" gradientUnits="userSpaceOnUse" gradientTransform="matrix(-0.073661,5.3743,-4.9278,-0.0803354,10.617,5.06197)"><stop offset="0" stop-color="#d4d4d4"/><stop offset="1" stop-color="#abacae"/></linearGradient><linearGradient id="D" x1="0" y1="0" x2="1" y2="-.007" gradientUnits="userSpaceOnUse" gradientTransform="matrix(0.0346424,13.5625,-8.27993,0.0567442,6.59327,3.50017)"><stop offset="0" stop-color="#f4f4f4"/><stop offset="1" stop-color="#dbdbdb"/></linearGradient></defs></svg>