<svg xmlns="http://www.w3.org/2000/svg" width="100%" height="100%" viewBox="0 0 16 16" fill-rule="evenodd" stroke-linecap="round" stroke-linejoin="round" xmlns:v="https://vecta.io/nano"><path d="M1 1.5h14.015V14H1z" fill="url(#B)"/><path d="M15.015 13.25a.25.25 0 0 0-.25-.25H1.25a.25.25 0 0 0-.25.25v.5a.25.25 0 0 0 .25.25h13.515a.25.25 0 0 0 .25-.25v-.5z" fill="#494949" fill-opacity=".49"/><path d="M11.5 10.5l2 1v-4l-2 1" fill="#b5b5b5" fill-rule="nonzero"/><path d="M12 10.5l1.5 1v-4l-1.5 1" fill="none" stroke="#767676" stroke-width=".5"/><path d="M12 8.372c0-.206-.167-.372-.372-.372h-.743a.37.37 0 0 0-.371.372v2.256a.37.37 0 0 0 .371.372h.743c.205 0 .372-.166.372-.372V8.372z" fill="#6c6c6c"/><path d="M.5 1.5h15v12H.5z" fill="none" stroke="#6c6c6c" stroke-miterlimit="2"/><path d="M14 7.25a.25.25 0 0 0-.25-.25h-.5a.25.25 0 0 0-.25.25v4.5a.25.25 0 0 0 .25.25h.5a.25.25 0 0 0 .25-.25v-4.5z" fill="#6c6c6c"/><g fill="#b5b5b5"><path d="M8.013 4.317l-5.196 3 .5.866 5.196-3-.5-.866z"/><circle cx="7.5" cy="5.5" r="2"/></g><circle cx="7.5" cy="5.5" r="1.5" fill="#767676"/><circle cx="7.5" cy="5.5" r=".5"/><circle cx="3.5" cy="7.5" r="2" fill="#b5b5b5"/><circle cx="3.5" cy="7.5" r="1.5" fill="#6c6c6c"/><path d="M10.5 8.5V8c0-1.569-.384-1.5-1-1.5h-4c-.616 0-1 .431-1 2v2c0 .569.414 1 1.03 1H9.5a.95.95 0 0 0 1-1" fill="#b5b5b5" fill-rule="nonzero"/><path d="M10.5 10.5v-3c0-.634-.384-1-1-1H5.497c-.616 0-.997.29-.997.925v3.3c0 .634.381.775.997.775H9.5c.616 0 1-.366 1-1z" fill="none" stroke="#767676" stroke-width=".5"/><circle cx="3.5" cy="7.5" r=".5"/><g fill="#767676"><circle cx="5.5" cy="9.5" r=".5"/><circle cx="6.5" cy="10.5" r=".5"/><circle cx="9" cy="8" r="1"/></g><defs><linearGradient id="B" x1="0" y1="0" x2="1" y2="0" gradientUnits="userSpaceOnUse" gradientTransform="matrix(0.0856422,21.1914,-20.4695,0.0886629,7.41102,1.50027)"><stop offset="0" stop-color="#f4f4f4"/><stop offset="1" stop-color="#dbdbdb"/></linearGradient></defs></svg>