<svg xmlns="http://www.w3.org/2000/svg" width="100%" height="100%" viewBox="0 0 20 20" fill-rule="evenodd" stroke-linejoin="round" stroke-miterlimit="2" xmlns:v="https://vecta.io/nano"><path d="M19.5 7.5l-5-5H.5v15h19v-10z" fill="url(#A)"/><path d="M19.5 7.5l-5-5H.5v15h19v-10z" fill="none" stroke="#6c6c6c"/><path d="M19.5 7.5l-5-5v5h5z" fill="#fff"/><path d="M19.5 7.5l-5-5v5h5z" fill="none" stroke="#6c6c6c"/><path d="M19 17.25a.25.25 0 0 0-.25-.25H1.25a.25.25 0 0 0-.25.25v.5a.25.25 0 0 0 .25.25h17.5a.25.25 0 0 0 .25-.25v-.5z" fill="#0a0a0a" fill-opacity=".49"/><path d="M15 12.5l2.5 1v-4l-2.5 1" fill="#3c3c3c" fill-rule="nonzero"/><g fill="#b5b5b5"><path d="M15 10.25a.25.25 0 0 0-.25-.25h-.5a.25.25 0 0 0-.25.25v2.5a.25.25 0 0 0 .25.25h.5a.25.25 0 0 0 .25-.25v-2.5zm-4.924-4.677l-6.443 3.72.62 1.074 6.443-3.72-.62-1.074z"/><circle cx="9.439" cy="7.52" r="2.48"/></g><circle cx="9.5" cy="7.5" r="2" fill="#3c3c3c"/><circle cx="9.5" cy="7.5" r=".5"/><circle cx="4.48" cy="9.52" r="2.48" fill="#b5b5b5"/><circle cx="4.5" cy="9.5" r="2" fill="#3c3c3c"/><path d="M13.5 10.9v-.6c0-1.882-.512-1.799-1.333-1.799H6.834c-.822 0-1.334.517-1.334 2.399v2.4c0 .683.553 1.2 1.374 1.2h5.293c.821 0 1.333-.517 1.333-1.2" fill="#b5b5b5" fill-rule="nonzero"/><path d="M13.5 13.3V9.7c0-.761-.512-1.2-1.333-1.2H6.829c-.821 0-1.329.348-1.329 1.11v3.96c0 .761.508.93 1.329.93h5.338c.821 0 1.333-.439 1.333-1.2z" fill="none" stroke="#767676" stroke-miterlimit="4"/><circle cx="4.5" cy="9.5" r=".5"/><path d="M6.5 10.5h4v3h-4z" fill="none" stroke="#3c3c3c" stroke-miterlimit="1.5"/><path d="M6.5 10.5h4v3h-4z" fill="#b5b5b5"/><defs><linearGradient id="A" x1="14" y1="9.5" x2="17.5" y2="4" gradientUnits="userSpaceOnUse"><stop offset="0" stop-color="#f4f4f4"/><stop offset="1" stop-color="#b3b3b3"/></linearGradient></defs></svg>