<svg xmlns="http://www.w3.org/2000/svg" fill-rule="evenodd" stroke-linecap="round" stroke-linejoin="round" viewBox="0 0 22 22"><path fill="#ececec" fill-opacity=".99" d="M3 4h16v14H3z"/><path fill="none" stroke="#555761" stroke-opacity=".99" d="M2.5 3.5h17v15h-17z"/><path fill="#333" d="M18 12a1 1 0 0 0-1-1h-5a1 1 0 0 0-1 1v5a1 1 0 0 0 1 1h5a1 1 0 0 0 1-1v-5zm-1 0h-5v5h5v-5z"/><path fill="#e2b269" fill-opacity=".99" d="M12 12h5v5h-5z"/><path fill="#333" d="M21 14a1 1 0 0 0-1-1h-5a1 1 0 0 0-1 1v5a1 1 0 0 0 1 1h5a1 1 0 0 0 1-1v-5zm-1 0h-5v5h5v-5z"/><path fill="#ffdc6a" fill-opacity=".99" d="M15 14h5v5h-5z"/></svg>