<?xml version="1.0" encoding="UTF-8" standalone="no"?>
<!DOCTYPE svg PUBLIC "-//W3C//DTD SVG 1.1//EN" "http://www.w3.org/Graphics/SVG/1.1/DTD/svg11.dtd">
<svg width="100%" height="100%" viewBox="0 0 32 32" version="1.1" xmlns="http://www.w3.org/2000/svg" xmlns:xlink="http://www.w3.org/1999/xlink" xml:space="preserve" xmlns:serif="http://www.serif.com/" style="fill-rule:evenodd;clip-rule:evenodd;stroke-linecap:round;stroke-linejoin:round;">
    <g id="Layer-1" serif:id="Layer 1" transform="matrix(1,0,0,1,0,-1090.52)">
        <path id="rect7494" d="M6.234,1102.95C4.443,1102.95 3,1104.4 3,1106.19L3,1116.29C3,1118.08 4.443,1119.52 6.234,1119.52L17.875,1119.52C19.667,1119.52 21.107,1118.08 21.107,1116.29L21.107,1115.33C23.023,1116.21 24.94,1117.07 26.855,1117.95C28.044,1118.51 29,1117.91 29,1116.6L29,1105.88C29,1104.57 28.049,1103.97 26.865,1104.52C24.946,1105.41 23.026,1106.26 21.107,1107.14L21.107,1106.19C21.107,1104.4 19.667,1102.95 17.875,1102.95L6.234,1102.95Z" style="fill:url(#_Linear1);fill-rule:nonzero;"/>
        <path id="path7520" d="M6.234,1102.95C4.443,1102.95 3,1104.4 3,1106.19L3,1108.19C3,1106.4 4.443,1104.95 6.234,1104.95L17.875,1104.95C19.667,1104.95 21.107,1106.4 21.107,1108.19L21.107,1109.14C23.026,1108.26 24.946,1107.41 26.865,1106.52C28.049,1105.97 29,1106.57 29,1107.88L29,1105.88C29,1104.57 28.049,1103.97 26.865,1104.52C24.946,1105.41 23.026,1106.26 21.107,1107.14L21.107,1106.19C21.107,1104.4 19.667,1102.95 17.875,1102.95L6.234,1102.95Z" style="fill:rgb(250,250,250);fill-rule:nonzero;"/>
        <circle id="circle7500" cx="7.717" cy="1098.24" r="4.717" style="fill:url(#_Linear2);"/>
        <path id="path7532" d="M21.107,1113.33L21.107,1114.29C21.107,1116.08 19.667,1117.52 17.875,1117.52L6.234,1117.52C4.443,1117.52 3,1116.08 3,1114.29L3,1116.29C3,1118.08 4.443,1119.52 6.234,1119.52L17.875,1119.52C19.667,1119.52 21.107,1118.08 21.107,1116.29L21.107,1115.33C23.023,1116.21 24.94,1117.07 26.855,1117.95C28.044,1118.51 29,1117.91 29,1116.6L29,1114.6C29,1115.91 28.044,1116.51 26.855,1115.95C24.94,1115.07 23.023,1114.21 21.107,1113.33Z" style="fill:rgb(126,128,135);fill-rule:nonzero;"/>
        <circle id="circle7553" cx="16.391" cy="1098.24" r="4.717" style="fill:url(#_Linear3);"/>
        <path id="circle7566" d="M7.717,1093.52C5.129,1093.52 3,1095.65 3,1098.24C3,1098.57 3.036,1098.91 3.107,1099.24C3.576,1097.08 5.505,1095.52 7.717,1095.52C9.602,1095.52 11.314,1096.65 12.055,1098.38C12.795,1096.65 14.506,1095.52 16.391,1095.52C18.603,1095.52 20.532,1097.08 21,1099.24C21.071,1098.91 21.107,1098.57 21.107,1098.24C21.107,1095.65 18.978,1093.52 16.391,1093.52C14.506,1093.52 12.795,1094.65 12.055,1096.38C11.314,1094.65 9.602,1093.52 7.717,1093.52Z" style="fill:rgb(255,140,130);fill-rule:nonzero;"/>
        <path id="path7580" d="M7.717,1102.95C5.129,1102.95 3,1100.83 3,1098.24C3,1097.9 3.036,1097.57 3.107,1097.24C3.576,1099.4 5.505,1100.95 7.717,1100.95C9.602,1100.95 11.314,1099.82 12.055,1098.09C12.795,1099.82 14.506,1100.95 16.391,1100.95C18.603,1100.95 20.532,1099.4 21,1097.24C21.071,1097.57 21.107,1097.9 21.107,1098.24C21.107,1100.83 18.978,1102.95 16.391,1102.95C14.506,1102.95 12.795,1101.82 12.055,1100.09C11.314,1101.83 9.602,1102.95 7.717,1102.95Z" style="fill:rgb(161,7,5);fill-rule:nonzero;"/>
        <path id="circle7557" d="M7.717,1093.52C5.129,1093.52 3,1095.65 3,1098.24C3,1098.24 3,1098.24 3,1098.24C3,1100.83 5.129,1102.95 7.717,1102.95C9.601,1102.95 11.312,1101.83 12.053,1100.09C12.794,1101.83 14.506,1102.96 16.391,1102.95C18.978,1102.95 21.107,1100.83 21.107,1098.24C21.107,1098.24 21.107,1098.24 21.107,1098.24C21.107,1095.65 18.978,1093.52 16.391,1093.52C14.506,1093.52 12.795,1094.65 12.055,1096.38C11.314,1094.65 9.602,1093.52 7.717,1093.52Z" style="fill:none;fill-rule:nonzero;stroke:rgb(122,0,0);stroke-width:1px;"/>
        <path id="path7514" d="M6.234,1102.95C4.443,1102.95 3,1104.4 3,1106.19L3,1116.29C3,1118.08 4.443,1119.52 6.234,1119.52L17.875,1119.52C19.667,1119.52 21.107,1118.08 21.107,1116.29L21.107,1115.33C23.023,1116.21 24.94,1117.07 26.855,1117.95C28.044,1118.51 29,1117.91 29,1116.6L29,1105.88C29,1104.57 28.049,1103.97 26.865,1104.52C24.946,1105.41 23.026,1106.26 21.107,1107.14L21.107,1106.19C21.107,1104.4 19.667,1102.95 17.875,1102.95L6.234,1102.95Z" style="fill:none;fill-rule:nonzero;stroke:rgb(85,87,97);stroke-width:1px;"/>
    </g>
    <defs>
        <linearGradient id="_Linear1" x1="0" y1="0" x2="1" y2="0" gradientUnits="userSpaceOnUse" gradientTransform="matrix(-0.703972,18.7166,-18.7166,-0.703972,18.9004,1102.23)"><stop offset="0" style="stop-color:rgb(171,172,174);stop-opacity:1"/><stop offset="1" style="stop-color:rgb(126,128,135);stop-opacity:1"/></linearGradient>
        <linearGradient id="_Linear2" x1="0" y1="0" x2="1" y2="0" gradientUnits="userSpaceOnUse" gradientTransform="matrix(0.32946,11.4353,-11.4353,0.32946,7.71731,1093.52)"><stop offset="0" style="stop-color:rgb(198,38,46);stop-opacity:1"/><stop offset="1" style="stop-color:rgb(161,7,5);stop-opacity:1"/></linearGradient>
        <linearGradient id="_Linear3" x1="0" y1="0" x2="1" y2="0" gradientUnits="userSpaceOnUse" gradientTransform="matrix(0.32946,11.4353,-11.4353,0.32946,16.3911,1093.52)"><stop offset="0" style="stop-color:rgb(198,38,46);stop-opacity:1"/><stop offset="1" style="stop-color:rgb(161,7,5);stop-opacity:1"/></linearGradient>
    </defs>
</svg>
