<?xml version="1.0" encoding="UTF-8" standalone="no"?>
<!DOCTYPE svg PUBLIC "-//W3C//DTD SVG 1.1//EN" "http://www.w3.org/Graphics/SVG/1.1/DTD/svg11.dtd">
<svg width="100%" height="100%" viewBox="0 0 16 16" version="1.1" xmlns="http://www.w3.org/2000/svg" xmlns:xlink="http://www.w3.org/1999/xlink" xml:space="preserve" xmlns:serif="http://www.serif.com/" style="fill-rule:evenodd;clip-rule:evenodd;stroke-linecap:round;stroke-linejoin:round;">
    <g id="Layer-1" serif:id="Layer 1" transform="matrix(1,0,0,1,0,-1106.52)">
        <path id="path47050" d="M11.27,1110.79C13.316,1110.79 15,1112.48 15,1114.52L15,1114.52C15,1116.56 13.316,1118.25 11.27,1118.25" style="fill:url(#_Linear1);fill-rule:nonzero;"/>
        <path id="path47076" d="M11.27,1110.79L11.27,1112.35C13.023,1112.35 14.55,1113.59 14.916,1115.3C14.971,1115.04 15,1114.78 15,1114.52C15,1114.52 15,1114.52 15,1114.52C15,1112.48 13.316,1110.79 11.27,1110.79C11.27,1110.79 11.27,1110.79 11.27,1110.79Z" style="fill:rgb(250,250,250);fill-rule:nonzero;"/>
        <path id="path47083" d="M14.916,1113.74C14.55,1115.45 13.023,1116.69 11.27,1116.69L11.27,1118.25C11.27,1118.25 11.27,1118.25 11.27,1118.25C13.316,1118.25 15,1116.56 15,1114.52C15,1114.26 14.971,1114 14.916,1113.74L14.916,1113.74Z" style="fill:rgb(126,128,135);fill-rule:nonzero;"/>
        <path id="path47056" d="M11.27,1110.79C13.316,1110.79 15,1112.48 15,1114.52L15,1114.52C15,1116.56 13.316,1118.25 11.27,1118.25" style="fill:none;fill-rule:nonzero;stroke:rgb(85,87,97);stroke-width:1px;"/>
        <path id="path915" d="M10.126,1108.03L5.615,1111.38L2.321,1111.38C1.591,1111.38 1,1111.97 1,1112.7L1,1116.34C1,1117.07 1.591,1117.66 2.321,1117.66L5.615,1117.66L10.126,1121.01C10.634,1121.3 11.27,1120.94 11.27,1120.35L11.27,1108.69C11.27,1108.1 10.634,1107.74 10.126,1108.03Z" style="fill:url(#_Linear2);fill-rule:nonzero;"/>
        <g id="path7472" transform="matrix(0.264583,0,0,0.264583,0,1106.52)">
            <path d="M39.759,5.315C39.263,5.306 38.755,5.429 38.275,5.706L21.223,18.359L8.77,18.359C6.012,18.359 3.78,20.587 3.78,23.342L3.78,29.011C3.78,26.256 6.012,24.028 8.77,24.028L21.223,24.028L38.275,11.375C40.196,10.267 42.593,11.647 42.594,13.863L42.594,8.194C42.593,6.532 41.245,5.341 39.759,5.315Z" style="fill:rgb(255,194,125);fill-rule:nonzero;"/>
        </g>
        <g id="path7490" transform="matrix(0.264583,0,0,0.264583,0,1106.52)">
            <path d="M3.78,31.462L3.78,37.131C3.78,39.885 6.012,42.114 8.77,42.114L21.223,42.114L38.275,54.766C40.196,55.875 42.594,54.494 42.594,52.279L42.594,46.609C42.594,48.824 40.196,50.205 38.275,49.097L21.223,36.444L8.77,36.444C6.012,36.444 3.78,34.216 3.78,31.462Z" style="fill:rgb(204,59,2);fill-rule:nonzero;"/>
        </g>
        <path id="path7470" d="M10.126,1108.03L5.615,1111.38L2.321,1111.38C1.591,1111.38 1,1111.97 1,1112.7L1,1116.34C1,1117.07 1.591,1117.66 2.321,1117.66L5.615,1117.66L10.126,1121.01C10.634,1121.3 11.27,1120.94 11.27,1120.35L11.27,1108.69C11.27,1108.1 10.634,1107.74 10.126,1108.03Z" style="fill:none;fill-rule:nonzero;stroke:rgb(166,33,0);stroke-width:1px;"/>
    </g>
    <defs>
        <linearGradient id="_Linear1" x1="0" y1="0" x2="1" y2="0" gradientUnits="userSpaceOnUse" gradientTransform="matrix(-0.130486,8.72929,-8.72929,-0.130486,12.944,1110.56)"><stop offset="0" style="stop-color:rgb(212,212,212);stop-opacity:1"/><stop offset="1" style="stop-color:rgb(171,172,174);stop-opacity:1"/></linearGradient>
        <linearGradient id="_Linear2" x1="0" y1="0" x2="1" y2="0" gradientUnits="userSpaceOnUse" gradientTransform="matrix(-0.00472605,16.0822,-16.0822,-0.00472605,7.38597,1108.61)"><stop offset="0" style="stop-color:rgb(243,115,41);stop-opacity:1"/><stop offset="1" style="stop-color:rgb(204,59,2);stop-opacity:1"/></linearGradient>
    </defs>
</svg>
