<?xml version="1.0" encoding="UTF-8" standalone="no"?>
<!DOCTYPE svg PUBLIC "-//W3C//DTD SVG 1.1//EN" "http://www.w3.org/Graphics/SVG/1.1/DTD/svg11.dtd">
<svg width="100%" height="100%" viewBox="0 0 16 16" version="1.1" xmlns="http://www.w3.org/2000/svg" xmlns:xlink="http://www.w3.org/1999/xlink" xml:space="preserve" xmlns:serif="http://www.serif.com/" style="fill-rule:evenodd;clip-rule:evenodd;stroke-linecap:round;stroke-linejoin:round;">
    <g id="Layer-1" serif:id="Layer 1" transform="matrix(1,0,0,1,0,-1106.52)">
        <rect id="rect851" x="5.08" y="1111.63" width="9.92" height="9.92" style="fill:url(#_Linear1);"/>
        <g id="rect7570" transform="matrix(0.264583,0,0,0.264583,0,1106.52)">
            <rect x="19.2" y="51.127" width="37.493" height="5.669" style="fill:rgb(58,145,4);fill-rule:nonzero;"/>
        </g>
        <g id="rect7559" transform="matrix(0.264583,0,0,0.264583,0,1106.52)">
            <rect x="19.2" y="19.296" width="37.493" height="5.677" style="fill:rgb(155,219,77);fill-rule:nonzero;"/>
        </g>
        <rect id="rect850" x="5.08" y="1111.63" width="9.92" height="9.92" style="fill:none;stroke:rgb(32,107,0);stroke-width:1px;"/>
        <circle id="path853" cx="5.931" cy="1112.45" r="4.96" style="fill:url(#_Linear2);"/>
        <g id="circle7537" transform="matrix(0.264583,0,0,0.264583,0,1106.52)">
            <path d="M22.419,3.676C22.418,3.676 22.417,3.676 22.416,3.676C12.132,3.676 3.669,12.139 3.669,22.424C3.669,22.424 3.669,22.425 3.669,22.426C3.668,23.375 3.74,24.323 3.883,25.261C5.276,16.145 13.198,9.344 22.419,9.345C31.637,9.347 39.555,16.148 40.947,25.261C41.09,24.323 41.162,23.375 41.161,22.426C41.163,12.142 32.702,3.679 22.419,3.676Z" style="fill:rgb(255,140,130);fill-rule:nonzero;"/>
        </g>
        <g id="circle7548" transform="matrix(0.264583,0,0,0.264583,0,1106.52)">
            <path d="M40.947,19.592C39.555,28.704 31.637,35.505 22.419,35.507C13.202,35.51 5.282,28.716 3.883,19.606C3.741,20.54 3.669,21.482 3.669,22.426C3.669,22.427 3.669,22.428 3.669,22.429C3.669,32.713 12.132,41.176 22.416,41.176C22.417,41.176 22.418,41.176 22.419,41.176C32.702,41.174 41.163,32.71 41.161,22.426C41.162,21.477 41.09,20.53 40.947,19.592Z" style="fill:rgb(161,7,5);fill-rule:nonzero;"/>
        </g>
        <circle id="circle848" cx="5.931" cy="1112.45" r="4.96" style="fill:none;stroke:rgb(122,0,0);stroke-width:1px;"/>
        <path id="rect7497" d="M5.08,1111.62L5.08,1117.34C5.361,1117.39 5.646,1117.41 5.932,1117.41C8.653,1117.41 10.891,1115.17 10.891,1112.45C10.89,1112.18 10.867,1111.9 10.82,1111.62L5.08,1111.62Z" style="fill:url(#_Linear3);fill-rule:nonzero;"/>
        <path id="path7508" d="M5.08,1111.62L5.08,1113.12L10.82,1113.12C10.825,1113.15 10.83,1113.18 10.834,1113.2C10.872,1112.95 10.891,1112.7 10.891,1112.45C10.89,1112.18 10.867,1111.9 10.82,1111.62L5.08,1111.62Z" style="fill:rgb(140,213,255);fill-rule:nonzero;"/>
        <path id="path7528" d="M10.834,1111.7C10.466,1114.11 8.371,1115.91 5.932,1115.91C5.646,1115.91 5.361,1115.89 5.08,1115.84L5.08,1117.34C5.361,1117.39 5.646,1117.41 5.932,1117.41C8.653,1117.41 10.891,1115.17 10.891,1112.45C10.891,1112.2 10.872,1111.95 10.834,1111.7L10.834,1111.7Z" style="fill:rgb(13,82,191);fill-rule:nonzero;"/>
        <path id="path7506" d="M5.08,1111.62L5.08,1117.34C5.361,1117.39 5.646,1117.41 5.932,1117.41C8.653,1117.41 10.891,1115.17 10.891,1112.45C10.89,1112.18 10.867,1111.9 10.82,1111.62L5.08,1111.62Z" style="fill:none;fill-rule:nonzero;stroke:rgb(0,46,153);stroke-width:1px;"/>
    </g>
    <defs>
        <linearGradient id="_Linear1" x1="0" y1="0" x2="1" y2="0" gradientUnits="userSpaceOnUse" gradientTransform="matrix(-0.0242971,14.441,-14.441,-0.0242971,13.4785,1111.63)"><stop offset="0" style="stop-color:rgb(104,183,35);stop-opacity:1"/><stop offset="1" style="stop-color:rgb(58,145,4);stop-opacity:1"/></linearGradient>
        <linearGradient id="_Linear2" x1="0" y1="0" x2="1" y2="0" gradientUnits="userSpaceOnUse" gradientTransform="matrix(-0.057169,12.5546,-12.5546,-0.057169,5.93164,1107.49)"><stop offset="0" style="stop-color:rgb(198,38,46);stop-opacity:1"/><stop offset="1" style="stop-color:rgb(161,7,5);stop-opacity:1"/></linearGradient>
        <linearGradient id="_Linear3" x1="0" y1="0" x2="1" y2="0" gradientUnits="userSpaceOnUse" gradientTransform="matrix(-0.166469,-7.60732,7.60732,-0.166469,7.95632,1119.23)"><stop offset="0" style="stop-color:rgb(54,137,230);stop-opacity:1"/><stop offset="1" style="stop-color:rgb(100,186,255);stop-opacity:1"/></linearGradient>
    </defs>
</svg>
