<svg xmlns="http://www.w3.org/2000/svg" fill-rule="evenodd" stroke-linecap="round" stroke-linejoin="round" viewBox="0 0 22 22"><path fill="#7e8087" fill-opacity=".99" d="M11 11.38 2.5 15.5l8.5 4 8.82-3.81L11 11.38z"/><path fill="none" stroke="#555761" stroke-opacity=".99" d="M11 11.38 2.5 15.5l8.5 4 8.82-3.81L11 11.38z"/><path fill="#b6b6b6" d="M11 6.69 2.18 11 11 15.31 19.82 11 11 6.69Z"/><path fill="none" stroke="#555761" stroke-opacity=".99" d="m11 7-8.5 4.5 8.5 4.13 8.5-4.13L11 7Z"/><path fill="#ececec" fill-opacity=".99" d="m11 3.5-8.5 4 8.5 4 8.5-4-8.5-4z"/><path fill="none" stroke="#555761" d="m11 3.5-8.5 4 8.5 4 8.5-4-8.5-4z"/><path fill="#e84850" fill-opacity=".99" d="M20.5 17.5v-3.98h-10v3.98h10z"/><path fill="none" stroke="#7a0000" d="M20.5 17.48V13.5h-10v3.98h10z"/></svg>