<svg xmlns="http://www.w3.org/2000/svg" fill-rule="evenodd" stroke-linecap="round" stroke-linejoin="round" viewBox="0 0 22 22"><path fill="#7e8087" fill-opacity=".99" d="m11 11-8.5 4.5 8.5 4.13 8.5-4.13L11 11Z"/><path fill="none" stroke="#555761" stroke-opacity=".99" d="m11 11-8.5 4.5 8.5 4.13 8.5-4.13L11 11Z"/><path fill="#b6b6b6" d="M11 6.69 2.18 11 11 15.31 19.82 11 11 6.69Z"/><path fill="none" stroke="#555761" stroke-opacity=".99" d="m11 7-8.5 4.5 8.5 4.13 8.5-4.13L11 7Z"/><path fill="#ececec" fill-opacity=".99" d="m11 3.5-8.5 4 8.5 4 8.5-4-8.5-4z"/><path fill="none" stroke="#555761" d="m11 3.5-8.5 4 8.5 4 8.5-4-8.5-4z"/><path fill="#333" d="M19 12a1 1 0 0 0-1-1h-5a1 1 0 0 0-1 1v5a1 1 0 0 0 1 1h5a1 1 0 0 0 1-1v-5zm-1 0h-5v5h5v-5z"/><path fill="#e2b269" fill-opacity=".99" d="M13 12h5v5h-5z"/><path fill="#333" d="M22 14a1 1 0 0 0-1-1h-5a1 1 0 0 0-1 1v5a1 1 0 0 0 1 1h5a1 1 0 0 0 1-1v-5zm-1 0h-5v5h5v-5z"/><path fill="#ffdc6a" fill-opacity=".99" d="M16 14h5v5h-5z"/></svg>