<?xml version="1.0" encoding="UTF-8" standalone="no"?>
<svg
   xmlns:dc="http://purl.org/dc/elements/1.1/"
   xmlns:cc="http://creativecommons.org/ns#"
   xmlns:rdf="http://www.w3.org/1999/02/22-rdf-syntax-ns#"
   xmlns:svg="http://www.w3.org/2000/svg"
   xmlns="http://www.w3.org/2000/svg"
   xmlns:xlink="http://www.w3.org/1999/xlink"
   xmlns:sodipodi="http://sodipodi.sourceforge.net/DTD/sodipodi-0.dtd"
   xmlns:inkscape="http://www.inkscape.org/namespaces/inkscape"
   sodipodi:docname="onion-red.svg"
   inkscape:version="1.0 (4035a4fb49, 2020-05-01)"
   id="svg8"
   version="1.1"
   viewBox="0 0 4.2333332 4.2333335"
   height="16"
   width="16">
  <defs
     id="defs2">
    <linearGradient
       id="linearGradient982"
       inkscape:collect="always">
      <stop
         id="stop978"
         offset="0"
         style="stop-color:#ff8c82;stop-opacity:1" />
      <stop
         id="stop980"
         offset="1"
         style="stop-color:#ff8c82;stop-opacity:0" />
    </linearGradient>
    <linearGradient
       id="linearGradient964"
       inkscape:collect="always">
      <stop
         id="stop960"
         offset="0"
         style="stop-color:#ffffff;stop-opacity:0" />
      <stop
         style="stop-color:#ffffff;stop-opacity:0.01960784;"
         offset="0.70761931"
         id="stop970" />
      <stop
         id="stop962"
         offset="1"
         style="stop-color:#ffffff;stop-opacity:0.25" />
    </linearGradient>
    <radialGradient
       gradientUnits="userSpaceOnUse"
       gradientTransform="matrix(0.26458333,0,0,0.28678169,1.0869865e-4,292.62067)"
       r="5.1455078"
       fy="6.577085"
       fx="8.0810547"
       cy="6.577085"
       cx="8.0810547"
       id="radialGradient968"
       xlink:href="#linearGradient964"
       inkscape:collect="always" />
    <linearGradient
       gradientTransform="translate(1.0870569e-4)"
       gradientUnits="userSpaceOnUse"
       y2="297"
       x2="2.1994615"
       y1="294.64923"
       x1="2.2822752"
       id="linearGradient984"
       xlink:href="#linearGradient982"
       inkscape:collect="always" />
  </defs>
  <sodipodi:namedview
     inkscape:snap-page="true"
     inkscape:snap-smooth-nodes="true"
     inkscape:object-paths="true"
     inkscape:snap-intersection-paths="true"
     inkscape:lockguides="true"
     inkscape:snap-grids="false"
     inkscape:snap-center="false"
     inkscape:snap-to-guides="true"
     inkscape:guide-bbox="true"
     showguides="true"
     units="px"
     showgrid="true"
     inkscape:document-rotation="0"
     inkscape:current-layer="layer1"
     inkscape:document-units="px"
     inkscape:cy="12.507968"
     inkscape:cx="-1.0857774"
     inkscape:zoom="15.839192"
     inkscape:pageshadow="2"
     inkscape:pageopacity="0.0"
     borderopacity="1.0"
     bordercolor="#666666"
     pagecolor="#ffffff"
     id="base">
    <inkscape:grid
       id="grid833"
       type="xygrid" />
    <sodipodi:guide
       inkscape:locked="true"
       id="guide853"
       orientation="0,1"
       position="1.8520833,0.26458334" />
    <sodipodi:guide
       inkscape:locked="true"
       id="guide855"
       orientation="0,1"
       position="1.5874999,3.9687502" />
  </sodipodi:namedview>
  <metadata
     id="metadata5">
    <rdf:RDF>
      <cc:Work
         rdf:about="">
        <dc:format>image/svg+xml</dc:format>
        <dc:type
           rdf:resource="http://purl.org/dc/dcmitype/StillImage" />
        <dc:title></dc:title>
      </cc:Work>
    </rdf:RDF>
  </metadata>
  <g
     style="display:none"
     inkscape:label="Layer 2"
     id="layer2"
     inkscape:groupmode="layer">
    <rect
       y="0"
       x="0"
       height="4.2333331"
       width="4.2333331"
       id="rect940"
       style="fill:#deddda;fill-opacity:1;stroke:none;stroke-width:0.264583;stroke-linecap:round;stroke-linejoin:round;stroke-miterlimit:4;stroke-dasharray:none;stroke-opacity:1" />
  </g>
  <g
     transform="translate(0,-292.76666)"
     id="layer1"
     inkscape:groupmode="layer"
     inkscape:label="Layer 1">
    <circle
       r="1.3614801"
       cy="294.39273"
       cx="2.1381564"
       id="path940"
       style="opacity:1;fill:#ff8c82;fill-opacity:1;stroke:none;stroke-width:0.264583;stroke-linecap:round;stroke-linejoin:round;stroke-miterlimit:4;stroke-dasharray:none;stroke-opacity:1" />
    <path
       transform="matrix(0.26458333,0,0,0.26458333,0,292.76666)"
       d="M 8.0097656 1 A 5.1457515 5.1457515 0 0 0 2.9355469 6.1464844 A 5.1457515 5.1457515 0 0 0 3.0332031 7.1464844 A 5.1457515 5.1457515 0 0 1 8.0820312 3 A 5.1457515 5.1457515 0 0 1 13.128906 7.1445312 A 5.1457515 5.1457515 0 0 0 13.226562 6.1464844 A 5.1457515 5.1457515 0 0 0 8.0820312 1 A 5.1457515 5.1457515 0 0 0 8.0097656 1 z "
       style="opacity:1;fill:#ffb6b0;fill-opacity:1;stroke:none;stroke-width:0.999999;stroke-linecap:round;stroke-linejoin:round;stroke-miterlimit:4;stroke-dasharray:none;stroke-opacity:1"
       id="circle1117" />
    <rect
       y="295.37589"
       x="1.3850101"
       height="0.60638428"
       width="1.5062926"
       id="rect942"
       style="opacity:1;fill:#ff8c82;fill-opacity:1;stroke:none;stroke-width:0.264583;stroke-linecap:round;stroke-linejoin:round;stroke-miterlimit:4;stroke-dasharray:none;stroke-opacity:1" />
    <path
       d="m 2.8914114,295.98227 a 0.75314623,0.75314623 0 0 1 -0.3765732,0.65224 0.75314623,0.75314623 0 0 1 -0.7531462,0 0.75314623,0.75314623 0 0 1 -0.3765731,-0.65224 h 0.7531462 z"
       sodipodi:arc-type="slice"
       sodipodi:end="3.1415927"
       sodipodi:start="0"
       sodipodi:ry="0.75314623"
       sodipodi:rx="0.75314623"
       sodipodi:cy="295.98227"
       sodipodi:cx="2.1382651"
       sodipodi:type="arc"
       id="path938"
       style="opacity:1;fill:#abacae;fill-opacity:1;stroke:none;stroke-width:0.264583;stroke-linecap:round;stroke-linejoin:round;stroke-miterlimit:4;stroke-dasharray:none;stroke-opacity:1" />
    <path
       id="path972"
       style="opacity:1;fill:none;fill-opacity:1;stroke:#7a0000;stroke-width:0.264583;stroke-linecap:round;stroke-linejoin:round;stroke-miterlimit:4;stroke-dasharray:none;stroke-opacity:1"
       d="m 2.1193592,293.03124 a 1.3614801,1.3614801 0 0 0 -1.34255369,1.36168 1.3614801,1.3614801 0 0 0 0.60823159,1.13378 v 0.45578 H 2.891405 v -0.45578 a 1.3614801,1.3614801 0 0 0 0.6082315,-1.13378 1.3614801,1.3614801 0 0 0 -1.361157,-1.36168 1.3614801,1.3614801 0 0 0 -0.01912,0 z" />
    <path
       d="m 2.1193592,293.03125 a 1.3614801,1.3614801 0 0 0 -1.34255373,1.36167 1.3614801,1.3614801 0 0 0 0.60823163,1.13379 v 0.45578 h 1.5063678 v -0.45578 a 1.3614801,1.3614801 0 0 0 0.6082316,-1.13379 1.3614801,1.3614801 0 0 0 -1.3611571,-1.36167 1.3614801,1.3614801 0 0 0 -0.01912,0 z"
       style="opacity:1;fill:url(#radialGradient968);fill-opacity:1;stroke:none;stroke-width:0.264583;stroke-linecap:round;stroke-linejoin:round;stroke-miterlimit:4;stroke-dasharray:none;stroke-opacity:1"
       id="circle953" />
    <path
       style="opacity:1;fill:none;fill-opacity:1;stroke:#555761;stroke-width:0.264583;stroke-linecap:round;stroke-linejoin:round;stroke-miterlimit:4;stroke-dasharray:none;stroke-opacity:1"
       id="path948"
       sodipodi:type="arc"
       sodipodi:cx="2.1382651"
       sodipodi:cy="295.98227"
       sodipodi:rx="0.75314623"
       sodipodi:ry="0.75314623"
       sodipodi:start="0"
       sodipodi:end="3.1415927"
       sodipodi:arc-type="slice"
       d="m 2.8914114,295.98227 a 0.75314623,0.75314623 0 0 1 -0.3765732,0.65224 0.75314623,0.75314623 0 0 1 -0.7531462,0 0.75314623,0.75314623 0 0 1 -0.3765731,-0.65224 h 0.7531462 z" />
    <path
       style="opacity:1;fill:url(#linearGradient984);fill-opacity:1;stroke:none;stroke-width:0.264583;stroke-linecap:round;stroke-linejoin:round;stroke-miterlimit:4;stroke-dasharray:none;stroke-opacity:1"
       id="path976"
       sodipodi:type="arc"
       sodipodi:cx="2.1382651"
       sodipodi:cy="295.98227"
       sodipodi:rx="0.75314623"
       sodipodi:ry="0.75314623"
       sodipodi:start="0"
       sodipodi:end="3.1415927"
       sodipodi:arc-type="slice"
       d="m 2.8914114,295.98227 a 0.75314623,0.75314623 0 0 1 -0.3765732,0.65224 0.75314623,0.75314623 0 0 1 -0.7531462,0 0.75314623,0.75314623 0 0 1 -0.3765731,-0.65224 h 0.7531462 z" />
  </g>
</svg>
