<?xml version="1.0" encoding="UTF-8" standalone="no"?>
<svg
   xmlns:dc="http://purl.org/dc/elements/1.1/"
   xmlns:cc="http://creativecommons.org/ns#"
   xmlns:rdf="http://www.w3.org/1999/02/22-rdf-syntax-ns#"
   xmlns:svg="http://www.w3.org/2000/svg"
   xmlns="http://www.w3.org/2000/svg"
   xmlns:xlink="http://www.w3.org/1999/xlink"
   xmlns:sodipodi="http://sodipodi.sourceforge.net/DTD/sodipodi-0.dtd"
   xmlns:inkscape="http://www.inkscape.org/namespaces/inkscape"
   width="16"
   height="16"
   viewBox="0 0 4.2333332 4.2333335"
   version="1.1"
   id="svg8"
   inkscape:version="1.0 (4035a4fb49, 2020-05-01)"
   sodipodi:docname="onion-blue.svg">
  <defs
     id="defs2">
    <linearGradient
       inkscape:collect="always"
       id="linearGradient982">
      <stop
         style="stop-color:#8cd5ff;stop-opacity:1"
         offset="0"
         id="stop978" />
      <stop
         style="stop-color:#8cd5ff;stop-opacity:0"
         offset="1"
         id="stop980" />
    </linearGradient>
    <linearGradient
       inkscape:collect="always"
       id="linearGradient964">
      <stop
         style="stop-color:#ffffff;stop-opacity:0"
         offset="0"
         id="stop960" />
      <stop
         id="stop970"
         offset="0.70761931"
         style="stop-color:#ffffff;stop-opacity:0.01960784;" />
      <stop
         style="stop-color:#ffffff;stop-opacity:0.25"
         offset="1"
         id="stop962" />
    </linearGradient>
    <radialGradient
       inkscape:collect="always"
       xlink:href="#linearGradient964"
       id="radialGradient968"
       cx="8.0810547"
       cy="6.577085"
       fx="8.0810547"
       fy="6.577085"
       r="5.1455078"
       gradientTransform="matrix(0.26458333,0,0,0.28678169,1.0869865e-4,292.62067)"
       gradientUnits="userSpaceOnUse" />
    <linearGradient
       inkscape:collect="always"
       xlink:href="#linearGradient982"
       id="linearGradient984"
       x1="2.2822752"
       y1="294.64923"
       x2="2.1994615"
       y2="297"
       gradientUnits="userSpaceOnUse" />
  </defs>
  <sodipodi:namedview
     id="base"
     pagecolor="#ffffff"
     bordercolor="#666666"
     borderopacity="1.0"
     inkscape:pageopacity="0.0"
     inkscape:pageshadow="2"
     inkscape:zoom="11.2"
     inkscape:cx="4.1288951"
     inkscape:cy="11.872554"
     inkscape:document-units="px"
     inkscape:current-layer="layer1"
     inkscape:document-rotation="0"
     showgrid="true"
     units="px"
     showguides="true"
     inkscape:guide-bbox="true"
     inkscape:snap-to-guides="true"
     inkscape:snap-center="false"
     inkscape:snap-grids="false"
     inkscape:lockguides="true"
     inkscape:snap-intersection-paths="true"
     inkscape:object-paths="true"
     inkscape:snap-smooth-nodes="true"
     inkscape:snap-page="true">
    <inkscape:grid
       type="xygrid"
       id="grid833" />
    <sodipodi:guide
       position="1.8520833,0.26458334"
       orientation="0,1"
       id="guide853"
       inkscape:locked="true" />
    <sodipodi:guide
       position="1.5874999,3.9687502"
       orientation="0,1"
       id="guide855"
       inkscape:locked="true" />
  </sodipodi:namedview>
  <metadata
     id="metadata5">
    <rdf:RDF>
      <cc:Work
         rdf:about="">
        <dc:format>image/svg+xml</dc:format>
        <dc:type
           rdf:resource="http://purl.org/dc/dcmitype/StillImage" />
        <dc:title />
      </cc:Work>
    </rdf:RDF>
  </metadata>
  <g
     inkscape:groupmode="layer"
     id="layer2"
     inkscape:label="Layer 2"
     style="display:none">
    <rect
       style="fill:#deddda;fill-opacity:1;stroke:none;stroke-width:0.264583;stroke-linecap:round;stroke-linejoin:round;stroke-miterlimit:4;stroke-dasharray:none;stroke-opacity:1"
       id="rect940"
       width="4.2333331"
       height="4.2333331"
       x="0"
       y="0" />
  </g>
  <g
     inkscape:label="Layer 1"
     inkscape:groupmode="layer"
     id="layer1"
     transform="translate(0,-292.76666)">
    <circle
       style="opacity:1;fill:#8cd5ff;fill-opacity:1;stroke:none;stroke-width:0.264583;stroke-linecap:round;stroke-linejoin:round;stroke-miterlimit:4;stroke-dasharray:none;stroke-opacity:1"
       id="path940"
       cx="2.1381564"
       cy="294.39273"
       r="1.3614801" />
    <rect
       style="opacity:1;fill:#8cd5ff;fill-opacity:1;stroke:none;stroke-width:0.264583;stroke-linecap:round;stroke-linejoin:round;stroke-miterlimit:4;stroke-dasharray:none;stroke-opacity:1"
       id="rect942"
       width="1.5062926"
       height="0.60638428"
       x="1.3850101"
       y="295.37589" />
    <path
       style="opacity:1;fill:#abacae;fill-opacity:1;stroke:none;stroke-width:0.264583;stroke-linecap:round;stroke-linejoin:round;stroke-miterlimit:4;stroke-dasharray:none;stroke-opacity:1"
       id="path938"
       sodipodi:type="arc"
       sodipodi:cx="2.1381564"
       sodipodi:cy="295.98227"
       sodipodi:rx="0.75314623"
       sodipodi:ry="0.75314623"
       sodipodi:start="0"
       sodipodi:end="3.1415927"
       sodipodi:arc-type="slice"
       d="m 2.8913026,295.98227 a 0.75314623,0.75314623 0 0 1 -0.3765731,0.65224 0.75314623,0.75314623 0 0 1 -0.7531462,0 0.75314623,0.75314623 0 0 1 -0.3765731,-0.65224 h 0.7531462 z" />
    <path
       transform="matrix(0.26458333,0,0,0.26458333,0,292.76666)"
       d="M 8.0097656 1 A 5.1457515 5.1457515 0 0 0 2.9355469 6.1464844 A 5.1457515 5.1457515 0 0 0 3.0332031 7.1464844 A 5.1457515 5.1457515 0 0 1 8.0820312 3 A 5.1457515 5.1457515 0 0 1 13.128906 7.1445312 A 5.1457515 5.1457515 0 0 0 13.226562 6.1464844 A 5.1457515 5.1457515 0 0 0 8.0820312 1 A 5.1457515 5.1457515 0 0 0 8.0097656 1 z "
       style="opacity:1;fill:#c7ebff;fill-opacity:1;stroke:none;stroke-width:0.999999;stroke-linecap:round;stroke-linejoin:round;stroke-miterlimit:4;stroke-dasharray:none;stroke-opacity:1"
       id="circle851" />
    <path
       d="M 8.0097656 1 A 5.1457515 5.1457515 0 0 0 2.9355469 6.1464844 A 5.1457515 5.1457515 0 0 0 5.234375 10.431641 L 5.234375 12.154297 L 10.927734 12.154297 L 10.927734 10.431641 A 5.1457515 5.1457515 0 0 0 13.226562 6.1464844 A 5.1457515 5.1457515 0 0 0 8.0820312 1 A 5.1457515 5.1457515 0 0 0 8.0097656 1 z "
       style="opacity:1;fill:none;fill-opacity:1;stroke:#002e99;stroke-width:0.999999;stroke-linecap:round;stroke-linejoin:round;stroke-miterlimit:4;stroke-dasharray:none;stroke-opacity:1"
       id="path972"
       transform="matrix(0.26458333,0,0,0.26458333,0,292.76666)" />
    <path
       id="circle953"
       style="opacity:1;fill:url(#radialGradient968);fill-opacity:1;stroke:none;stroke-width:0.264583;stroke-linecap:round;stroke-linejoin:round;stroke-miterlimit:4;stroke-dasharray:none;stroke-opacity:1"
       d="m 2.1193592,293.03125 a 1.3614801,1.3614801 0 0 0 -1.34255373,1.36167 1.3614801,1.3614801 0 0 0 0.60823163,1.13379 v 0.45578 h 1.5063678 v -0.45578 a 1.3614801,1.3614801 0 0 0 0.6082316,-1.13379 1.3614801,1.3614801 0 0 0 -1.3611571,-1.36167 1.3614801,1.3614801 0 0 0 -0.01912,0 z" />
    <path
       d="m 2.8913026,295.98227 a 0.75314623,0.75314623 0 0 1 -0.3765731,0.65224 0.75314623,0.75314623 0 0 1 -0.7531462,0 0.75314623,0.75314623 0 0 1 -0.3765731,-0.65224 h 0.7531462 z"
       sodipodi:arc-type="slice"
       sodipodi:end="3.1415927"
       sodipodi:start="0"
       sodipodi:ry="0.75314623"
       sodipodi:rx="0.75314623"
       sodipodi:cy="295.98227"
       sodipodi:cx="2.1381564"
       sodipodi:type="arc"
       id="path948"
       style="opacity:1;fill:none;fill-opacity:1;stroke:#555761;stroke-width:0.26458333;stroke-linecap:round;stroke-linejoin:round;stroke-miterlimit:4;stroke-dasharray:none;stroke-opacity:1" />
    <path
       d="m 2.8913026,295.98227 a 0.75314623,0.75314623 0 0 1 -0.3765731,0.65224 0.75314623,0.75314623 0 0 1 -0.7531462,0 0.75314623,0.75314623 0 0 1 -0.3765731,-0.65224 h 0.7531462 z"
       sodipodi:arc-type="slice"
       sodipodi:end="3.1415927"
       sodipodi:start="0"
       sodipodi:ry="0.75314623"
       sodipodi:rx="0.75314623"
       sodipodi:cy="295.98227"
       sodipodi:cx="2.1381564"
       sodipodi:type="arc"
       id="path976"
       style="opacity:1;fill:url(#linearGradient984);fill-opacity:1;stroke:none;stroke-width:0.264583;stroke-linecap:round;stroke-linejoin:round;stroke-miterlimit:4;stroke-dasharray:none;stroke-opacity:1" />
  </g>
</svg>
