<svg xmlns="http://www.w3.org/2000/svg" viewBox="0 0 24 24" baseProfile="tiny"><path fill="none" d="M0-.004h24v24H0z"/><path d="M309 111.996l-4 3v-18l12 13h-4.667l1.667 4-4 2-1-4z" fill="url(#_Linear1)" transform="translate(-298 -94)"/><path d="M307 97.248h-2.248V95h-1.504v2.248H301v1.504h2.248V101h1.504v-2.248H307v-1.504z" fill="url(#_Linear2)" transform="translate(-397.333 -125.67) scale(1.33333)"/><path d="M7.999 4.996l9.002 10H13l-1.407 1.406L8 18.996v-14z"/><path d="M10 12.996l2-.99 3 7.99-2 1-3-8z"/><defs><linearGradient id="_Linear1" x2="1" gradientUnits="userSpaceOnUse" gradientTransform="matrix(-12 -34 34 -12 318 122)"><stop offset="0" stop-color="#00a2ff"/><stop offset="1" stop-color="#0060a1"/></linearGradient><linearGradient id="_Linear2" x2="1" gradientUnits="userSpaceOnUse" gradientTransform="matrix(-9 -25.5 25.5 -9 313 115.253)"><stop offset="0" stop-color="#00a2ff"/><stop offset="1" stop-color="#0060a1"/></linearGradient></defs></svg>