<svg xmlns="http://www.w3.org/2000/svg" viewBox="0 0 24 24" baseProfile="tiny"><path fill="none" d="M0 0h24v24H0z"/><path fill="url(#_Linear2)" d="M136 55h13v14.841h-13z" transform="matrix(-.51798 -.90317 .89717 -.52145 36.793 164.039)"/><path d="M142.5 55.636c3.172.079 5.867.55 6.436 1.777.075.16.064.734.064.905 0 1.48-2.913 2.682-6.5 2.682s-6.281-1.218-6.5-2.682c-.346-2.315 2.875-2.773 6.5-2.682z" fill="url(#_Linear3)" transform="matrix(-.5348 -.9325 .9263 -.53838 35.258 170.504)"/><path d="M142.5 55.636c3.172.079 5.867.55 6.436 1.777.075.16.064.734.064.905 0 1.48-2.913 2.682-6.5 2.682s-6.281-1.218-6.5-2.682c-.346-2.315 2.875-2.773 6.5-2.682z" fill="url(#_Linear4)" transform="matrix(-.5348 -.9325 .9263 -.53838 35 170.654)"/><ellipse ry="2.682" cx="142.5" rx="6.5" cy="58.318" fill="url(#_Linear5)" transform="matrix(-.51613 -.89995 .83884 -.48754 36.918 163.344)"/><ellipse ry="2.682" cx="142.5" rx="6.5" cy="58.318" fill="url(#_Linear6)" transform="matrix(-.5348 -.9325 .9263 -.53838 34.506 170.941)"/><ellipse ry="2.682" cx="142.5" rx="6.5" cy="58.318" fill="url(#_Linear7)" transform="matrix(-.51613 -.89995 .83884 -.48754 36.918 163.344)"/><path d="M142.607 55.457c1.069-.922 3.856.336 6.336 2.816 2.112 2.111-5.226-.213-5.268-.25-.097-.086.005-.589.024-.698.007-.046.047-.19-.002-.227-.084-.064-.212.26-.318.165-.139-.124-.136-.416-.168-.583-.009-.051-.029-.184-.096-.198-.069-.015-.083.111-.139.117-.003 0 .005-.276.006-.29.009-.167.033-.353-.011-.516-.044-.162-.323-.209-.364-.336z" fill="url(#_Linear8)" transform="matrix(1.00066 .26992 -.26813 1.00735 -118.879 -93.543)"/><path d="M10.027 2.683c.441-.424 1.503-1.035 1.525-1.021.752.447 1.9 1.807 2.986 3.699 1.79 3.12 2.312 6.222 1.21 7.054l-.015-.004s-1.448.42-1.988.994c-.784.834-1.05.981-1.884 1.76-.872.817-1.91 2.293-2.55 3.331-.552.893-.774 1.967-1.322 2.869-.156.257-.448.849-.83.64-.518-.282-.544-1.049-.47-1.555.011-.076.024-.152.036-.227l-.006.001a.656.656 0 0 1-.347-.041c-.291.45-.666.851-1.055 1.234-.202.197-.645.706-.928.372-.255-.302-.33-.825-.365-1.2-.092-.998.083-2.021.412-2.962.514-1.468.532-3.014 1.132-4.48.218-.532.552-1.087.853-1.656-.048-.144-.106-.284-.158-.426-.197.424-.473.91-.838 1.191-.522.403-.915.152-.974-.462-.134-1.392.618-2.754 1.395-3.84.638-.89 1.72-2.165 2.764-3.457 0 0 .927-1.34 1.417-1.814z" fill="#0ee6cf"/><path d="M144.073 56.92c.306-.503 1.144-1.334 1.168-1.327.812.226 2.221 1.199 3.702 2.68 2.444 2.443 3.7 5.185 2.879 6.231h-.015s-1.246.751-1.607 1.418c-.524.968-.736 1.171-1.319 2.101-.611.974-1.212 2.6-1.552 3.722-.293.965-.233 2.015-.52 2.987-.082.277-.207.898-.616.8-.552-.132-.767-.835-.823-1.323-.009-.073-.016-.146-.023-.219l-.005.003a.637.637 0 0 1-.334.048c-.16.49-.41.955-.678 1.407-.139.233-.426.815-.773.576-.312-.216-.512-.681-.638-1.02-.333-.901-.424-1.893-.351-2.846.115-1.488-.252-2.925-.056-4.432.071-.548.245-1.145.384-1.747-.08-.122-.169-.237-.253-.355-.078.441-.215.961-.485 1.312-.387.504-.816.369-1.023-.185-.471-1.255-.108-2.705.348-3.904.374-.984 1.066-2.436 1.719-3.893 0 0 .531-1.473.871-2.034z" fill="url(#_Linear9)" transform="matrix(1.00066 .26992 -.26813 1.00735 -118.879 -93.543)"/><path d="M137.81 63.947c0-.002.752-1.382 1.188-1.654.094-.059.204-.1.309-.135 1.006-.343.524.947.268 1.401a4.141 4.141 0 0 1-.506.738c-.927 1.035-1.05 2.847-1.05 2.847s-1.08 2.031-1.872 2.631c.369-1.253.462-2.535.967-3.761.218-.529.553-1.08.853-1.645l-.157-.422z" fill="url(#_Linear10)" transform="matrix(1 0 0 1.00669 -131.546 -53.308)"/><path d="M137.774 73.171c.303-.485.408-1.048.609-1.598a8.263 8.263 0 0 1 1.106-2.083c.249-.336.558-.642.891-.895.085-.065.285-.218.397-.124.371.312-.204.901-.385 1.233-.227.416-.526.664-.811 1.085-.59.608-1.259 2.19-1.259 2.19l-.059.118.009-.054-.006.001-.347-.042-.145.169z" fill="url(#_Linear11)" transform="matrix(1 0 0 1.00669 -131.546 -53.308)"/><path d="M144.073 56.92c.306-.503 1.144-1.334 1.168-1.327.812.226 2.221 1.199 3.702 2.68 2.444 2.443 3.7 5.185 2.879 6.231h-.015s-1.246.751-1.607 1.418c-.524.968-.736 1.171-1.319 2.101-.611.974-1.212 2.6-1.552 3.722-.293.965-.233 2.015-.52 2.987-.082.277-.207.898-.616.8-.552-.132-.767-.835-.823-1.323-.009-.073-.016-.146-.023-.219l-.005.003a.637.637 0 0 1-.334.048c-.16.49-.41.955-.678 1.407-.139.233-.426.815-.773.576-.312-.216-.512-.681-.638-1.02-.333-.901-.424-1.893-.351-2.846.115-1.488-.252-2.925-.056-4.432.071-.548.245-1.145.384-1.747-.08-.122-.169-.237-.253-.355-.078.441-.215.961-.485 1.312-.387.504-.816.369-1.023-.185-.471-1.255-.108-2.705.348-3.904.374-.984 1.066-2.436 1.719-3.893 0 0 .531-1.473.871-2.034z" fill="url(#_Radial12)" transform="matrix(1.00066 .26992 -.26813 1.00735 -118.879 -93.543)"/><circle r=".665" cx="151.665" cy="55.665" fill="url(#_Radial13)" transform="matrix(.56727 .15302 -.152 .57106 -60.89 -50.761)"/><path fill="url(#_Linear14)" d="M150.691 56H151v.059h-.309z" transform="matrix(1.00066 .26992 -.26813 1.00735 -119.146 -93.2)"/><path d="M16.694 3.967l.157.043c1.073-2.607.406-4.384-1.824-6.017l-.38.102c2.341 1.629 3.15 2.702 2.047 5.872z" fill="#b1b1b1"/><path d="M139.888 53.823l-.211-.172c-2.562 4.712-2.28 8.692.323 13.236h.59c-2.766-4.595-3.524-7.221-.702-13.064z" fill="url(#_Radial15)" transform="matrix(-.64349 .17357 -.12212 -.4588 113.284 4.38)"/><g><path d="M5.502 10.08c-.247.29-.536.573-.631.956-.064.26.083.846.435.545.42-.36.303-.833.418-1.301.114-.463.374-.865.539-1.299" fill="#b6fff9"/></g><g><path d="M7.52 19.93c-.31.442-.521.767-.521 1.303 0 .17.223.787.444.437.155-.244.08-.762.072-1.036-.017-.486.509-1.5.647-1.784" fill="#b6fff9"/></g><g><path d="M5.129 19.08c-.104.384-.543.783-.393 1.17.063.161.229.419.433.282.088-.06.124-.212.135-.31.04-.357.124-.582.056-.916-.064-.317.036-.659.142-.954.058-.163.094-.327.18-.479" fill="#b6fff9"/></g><defs><linearGradient id="_Linear2" x2="1" gradientUnits="userSpaceOnUse" gradientTransform="rotate(180 74.513 29.913) scale(12.7279)"><stop offset="0" stop-color="#545b5e"/><stop offset=".1" stop-color="#9daeb7"/><stop offset=".2" stop-color="#97a6ad"/><stop offset=".3" stop-color="#eaeaea"/><stop offset=".5" stop-color="#cdd0d1"/><stop offset=".7" stop-color="#5d6b72"/><stop offset=".9" stop-color="#667479"/><stop offset=".9" stop-color="#7b898c"/><stop offset="1" stop-color="#93a0a0"/><stop offset="1" stop-color="#5d6b73"/></linearGradient><linearGradient id="_Linear3" x2="1" gradientUnits="userSpaceOnUse" gradientTransform="rotate(172.573 72.383 34.443) scale(12.22021)"><stop offset="0" stop-color="#616161"/><stop offset=".1" stop-color="#b4b4b4"/><stop offset=".3" stop-color="#fff"/><stop offset=".3" stop-color="#e5e5e5"/><stop offset=".3" stop-color="#ccc"/><stop offset=".5" stop-color="#c1c1c1"/><stop offset=".6" stop-color="#959595"/><stop offset=".7" stop-color="#6c6c6c"/><stop offset="1" stop-color="#5a5a5a"/></linearGradient><linearGradient id="_Linear4" x2="1" gradientUnits="userSpaceOnUse" gradientTransform="rotate(175.61 73.325 32.067) scale(12.05426)"><stop offset="0" stop-color="#8c8c8c"/><stop offset=".3" stop-color="#fff"/><stop offset=".6" stop-color="#fff"/><stop offset=".8" stop-color="#828282"/><stop offset="1" stop-color="#545454"/></linearGradient><linearGradient id="_Linear5" x2="1" gradientUnits="userSpaceOnUse" gradientTransform="matrix(0 7.56275 -7.09638 0 142.654 52.174)"><stop offset="0" stop-color="#fff"/><stop offset="1" stop-color="#484848"/></linearGradient><linearGradient id="_Linear6" x2="1" gradientUnits="userSpaceOnUse" gradientTransform="rotate(176.542 72.857 30.987) scale(12.22626)"><stop offset="0" stop-color="#5d5d5d"/><stop offset="0" stop-color="gray"/><stop offset="0" stop-color="#a3a3a3"/><stop offset=".1" stop-color="#b2b2b2"/><stop offset=".2" stop-color="#a5a5a5"/><stop offset=".3" stop-color="#c3c3c3"/><stop offset=".3" stop-color="#dedede"/><stop offset=".5" stop-color="#e8e8e8"/><stop offset=".6" stop-color="#c3c3c3"/><stop offset=".8" stop-color="#eee"/><stop offset=".8" stop-color="#c9c9c9"/><stop offset=".8" stop-color="#aaa"/><stop offset=".9" stop-color="#9f9f9f"/><stop offset="1" stop-color="#484848"/></linearGradient><linearGradient id="_Linear7" x2="1" gradientUnits="userSpaceOnUse" gradientTransform="matrix(14.2854 -.48942 .45924 15.2242 135.098 58.714)"><stop offset="0" stop-color="#6d6d6d"/><stop offset=".3" stop-color="#a6a6a6"/><stop offset=".5" stop-color="#c8c8cc"/><stop offset=".8" stop-color="#6e6e6f"/><stop offset="1" stop-color="#484848"/></linearGradient><linearGradient id="_Linear8" x2="1" gradientUnits="userSpaceOnUse" gradientTransform="matrix(0 -4.86619 2.65261 0 149.26 61.922)"><stop offset="0" stop-color="#008938" stop-opacity=".118"/><stop offset=".7" stop-color="#009a3e" stop-opacity=".118"/><stop offset=".8" stop-color="#00c84f" stop-opacity=".118"/><stop offset="1" stop-color="#00ff63" stop-opacity=".118"/></linearGradient><linearGradient id="_Linear9" x2="1" gradientUnits="userSpaceOnUse" gradientTransform="rotate(120 59.908 70.596) scale(12.78705)"><stop offset="0" stop-color="#284956"/><stop offset=".5" stop-color="#284956" stop-opacity=".718"/><stop offset="1" stop-color="#284956" stop-opacity="0"/></linearGradient><linearGradient id="_Linear10" x2="1" gradientUnits="userSpaceOnUse" gradientTransform="rotate(93.009 41.01 94.968) scale(10.81131)"><stop offset="0" stop-color="#006a5e"/><stop offset="1" stop-color="#006a5e" stop-opacity="0"/></linearGradient><linearGradient id="_Linear11" x2="1" gradientUnits="userSpaceOnUse" gradientTransform="matrix(7 -21 21 7 137 79)"><stop offset="0" stop-color="#006a5e"/><stop offset="1" stop-color="#006a5e" stop-opacity="0"/></linearGradient><radialGradient r="1" id="_Radial12" cx="0" gradientUnits="userSpaceOnUse" gradientTransform="matrix(-8.38806 -2.94021 3.38849 -9.66696 145.308 65.519)" cy="0"><stop offset="0" stop-opacity="0"/><stop offset=".6" stop-opacity=".074"/><stop offset=".8" stop-opacity=".23"/><stop offset="1" stop-opacity=".378"/></radialGradient><radialGradient r="1" id="_Radial13" cx="0" gradientUnits="userSpaceOnUse" gradientTransform="translate(151.899 55.508) scale(1.10055)" cy="0"><stop offset="0" stop-color="#dee6e7"/><stop offset=".6" stop-color="#3d4447"/><stop offset=".8" stop-color="#343849"/><stop offset="1" stop-color="#120c52"/></radialGradient><linearGradient id="_Linear14" x2="1" gradientUnits="userSpaceOnUse" gradientTransform="matrix(-.0117 .46518 -.46518 -.0117 150.861 55.735)"><stop offset="0" stop-color="#fff"/><stop offset="1"/></linearGradient><radialGradient r="1" id="_Radial15" cx="0" gradientUnits="userSpaceOnUse" gradientTransform="matrix(1.168 -6.08901 6.60109 2.52423 141.334 60.875)" cy="0"><stop offset="0" stop-color="#b1b1b1"/><stop offset=".3" stop-color="#858585"/><stop offset=".4" stop-color="#e5e5e5"/><stop offset="1" stop-color="#272727"/></radialGradient></defs></svg>