<svg xmlns="http://www.w3.org/2000/svg" viewBox="0 0 24 24" baseProfile="tiny"><path fill="none" d="M0 0h24v24H0z"/><path d="M145 34.501c0-.277-.244-.501-.545-.501h-6.91c-.301 0-.545.224-.545.501 0 0-.572 9.082 0 10.998.33 1.108 3.738.822 4.039.822 0 0 3.995.202 4.32-.896l.008-.026c.55-1.971-.367-10.898-.367-10.898z" fill="url(#_Linear2)" transform="matrix(.82011 .81517 -.89331 .88793 -58.281 -148.129)"/><path d="M137.926 29.538c.552 0 1.074 1.884 1.074 3.156 0 1.273-.448 3.258-1 3.258s-1.269-2.381-1.269-3.653c0-1.273.643-2.761 1.195-2.761z" fill="url(#_Linear4)" transform="matrix(2.15655 -2.14357 1.46668 1.45785 -326.414 253.336)"/><path d="M137.926 29.538c.552 0 1.074 1.884 1.074 3.156 0 1.273-.448 3.258-1 3.258s-1.269-2.381-1.269-3.653c0-1.273.643-2.761 1.195-2.761z" fill="url(#_Linear5)" transform="matrix(2.15655 -2.14357 1.46668 1.45785 -326.922 253.84)"/><path d="M137.469 30.372c.214-.178.493-.114.73.073.761.597.801 1.598.801 2.249 0 1.249-.506 2.459-1.147 2.388a.281.281 0 0 1 .029.001c-.552 0-.882-1.116-.882-2.389 0-1.272.022-1.95.469-2.322z" fill="url(#_Linear6)" transform="matrix(.99674 -.99074 1.46668 1.45785 -168.363 96.235)"/><path d="M13.69 4.287c.36-.359 1.71-.379 4.25 2.146 1.452 1.443 2.905 3.417 2.309 4.01-.596.592-2.113-.682-3.9-2.16-1.716-1.744-3.02-3.639-2.66-3.996z" fill="#021112"/><g><path d="M136.982 42.182c.408-1.183.564-2.836.596-3.228a.174.174 0 0 1 .078-.132c.545-.355 4.048-2.64 5.227-3.512.445-.33.886-.704 1.265-1.046l.017-.014c.836-.767 1.23-.93 1.23-.93l3.404 3.405s-1.272 1.19-2.131 2.35c-.872 1.179-3.149 4.71-3.502 5.258a.17.17 0 0 1-.131.078c-.339.03-1.632.161-2.661.517-1.394.481-5.647 2.334-5.647 2.334s1.773-3.685 2.255-5.08z" fill="url(#_Linear7)" transform="matrix(1.15981 0 0 1.15283 -153.173 -33.597)"/><path d="M137.864 44.27s3.037-2.258 6.439-.822" fill="none" stroke="#000" stroke-width=".18" transform="matrix(1.15981 0 0 1.15283 -153.95 -32.974)"/><path d="M137.852 44.311s2.049-1.299 5.451.137" fill="none" stroke="#000" stroke-width=".18" transform="matrix(1.15981 0 0 1.15283 -151.166 -35.74)"/><path d="M137.866 44.386s3.035-2.374 6.437-.938" fill="none" stroke="#000" stroke-width=".18" transform="matrix(0 -1.15283 -1.15981 0 57.352 177.054)"/><path d="M137.866 44.386s2.035-1.374 5.437.062" fill="none" stroke="#000" stroke-width=".18" transform="matrix(0 -1.15283 -1.15981 0 60.135 174.289)"/><path d="M137.726 44.333s3.175-2.321 6.577-.885" fill="none" stroke="url(#_Linear9)" stroke-width=".18" transform="matrix(1.15981 0 0 1.15283 -153.95 -32.912)"/><path d="M137.759 44.315s2.142-1.303 5.544.133" fill="none" stroke="url(#_Linear10)" stroke-width=".18" transform="matrix(1.15981 0 0 1.15283 -151.166 -35.68)"/><path d="M137.866 44.386s3.035-2.374 6.437-.938" fill="none" stroke="url(#_Linear11)" stroke-width=".18" transform="matrix(0 -1.15283 -1.15981 0 57.267 177.133)"/><path d="M137.823 44.379s2.078-1.367 5.48.069" fill="none" stroke="url(#_Linear12)" stroke-width=".18" transform="matrix(0 -1.15283 -1.15981 0 60.066 174.289)"/><g><path d="M141.297 40.686a.5.5 0 1 1 .128.141l-6.889 6.889-.135-.135 6.896-6.895z" fill="url(#_Linear13)" transform="matrix(1.15981 0 0 1.15283 -153.95 -32.974)"/><path d="M10.013 14.014a.578.578 0 0 1 .496-.875c.32 0 .58.258.58.577a.578.578 0 0 1-.927.46l-7.99 7.943-.157-.156 7.998-7.949z"/></g><path d="M136.982 42.182c.408-1.183.564-2.836.596-3.228a.174.174 0 0 1 .078-.132c.545-.355 4.048-2.64 5.227-3.512.445-.33.886-.704 1.265-1.046.004-.004.012-.004.017-.008.642-.58 1.212-.954 1.212-.954l1.751 1.752s-1.273 1.189-2.131 2.35c-.872 1.179-3.15 4.71-3.502 5.257a.172.172 0 0 1-.131.078c-.34.031-1.632.162-2.661.517-1.394.482-3.976 4.006-3.976 4.006s1.773-3.685 2.255-5.08z" fill="url(#_Linear15)" transform="matrix(1.15981 0 0 1.15283 -153.173 -33.597)"/></g><g><path d="M170.844 115.21c.337-.704 2.129-4.468 2.651-5.98.491-1.42.676-3.405.714-3.867a.199.199 0 0 1 .091-.152c.641-.418 4.844-3.16 6.257-4.205 1.361-1.006 2.762-2.444 2.928-2.616l2.231 2.231c-.039.037-.047.044 0 0l2 2s-1.602 1.502-2.629 2.89c-1.045 1.414-3.776 5.649-4.192 6.295a.202.202 0 0 1-.153.091c-.401.035-1.953.192-3.187.618-1.613.558-6.422 2.648-6.758 2.794l.047-.099z" fill="url(#_Linear16)" transform="matrix(.96919 0 0 .96335 -162.45 -90.195)"/></g><g><path d="M144.444 44.926c-.564.14-1.569.392-2.538.651-1.705.456-6.935 2.906-6.935 2.906l.15-.315c1.127-.51 4.945-2.179 6.434-2.653.995-.389 2.251-.541 2.889-.589zm7.194-9.227l.173.174s-1.676 1.424-2.703 2.812c-1.053 1.425-3.787 5.502-4.163 6.064a.2.2 0 0 1-.042.045c.438-.682 3.145-4.877 4.184-6.283.999-1.411 2.537-2.822 2.551-2.812z" fill="url(#_Linear17)" transform="matrix(.96919 0 0 .96335 -127.559 -25.65)"/></g><defs><linearGradient id="_Linear2" x2="1" gradientUnits="userSpaceOnUse" gradientTransform="translate(133.222 40.707) scale(14.1421)"><stop offset="0" stop-color="#1fadff"/><stop offset=".2" stop-color="#36b0ff"/><stop offset=".2" stop-color="#67b6fe"/><stop offset=".3" stop-color="#95bcfe"/><stop offset=".4" stop-color="#7487d4"/><stop offset=".6" stop-color="#5252aa"/><stop offset="1" stop-color="#423996"/></linearGradient><linearGradient id="_Linear4" x2="1" gradientUnits="userSpaceOnUse" gradientTransform="matrix(.16732 5.0578 -3.43983 .24602 138.063 29.658)"><stop offset="0" stop-color="#002e56"/><stop offset=".2" stop-color="#fff"/><stop offset=".5" stop-color="#fff"/><stop offset=".8" stop-color="#143351"/><stop offset=".9" stop-color="#899fbf"/><stop offset="1" stop-color="#757e90"/></linearGradient><linearGradient id="_Linear5" x2="1" gradientUnits="userSpaceOnUse" gradientTransform="matrix(.16732 5.0578 -3.43983 .24602 138.063 29.658)"><stop offset="0" stop-color="#09628e"/><stop offset=".2" stop-color="#fff"/><stop offset=".5" stop-color="#fff"/><stop offset=".8" stop-color="#1d446b"/><stop offset=".9" stop-color="#899fbf"/><stop offset="1" stop-color="#757e90"/></linearGradient><linearGradient id="_Linear6" x2="1" gradientUnits="userSpaceOnUse" gradientTransform="matrix(0 3.95387 -5.81802 0 138.182 30.582)"><stop offset="0" stop-color="#081823"/><stop offset="1" stop-color="#556670"/></linearGradient><linearGradient id="_Linear7" x2="1" gradientUnits="userSpaceOnUse" gradientTransform="scale(8.4534) rotate(38.489 2.042 25.743)"><stop offset="0" stop-color="#a5a5a5"/><stop offset=".1" stop-color="#7d7d7d"/><stop offset=".1" stop-color="#717171"/><stop offset=".4" stop-color="#fff"/><stop offset=".6" stop-color="#d2d2d2"/><stop offset=".8" stop-color="#656565"/><stop offset=".8" stop-color="#636363"/><stop offset=".8" stop-color="#5f5f5f"/><stop offset=".8" stop-color="#5a5a5a"/><stop offset=".9" stop-color="#bdbdbd"/><stop offset="1" stop-color="#e4e4e4"/></linearGradient><linearGradient id="_Linear9" x2="1" gradientUnits="userSpaceOnUse" gradientTransform="translate(138.329 43.618) scale(4.69236)"><stop offset="0" stop-color="#9d9d9d"/><stop offset=".5" stop-color="#fff"/><stop offset="1" stop-color="#a7a7a7"/></linearGradient><linearGradient id="_Linear10" x2="1" gradientUnits="userSpaceOnUse" gradientTransform="translate(137.806 44.142) scale(4.69236)"><stop offset="0" stop-color="#9d9d9d"/><stop offset=".5" stop-color="#fff"/><stop offset="1" stop-color="#a7a7a7"/></linearGradient><linearGradient id="_Linear11" x2="1" gradientUnits="userSpaceOnUse" gradientTransform="translate(139.52 43.783) scale(4.69236)"><stop offset="0" stop-color="#9d9d9d"/><stop offset=".5" stop-color="#fff"/><stop offset="1" stop-color="#a7a7a7"/></linearGradient><linearGradient id="_Linear12" x2="1" gradientUnits="userSpaceOnUse" gradientTransform="translate(137.991 44.448) scale(4.69236)"><stop offset="0" stop-color="#9d9d9d"/><stop offset=".5" stop-color="#fff"/><stop offset="1" stop-color="#a7a7a7"/></linearGradient><linearGradient id="_Linear13" x2="1" gradientUnits="userSpaceOnUse" gradientTransform="rotate(135 62.774 49.385) scale(9.2904)"><stop offset="0" stop-color="#b2b2b2"/><stop offset=".1" stop-color="#f0efef"/><stop offset=".1" stop-color="#d4d1d1"/><stop offset=".2" stop-color="#766b6c"/><stop offset=".5" stop-color="#ddd"/><stop offset=".8" stop-color="#d2d2d2"/><stop offset=".9" stop-color="#b8b8b8"/><stop offset="1" stop-color="#9b9b9b"/></linearGradient><linearGradient id="_Linear15" x2="1" gradientUnits="userSpaceOnUse" gradientTransform="rotate(57.567 39.55 142.169) scale(5.95704)"><stop offset="0" stop-color="#2c2c2c"/><stop offset=".6" stop-color="#2c2c2c" stop-opacity=".804"/><stop offset=".8" stop-color="#2c2c2c" stop-opacity=".392"/><stop offset="1" stop-color="#2c2c2c" stop-opacity="0"/></linearGradient><linearGradient id="_Linear16" x2="1" gradientUnits="userSpaceOnUse" gradientTransform="rotate(135 71.479 88.186) scale(3.98585)"><stop offset="0"/><stop offset=".6" stop-opacity=".302"/><stop offset="1" stop-opacity="0"/></linearGradient><linearGradient id="_Linear17" x2="1" gradientUnits="userSpaceOnUse" gradientTransform="scale(-15.7316) rotate(-45 -7.688 10.552)"><stop offset="0"/><stop offset=".3" stop-color="#c2c2c2"/><stop offset="1" stop-color="#5b5f5d"/></linearGradient></defs></svg>