<?xml version="1.0"?>
<!-- Converted with SVG Converter - Version 0.9.6 (Compiled Thu Aug 31 04:01:04 2017) - Copyright (C) 2011 Nokia -->
<svg xmlns="http://www.w3.org/2000/svg" version="1.1" xmlns:xlink="http://www.w3.org/1999/xlink" height="100%" width="100%" baseProfile="tiny" xml:space="preserve" viewBox="0 0 24 24">
 <g transform="matrix(1,0,0,1,-272,-121)">
  <g transform="matrix(1,0,0,1,34,68)">
   <g id="detailed">
    <rect style="fill:none;" id="smudge_detailed" y="53" x="238" height="24" width="24"/>
    <g>
     <g transform="matrix(1.03573,2.6969e-17,-2.79423e-17,1.01097,-7.96818,-25.3439)">
      <path style="fill:url(#_Linear2);" d="M247.347,92.153C246.535,93.978 244.801,97.549 244.158,98.891C243.234,100.817 246.457,101.139 247.347,99.378C247.546,98.859 249.049,95.86 249.363,95.249C250.016,93.979 250.348,93.71 250.484,93.948C250.529,93.829 252.359,94.579 253.363,93.143C253.867,92.145 254.649,91.218 255.408,90.088C255.547,89.881 255.689,89.692 255.832,89.513C256.482,88.695 257.132,88.09 257.448,86.991C258.301,84.876 258.671,82.387 257.423,80.798C256.752,79.943 255.404,79.16 254.4,78.733C253.535,78.365 252.368,77.761 251.421,77.701C250.246,77.627 249.16,79.473 247.347,81.869C246.363,82.784 245.006,86.301 244.96,86.566C244.933,86.716 244.38,87.808 244.325,88.024C244.283,89.238 245.016,89.104 245.25,89.619C245.396,89.938 245.181,90.812 245.332,91.12C245.755,91.985 246.176,92.148 246.367,92.153"/>
     </g>
     <g transform="matrix(1.02957,-5.9294e-33,6.1688e-33,1.08369,-6.86942,-35.4903)">
      <path style="fill:rgb(199,140,132);stroke:rgb(98,43,36);stroke-width:0.39px;stroke-linecap:round;" d="M245.616,92.951C245.873,92.207 246.646,90.79 246.736,90.662"/>
     </g>
     <g transform="matrix(1.02957,-5.9294e-33,6.1688e-33,1.08369,-6.86942,-35.4903)">
      <path style="fill:rgb(199,140,132);stroke:rgb(98,43,36);stroke-width:0.39px;stroke-linecap:round;" d="M245.616,92.951C245.873,92.207 246.646,90.79 246.736,90.662"/>
     </g>
     <g transform="matrix(0.999345,0,0,0.960563,2.76884,-23.3488)">
      <path style="fill:none;stroke:rgb(98,43,36);stroke-width:0.43px;stroke-linecap:round;" d="M244.396,96.916C245.156,95.499 246.767,91.905 246.945,91.652"/>
     </g>
     <g transform="matrix(2.26344,0,0,1.30689,91.4489,-161.392)">
      <path style="fill:url(#_Linear3);" d="M70.563,176.828C70.697,176.245 70.884,175.515 71.105,175.227C71.739,174.4 72.296,174.008 72.488,174.429C72.488,174.429 72.215,175.557 72.027,176.186C71.595,177.231 70.685,176.779 70.563,176.828Z"/>
     </g>
     <g transform="matrix(1,0,0,1,-34,-68)">
      <path style="fill:url(#_Linear4);" d="M280.347,136.498C280.205,136.508 279.427,136.286 279.282,134.977C279.25,134.684 279.125,134.307 279.117,134.271C279.051,133.946 277.906,133.177 278.084,131.681C278.799,130.267 280.373,126.487 281.478,125.5C283.513,122.915 284.733,120.922 286.052,121.002C287.115,121.067 288.425,121.719 289.397,122.116C290.524,122.576 292.038,123.422 292.791,124.344C294.192,126.058 293.958,128.744 293,131.026C292.568,132.471 291.397,133.125 290.529,134.368C289.677,135.587 288.832,136.632 288.266,137.709C287.139,138.737 285.545,138.726 285.347,138.741C285.171,138.754 284.828,138.638 284.303,139.785C283.939,140.58 283.008,142.234 282.5,143.4C281.23,145.991 277.608,144.881 278.084,142.915C278.937,140.714 280.663,138.356 280.906,136.498L280.347,136.498ZM282.216,135.82C281.375,137.665 279.579,141.276 278.912,142.632C277.955,144.579 281.294,144.905 282.216,143.125C282.422,142.599 283.978,139.568 284.303,138.951C284.98,137.666 285.324,137.395 285.465,137.635C285.511,137.515 287.406,138.273 288.446,136.821C288.968,135.812 289.779,134.875 290.565,133.733C290.709,133.524 290.856,133.332 291.004,133.151C291.677,132.324 292.35,131.712 292.677,130.602C293.561,128.464 293.944,125.947 292.652,124.34C291.957,123.477 290.56,122.684 289.521,122.253C288.625,121.881 287.416,121.27 286.436,121.21C285.218,121.135 284.093,123.002 282.216,125.424C281.196,126.349 279.791,129.904 279.743,130.171C279.716,130.323 279.142,131.428 279.085,131.646C279.042,132.873 279.801,132.738 280.044,133.258C280.195,133.581 279.972,134.464 280.129,134.776C280.567,135.651 281.003,135.815 281.201,135.82L282.216,135.82Z"/>
     </g>
    </g>
   </g>
  </g>
 </g>
 <defs>
  <linearGradient y2="0" gradientTransform="matrix(8.42093,-15.8263,15.4481,8.62712,247.407,96.2874)" x2="1" y1="0" id="_Linear2" x1="0" gradientUnits="userSpaceOnUse">
   <stop style="stop-color:rgb(238,203,184);stop-opacity:1" offset="0.0"/>
   <stop style="stop-color:rgb(213,149,134);stop-opacity:1" offset="1.0"/>
  </linearGradient>
  <linearGradient y2="0" gradientTransform="matrix(0.440918,0.446398,-0.257746,0.76364,71.1249,175.74)" x2="1" y1="0" id="_Linear3" x1="0" gradientUnits="userSpaceOnUse">
   <stop style="stop-color:rgb(148,78,69);stop-opacity:1" offset="0.0"/>
   <stop style="stop-color:rgb(157,89,80);stop-opacity:0.819608" offset="0.6"/>
   <stop style="stop-color:rgb(178,114,105);stop-opacity:0.411765" offset="0.8"/>
   <stop style="stop-color:rgb(199,139,130);stop-opacity:0" offset="1.0"/>
  </linearGradient>
  <linearGradient y2="0" gradientTransform="matrix(-2.06587,-5.08476,5.16468,-2.0339,287.023,134.222)" x2="1" y1="0" id="_Linear4" x1="0" gradientUnits="userSpaceOnUse">
   <stop style="stop-color:rgb(98,43,36);stop-opacity:1" offset="0.0"/>
   <stop style="stop-color:rgb(199,141,132);stop-opacity:1" offset="1.0"/>
  </linearGradient>
 </defs>
</svg>
