<svg xmlns="http://www.w3.org/2000/svg" viewBox="0 0 26 24" fill-rule="evenodd" stroke-linecap="round" stroke-linejoin="round" stroke-miterlimit="1.5" xmlns:v="https://vecta.io/nano"><path fill="#fff" stroke="#404040" d="m10.08 2.43 12.05 12.04-7.83 7.83L2.25 10.26z"/><circle cx="52.5" cy="62.5" r="2.5" fill="#404040" transform="matrix(.602398 .602398 -.602398 .602398 25.747597 -64.440199)"/><circle cx="52.5" cy="62.5" r="2.5" fill="#fff" transform="matrix(.361438 .361438 -.361438 .361438 23.331667 -36.727626)"/><path fill="#404040" d="m18.52 5.44.6.6-2.71 2.71-.6-.6zM10.86 9.6c2.87-.06 4.13 1.26 4.1 4.1h1.36l-1.8 2.88-1.8-2.88h1.54c.03-2.34-1-3.49-3.4-3.4v1.54l-2.89-1.8 2.89-1.8V9.6Z"/></svg>