<svg xmlns="http://www.w3.org/2000/svg" viewBox="0 0 26 24" fill-rule="evenodd" stroke-linecap="round" stroke-linejoin="round" stroke-miterlimit="1.5" xmlns:v="https://vecta.io/nano"><g fill="#fff" stroke="#404040"><path d="M4.514 6.481h16.992v10.97H4.514z" stroke-width=".999"/><path d="M2.447 4.425h4.149v4.143H2.447z" stroke-width=".728"/><path d="M2.447 15.385h4.149v4.143H2.447zm16.98 0h4.149v4.143h-4.149zm0-10.96h4.149v4.143h-4.149z" stroke-width=".798"/></g><path d="m11.34 10.77-.83.83-1.1-3.32 3.31 1.1-.83.84 1.11 1.1 1.1-1.1-.82-.83 3.32-1.1-1.11 3.31-.83-.83-1.1 1.1 1.1 1.11.83-.83 1.1 3.32-3.31-1.1.83-.83L13 12.43l-1.1 1.1.82.84-3.32 1.1 1.11-3.32.83.83 1.1-1.1-1.1-1.11Z" fill="#404040"/></svg>