<svg xmlns="http://www.w3.org/2000/svg" viewBox="0 0 24 24" baseProfile="tiny"><path fill="none" d="M0 0h24v24H0z"/><path d="M198 32h-10v15.786c0 .056.028.111.078.151.05.04.118.063.188.063h9.631c.057 0 .103-.037.103-.083V32z" fill="url(#_Linear2)" transform="matrix(.8113 .80258 -1.00661 .99578 -101.208 -184.707)"/><path d="M197.901 38.003V32H198v16h-10v-9.997h9.901z" fill="url(#_Linear3)" transform="matrix(.8324 .82344 -1.04684 1.03558 -102.315 -193.944)"/><path d="M197.977 41.348l-3.65-3.041-1.01 31.25 3.652.11.855 1.949.153-30.268z" fill="url(#_Linear4)" transform="matrix(.82638 .78738 -.38249 .39283 -124.868 -163.333)"/><path d="M190.423 36.121l-.781 2.902a.175.175 0 0 0 .046.171l6.867 6.867c.029.029.07.041.109.032a.117.117 0 0 0 .084-.076l.932-2.64-7.257-7.256z" fill="url(#_Linear5)" transform="matrix(1.14736 0 0 1.13501 -214.557 -30.429)"/><path d="M26.235 7.004V4.725L22.63 8.372l-.13 2.363 3.735-3.731z" fill="#305cb0"/><path d="M28.918 2.153L22.633 8.37 14.392.217 20.677-6l8.24 8.153z" fill="#588cdd"/><path d="M197.977 41.348l-3.65-3.041-.834 10.609 3.652.11.855 1.948-.023-9.626z" fill="url(#_Linear6)" transform="matrix(.82638 .78738 -.38249 .39283 -121.568 -166.154)"/><defs><linearGradient id="_Linear2" x2="1" gradientUnits="userSpaceOnUse" gradientTransform="matrix(-3.86139 0 0 -3.1122 200.139 41.926)"><stop offset="0" stop-color="#505050"/><stop offset=".9" stop-color="#afafaf"/><stop offset="1" stop-color="#b8b8b8"/></linearGradient><linearGradient id="_Linear3" x2="1" gradientUnits="userSpaceOnUse" gradientTransform="matrix(22.5814 -1.29817 1.25452 23.367 186.289 40.519)"><stop offset="0" stop-color="#e2e2e2"/><stop offset=".5" stop-color="#c6c6c6"/><stop offset="1" stop-color="#bdbdbd"/></linearGradient><linearGradient id="_Linear4" x2="1" gradientUnits="userSpaceOnUse" gradientTransform="matrix(2.94 .11475 -.05514 6.11811 195.918 44.7)"><stop offset="0" stop-color="#d0d0d0" stop-opacity="0"/><stop offset=".3" stop-color="#cecece" stop-opacity=".204"/><stop offset=".5" stop-color="#c6c6c6"/><stop offset=".7" stop-color="#9c9c9c" stop-opacity=".267"/><stop offset="1" stop-color="#8d8d8d" stop-opacity="0"/></linearGradient><linearGradient id="_Linear5" x2="1" gradientUnits="userSpaceOnUse" gradientTransform="scale(-10.29704) rotate(-45 -13.926 21.381)"><stop offset="0" stop-color="#cacaca"/><stop offset=".2" stop-color="#c7c7c7"/><stop offset=".3" stop-color="#bfbfbf"/><stop offset=".4" stop-color="#b8b8b8"/><stop offset=".5" stop-color="#a9a9a9"/><stop offset=".6" stop-color="#9c9c9c"/><stop offset="1" stop-color="#979797"/></linearGradient><linearGradient id="_Linear6" x2="1" gradientUnits="userSpaceOnUse" gradientTransform="matrix(2.48223 .09689 -.04656 5.1655 195.501 43.509)"><stop offset="0" stop-color="#588cdd" stop-opacity="0"/><stop offset=".5" stop-color="#5488db" stop-opacity=".141"/><stop offset=".6" stop-color="#487cd6" stop-opacity=".533"/><stop offset=".7" stop-color="#3a6ed1"/><stop offset="1" stop-color="#4d45ac" stop-opacity="0"/></linearGradient></defs></svg>