<?xml version="1.0" encoding="UTF-8" standalone="no"?>
<svg
   xmlns:dc="http://purl.org/dc/elements/1.1/"
   xmlns:cc="http://creativecommons.org/ns#"
   xmlns:rdf="http://www.w3.org/1999/02/22-rdf-syntax-ns#"
   xmlns:svg="http://www.w3.org/2000/svg"
   xmlns="http://www.w3.org/2000/svg"
   xmlns:xlink="http://www.w3.org/1999/xlink"
   xmlns:sodipodi="http://sodipodi.sourceforge.net/DTD/sodipodi-0.dtd"
   xmlns:inkscape="http://www.inkscape.org/namespaces/inkscape"
   sodipodi:docname="pencil_detailed.svg"
   inkscape:version="1.0 (4035a4fb49, 2020-05-01)"
   id="svg8"
   version="1.1"
   viewBox="0 0 8.4666665 8.4666669"
   height="32"
   width="32">
  <defs
     id="defs2">
    <linearGradient
       id="linearGradient914"
       inkscape:collect="always">
      <stop
         id="stop908"
         offset="0"
         style="stop-color:#ffffff;stop-opacity:0.09714286" />
      <stop
         id="stop912"
         offset="1"
         style="stop-color:#000000;stop-opacity:0.09714286" />
    </linearGradient>
    <linearGradient
       inkscape:collect="always"
       id="linearGradient882">
      <stop
         style="stop-color:#a3907c;stop-opacity:1;"
         offset="0"
         id="stop878" />
      <stop
         id="stop886"
         offset="0.42207134"
         style="stop-color:#9d8875;stop-opacity:1;" />
      <stop
         style="stop-color:#8a715e;stop-opacity:1"
         offset="1"
         id="stop880" />
    </linearGradient>
    <linearGradient
       inkscape:collect="always"
       id="linearGradient870-3">
      <stop
         style="stop-color:#f9c440;stop-opacity:1;"
         offset="0"
         id="stop866" />
      <stop
         id="stop874"
         offset="0.46516398"
         style="stop-color:#f1b937;stop-opacity:1;" />
      <stop
         style="stop-color:#d48e15;stop-opacity:1"
         offset="1"
         id="stop868" />
    </linearGradient>
    <inkscape:path-effect
       effect="fillet_chamfer"
       id="path-effect860"
       is_visible="true"
       lpeversion="1"
       satellites_param="F,0,0,1,0,0.61935052,0,1 @ F,0,0,1,0,0,0,1 @ F,0,0,1,0,0,0,1"
       unit="px"
       method="auto"
       mode="F"
       radius="0"
       chamfer_steps="1"
       flexible="false"
       use_knot_distance="true"
       apply_no_radius="true"
       apply_with_radius="true"
       only_selected="false"
       hide_knots="false" />
    <inkscape:path-effect
       effect="fillet_chamfer"
       id="path-effect852"
       is_visible="true"
       lpeversion="1"
       satellites_param="F,0,0,1,0,0,0,1 @ F,0,0,1,0,0.61950093,0,1 @ F,0,0,1,0,0,0,1"
       unit="px"
       method="auto"
       mode="F"
       radius="0"
       chamfer_steps="1"
       flexible="false"
       use_knot_distance="true"
       apply_no_radius="true"
       apply_with_radius="true"
       only_selected="false"
       hide_knots="false" />
    <inkscape:path-effect
       effect="fillet_chamfer"
       id="path-effect1004"
       is_visible="true"
       lpeversion="1"
       satellites_param="F,0,0,1,0,0,0,1 @ F,0,0,1,0,0.61950093,0,1 @ F,0,0,1,0,0,0,1"
       unit="px"
       method="auto"
       mode="F"
       radius="0"
       chamfer_steps="1"
       flexible="false"
       use_knot_distance="true"
       apply_no_radius="true"
       apply_with_radius="true"
       only_selected="false"
       hide_knots="false" />
    <inkscape:path-effect
       effect="fillet_chamfer"
       id="path-effect995"
       is_visible="true"
       lpeversion="1"
       satellites_param="F,0,0,1,0,0,0,1 @ F,0,0,1,0,0.61950093,0,1 @ F,0,0,1,0,0,0,1"
       unit="px"
       method="auto"
       mode="F"
       radius="0"
       chamfer_steps="1"
       flexible="false"
       use_knot_distance="true"
       apply_no_radius="true"
       apply_with_radius="true"
       only_selected="false"
       hide_knots="false" />
    <inkscape:path-effect
       effect="fillet_chamfer"
       id="path-effect987"
       is_visible="true"
       lpeversion="1"
       satellites_param="F,0,0,1,0,0.61935052,0,1 @ F,0,0,1,0,0,0,1 @ F,0,0,1,0,0,0,1"
       unit="px"
       method="auto"
       mode="F"
       radius="0"
       chamfer_steps="1"
       flexible="false"
       use_knot_distance="true"
       apply_no_radius="true"
       apply_with_radius="true"
       only_selected="false"
       hide_knots="false" />
    <inkscape:path-effect
       hide_knots="false"
       only_selected="false"
       apply_with_radius="true"
       apply_no_radius="true"
       use_knot_distance="true"
       flexible="false"
       chamfer_steps="1"
       radius="0"
       mode="F"
       method="auto"
       unit="px"
       satellites_param="F,0,0,1,0,0.61935052,0,1 @ F,0,0,1,0,0,0,1 @ F,0,0,1,0,0,0,1"
       lpeversion="1"
       is_visible="true"
       id="path-effect935"
       effect="fillet_chamfer" />
    <inkscape:path-effect
       hide_knots="false"
       only_selected="false"
       apply_with_radius="true"
       apply_no_radius="true"
       use_knot_distance="true"
       flexible="false"
       chamfer_steps="1"
       radius="0"
       mode="F"
       method="auto"
       unit="px"
       satellites_param="F,0,0,1,0,0,0,1 @ F,0,0,1,0,0.61950093,0,1 @ F,0,0,1,0,0,0,1"
       lpeversion="1"
       is_visible="true"
       id="path-effect933"
       effect="fillet_chamfer" />
    <linearGradient
       inkscape:collect="always"
       xlink:href="#linearGradient870-3"
       id="linearGradient872"
       x1="1.9417232"
       y1="-2.0579488"
       x2="7.806932"
       y2="-2.0913575"
       gradientUnits="userSpaceOnUse"
       gradientTransform="matrix(1.0188806,0,0,1.4155005,0.88704127,-1.7255759)" />
    <linearGradient
       inkscape:collect="always"
       xlink:href="#linearGradient882"
       id="linearGradient884"
       x1="3.1785464"
       y1="8.9598999"
       x2="15.032427"
       y2="21.018597"
       gradientUnits="userSpaceOnUse"
       gradientTransform="matrix(0.26958435,0,0,0.26958435,1.6422649,-0.38793199)" />
    <linearGradient
       y2="-2.0913575"
       x2="7.806932"
       y1="-2.0579488"
       x1="1.9417232"
       gradientTransform="matrix(0.72045738,0.72045738,-1.00091,1.00091,1.8473993,-0.59293346)"
       gradientUnits="userSpaceOnUse"
       id="linearGradient2907"
       xlink:href="#linearGradient914"
       inkscape:collect="always" />
  </defs>
  <sodipodi:namedview
     inkscape:snap-to-guides="true"
     inkscape:bbox-nodes="true"
     inkscape:snap-bbox-edge-midpoints="true"
     inkscape:snap-bbox="true"
     inkscape:object-nodes="true"
     inkscape:snap-smooth-nodes="true"
     inkscape:snap-intersection-paths="true"
     inkscape:object-paths="true"
     inkscape:snap-grids="false"
     inkscape:snap-center="false"
     inkscape:lockguides="false"
     inkscape:guide-bbox="true"
     showguides="true"
     units="px"
     showgrid="true"
     inkscape:document-rotation="0"
     inkscape:current-layer="layer3"
     inkscape:document-units="mm"
     inkscape:cy="17.751314"
     inkscape:cx="9.1324279"
     inkscape:zoom="15.839192"
     inkscape:pageshadow="2"
     inkscape:pageopacity="0.0"
     borderopacity="1.0"
     bordercolor="#666666"
     pagecolor="#ffffff"
     id="base"
     inkscape:snap-page="false"
     inkscape:snap-nodes="false">
    <inkscape:grid
       id="grid869"
       type="xygrid" />
    <sodipodi:guide
       inkscape:locked="false"
       id="guide871"
       orientation="0,1"
       position="6.8791667,0.79375" />
    <sodipodi:guide
       inkscape:locked="false"
       id="guide873"
       orientation="0,1"
       position="1.8520833,7.6729167" />
    <sodipodi:guide
       inkscape:locked="false"
       id="guide875"
       orientation="1,0"
       position="0.79375,4.4979167" />
    <sodipodi:guide
       inkscape:locked="false"
       id="guide877"
       orientation="1,0"
       position="7.6729167,2.38125" />
  </sodipodi:namedview>
  <metadata
     id="metadata5">
    <rdf:RDF>
      <cc:Work
         rdf:about="">
        <dc:format>image/svg+xml</dc:format>
        <dc:type
           rdf:resource="http://purl.org/dc/dcmitype/StillImage" />
        <dc:title />
      </cc:Work>
    </rdf:RDF>
  </metadata>
  <g
     style="display:none"
     transform="translate(0,-288.53332)"
     id="layer1"
     inkscape:groupmode="layer"
     inkscape:label="Layer 1">
    <rect
       style="fill:#4d4d4d;fill-opacity:0.5;stroke:none;stroke-width:0.264999;stroke-linecap:round;stroke-linejoin:round"
       id="rect877"
       width="8.500474"
       height="8.500474"
       x="0"
       y="288.49951" />
  </g>
  <g
     inkscape:label="Layer 2"
     id="layer2"
     inkscape:groupmode="layer"
     style="display:inline"
     transform="translate(0,2.1166667)" />
  <g
     inkscape:groupmode="layer"
     id="layer3"
     inkscape:label="Layer 3"
     style="display:inline"
     transform="translate(0,2.1166667)">
    <g
       transform="translate(-0.98572111,-0.38863593)"
       id="g2944">
      <rect
         y="-8.5877609"
         x="2.8654253"
         height="7.898314"
         width="5.1930394"
         id="rect976"
         style="display:inline;fill:url(#linearGradient872);fill-opacity:1;stroke:none;stroke-width:0.264999;stroke-linecap:round;stroke-linejoin:round;stroke-miterlimit:4;stroke-dasharray:none;stroke-opacity:0.984314"
         transform="rotate(45)" />
      <path
         style="display:inline;fill:#a3907c;fill-opacity:0.988506;stroke:none;stroke-width:0.264583px;stroke-linecap:butt;stroke-linejoin:miter;stroke-opacity:1"
         d="M 1.9157347,5.2943776 2.5138458,1.5384024 6.1859544,5.210511 2.4299789,5.8086219 A 0.44919295,0.44919295 45.000002 0 1 1.9157347,5.2943776 Z"
         id="path890"
         sodipodi:nodetypes="cccc"
         inkscape:path-effect="#path-effect935"
         inkscape:original-d="M 1.8183349,5.9060216 2.5138458,1.5384024 6.1859544,5.210511 Z" />
      <path
         d="m -2.8653727,0.68974239 a 2.5965729,1.4971862 0 0 1 -1.2982864,1.29660131 2.5965729,1.4971862 0 0 1 -2.5965729,-10e-8 2.5965729,1.4971862 0 0 1 -1.2982864,-1.29660121 h 2.5965729 z"
         inkscape:transform-center-y="-2.6732554"
         transform="rotate(-135)"
         sodipodi:arc-type="slice"
         sodipodi:end="3.1415927"
         sodipodi:start="0"
         sodipodi:ry="1.4971862"
         sodipodi:rx="2.5965729"
         sodipodi:cy="0.68974239"
         sodipodi:cx="-5.4619455"
         sodipodi:type="arc"
         id="path942"
         style="display:inline;fill:#a28f7c;fill-opacity:0.992157;stroke:none;stroke-width:0.265001;stroke-linecap:round;stroke-linejoin:round;stroke-miterlimit:4;stroke-dasharray:none;stroke-opacity:0.984314"
         inkscape:transform-center-x="-2.6732553" />
      <path
         id="rect907"
         style="display:inline;fill:#333333;fill-opacity:1;stroke:none;stroke-width:0.264998;stroke-linecap:round;stroke-linejoin:round;stroke-miterlimit:4;stroke-dasharray:none;stroke-opacity:0.984314"
         d="M 2.125503,3.9768275 1.9157042,5.2942857 A 0.44929956,0.44929956 44.999996 0 0 2.4300715,5.808653 L 3.7475294,5.598854 Z"
         inkscape:transform-center-y="-0.87214115"
         inkscape:path-effect="#path-effect933"
         inkscape:original-d="M 2.125503,3.9768275 1.8182792,5.906078 3.7475294,5.598854 Z"
         inkscape:transform-center-x="-0.87214123" />
      <path
         d="m -4.3149998,-1.3090841 a 1.1469457,0.66132998 0 0 1 -0.5734729,0.57272861 1.1469457,0.66132998 0 0 1 -1.1469457,-1e-8 1.1469457,0.66132998 0 0 1 -0.5734728,-0.5727286 h 1.1469457 z"
         style="display:inline;fill:#333333;fill-opacity:1;stroke:none;stroke-width:0.265001;stroke-linecap:round;stroke-linejoin:round;stroke-miterlimit:4;stroke-dasharray:none;stroke-opacity:0.984314"
         id="path913"
         sodipodi:type="arc"
         sodipodi:cx="-5.4619455"
         sodipodi:cy="-1.3090841"
         sodipodi:rx="1.1469457"
         sodipodi:ry="0.66132998"
         sodipodi:start="0"
         sodipodi:end="3.1415927"
         sodipodi:arc-type="slice"
         transform="rotate(-135)"
         inkscape:transform-center-y="-1.1808176"
         inkscape:transform-center-x="-1.1808175" />
      <path
         id="rect876"
         style="display:inline;fill:#d48e15;fill-opacity:1;stroke:none;stroke-width:0.264999;stroke-linecap:round;stroke-linejoin:round;stroke-miterlimit:4;stroke-dasharray:none;stroke-opacity:0.984314"
         d="M 8.0986474,-4.0462809 7.7638307,-3.7114639 11.100334,-0.37426906 5.8505457,4.87552 6.1853622,5.2103363 11.770659,-0.37426928 Z"
         sodipodi:nodetypes="ccccccc" />
      <path
         id="rect878"
         style="display:inline;fill:#ffe16b;fill-opacity:1;stroke:none;stroke-width:0.264999;stroke-linecap:round;stroke-linejoin:round;stroke-miterlimit:4;stroke-dasharray:none;stroke-opacity:0.984314"
         d="M 8.0986256,-4.0463026 2.5140203,1.5389947 6.1850381,5.2100125 6.5198548,4.8758875 3.1829619,1.5389944 8.4334421,-3.7114862 Z"
         sodipodi:nodetypes="ccccccc" />
      <rect
         style="display:inline;fill:none;fill-opacity:1;stroke:#ad5f00;stroke-width:0.264999;stroke-linecap:round;stroke-linejoin:round;stroke-miterlimit:4;stroke-dasharray:none;stroke-opacity:1"
         id="rect2898"
         width="5.1930394"
         height="7.898314"
         x="2.8654253"
         y="-8.5877609"
         transform="rotate(45)" />
      <path
         d="M 3.2639832,1.2553743 A 2.596573,1.4971861 45 0 0 2.5136754,1.5386485 L 1.917641,5.2828167 A 0.45768335,0.45768335 0 0 0 2.4415403,5.806716 L 6.1857088,5.2106818 A 2.596573,1.4971861 45 0 0 6.1846584,3.3757182 2.596573,1.4971861 45 0 0 4.3486398,1.5397015 2.596573,1.4971861 45 0 0 3.2639841,1.2553741 Z"
         style="display:inline;fill:url(#linearGradient884);fill-opacity:1;stroke:none;stroke-width:0.264583px;stroke-linecap:butt;stroke-linejoin:miter;stroke-opacity:1"
         id="path858" />
      <path
         d="M 6.4484479,4.1707814 A 2.596573,1.4971861 45 0 1 6.1857087,4.7009991 L 2.4415404,5.2970331 A 0.45768335,0.45768335 0 0 1 1.9560779,5.0406121 L 1.917641,5.2828167 A 0.45768335,0.45768335 0 0 0 2.4415403,5.806716 L 6.1857088,5.2106818 A 2.596573,1.4971861 45 0 0 6.4484479,4.1707814 Z"
         style="display:inline;fill:#57392d;fill-opacity:1;stroke:none;stroke-width:0.264583px;stroke-linecap:butt;stroke-linejoin:miter;stroke-opacity:1"
         id="path926" />
      <path
         d="M 3.2639832,1.2553743 A 2.596573,1.4971861 45 0 0 2.5136754,1.5386485 L 1.917641,5.2828167 A 0.45768335,0.45768335 0 0 0 2.4415403,5.806716 L 2.6832184,5.7682795 A 0.45768335,0.45768335 0 0 1 2.427324,5.2828166 L 3.023358,1.5386484 A 2.596573,1.4971861 45 0 1 3.5525226,1.2759091 2.596573,1.4971861 45 0 0 3.2639832,1.2553743 Z"
         style="display:inline;fill:#b8a99a;fill-opacity:1;stroke:none;stroke-width:0.264583px;stroke-linecap:butt;stroke-linejoin:miter;stroke-opacity:1"
         id="path978" />
      <path
         id="path985"
         style="display:inline;fill:none;fill-opacity:0.988506;stroke:#3d211b;stroke-width:0.264999;stroke-linecap:round;stroke-linejoin:round;stroke-miterlimit:4;stroke-dasharray:none;stroke-opacity:1"
         d="M 3.2639832,1.2553743 C 2.9529045,1.2601496 2.6945829,1.3576771 2.5136754,1.5386485 l -0.3880543,2.438369 c 0.084862,-0.085055 0.2082773,-0.1283777 0.3569887,-0.1253146 0.1387644,0.00307 0.2947574,0.046374 0.453344,0.1258411 0.3343893,0.1673893 0.6434699,0.4764701 0.8108592,0.8108592 0.1673253,0.3343891 0.167526,0.6432691 5.256e-4,0.8103327 L 6.1857079,5.2106817 C 6.5640528,4.8324927 6.5636514,4.1329899 6.1846565,3.3757183 5.8056928,2.6185458 5.1058115,1.9186642 4.3486387,1.5397015 3.9667214,1.3485663 3.5919615,1.2503283 3.2639832,1.2553743 Z"
         sodipodi:nodetypes="ccccccccccc" />
      <path
         d="M 2.4826098,3.8517029 A 1.1469458,0.66132992 45 0 0 2.1256211,3.9770175 L 1.917641,5.2828167 A 0.45779191,0.45779191 0 0 0 2.4415403,5.806716 L 3.7473393,5.5987357 A 1.1469458,0.66132992 45 0 0 3.746813,4.7884032 1.1469458,0.66132992 45 0 0 2.9359538,3.977544 1.1469458,0.66132992 45 0 0 2.4826098,3.8517029 Z"
         inkscape:transform-center-y="-0.87300921"
         inkscape:transform-center-x="-0.87300908"
         style="display:inline;fill:#333333;fill-opacity:1;stroke:none;stroke-width:0.264999;stroke-linecap:round;stroke-linejoin:round;stroke-miterlimit:4;stroke-dasharray:none;stroke-opacity:0.984314"
         id="path850" />
      <path
         d="M 3.8247397,4.9779548 A 1.1469458,0.66132992 45 0 1 3.7473391,5.0890526 L 2.4415404,5.2970331 A 0.45779191,0.45779191 0 0 1 1.9560779,5.0406121 L 1.917641,5.2828167 A 0.45779191,0.45779191 0 0 0 2.4415403,5.806716 l 1.305799,-0.2079803 a 1.1469458,0.66132992 45 0 0 0.0774,-0.6207809 z"
         inkscape:transform-center-y="-0.87300937"
         inkscape:transform-center-x="-0.87300923"
         style="display:inline;fill:#1a1a1a;fill-opacity:1;stroke:none;stroke-width:0.264999;stroke-linecap:round;stroke-linejoin:round;stroke-miterlimit:4;stroke-dasharray:none;stroke-opacity:0.984314"
         id="path921" />
      <path
         d="M 2.446279,3.8517029 A 1.1469458,0.66132992 45 0 0 2.1256211,3.9770175 L 1.917641,5.2828167 A 0.45779191,0.45779191 0 0 0 2.4415403,5.806716 L 2.6832184,5.7682795 A 0.45779191,0.45779191 0 0 1 2.427324,5.2828166 L 2.6353039,3.9770174 a 1.1469458,0.66132992 45 0 1 0.1110986,-0.077399 1.1469458,0.66132992 45 0 0 -0.2637926,-0.047915 1.1469458,0.66132992 45 0 0 -0.036331,-5e-7 z"
         inkscape:transform-center-y="-0.87300899"
         inkscape:transform-center-x="-0.87300912"
         style="display:inline;fill:#4d4d4d;fill-opacity:1;stroke:none;stroke-width:0.264999;stroke-linecap:round;stroke-linejoin:round;stroke-miterlimit:4;stroke-dasharray:none;stroke-opacity:0.984314"
         id="path958" />
      <path
         id="path1002"
         style="display:inline;fill:none;fill-opacity:1;stroke:#000000;stroke-width:0.264999;stroke-linecap:round;stroke-linejoin:round;stroke-miterlimit:4;stroke-dasharray:none;stroke-opacity:1"
         inkscape:transform-center-x="-0.87300908"
         inkscape:transform-center-y="-0.87300921"
         d="M 2.4826098,3.8517029 A 1.1469458,0.66132992 45 0 0 2.1256211,3.9770175 L 1.917641,5.2828167 A 0.45779191,0.45779191 0 0 0 2.4415403,5.806716 L 3.7473393,5.5987357 A 1.1469458,0.66132992 45 0 0 3.746813,4.7884032 1.1469458,0.66132992 45 0 0 2.9359538,3.977544 1.1469458,0.66132992 45 0 0 2.4826098,3.8517029 Z" />
      <path
         id="rect2900"
         style="display:inline;fill:url(#linearGradient2907);fill-opacity:1;stroke:none;stroke-width:0.264999;stroke-linecap:round;stroke-linejoin:round;stroke-miterlimit:4;stroke-dasharray:none;stroke-opacity:0.984314"
         d="m 8.0985825,-4.0463031 -5.5797733,5.5797733 -0.00512,0.00512 -0.3880626,2.43873 -0.2079169,1.3056013 a 0.45779189,0.45779189 0 0 0 0.00621,0.1742992 0.45768334,0.45768334 0 0 0 0.00694,0.028136 0.45779189,0.45779189 0 0 0 0.081121,0.1549328 0.45768334,0.45768334 0 0 0 0.039464,0.043118 0.45779189,0.45779189 0 0 0 0.1191229,0.083313 0.45768334,0.45768334 0 0 0 0.026675,0.012058 0.45779189,0.45779189 0 0 0 0.055542,0.01827 0.45768334,0.45768334 0 0 0 0.086602,0.014251 0.45779189,0.45779189 0 0 0 0.028867,0.0011 0.45768334,0.45768334 0 0 0 7.309e-4,-2e-7 0.45779189,0.45779189 0 0 0 0.057735,-0.00365 0.45768334,0.45768334 0 0 0 7.308e-4,0 0.45779189,0.45779189 0 0 0 0.014251,-0.00183 L 3.7473095,5.5989947 6.1856739,5.2105664 11.770563,-0.37432267 Z" />
    </g>
  </g>
</svg>
