<svg xmlns="http://www.w3.org/2000/svg" viewBox="0 0 24 24" baseProfile="tiny"><path fill="none" d="M0 0h24v24H0z"/><path d="M171.618 219.088l6.347-6.766h.418l5.282-5.282 11.295 11.295-12.048 12.047-13.919 5.048c-.389.233-1.78.714-2.214.803-.155.032-.37-.019-.466-.109-.08-.074-.133-.32-.11-.427.097-.436.546-1.935.765-2.345l4.65-14.264zm-3.989 14.158l.034.003.021.002.01.001c.3.034.577.153.809.346l.006.004c.268.205.464.518.55.973l.054.264c0-.821-.621-1.499-1.419-1.587l-.006-.001h-.004l-.012-.002h-.009l-.006-.001-.013-.001-.011-.001h-.004l-.036-.002.036.002zm-.044-.003l.007.001-.005-.001h-.002zm-.009 0h.006-.006zm-.009 0h.005-.005l-.004-.001.004.001zm-.013-.001h.004-.004zm-.01 0h.004-.004zm-.009 0h.003-.003zm-.01 0h.003-.003z" fill="#934e44" stroke="#d1924a" stroke-width="1.05" transform="matrix(.97349 0 0 .92457 -158.791 -196.422)"/><path d="M85.883 8.61l3.319 6.529c-2.416 6.108-4.998 6.657-7.797 0l3.062-6.547.163.245a.778.778 0 0 0 1.102 0l.151-.227z" fill="url(#_Linear2)" transform="scale(-1.87282 -1.7787) rotate(45 64.889 -107.5)"/><path d="M5.846 18.987c.244.178.425.45.502.845l.05.229s.038.339-.101.491l-.009.022c-.355.202-1.627.62-2.024.698-.141.027-.338-.018-.425-.095-.073-.064-.123-.279-.101-.371.088-.378.499-1.68.699-2.036.08-.143.5-.096.5-.096.339 0 .65.11.903.31l.006.003z" fill="#2a281d"/><path d="M4.776 18.98l-.227.576-.132.338-.13.337-.114.306-.049.134-.04.116-.033.095-.021.07-.007.024-.003.017-.001.001.003.002-.018.025-.002.001H3.993l-.004-.002-.003-.002-.002-.001-.003-.003-.002-.003-.001-.002-.001-.003-.001-.002V20.986l.003-.02.007-.026.02-.072.027-.097.037-.118.043-.137.1-.312.112-.343.112-.346.186-.589.105-.049.048.104zm-.758 2.013l-.001-.004L4 20.982l.017.011z" fill="#e4e3df"/><path d="M18.388 122.221l-.087-.086 1.351-6.656-.136.029-.007.007-6.469 1.358L19 110.52l5.354-4.96 10.606 10.606-11.314 11.314 1.42-6.587-6.678 1.328z" fill="url(#_Linear3)" transform="matrix(.97349 0 0 .92457 -4.007 -101.673)"/><defs><linearGradient id="_Linear2" x2="1" gradientUnits="userSpaceOnUse" gradientTransform="matrix(-7.3111 0 0 -7.3111 88.862 14.324)"><stop offset="0" stop-color="#fdf2d5"/><stop offset=".5" stop-color="#e4d2a8"/><stop offset="1" stop-color="#9d7827"/></linearGradient><linearGradient id="_Linear3" x2="1" gradientUnits="userSpaceOnUse" gradientTransform="rotate(45 -125.33 78.05) scale(14.06523)"><stop offset="0" stop-color="#fee577"/><stop offset="1" stop-color="#bf7439"/></linearGradient></defs></svg>