<svg xmlns="http://www.w3.org/2000/svg" viewBox="0 0 24 24" baseProfile="tiny"><path fill="none" d="M0 0h24v24H0z"/><path fill="url(#_Linear1)" d="M268 80h3v2h-3z" transform="translate(-261 -78)"/><path fill="url(#_Linear2)" d="M268 80h3v2h-3z" transform="translate(-257 -78)"/><path fill="url(#_Linear3)" d="M268 80h3v2h-3z" transform="translate(-253 -78)"/><path fill="url(#_Linear4)" d="M268 80h3v2h-3z" transform="translate(-261 -60)"/><path fill="url(#_Linear5)" d="M268 80h3v2h-3z" transform="translate(-257 -60)"/><path fill="url(#_Linear6)" d="M268 80h3v2h-3z" transform="translate(-253 -60)"/><path d="M300.199 137h2v4h2v2h-4v-6z" fill="url(#_Linear7)" transform="translate(-298.199 -121)"/><path fill="url(#_Linear8)" d="M268 80h3v2h-3z" transform="rotate(-90 100.5 178.5)"/><path fill="url(#_Linear9)" d="M268 80h3v2h-3z" transform="rotate(-90 102.5 180.5)"/><path d="M320.199 141v2h-3v-2h1v-4h2v4z" fill="url(#_Linear10)" transform="translate(-298.199 -121)"/><path fill="url(#_Linear11)" d="M268 80h3v2h-3z" transform="rotate(-90 111.5 171.5)"/><path fill="url(#_Linear12)" d="M268 80h3v2h-3z" transform="rotate(-90 109.5 169.5)"/><path d="M317.199 123h3v5h-2v-3h-1v-2z" fill="url(#_Linear13)" transform="translate(-298.199 -121)"/><path d="M302.199 125v3h-2v-3h-2v-2h2v-2h2v2h2v2h-2z" fill="url(#_Linear14)" transform="translate(-298.199 -121)"/><defs><linearGradient id="_Linear1" x2="1" gradientUnits="userSpaceOnUse" gradientTransform="matrix(-6 -28 28 -6 273 107)"><stop offset="0" stop-color="#009fe3"/><stop offset="1" stop-color="#00608f"/></linearGradient><linearGradient id="_Linear2" x2="1" gradientUnits="userSpaceOnUse" gradientTransform="matrix(-6 -28 28 -6 269 107)"><stop offset="0" stop-color="#009fe3"/><stop offset="1" stop-color="#00608f"/></linearGradient><linearGradient id="_Linear3" x2="1" gradientUnits="userSpaceOnUse" gradientTransform="matrix(-6 -28 28 -6 265 107)"><stop offset="0" stop-color="#009fe3"/><stop offset="1" stop-color="#00608f"/></linearGradient><linearGradient id="_Linear4" x2="1" gradientUnits="userSpaceOnUse" gradientTransform="matrix(-6 -28 28 -6 273 89)"><stop offset="0" stop-color="#009fe3"/><stop offset="1" stop-color="#00608f"/></linearGradient><linearGradient id="_Linear5" x2="1" gradientUnits="userSpaceOnUse" gradientTransform="matrix(-6 -28 28 -6 269 89)"><stop offset="0" stop-color="#009fe3"/><stop offset="1" stop-color="#00608f"/></linearGradient><linearGradient id="_Linear6" x2="1" gradientUnits="userSpaceOnUse" gradientTransform="matrix(-6 -28 28 -6 265 89)"><stop offset="0" stop-color="#009fe3"/><stop offset="1" stop-color="#00608f"/></linearGradient><linearGradient id="_Linear7" x2="1" gradientUnits="userSpaceOnUse" gradientTransform="matrix(-6 -28 28 -6 310.199 150)"><stop offset="0" stop-color="#009fe3"/><stop offset="1" stop-color="#00608f"/></linearGradient><linearGradient id="_Linear8" x2="1" gradientUnits="userSpaceOnUse" gradientTransform="matrix(28 -6 6 28 250 90)"><stop offset="0" stop-color="#009fe3"/><stop offset="1" stop-color="#00608f"/></linearGradient><linearGradient id="_Linear9" x2="1" gradientUnits="userSpaceOnUse" gradientTransform="matrix(28 -6 6 28 254 90)"><stop offset="0" stop-color="#009fe3"/><stop offset="1" stop-color="#00608f"/></linearGradient><linearGradient id="_Linear10" x2="1" gradientUnits="userSpaceOnUse" gradientTransform="matrix(-6 -28 28 -6 310.199 150)"><stop offset="0" stop-color="#009fe3"/><stop offset="1" stop-color="#00608f"/></linearGradient><linearGradient id="_Linear11" x2="1" gradientUnits="userSpaceOnUse" gradientTransform="matrix(28 -6 6 28 254 72)"><stop offset="0" stop-color="#009fe3"/><stop offset="1" stop-color="#00608f"/></linearGradient><linearGradient id="_Linear12" x2="1" gradientUnits="userSpaceOnUse" gradientTransform="matrix(28 -6 6 28 250 72)"><stop offset="0" stop-color="#009fe3"/><stop offset="1" stop-color="#00608f"/></linearGradient><linearGradient id="_Linear13" x2="1" gradientUnits="userSpaceOnUse" gradientTransform="matrix(-6 -28 28 -6 310.199 150)"><stop offset="0" stop-color="#009fe3"/><stop offset="1" stop-color="#00608f"/></linearGradient><linearGradient id="_Linear14" x2="1" gradientUnits="userSpaceOnUse" gradientTransform="matrix(-6 -28 28 -6 310.199 150)"><stop offset="0" stop-color="#009fe3"/><stop offset="1" stop-color="#00608f"/></linearGradient></defs></svg>