<?xml version="1.0"?>
<!-- Converted with SVG Converter - Version 0.9.6 (Compiled Thu Aug 31 04:01:04 2017) - Copyright (C) 2011 Nokia -->
<svg xmlns="http://www.w3.org/2000/svg" version="1.1" xmlns:xlink="http://www.w3.org/1999/xlink" height="100%" width="100%" baseProfile="tiny" xml:space="preserve" viewBox="0 0 24 24">
 <g transform="matrix(1,0,0,1,-274,-181)">
  <g transform="matrix(1,0,0,1,36,128)">
   <g id="flat_outlined">
    <rect style="fill:none;" id="smudge-flat_outline" y="53" x="238" height="24" width="24"/>
    <g>
     <g transform="matrix(0.992464,2.58425e-17,-2.67751e-17,0.968744,2.5168,-21.2723)">
      <path style="fill:none;stroke:rgb(98,43,36);stroke-width:2.12px;" d="M247.347,92.153C246.535,93.978 244.801,97.549 244.158,98.891C243.234,100.817 246.457,101.139 247.347,99.378C247.546,98.859 249.049,95.86 249.363,95.249C250.016,93.979 250.348,93.71 250.484,93.948C250.529,93.829 252.359,94.579 253.363,93.143C253.867,92.145 255.689,89.692 255.832,89.513C256.482,88.695 257.132,88.09 257.448,86.991C258.301,84.876 258.671,82.387 257.423,80.798C256.752,79.943 255.404,79.16 254.4,78.733C253.535,78.365 252.368,77.761 251.421,77.701C250.246,77.627 249.16,79.473 247.347,81.869C246.363,82.784 245.006,86.301 244.96,86.566C244.933,86.716 244.38,87.808 244.325,88.024C244.283,89.238 245.016,89.104 245.25,89.619C245.396,89.938 245.181,90.812 245.332,91.12C245.755,91.985 246.176,92.148 246.367,92.153"/>
      <path style="fill:rgb(227,172,155);" d="M247.347,92.153C246.535,93.978 244.801,97.549 244.158,98.891C243.234,100.817 246.457,101.139 247.347,99.378C247.546,98.859 249.049,95.86 249.363,95.249C250.016,93.979 250.348,93.71 250.484,93.948C250.529,93.829 252.359,94.579 253.363,93.143C253.867,92.145 255.689,89.692 255.832,89.513C256.482,88.695 257.132,88.09 257.448,86.991C258.301,84.876 258.671,82.387 257.423,80.798C256.752,79.943 255.404,79.16 254.4,78.733C253.535,78.365 252.368,77.761 251.421,77.701C250.246,77.627 249.16,79.473 247.347,81.869C246.363,82.784 245.006,86.301 244.96,86.566C244.933,86.716 244.38,87.808 244.325,88.024C244.283,89.238 245.016,89.104 245.25,89.619C245.396,89.938 245.181,90.812 245.332,91.12C245.755,91.985 246.176,92.148 246.367,92.153"/>
     </g>
     <g transform="matrix(0.986567,-5.68173e-33,5.91113e-33,1.03843,3.56967,-30.9949)">
      <path style="fill:rgb(199,140,132);stroke:rgb(98,43,36);stroke-width:0.41px;" d="M245.616,92.951C245.873,92.207 246.646,90.79 246.736,90.662"/>
     </g>
     <g transform="matrix(0.957602,0,0,0.92044,12.8053,-19.3605)">
      <path style="fill:none;stroke:rgb(98,43,36);stroke-width:0.44px;" d="M244.396,96.916C245.156,95.499 246.767,91.905 246.945,91.652"/>
     </g>
     <g transform="matrix(2.1689,0,0,1.2523,97.7811,-151.638)">
      <path style="fill:url(#_Linear2);" d="M70.563,176.828C70.697,176.245 70.884,175.678 71.105,175.391C71.739,174.563 72.296,174.168 72.488,174.589C72.488,174.589 72.215,175.557 72.027,176.186C71.595,177.231 70.685,176.779 70.563,176.828Z"/>
     </g>
    </g>
   </g>
  </g>
 </g>
 <defs>
  <linearGradient y2="0" gradientTransform="matrix(0.440918,0.446398,-0.257746,0.76364,71.1249,175.74)" x2="1" y1="0" id="_Linear2" x1="0" gradientUnits="userSpaceOnUse">
   <stop style="stop-color:rgb(148,78,69);stop-opacity:1" offset="0.0"/>
   <stop style="stop-color:rgb(157,89,80);stop-opacity:0.819608" offset="0.6"/>
   <stop style="stop-color:rgb(178,114,105);stop-opacity:0.411765" offset="0.8"/>
   <stop style="stop-color:rgb(199,139,130);stop-opacity:0" offset="1.0"/>
  </linearGradient>
 </defs>
</svg>
