<svg viewBox="0 0 26 24" xmlns="http://www.w3.org/2000/svg" xml:space="preserve" fill-rule="evenodd" clip-rule="evenodd" stroke-linecap="round" stroke-linejoin="round" stroke-miterlimit="1.5"><path fill="none" d="M0 0h26v24H0z"/><path fill="#fff" stroke="#404040" stroke-width=".9967463999999999" d="m10.085 2.425 12.048 12.048-7.831 7.831L2.254 10.256z"/><circle cx="52.5" cy="62.5" r="2.5" fill="#404040" transform="scale(.85192) rotate(45 106.42 -1.34)"/><circle cx="52.5" cy="62.5" r="2.5" fill="#fff" transform="rotate(45 56.006 9.805) scale(.51115)"/><path fill="#404040" d="m18.518 5.437.602.602-2.71 2.711-.603-.602z"/><g><path d="m7.974 10.039 2.883-1.802v3.604l-2.883-1.802Z" fill="#404040"/><path d="M10.854 10.301c2.413-.092 3.435 1.064 3.41 3.41h.697c.028-2.85-1.233-4.174-4.115-4.115l.008.705Z" fill="#404040"/><path d="M14.519 16.584 12.717 13.7h3.604l-1.802 2.884Z" fill="#404040"/></g></svg>