<?xml version="1.0" encoding="UTF-8" standalone="no"?>
<!DOCTYPE svg PUBLIC "-//W3C//DTD SVG 1.1//EN" "http://www.w3.org/Graphics/SVG/1.1/DTD/svg11.dtd">
<svg width="100%" height="100%" viewBox="0 0 26 24" version="1.1" xmlns="http://www.w3.org/2000/svg" xmlns:xlink="http://www.w3.org/1999/xlink" xml:space="preserve" xmlns:serif="http://www.serif.com/" style="fill-rule:evenodd;clip-rule:evenodd;stroke-linejoin:round;stroke-miterlimit:1.5;">
    <g id="Artboard1" transform="matrix(1.22512,0,0,1.19088,0,0)">
        <rect x="0" y="0" width="21.222" height="20.013" style="fill:none;"/>
        <g clip-path="url(#_clip1)">
            <g transform="matrix(0.799408,0.474806,-0.448641,0.799408,8.25038,-5.44543)">
                <g transform="matrix(0.884268,0,0,0.909688,9.99201e-16,4.54844)">
                    <path d="M5.605,17.605L5.605,15.395L2.395,15.395L2.395,17.605L5.605,17.605Z" style="fill:rgb(122,122,122);"/>
                </g>
                <g transform="matrix(0.884268,0,0,0.909688,3.53707,4.54844)">
                    <path d="M5.605,17.605L5.605,15.395L2.395,15.395L2.395,17.605L5.605,17.605Z" style="fill:rgb(122,122,122);"/>
                </g>
                <g transform="matrix(0.884268,0,0,0.909688,7.07414,4.54844)">
                    <path d="M5.605,17.605L5.605,15.395L2.395,15.395L2.395,17.605L5.605,17.605Z" style="fill:rgb(122,122,122);"/>
                </g>
                <g transform="matrix(0.884268,0,0,0.909688,10.6112,4.54844)">
                    <path d="M5.605,17.605L5.605,15.395L2.395,15.395L2.395,17.605L5.605,17.605Z" style="fill:rgb(122,122,122);"/>
                </g>
                <g transform="matrix(0.884268,1.11022e-16,2.77556e-17,0.909688,14.1483,4.54844)">
                    <path d="M5.605,17.605L5.605,15.395L2.395,15.395L2.395,17.605L5.605,17.605Z" style="fill:rgb(122,122,122);"/>
                </g>
                <g transform="matrix(0.884268,0,0,0.909688,3.53707,-7.27751)">
                    <path d="M5.605,17.605L5.605,15.395L2.395,15.395L2.395,17.605L5.605,17.605Z" style="fill:rgb(122,122,122);"/>
                </g>
                <g transform="matrix(0.884268,0,0,0.909688,4.44089e-16,-7.27751)">
                    <path d="M5.605,17.605L5.605,15.395L2.395,15.395L2.395,17.605L5.605,17.605Z" style="fill:rgb(122,122,122);"/>
                </g>
                <g transform="matrix(0.884268,0,0,0.909688,7.07414,-7.27751)">
                    <path d="M5.605,17.605L5.605,15.395L2.395,15.395L2.395,17.605L5.605,17.605Z" style="fill:rgb(122,122,122);"/>
                </g>
                <g transform="matrix(0.884268,0,0,0.909688,10.6112,-7.27751)">
                    <path d="M5.605,17.605L5.605,15.395L2.395,15.395L2.395,17.605L5.605,17.605Z" style="fill:rgb(122,122,122);"/>
                </g>
                <g transform="matrix(0.884268,1.11022e-16,2.77556e-17,0.909688,14.1483,-7.27751)">
                    <path d="M5.605,17.605L5.605,15.395L2.395,15.395L2.395,17.605L5.605,17.605Z" style="fill:rgb(122,122,122);"/>
                </g>
                <g transform="matrix(1.85842e-19,0.909688,-0.884268,-1.4046e-18,32.7179,10.0066)">
                    <path d="M5.605,17.605L5.605,15.395L2.395,15.395L2.395,17.605L5.605,17.605Z" style="fill:rgb(122,122,122);"/>
                </g>
                <g transform="matrix(1.85842e-19,0.909688,-0.884268,-1.4046e-18,32.7179,13.6453)">
                    <path d="M5.605,17.605L5.605,15.395L2.395,15.395L2.395,17.605L5.605,17.605Z" style="fill:rgb(122,122,122);"/>
                </g>
                <g transform="matrix(1.85842e-19,0.909688,-0.884268,-1.4046e-18,32.7179,6.36782)">
                    <path d="M5.605,17.605L5.605,15.395L2.395,15.395L2.395,17.605L5.605,17.605Z" style="fill:rgb(122,122,122);"/>
                </g>
                <g transform="matrix(1.85842e-19,0.909688,-0.884268,-1.4046e-18,17.6854,10.0066)">
                    <path d="M5.605,17.605L5.605,15.395L2.395,15.395L2.395,17.605L5.605,17.605Z" style="fill:rgb(122,122,122);"/>
                </g>
                <g transform="matrix(1.85842e-19,0.909688,-0.884268,-1.4046e-18,17.6854,13.6453)">
                    <path d="M5.605,17.605L5.605,15.395L2.395,15.395L2.395,17.605L5.605,17.605Z" style="fill:rgb(122,122,122);"/>
                </g>
                <g transform="matrix(1.85842e-19,0.909688,-0.884268,-1.4046e-18,17.6854,6.36782)">
                    <path d="M5.605,17.605L5.605,15.395L2.395,15.395L2.395,17.605L5.605,17.605Z" style="fill:rgb(122,122,122);"/>
                </g>
            </g>
            <g transform="matrix(0.799408,0.474806,-0.448641,0.799408,8.25038,-5.44543)">
                <g transform="matrix(0.884268,0,0,0.909688,9.99201e-16,4.54844)">
                    <rect x="3" y="16" width="2" height="1" style="fill:white;"/>
                </g>
                <g transform="matrix(0.884268,0,0,0.909688,3.53707,4.54844)">
                    <rect x="3" y="16" width="2" height="1" style="fill:white;"/>
                </g>
                <g transform="matrix(0.884268,0,0,0.909688,7.07414,4.54844)">
                    <rect x="3" y="16" width="2" height="1" style="fill:white;"/>
                </g>
                <g transform="matrix(0.884268,0,0,0.909688,10.6112,4.54844)">
                    <rect x="3" y="16" width="2" height="1" style="fill:white;"/>
                </g>
                <g transform="matrix(0.884268,1.11022e-16,2.77556e-17,0.909688,14.1483,4.54844)">
                    <rect x="3" y="16" width="2" height="1" style="fill:white;"/>
                </g>
                <g transform="matrix(0.884268,0,0,0.909688,3.53707,-7.27751)">
                    <rect x="3" y="16" width="2" height="1" style="fill:white;"/>
                </g>
                <g transform="matrix(0.884268,0,0,0.909688,4.44089e-16,-7.27751)">
                    <rect x="3" y="16" width="2" height="1" style="fill:white;"/>
                </g>
                <g transform="matrix(0.884268,0,0,0.909688,7.07414,-7.27751)">
                    <rect x="3" y="16" width="2" height="1" style="fill:white;"/>
                </g>
                <g transform="matrix(0.884268,0,0,0.909688,10.6112,-7.27751)">
                    <rect x="3" y="16" width="2" height="1" style="fill:white;"/>
                </g>
                <g transform="matrix(0.884268,1.11022e-16,2.77556e-17,0.909688,14.1483,-7.27751)">
                    <rect x="3" y="16" width="2" height="1" style="fill:white;"/>
                </g>
                <g transform="matrix(1.85842e-19,0.909688,-0.884268,-1.4046e-18,32.7179,10.0066)">
                    <rect x="3" y="16" width="2" height="1" style="fill:white;"/>
                </g>
                <g transform="matrix(1.85842e-19,0.909688,-0.884268,-1.4046e-18,32.7179,13.6453)">
                    <rect x="3" y="16" width="2" height="1" style="fill:white;"/>
                </g>
                <g transform="matrix(1.85842e-19,0.909688,-0.884268,-1.4046e-18,32.7179,6.36782)">
                    <rect x="3" y="16" width="2" height="1" style="fill:white;"/>
                </g>
                <g transform="matrix(1.85842e-19,0.909688,-0.884268,-1.4046e-18,17.6854,10.0066)">
                    <rect x="3" y="16" width="2" height="1" style="fill:white;"/>
                </g>
                <g transform="matrix(1.85842e-19,0.909688,-0.884268,-1.4046e-18,17.6854,13.6453)">
                    <rect x="3" y="16" width="2" height="1" style="fill:white;"/>
                </g>
                <g transform="matrix(1.85842e-19,0.909688,-0.884268,-1.4046e-18,17.6854,6.36782)">
                    <rect x="3" y="16" width="2" height="1" style="fill:white;"/>
                </g>
            </g>
            <g id="rotate-icon" serif:id="rotate icon" transform="matrix(0.816247,0,0,0.839712,-1928.27,-372.04)">
                <g transform="matrix(1.33333,0,0,1.33333,-2539.33,-149.667)">
                    <circle cx="3680.5" cy="450.5" r="1.725" style="fill:rgb(122,122,122);stroke:rgb(122,122,122);stroke-width:1px;"/>
                </g>
                <g transform="matrix(1.33333,0,0,1.33333,-2539.33,-149.667)">
                    <circle cx="3680.5" cy="450.5" r="1.5" style="fill:white;"/>
                </g>
            </g>
            <g id="rotate-icon1" serif:id="rotate icon" transform="matrix(0.816247,0,0,0.839712,-1916.25,-364.64)">
                <g transform="matrix(1.33333,0,0,1.33333,-2539.33,-149.667)">
                    <circle cx="3680.5" cy="450.5" r="1.725" style="fill:rgb(122,122,122);stroke:rgb(122,122,122);stroke-width:1px;"/>
                </g>
                <g transform="matrix(1.33333,0,0,1.33333,-2539.33,-149.667)">
                    <circle cx="3680.5" cy="450.5" r="1.5" style="fill:white;"/>
                </g>
            </g>
        </g>
    </g>
</svg>
