<?xml version="1.0" encoding="UTF-8" standalone="no"?>
<!DOCTYPE svg PUBLIC "-//W3C//DTD SVG 1.1//EN" "http://www.w3.org/Graphics/SVG/1.1/DTD/svg11.dtd">
<svg width="100%" height="100%" viewBox="0 0 26 24" version="1.1" xmlns="http://www.w3.org/2000/svg" xmlns:xlink="http://www.w3.org/1999/xlink" xml:space="preserve" xmlns:serif="http://www.serif.com/" style="fill-rule:evenodd;clip-rule:evenodd;stroke-linejoin:round;stroke-miterlimit:2;">
    <g transform="matrix(1,0,0,1,-101,-87)">
        <g id="Artboard4" transform="matrix(1,0,0,1,-59.6667,87)">
            <g transform="matrix(1,0,0,1,-8.72841,-0.000680996)">
                <g transform="matrix(1.25,0,0,1.25,-4500.09,-561.75)">
                    <circle cx="3739" cy="459" r="2.591" style="fill:rgb(84,84,84);"/>
                </g>
                <g transform="matrix(1.25,0,0,1.25,-4500.09,-561.75)">
                    <circle cx="3739" cy="459" r="2" style="fill:white;"/>
                </g>
            </g>
            <g transform="matrix(1,0,0,1,8.69281,-0.000680996)">
                <g transform="matrix(1.25,0,0,1.25,-4500.09,-561.75)">
                    <circle cx="3739" cy="459" r="2.591" style="fill:rgb(84,84,84);"/>
                </g>
                <g transform="matrix(1.25,0,0,1.25,-4500.09,-561.75)">
                    <circle cx="3739" cy="459" r="2" style="fill:white;"/>
                </g>
            </g>
            <g>
                <g transform="matrix(1.4136,0,3.46945e-16,1.3741,158.667,-6.74985)">
                    <g transform="matrix(0.652481,0,-5.85237e-17,0.909688,1.28085,4.54844)">
                        <rect x="2.474" y="15.474" width="3.052" height="2.052" style="fill:white;"/>
                    </g>
                    <g transform="matrix(1.174,0,7.31548e-17,0.909688,1.936,4.54844)">
                        <rect x="2.474" y="15.474" width="3.052" height="2.052" style="fill:white;"/>
                    </g>
                    <g transform="matrix(0.884268,0,0,0.909688,7.07414,4.54844)">
                        <rect x="2.474" y="15.474" width="3.052" height="2.052" style="fill:white;"/>
                    </g>
                    <g transform="matrix(0.884268,0,0,0.909688,3.53707,-7.27751)">
                        <rect x="2.474" y="15.474" width="3.052" height="2.052" style="fill:white;"/>
                    </g>
                    <g transform="matrix(0.942215,0,1.46311e-17,0.909688,0.564052,-7.27751)">
                        <rect x="2.474" y="15.474" width="3.052" height="2.052" style="fill:white;"/>
                    </g>
                    <g transform="matrix(0.884268,0,0,0.909688,7.07414,-7.27751)">
                        <rect x="2.474" y="15.474" width="3.052" height="2.052" style="fill:white;"/>
                    </g>
                    <g transform="matrix(1.85842e-19,0.909688,-0.884268,-1.4046e-18,18.3928,14.373)">
                        <rect x="2.474" y="15.474" width="3.052" height="2.052" style="fill:white;"/>
                    </g>
                    <g transform="matrix(-2.25829e-18,0.828019,-0.884268,2.18564e-17,18.3928,6.13867)">
                        <rect x="2.474" y="15.474" width="3.052" height="2.052" style="fill:white;"/>
                    </g>
                </g>
                <g transform="matrix(-1.4136,0,-3.46945e-16,1.3741,188.667,-6.74985)">
                    <g transform="matrix(0.652481,0,-5.85237e-17,0.909688,1.28085,4.54844)">
                        <rect x="2.474" y="15.474" width="3.052" height="2.052" style="fill:white;"/>
                    </g>
                    <g transform="matrix(1.174,0,7.31548e-17,0.909688,1.936,4.54844)">
                        <rect x="2.474" y="15.474" width="3.052" height="2.052" style="fill:white;"/>
                    </g>
                    <g transform="matrix(0.884268,0,0,0.909688,7.07414,4.54844)">
                        <rect x="2.474" y="15.474" width="3.052" height="2.052" style="fill:white;"/>
                    </g>
                    <g transform="matrix(0.884268,0,0,0.909688,3.53707,-7.27751)">
                        <rect x="2.474" y="15.474" width="3.052" height="2.052" style="fill:white;"/>
                    </g>
                    <g transform="matrix(0.942215,0,1.46311e-17,0.909688,0.564052,-7.27751)">
                        <rect x="2.474" y="15.474" width="3.052" height="2.052" style="fill:white;"/>
                    </g>
                    <g transform="matrix(0.884268,0,0,0.909688,7.07414,-7.27751)">
                        <rect x="2.474" y="15.474" width="3.052" height="2.052" style="fill:white;"/>
                    </g>
                    <g transform="matrix(1.85842e-19,0.909688,-0.884268,-1.4046e-18,18.3928,14.373)">
                        <rect x="2.474" y="15.474" width="3.052" height="2.052" style="fill:white;"/>
                    </g>
                    <g transform="matrix(-2.25829e-18,0.828019,-0.884268,2.18564e-17,18.3928,6.13867)">
                        <rect x="2.474" y="15.474" width="3.052" height="2.052" style="fill:white;"/>
                    </g>
                </g>
            </g>
            <g transform="matrix(1.4136,0,3.46945e-16,1.3741,158.667,-6.74985)">
                <g transform="matrix(1.76854,0,2.23268e-16,0.909688,-1.94539,4.54844)">
                    <rect x="3" y="16" width="2" height="1" style="fill:rgb(84,84,84);"/>
                </g>
                <g transform="matrix(0.884268,0,0,0.909688,3.53707,4.54844)">
                    <rect x="3" y="16" width="2" height="1" style="fill:rgb(84,84,84);"/>
                </g>
                <g transform="matrix(0.884268,0,0,0.909688,7.07414,4.54844)">
                    <rect x="3" y="16" width="2" height="1" style="fill:rgb(84,84,84);"/>
                </g>
                <g transform="matrix(0.884268,0,0,0.909688,7.07414,-7.27751)">
                    <rect x="3" y="16" width="2" height="1" style="fill:rgb(84,84,84);"/>
                </g>
                <g transform="matrix(7.34591e-18,1.14894,-0.884268,-6.95474e-17,18.3928,13.6553)">
                    <rect x="3" y="16" width="2" height="1" style="fill:rgb(84,84,84);"/>
                </g>
                <g transform="matrix(0.707413,0,-1.78614e-16,0.727749,-70.034,-58.402)">
                    <path d="M105,91.5L110.25,91.5L110.25,90.25L103.75,90.25L103.75,94.25L105,94.25L105,91.5Z" style="fill:rgb(84,84,84);"/>
                </g>
                <g transform="matrix(0.707413,0,-1.78614e-16,0.727749,-70.034,-58.402)">
                    <path d="M117.75,107.75L117.75,106.5L123,106.5L123,103.75L124.25,103.75L124.25,107.75L117.75,107.75Z" style="fill:rgb(84,84,84);"/>
                </g>
                <g transform="matrix(0.707413,0,-1.78614e-16,0.727749,-70.034,-58.402)">
                    <path d="M124.25,94.25L123,94.25L123,91.5L117.75,91.5L117.75,90.25L124.25,90.25L124.25,94.25Z" style="fill:rgb(84,84,84);"/>
                </g>
            </g>
        </g>
    </g>
</svg>
