<svg viewBox="0 0 26 24" xmlns="http://www.w3.org/2000/svg" xml:space="preserve" fill-rule="evenodd" clip-rule="evenodd" stroke-linecap="round" stroke-linejoin="round" stroke-miterlimit="1.5"><path fill="none" d="M0 0h26v24H0z"/><path fill="#fff" stroke="#404040" stroke-width="1.18" d="M41 65h20v13H41z" transform="matrix(.8496 0 0 .84386 -30.32 -48.37)"/><path fill="#fff" stroke="#404040" stroke-width=".52" d="M77.75 61.26H81V64h-3.25z" transform="matrix(1.27649 0 0 1.51199 -96.8 -88.2)"/><path fill="#fff" stroke="#404040" stroke-width=".57" d="M77.75 61.26H81V64h-3.25z" transform="matrix(1.27649 0 0 1.51199 -96.8 -77.24)"/><path fill="#fff" stroke="#404040" stroke-width=".57" d="M77.75 61.26H81V64h-3.25z" transform="matrix(1.27649 0 0 1.51199 -79.82 -77.24)"/><path fill="#fff" stroke="#404040" stroke-width=".57" d="M77.75 61.26H81V64h-3.25z" transform="matrix(1.27649 0 0 1.51199 -79.82 -88.2)"/><path fill="#404040" d="m11.34 9.66 3.87 3.88-.55.55-3.87-3.87z"/><path d="m9.4 8.28 3.32 1.1-2.21 2.22-1.1-3.32Z" fill="#404040"/><g><path d="m16.6 15.47-3.32-1.1 2.2-2.22 1.12 3.32Z" fill="#404040"/></g><g><path fill="#404040" d="m15.21 10.22-3.87 3.87-.55-.55 3.87-3.88z"/></g><g><path d="m16.6 8.28-1.11 3.32-2.21-2.21 3.32-1.1Z" fill="#404040"/></g><g><path d="m9.4 15.47 1.11-3.32 2.21 2.22-3.32 1.1Z" fill="#404040"/></g></svg>