<?xml version="1.0" encoding="UTF-8" standalone="no"?>
<!DOCTYPE svg PUBLIC "-//W3C//DTD SVG 1.1//EN" "http://www.w3.org/Graphics/SVG/1.1/DTD/svg11.dtd">
<svg width="100%" height="100%" viewBox="0 0 24 22" version="1.1" xmlns="http://www.w3.org/2000/svg" xmlns:xlink="http://www.w3.org/1999/xlink" xml:space="preserve" xmlns:serif="http://www.serif.com/" style="fill-rule:evenodd;clip-rule:evenodd;stroke-linejoin:round;stroke-miterlimit:1.5;">
    <g id="Artboard1" transform="matrix(1.20348,0,0,1.20348,0,0)">
        <rect x="0" y="0" width="19.658" height="17.737" style="fill:none;"/>
        <g transform="matrix(-1.00585,0,0,1.00585,1002.31,-408.058)">
            <g transform="matrix(0.923077,0,0,1,75.5385,-1)">
                <path d="M988.5,408.588C991.845,408.588 994.652,410.949 995.304,414.102C995.397,414.553 995.446,415.021 995.446,415.5C995.446,419.324 992.324,422.412 988.5,422.412C984.823,422.412 981.794,419.556 981.567,415.936L982.459,415.888C982.657,419.059 985.279,421.588 988.5,421.588C991.851,421.588 994.554,418.851 994.554,415.5C994.554,415.074 994.51,414.658 994.427,414.256C993.857,411.499 991.425,409.412 988.5,409.412L988.5,408.588Z" style="fill:none;stroke:rgb(122,122,122);stroke-width:1.83px;"/>
            </g>
            <g transform="matrix(1.5,0,0,1.28571,-489.5,-118.429)">
                <path d="M980.983,410.68L981,410.679C981.092,410.679 981.178,410.733 981.229,410.822L983.229,414.322C983.285,414.421 983.29,414.547 983.242,414.651C983.194,414.755 983.101,414.821 983,414.821L979,414.821C978.899,414.821 978.806,414.755 978.758,414.651C978.71,414.547 978.715,414.421 978.771,414.322L980.771,410.822C980.819,410.739 980.898,410.686 980.983,410.68ZM981,414.179L982.487,414.179C982.487,414.179 981,411.578 981,411.578C981,411.578 979.513,414.179 979.513,414.179C979.513,414.179 981,414.179 981,414.179Z" style="fill:none;stroke:rgb(122,122,122);stroke-width:0.79px;"/>
            </g>
        </g>
        <g transform="matrix(-1.00585,0,0,1.00585,1002.31,-408.058)">
            <g transform="matrix(0.923077,0,0,1,75.5385,-1)">
                <path d="M988.5,409C991.635,409 994.254,411.224 994.865,414.179C994.954,414.606 995,415.047 995,415.5C995,419.087 992.087,422 988.5,422C984.913,422 982,419.087 982,415.5" style="fill:none;stroke:white;stroke-width:1.72px;"/>
            </g>
            <g transform="matrix(1.5,0,0,1.28571,-489.5,-118.429)">
                <path d="M983,414.5L979,414.5L981,411L983,414.5Z" style="fill:none;stroke:white;stroke-width:0.59px;"/>
            </g>
        </g>
    </g>
</svg>
