<svg viewBox="0 0 26 24" xmlns="http://www.w3.org/2000/svg" xml:space="preserve" fill-rule="evenodd" clip-rule="evenodd" stroke-linecap="round" stroke-linejoin="round" stroke-miterlimit="1.5"><path fill="none" d="M0 0h26v24H0z"/><path fill="#fff" stroke="#404040" d="M41 65h20v13H41z" transform="matrix(1.04968 0 0 .99948 -40.5 -59.5)"/><path d="M8.8 15.4h.7v.8h-.7v-.8Zm7.7 0h.7v.8h-.7v-.8Zm0 .8h-1.6v-.8h1.6v.8Zm-5.4-.8v.8H9.5v-.8h1.6Zm-1.6 0h-.7V14h.7v1.5Zm7.7 0h-.7V14h.7v1.5Zm-7.7-5.3h-.7V8.5h.7v1.6Zm7.7 0h-.7V8.5h.7v1.6Zm0-1.6h-.7v-.8h.7v.8Zm-7.7-.8v.8h-.7v-.8h.7Zm1.6.8H9.5v-.8h1.6v.8Zm5.4 0h-1.6v-.8h1.6v.8ZM10.3 11.6h5.4v.8h-5.4z" fill="#404040"/><path fill="#404040" d="M13.4 9.3v5.4h-.8V9.3zM8 12l3-1.6v3.1L8 12ZM18 12l-3 1.5v-3l3 1.5Z"/><path d="m13 7 1.5 3h-3L13 7ZM13 17l-1.5-3.1h3l-1.5 3Z" fill="#404040"/></svg>