<?xml version="1.0" encoding="UTF-8" standalone="no"?>
<!DOCTYPE svg PUBLIC "-//W3C//DTD SVG 1.1//EN" "http://www.w3.org/Graphics/SVG/1.1/DTD/svg11.dtd">
<svg width="100%" height="100%" viewBox="0 0 32 32" version="1.1" xmlns="http://www.w3.org/2000/svg" xmlns:xlink="http://www.w3.org/1999/xlink" xml:space="preserve" xmlns:serif="http://www.serif.com/" style="fill-rule:evenodd;clip-rule:evenodd;">
    <g id="Layer-1" serif:id="Layer 1" transform="matrix(1,0,0,1,0,-1090.52)">
        <rect id="rect1312" x="2" y="1092.52" width="28" height="28" style="fill:url(#_Linear1);"/>
        <g id="rect1327">
            <g>
                <path id="path1329" d="M16.196,1119.12C10.523,1119.1 5.867,1114.42 5.868,1108.75C5.868,1106.01 7.918,1102.41 9.861,1100.47L24.518,1115.12C22.575,1117.07 18.981,1119.12 16.233,1119.12L16.196,1119.12Z" style="fill-opacity:0.15;fill-rule:nonzero;"/>
                <path id="path3704" d="M16.196,1117.12C10.523,1117.1 5.867,1112.42 5.868,1106.75C5.868,1104.01 6.961,1101.37 8.905,1099.42L23.561,1114.08C21.618,1116.02 18.981,1117.12 16.233,1117.12L16.196,1117.12Z" style="fill:rgb(250,250,250);fill-rule:nonzero;"/>
                <path id="path1327" d="M9.861,1100.58C11.672,1099.17 13.913,1098.39 16.233,1098.39L16.271,1098.39C21.981,1098.41 26.599,1103.04 26.599,1108.75C26.598,1110.93 25.912,1113.04 24.66,1114.79" style="fill:none;fill-rule:nonzero;stroke:black;stroke-opacity:0.15;stroke-width:2px;"/>
                <path id="path3687" d="M8.905,1099.42C10.849,1097.48 13.485,1096.39 16.234,1096.39L16.271,1096.39C21.981,1096.41 26.6,1101.04 26.599,1106.75C26.599,1109.5 25.506,1112.14 23.562,1114.08" style="fill:none;fill-rule:nonzero;stroke:rgb(250,250,250);stroke-width:2px;"/>
                <path id="path3669" d="M30,1120.52L2,1092.52" style="fill:none;fill-rule:nonzero;stroke:rgb(32,107,0);stroke-width:2px;"/>
            </g>
        </g>
        <rect id="rect13271" serif:id="rect1327" x="2" y="1092.52" width="28" height="28" style="fill:none;stroke:rgb(32,107,0);stroke-width:1px;stroke-linecap:round;stroke-linejoin:round;"/>
    </g>
    <defs>
        <linearGradient id="_Linear1" x1="0" y1="0" x2="1" y2="0" gradientUnits="userSpaceOnUse" gradientTransform="matrix(-0.928784,48.7859,-48.7859,-0.928784,16.8216,1092.02)"><stop offset="0" style="stop-color:rgb(104,183,35);stop-opacity:1"/><stop offset="1" style="stop-color:rgb(58,145,4);stop-opacity:1"/></linearGradient>
    </defs>
</svg>
