<svg xmlns="http://www.w3.org/2000/svg" fill-rule="evenodd" viewBox="0 0 22 22"><path fill="#68b723" d="M2.5 2.5h17v17h-17z"/><g fill="none" stroke="#206b00"><path stroke-width="1.21" d="M19.5 19.5 2.55 2.55"/><path stroke-linejoin="round" d="M2.5 2.5h17v17h-17z"/></g><path fill="#206b00" fill-opacity=".99" fill-rule="nonzero" d="M4 18.17h-.1c-.26.02-.5.13-.67.31l-.37.37a1.06 1.06 0 0 0-.3.65H5c.1-.37-.01-.75-.28-1.02a1.07 1.07 0 0 0-.72-.31zm2.98-2.96a1.06 1.06 0 0 0-.8.32l-.73.73a1.06 1.06 0 0 0-.32.75c0 .28.12.56.32.76a1.06 1.06 0 0 0 .75.3 1.06 1.06 0 0 0 .75-.3l.74-.74a1.07 1.07 0 0 0-.7-1.82zm2.83-2.95a1.03 1.03 0 0 0-.67.31l-.74.74c-.4.4-.4 1.09 0 1.5s1.1.41 1.5 0l.74-.74a1.07 1.07 0 0 0-.83-1.8zm2.95-2.96a1.1 1.1 0 0 0-.66.31l-.74.74c-.41.42-.41 1.1 0 1.5s1.09.42 1.5 0l.74-.74a1.06 1.06 0 0 0-.84-1.8zm3.09-2.95c-.3-.01-.59.1-.8.3l-.74.75c-.4.41-.4 1.08 0 1.5s1.1.41 1.5 0l.75-.74a1.06 1.06 0 0 0 .3-.75c0-.29-.1-.55-.3-.75a1.07 1.07 0 0 0-.71-.31zm2.58-2.59c-.3-.01-.58.1-.8.31l-.36.37c-.41.41-.41 1.1 0 1.5a1.08 1.08 0 0 0 1.5 0l.37-.36c.2-.2.31-.47.31-.76a1.07 1.07 0 0 0-1.02-1.06z"/><path fill="#fafafa" fill-rule="nonzero" d="M12.76 8.09a1.1 1.1 0 0 0-.66.3l-.74.75c-.41.41-.41 1.09 0 1.5s1.09.41 1.5 0l.74-.74a1.06 1.06 0 0 0-.84-1.81zm3.09-2.96c-.3 0-.59.1-.8.31l-.74.74c-.4.42-.4 1.09 0 1.5s1.1.42 1.5 0l.74-.73a1.05 1.05 0 0 0 0-1.5c-.18-.2-.44-.3-.7-.32zm2.58-2.58a1.06 1.06 0 0 0-.8.3l-.36.38c-.41.4-.41 1.09 0 1.5.41.4 1.09.4 1.5 0l.37-.37c.2-.2.31-.47.31-.75a1.06 1.06 0 0 0-.3-.75 1.07 1.07 0 0 0-.72-.31z"/></svg>