<?xml version="1.0" encoding="UTF-8" standalone="no"?>
<!DOCTYPE svg PUBLIC "-//W3C//DTD SVG 1.1//EN" "http://www.w3.org/Graphics/SVG/1.1/DTD/svg11.dtd">
<svg width="100%" height="100%" viewBox="0 0 32 32" version="1.1" xmlns="http://www.w3.org/2000/svg" xmlns:xlink="http://www.w3.org/1999/xlink" xml:space="preserve" xmlns:serif="http://www.serif.com/" style="fill-rule:evenodd;clip-rule:evenodd;">
    <g id="Layer-1" serif:id="Layer 1" transform="matrix(1,0,0,1,0,-1090.52)">
        <rect id="rect1312" x="2" y="1092.52" width="28" height="28" style="fill:url(#_Linear1);"/>
        <g id="rect1327">
            <g>
                <path id="path3669" d="M30,1120.52L2,1092.52" style="fill:none;fill-rule:nonzero;stroke:rgb(32,107,0);stroke-width:2px;"/>
            </g>
        </g>
        <rect id="rect13271" serif:id="rect1327" x="2" y="1092.52" width="28" height="28" style="fill:none;stroke:rgb(32,107,0);stroke-width:1px;stroke-linecap:round;stroke-linejoin:round;"/>
        <g id="path4063" transform="matrix(0.264583,0,0,0.264583,0,1090.52)">
            <path d="M16.934,105.103C16.703,105.099 16.471,105.106 16.24,105.125C14.678,105.257 13.212,105.94 12.106,107.052L9.796,109.341C8.705,110.425 8.026,111.856 7.876,113.386L23.172,113.386C23.759,111.122 23.104,108.708 21.452,107.052C20.253,105.846 18.634,105.148 16.934,105.103Z" style="fill:rgb(6,6,6);fill-opacity:0.15;fill-rule:nonzero;"/>
        </g>
        <path id="path4061" d="M9.382,1113.46C8.891,1113.44 8.414,1113.63 8.068,1113.98L6.85,1115.19C6.521,1115.52 6.335,1115.96 6.335,1116.43C6.335,1116.89 6.521,1117.34 6.85,1117.67C7.179,1118 7.625,1118.18 8.091,1118.18C8.556,1118.18 9.002,1118 9.331,1117.67L10.541,1116.45C11.219,1115.77 11.219,1114.66 10.541,1113.98C10.233,1113.67 9.82,1113.48 9.382,1113.46Z" style="fill:rgb(6,6,6);fill-opacity:0.15;fill-rule:nonzero;"/>
        <path id="path4059" d="M14.033,1108.6C13.62,1108.63 13.233,1108.81 12.94,1109.11L11.722,1110.33C11.045,1111 11.045,1112.12 11.722,1112.8C12.401,1113.48 13.517,1113.48 14.195,1112.8L15.413,1111.58C16.091,1110.9 16.091,1109.79 15.413,1109.11C15.051,1108.74 14.545,1108.56 14.033,1108.6Z" style="fill:rgb(6,6,6);fill-opacity:0.15;fill-rule:nonzero;"/>
        <path id="path4057" d="M18.905,1103.73C18.49,1103.77 18.099,1103.95 17.805,1104.24L16.587,1105.46C15.91,1106.14 15.91,1107.25 16.587,1107.93C17.266,1108.61 18.381,1108.61 19.06,1107.93L20.278,1106.71C20.956,1106.04 20.956,1104.92 20.278,1104.24C19.917,1103.88 19.415,1103.69 18.905,1103.73Z" style="fill:rgb(6,6,6);fill-opacity:0.15;fill-rule:nonzero;"/>
        <path id="path4055" d="M23.984,1098.86C23.494,1098.84 23.017,1099.02 22.67,1099.37L21.459,1100.59C20.782,1101.27 20.782,1102.38 21.459,1103.06C22.138,1103.74 23.253,1103.74 23.932,1103.06L25.15,1101.85C25.48,1101.52 25.665,1101.08 25.665,1100.61C25.665,1100.14 25.48,1099.7 25.15,1099.37C24.839,1099.06 24.423,1098.88 23.984,1098.86Z" style="fill:rgb(6,6,6);fill-opacity:0.15;fill-rule:nonzero;"/>
        <path id="path4051" d="M28.243,1094.6C27.753,1094.58 27.276,1094.76 26.929,1095.11L26.324,1095.72C25.646,1096.4 25.646,1097.52 26.324,1098.2C27.002,1098.87 28.118,1098.87 28.797,1098.2L29.409,1097.59C29.739,1097.26 29.925,1096.82 29.925,1096.35C29.925,1095.89 29.739,1095.44 29.409,1095.11C29.098,1094.8 28.682,1094.62 28.243,1094.6Z" style="fill:rgb(6,6,6);fill-opacity:0.15;fill-rule:nonzero;"/>
        <path id="path3974" d="M18.905,1101.73C18.49,1101.77 18.099,1101.95 17.805,1102.24L16.587,1103.46C15.91,1104.14 15.91,1105.25 16.587,1105.93C17.266,1106.61 18.381,1106.61 19.06,1105.93L20.278,1104.71C20.956,1104.04 20.956,1102.92 20.278,1102.24C19.917,1101.88 19.415,1101.69 18.905,1101.73Z" style="fill:rgb(250,250,250);fill-rule:nonzero;"/>
        <path id="path3972" d="M23.984,1096.86C23.494,1096.84 23.017,1097.02 22.67,1097.37L21.459,1098.59C20.782,1099.27 20.782,1100.38 21.459,1101.06C22.138,1101.74 23.253,1101.74 23.932,1101.06L25.15,1099.85C25.48,1099.52 25.665,1099.08 25.665,1098.61C25.665,1098.14 25.48,1097.7 25.15,1097.37C24.839,1097.06 24.423,1096.88 23.984,1096.86Z" style="fill:rgb(250,250,250);fill-rule:nonzero;"/>
        <path id="path3968" d="M28.243,1092.6C27.753,1092.58 27.276,1092.76 26.929,1093.11L26.324,1093.72C25.646,1094.4 25.646,1095.52 26.324,1096.2C27.002,1096.87 28.118,1096.87 28.797,1096.2L29.409,1095.59C29.739,1095.26 29.925,1094.82 29.925,1094.35C29.925,1093.88 29.739,1093.44 29.409,1093.11C29.098,1092.8 28.682,1092.62 28.243,1092.6Z" style="fill:rgb(250,250,250);fill-rule:nonzero;"/>
    </g>
    <defs>
        <linearGradient id="_Linear1" x1="0" y1="0" x2="1" y2="0" gradientUnits="userSpaceOnUse" gradientTransform="matrix(-0.928784,48.7859,-48.7859,-0.928784,16.8216,1092.02)"><stop offset="0" style="stop-color:rgb(104,183,35);stop-opacity:1"/><stop offset="1" style="stop-color:rgb(58,145,4);stop-opacity:1"/></linearGradient>
    </defs>
</svg>
