<svg xmlns="http://www.w3.org/2000/svg" fill-rule="evenodd" viewBox="0 0 22 22"><path fill="#68b723" d="M2.5 2.5h17v17h-17z"/><g fill-rule="nonzero"><path fill="#206b00" d="M10.98 18.5a5.96 5.96 0 0 1-6.13-6c0-1.67 1.47-3.82 2.65-5l8.5 8.52c-1.18 1.18-3.33 2.48-5 2.48h-.02z"/><path fill="#fafafa" d="M10.98 17.43A5.78 5.78 0 0 1 5 11.5c0-1.67.82-3.32 2-4.5l8.5 8.5a6.51 6.51 0 0 1-4.5 1.93h-.02z"/></g><g fill="none"><g stroke-width="1.21"><path stroke="#206b00" stroke-opacity=".99" d="M7.5 7.5a6.47 6.47 0 0 1 3.64-1.44c3.66-.19 6.36 2.97 6.36 6.44 0 1.32-.74 2.44-1.5 3.5"/><path stroke="#fafafa" d="M7 7c1.18-1.18 2.8-2 4.48-2h.02c3.47.01 6 2.53 6 6 0 1.67-.82 3.32-2 4.5"/><path stroke="#206b00" d="m19.5 19.5-17-17"/></g><path stroke="#206b00" stroke-linejoin="round" d="M2.5 2.5h17v17h-17z"/></g></svg>