<svg xmlns="http://www.w3.org/2000/svg" width="100%" height="100%" viewBox="0 0 22 22" fill-rule="evenodd" xmlns:v="https://vecta.io/nano"><path d="M2.5 2.5h17v17h-17z" fill="#68b723"/><g fill-rule="nonzero"><path d="M10.978 18.501c-3.445-.013-6.13-2.558-6.13-6 0-1.664 1.472-3.823 2.652-5l8.5 8.521c-1.18 1.184-3.332 2.479-5 2.479h-.022z" fill-opacity=".15"/><path d="M10.978 17.436C7.533 17.424 4.999 14.943 5 11.501c0-1.664.82-3.317 2-4.5l8.5 8.5c-1.18 1.177-2.832 1.935-4.5 1.935h-.022z" fill="#fafafa"/></g><g fill="none"><g stroke-width="1.21"><path d="M7.5 7.501c1.1-.857 2.338-1.368 3.641-1.437 3.656-.191 6.359 2.97 6.359 6.437-.001 1.323-.74 2.437-1.5 3.5" stroke="#000" stroke-opacity=".15"/><path d="M7 7.001c1.18-1.178 2.808-2 4.478-2h.022c3.467.012 6.001 2.533 6 6 0 1.669-.82 3.322-2 4.5" stroke="#fafafa"/><path d="M19.5 19.501l-17-17" stroke="#206b00"/></g><path d="M2.5 2.5h17v17h-17z" stroke="#206b00" stroke-linejoin="round"/></g></svg>