<svg xmlns="http://www.w3.org/2000/svg" width="100%" height="100%" viewBox="0 0 22 22" fill-rule="evenodd" xmlns:v="https://vecta.io/nano"><path d="M2.5 2.5h17v17h-17z" fill="#68b723"/><g fill="none" stroke="#206b00"><path d="M19.5,19.5L2.551,2.551" stroke-width="1.21"/><path d="M2.5 2.5h17v17h-17z" stroke-linejoin="round"/></g><path d="M4.006 18.17a1.03 1.03 0 0 0-.111.003 1.07 1.07 0 0 0-.665.31l-.371.368a1.06 1.06 0 0 0-.308.65h2.457c.094-.364-.011-.752-.276-1.018-.193-.194-.453-.306-.726-.313zm2.976-2.956a1.06 1.06 0 0 0-.798.316l-.739.734c-.2.201-.313.468-.313.753a1.07 1.07 0 0 0 .313.753 1.06 1.06 0 0 0 .753.31c.282 0 .553-.11.753-.31l.735-.741c.411-.412.411-1.086 0-1.499-.187-.188-.438-.304-.704-.316zm2.824-2.951c-.251.019-.486.128-.664.31l-.739.741c-.411.406-.411 1.086 0 1.499s1.089.413 1.501 0l.74-.74c.411-.413.411-1.087 0-1.5-.22-.225-.527-.334-.838-.31zm2.958-2.956a1.1 1.1 0 0 0-.668.309l-.74.741c-.411.413-.411 1.087 0 1.5a1.07 1.07 0 0 0 1.502 0l.739-.741c.412-.407.412-1.087 0-1.5-.219-.218-.524-.334-.833-.309zm3.083-2.957a1.06 1.06 0 0 0-.797.309l-.736.741c-.411.413-.411 1.087 0 1.5s1.09.413 1.502 0l.739-.735c.201-.2.313-.467.313-.753a1.06 1.06 0 0 0-.313-.753c-.188-.188-.441-.297-.708-.309zm2.586-2.587a1.06 1.06 0 0 0-.798.31l-.367.37c-.411.413-.411 1.093 0 1.506.412.407 1.089.407 1.502 0l.371-.37a1.06 1.06 0 0 0 .313-.753c0-.279-.112-.553-.313-.753a1.07 1.07 0 0 0-.708-.31z" fill-opacity=".15" fill="#060606" fill-rule="nonzero"/><path d="M12.764 8.092c-.252.025-.49.134-.668.31l-.74.741c-.411.412-.411 1.086 0 1.499s1.09.413 1.502 0l.739-.74c.412-.407.412-1.087 0-1.5-.219-.219-.524-.334-.833-.31zm3.083-2.957a1.06 1.06 0 0 0-.797.31l-.736.741c-.411.413-.411 1.087 0 1.499s1.09.413 1.502 0l.739-.734a1.06 1.06 0 0 0 .313-.753c0-.285-.112-.553-.313-.753-.188-.188-.441-.297-.708-.31zm2.586-2.586a1.06 1.06 0 0 0-.798.31l-.367.37c-.411.413-.411 1.093 0 1.506.412.407 1.089.407 1.502 0l.371-.371c.201-.2.313-.467.313-.752s-.112-.553-.313-.753c-.189-.189-.441-.298-.708-.31z" fill-rule="nonzero" fill="#fafafa"/></svg>