<?xml version="1.0" encoding="UTF-8" standalone="no"?>
<!DOCTYPE svg PUBLIC "-//W3C//DTD SVG 1.1//EN" "http://www.w3.org/Graphics/SVG/1.1/DTD/svg11.dtd">
<svg width="100%" height="100%" viewBox="0 0 32 32" version="1.1" xmlns="http://www.w3.org/2000/svg" xmlns:xlink="http://www.w3.org/1999/xlink" xml:space="preserve" xmlns:serif="http://www.serif.com/" style="fill-rule:evenodd;clip-rule:evenodd;stroke-linecap:round;">
    <g id="Layer-1" serif:id="Layer 1" transform="matrix(1,0,0,1,0,-1090.52)">
        <path id="path880" d="M16,1120.52L16,1116.52M16,1112.52L16,1108.52M16,1104.52L16,1100.52M16,1096.52L16,1092.52" style="fill:none;fill-rule:nonzero;stroke:black;stroke-width:2px;"/>
        <g id="path994" transform="matrix(0,2.23836,2.13365,0,-2343.73,1088.53)">
            <path d="M10.922,1112.52L5.149,1112.52L8.036,1107.52L10.922,1112.52Z" style="fill:rgb(242,186,56);fill-rule:nonzero;"/>
            <g>
                <g id="path1300" transform="matrix(0,0.124005,0.118204,0,0.889044,1098.46)">
                    <path d="M77.739,57.638L73.066,60.472L93.226,72.689L113.386,84.899L113.386,79.23L93.226,67.02L77.739,57.638Z" style="fill:rgb(212,142,21);fill-rule:nonzero;"/>
                </g>
                <g id="path1274" transform="matrix(0,0.124005,0.118204,0,0.889044,1098.46)">
                    <path d="M113.386,36.053L93.226,48.263L73.066,60.472L77.753,63.314L93.226,53.939L113.386,41.722L113.386,36.053Z" style="fill:rgb(255,225,107);fill-rule:nonzero;"/>
                </g>
            </g>
            <path d="M10.922,1112.52L5.149,1112.52L8.036,1107.52L10.922,1112.52Z" style="fill:none;fill-rule:nonzero;stroke:rgb(173,95,0);stroke-width:0.46px;stroke-linecap:butt;stroke-linejoin:round;"/>
        </g>
        <g id="path1008" transform="matrix(0,2.23836,-2.13365,0,2375.73,1088.53)">
            <path d="M10.922,1112.52L5.149,1112.52L8.036,1107.52L10.922,1112.52Z" style="fill:rgb(242,186,56);fill-rule:nonzero;"/>
            <g>
                <g id="path1302" transform="matrix(0,-0.124005,0.118204,0,0.889044,1113.46)">
                    <path d="M43.206,57.638L27.719,67.02L7.559,79.23L7.559,84.899L27.719,72.689L47.879,60.472L43.206,57.638Z" style="fill:rgb(212,142,21);fill-rule:nonzero;"/>
                </g>
                <g id="path1276" transform="matrix(0,-0.124005,0.118204,0,0.889044,1113.46)">
                    <path d="M7.559,36.053L7.559,41.722L27.719,53.939L43.191,63.314L47.879,60.472L27.719,48.263L7.559,36.053Z" style="fill:rgb(255,225,107);fill-rule:nonzero;"/>
                </g>
            </g>
            <path d="M10.922,1112.52L5.149,1112.52L8.036,1107.52L10.922,1112.52Z" style="fill:none;fill-rule:nonzero;stroke:rgb(173,95,0);stroke-width:0.46px;stroke-linecap:butt;stroke-linejoin:round;"/>
        </g>
    </g>
</svg>
