<svg xmlns="http://www.w3.org/2000/svg" xml:space="preserve" style="fill-rule:evenodd;clip-rule:evenodd" viewBox="0 0 22 22"><path d="M2.5 2.5h17v17h-17z" style="fill:#ececec;fill-opacity:.99"/><path d="M7 3v5.5l-5-.04V11h5v2H2v2h5v5h2v-5h4v5h2v-5h5v-2h-5v-2h5V8.5l-5 .04V3h-2v5.5H9V3H7Zm2 8h4v2H9v-2Z" style="fill:#b6b6b6;fill-rule:nonzero"/><path d="M8 19.5v-17M2.5 9h17M14 19.5v-17M2.5 13h17" style="fill:none;fill-rule:nonzero;stroke:#333;stroke-width:2px"/><path d="M2.5 2.5h17v17h-17z" style="fill:none;stroke:#000;stroke-width:.96px;stroke-linecap:round;stroke-linejoin:round"/></svg>