<svg xmlns="http://www.w3.org/2000/svg" fill-rule="evenodd" viewBox="0 0 22 22"><path fill="url(#a)" d="M2.5 2.5h17v17h-17z"/><path fill="#b6b6b6" fill-rule="nonzero" d="M7 3v5.5l-5-.04V11h5v2H2v2h5v5h2v-5h4v5h2v-5h5v-2h-5v-2h5V8.5l-5 .04V3h-2v5.5H9V3H7zm2 8h4v2H9v-2z"/><g fill="none"><g stroke="#333" stroke-width="2"><path d="M8 19.5v-17M2.5 9h17M14 19.5v-17M2.5 13h17"/></g><path stroke="#000" stroke-linejoin="round" stroke-width=".96" d="M2.5 2.5h17v17h-17z"/></g><defs><linearGradient id="a" x1="10.34" x2="10.02" y1="2.5" y2="24.03" gradientUnits="userSpaceOnUse"><stop offset="0" stop-color="#fafafa"/><stop offset="1" stop-color="#d4d4d4"/></linearGradient></defs></svg>