<svg xmlns="http://www.w3.org/2000/svg" width="100%" height="100%" viewBox="0 0 32 32" fill-rule="evenodd" xmlns:v="https://vecta.io/nano"><path d="M1.837 2h28v28h-28z" fill="url(#A)"/><path d="M9 2.515l.035 8.175H1.836L1.807 13h7.199l.029 9.31H1.836L1.801 26H9l.035 4h3L12 26h8.108l.035 4h2.996l-.035-4h6.695l.035-3.69h-6.695L23.11 13h6.695l.029-2.31h-6.695V2.515h-2.996v8.175h-8.108L12 2.515H9zM12.006 13h8.108l.029 9.31h-8.108L12.006 13z" fill-opacity=".15" fill-rule="nonzero"/><g fill="none"><g stroke="#333"><g stroke-width="2.97"><path d="M9.5 30V2.5"/><path d="M2.484 9.5h27.35"/></g><g stroke-width="3"><path d="M22.5 30V2"/><path d="M2.484 22.5h27.35"/></g></g><path d="M2.484 2.515H29.5v26.966H2.484z" stroke="#000" stroke-width=".96" stroke-linejoin="round"/></g><defs><linearGradient id="A" x1="14.747" y1="2" x2="16.175" y2="42.268" gradientUnits="userSpaceOnUse"><stop offset="0" stop-color="#fafafa"/><stop offset="1" stop-color="#d4d4d4"/></linearGradient></defs></svg>