<svg xmlns="http://www.w3.org/2000/svg" xml:space="preserve" style="fill-rule:evenodd;clip-rule:evenodd" viewBox="0 0 22 22"><path d="M2.5 2.5h17v17h-17z" style="fill:#ececec;fill-opacity:.99"/><path d="M6.98 2.33 7 7.5H2V10l5-.06V15H2v1h5v4h2v-4h4v4h2v-4h4v-2h-4v-4h5V7.5h-5V2.33h-2V7.5H9l-.02-5.17h-2ZM9 10h4v4H9v-4Z" style="fill:#b6b6b6;fill-rule:nonzero"/><path d="M8 19.5v-17M2.5 8h17M14 19.5v-17M2.5 14h17" style="fill:none;fill-rule:nonzero;stroke:#333;stroke-width:2px"/><path d="M2.5 2.5h17v17h-17z" style="fill:none;stroke:#000;stroke-width:.96px;stroke-linecap:round;stroke-linejoin:round"/></svg>