<svg xmlns="http://www.w3.org/2000/svg" fill-rule="evenodd" viewBox="0 0 22 22"><path fill="url(#a)" d="M2.5 2.5h17v17h-17z"/><path fill="#b6b6b6" fill-rule="nonzero" d="M6.98 2.33 7 7.5H2V10l5-.06V15H2v1h5v4h2v-4h4v4h2v-4h4v-2h-4v-4h5V7.5h-5V2.33h-2V7.5H9l-.02-5.17h-2zM9 10h4v4H9v-4z"/><g fill="none"><g stroke="#333" stroke-width="2"><path d="M8 19.5v-17M2.5 8h17M14 19.5v-17M2.5 14h17"/></g><path stroke="#000" stroke-linejoin="round" stroke-width=".96" d="M2.5 2.5h17v17h-17z"/></g><defs><linearGradient id="a" x1="10.34" x2="11.21" y1="2.5" y2="26.95" gradientUnits="userSpaceOnUse"><stop offset="0" stop-color="#fafafa"/><stop offset="1" stop-color="#d4d4d4"/></linearGradient></defs></svg>