<svg xmlns="http://www.w3.org/2000/svg" width="100%" height="100%" viewBox="0 0 32 32" fill-rule="evenodd" xmlns:v="https://vecta.io/nano"><path d="M2 2h28v28H2z" fill="url(#A)"/><path d="M10.055 4v8.053H2v2.998h8.055v5.898H2v2.996h8.055V30h2.996v-6.055h5.898V30h2.998v-6.055H30v-2.996h-8.053v-5.898H30v-2.998h-8.053V4h-2.998v8.053h-5.898V4h-2.996zm2.996 11.051h5.898v5.898h-5.898v-5.898z" fill-opacity=".2" fill-rule="nonzero"/><g fill="none"><g stroke="#333" stroke-width="3"><path d="M11.554 30V2"/><path d="M2 11.55h28"/><path d="M20.446 30V2"/><path d="M2 20.45h28"/></g><path d="M2.5 2.5h27v27h-27z" stroke="#000" stroke-width=".96" stroke-linejoin="round"/></g><defs><linearGradient id="A" x1="14.911" y1="2" x2="14.382" y2="37.469" gradientUnits="userSpaceOnUse"><stop offset="0" stop-color="#fafafa"/><stop offset="1" stop-color="#d4d4d4"/></linearGradient></defs></svg>