<svg xmlns="http://www.w3.org/2000/svg" fill-rule="evenodd" stroke-linecap="round" stroke-linejoin="round" viewBox="0 0 22 22"><path fill="url(#a)" d="M2.5 2.5h17v17h-17z"/><path fill="none" stroke="#000" d="M2.5 2.5h17v17h-17z"/><path fill="#b6b6b6" fill-rule="nonzero" d="M11 8a.97.97 0 0 0-.97.96v2.36H7.67a.97.97 0 0 0-.96.97c0 .53.43.96.96.96h2.36v2.37c0 .52.44.95.97.96.53 0 .96-.44.97-.96v-2.37h2.36a.97.97 0 0 0 .96-.96.97.97 0 0 0-.96-.97h-2.36V8.96a.97.97 0 0 0-.97-.97z"/><g fill="none" stroke="#333" stroke-linejoin="miter" stroke-width="1.98"><path d="M11 7.5v7M14.5 11h-7"/></g><defs><linearGradient id="a" x1="10.34" x2="11.21" y1="2.5" y2="26.95" gradientUnits="userSpaceOnUse"><stop offset="0" stop-color="#fafafa"/><stop offset="1" stop-color="#d4d4d4"/></linearGradient></defs></svg>