<svg xmlns="http://www.w3.org/2000/svg" width="100%" height="100%" viewBox="0 0 32 32" fill-rule="evenodd" stroke-linecap="round" stroke-linejoin="round" xmlns:v="https://vecta.io/nano"><path d="M2 2h28v28H2z" fill="url(#A)"/><path d="M2.5 2.5h27v27h-27z" fill="none" stroke="#000" stroke-width=".96"/><path d="M15.996 11.32a1.51 1.51 0 0 0-1.498 1.5v3.68h-3.676A1.51 1.51 0 0 0 9.324 18c.001.83.677 1.5 1.498 1.5h3.676v3.68c.001.82.677 1.49 1.498 1.5h.006a1.51 1.51 0 0 0 1.5-1.5V19.5h3.676c.822 0 1.499-.67 1.5-1.5s-.677-1.5-1.5-1.5h-3.676v-3.68a1.51 1.51 0 0 0-1.5-1.5h-.006z" fill-opacity=".15" fill-rule="nonzero"/><g fill="none" stroke="#333" stroke-width="3" stroke-linejoin="miter"><path d="M16 10.82v10.36"/><path d="M21.177 16H10.823"/></g><defs><linearGradient id="A" x1="14.911" y1="2" x2="16.339" y2="42.268" gradientUnits="userSpaceOnUse"><stop offset="0" stop-color="#fafafa"/><stop offset="1" stop-color="#d4d4d4"/></linearGradient></defs></svg>