<svg xmlns="http://www.w3.org/2000/svg" width="100%" height="100%" viewBox="0 0 22 22" fill-rule="evenodd" xmlns:v="https://vecta.io/nano"><path d="M1.998 2h18v18h-18z" fill="url(#A)"/><path d="M6.998 3v5.5l-5-.037V11h5v2h-5v2l5 .001V20h2v-4.999h4V20h2v-4.999l5-.001v-2h-5v-2h5V8.5l-5 .038V3h-2v5.5h-4V3h-2zm2 8h4v2h-4v-2z" fill-opacity=".2" fill-rule="nonzero"/><g fill="none"><g stroke="#333" stroke-width="2"><path d="M7.998 20V2.001"/><path d="M1.998 9h18"/><path d="M13.998 20V2.001"/><path d="M1.998 13h18"/></g><path d="M2.498 2.5h17v17h-17z" stroke="#000" stroke-width=".96" stroke-linejoin="round"/></g><defs><linearGradient id="A" x1="10.298" y1="2.001" x2="9.958" y2="24.802" gradientUnits="userSpaceOnUse"><stop offset="0" stop-color="#fafafa"/><stop offset="1" stop-color="#d4d4d4"/></linearGradient></defs></svg>