<svg xmlns="http://www.w3.org/2000/svg" width="100%" height="100%" viewBox="0 0 22 22" fill-rule="evenodd" xmlns:v="https://vecta.io/nano"><path d="M2.5 2.5h17v17h-17z" fill="url(#A)"/><path d="M6.978 2.331L7 7.5H2V10l5-.056V15H2v1h5v4h2v-4h4v4h2v-4h4v-2h-4v-4h5V7.5h-5V2.331h-2V7.5H9l-.022-5.169h-2zM9 10h4v4H9v-4z" fill-opacity=".15" fill-rule="nonzero"/><g fill="none"><g stroke="#333" stroke-width="2"><path d="M8 19.5v-17"/><path d="M2.5 8h17"/><path d="M14 19.5v-17"/><path d="M2.5 14h17"/></g><path d="M2.5 2.5h17v17h-17z" stroke="#000" stroke-width=".96" stroke-linejoin="round"/></g><defs><linearGradient id="A" x1="10.338" y1="2.5" x2="11.206" y2="26.948" gradientUnits="userSpaceOnUse"><stop offset="0" stop-color="#fafafa"/><stop offset="1" stop-color="#d4d4d4"/></linearGradient></defs></svg>