<svg xmlns="http://www.w3.org/2000/svg" width="100%" height="100%" viewBox="0 0 22 22" fill-rule="evenodd" stroke-linecap="round" xmlns:v="https://vecta.io/nano"><path d="M2.513 2.486h17V19.47h-17z" fill="url(#A)"/><g fill="none"><path d="M19.198 5.002H3.031m16.167 3H3.031m16.167 3H3.031m16.167 3H3.031m16.167 3H3.031" stroke="#b2b2b2"/><path d="M2.513 2.519H19.5v16.984H2.513z" stroke="#000" stroke-width="1.02" stroke-linejoin="round"/><g stroke="#b2b2b2"><path d="M6 2.889v16.113"/><path d="M9 3.002v16.227m3-16.227v16.227m3-16.243V19.1m3-16.114V19.1" stroke-width=".98"/></g><g stroke="#333"><path d="M5.5 2.502V19.1m3-16.581v16.597m6-16.614V19.1m3-16.598V19.1m-6-16.581v16.597"/><path d="M19.198 4.503H3.031"/><path d="M19 7.503H3.031m15.938 3H3m16 3H3.031M19 16.502H3.031" stroke-width=".99"/></g></g><defs><linearGradient id="A" x1="0" y1="0" x2="1" y2="0" gradientUnits="userSpaceOnUse" gradientTransform="matrix(0.86734,24.4247,-24.4481,0.866509,10.3516,2.4862)"><stop offset="0" stop-color="#fafafa"/><stop offset="1" stop-color="#d4d4d4"/></linearGradient></defs></svg>