<svg xmlns="http://www.w3.org/2000/svg" width="100%" height="100%" viewBox="0 0 22 22" fill-rule="evenodd" stroke-linecap="round" stroke-linejoin="round" xmlns:v="https://vecta.io/nano"><path d="M2 2.003h18v18H2z" fill="url(#A)"/><path d="M2.5 2.502h17v17h-17z" fill="none" stroke="#000"/><path d="M10.997 7.994a.97.97 0 0 0-.963.964v2.366H7.671a.97.97 0 0 0-.963.964c.001.534.436.965.963.965h2.363v2.365c.001.527.436.958.963.965h.004c.529 0 .964-.438.965-.965v-2.365h2.363a.97.97 0 0 0 .964-.965c0-.533-.435-.964-.964-.964h-2.363V8.958a.97.97 0 0 0-.965-.964h-.004z" fill-opacity=".15" fill-rule="nonzero"/><g fill="none" stroke="#333" stroke-width="1.98" stroke-linejoin="miter"><path d="M11 7.502v7"/><path d="M14.5 11.003h-7"/></g><defs><linearGradient id="A" x1="10.3" y1="2.003" x2="11.218" y2="27.889" gradientUnits="userSpaceOnUse"><stop offset="0" stop-color="#fafafa"/><stop offset="1" stop-color="#d4d4d4"/></linearGradient></defs></svg>