<svg xmlns="http://www.w3.org/2000/svg" viewBox="0 0 32 32" fill-rule="evenodd" stroke-linecap="round" xmlns:v="https://vecta.io/nano"><path fill="url(#B)" d="M2 2h28v28H2z"/><g fill="none"><path d="M30 7H3.65M30 12H3.65M30 17H3.65M30 22H3.65M30 27H3.65" stroke="#b2b2b2"/><path stroke="#000" stroke-linejoin="round" d="M2 2h28v28H2z"/><path d="M6 2.82v26.36m5-26.36v26.36m5-26.36v26.36m5-26.36v26.36m5-26.36v26.36" stroke="#333"/><path d="M7 3.82v25.36m5-25.36v25.36m5-25.36v25.36m5-25.36v25.36m5-25.36v25.36" stroke="#b2b2b2"/><path d="M29.18 6H2.82m26.36 5H2.82m26.36 5H2.82m26.36 5H2.82m26.36 5H2.82" stroke="#333"/></g><defs><linearGradient id="B" x1="14.907" y1="1.995" x2="16.334" y2="42.263" gradientUnits="userSpaceOnUse"><stop offset="0" stop-color="#fafafa"/><stop offset="1" stop-color="#d4d4d4"/></linearGradient></defs></svg>