<svg xmlns="http://www.w3.org/2000/svg" width="100%" height="100%" viewBox="0 0 32 32" fill-rule="evenodd" stroke-linecap="round" xmlns:v="https://vecta.io/nano"><path d="M2 2h27v28H2z" fill="url(#A)"/><g fill="none"><path d="M28.5 6.5H2.823m25.677 5H2.823m25.677 5H2.823m25.677 5H2.823m25.677 5H2.823" stroke="#b2b2b2" stroke-width=".99"/><path d="M2.5 2.5h26v27h-26z" stroke="#000" stroke-width=".95" stroke-linejoin="round"/><path d="M5.5 2.82v26.36m5-26.36v26.36m5-26.36v26.36m5-26.36v26.36m5-26.36v26.36" stroke="#333"/><path d="M6.5 2.5v26.68m5-26.68v26.68m5-26.68v26.68m5-26.68v26.86m5-26.86v26.68" stroke="#b2b2b2" stroke-width="1.03"/><path d="M28.5 5.5H2.823m25.677 5H2.823m25.677 5H2.823m25.677 5H2.823m25.677 5H2.823" stroke-width=".99" stroke="#333"/></g><defs><linearGradient id="A" x1="0" y1="0" x2="1" y2="-.003" gradientUnits="userSpaceOnUse" gradientTransform="matrix(1.37754,40.2675,-38.8294,1.42856,14.4495,2)"><stop offset="0" stop-color="#fafafa"/><stop offset="1" stop-color="#d4d4d4"/></linearGradient></defs></svg>