<svg xmlns="http://www.w3.org/2000/svg" xml:space="preserve" style="fill-rule:evenodd;clip-rule:evenodd;stroke-linecap:round;stroke-linejoin:round" viewBox="0 0 22 22"><path d="M2.5 2.5h17v17h-17z" style="fill:#ececec;fill-opacity:.99"/><path d="M2.5 2.5h17v17h-17z" style="fill:none;stroke:#000;stroke-width:1px"/><path d="M11 8a.97.97 0 0 0-.97.96v2.36H7.67a.97.97 0 0 0-.96.97c0 .53.43.96.96.96h2.36v2.37c0 .52.44.95.97.96.53 0 .96-.44.97-.96v-2.37h2.36c.53 0 .96-.43.96-.96a.97.97 0 0 0-.96-.97h-2.36V8.96a.97.97 0 0 0-.97-.97Z" style="fill:#b6b6b6;fill-rule:nonzero"/><path d="M11 7.5v7M14.5 11h-7" style="fill:none;fill-rule:nonzero;stroke:#333;stroke-width:1.98px;stroke-linejoin:miter"/></svg>