<svg xmlns="http://www.w3.org/2000/svg" xml:space="preserve" style="fill-rule:evenodd;clip-rule:evenodd;stroke-linecap:round" viewBox="0 0 22 22"><path d="M2.51 2.48h17v16.98h-17z" style="fill:#ececec;fill-opacity:.99"/><path d="M19.2 5H3.03M19.2 8H3.03M19.2 11H3.03M19.2 14H3.03M19.2 17H3.03" style="fill:none;fill-rule:nonzero;stroke:#b6b6b6;stroke-width:1px"/><path d="M2.51 2.52H19.5V19.5H2.51z" style="fill:none;stroke:#000;stroke-width:1.02px;stroke-linejoin:round"/><path d="M6 2.89V19" style="fill:none;fill-rule:nonzero;stroke:#b6b6b6;stroke-width:1px"/><path d="M9 3v16.23M12 3v16.23M15 2.98V19.1M18 2.98V19.1" style="fill:none;fill-rule:nonzero;stroke:#b6b6b6;stroke-width:.98px"/><path d="M5.5 2.5v16.6M8.5 2.52v16.6M14.5 2.5v16.6M17.5 2.5v16.6M11.5 2.52v16.6M19.2 4.5H3.03" style="fill:none;fill-rule:nonzero;stroke:#333;stroke-width:1px"/><path d="M19 7.5H3.03M18.97 10.5H3M19 13.5H3.03M19 16.5H3.03" style="fill:none;fill-rule:nonzero;stroke:#333;stroke-width:.99px"/></svg>