<?xml version="1.0" encoding="UTF-8" standalone="no"?>
<!DOCTYPE svg PUBLIC "-//W3C//DTD SVG 1.1//EN" "http://www.w3.org/Graphics/SVG/1.1/DTD/svg11.dtd">
<svg width="100%" height="100%" viewBox="0 0 32 32" version="1.1" xmlns="http://www.w3.org/2000/svg" xmlns:xlink="http://www.w3.org/1999/xlink" xml:space="preserve" xmlns:serif="http://www.serif.com/" style="fill-rule:evenodd;clip-rule:evenodd;stroke-linecap:round;stroke-linejoin:round;">
    <g id="Layer-1" serif:id="Layer 1" transform="matrix(1,0,0,1,0,-1090.52)">
        <rect id="rect1414" x="2" y="1092.52" width="28" height="28" style="fill:url(#_Linear1);"/>
        <rect id="rect1637" x="2" y="1092.52" width="28" height="28" style="fill:none;stroke:black;stroke-width:1px;"/>
        <path id="path1347" d="M15.996,1101.84C15.174,1101.84 14.498,1102.52 14.498,1103.34L14.498,1107.02L10.822,1107.02C10,1107.02 9.324,1107.7 9.324,1108.52C9.324,1108.52 9.324,1108.52 9.324,1108.52C9.325,1109.35 10.001,1110.02 10.822,1110.02L14.498,1110.02L14.498,1113.7C14.499,1114.52 15.175,1115.19 15.996,1115.2C15.998,1115.2 16,1115.2 16.002,1115.2C16.824,1115.2 17.501,1114.52 17.502,1113.7L17.502,1110.02L21.178,1110.02C22,1110.02 22.677,1109.35 22.678,1108.52C22.678,1108.52 22.678,1108.52 22.678,1108.52C22.678,1107.69 22.001,1107.02 21.178,1107.02L17.502,1107.02L17.502,1103.34C17.502,1102.52 16.825,1101.84 16.002,1101.84C16,1101.84 15.998,1101.84 15.996,1101.84Z" style="fill-opacity:0.15;fill-rule:nonzero;"/>
        <path id="path1333" d="M16,1101.34L16,1111.7" style="fill:none;fill-rule:nonzero;stroke:rgb(51,51,51);stroke-width:3px;stroke-linejoin:miter;"/>
        <path id="path1335" d="M21.177,1106.52L10.823,1106.52" style="fill:none;fill-rule:nonzero;stroke:rgb(51,51,51);stroke-width:3px;stroke-linejoin:miter;"/>
    </g>
    <defs>
        <linearGradient id="_Linear1" x1="0" y1="0" x2="1" y2="0" gradientUnits="userSpaceOnUse" gradientTransform="matrix(1.42856,40.2675,-40.2675,1.42856,14.9106,1092.52)"><stop offset="0" style="stop-color:rgb(250,250,250);stop-opacity:1"/><stop offset="1" style="stop-color:rgb(212,212,212);stop-opacity:1"/></linearGradient>
    </defs>
</svg>
