<svg xmlns="http://www.w3.org/2000/svg" width="100%" height="100%" viewBox="0 0 22 22" fill-rule="evenodd" stroke-linecap="round" stroke-linejoin="round" xmlns:v="https://vecta.io/nano"><path d="M2.5 2.502h17v17h-17z" fill="url(#A)"/><path d="M6.5 9.002L11 6l4 3.002v5l-4 2-4.5-2v-5z" fill="#2f7ede"/><path d="M11 6l4.453 3 .047 5.002-4.5 2" fill="#164b88"/><g fill="none"><path d="M11 16.002l-4.5-2V8.976L11 5.502m0 0l4.5 3.474v5.026l-4.5 2" stroke="#333"/><path d="M2.5 2.502h17v17h-17z" stroke="#000" stroke-miterlimit="2"/></g><circle cx="3" cy="11.001" r="2" fill="#e84850"/><circle cx="3" cy="11" r="2" fill="none" stroke="#7a0000" stroke-width=".99"/><circle cx="19" cy="11" r="2" fill="#e84850"/><circle cx="19" cy="11" r="2" fill="none" stroke="#7a0000"/><defs><linearGradient id="A" x1="10.339" y1="2.502" x2="10.018" y2="24.037" gradientUnits="userSpaceOnUse"><stop offset="0" stop-color="#fafafa"/><stop offset="1" stop-color="#d4d4d4"/></linearGradient></defs></svg>