<?xml version="1.0" encoding="UTF-8" standalone="no"?>
<!DOCTYPE svg PUBLIC "-//W3C//DTD SVG 1.1//EN" "http://www.w3.org/Graphics/SVG/1.1/DTD/svg11.dtd">
<svg width="100%" height="100%" viewBox="0 0 32 32" version="1.1" xmlns="http://www.w3.org/2000/svg" xmlns:xlink="http://www.w3.org/1999/xlink" xml:space="preserve" xmlns:serif="http://www.serif.com/" style="fill-rule:evenodd;clip-rule:evenodd;stroke-linecap:round;stroke-linejoin:round;">
    <g id="Layer-1" serif:id="Layer 1" transform="matrix(1,0,0,1,0,-1090.52)">
        <path id="path2397" d="M30,1120.52L2,1120.52L30,1092.52" style="fill:url(#_Linear1);fill-rule:nonzero;"/>
        <path id="path2391" d="M16.527,1105.99L2,1120.52L20.423,1120.52C20.762,1119.25 20.934,1117.95 20.935,1116.63C20.935,1112.64 19.348,1108.81 16.527,1105.99Z" style="fill:url(#_Linear2);fill-rule:nonzero;"/>
        <g id="path2441" transform="matrix(0.264583,0,0,0.264583,0,1090.52)">
            <path d="M13.221,107.724L7.559,113.386L113.386,113.386L113.386,107.724L13.221,107.724Z" style="fill-opacity:0.15;fill-rule:nonzero;"/>
        </g>
        <g id="path2432" transform="matrix(0.264583,0,0,0.264583,0,1090.52)">
            <path d="M113.386,7.559L7.559,113.386L15.598,113.386L113.386,15.591L113.386,7.559Z" style="fill:white;fill-opacity:0.5;fill-rule:nonzero;"/>
        </g>
        <path id="path2389" d="M30,1120.52L2,1120.52L30,1092.52" style="fill:none;fill-rule:nonzero;stroke:rgb(173,95,0);stroke-width:1px;"/>
        <path id="path2399" d="M16.527,1105.99L2,1120.52L20.423,1120.52C20.762,1119.25 20.934,1117.95 20.935,1116.63C20.935,1112.64 19.348,1108.81 16.527,1105.99Z" style="fill:none;fill-rule:nonzero;stroke:rgb(173,95,0);stroke-width:1px;"/>
    </g>
    <defs>
        <linearGradient id="_Linear1" x1="0" y1="0" x2="1" y2="0" gradientUnits="userSpaceOnUse" gradientTransform="matrix(8.53092,16.6438,-16.6438,8.53092,15.2819,1107.24)"><stop offset="0" style="stop-color:rgb(255,225,107);stop-opacity:1"/><stop offset="1" style="stop-color:rgb(249,196,64);stop-opacity:1"/></linearGradient>
        <linearGradient id="_Linear2" x1="0" y1="0" x2="1" y2="0" gradientUnits="userSpaceOnUse" gradientTransform="matrix(8.11971,21.0071,-21.0071,8.11971,13.3763,1106.13)"><stop offset="0" style="stop-color:rgb(249,196,64);stop-opacity:1"/><stop offset="1" style="stop-color:rgb(212,142,21);stop-opacity:1"/></linearGradient>
    </defs>
</svg>
