<svg xmlns="http://www.w3.org/2000/svg" fill-rule="evenodd" stroke-linecap="round" stroke-linejoin="round" viewBox="0 0 22 22"><path fill="url(#a)" d="M2.5 2.5h17v17h-17z"/><path fill="#2f7ede" fill-opacity=".99" d="m7 6 4 2v7l-2-1-2-8z"/><path fill="#164b88" d="M15.05 6 11 8v7l2-1 2.05-8z"/><path fill="#6fafde" fill-opacity=".99" d="m7 6 4-1 4.05 1L11 8 7 6z"/><g fill="none" stroke="#000"><path d="m15 6-2 8.5-2 1-2-1L7 6l4-1.5L15 6z"/><path d="M2.5 2.5h17v17h-17z"/></g><circle cx="3" cy="7" r="2" fill="#e84850"/><circle cx="3" cy="7" r="2" fill="none" stroke="#7a0000" stroke-width=".99"/><circle cx="19" cy="7" r="2" fill="#e84850"/><circle cx="19" cy="7" r="2" fill="none" stroke="#7a0000" stroke-width=".99"/><circle cx="11" cy="19" r="2" fill="#e84850"/><circle cx="11" cy="19" r="2" fill="none" stroke="#7a0000" stroke-width=".99"/><defs><linearGradient id="a" x1="10.34" x2="10.02" y1="2.5" y2="24.04" gradientUnits="userSpaceOnUse"><stop offset="0" stop-color="#fafafa"/><stop offset="1" stop-color="#d4d4d4"/></linearGradient></defs></svg>