<svg xmlns="http://www.w3.org/2000/svg" viewBox="0 0 22 22" fill-rule="evenodd" stroke-linecap="round" stroke-linejoin="round" xmlns:v="https://vecta.io/nano"><path fill="url(#A)" d="M2.5 2.5h17v17h-17z"/><path d="m7 6 4 1v8l-2-.75L7 6Z" fill="#2f7ede"/><path d="M15.05 6 11 7v8l2-.75L15.05 6Z" fill="#164b88"/><path d="m7 6 4-1 4.05 1L11 8 7 6Z" fill="#b5d2f3"/><g fill="none"><path d="m11 15-2-.75L7 6m4 9 2-.75L15.05 6M7 6l4-1 4.05 1" stroke="#333" stroke-width=".5"/><path stroke="#000" stroke-width=".95" d="M2.5 2.5h17v17h-17z"/></g><circle cx="3.02" cy="7.02" r="2.02" fill="#e84850"/><circle cx="3.02" cy="7.02" r="2.02" fill="none" stroke="#7a0000" stroke-width=".61"/><circle cx="18.98" cy="7.02" r="2.02" fill="#e84850"/><circle cx="18.98" cy="7.02" r="2.02" fill="none" stroke="#7a0000" stroke-width=".61"/><circle cx="11.02" cy="19.02" r="2.02" fill="#e84850"/><circle cx="11.02" cy="19.02" r="2.02" fill="none" stroke="#7a0000" stroke-width=".61"/><defs><linearGradient id="A" x1="10.338" y1="2.494" x2="10.018" y2="24.029" gradientUnits="userSpaceOnUse"><stop offset="0" stop-color="#fafafa"/><stop offset="1" stop-color="#d4d4d4"/></linearGradient></defs></svg>