<svg xmlns="http://www.w3.org/2000/svg" width="100%" height="100%" viewBox="0 0 22 22" fill-rule="evenodd" stroke-linecap="round" stroke-linejoin="round" xmlns:v="https://vecta.io/nano"><path d="M2.5 2.502h17v17h-17z" fill="url(#A)"/><path d="M7 6.002l4 1.5V15l-2-.498-2-8.5z" fill="#2f7ede"/><path d="M15.047 6.002l-4.047 1v8l2-.75 2.047-8.25z" fill="#164b88"/><path d="M7 6l4-.998 4.047 1-4.047 2L7 6z" fill="#b5d2f3"/><g fill="none"><path d="M11 15.002l-2-.5L7 6m4 9.002l2-.5L15 6m-8 .002l4-1 4 1" stroke="#333"/><path d="M2.5 2.502h17v17h-17z" stroke="#000"/></g><circle cx="3" cy="7.001" r="2" fill="#e84850"/><circle cx="3" cy="7" r="2" fill="none" stroke="#7a0000" stroke-width=".99"/><circle cx="19" cy="7.001" r="2" fill="#e84850"/><circle cx="19" cy="7.001" r="2" fill="none" stroke="#7a0000" stroke-width=".99"/><circle cx="11" cy="19.001" r="2" fill="#e84850"/><circle cx="11" cy="19.001" r="2" fill="none" stroke="#7a0000" stroke-width=".99"/><defs><linearGradient id="A" x1="10.339" y1="2.502" x2="10.018" y2="24.037" gradientUnits="userSpaceOnUse"><stop offset="0" stop-color="#fafafa"/><stop offset="1" stop-color="#d4d4d4"/></linearGradient></defs></svg>