<svg xmlns="http://www.w3.org/2000/svg" xml:space="preserve" style="fill-rule:evenodd;clip-rule:evenodd;stroke-linecap:round;stroke-linejoin:round" viewBox="0 0 22 22"><path d="M2.5 2.5h17v17h-17z" style="fill:#ececec;fill-opacity:.99"/><path d="M6.63 6.63H3v8.75h3.63" style="fill:#2f7ede"/><path d="M6 15V7h.63L11 11l-4.5 4H6ZM15.5 6.5h4l-.08 9H15.5" style="fill:#164b88"/><path d="M16 15.38V6.62h-.5L11 11l4.5 4.38h.5Z" style="fill:#2f7ede"/><path d="M6.5 6.5 11 11l-4.5 4.5h-4v-9h4ZM15.5 15.5 11 11l4.5-4.5h3.92v9H15.5" style="fill:none;stroke:#000;stroke-width:1px"/><path d="M2.5 2.5h17v17h-17z" style="fill:none;fill-rule:nonzero;stroke:#000;stroke-width:1px;stroke-linecap:butt"/><circle cx="11.02" cy="11.02" r="2.02" style="fill:#e84850"/><circle cx="11.02" cy="11.02" r="2.02" style="fill:none;stroke:#7a0000;stroke-width:1px"/></svg>