<svg xmlns="http://www.w3.org/2000/svg" fill-rule="evenodd" stroke-linecap="round" stroke-linejoin="round" viewBox="0 0 22 22"><path fill="url(#a)" d="M2.5 2.5h17v17h-17z"/><path fill="#2f7ede" d="M6.63 6.63H3v8.75h3.63"/><path fill="#164b88" d="M6 15V7h.63L11 11l-4.5 4H6zm9.5-8.5h4l-.08 9H15.5"/><path fill="#2f7ede" d="M16 15.38V6.62h-.5L11 11l4.5 4.38h.5z"/><g fill="none" stroke="#000"><path d="M6.5 6.5 11 11l-4.5 4.5h-4v-9h4zM15.5 15.5 11 11l4.5-4.5h3.92v9H15.5"/><path d="M2.5 2.5h17v17h-17z"/></g><circle cx="11.02" cy="11.02" r="2.02" fill="#e84850"/><circle cx="11.02" cy="11.02" r="2.02" fill="none" stroke="#7a0000"/><defs><linearGradient id="a" x1="10.34" x2="10.02" y1="2.5" y2="24.04" gradientUnits="userSpaceOnUse"><stop offset="0" stop-color="#fafafa"/><stop offset="1" stop-color="#d4d4d4"/></linearGradient></defs></svg>