<svg xmlns="http://www.w3.org/2000/svg" fill-rule="evenodd" stroke-linecap="round" stroke-linejoin="round" viewBox="0 0 22 22"><path fill="#2f7ede" d="M3 10c4.68 0 8.5 4.03 8.5 9H3v-9z"/><g fill="none"><path stroke="#71b0de" d="M11.5 19c0-4.9-3.6-8.5-8.5-8.5"/><path stroke="#000" d="M19 19.5H2.5m0-.11V3"/><g stroke="#164b88"><path d="m4.5 17.5 2-.5m2-.5 2-.5m2-.5 2-.5m2-.5 2-.5M4.5 17.5 6 16m1.5-1.5L9 13m1.5-1.5L12 10m1.5-1.5L15 7M4.5 17.5l.5-2m.5-2 .5-2m.5-2 .5-2m.5-2 .5-2"/></g></g><circle cx="16" cy="6" r="2" fill="#e84850"/><circle cx="16" cy="6" r="2" fill="none" stroke="#7a0000" stroke-width=".99"/></svg>