<svg xmlns="http://www.w3.org/2000/svg" xml:space="preserve" style="fill-rule:evenodd;clip-rule:evenodd;stroke-linecap:round;stroke-linejoin:round" viewBox="0 0 22 22"><path d="M2.5 2.5h17v17h-17z" style="fill:#ececec;fill-opacity:.99"/><path d="m7 6 4 2v7l-2-1-2-8Z" style="fill:#2f7ede;fill-opacity:.99"/><path d="M15.05 6 11 8v7l2-1 2.05-8Z" style="fill:#164b88"/><path d="m7 6 4-1 4.05 1L11 8 7 6Z" style="fill:#6fafde;fill-opacity:.99"/><path d="m15 6-2 8.5-2 1-2-1L7 6l4-1.5L15 6Z" style="fill:none;stroke:#000;stroke-width:1px"/><path d="M2.5 2.5h17v17h-17z" style="fill:none;stroke:#000;stroke-width:1px;stroke-linecap:butt"/><circle cx="3" cy="7" r="2" style="fill:#e84850"/><circle cx="3" cy="7" r="2" style="fill:none;stroke:#7a0000;stroke-width:.99px"/><circle cx="19" cy="7" r="2" style="fill:#e84850"/><circle cx="19" cy="7" r="2" style="fill:none;stroke:#7a0000;stroke-width:.99px"/><circle cx="11" cy="19" r="2" style="fill:#e84850"/><circle cx="11" cy="19" r="2" style="fill:none;stroke:#7a0000;stroke-width:.99px"/></svg>