<svg xmlns="http://www.w3.org/2000/svg" width="100%" height="100%" viewBox="0 0 22 22" fill-rule="evenodd" stroke-linecap="round" stroke-linejoin="round" xmlns:v="https://vecta.io/nano"><path d="M2.5 2.502h17v17h-17z" fill="url(#A)"/><path d="M6.625 6.627H3v8.75h3.625" fill="#2f7ede"/><path d="M6 15.502V6.627h.5L11 11v.002l-4.5 4.5H6zm9.5-9l3.922.125v8.75l-3.922.125" fill="#164b88"/><path d="M16 15.377v-8.75h-.5L11 11v.002l4.5 4.375h.5z" fill="#2f7ede"/><g fill="none"><path d="M6.5 6.502h-4v9h4m0-9l4.5 4.5-4.5 4.5m9-9h3.922v9H15.5m0-9l-4.5 4.5 4.5 4.5" stroke="#333"/><path d="M2.5 2.502h17v17h-17z" stroke="#000"/></g><circle cx="11.024" cy="11.026" r="2.024" fill="#e84850"/><circle cx="11.024" cy="11.025" r="2.024" fill="none" stroke="#7a0000"/><defs><linearGradient id="A" x1="10.339" y1="2.502" x2="10.018" y2="24.037" gradientUnits="userSpaceOnUse"><stop offset="0" stop-color="#fafafa"/><stop offset="1" stop-color="#d4d4d4"/></linearGradient></defs></svg>