<?xml version="1.0" encoding="UTF-8" standalone="no"?>
<!DOCTYPE svg PUBLIC "-//W3C//DTD SVG 1.1//EN" "http://www.w3.org/Graphics/SVG/1.1/DTD/svg11.dtd">
<svg width="100%" height="100%" viewBox="0 0 32 32" version="1.1" xmlns="http://www.w3.org/2000/svg" xmlns:xlink="http://www.w3.org/1999/xlink" xml:space="preserve" xmlns:serif="http://www.serif.com/" style="fill-rule:evenodd;clip-rule:evenodd;stroke-linecap:round;">
    <g id="Layer-1" serif:id="Layer 1" transform="matrix(1,0,0,1,0,-1090.52)">
        <path id="path873" d="M16,1106.52L2.5,1106.52" style="fill:none;fill-rule:nonzero;stroke:black;stroke-width:2px;"/>
        <path id="path875" d="M16,1106.52L16,1120.02" style="fill:none;fill-rule:nonzero;stroke:black;stroke-width:2px;"/>
        <path id="path877" d="M16,1106.52L16,1093.02" style="fill:none;fill-rule:nonzero;stroke:black;stroke-width:2px;"/>
        <path id="path879" d="M16,1106.52L29.5,1106.52" style="fill:none;fill-rule:nonzero;stroke:black;stroke-width:2px;"/>
        <path id="path869" d="M16,1106.52L2.5,1120.02" style="fill:none;fill-rule:nonzero;stroke:black;stroke-width:2px;"/>
        <path id="path871" d="M16,1106.52L29.5,1120.02" style="fill:none;fill-rule:nonzero;stroke:black;stroke-width:2px;"/>
        <path id="path867" d="M16,1106.52L2.5,1093.02" style="fill:none;fill-rule:nonzero;stroke:black;stroke-width:2px;"/>
        <path id="path865" d="M16,1106.52L29.5,1093.02" style="fill:none;fill-rule:nonzero;stroke:black;stroke-width:2px;"/>
        <circle id="path861" cx="16" cy="1106.52" r="3.333" style="fill:url(#_Linear1);"/>
        <circle id="circle863" cx="16" cy="1106.52" r="3.333" style="fill:none;stroke:rgb(122,0,0);stroke-width:1px;stroke-linejoin:round;"/>
        <path id="path1466" d="M30,1092.52L30,1120.52L2,1120.52L2,1092.52L30,1092.52Z" style="fill:none;fill-rule:nonzero;stroke:black;stroke-width:1px;stroke-linecap:butt;stroke-linejoin:round;"/>
    </g>
    <defs>
        <linearGradient id="_Linear1" x1="0" y1="0" x2="1" y2="0" gradientUnits="userSpaceOnUse" gradientTransform="matrix(6.73559e-16,11.0001,-11.0001,6.73559e-16,16,1103.52)"><stop offset="0" style="stop-color:rgb(198,38,46);stop-opacity:1"/><stop offset="1" style="stop-color:rgb(161,7,5);stop-opacity:1"/></linearGradient>
    </defs>
</svg>
