<svg xmlns="http://www.w3.org/2000/svg" viewBox="0 0 22 22" fill-rule="evenodd" stroke-linecap="round" stroke-linejoin="round" xmlns:v="https://vecta.io/nano"><path fill="url(#A)" d="M2.5 2.5h17v17h-17z"/><path d="M6.63 6.63H3v8.75h3.63" fill="#2f7ede"/><path d="M6.63 15.38V6.62L11 10v1l-4.38 4.38Zm8.75-8.75h4.04v8.75h-4.05" fill="#164b88"/><path d="M15.38 15.38V6.62L11 10v1l4.38 4.38Z" fill="#2f7ede"/><g fill="none"><g stroke="#333" stroke-width=".5"><path d="M6.63 6.63H3v8.75h3.63m0-8.75L11 10v1l-4.38 4.38m8.76-8.75h4.04v8.75h-4.05"/><path d="M15.38 6.63 11 10v1l4.38 4.38"/></g><path stroke="#000" d="M2.5 2.5h17v17h-17z"/></g><circle cx="11.02" cy="11.02" r="2.02" fill="#e84850"/><circle cx="11.02" cy="11.02" r="2.02" fill="none" stroke="#7a0000" stroke-width=".61"/><defs><linearGradient id="A" x1="10.338" y1="2.494" x2="10.018" y2="24.029" gradientUnits="userSpaceOnUse"><stop offset="0" stop-color="#fafafa"/><stop offset="1" stop-color="#d4d4d4"/></linearGradient></defs></svg>