<svg xmlns="http://www.w3.org/2000/svg" xml:space="preserve" style="fill-rule:evenodd;clip-rule:evenodd;stroke-linecap:round;stroke-linejoin:round" viewBox="0 0 22 22"><path d="M2.5 2.5h17v17h-17z" style="fill:url(#a)"/><path d="M6.6 6.6H3v8.8h3.6" style="fill:#2f7ede"/><path d="M6 15V7h.6l4.4 4-4.5 4H6ZM15.5 6.5h4v9h-4" style="fill:#164b88"/><path d="M16 15.4V6.6h-.5L11 11l4.5 4.4h.5Z" style="fill:#2f7ede"/><path d="M6.5 6.5 11 11l-4.5 4.5h-4v-9h4ZM15.5 15.5 11 11l4.5-4.5h4v9h-4" style="fill:none;stroke:#333;stroke-width:1px"/><path d="M2.5 2.5h17v17h-17z" style="fill:none;fill-rule:nonzero;stroke:#000;stroke-width:1px;stroke-linecap:butt"/><circle cx="11" cy="11" r="2" style="fill:#e84850"/><circle cx="11" cy="11" r="2" style="fill:none;stroke:#7a0000;stroke-width:1px"/><defs><linearGradient id="a" x1="0" x2="1" y1="0" y2="0" gradientTransform="matrix(-.32 21.535 -21.535 -.32 10.3 2.5)" gradientUnits="userSpaceOnUse"><stop offset="0" style="stop-color:#fafafa;stop-opacity:1"/><stop offset="1" style="stop-color:#d4d4d4;stop-opacity:1"/></linearGradient></defs></svg>