<?xml version="1.0" encoding="UTF-8" standalone="no"?>
<!DOCTYPE svg PUBLIC "-//W3C//DTD SVG 1.1//EN" "http://www.w3.org/Graphics/SVG/1.1/DTD/svg11.dtd">
<svg width="100%" height="100%" viewBox="0 0 24 24" version="1.1" xmlns="http://www.w3.org/2000/svg" xmlns:xlink="http://www.w3.org/1999/xlink" xml:space="preserve" style="fill-rule:evenodd;clip-rule:evenodd;stroke-linejoin:round;stroke-miterlimit:1.41421;">
    <g transform="matrix(1,0,0,1,-298,-94)">
        <g id="Arrow" transform="matrix(1,0,0,1,60,40.9959)">
            <rect x="238" y="53" width="24" height="24" style="fill:none;"/>
            <g>
                <g transform="matrix(1,0,0,1,-60,-40.9959)">
                    <g>
                        <path d="M309,111.996L305,114.996L305,96.996L317,109.996L312.333,109.996L314,113.996L310,115.996L309,111.996Z" style="fill:url(#_Linear1);"/>
                    </g>
                </g>
                <g transform="matrix(1.33333,0,0,1.33333,-159.333,-72.6667)">
                    <path d="M307,97.248L304.752,97.248L304.752,95L303.248,95L303.248,97.248L301,97.248L301,98.752L303.248,98.752L303.248,101L304.752,101L304.752,98.752L307,98.752L307,97.248Z" style="fill:url(#_Linear2);"/>
                </g>
                <g transform="matrix(0.941892,0,0,1.00645,17.5899,4.09413)">
                    <g transform="matrix(1.15677,0,0,1.15677,-97.5903,-13.3964)">
                        <path d="M294,57.883L302.262,66.472L298.59,66.472L297.299,67.68L294,69.908L294,57.883Z"/>
                    </g>
                    <g transform="matrix(-0.514118,0.296826,0.480095,0.831549,370.553,-78.4246)">
                        <path d="M301.564,60.636L297.637,60.854L299.678,69.673L303.612,69.464L301.564,60.636Z"/>
                    </g>
                </g>
            </g>
        </g>
    </g>
    <defs>
        <linearGradient id="_Linear1" x1="0" y1="0" x2="1" y2="0" gradientUnits="userSpaceOnUse" gradientTransform="matrix(-12,-34,34,-12,318,122)"><stop offset="0%" style="stop-color:rgb(0,162,255);stop-opacity:1"/><stop offset="100%" style="stop-color:rgb(0,96,161);stop-opacity:1"/></linearGradient>
        <linearGradient id="_Linear2" x1="0" y1="0" x2="1" y2="0" gradientUnits="userSpaceOnUse" gradientTransform="matrix(-9,-25.5,25.5,-9,313,115.253)"><stop offset="0%" style="stop-color:rgb(0,162,255);stop-opacity:1"/><stop offset="100%" style="stop-color:rgb(0,96,161);stop-opacity:1"/></linearGradient>
    </defs>
</svg>
