<?xml version="1.0"?>
<!-- Converted with SVG Converter - Version 0.9.6 (Compiled Fri Dec  1 22:15:06 2017) - Copyright (C) 2011 Nokia -->
<svg xmlns="http://www.w3.org/2000/svg" viewBox="0 0 24 24" width="100%" xml:space="preserve" version="1.1" xmlns:xlink="http://www.w3.org/1999/xlink" height="100%" baseProfile="tiny">
 <g transform="matrix(1,0,0,1,-247,-181)">
  <g transform="matrix(1,0,0,1,34,128)">
   <g id="flat_outlined">
    <rect style="fill:none;" width="24" id="brush-flat_outline" y="53" x="213" height="24"/>
    <g>
     <g transform="matrix(0.993017,0,0,0.977453,103.877,-79.7658)">
      <path style="fill:rgb(125,103,103);" d="M121.367,142.971C121.369,142.784 121.415,142.604 121.518,142.436C122.973,140.065 133.212,130.914 133.212,130.914C133.501,130.646 133.97,130.646 134.259,130.914L140.891,137.075C141.18,137.344 141.18,137.78 140.891,138.048C140.891,138.048 132.348,146.453 128.611,148.443C128.516,148.493 128.417,148.531 128.314,148.556C128.512,152.054 124.895,156.31 119.266,157.062C116.26,157.465 110.995,158.059 111.169,157.878C115.884,152.961 112.831,145.806 120.451,143.17C120.751,143.066 121.058,143.001 121.367,142.971Z"/>
     </g>
     <g transform="matrix(0.993017,0,0,0.977453,1.78097,1.4283)">
      <g transform="matrix(0.846185,0.846185,-0.921712,0.921712,150.393,-98.6806)">
       <path style="fill:url(#_Linear2);" d="M145,33.966C145,33.69 144.756,33.465 144.455,33.465L137.545,33.465C137.244,33.465 137,33.69 137,33.966C137,33.966 137.079,43.583 137.65,45.499C137.981,46.607 140.738,46.321 141.039,46.321C141.039,46.321 143.713,46.275 144.038,45.176C144.869,42.365 145,33.966 145,33.966Z"/>
       <g>
        <g transform="matrix(0,-1.05739,1.69479,3.15635e-16,85.8091,191.158)">
         <path d="M137.767,30.686C137.916,30.672 138.06,30.718 138.199,30.808C138.96,31.406 139,32.043 139,32.694C139,33.745 138.194,34.17 138.194,34.17C137.379,34.586 137.03,32.581 137.03,32.581C137.03,32.413 136.774,30.871 137.767,30.686Z"/>
        </g>
       </g>
      </g>
      <g transform="matrix(-0.283737,-1.05892,-1.12302,0.300911,363.17,282.594)">
       <path style="fill:url(#_Radial4);" d="M223.873,61.787C225.745,61.718 228.848,63.766 228.606,66.172C227.988,72.31 221.642,71.721 218.512,76.213C218.397,76.379 217.798,72.397 217.509,70.11C216.92,65.462 220.725,61.902 223.873,61.787Z"/>
      </g>
      <g transform="matrix(-0.283737,-1.05892,-1.12302,0.300911,363.17,282.594)">
       <path style="fill:url(#_Radial5);" d="M223.951,61.661C226.06,61.302 228.945,63.647 228.606,66.172C227.988,72.31 221.642,71.721 218.512,76.213C218.397,76.379 217.798,72.397 217.509,70.11C216.955,65.739 220.288,62.33 223.305,61.843C223.485,61.689 223.764,61.668 223.951,61.661Z"/>
      </g>
     </g>
    </g>
   </g>
  </g>
 </g>
 <defs>
  <linearGradient x1="0" id="_Linear2" x2="1" gradientUnits="userSpaceOnUse" y2="0" y1="0" gradientTransform="matrix(6.65716e-16,10.3816,-4.04219,0,140.452,33.9899)">
   <stop style="stop-color:rgb(214,214,214);stop-opacity:1" offset="0.0"/>
   <stop style="stop-color:rgb(110,110,110);stop-opacity:1" offset="1.0"/>
  </linearGradient>
  <radialGradient r="1" id="_Radial4" cx="0" gradientUnits="userSpaceOnUse" gradientTransform="matrix(-7.64907,-4.68614,-6.68617,9.70343,225.562,67.1009)" cy="0">
   <stop style="stop-color:rgb(255,206,152);stop-opacity:1" offset="0.0"/>
   <stop style="stop-color:rgb(220,174,124);stop-opacity:1" offset="0.5"/>
   <stop style="stop-color:rgb(107,72,36);stop-opacity:1" offset="1.0"/>
  </radialGradient>
  <radialGradient r="1" id="_Radial5" cx="0" gradientUnits="userSpaceOnUse" gradientTransform="matrix(-6.74835,8.71779,4.69583,3.2319,220.339,71.9824)" cy="0">
   <stop style="stop-color:rgb(21,0,21);stop-opacity:0" offset="0.0"/>
   <stop style="stop-color:rgb(21,0,21);stop-opacity:0.203922" offset="0.6"/>
   <stop style="stop-color:rgb(21,0,21);stop-opacity:1" offset="1.0"/>
  </radialGradient>
 </defs>
</svg>
