<svg xmlns="http://www.w3.org/2000/svg" viewBox="0 0 24 24" baseProfile="tiny"><path fill="none" d="M0 0h24v24H0z"/><path d="M11.86 6.455C13.25 4 21.408-4.808 21.408-4.808a.593.593 0 0 1 .874 0l5.538 5.89a.688.688 0 0 1 0 .93S20.382 9.698 17.262 11.6a1.302 1.302 0 0 1-.176.086l.184-.362s.242-1.553-1.265-3.155c-.933-.993-1.813-1.946-3.548-1.975-.24-.005-.426.052-.596.26z" fill="#6b6b6b"/><path d="M137.199 30.686c.629-.231 2.779-.316 3.974-.34.515.383.912.976 1.011 1.855v.972c-.087.695-.368 1.216-.746 1.596-1.034-.033-3.227-.161-4.105-.511l-.128-.105s.044.059.076.062c.032.003.115-.045.115-.045s.404-.425.404-1.476c0-.651.004-1.27-.401-1.886-.048-.073-.097-.117-.2-.122z" fill="url(#_Linear2)" transform="matrix(2.10739 -2.24156 1.43324 1.52449 -321.252 267.214)"/><path d="M141.173 30.346c.515.383.912.976 1.011 1.855v.972c-.087.695-.368 1.216-.746 1.596-1.034-.033-3.227-.161-4.105-.511-.455-.182-.474-1.677-.474-1.677l-.002-.711.02-.358c.028-.392.118-.743.322-.826.567-.228 2.762-.316 3.974-.34z" fill="url(#_Linear3)" transform="matrix(2.10739 -2.24156 1.43324 1.52449 -321.252 267.214)"/><path d="M138.195 30.776c.894.612.805 1.279.805 1.918 0 .83-.502 1.294-.707 1.446l-.088-.014c-.717-.168-.747-1.554-.747-1.554l-.002-.659.031-.332c.044-.364.185-.692.507-.766.065-.014.203-.038.201-.039z" fill="url(#_Radial4)" transform="matrix(1.33735 -1.42249 1.54595 1.64437 -220.324 152.079)"/><path d="M137.266 31.008a.805.805 0 0 1 .501-.322.636.636 0 0 1 .432.122c.877.616.868 1.235.868 1.886 0 1.051-.743 1.427-.84 1.499a.5.5 0 0 1-.283.034.462.462 0 0 1-.163-.074s-.729-1.451-.751-1.572l-.003-.711.043-.358.196-.504z" fill="url(#_Linear5)" transform="matrix(.97402 -1.03603 1.43324 1.52449 -166.307 102.405)"/><path d="M12.005 6.584c.119-.167.198-.24.565-.248 1.514.116 2.417.997 3.3 1.938 1.428 1.518 1.262 2.924 1.262 2.924-.188 1.4-3.233-1.153-3.233-1.153-.228-.243-2.559-2.22-1.894-3.461z"/><path d="M223.873 61.787c1.679.401 4.879 2.215 4.733 4.385-.618 6.138-6.964 5.549-10.094 10.041-.115.166-.714-3.816-1.003-6.103-.589-4.648 3.216-8.208 6.364-8.323z" fill="url(#_Linear6)" transform="matrix(-.26872 -1.06674 -1.0636 .30313 142.783 230.962)"/><path d="M229.921 63.501c-.673-1.841-2.152-3.331-3.663-4.144-.885-.313-1.764-.412-2.453-.277-3.53.691-7.189 5.383-5.697 10.522.734 2.528 2.118 6.913 2.218 6.705 2.687-5.535 9.765-6.073 9.595-12.806z" fill="url(#_Radial8)" transform="matrix(-.37762 -.88132 -.8833 .40781 153.605 184.028)"/><g fill-opacity=".665" stroke-opacity=".665"><path d="M226.69 62.817c-1.47-.196-2.884 1.058-3.761 2.123-1.99 2.419-3.483 5.234-5.638 7.508-.885.934-1.837 1.796-2.731 2.718-.301.31-.599.615-.922.904l-.278.247c-.042.037-.129.161-.131.105" fill="none" stroke="#8f5d32" stroke-width=".21" stroke-linecap="round" transform="matrix(.9471 0 0 1.00738 -199.482 -54.943)"/><path d="M226.699 62.261c-1.534.233-3.116.797-4.377 1.721-1.079.79-1.982 1.92-2.742 3.007-1.317 1.884-2.352 3.91-3.594 5.839-.865 1.343-2 2.579-3.043 3.788" fill="none" stroke="#8f5d32" stroke-width=".21" stroke-linecap="round" transform="matrix(.9471 0 0 1.00738 -199.482 -54.943)"/><path d="M226.67 61.806c-1.112.038-2.099.443-3.108.884-1.947.852-3.746 1.994-5.013 3.745-.868 1.201-1.493 2.606-1.998 3.995-.292.804-.511 1.632-.884 2.405-.598 1.242-1.528 2.32-2.486 3.301" fill="none" stroke="#8f5d32" stroke-width=".21" stroke-linecap="round" transform="matrix(.9471 0 0 1.00738 -199.482 -54.943)"/><path d="M226.684 61.365c-1.013.008-1.966.279-2.913.627-1.131.416-2.296 1.01-3.24 1.764-1.381 1.102-2.52 2.638-3.256 4.237-.558 1.21-.91 2.488-1.41 3.718-.517 1.272-1.144 2.463-1.798 3.667" fill="none" stroke="#8f5d32" stroke-width=".21" stroke-linecap="round" transform="matrix(.9471 0 0 1.00738 -199.482 -54.943)"/><path d="M226.348 61.65c-1.331-.472-3.022.029-4.263.588-2.555 1.154-4.412 3.04-5.412 5.68-.302.797-.47 1.637-.701 2.455-.173.616-.411 1.211-.637 1.809-.573 1.515-1.248 3.086-2.541 4.128" fill="none" stroke="#8f5d32" stroke-width=".21" stroke-linecap="round" transform="matrix(.9471 0 0 1.00738 -199.482 -54.943)"/><path d="M227.395 63.076c1.2 1.487 1.245 3.633.397 5.302-.38.746-.974 1.429-1.542 2.036-1.777 1.9-4.379 3.172-6.856 3.873-1.093.31-2.218.459-3.321.723-1.051.253-2.085.597-3.122.899" fill="none" stroke="#8f5d32" stroke-width=".21" stroke-linecap="round" transform="matrix(.9471 0 0 1.00738 -199.482 -54.943)"/><path d="M227.93 63.055c-.284 5.272-4.916 9.236-9.531 11.079-1.946.777-4.055.992-5.956 1.894" fill="none" stroke="#8f5d32" stroke-width=".21" stroke-linecap="round" transform="matrix(.9471 0 0 1.00738 -199.482 -54.943)"/><path d="M227.573 62.821c-.481 1.582-.983 3.284-1.918 4.666-2.315 3.42-6.126 5.352-9.697 7.164-1.507.764-2.986 1.583-4.478 2.377" fill="none" stroke="#8f5d32" stroke-width=".21" stroke-linecap="round" transform="matrix(.9471 0 0 1.00738 -199.482 -54.943)"/><path d="M227.172 62.171c.145.857-.175 1.531-.606 2.271-.728 1.25-1.746 2.374-2.769 3.388-2.223 2.203-4.561 4.422-7.211 6.111-1.932 1.232-4.061 2.124-6.132 3.087" fill="none" stroke="#8f5d32" stroke-width=".21" stroke-linecap="round" transform="matrix(.9471 0 0 1.00738 -199.482 -54.943)"/><path d="M227.569 62.987c-1.151.416-2.035 1.331-2.91 2.158-1.935 1.831-3.547 3.896-5.259 5.926-.465.551-1.009 1.03-1.522 1.534-1.567 1.538-3.207 2.997-4.766 4.54M227.416 61.859c-3.462.418-6.646 2.403-8.639 5.282-.674.973-1.137 2.064-1.675 3.113-.703 1.372-1.435 2.724-2.249 4.034" fill="none" stroke="#8f5d32" stroke-width=".21" stroke-linecap="round" transform="matrix(.9471 0 0 1.00738 -199.482 -54.943)"/><path d="M227.785 61.933c-3.455.919-6.123 3.038-8.131 5.975-.966 1.412-1.657 2.992-2.625 4.403-1.174 1.712-2.694 3.118-4.117 4.614" fill="none" stroke="#8f5d32" stroke-width=".21" stroke-linecap="round" transform="matrix(.9471 0 0 1.00738 -199.482 -54.943)"/><path d="M227.613 62.303c-1.424.53-2.703 1.654-3.76 2.721-1.927 1.944-3.568 4.099-5.267 6.239-1.438 1.812-3.247 3.314-4.941 4.878" fill="none" stroke="#8f5d32" stroke-width=".21" stroke-linecap="round" transform="matrix(.9471 0 0 1.00738 -199.482 -54.943)"/><path d="M227.317 63.456c-1.197 2.904-3.755 5.041-6.122 6.979-2.379 1.948-4.856 3.897-7.77 4.973" fill="none" stroke="#8f5d32" stroke-width=".21" stroke-linecap="round" transform="matrix(.9471 0 0 1.00738 -199.482 -54.943)"/><path d="M227.323 63.471c-.633 1.961-2.075 3.599-3.457 5.075-2.871 3.065-6.28 5.507-9.962 7.502" fill="none" stroke="#8f5d32" stroke-width=".21" stroke-linecap="round" transform="matrix(.9471 0 0 1.00738 -199.482 -54.943)"/><path d="M227.463 63.228c.119.588.154 1.137.132 1.735-.13 3.685-2.848 6.293-5.698 8.255-.959.66-1.93 1.284-2.962 1.825-1.041.547-2.118 1.08-3.233 1.46-1.217.415-2.479.564-3.736.8" fill="none" stroke="#8f5d32" stroke-width=".21" stroke-linecap="round" transform="matrix(.9471 0 0 1.00738 -199.482 -54.943)"/><path d="M227.612 63.398c-1.926 1.84-3.907 3.621-5.816 5.479-1.56 1.518-3.058 3.096-4.613 4.617-.852.833-1.786 1.576-2.601 2.446" fill="none" stroke="#8f5d32" stroke-width=".21" stroke-linecap="round" transform="matrix(.9471 0 0 1.00738 -199.482 -54.943)"/><path d="M226.732 62.36c-1.441.427-2.833 1.499-3.913 2.512-1.577 1.478-2.933 3.23-4.046 5.083-.873 1.454-1.555 3.009-2.464 4.443M225.578 61.42c-1.623.204-3.026.906-4.364 1.824-.655.449-1.317.892-1.898 1.436-1.489 1.395-2.593 3.261-3.261 5.184" fill="none" stroke="#8f5d32" stroke-width=".21" stroke-linecap="round" transform="matrix(.9471 0 0 1.00738 -199.482 -54.943)"/></g><g><path d="M228.232 64.462c-.859-1.588-2.955-2.727-4.359-2.675-3.148.115-6.953 3.675-6.364 8.323.144 1.144.367 2.711.567 3.971l.436 2.132c3.13-4.492 9.476-3.903 10.094-10.041.03-.297.009-.589-.057-.882l-.317-.828z" fill="url(#_Radial9)" transform="matrix(-.26917 -1.06851 -1.06303 .30297 142.85 231.376)"/></g><defs><linearGradient id="_Linear2" x2="1" gradientUnits="userSpaceOnUse" gradientTransform="matrix(.1081 3.46074 -2.35366 .15894 137.852 29.627)"><stop offset="0"/><stop offset=".2" stop-color="#0d0d0d"/><stop offset=".3" stop-color="#323232"/><stop offset=".3" stop-color="#5e5e5e"/><stop offset=".5" stop-color="#fff"/><stop offset=".9" stop-color="#5f5f5f"/><stop offset="1" stop-color="#515151" stop-opacity=".784"/></linearGradient><linearGradient id="_Linear3" x2="1" gradientUnits="userSpaceOnUse" gradientTransform="matrix(.12105 -2.03602 1.3847 .17798 138.727 35.091)"><stop offset="0"/><stop offset=".4" stop-color="#181818" stop-opacity=".686"/><stop offset="1" stop-color="#4b4b4b" stop-opacity="0"/></linearGradient><radialGradient r="1" id="_Radial4" cx="0" gradientUnits="userSpaceOnUse" gradientTransform="matrix(.92429 0 0 1.66105 138.098 32.432)" cy="0"><stop offset="0" stop-color="#d1d8dc"/><stop offset=".6" stop-color="#d1d8dc" stop-opacity=".824"/><stop offset=".8" stop-color="#d1d8dc" stop-opacity=".42"/><stop offset="1" stop-color="#d1d8dc" stop-opacity="0"/></radialGradient><linearGradient id="_Linear5" x2="1" gradientUnits="userSpaceOnUse" gradientTransform="matrix(-.03791 -3.27825 4.82387 -.02576 138.055 34.356)"><stop offset="0" stop-color="#3a4348"/><stop offset="1" stop-color="#d1d8dc"/></linearGradient><linearGradient id="_Linear6" x2="1" gradientUnits="userSpaceOnUse" gradientTransform="matrix(9.76828 3.14276 3.14276 -9.76828 218.27 64.46)"><stop offset="0" stop-color="#874e34"/><stop offset="1" stop-color="#844717"/></linearGradient><radialGradient r="1" id="_Radial8" cx="0" gradientUnits="userSpaceOnUse" gradientTransform="matrix(5.25593 2.02096 4.1531 -10.801 223.945 67.267)" cy="0"><stop offset="0" stop-color="#ffd38a"/><stop offset="1" stop-color="#ffd38a" stop-opacity="0"/></radialGradient><radialGradient r="1" id="_Radial9" cx="0" gradientUnits="userSpaceOnUse" gradientTransform="matrix(-6.95466 12.0478 9.86174 5.75568 219.746 74.352)" cy="0"><stop offset="0" stop-opacity="0"/><stop offset=".7" stop-opacity=".141"/><stop offset=".8" stop-opacity=".533"/><stop offset="1"/></radialGradient></defs></svg>