<?xml version="1.0"?>
<!-- Converted with SVG Converter - Version 0.9.6 (Compiled Fri Dec  1 22:15:06 2017) - Copyright (C) 2011 Nokia -->
<svg xmlns="http://www.w3.org/2000/svg" viewBox="0 0 24 24" width="100%" xml:space="preserve" version="1.1" xmlns:xlink="http://www.w3.org/1999/xlink" height="100%" baseProfile="tiny">
 <g transform="matrix(1,0,0,1,-221,-181)">
  <g transform="matrix(1,-5.55112e-17,1.11022e-16,1,90,128)">
   <g id="flat_outlined">
    <rect style="fill:none;" width="24" id="bucket-flat_outline" y="53" x="131" height="24"/>
    <g>
     <g transform="matrix(1.09031,6.05241e-17,-1.21048e-16,1.09031,9.31855,-123.536)">
      <path style="fill:rgb(54,119,134);" d="M121.054,161.246L133.005,154.347L140.258,166.529L127.752,173.045C127.644,173.24 127.301,173.561 127.003,173.713C126.664,173.886 126.082,174.171 125.717,174.08C125.377,174.239 125.203,174.486 124.997,174.703C124.775,174.938 123.946,175.633 123.113,176.406C122.241,177.217 121.071,178.981 120.429,180.013C119.878,180.899 119.925,181.582 119.377,182.477C119.221,182.733 118.533,182.723 118.15,182.516C117.722,182.283 117.816,182.114 117.621,181.49C117.552,181.662 116.241,182.646 116.131,182.677C115.86,182.752 115.405,183.228 115.122,182.896C114.867,182.596 114.791,182.078 114.757,181.704C114.665,180.714 114.839,179.696 115.168,178.763C115.682,177.304 115.7,175.768 116.3,174.312C116.518,173.783 116.957,173.44 116.592,173.72C116.071,174.12 115.528,173.633 115.468,173.022C115.334,171.64 115.801,170.232 116.579,169.154C117.173,168.331 118.151,167.176 119.126,165.985C118.625,164.236 118.653,162.774 119.276,162.09C119.284,162.08 119.293,162.07 119.304,162.06C119.384,161.977 119.474,161.906 119.573,161.849C119.601,161.833 119.629,161.818 119.658,161.804C119.822,161.702 119.989,161.609 120.067,161.564L120.071,161.562C120.178,161.499 120.272,161.445 120.325,161.415C120.539,161.291 120.785,161.237 121.054,161.246Z"/>
     </g>
     <g>
      <g transform="matrix(-0.517981,-0.897169,0.897169,-0.517981,168.339,215.903)">
       <rect style="fill:url(#_Linear2);" width="13" y="55" x="136" height="14.841"/>
      </g>
      <g transform="matrix(-0.534804,-0.926307,0.926307,-0.534804,166.804,222.325)">
       <path style="fill:rgb(193,193,193);" d="M142.5,55.636C145.672,55.715 148.367,56.186 148.936,57.413C149.011,57.573 149,58.147 149,58.318C149,59.798 146.087,61 142.5,61C138.913,61 136.219,59.782 136,58.318C135.654,56.003 138.875,55.545 142.5,55.636Z"/>
      </g>
      <g transform="matrix(-0.534804,-0.926307,0.926307,-0.534804,166.546,222.475)">
       <path style="fill:rgb(214,214,214);" d="M142.5,55.636C145.672,55.715 148.367,56.186 148.936,57.413C149.011,57.573 149,58.147 149,58.318C149,59.798 146.087,61 142.5,61C138.913,61 136.219,59.782 136,58.318C135.654,56.003 138.875,55.545 142.5,55.636Z"/>
      </g>
      <g transform="matrix(-0.534804,-0.926307,0.926307,-0.534804,166.053,222.759)">
       <ellipse style="fill:rgb(213,213,213);" ry="2.682" cx="142.5" rx="6.5" cy="58.318"/>
      </g>
      <g transform="matrix(-0.516133,-0.893969,0.838841,-0.484305,168.465,215.213)">
       <path style="fill:rgb(94,94,94);" d="M146.091,56.142C147.855,56.571 149,57.39 149,58.318C149,59.104 148.178,59.812 146.873,60.276L147.029,60.227C147.051,60.213 147.057,58.952 146.916,58.34L146.091,56.142Z"/>
      </g>
      <g transform="matrix(1.00066,0.268127,-0.268127,1.00066,12.6674,-39.9679)">
       <path style="fill:url(#_Linear3);" d="M144.813,74.446L144.33,75.448C144.191,75.681 143.904,76.263 143.557,76.024C143.245,75.808 143.045,75.343 142.919,75.004C142.586,74.103 142.495,73.111 142.568,72.158L142.525,70.519L142.868,69.809C143.014,69.555 143.189,67.637 143.263,67.337C143.514,66.332 144.608,64.389 144.741,64.148C144.782,64.074 144.884,63.897 144.858,63.798C144.832,63.703 144.815,63.502 144.736,63.437C144.622,63.343 144.456,63.395 144.325,63.43C144.032,63.509 143.743,63.625 143.529,63.848C143.318,64.069 143.185,64.364 143.023,64.618L142.646,65.627L142.643,65.624C142.565,66.065 142.428,66.585 142.158,66.936C141.771,67.44 141.342,67.305 141.135,66.751C140.664,65.496 141.027,64.046 141.483,62.847C141.857,61.863 142.549,60.411 143.202,58.954C143.202,58.954 143.679,57.449 144.018,56.889C144.324,56.385 145.164,55.564 145.188,55.571C146,55.796 147.462,56.792 148.943,58.273C151.387,60.716 152.643,63.458 151.822,64.504L151.807,64.504C151.807,64.504 150.561,65.255 150.2,65.922C149.676,66.89 149.464,67.093 148.881,68.023C148.27,68.997 147.669,70.623 147.329,71.745C147.036,72.71 147.096,73.76 146.809,74.732C146.727,75.009 146.602,75.63 146.193,75.532C145.917,75.466 145.725,75.257 145.591,74.987C145.601,74.321 145.607,72.878 145.852,71.898C145.952,71.501 146.484,69.913 146.379,69.524C146.374,69.504 146.337,69.251 146.281,69.244C145.759,69.182 145.56,69.918 145.414,70.264C145.067,71.087 144.929,71.873 144.812,72.753C144.732,73.35 144.691,73.865 144.813,74.446Z"/>
      </g>
      <g transform="matrix(1,5.55112e-17,-1.11022e-16,1,-90,-128)">
       <path style="fill:rgb(53,118,133);" d="M228.248,202.104C228.245,202.089 228.195,201.837 228.19,201.707L228.237,201.328L228.272,201.043L228.266,201.044C228.148,201.063 228.031,201.046 227.919,201.002L227.615,201.355C227.649,200.741 227.828,200.237 228.068,199.661C228.422,198.812 228.77,198.063 229.338,197.332C229.577,197.025 229.973,196.342 230.479,196.544C230.534,196.566 230.502,196.829 230.502,196.85C230.502,197.267 229.544,198.714 229.338,199.085C228.83,199.999 228.437,201.441 228.249,202.105L228.248,202.104Z"/>
      </g>
      <g transform="matrix(1,5.55112e-17,-1.11022e-16,1,-90,-128)">
       <path style="fill:rgb(53,118,133);" d="M227.114,194.014L227.707,192.782C227.847,192.486 227.897,192.208 227.805,191.958L227.811,191.95L228.46,191.041C228.69,190.83 228.902,190.571 229.172,190.407C229.446,190.241 229.767,190.202 230.08,190.202C230.221,190.202 230.401,190.194 230.49,190.319C230.552,190.405 230.515,190.611 230.515,190.713C230.515,190.819 230.366,190.969 230.305,191.032C230.106,191.237 228.491,192.888 227.971,193.826C227.816,194.106 227.126,195.979 226.912,196.194L226.378,196.812L226.516,196.238L226.72,195.287L227.114,194.014Z"/>
      </g>
     </g>
    </g>
   </g>
  </g>
 </g>
 <defs>
  <linearGradient x1="0" id="_Linear2" x2="1" gradientUnits="userSpaceOnUse" y2="0" y1="0" gradientTransform="matrix(-16.1809,-1.53972,1.53972,-16.1809,148.375,63.9016)">
   <stop style="stop-color:rgb(153,162,166);stop-opacity:1" offset="0.0"/>
   <stop style="stop-color:rgb(94,103,108);stop-opacity:1" offset="1.0"/>
  </linearGradient>
  <linearGradient x1="0" id="_Linear3" x2="1" gradientUnits="userSpaceOnUse" y2="0" y1="0" gradientTransform="matrix(4.02842,-11.0728,11.0728,4.02842,145.201,67.6929)">
   <stop style="stop-color:rgb(31,194,192);stop-opacity:1" offset="0.0"/>
   <stop style="stop-color:rgb(59,83,82);stop-opacity:1" offset="1.0"/>
  </linearGradient>
 </defs>
</svg>
