<svg xmlns="http://www.w3.org/2000/svg" viewBox="0 0 24 24" baseProfile="tiny"><path fill="none" d="M-.022 0h24v24h-24z"/><path d="M3.565 9.904L21.3-7.526l9.11 8.955-3.095 3.042-.07 2.283-16.058 15.504a.3.3 0 0 1-.419-.003c-1.202-1.195-7.23-7.188-8.17-8.12a.3.3 0 0 1-.077-.29l1.043-3.94z" fill="#427792"/><path d="M187.601 38.127l16.04-16.04 7.971 7.972-6.129 6.589-9.983 10.006a.29.29 0 0 1-.454-.057l-.589-.979-3.991-4.19-.01-.01-2.855-3.291z" fill="url(#_Linear2)" transform="matrix(1.02581 0 0 1.00807 -188.111 -28.237)"/><path fill="#588cdd" d="M22.883-8.031l8.095 7.954-8.27 8.128L14.613.096z"/><path d="M4.332 10.198l9.153 9.01-2.02 2.014a.3.3 0 0 1-.284-.076l-1.62-1.593-6.018-5.913a.288.288 0 0 1-.077-.282l.866-3.16z" fill="#b0a1b4"/><path d="M22.716 10.198L11.601 21.146a.286.286 0 0 1-.135.076l1.146-2.886 10.104-10.36c-.035.744.032 1.45 0 2.222z" fill="#8b7d90"/><path d="M26.246 6.718V4.494l-3.572 3.524v2.22l3.572-3.52z" fill="#3260b6"/><defs><linearGradient id="_Linear2" x2="1" gradientUnits="userSpaceOnUse" gradientTransform="matrix(-9.61413 0 0 -5.27227 216.939 38.903)"><stop offset="0" stop-color="#999"/><stop offset=".9" stop-color="#cbcbcb"/><stop offset="1" stop-color="#dbdbdb"/></linearGradient></defs></svg>