<?xml version="1.0" encoding="UTF-8" standalone="no"?>
<!DOCTYPE svg PUBLIC "-//W3C//DTD SVG 1.1//EN" "http://www.w3.org/Graphics/SVG/1.1/DTD/svg11.dtd">
<svg width="100%" height="100%" viewBox="0 0 24 24" version="1.1" xmlns="http://www.w3.org/2000/svg" xmlns:xlink="http://www.w3.org/1999/xlink" xml:space="preserve" style="fill-rule:evenodd;clip-rule:evenodd;stroke-linejoin:round;stroke-miterlimit:1.41421;">
    <g transform="matrix(1,0,0,1,-194,-154)">
        <g transform="matrix(1,0,0,1,-19.0222,127)">
            <g id="flat_outlined">
                <rect id="eraser-flat_outline" x="213" y="27" width="24" height="24" style="fill:none;"/>
                <clipPath id="_clip1">
                    <rect id="eraser-flat_outline1" x="213" y="27" width="24" height="24"/>
                </clipPath>
                <g clip-path="url(#_clip1)">
                    <g transform="matrix(1.14301,0,0,1.12325,1.55915,-5.33446)">
                        <path d="M188.124,37.604L203.641,22.087L211.612,30.059L208.904,32.767L208.842,34.799C208.842,34.799 196.462,46.964 194.794,48.602C194.692,48.703 194.528,48.702 194.427,48.6C193.375,47.536 188.101,42.2 187.28,41.37C187.214,41.303 187.188,41.205 187.212,41.112C187.39,40.426 188.124,37.604 188.124,37.604Z" style="fill:rgb(66,119,146);"/>
                    </g>
                    <g transform="matrix(1.02581,0,0,1.00807,24.9112,-1.2371)">
                        <path d="M187.601,38.127L203.641,22.087L211.612,30.059L205.483,36.648C205.483,36.648 197.101,45.049 195.5,46.654C195.437,46.717 195.348,46.748 195.26,46.737C195.171,46.726 195.092,46.674 195.046,46.597C194.814,46.212 194.457,45.618 194.457,45.618C194.457,45.618 190.619,41.59 190.466,41.428C190.462,41.425 190.459,41.421 190.456,41.418C190.33,41.273 187.601,38.127 187.601,38.127Z" style="fill:url(#_Linear2);"/>
                    </g>
                    <g transform="matrix(0.809452,0.795455,-0.516887,0.507949,100.269,-146.831)">
                        <rect x="188" y="32" width="10" height="16" style="fill:rgb(88,140,221);"/>
                    </g>
                    <g transform="matrix(0.989308,0,0,0.972201,130.666,-105.232)">
                        <path d="M87.625,146.503L96.877,155.77L94.836,157.842C94.836,157.843 94.808,157.852 94.761,157.852C94.681,157.852 94.605,157.82 94.549,157.764C94.062,157.278 92.91,156.125 92.91,156.125C92.91,156.125 87.698,150.914 86.828,150.043C86.752,149.967 86.722,149.857 86.75,149.753L87.625,146.503C87.625,146.503 87.625,146.503 87.625,146.503Z" style="fill:rgb(176,161,180);"/>
                    </g>
                    <g transform="matrix(0.989308,0,0,0.972201,130.666,-105.232)">
                        <path d="M106.208,146.503C106.208,146.503 96.789,155.943 94.973,157.764C94.939,157.799 94.894,157.827 94.836,157.842L95.995,154.873L106.208,144.218C106.172,144.982 106.24,145.709 106.208,146.503Z" style="fill:rgb(139,125,144);"/>
                    </g>
                    <g transform="matrix(0.796972,0.783191,-0.382977,0.376354,97.3215,-136.897)">
                        <path d="M197.977,41.348L196.557,38.394L196.566,47.738L197.983,50.687L197.977,41.348Z" style="fill:rgb(50,96,182);"/>
                    </g>
                </g>
            </g>
        </g>
    </g>
    <defs>
        <linearGradient id="_Linear2" x1="0" y1="0" x2="1" y2="0" gradientUnits="userSpaceOnUse" gradientTransform="matrix(-9.61413,1.88079e-15,4.42279e-15,-5.27227,216.939,38.9034)"><stop offset="0%" style="stop-color:rgb(153,153,153);stop-opacity:1"/><stop offset="92%" style="stop-color:rgb(203,203,203);stop-opacity:1"/><stop offset="100%" style="stop-color:rgb(219,219,219);stop-opacity:1"/></linearGradient>
    </defs>
</svg>
