<svg xmlns="http://www.w3.org/2000/svg" viewBox="0 0 24 24" baseProfile="tiny"><path fill="none" d="M-.022 0h24.044v24H-.022z"/><path d="M13.537 4.161l-2.426-2.53c-.315-.322.249-1.415.564-1.736l1.14-1.165a.796.796 0 0 1 1.142 0L16.595.99l5.59-5.037c3.375-2.979 9.84 1.61 7.157 5.677l-5.865 6.407 1.966 2.411a.836.836 0 0 1 0 1.164l-1.142 1.165c-.314.321-1.34.948-1.654.627l-2.555-2.068-8.737 8.978c-.9.238-3.07-1.235-3.774-.081 0 0-.704.652-1.728 1.696-.219.224-1.083.274-1.392.274-.31 0-.6.031-1.318-.701-.219-.223-.406-.7-.406-1.016 0-.315.135-1.006.353-1.23l1.796-1.993c1.1-.843-.42-2.929-.428-3.811l9.08-9.29zm1.611-.478l5.765 5.873-9.73 9.911c-.836.221-2.578-.672-3.232-.677l-2.449 2.495a1.07 1.07 0 0 1-1.528 0c-.666-.678.37.378-.295-.3a1.113 1.113 0 0 1 0-1.557l2.502-2.55c-.018-.676-.927-2.448-.762-3.283l9.73-9.912z" fill="#6f6f6f"/><path d="M98.978 27.35l6.571-6.298c2.898-2.508 8.448 1.355 6.145 4.778l-7.108 7.128-5.608-5.608z" fill="url(#_Linear2)" transform="matrix(1.08036 0 0 1.10058 -92.279 -26.269)"/><path d="M24.648 11.534l-.771.786c-.382.389-.93.463-1.222.165L12 1.63c-.269-.273-.229-.769.163-1.244l.771-.786 11.714 11.934z" fill="#bfa882"/><path d="M88.75 28.403h1.5a.75.75 0 0 1 .75.75V44.25a.75.75 0 0 1-.75.75h-.664V28.403h-.836z" fill="url(#_Linear3)" transform="matrix(.7058 -.719 .7058 .719 -70.686 43.942)"/><path d="M100.336 26.265l5.336 5.336-9.006 9.006c-.773.2-2.387-.611-2.992-.616l-2.267 2.267a.996.996 0 0 1-1.414 0l-.273-.273a1 1 0 0 1 0-1.415l2.316-2.316c-.016-.615-.858-2.225-.706-2.983l9.006-9.006z" fill="url(#_Linear4)" transform="matrix(1.08036 0 0 1.10058 -93.25 -25.222)"/><defs><linearGradient id="_Linear2" x2="1" gradientUnits="userSpaceOnUse" gradientTransform="scale(12.93544) rotate(45 2.095 10.403)"><stop offset="0" stop-color="#f2d7a7"/><stop offset="1" stop-color="#9a783d"/></linearGradient><linearGradient id="_Linear3" x2="1" gradientUnits="userSpaceOnUse" gradientTransform="rotate(90 30.296 60.456) scale(15.5563)"><stop offset="0" stop-color="#f2d7a7"/><stop offset="1" stop-color="#b3935b"/></linearGradient><linearGradient id="_Linear4" x2="1" gradientUnits="userSpaceOnUse" gradientTransform="rotate(45 10.84 130.818) scale(7.83958)"><stop offset="0" stop-color="#ebebeb" stop-opacity=".5"/><stop offset="1" stop-color="#8c8c8c" stop-opacity=".5"/></linearGradient></defs></svg>