<?xml version="1.0" encoding="UTF-8" standalone="no"?>
<!DOCTYPE svg PUBLIC "-//W3C//DTD SVG 1.1//EN" "http://www.w3.org/Graphics/SVG/1.1/DTD/svg11.dtd">
<svg width="100%" height="100%" viewBox="0 0 24 24" version="1.1" xmlns="http://www.w3.org/2000/svg" xmlns:xlink="http://www.w3.org/1999/xlink" xml:space="preserve" style="fill-rule:evenodd;clip-rule:evenodd;stroke-linejoin:round;stroke-miterlimit:1.41421;">
    <g transform="matrix(1,0,0,1,-194,-181)">
        <g transform="matrix(1,0,0,1,113.978,153)">
            <g id="flat_outlined">
                <rect id="eyedropper-flat_outline" x="80" y="28" width="24.044" height="24" style="fill:none;"/>
                <clipPath id="_clip1">
                    <rect id="eyedropper-flat_outline1" x="80" y="28" width="24.044" height="24"/>
                </clipPath>
                <g clip-path="url(#_clip1)">
                    <g transform="matrix(0.998142,0,0,1.01682,49.213,-109.912)">
                        <path d="M44.429,139.723L41.998,137.234C41.682,136.918 42.247,135.843 42.563,135.527L43.706,134.382C44.022,134.066 44.534,134.066 44.849,134.382L47.492,136.604L53.093,131.651C56.474,128.721 62.951,133.234 60.263,137.234L54.387,143.535L56.357,145.906C56.672,146.222 56.672,146.735 56.357,147.051L55.213,148.196C54.898,148.512 53.871,149.129 53.556,148.813L50.996,146.779L42.242,155.609C41.34,155.843 39.167,154.394 38.461,155.529C38.461,155.529 37.756,156.17 36.73,157.197C36.511,157.417 35.645,157.466 35.336,157.466C35.026,157.466 34.734,157.497 34.015,156.777C33.796,156.558 33.608,156.088 33.608,155.778C33.608,155.468 33.744,154.788 33.962,154.569L35.761,152.608C36.864,151.779 35.34,149.728 35.333,148.86L44.429,139.723ZM46.043,139.253L51.818,145.029L42.07,154.776C41.233,154.993 39.487,154.115 38.832,154.11C38.832,154.11 37.331,155.612 36.379,156.564C36.176,156.767 35.9,156.881 35.613,156.881C35.326,156.881 35.051,156.767 34.848,156.564C34.181,155.897 35.219,156.935 34.552,156.268C34.349,156.065 34.235,155.79 34.235,155.503C34.235,155.216 34.349,154.94 34.552,154.737L37.059,152.23C37.041,151.565 36.13,149.822 36.295,149.001L46.043,139.253Z" style="fill:rgb(111,111,111);"/>
                    </g>
                    <g transform="matrix(0.998142,0,0,1.01682,0.281861,-0.583015)">
                        <g transform="matrix(1.08237,0,0,1.08237,-12.5622,2.27614)">
                            <path d="M98.978,27.35L105.549,21.052C108.447,18.544 113.997,22.407 111.694,25.83L104.586,32.958L98.978,27.35Z" style="fill:url(#_Linear2);"/>
                        </g>
                        <g transform="matrix(0.924402,-0.924402,0.707107,0.707107,-10.0508,90.4468)">
                            <path d="M89.586,45L88.75,45C88.336,45 88,44.664 88,44.25L88,29.153C88,28.772 88.285,28.456 88.75,28.403L89.586,28.403L89.586,45Z" style="fill:rgb(191,168,130);"/>
                        </g>
                        <g transform="matrix(0.707107,-0.707107,0.707107,0.707107,9.07109,71.3249)">
                            <path d="M88.75,28.403L90.25,28.403C90.664,28.403 91,28.739 91,29.153L91,44.25C91,44.664 90.664,45 90.25,45L89.586,45L89.586,28.403L88.75,28.403Z" style="fill:url(#_Linear3);"/>
                        </g>
                        <g transform="matrix(1.08237,0,0,1.08237,-13.5353,3.30538)">
                            <path d="M100.336,26.265L105.672,31.601L96.666,40.607C95.893,40.807 94.279,39.996 93.674,39.991C93.674,39.991 92.287,41.379 91.407,42.258C91.22,42.446 90.966,42.551 90.7,42.551C90.435,42.551 90.181,42.446 89.993,42.258C89.377,41.642 90.336,42.601 89.72,41.985C89.532,41.797 89.427,41.543 89.427,41.277C89.427,41.012 89.532,40.758 89.72,40.57L92.036,38.254C92.02,37.639 91.178,36.029 91.33,35.271L100.336,26.265Z" style="fill:url(#_Linear4);"/>
                        </g>
                    </g>
                </g>
            </g>
        </g>
    </g>
    <defs>
        <linearGradient id="_Linear2" x1="0" y1="0" x2="1" y2="0" gradientUnits="userSpaceOnUse" gradientTransform="matrix(9.14674,9.14674,-9.14674,9.14674,103.093,20.2489)"><stop offset="0%" style="stop-color:rgb(242,215,167);stop-opacity:1"/><stop offset="100%" style="stop-color:rgb(154,120,61);stop-opacity:1"/></linearGradient>
        <linearGradient id="_Linear3" x1="0" y1="0" x2="1" y2="0" gradientUnits="userSpaceOnUse" gradientTransform="matrix(-2.66454e-15,15.5563,-15.5563,-2.66454e-15,90.7518,30.1601)"><stop offset="0%" style="stop-color:rgb(242,215,167);stop-opacity:1"/><stop offset="100%" style="stop-color:rgb(179,147,91);stop-opacity:1"/></linearGradient>
        <linearGradient id="_Linear4" x1="0" y1="0" x2="1" y2="0" gradientUnits="userSpaceOnUse" gradientTransform="matrix(5.54342,5.54342,-5.54342,5.54342,95.6771,30.6502)"><stop offset="0%" style="stop-color:rgb(235,235,235);stop-opacity:0.5"/><stop offset="100%" style="stop-color:rgb(140,140,140);stop-opacity:0.5"/></linearGradient>
    </defs>
</svg>
