<?xml version="1.0"?>
<!-- Converted with SVG Converter - Version 0.9.6 (Compiled Fri Dec  1 22:15:06 2017) - Copyright (C) 2011 Nokia -->
<svg xmlns="http://www.w3.org/2000/svg" viewBox="0 0 24 24" width="100%" xml:space="preserve" version="1.1" xmlns:xlink="http://www.w3.org/1999/xlink" height="100%" baseProfile="tiny">
 <g transform="matrix(1,0,0,1,-194,-121)">
  <g transform="matrix(1,0,0,1,113.978,93)">
   <g id="detailed">
    <rect style="fill:none;" width="24.044" id="eyedropper_detailed" y="28" x="80" height="24"/>
    <g>
     <g transform="matrix(1.12764,0,0,1.03382,-18.7171,5.73726)">
      <path style="fill:url(#_Linear2);" d="M100.462,36.571C99.803,37.292 98.767,38.201 98.016,38.986C97.453,39.574 96.95,40.343 96.14,40.558C95.595,40.703 94.16,39.969 93.597,39.994C93.479,39.999 93.323,40.111 93.229,40.187C92.472,40.799 90.95,42.979 90.375,42.662C90.047,42.339 89.411,42.083 89.541,41.516C89.671,41.332 89.766,41.28 89.965,41.296C90.075,41.305 90.16,41.512 90.279,41.498C90.396,41.484 90.589,41.21 90.706,41.18C90.836,41.148 90.797,40.837 90.933,40.804C91.112,40.761 91.222,40.668 91.393,40.591C91.533,40.528 91.727,40.57 91.869,40.519C92.023,40.464 92.38,40.269 92.527,40.264C92.739,40.256 92.807,40.083 92.974,39.995C93.062,39.948 93.256,39.823 93.318,39.783C93.531,39.647 93.492,39.79 93.7,39.601C93.903,39.417 94.151,39.592 94.357,39.468C94.584,39.331 94.67,39.028 94.948,38.95C95.279,38.856 95.313,38.656 95.649,38.565C95.894,38.499 96.003,38.215 96.284,38.189C96.551,38.165 96.868,38.405 97.112,38.308C97.593,38.116 97.316,38.137 97.841,38.042C98.27,37.965 98.277,37.771 98.698,37.659C99.029,37.57 99.219,37.291 99.503,37.134L100.462,36.571Z"/>
     </g>
     <g transform="matrix(1.05201,0,0,0.993316,-9.48258,7.25695)">
      <path style="fill:url(#_Linear3);" d="M87.211,41.541L87.499,41.031C87.945,40.567 87.712,40.709 88.365,40.188C88.968,39.708 89.871,38.62 90.589,38.321C91.004,38.148 91.236,37.78 91.673,37.664C92.291,37.5 92.693,36.902 93.324,36.792C93.539,36.755 93.748,36.855 93.957,36.883C94.436,36.946 94.908,36.43 95.335,36.283C95.677,36.165 96.06,36.304 96.406,36.189C96.689,36.095 97.076,36.012 97.391,35.9C100.202,34.903 99.981,35.492 98.907,36.532L97.904,37.143C97.599,37.307 97.404,37.606 97.049,37.698C96.598,37.815 96.59,38.016 96.13,38.097C95.567,38.195 95.868,38.177 95.353,38.376C95.091,38.478 94.715,38.294 94.429,38.32C94.127,38.346 94.061,38.589 93.798,38.658C93.437,38.752 93.404,38.963 93.048,39.06C92.751,39.142 92.651,39.45 92.408,39.592C92.187,39.721 91.94,39.559 91.723,39.751C91.5,39.947 91.528,39.784 91.3,39.926C91.234,39.967 91.025,40.098 90.931,40.146C90.752,40.238 90.659,40.399 90.432,40.407C90.274,40.412 89.898,40.621 89.734,40.679C89.582,40.732 89.371,40.685 89.22,40.751C89.037,40.831 88.936,40.945 88.744,40.99C88.599,41.025 88.66,41.367 88.52,41.401C88.395,41.431 88.185,41.688 88.06,41.702C87.931,41.717 87.773,41.459 87.655,41.45C87.442,41.433 87.34,41.487 87.201,41.679L87.203,41.569L87.211,41.541Z"/>
     </g>
     <g transform="matrix(1.13866,0,0,1.07513,-18.8027,3.22981)">
      <path style="fill:url(#_Linear4);" d="M98.978,27.35L105.549,21.052C108.447,18.544 113.997,22.407 111.694,25.83L104.586,32.958L98.978,27.35Z"/>
     </g>
     <g transform="matrix(0.743882,-0.70238,0.743882,0.70238,3.95566,71.817)">
      <path style="fill:url(#_Linear5);" d="M91,29.154C91,28.739 90.664,28.403 90.25,28.403L88.75,28.403C88.336,28.403 88,28.739 88,29.154L88,44.249C88,44.663 88.336,45 88.75,45L90.25,45C90.664,45 91,44.663 91,44.249L91,29.154Z"/>
     </g>
     <g transform="matrix(0.743882,-0.70238,0.743882,0.70238,2.90365,72.8103)">
      <path style="fill:url(#_Linear6);" d="M91,45L90.164,45C89.75,45 89.414,44.664 89.414,44.25L89.414,29.153C89.414,28.739 89.75,28.403 90.164,28.403L91,28.403L91,45Z"/>
     </g>
     <g transform="matrix(1.13866,0,0,1.07513,-19.8265,4.25216)">
      <path style="fill:url(#_Linear7);" d="M100.336,26.265L105.672,31.601L96.666,40.607C95.893,40.807 94.279,39.996 93.674,39.991C93.674,39.991 92.287,41.379 91.407,42.258C91.22,42.446 90.966,42.551 90.7,42.551C90.435,42.551 90.181,42.446 89.993,42.258C89.377,41.642 90.336,42.601 89.72,41.985C89.532,41.797 89.427,41.543 89.427,41.277C89.427,41.012 89.532,40.758 89.72,40.57L92.036,38.254C92.02,37.639 91.178,36.029 91.33,35.271L100.336,26.265Z"/>
     </g>
     <g transform="matrix(1.13866,0,0,1.07513,-19.8265,4.25216)">
      <path style="fill:url(#_Radial8);" d="M100.336,26.265L105.672,31.601L96.666,40.607C95.893,40.807 94.279,39.996 93.674,39.991C93.674,39.991 92.287,41.379 91.407,42.258C91.22,42.446 90.966,42.551 90.7,42.551C90.435,42.551 90.181,42.446 89.993,42.258C89.377,41.642 90.336,42.601 89.72,41.985C89.532,41.797 89.427,41.543 89.427,41.277C89.427,41.012 89.532,40.758 89.72,40.57L92.036,38.254C92.02,37.639 91.178,36.029 91.33,35.271L100.336,26.265Z"/>
     </g>
     <g transform="matrix(0.743882,0.70238,-0.514642,0.48593,42.0478,-44.8922)">
      <path style="fill:url(#_Linear9);" d="M94,31.464C94,30.656 93.547,30 92.989,30C92.431,30 91.978,30.656 91.978,31.464L91.978,48.536C91.978,49.344 92.431,50 92.989,50C93.547,50 94,49.344 94,48.536L94,31.464Z"/>
     </g>
     <g transform="matrix(0.21624,-0.204175,0.294488,0.278058,51.6213,55.2972)">
      <path style="fill:url(#_Linear10);" d="M89,41.112C89,40.503 88.328,40.009 87.5,40.009C86.672,40.009 86,40.503 86,41.112L86,42.927C86,43.536 86.672,44.031 87.5,44.031C88.328,44.031 89,43.536 89,42.927L89,41.112Z"/>
     </g>
     <g transform="matrix(0.241244,-0.227784,0.337183,0.318371,65.249,47.3065)">
      <rect style="fill:url(#_Linear11);" width="0.664" y="20" x="92.336" height="18"/>
     </g>
     <g transform="matrix(1.05201,0,0,0.993316,-9.48258,7.25695)">
      <path style="fill:white;fill-opacity:0.58862;" d="M98.524,26.581L98.522,26.769L98.389,26.907L98.24,27.059L97.901,27.402L97.513,27.792L97.085,28.22L96.623,28.678L96.137,29.159L95.633,29.655L95.121,30.158L94.608,30.66L94.102,31.153L93.611,31.63L93.144,32.083L92.707,32.503L92.31,32.883L91.96,33.216L91.666,33.493L91.368,33.772L91.219,33.912L91.069,34.052L90.919,34.191L90.767,34.329L90.613,34.466L90.458,34.6L90.395,34.653L90.33,34.705L90.264,34.756L90.197,34.807L90.063,34.909L89.998,34.96L89.934,35.012L89.872,35.064L89.812,35.118L89.785,35.144L89.757,35.171L89.731,35.199L89.705,35.226L89.681,35.254L89.657,35.282L89.635,35.31L89.614,35.339L89.595,35.368L89.577,35.397L89.56,35.427L89.548,35.449L89.547,35.456L89.543,35.478L89.54,35.508L89.533,35.587L89.527,35.682L89.513,35.892L89.505,35.995L89.501,36.044L89.496,36.089L89.352,36.209L89.238,36.056L89.243,36.014L89.247,35.97L89.255,35.872L89.268,35.663L89.275,35.565L89.282,35.479L89.287,35.44L89.292,35.404L89.299,35.372L89.305,35.351L89.313,35.332L89.335,35.289L89.358,35.25L89.381,35.212L89.406,35.175L89.433,35.139L89.46,35.104L89.488,35.07L89.518,35.037L89.548,35.004L89.578,34.973L89.61,34.942L89.642,34.911L89.707,34.852L89.774,34.796L89.842,34.741L89.911,34.687L90.046,34.584L90.112,34.534L90.176,34.485L90.237,34.436L90.296,34.387L90.448,34.255L90.599,34.12L90.75,33.984L90.899,33.846L91.049,33.707L91.197,33.568L91.495,33.289L91.789,33.013L92.138,32.681L92.535,32.302L92.971,31.882L93.439,31.43L93.929,30.954L94.435,30.461L94.948,29.96L95.46,29.458L95.964,28.963L96.45,28.482L96.911,28.025L97.34,27.598L97.727,27.209L98.065,26.867L98.213,26.715L98.346,26.578L98.524,26.581Z"/>
     </g>
    </g>
   </g>
  </g>
 </g>
 <defs>
  <linearGradient x1="0" id="_Linear2" x2="1" gradientUnits="userSpaceOnUse" y2="0" y1="0" gradientTransform="matrix(0.923903,10.7674,-10.7674,0.923903,94.0833,34.2075)">
   <stop style="stop-color:rgb(255,93,141);stop-opacity:1" offset="0.0"/>
   <stop style="stop-color:rgb(255,181,252);stop-opacity:1" offset="1.0"/>
  </linearGradient>
  <linearGradient x1="0" id="_Linear3" x2="1" gradientUnits="userSpaceOnUse" y2="0" y1="0" gradientTransform="matrix(1.87064e-16,3.05499,-3.05499,1.87064e-16,93.7515,35.3881)">
   <stop style="stop-color:rgb(255,253,249);stop-opacity:1" offset="0.0"/>
   <stop style="stop-color:rgb(255,144,178);stop-opacity:1" offset="1.0"/>
  </linearGradient>
  <linearGradient x1="0" id="_Linear4" x2="1" gradientUnits="userSpaceOnUse" y2="0" y1="0" gradientTransform="matrix(4.61951,4.61951,-4.61951,4.61951,102.237,25.1302)">
   <stop style="stop-color:rgb(192,147,116);stop-opacity:1" offset="0.0"/>
   <stop style="stop-color:rgb(231,198,156);stop-opacity:1" offset="0.2"/>
   <stop style="stop-color:rgb(243,214,168);stop-opacity:1" offset="0.5"/>
   <stop style="stop-color:rgb(233,201,158);stop-opacity:1" offset="0.8"/>
   <stop style="stop-color:rgb(212,173,137);stop-opacity:1" offset="0.9"/>
   <stop style="stop-color:rgb(192,147,116);stop-opacity:1" offset="1.0"/>
  </linearGradient>
  <linearGradient x1="0" id="_Linear5" x2="1" gradientUnits="userSpaceOnUse" y2="0" y1="0" gradientTransform="matrix(-5.32907e-15,9.89949,-9.89949,-5.32907e-15,89.5175,31.7488)">
   <stop style="stop-color:rgb(135,96,70);stop-opacity:1" offset="0.0"/>
   <stop style="stop-color:rgb(177,136,106);stop-opacity:1" offset="0.1"/>
   <stop style="stop-color:rgb(213,171,137);stop-opacity:1" offset="0.2"/>
   <stop style="stop-color:rgb(227,184,149);stop-opacity:1" offset="0.5"/>
   <stop style="stop-color:rgb(214,171,138);stop-opacity:1" offset="0.8"/>
   <stop style="stop-color:rgb(178,136,107);stop-opacity:1" offset="0.9"/>
   <stop style="stop-color:rgb(134,95,69);stop-opacity:1" offset="1.0"/>
  </linearGradient>
  <linearGradient x1="0" id="_Linear6" x2="1" gradientUnits="userSpaceOnUse" y2="0" y1="0" gradientTransform="matrix(8.67519,-0.469696,-0.0278272,8.66251,82.9779,36.5228)">
   <stop style="stop-color:rgb(74,50,46);stop-opacity:1" offset="0.0"/>
   <stop style="stop-color:rgb(98,73,63);stop-opacity:1" offset="0.7"/>
   <stop style="stop-color:rgb(163,138,110);stop-opacity:1" offset="0.8"/>
   <stop style="stop-color:rgb(242,215,167);stop-opacity:1" offset="1.0"/>
  </linearGradient>
  <linearGradient x1="0" id="_Linear7" x2="1" gradientUnits="userSpaceOnUse" y2="0" y1="0" gradientTransform="matrix(8.31512,7.71683,-7.71683,8.31512,94.0833,32.958)">
   <stop style="stop-color:white;stop-opacity:0.156863" offset="0.0"/>
   <stop style="stop-color:rgb(180,180,180);stop-opacity:0.505882" offset="1.0"/>
  </linearGradient>
  <radialGradient r="1" id="_Radial8" cx="0" gradientUnits="userSpaceOnUse" gradientTransform="matrix(8.11487,8.11487,-15.9066,15.9066,95.7016,36.2556)" cy="0">
   <stop style="stop-color:rgb(1,0,0);stop-opacity:0" offset="0.0"/>
   <stop style="stop-color:rgb(1,0,0);stop-opacity:1" offset="1.0"/>
  </radialGradient>
  <linearGradient x1="0" id="_Linear9" x2="1" gradientUnits="userSpaceOnUse" y2="0" y1="0" gradientTransform="matrix(2.47183,-0.0083417,0.00518121,3.97962,91.9167,39.7946)">
   <stop style="stop-color:white;stop-opacity:1" offset="0.0"/>
   <stop style="stop-color:white;stop-opacity:0" offset="1.0"/>
  </linearGradient>
  <linearGradient x1="0" id="_Linear10" x2="1" gradientUnits="userSpaceOnUse" y2="0" y1="0" gradientTransform="matrix(-9.73002,2.22045e-16,-8.88178e-16,-2.55779,90.685,42.6652)">
   <stop style="stop-color:rgb(52,52,52);stop-opacity:1" offset="0.0"/>
   <stop style="stop-color:rgb(52,52,52);stop-opacity:0.584314" offset="0.2"/>
   <stop style="stop-color:rgb(52,52,52);stop-opacity:0.176471" offset="0.4"/>
   <stop style="stop-color:rgb(52,52,52);stop-opacity:0" offset="1.0"/>
  </linearGradient>
  <linearGradient x1="0" id="_Linear11" x2="1" gradientUnits="userSpaceOnUse" y2="0" y1="0" gradientTransform="matrix(-0.147286,12.2768,-17.1592,-0.105378,92.809,23.6133)">
   <stop style="stop-color:rgb(103,103,103);stop-opacity:0" offset="0.0"/>
   <stop style="stop-color:rgb(103,103,103);stop-opacity:0.854902" offset="0.5"/>
   <stop style="stop-color:rgb(103,103,103);stop-opacity:0" offset="1.0"/>
  </linearGradient>
 </defs>
</svg>
