<?xml version="1.0" encoding="UTF-8" standalone="no"?>
<!DOCTYPE svg PUBLIC "-//W3C//DTD SVG 1.1//EN" "http://www.w3.org/Graphics/SVG/1.1/DTD/svg11.dtd">
<svg width="100%" height="100%" viewBox="0 0 24 24" version="1.1" xmlns="http://www.w3.org/2000/svg" xmlns:xlink="http://www.w3.org/1999/xlink" xml:space="preserve" style="fill-rule:evenodd;clip-rule:evenodd;stroke-linecap:round;stroke-linejoin:round;stroke-miterlimit:1.41421;">
    <g transform="matrix(1,0,0,1,-221,-154)">
        <g transform="matrix(1,0,0,1,-17,101)">
            <g id="flat_outlined">
                <rect id="hand-flat_outline" x="238" y="53" width="24" height="24" style="fill:none;"/>
                <clipPath id="_clip1">
                    <rect id="hand-flat_outline1" x="238" y="53" width="24" height="24"/>
                </clipPath>
                <g clip-path="url(#_clip1)">
                    <g id="outline" transform="matrix(1.23258,0,0,1.27367,-58.6308,-17.4364)">
                        <path d="M259.271,70C259.271,70 260.489,62.905 250.516,57.864C249.47,57.317 249,58 249,58C249,58 248.565,57.442 247,57C245.435,56.558 244.33,57.327 244.503,58.309C244.504,58.311 242.988,57.187 242,58C241.012,58.813 241.647,60.277 241.962,60.884C242.618,62.149 246.824,66.26 247.33,67.241C247.769,68.093 247.53,67.997 245.969,67.696C244.921,67.494 242.701,69.227 244,72C244.256,72.547 245.923,72.512 246.623,72.271C247.854,71.846 248.102,71.934 248.899,72.123C249.695,72.312 251.081,73.528 254,73.347C256.919,73.166 259.233,70.705 259.271,70" style="fill:rgb(147,78,68);"/>
                    </g>
                    <g transform="matrix(1.12869,0,0,1.16632,-32.6114,-10.4457)">
                        <path d="M259.271,70C259.271,70 260.489,62.905 250.516,57.864C249.47,57.317 249,58 249,58C249,58 248.565,57.442 247,57C245.435,56.558 244.33,57.327 244.503,58.309C244.504,58.311 242.988,57.187 242,58C241.012,58.813 242.074,60.117 242.389,60.724C243.046,61.989 247.494,66.019 248,67C248.439,67.852 248.541,69.008 246.98,68.707C245.932,68.505 242.701,69.227 244,72C244.256,72.547 245.923,72.512 246.623,72.271C247.854,71.846 248.102,71.934 248.899,72.123C249.695,72.312 251.081,73.528 254,73.347C256.919,73.166 259.233,70.705 259.271,70" style="fill:rgb(227,172,155);"/>
                        <clipPath id="_clip2">
                            <path d="M259.271,70C259.271,70 260.489,62.905 250.516,57.864C249.47,57.317 249,58 249,58C249,58 248.565,57.442 247,57C245.435,56.558 244.33,57.327 244.503,58.309C244.504,58.311 242.988,57.187 242,58C241.012,58.813 242.074,60.117 242.389,60.724C243.046,61.989 247.494,66.019 248,67C248.439,67.852 248.541,69.008 246.98,68.707C245.932,68.505 242.701,69.227 244,72C244.256,72.547 245.923,72.512 246.623,72.271C247.854,71.846 248.102,71.934 248.899,72.123C249.695,72.312 251.081,73.528 254,73.347C256.919,73.166 259.233,70.705 259.271,70"/>
                        </clipPath>
                        <g clip-path="url(#_clip2)">
                            <path d="M259.146,70.168C259.138,70.095 259.552,68.07 258.112,64.939C257.377,63.342 255.1,61.007 255.005,60.956C254.195,60.022 250.714,57.901 250.047,57.76C249.838,57.733 249.791,57.722 249.642,57.742C249.16,57.807 249,58.095 249,58.095C249,58.095 248.565,57.506 247,57.064C245.469,56.622 244.449,57.321 244.542,58.307C244.533,58.424 243.092,57.292 242.104,58.104C241.116,58.917 242.168,60.117 242.483,60.724C243.14,61.989 247.613,66.019 248.119,67C248.559,67.852 248.541,69.14 246.98,68.839C245.932,68.637 242.76,69.169 244.058,71.942C244.314,72.488 245.923,72.405 246.623,72.164C247.854,71.739 248.102,71.843 248.899,72.032C249.695,72.221 251.081,73.395 254,73.214C255.168,73.141 256.475,72.636 257.429,71.886C259.125,70.727 259.151,70.207 259.146,70.168Z" style="fill:rgb(227,172,155);"/>
                            <g transform="matrix(0.815913,0,0,0.815913,107.903,-35.0892)">
                                <path d="M167,114C167,114 173.168,118.605 174.527,120.817" style="fill:none;stroke:rgb(147,78,68);stroke-width:0.21px;"/>
                            </g>
                            <g transform="matrix(0.815913,0,0,0.815913,110.717,-36.8318)">
                                <path d="M167,114C167,114 173.922,119.605 175.28,121.817" style="fill:none;stroke:rgb(147,78,68);stroke-width:0.21px;"/>
                            </g>
                        </g>
                    </g>
                </g>
            </g>
        </g>
    </g>
</svg>
