<?xml version="1.0" encoding="UTF-8" standalone="no"?>
<!DOCTYPE svg PUBLIC "-//W3C//DTD SVG 1.1//EN" "http://www.w3.org/Graphics/SVG/1.1/DTD/svg11.dtd">
<svg width="100%" height="100%" viewBox="0 0 24 24" version="1.1" xmlns="http://www.w3.org/2000/svg" xmlns:xlink="http://www.w3.org/1999/xlink" xml:space="preserve" style="fill-rule:evenodd;clip-rule:evenodd;stroke-linejoin:round;stroke-miterlimit:1.41421;">
    <g transform="matrix(1,0,0,1,-272,-94)">
        <g transform="matrix(1,0,0,1,34,40.9959)">
            <g id="detailed">
                <rect id="hand_detailed" x="238" y="53" width="24" height="24" style="fill:none;"/>
                <clipPath id="_clip1">
                    <rect id="hand_detailed1" x="238" y="53" width="24" height="24"/>
                </clipPath>
                <g clip-path="url(#_clip1)">
                    <g transform="matrix(1.18451,0,0,1.18464,-46.6652,-11.9113)">
                        <path d="M259.271,70C259.271,70 260.489,62.905 250.516,57.864C249.47,57.317 249,58 249,58C249,58 248.565,57.442 247,57C245.435,56.558 244.33,57.327 244.503,58.309C244.504,58.311 242.988,57.187 242,58C241.012,58.813 242.074,60.117 242.389,60.724C243.046,61.989 247.494,66.019 248,67C248.439,67.852 248.541,69.008 246.98,68.707C245.932,68.505 242.701,69.227 244,72C244.256,72.547 245.923,72.512 246.623,72.271C247.854,71.846 248.102,71.934 248.899,72.123C249.695,72.312 251.081,73.528 254,73.347C256.919,73.166 259.233,70.705 259.271,70" style="fill:rgb(147,78,68);"/>
                    </g>
                    <g transform="matrix(1.15535,0,0,1.15547,-39.1022,-10.7141)">
                        <path d="M259.271,70C259.271,70 260.489,62.905 250.516,57.864C249.47,57.317 249,58 249,58C249,58 248.565,57.442 247,57C245.435,56.558 244.33,57.327 244.503,58.309C244.504,58.311 242.988,57.187 242,58C241.012,58.813 242.074,60.117 242.389,60.724C243.046,61.989 247.494,66.019 248,67C248.439,67.852 248.541,69.008 246.98,68.707C245.932,68.505 242.701,69.227 244,72C244.256,72.547 245.923,72.512 246.623,72.271C247.854,71.846 248.102,71.934 248.899,72.123C249.695,72.312 251.081,73.528 254,73.347C256.919,73.166 259.233,70.705 259.271,70" style="fill:rgb(226,185,171);"/>
                        <clipPath id="_clip2">
                            <path d="M259.271,70C259.271,70 260.489,62.905 250.516,57.864C249.47,57.317 249,58 249,58C249,58 248.565,57.442 247,57C245.435,56.558 244.33,57.327 244.503,58.309C244.504,58.311 242.988,57.187 242,58C241.012,58.813 242.074,60.117 242.389,60.724C243.046,61.989 247.494,66.019 248,67C248.439,67.852 248.541,69.008 246.98,68.707C245.932,68.505 242.701,69.227 244,72C244.256,72.547 245.923,72.512 246.623,72.271C247.854,71.846 248.102,71.934 248.899,72.123C249.695,72.312 251.081,73.528 254,73.347C256.919,73.166 259.233,70.705 259.271,70"/>
                        </clipPath>
                        <g clip-path="url(#_clip2)">
                            <path d="M259.198,70.429C259.189,70.356 259.631,67.991 258.191,64.86C257.456,63.263 255.1,61.007 255.005,60.956C254.195,60.022 250.714,57.901 250.047,57.76C249.838,57.733 249.791,57.722 249.642,57.742C249.16,57.807 249,58.095 249,58.095C249,58.095 248.565,57.506 247,57.064C245.469,56.622 244.449,57.321 244.542,58.307C244.533,58.424 243.092,57.292 242.104,58.104C241.116,58.917 242.168,60.117 242.483,60.724C243.14,61.989 247.613,66.019 248.119,67C248.559,67.852 248.541,69.14 246.98,68.839C245.932,68.637 242.595,69.343 243.894,72.116C244.15,72.663 245.923,72.74 246.623,72.499C247.854,72.074 247.865,72.08 248.662,72.269C249.458,72.458 251.081,73.693 254,73.512C255.168,73.439 256.475,72.941 257.429,72.191C259.125,71.032 259.202,70.468 259.198,70.429Z" style="fill:url(#_Linear3);"/>
                            <g transform="matrix(1,0,0,1,2.88024,-0.808437)">
                                <path d="M241.79,58.452C241.879,58.29 242.104,58.104 242.104,58.104C242.913,57.44 244.38,57.994 244.38,57.994C244.38,57.994 246.453,58.376 249.976,63.212C251.387,66.366 250.175,67.893 247.35,64.352C247.445,64.474 244.417,61.133 242.811,60.004C242.201,59.564 241.817,59.336 241.634,59.12C241.634,59.12 241.657,58.705 241.79,58.452Z" style="fill:url(#_Linear4);"/>
                            </g>
                            <g transform="matrix(1,0,0,1,7.47075,-1.07418)">
                                <path d="M242.635,60.143C243.397,60.885 245.917,64.093 245.822,63.971C248.647,67.512 250.667,67.087 249.255,63.933C246.409,60.33 242.852,58.82 242.51,58.819C242.267,58.8 241.991,58.799 241.728,59.016C241.671,59.062 241.873,59.592 242.635,60.143Z" style="fill:url(#_Linear5);"/>
                            </g>
                            <path d="M242.483,60.724C242.667,61.079 247.293,65.806 247.198,65.684C247.781,65.241 250.04,64.299 250.059,63.687C247.088,60.019 244.38,58.307 244.38,58.307C244.38,58.307 243.092,57.292 242.104,58.104C241.116,58.917 242.168,60.117 242.483,60.724Z" style="fill:url(#_Linear6);"/>
                            <g transform="matrix(1,0,0,1,-2.73263,2.73263)">
                                <path d="M244.417,55.7C246.787,57.279 251.936,64.329 251.2,65.643C250.898,66.444 249.801,66.4 249.216,65.992L249.712,65.974C251.274,66.276 251.172,65.119 250.733,64.267C250.227,63.286 245.778,59.257 245.122,57.991C244.857,57.48 244.062,56.475 244.417,55.7Z" style="fill:url(#_Radial7);"/>
                            </g>
                            <g transform="matrix(1,0,0,1,-2.73263,2.73263)">
                                <path d="M244.417,55.7C246.787,57.279 251.936,64.329 251.2,65.643C250.898,66.444 249.801,66.4 249.216,65.992L249.712,65.974C251.274,66.276 251.172,65.119 250.733,64.267C250.227,63.286 245.778,59.257 245.122,57.991C244.857,57.48 244.062,56.475 244.417,55.7Z" style="fill:url(#_Radial8);"/>
                            </g>
                            <path d="M244.507,58.285C244.405,57.277 245.487,56.573 247,57C248.565,57.442 249,58 249,58L249.038,57.971C249.812,59.244 251.897,62.605 250.234,63.6C250.212,63.609 248.419,61.783 248.131,61.468C247.821,61.129 247.435,60.677 247.033,60.325C246.722,60.051 246.404,59.766 246.078,59.506C245.555,59.087 244.62,58.461 244.509,58.302L244.507,58.285Z" style="fill:url(#_Radial9);"/>
                            <path d="M244.507,58.285C244.405,57.277 245.487,56.573 247,57C248.565,57.442 249,58 249,58L249.038,57.971C249.812,59.244 251.897,62.605 250.234,63.6C250.212,63.609 248.419,61.783 248.131,61.468C247.821,61.129 247.435,60.677 247.033,60.325C246.722,60.051 246.404,59.766 246.078,59.506C245.555,59.087 244.62,58.461 244.509,58.302L244.507,58.285Z" style="fill:url(#_Radial10);"/>
                            <path d="M248.931,57.944L249,58C249,58 249.47,57.317 250.516,57.864C250.811,58.014 252.658,60.938 253.11,62.492C253.055,62.571 253.06,62.514 253.033,62.56C253.012,62.596 252.101,61.363 251.719,60.89C251.374,60.463 250.981,60.042 250.621,59.631L248.913,57.987L248.931,57.944Z" style="fill:url(#_Radial11);"/>
                            <path d="M248.931,57.944L249,58C249,58 249.47,57.317 250.516,57.864C250.811,58.014 252.658,60.938 253.11,62.492C253.055,62.571 253.06,62.514 253.033,62.56C253.012,62.596 252.101,61.363 251.719,60.89C251.374,60.463 250.981,60.042 250.621,59.631L248.913,57.987L248.931,57.944Z" style="fill:url(#_Radial12);"/>
                        </g>
                    </g>
                </g>
            </g>
        </g>
    </g>
    <defs>
        <linearGradient id="_Linear3" x1="0" y1="0" x2="1" y2="0" gradientUnits="userSpaceOnUse" gradientTransform="matrix(-6.5273,-7.11213,7.11213,-6.5273,256.981,70.8336)"><stop offset="0%" style="stop-color:rgb(213,149,134);stop-opacity:1"/><stop offset="100%" style="stop-color:rgb(213,149,134);stop-opacity:0"/></linearGradient>
        <linearGradient id="_Linear4" x1="0" y1="0" x2="1" y2="0" gradientUnits="userSpaceOnUse" gradientTransform="matrix(5.36145,6.7147,-6.7147,5.36145,244.393,57.2457)"><stop offset="0%" style="stop-color:rgb(254,251,229);stop-opacity:0.40578"/><stop offset="100%" style="stop-color:rgb(254,251,229);stop-opacity:0"/></linearGradient>
        <linearGradient id="_Linear5" x1="0" y1="0" x2="1" y2="0" gradientUnits="userSpaceOnUse" gradientTransform="matrix(3.2846,5.06313,-5.06313,3.2846,244.393,57.2457)"><stop offset="0%" style="stop-color:rgb(254,251,229);stop-opacity:0.40578"/><stop offset="100%" style="stop-color:rgb(254,251,229);stop-opacity:0"/></linearGradient>
        <linearGradient id="_Linear6" x1="0" y1="0" x2="1" y2="0" gradientUnits="userSpaceOnUse" gradientTransform="matrix(5.36145,6.7147,-6.7147,5.36145,244.393,57.2457)"><stop offset="0%" style="stop-color:rgb(254,251,229);stop-opacity:0.40578"/><stop offset="100%" style="stop-color:rgb(254,251,229);stop-opacity:0"/></linearGradient>
        <radialGradient id="_Radial7" cx="0" cy="0" r="1" gradientUnits="userSpaceOnUse" gradientTransform="matrix(0.410869,-1.74372,8.0057,9.6933,247.074,61.1471)"><stop offset="0%" style="stop-color:rgb(187,97,88);stop-opacity:1"/><stop offset="100%" style="stop-color:rgb(187,97,88);stop-opacity:0"/></radialGradient>
        <radialGradient id="_Radial8" cx="0" cy="0" r="1" gradientUnits="userSpaceOnUse" gradientTransform="matrix(1.03251,-1.73367,3.33009,5.59151,245.781,60.8407)"><stop offset="0%" style="stop-color:white;stop-opacity:0"/><stop offset="54%" style="stop-color:white;stop-opacity:0"/><stop offset="100%" style="stop-color:white;stop-opacity:0"/></radialGradient>
        <radialGradient id="_Radial9" cx="0" cy="0" r="1" gradientUnits="userSpaceOnUse" gradientTransform="matrix(0.964097,-1.10352,3.10944,3.55911,245.858,60.1385)"><stop offset="0%" style="stop-color:white;stop-opacity:0"/><stop offset="54%" style="stop-color:white;stop-opacity:0"/><stop offset="100%" style="stop-color:white;stop-opacity:0"/></radialGradient>
        <radialGradient id="_Radial10" cx="0" cy="0" r="1" gradientUnits="userSpaceOnUse" gradientTransform="matrix(0.861646,-0.905365,4.01043,3.74273,246.721,60.6959)"><stop offset="0%" style="stop-color:rgb(187,97,88);stop-opacity:1"/><stop offset="100%" style="stop-color:rgb(187,97,88);stop-opacity:0"/></radialGradient>
        <radialGradient id="_Radial11" cx="0" cy="0" r="1" gradientUnits="userSpaceOnUse" gradientTransform="matrix(0.697308,-0.805287,2.24898,2.59724,249.895,60.0348)"><stop offset="0%" style="stop-color:white;stop-opacity:0"/><stop offset="54%" style="stop-color:white;stop-opacity:0"/><stop offset="100%" style="stop-color:white;stop-opacity:0"/></radialGradient>
        <radialGradient id="_Radial12" cx="0" cy="0" r="1" gradientUnits="userSpaceOnUse" gradientTransform="matrix(0.822198,-0.189178,4.31576,4.59807,250.686,60.0116)"><stop offset="0%" style="stop-color:rgb(187,97,88);stop-opacity:1"/><stop offset="100%" style="stop-color:rgb(187,97,88);stop-opacity:0"/></radialGradient>
    </defs>
</svg>
