<svg xmlns="http://www.w3.org/2000/svg" viewBox="0 0 24 24" baseProfile="tiny"><path fill="none" d="M0-.004h24v24H0z"/><path d="M22.444 18.01s1.443-8.406-10.37-14.377c-1.24-.648-1.796.16-1.796.16s-.515-.66-2.37-1.184c-1.853-.524-3.162.387-2.957 1.55.001.003-1.794-1.328-2.965-.365-1.17.963.088 2.508.461 3.227.778 1.498 6.047 6.272 6.646 7.434.52 1.01.641 2.38-1.208 2.023-1.241-.24-5.068.616-3.53 3.9.303.649 2.278.607 3.107.322 1.458-.504 1.752-.4 2.696-.176.943.224 2.585 1.665 6.042 1.45 3.458-.214 6.199-3.13 6.244-3.965" fill="#934e44"/><path d="M22.447 17.165S23.854 8.967 12.33 3.142c-1.208-.632-1.751.157-1.751.157s-.503-.645-2.31-1.155c-1.809-.511-3.086.377-2.886 1.512.001.002-1.75-1.296-2.891-.357-1.142.94.085 2.446.449 3.148.759 1.461 5.898 6.118 6.483 7.251.507.985.625 2.32-1.179 1.973-1.21-.234-4.944.6-3.443 3.805.296.632 2.222.591 3.03.313 1.423-.491 1.71-.39 2.63-.171.92.218 2.521 1.623 5.894 1.414 3.372-.21 6.046-3.053 6.09-3.867" fill="#e2b9ab"/><path d="M259.198 70.429c-.009-.073.433-2.438-1.007-5.569-.735-1.597-3.091-3.853-3.186-3.904-.81-.934-4.291-3.055-4.958-3.196-.209-.027-.256-.038-.405-.018-.482.065-.642.353-.642.353s-.435-.589-2-1.031c-1.531-.442-2.551.257-2.458 1.243-.009.117-1.45-1.015-2.438-.203-.988.813.064 2.013.379 2.62.657 1.265 5.13 5.295 5.636 6.276.44.852.422 2.14-1.139 1.839-1.048-.202-4.385.504-3.086 3.277.256.547 2.029.624 2.729.383 1.231-.425 1.242-.419 2.039-.23.796.189 2.419 1.424 5.338 1.243 1.168-.073 2.475-.571 3.429-1.321 1.696-1.159 1.773-1.723 1.769-1.762z" fill="url(#_Linear3)" transform="matrix(1.15535 0 0 1.15547 -277.102 -63.718)"/><path d="M241.79 58.452c.089-.162.314-.348.314-.348.809-.664 2.276-.11 2.276-.11s2.073.382 5.596 5.218c1.411 3.154.199 4.681-2.626 1.14.095.122-2.933-3.219-4.539-4.348-.61-.44-.994-.668-1.177-.884 0 0 .023-.415.156-.668z" fill="url(#_Linear4)" transform="matrix(1.15535 0 0 1.15547 -273.775 -64.652)"/><path d="M242.635 60.143c.762.742 3.282 3.95 3.187 3.828 2.825 3.541 4.845 3.116 3.433-.038-2.846-3.603-6.403-5.113-6.745-5.114-.243-.019-.519-.02-.782.197-.057.046.145.576.907 1.127z" fill="url(#_Linear5)" transform="matrix(1.15535 0 0 1.15547 -268.47 -64.96)"/><path d="M242.483 60.724c.184.355 4.81 5.082 4.715 4.96.583-.443 2.842-1.385 2.861-1.997-2.971-3.668-5.679-5.38-5.679-5.38s-1.288-1.015-2.276-.203c-.988.813.064 2.013.379 2.62z" fill="url(#_Linear6)" transform="matrix(1.15535 0 0 1.15547 -277.102 -63.718)"/><path d="M244.417 55.7c2.37 1.579 7.519 8.629 6.783 9.943-.302.801-1.399.757-1.984.349l.496-.018c1.562.302 1.46-.855 1.021-1.707-.506-.981-4.955-5.01-5.611-6.276-.265-.511-1.06-1.516-.705-2.291z" fill="url(#_Radial7)" transform="matrix(1.15535 0 0 1.15547 -280.26 -60.56)"/><path d="M244.417 55.7c2.37 1.579 7.519 8.629 6.783 9.943-.302.801-1.399.757-1.984.349l.496-.018c1.562.302 1.46-.855 1.021-1.707-.506-.981-4.955-5.01-5.611-6.276-.265-.511-1.06-1.516-.705-2.291z" fill="url(#_Radial8)" transform="matrix(1.15535 0 0 1.15547 -280.26 -60.56)"/><path d="M244.507 58.285c-.102-1.008.98-1.712 2.493-1.285 1.565.442 2 1 2 1l.038-.029c.774 1.273 2.859 4.634 1.196 5.629-.022.009-1.815-1.817-2.103-2.132-.31-.339-.696-.791-1.098-1.143-.311-.274-.629-.559-.955-.819-.523-.419-1.458-1.045-1.569-1.204l-.002-.017z" fill="url(#_Radial9)" transform="matrix(1.15535 0 0 1.15547 -277.102 -63.718)"/><path d="M244.507 58.285c-.102-1.008.98-1.712 2.493-1.285 1.565.442 2 1 2 1l.038-.029c.774 1.273 2.859 4.634 1.196 5.629-.022.009-1.815-1.817-2.103-2.132-.31-.339-.696-.791-1.098-1.143-.311-.274-.629-.559-.955-.819-.523-.419-1.458-1.045-1.569-1.204l-.002-.017z" fill="url(#_Radial10)" transform="matrix(1.15535 0 0 1.15547 -277.102 -63.718)"/><path d="M248.931 57.944L249 58s.47-.683 1.516-.136c.295.15 2.142 3.074 2.594 4.628-.055.079-.05.022-.077.068-.021.036-.932-1.197-1.314-1.67-.345-.427-.738-.848-1.098-1.259l-1.708-1.644.018-.043z" fill="url(#_Radial11)" transform="matrix(1.15535 0 0 1.15547 -277.102 -63.718)"/><path d="M248.931 57.944L249 58s.47-.683 1.516-.136c.295.15 2.142 3.074 2.594 4.628-.055.079-.05.022-.077.068-.021.036-.932-1.197-1.314-1.67-.345-.427-.738-.848-1.098-1.259l-1.708-1.644.018-.043z" fill="url(#_Radial12)" transform="matrix(1.15535 0 0 1.15547 -277.102 -63.718)"/><defs><linearGradient id="_Linear3" x2="1" gradientUnits="userSpaceOnUse" gradientTransform="scale(-9.6534) rotate(47.455 -4.963 -33.951)"><stop offset="0" stop-color="#d59586"/><stop offset="1" stop-color="#d59586" stop-opacity="0"/></linearGradient><linearGradient id="_Linear4" x2="1" gradientUnits="userSpaceOnUse" gradientTransform="scale(8.59257) rotate(51.394 7.299 32.885)"><stop offset="0" stop-color="#fefbe5" stop-opacity=".406"/><stop offset="1" stop-color="#fefbe5" stop-opacity="0"/></linearGradient><linearGradient id="_Linear5" x2="1" gradientUnits="userSpaceOnUse" gradientTransform="rotate(57.027 69.51 253.553) scale(6.03522)"><stop offset="0" stop-color="#fefbe5" stop-opacity=".406"/><stop offset="1" stop-color="#fefbe5" stop-opacity="0"/></linearGradient><linearGradient id="_Linear6" x2="1" gradientUnits="userSpaceOnUse" gradientTransform="scale(8.59257) rotate(51.394 7.299 32.885)"><stop offset="0" stop-color="#fefbe5" stop-opacity=".406"/><stop offset="1" stop-color="#fefbe5" stop-opacity="0"/></linearGradient><radialGradient r="1" id="_Radial7" cx="0" gradientUnits="userSpaceOnUse" gradientTransform="matrix(.41087 -1.74372 8.0057 9.6933 247.074 61.147)" cy="0"><stop offset="0" stop-color="#bb6158"/><stop offset="1" stop-color="#bb6158" stop-opacity="0"/></radialGradient><radialGradient r="1" id="_Radial8" cx="0" gradientUnits="userSpaceOnUse" gradientTransform="matrix(1.03251 -1.73367 3.33009 5.59151 245.781 60.84)" cy="0"><stop offset="0" stop-color="#fff" stop-opacity="0"/><stop offset=".5" stop-color="#fff" stop-opacity="0"/><stop offset="1" stop-color="#fff" stop-opacity="0"/></radialGradient><radialGradient r="1" id="_Radial9" cx="0" gradientUnits="userSpaceOnUse" gradientTransform="matrix(.9641 -1.10352 3.10944 3.55911 245.858 60.139)" cy="0"><stop offset="0" stop-color="#fff" stop-opacity="0"/><stop offset=".5" stop-color="#fff" stop-opacity="0"/><stop offset="1" stop-color="#fff" stop-opacity="0"/></radialGradient><radialGradient r="1" id="_Radial10" cx="0" gradientUnits="userSpaceOnUse" gradientTransform="matrix(.86165 -.90536 4.01043 3.74273 246.721 60.696)" cy="0"><stop offset="0" stop-color="#bb6158"/><stop offset="1" stop-color="#bb6158" stop-opacity="0"/></radialGradient><radialGradient r="1" id="_Radial11" cx="0" gradientUnits="userSpaceOnUse" gradientTransform="matrix(.6973 -.80529 2.24898 2.59724 249.895 60.035)" cy="0"><stop offset="0" stop-color="#fff" stop-opacity="0"/><stop offset=".5" stop-color="#fff" stop-opacity="0"/><stop offset="1" stop-color="#fff" stop-opacity="0"/></radialGradient><radialGradient r="1" id="_Radial12" cx="0" gradientUnits="userSpaceOnUse" gradientTransform="matrix(.8222 -.18918 4.31576 4.59807 250.686 60.012)" cy="0"><stop offset="0" stop-color="#bb6158"/><stop offset="1" stop-color="#bb6158" stop-opacity="0"/></radialGradient></defs></svg>