<svg xmlns="http://www.w3.org/2000/svg" viewBox="0 0 24 24" baseProfile="tiny"><path fill="none" d="M0 0h24v24H0z"/><path d="M13.933 4.95c-.526-.772-.83-1.568-.473-2.165C15.078.08 25.489-9.188 25.489-9.188c.312-.31.801-.33 1.09-.041l6.65 6.619c.29.289.271.775-.042 1.087 0 0-8.89 10.607-11.65 12.3-.012.006-.024.014-.036.022-.612.364-1.544-.044-2.449-.673-.131.14-.587.607-.713.75-1.739 1.98-4.538 7.006-4.879 7.034-.16.012-2.005.257-3.142.641-2.31.753-7.836 2.953-7.836 2.953s1.78-3.999 2.456-5.945c.68-1.601.871-4.722 1.104-5.05.205-.288 5.715-3.942 7.379-5.166.171-.127.343-.259.512-.393z" fill="#969696"/><path d="M136.967 41.876c-.519-2.211.033-7.375.033-7.375 0-.277.244-.501.545-.501h6.91c.301 0 .545.224.545.501 0 0 .831 4.892.4 7.324-.456-.572-8.433.051-8.433.051z" fill="url(#_Linear2)" transform="matrix(.84399 .84027 -.91932 .91527 -59.755 -153.581)"/><path d="M138.503 30.19c.293.675.497 1.709.497 2.504 0 .731-.148 1.697-.384 2.387-.548.029-1.031.017-1.304-.067l-.113-4.691c.233-.094.72-.133 1.304-.133z" fill="url(#_Linear3)" transform="matrix(2.21935 -2.20956 1.50938 1.50273 -336.217 260.762)"/><path d="M138.505 30.193c.291.672.495 1.706.495 2.501 0 .731-.148 1.697-.379 2.373l-.379.023-.479-.028.618.019c.236-.69.384-1.656.384-2.387 0-.78-.196-1.79-.497-2.504l.237.003z" fill="url(#_Linear4)" transform="matrix(2.21935 -2.20956 1.50938 1.50273 -335.695 260.241)"/><path d="M14.165 3.016c.24-.1.506-.095.506-.095 1.682.12 3.234 1.584 4.217 2.562 1.586 1.58 2.623 3.092 2.623 4.39 0 .054-.335.256-.343.262-1.285.732-4.472-2.81-4.472-2.81-.253-.252-3.393-2.855-2.652-4.146 0 0 .056-.136.121-.163z" fill="#476b98"/><path d="M14.312 3.526c.371-.37 1.76-.39 4.374 2.212 1.494 1.488 2.99 3.523 2.376 4.134-.613.61-2.174-.703-4.014-2.227-1.765-1.797-3.106-3.75-2.736-4.119z" fill="#021112"/><path d="M136.982 42.182c.409-1.185.564-2.843.596-3.23a.167.167 0 0 1 .076-.128c.538-.351 4.048-2.641 5.229-3.514 1.208-.894 2.296-2.024 2.296-2.024l3.519 3.519s-1.171 1.11-2.03 2.27c-.873 1.181-3.157 4.68-3.504 5.211a.165.165 0 0 1-.125.075c-.333.033-1.632.177-2.665.534-1.394.482-5.647 2.367-5.647 2.367s1.773-3.685 2.255-5.08z" fill="url(#_Linear5)" transform="matrix(1.19358 0 0 1.18832 -157.41 -35.524)"/><path d="M3.708 19.981l5.865-5.839a1.232 1.232 0 0 1 1.057-1.865c.382 0 .725.174.943.467a1.111 1.111 0 0 0-.766-.288c-.68 0-1.234.55-1.234 1.229 0 .231.067.45.178.634l-6.34 6.314-.014.005.311-.657z" fill="#bababa"/><path d="M3.41 20.631l6.342-6.31a1.232 1.232 0 0 1 1.057-1.865c.681-.001 1.234.55 1.234 1.228 0 .678-.553 1.228-1.234 1.228-.28 0-.534-.09-.74-.245l-5.49 5.468-1.168.496z"/><path d="M136.982 42.182c.409-1.185.564-2.843.596-3.23a.167.167 0 0 1 .076-.128c.538-.351 4.048-2.641 5.229-3.514 1.208-.894 2.381-2.121 2.381-2.121l3.535 3.536s-1.272 1.19-2.131 2.35c-.873 1.181-3.155 4.719-3.503 5.26a.168.168 0 0 1-.127.076c-.336.029-1.632.16-2.664.517-1.394.481-5.647 2.334-5.647 2.334s1.773-3.685 2.255-5.08z" fill="url(#_Linear6)" transform="matrix(1.19358 0 0 1.18832 -157.41 -35.524)"/><defs><linearGradient id="_Linear2" x2="1" gradientUnits="userSpaceOnUse" gradientTransform="matrix(5.82887 0 0 5.10734 137.284 41.035)"><stop offset="0" stop-color="#cfddf5"/><stop offset="1" stop-color="#344fa6"/></linearGradient><linearGradient id="_Linear3" x2="1" gradientUnits="userSpaceOnUse" gradientTransform="matrix(0 3.96482 -2.69649 0 138.395 31.557)"><stop offset="0" stop-color="#e8e8e8"/><stop offset="1" stop-color="#264453"/></linearGradient><linearGradient id="_Linear4" x2="1" gradientUnits="userSpaceOnUse" gradientTransform="matrix(0 3.96482 -2.69649 0 138.609 30.896)"><stop offset="0" stop-color="#dbdbdb"/><stop offset="1" stop-color="#293e59"/></linearGradient><linearGradient id="_Linear5" x2="1" gradientUnits="userSpaceOnUse" gradientTransform="matrix(8.37815 7.57374 -7.54033 8.41526 139.42 37.468)"><stop offset="0" stop-color="#fff"/><stop offset="1" stop-color="#3b3b3b"/></linearGradient><linearGradient id="_Linear6" x2="1" gradientUnits="userSpaceOnUse" gradientTransform="rotate(135 65.877 48.009) scale(7.06677)"><stop offset="0"/><stop offset=".2" stop-opacity=".576"/><stop offset=".4" stop-opacity=".173"/><stop offset="1" stop-opacity="0"/></linearGradient></defs></svg>