<svg xmlns="http://www.w3.org/2000/svg" viewBox="0 0 24 24" baseProfile="tiny"><path fill="none" d="M0 0h24v24H0z"/><path d="M85.883 8.61l3.319 6.529c-2.416 6.108-4.998 6.657-7.797 0l3.062-6.547.163.245a.778.778 0 0 0 1.102 0l.151-.227z" fill="url(#_Linear2)" transform="scale(-1.99505 -1.89148) rotate(45 64.746 -106.715)"/><path d="M5.736 20.463L20.7 10.115l-1.472 6.477L5.68 21.229c.149-.162.108-.523.108-.523l-.053-.243z" fill="#9f8617" fill-opacity=".423"/><path d="M86.115 19.98l9.547-15.017-1.274 6.738 6.678-1.328-14.429 10.525a1.58 1.58 0 0 0-.522-.918z" fill="url(#_Linear3)" transform="matrix(1.03702 0 0 .98319 -84.108 -.083)"/><path d="M5.201 19.565c.26.188.452.477.535.898l.053.243s.04.361-.108.523l-.01.023c-.378.215-1.732.659-2.155.742-.15.029-.36-.019-.453-.101-.078-.068-.13-.296-.108-.394.094-.403.532-1.787.745-2.165.085-.152.534-.103.534-.103.36 0 .69.117.96.33l.007.004z" fill="#2a281d"/><path d="M4.193 19.562l-.034.07-.032.07-.031.07-.03.07-.028.07-.027.072-.054.143-.051.145-.05.145-.053.147-.053.146-.018.05-.02.05-.04.098-.018.049-.019.049-.017.048-.016.05-.008.02-.013.026-.03.057-.014.026-.01.019v.004l-.002.003v.003-.003l-.012.02-.003.001-.003.001h-.011l-.003-.002-.003-.002-.002-.003h-.001l-.002-.003-.002-.002-.001-.003v-.004l-.001-.001v-.008l.002-.007.003-.01.01-.023.013-.027.028-.058.01-.024.006-.016.014-.05.014-.05.017-.05.018-.05.034-.101.016-.05.016-.05.043-.148.042-.15.041-.148.042-.148.042-.149.023-.075.023-.074.025-.075.026-.075.027-.074.028-.074.107-.042.042.107zm-.672 1.687l-.002-.005-.012-.003.014.008z" fill="#e4e3df"/><path d="M99.593 16.864l1.473-6.491" fill="none" stroke="url(#_Linear4)" stroke-width=".21" transform="matrix(1.03702 0 0 .98319 -84.108 -.083)"/><path d="M101.066 10.373l-6.678 1.328.038-.121" fill="none" stroke="url(#_Linear5)" stroke-width=".21" transform="matrix(1.03702 0 0 .98319 -84.108 -.083)"/><path d="M101.066 10.373l-6.678 1.328-.087-.086 1.351-6.656-6.612 1.395L100.354-4.96 110.96 5.646l-10.036 10.037 3.12-3.175L104 8l-2.934 2.373z" fill="url(#_Linear6)" transform="matrix(1.03702 0 0 .98319 -84.108 -.083)"/><path d="M95.652 4.959l-6.508 1.419" fill="none" stroke="url(#_Linear7)" stroke-width=".21" transform="matrix(1.03702 0 0 .98319 -84.108 -.083)"/><path d="M14.409-.083h5.952l-5.424 4.91-6.709 1.337 6.18-6.247z" fill="#fee576"/><path d="M15.096 4.796l-.16.032 5.426-4.911h.2l-5.466 4.88z" fill="#fef0af"/><path d="M20.7 10.115l3.042-2.333.046 4.432-3.236 3.122-1.325 1.256 1.472-6.477z" fill="#bf7338"/><defs><linearGradient id="_Linear2" x2="1" gradientUnits="userSpaceOnUse" gradientTransform="translate(81.243 11.049) scale(7.79699)"><stop offset="0" stop-color="#8e590e"/><stop offset=".3" stop-color="#aa7f3e"/><stop offset=".5" stop-color="#f9eac7"/><stop offset="1" stop-color="#fff6da"/></linearGradient><linearGradient id="_Linear3" x2="1" gradientUnits="userSpaceOnUse" gradientTransform="matrix(-2.82476 -3 3 -2.82476 93.825 17)"><stop offset="0" stop-color="#c4a35f" stop-opacity=".616"/><stop offset="1" stop-color="#d6ba24" stop-opacity=".14"/></linearGradient><linearGradient id="_Linear4" x2="1" gradientUnits="userSpaceOnUse" gradientTransform="matrix(-10.9602 -10 10 -10.9602 100 18)"><stop offset="0" stop-color="#6d4909"/><stop offset="1" stop-color="#ffd977"/></linearGradient><linearGradient id="_Linear5" x2="1" gradientUnits="userSpaceOnUse" gradientTransform="matrix(-10.9602 -10 10 -10.9602 100 18)"><stop offset="0" stop-color="#6d4909"/><stop offset="1" stop-color="#ffd977"/></linearGradient><linearGradient id="_Linear6" x2="1" gradientUnits="userSpaceOnUse" gradientTransform="matrix(13 13 -13 13 92 1)"><stop offset="0" stop-color="#f9f331"/><stop offset=".5" stop-color="#e8b041"/><stop offset="1" stop-color="#bd7d17"/></linearGradient><linearGradient id="_Linear7" x2="1" gradientUnits="userSpaceOnUse" gradientTransform="matrix(-10.9602 -10 10 -10.9602 100 18)"><stop offset="0" stop-color="#6d4909"/><stop offset="1" stop-color="#ffd977"/></linearGradient></defs></svg>