<?xml version="1.0" encoding="UTF-8" standalone="no"?>
<!DOCTYPE svg PUBLIC "-//W3C//DTD SVG 1.1//EN" "http://www.w3.org/Graphics/SVG/1.1/DTD/svg11.dtd">
<svg width="100%" height="100%" viewBox="0 0 24 24" version="1.1" xmlns="http://www.w3.org/2000/svg" xmlns:xlink="http://www.w3.org/1999/xlink" xml:space="preserve" style="fill-rule:evenodd;clip-rule:evenodd;stroke-linejoin:round;stroke-miterlimit:1.41421;">
    <g transform="matrix(1,0,0,1,-167,-181)">
        <g transform="matrix(1,0,0,1,87,181)">
            <g id="flat_outlined">
                <rect id="pencil-flat_outline" x="80" y="0" width="24" height="24" style="fill:none;"/>
                <clipPath id="_clip1">
                    <rect id="pencil-flat_outline1" x="80" y="0" width="24" height="24"/>
                </clipPath>
                <g clip-path="url(#_clip1)">
                    <g transform="matrix(0.973488,0,0,0.924567,-78.7913,-196.422)">
                        <g id="outline">
                            <path d="M171.618,219.088L177.965,212.322L178.383,212.322L183.665,207.04L194.96,218.335L182.912,230.382C182.912,230.382 168.993,235.43 168.993,235.43C168.604,235.663 167.213,236.144 166.779,236.233C166.624,236.265 166.409,236.214 166.313,236.124C166.233,236.05 166.18,235.804 166.203,235.697C166.3,235.261 166.749,233.762 166.968,233.352L171.618,219.088ZM167.629,233.246L167.663,233.249L167.684,233.251L167.694,233.252C167.994,233.286 168.271,233.405 168.503,233.598L168.509,233.602C168.777,233.807 168.973,234.12 169.059,234.575L169.113,234.839C169.113,234.018 168.492,233.34 167.694,233.252L167.688,233.251L167.684,233.251L167.672,233.249L167.663,233.249L167.657,233.248L167.644,233.247L167.633,233.246L167.629,233.246C167.617,233.245 167.605,233.244 167.593,233.244L167.629,233.246ZM167.585,233.243L167.592,233.244L167.587,233.243L167.585,233.243ZM167.576,233.243L167.582,233.243L167.577,233.243L167.576,233.243ZM167.567,233.243L167.572,233.243L167.567,233.243L167.563,233.242L167.567,233.243ZM167.554,233.242L167.558,233.242L167.557,233.242L167.554,233.242ZM167.544,233.242L167.548,233.242L167.546,233.242L167.544,233.242ZM167.535,233.242L167.538,233.242L167.536,233.242L167.535,233.242ZM167.525,233.242L167.528,233.242L167.526,233.242L167.525,233.242Z" style="fill:rgb(147,78,68);stroke:rgb(209,146,74);stroke-width:1.05px;"/>
                        </g>
                    </g>
                    <g transform="matrix(1.00547,0,0,1.00547,-0.572294,-2.00726)">
                        <g transform="matrix(-1.31708,-1.25089,1.31708,-1.25089,186.321,138.865)">
                            <path d="M85.883,8.61L89.202,15.139C86.786,21.247 84.204,21.796 81.405,15.139L84.467,8.592L84.63,8.837C84.934,9.142 85.428,9.142 85.732,8.837L85.883,8.61Z" style="fill:url(#_Linear2);"/>
                        </g>
                        <g transform="matrix(0.968194,0,0,0.919539,2.56644,2.50413)">
                            <path d="M86.121,19.984C86.372,20.176 86.557,20.47 86.637,20.898L86.688,21.145C86.688,21.145 86.727,21.512 86.584,21.677L86.575,21.7C86.21,21.919 84.904,22.37 84.496,22.455C84.351,22.484 84.149,22.436 84.059,22.352C83.984,22.283 83.933,22.051 83.955,21.951C84.046,21.542 84.468,20.134 84.673,19.749C84.755,19.595 85.188,19.645 85.188,19.645C85.535,19.645 85.854,19.764 86.115,19.98L86.121,19.984Z" style="fill:rgb(42,40,29);"/>
                        </g>
                        <g transform="matrix(0.968194,0,0,0.919539,2.56644,2.50413)">
                            <path d="M85.022,19.977L84.789,20.599C84.789,20.599 84.653,20.965 84.653,20.965L84.52,21.329L84.402,21.66L84.352,21.805L84.31,21.931L84.277,22.033L84.255,22.109L84.248,22.135L84.245,22.153L84.244,22.155L84.247,22.157L84.229,22.184L84.227,22.185L84.223,22.185L84.22,22.185L84.217,22.184L84.213,22.183L84.21,22.181L84.21,22.181L84.208,22.179L84.205,22.176L84.203,22.173L84.202,22.171L84.201,22.168L84.201,22.168L84.2,22.165L84.199,22.162L84.199,22.159L84.2,22.146L84.203,22.124L84.21,22.096L84.23,22.018L84.259,21.913L84.297,21.786L84.341,21.638L84.444,21.3L84.558,20.929L84.673,20.555C84.673,20.555 84.865,19.918 84.865,19.918L84.972,19.865L85.022,19.977ZM84.243,22.154L84.242,22.149L84.226,22.142L84.243,22.154Z" style="fill:rgb(228,227,223);"/>
                        </g>
                        <g transform="matrix(0.968194,0,0,0.919539,76.1492,-99.1232)">
                            <path d="M18.388,122.221L18.301,122.135L19.652,115.479L19.516,115.508L19.509,115.515L13.04,116.873L19,110.52L24.354,105.56L34.96,116.166L23.646,127.48L25.066,120.893L18.388,122.221Z" style="fill:url(#_Linear3);"/>
                        </g>
                    </g>
                </g>
            </g>
        </g>
    </g>
    <defs>
        <linearGradient id="_Linear2" x1="0" y1="0" x2="1" y2="0" gradientUnits="userSpaceOnUse" gradientTransform="matrix(-7.3111,-2.23821e-13,-2.25153e-13,-7.3111,88.8621,14.3241)"><stop offset="0%" style="stop-color:rgb(253,242,213);stop-opacity:1"/><stop offset="48%" style="stop-color:rgb(228,210,168);stop-opacity:1"/><stop offset="100%" style="stop-color:rgb(157,120,39);stop-opacity:1"/></linearGradient>
        <linearGradient id="_Linear3" x1="0" y1="0" x2="1" y2="0" gradientUnits="userSpaceOnUse" gradientTransform="matrix(9.94562,9.94562,-9.94562,9.94562,18.4821,111.482)"><stop offset="0%" style="stop-color:rgb(254,229,119);stop-opacity:1"/><stop offset="100%" style="stop-color:rgb(191,116,57);stop-opacity:1"/></linearGradient>
    </defs>
</svg>
