<?xml version="1.0" encoding="UTF-8" standalone="no"?>
<!DOCTYPE svg PUBLIC "-//W3C//DTD SVG 1.1//EN" "http://www.w3.org/Graphics/SVG/1.1/DTD/svg11.dtd">
<svg width="100%" height="100%" viewBox="0 0 24 24" version="1.1" xmlns="http://www.w3.org/2000/svg" xmlns:xlink="http://www.w3.org/1999/xlink" xml:space="preserve" style="fill-rule:evenodd;clip-rule:evenodd;stroke-linejoin:round;stroke-miterlimit:1.41421;">
    <g transform="matrix(1,0,0,1,-298,-121)">
        <g id="selection" transform="matrix(1,0,0,1,60,68)">
            <rect x="238" y="53" width="24" height="24" style="fill:none;"/>
            <g transform="matrix(1,0,0,1,-23,-25)">
                <rect x="268" y="80" width="3" height="2" style="fill:url(#_Linear1);"/>
            </g>
            <g transform="matrix(1,0,0,1,-19,-25)">
                <rect x="268" y="80" width="3" height="2" style="fill:url(#_Linear2);"/>
            </g>
            <g transform="matrix(1,0,0,1,-15,-25)">
                <rect x="268" y="80" width="3" height="2" style="fill:url(#_Linear3);"/>
            </g>
            <g transform="matrix(1,0,0,1,-23,-7)">
                <rect x="268" y="80" width="3" height="2" style="fill:url(#_Linear4);"/>
            </g>
            <g transform="matrix(1,0,0,1,-19,-7)">
                <rect x="268" y="80" width="3" height="2" style="fill:url(#_Linear5);"/>
            </g>
            <g transform="matrix(1,0,0,1,-15,-7)">
                <rect x="268" y="80" width="3" height="2" style="fill:url(#_Linear6);"/>
            </g>
            <g transform="matrix(1,0,0,1,-60.1988,-68)">
                <path d="M300.199,137L302.199,137L302.199,141L304.199,141L304.199,143L300.199,143L300.199,141L300.199,137Z" style="fill:url(#_Linear7);"/>
            </g>
            <g transform="matrix(6.12323e-17,-1,1,6.12323e-17,160,332)">
                <rect x="268" y="80" width="3" height="2" style="fill:url(#_Linear8);"/>
            </g>
            <g transform="matrix(6.12323e-17,-1,1,6.12323e-17,160,336)">
                <rect x="268" y="80" width="3" height="2" style="fill:url(#_Linear9);"/>
            </g>
            <g transform="matrix(1,0,0,1,-60.1988,-68)">
                <path d="M320.199,141L320.199,143L317.199,143L317.199,141L318.199,141L318.199,137L320.199,137L320.199,141Z" style="fill:url(#_Linear10);"/>
            </g>
            <g transform="matrix(6.12323e-17,-1,1,6.12323e-17,178,336)">
                <rect x="268" y="80" width="3" height="2" style="fill:url(#_Linear11);"/>
            </g>
            <g transform="matrix(6.12323e-17,-1,1,6.12323e-17,178,332)">
                <rect x="268" y="80" width="3" height="2" style="fill:url(#_Linear12);"/>
            </g>
            <g transform="matrix(1,0,0,1,-60.1988,-68)">
                <path d="M317.199,123L320.199,123L320.199,128L318.199,128L318.199,125L317.199,125L317.199,123Z" style="fill:url(#_Linear13);"/>
            </g>
            <g transform="matrix(1,0,0,1,-60.1988,-68)">
                <path d="M302.199,125L302.199,128L300.199,128L300.199,125L298.199,125L298.199,123L300.199,123L300.199,121L302.199,121L302.199,123L304.199,123L304.199,125L302.199,125Z" style="fill:url(#_Linear14);"/>
            </g>
        </g>
    </g>
    <defs>
        <linearGradient id="_Linear1" x1="0" y1="0" x2="1" y2="0" gradientUnits="userSpaceOnUse" gradientTransform="matrix(-6,-28,28,-6,273,107)"><stop offset="0%" style="stop-color:rgb(0,159,227);stop-opacity:1"/><stop offset="100%" style="stop-color:rgb(0,96,143);stop-opacity:1"/></linearGradient>
        <linearGradient id="_Linear2" x1="0" y1="0" x2="1" y2="0" gradientUnits="userSpaceOnUse" gradientTransform="matrix(-6,-28,28,-6,269,107)"><stop offset="0%" style="stop-color:rgb(0,159,227);stop-opacity:1"/><stop offset="100%" style="stop-color:rgb(0,96,143);stop-opacity:1"/></linearGradient>
        <linearGradient id="_Linear3" x1="0" y1="0" x2="1" y2="0" gradientUnits="userSpaceOnUse" gradientTransform="matrix(-6,-28,28,-6,265,107)"><stop offset="0%" style="stop-color:rgb(0,159,227);stop-opacity:1"/><stop offset="100%" style="stop-color:rgb(0,96,143);stop-opacity:1"/></linearGradient>
        <linearGradient id="_Linear4" x1="0" y1="0" x2="1" y2="0" gradientUnits="userSpaceOnUse" gradientTransform="matrix(-6,-28,28,-6,273,89)"><stop offset="0%" style="stop-color:rgb(0,159,227);stop-opacity:1"/><stop offset="100%" style="stop-color:rgb(0,96,143);stop-opacity:1"/></linearGradient>
        <linearGradient id="_Linear5" x1="0" y1="0" x2="1" y2="0" gradientUnits="userSpaceOnUse" gradientTransform="matrix(-6,-28,28,-6,269,89)"><stop offset="0%" style="stop-color:rgb(0,159,227);stop-opacity:1"/><stop offset="100%" style="stop-color:rgb(0,96,143);stop-opacity:1"/></linearGradient>
        <linearGradient id="_Linear6" x1="0" y1="0" x2="1" y2="0" gradientUnits="userSpaceOnUse" gradientTransform="matrix(-6,-28,28,-6,265,89)"><stop offset="0%" style="stop-color:rgb(0,159,227);stop-opacity:1"/><stop offset="100%" style="stop-color:rgb(0,96,143);stop-opacity:1"/></linearGradient>
        <linearGradient id="_Linear7" x1="0" y1="0" x2="1" y2="0" gradientUnits="userSpaceOnUse" gradientTransform="matrix(-6,-28,28,-6,310.199,150)"><stop offset="0%" style="stop-color:rgb(0,159,227);stop-opacity:1"/><stop offset="100%" style="stop-color:rgb(0,96,143);stop-opacity:1"/></linearGradient>
        <linearGradient id="_Linear8" x1="0" y1="0" x2="1" y2="0" gradientUnits="userSpaceOnUse" gradientTransform="matrix(28,-6,6,28,250,90)"><stop offset="0%" style="stop-color:rgb(0,159,227);stop-opacity:1"/><stop offset="100%" style="stop-color:rgb(0,96,143);stop-opacity:1"/></linearGradient>
        <linearGradient id="_Linear9" x1="0" y1="0" x2="1" y2="0" gradientUnits="userSpaceOnUse" gradientTransform="matrix(28,-6,6,28,254,90)"><stop offset="0%" style="stop-color:rgb(0,159,227);stop-opacity:1"/><stop offset="100%" style="stop-color:rgb(0,96,143);stop-opacity:1"/></linearGradient>
        <linearGradient id="_Linear10" x1="0" y1="0" x2="1" y2="0" gradientUnits="userSpaceOnUse" gradientTransform="matrix(-6,-28,28,-6,310.199,150)"><stop offset="0%" style="stop-color:rgb(0,159,227);stop-opacity:1"/><stop offset="100%" style="stop-color:rgb(0,96,143);stop-opacity:1"/></linearGradient>
        <linearGradient id="_Linear11" x1="0" y1="0" x2="1" y2="0" gradientUnits="userSpaceOnUse" gradientTransform="matrix(28,-6,6,28,254,72)"><stop offset="0%" style="stop-color:rgb(0,159,227);stop-opacity:1"/><stop offset="100%" style="stop-color:rgb(0,96,143);stop-opacity:1"/></linearGradient>
        <linearGradient id="_Linear12" x1="0" y1="0" x2="1" y2="0" gradientUnits="userSpaceOnUse" gradientTransform="matrix(28,-6,6,28,250,72)"><stop offset="0%" style="stop-color:rgb(0,159,227);stop-opacity:1"/><stop offset="100%" style="stop-color:rgb(0,96,143);stop-opacity:1"/></linearGradient>
        <linearGradient id="_Linear13" x1="0" y1="0" x2="1" y2="0" gradientUnits="userSpaceOnUse" gradientTransform="matrix(-6,-28,28,-6,310.199,150)"><stop offset="0%" style="stop-color:rgb(0,159,227);stop-opacity:1"/><stop offset="100%" style="stop-color:rgb(0,96,143);stop-opacity:1"/></linearGradient>
        <linearGradient id="_Linear14" x1="0" y1="0" x2="1" y2="0" gradientUnits="userSpaceOnUse" gradientTransform="matrix(-6,-28,28,-6,310.199,150)"><stop offset="0%" style="stop-color:rgb(0,159,227);stop-opacity:1"/><stop offset="100%" style="stop-color:rgb(0,96,143);stop-opacity:1"/></linearGradient>
    </defs>
</svg>
