<?xml version="1.0" encoding="UTF-8" standalone="no"?>
<!DOCTYPE svg PUBLIC "-//W3C//DTD SVG 1.1//EN" "http://www.w3.org/Graphics/SVG/1.1/DTD/svg11.dtd">
<svg width="100%" height="100%" viewBox="0 0 24 24" version="1.1" xmlns="http://www.w3.org/2000/svg" xmlns:xlink="http://www.w3.org/1999/xlink" xml:space="preserve" style="fill-rule:evenodd;clip-rule:evenodd;stroke-linejoin:round;stroke-miterlimit:1.41421;">
    <g transform="matrix(1,0,0,1,-274,-181)">
        <g transform="matrix(1,0,0,1,36,128)">
            <g id="flat_outlined">
                <rect id="smudge-flat_outline" x="238" y="53" width="24" height="24" style="fill:none;"/>
                <clipPath id="_clip1">
                    <rect id="smudge-flat_outline1" x="238" y="53" width="24" height="24"/>
                </clipPath>
                <g clip-path="url(#_clip1)">
                    <g transform="matrix(1.08696,2.83031e-17,-2.93246e-17,1.06099,-21.2252,-29.4393)">
                        <path d="M246.837,92.063C246.621,93.784 245.084,96.322 244.325,98.362C243.9,100.184 247.136,100.748 248.267,98.346C248.72,97.265 249.382,95.986 249.706,95.248C250.174,94.186 250.445,94.363 250.601,94.351C250.778,94.337 252.389,94.138 253.393,93.185C253.897,92.187 254.649,91.218 255.408,90.088C256.182,88.936 257.063,88.33 257.448,86.991C258.301,84.876 258.671,82.387 257.423,80.798C256.752,79.943 255.404,79.16 254.4,78.733C253.535,78.365 252.368,77.761 251.421,77.701C250.246,77.627 249.16,79.473 247.347,81.869C246.363,82.784 244.961,86.287 244.325,87.598C244.165,88.984 245.185,89.697 245.245,89.998C245.251,90.032 245.363,90.381 245.392,90.653C245.52,91.866 246.226,91.9 246.34,92.063" style="fill:url(#_Linear2);"/>
                    </g>
                    <g transform="matrix(0.992464,2.58425e-17,-2.67751e-17,0.968744,2.5168,-21.2723)">
                        <path d="M247.347,92.153C246.535,93.978 244.801,97.549 244.158,98.891C243.234,100.817 246.457,101.139 247.347,99.378C247.546,98.859 249.049,95.86 249.363,95.249C250.016,93.979 250.348,93.71 250.484,93.948C250.529,93.829 252.359,94.579 253.363,93.143C253.867,92.145 254.649,91.218 255.408,90.088C255.547,89.881 255.689,89.692 255.832,89.513C256.482,88.695 257.132,88.09 257.448,86.991C258.301,84.876 258.671,82.387 257.423,80.798C256.752,79.943 255.404,79.16 254.4,78.733C253.535,78.365 252.368,77.761 251.421,77.701C250.246,77.627 249.16,79.473 247.347,81.869C246.363,82.784 245.006,86.301 244.96,86.566C244.933,86.716 244.38,87.808 244.325,88.024C244.283,89.238 245.016,89.104 245.25,89.619C245.396,89.938 245.181,90.812 245.332,91.12C245.755,91.985 246.176,92.148 246.367,92.153" style="fill:rgb(227,172,155);"/>
                    </g>
                    <g transform="matrix(0.986567,-5.68173e-33,5.91113e-33,1.03843,3.56967,-30.9949)">
                        <path d="M245.616,92.951C245.873,92.207 246.646,90.79 246.736,90.662" style="fill:rgb(199,140,132);stroke:rgb(98,43,36);stroke-width:0.41px;stroke-linecap:round;"/>
                    </g>
                    <g transform="matrix(0.957602,0,0,0.92044,12.8053,-19.3605)">
                        <path d="M244.396,96.916C245.156,95.499 246.767,91.905 246.945,91.652" style="fill:none;stroke:rgb(98,43,36);stroke-width:0.44px;stroke-linecap:round;"/>
                    </g>
                    <g transform="matrix(2.1689,0,0,1.2523,97.7811,-151.638)">
                        <path d="M70.563,176.828C70.697,176.245 71.065,175.678 71.286,175.391C71.921,174.563 72.591,173.696 72.783,174.117L72.759,174.256C72.479,174.942 72.215,175.557 72.027,176.186C71.595,177.231 70.685,176.779 70.563,176.828Z" style="fill:url(#_Linear3);"/>
                    </g>
                </g>
            </g>
        </g>
    </g>
    <defs>
        <linearGradient id="_Linear2" x1="0" y1="0" x2="1" y2="0" gradientUnits="userSpaceOnUse" gradientTransform="matrix(-1.83999,-4.7126,4.59997,-1.88504,252.286,89.9535)"><stop offset="0%" style="stop-color:rgb(98,43,36);stop-opacity:1"/><stop offset="100%" style="stop-color:rgb(199,141,132);stop-opacity:1"/></linearGradient>
        <linearGradient id="_Linear3" x1="0" y1="0" x2="1" y2="0" gradientUnits="userSpaceOnUse" gradientTransform="matrix(0.440918,0.446398,-0.257746,0.76364,71.1249,175.74)"><stop offset="0%" style="stop-color:rgb(148,78,69);stop-opacity:1"/><stop offset="59%" style="stop-color:rgb(157,89,80);stop-opacity:0.819608"/><stop offset="80%" style="stop-color:rgb(178,114,105);stop-opacity:0.411765"/><stop offset="100%" style="stop-color:rgb(199,139,130);stop-opacity:0"/></linearGradient>
    </defs>
</svg>
