<svg xmlns="http://www.w3.org/2000/svg" viewBox="0 0 24 24" baseProfile="tiny"><path fill="none" d="M0 0h24v24H0z"/><path d="M246.837 92.063c-.216 1.721-1.753 4.259-2.512 6.299-.425 1.822 2.811 2.386 3.942-.016.453-1.081 1.115-2.36 1.439-3.098.468-1.062.739-.885.895-.897.177-.014 1.788-.213 2.792-1.166.504-.998 1.256-1.967 2.015-3.097.774-1.152 1.655-1.758 2.04-3.097.853-2.115 1.223-4.604-.025-6.193-.671-.855-2.019-1.638-3.023-2.065-.865-.368-2.032-.972-2.979-1.032-1.175-.074-2.261 1.772-4.074 4.168-.984.915-2.386 4.418-3.022 5.729-.16 1.386.86 2.099.92 2.4.006.034.118.383.147.655.128 1.213.834 1.247.948 1.41" fill="url(#_Linear2)" transform="matrix(1.08696 0 0 1.06099 -259.225 -82.44)"/><path d="M10 15c-.806 1.768-2.527 5.228-3.165 6.528C5.918 23.394 9.117 23.705 10 22c.197-.503 1.689-3.409 2-4 .649-1.23.978-1.491 1.113-1.26.045-.116 1.861.61 2.857-.78.5-.967 1.277-1.865 2.03-2.96.138-.2.279-.384.42-.557.646-.793 1.291-1.379 1.605-2.443.846-2.05 1.213-4.46-.025-6-.666-.828-2.004-1.587-3-2-.859-.357-2.017-.942-2.957-1C12.877.928 11.8 2.717 10 5.038c-.977.886-2.324 4.293-2.37 4.55-.026.145-.575 1.203-.63 1.412-.041 1.176.686 1.047.919 1.546C8.063 12.855 7.85 13.7 8 14c.42.838.838.996 1.027 1" fill="#e3ac9b"/><path d="M245.616 92.951c.257-.744 1.03-2.161 1.12-2.289" fill="#c78c84" stroke="#622b24" stroke-width=".41" stroke-linecap="round" transform="matrix(.98657 0 0 1.03843 -234.43 -83.995)"/><path d="M244.396 96.916c.76-1.417 2.371-5.011 2.549-5.264" fill="none" stroke="#622b24" stroke-width=".44" stroke-linecap="round" transform="matrix(.9576 0 0 .92044 -225.195 -72.36)"/><path d="M70.563 176.828c.134-.583.502-1.15.723-1.437.635-.828 1.305-1.695 1.497-1.274l-.024.139c-.28.686-.544 1.301-.732 1.93-.432 1.045-1.342.593-1.464.642z" fill="url(#_Linear3)" transform="matrix(2.1689 0 0 1.2523 -140.219 -204.638)"/><defs><linearGradient id="_Linear2" x2="1" gradientUnits="userSpaceOnUse" gradientTransform="matrix(-1.83999 -4.7126 4.59997 -1.88504 252.286 89.954)"><stop offset="0" stop-color="#622b24"/><stop offset="1" stop-color="#c78d84"/></linearGradient><linearGradient id="_Linear3" x2="1" gradientUnits="userSpaceOnUse" gradientTransform="matrix(.44092 .4464 -.25775 .76364 71.125 175.74)"><stop offset="0" stop-color="#944e45"/><stop offset=".6" stop-color="#9d5950" stop-opacity=".82"/><stop offset=".8" stop-color="#b27269" stop-opacity=".412"/><stop offset="1" stop-color="#c78b82" stop-opacity="0"/></linearGradient></defs></svg>