<?xml version="1.0" encoding="UTF-8" standalone="no"?>
<!DOCTYPE svg PUBLIC "-//W3C//DTD SVG 1.1//EN" "http://www.w3.org/Graphics/SVG/1.1/DTD/svg11.dtd">
<svg width="100%" height="100%" viewBox="0 0 24 24" version="1.1" xmlns="http://www.w3.org/2000/svg" xmlns:xlink="http://www.w3.org/1999/xlink" xml:space="preserve" style="fill-rule:evenodd;clip-rule:evenodd;stroke-linejoin:round;stroke-miterlimit:1.41421;">
    <g transform="matrix(1,0,0,1,-247,-154)">
        <g transform="matrix(1,0,0,1,9,101)">
            <g id="flat_outlined">
                <rect id="trash-flat_outline" x="238" y="53" width="24" height="24" style="fill:none;"/>
                <clipPath id="_clip1">
                    <rect id="trash-flat_outline1" x="238" y="53" width="24" height="24"/>
                </clipPath>
                <g clip-path="url(#_clip1)">
                    <g transform="matrix(1.07401,0,0,1.20243,-99.1489,-46.5082)">
                        <path d="M333,84.695C333,84.695 332.896,83.172 325.089,83.172C317.282,83.172 317.023,84.695 317.023,84.695L317.023,84.993L317.253,85.028C317.253,85.028 317.985,98.372 318.093,100.336C318.1,100.483 318.194,100.615 318.34,100.684C319.07,100.994 321.447,101.884 324.807,101.884C328.164,101.884 330.606,101.037 331.361,100.739C331.512,100.673 331.612,100.54 331.622,100.39C331.756,98.405 332.644,85.082 332.644,85.082L333,84.993L333,84.695Z" style="fill:rgb(155,155,155);"/>
                    </g>
                    <g transform="matrix(0.9375,1.45717e-15,-1.65473e-15,1.0646,-54.7707,-33.9103)">
                        <path d="M317,84.009C318.656,84.454 321.339,84.773 325.253,84.773C328.692,84.773 331.242,84.423 333,84.013L333,84.485L332.869,84.523C332.869,84.523 332.043,99.069 331.939,100.827C331.933,100.928 331.886,101.024 331.806,101.1C331.366,101.404 329.659,102.296 324.807,102.296C319.854,102.296 318.456,101.366 318.139,101.084C318.091,101.019 318.064,100.945 318.059,100.868C317.975,99.312 317.17,84.527 317.17,84.527L317,84.481L317,84.009Z" style="fill:url(#_Linear2);"/>
                    </g>
                    <g transform="matrix(0.9375,1.45717e-15,-1.65473e-15,1.0646,-54.7707,-33.9103)">
                        <path d="M317,84.009C318.656,84.454 321.339,84.773 325.253,84.773C328.692,84.773 331.242,84.423 333,84.013L333,84.485L332.869,84.523C332.869,84.523 332.043,99.069 331.939,100.827C331.933,100.928 331.886,101.024 331.806,101.1C331.366,101.404 329.659,102.296 324.807,102.296C319.854,102.296 318.456,101.366 318.139,101.084C318.091,101.019 318.064,100.945 318.059,100.868C317.975,99.312 317.17,84.527 317.17,84.527L317,84.481L317,84.009Z" style="fill:url(#_Radial3);"/>
                    </g>
                    <g transform="matrix(0.95263,0,0,1.09344,-59.3002,-35.8233)">
                        <path d="M316.515,84.045L316.515,83.5C321.8,84.249 327.173,84.278 332.646,83.5L332.646,84.07C330.899,84.528 328.186,84.783 324.588,84.783C321.063,84.783 318.321,84.522 316.515,84.045Z" style="fill:rgb(249,249,249);"/>
                    </g>
                    <g transform="matrix(0.975244,0,0,1.09344,-66.4052,-36.373)">
                        <path d="M316.461,84.174L316.461,84.003C316.461,84.003 316.671,83.003 324.359,83.003C332.048,83.003 332.218,84.003 332.218,84.003L332.218,84.249C330.486,84.659 327.975,84.883 324.588,84.883C320.734,84.883 318.092,84.618 316.461,84.174Z" style="fill:rgb(223,223,223);"/>
                    </g>
                    <g transform="matrix(0.720151,0,0,0.329196,16.1598,28.1944)">
                        <path d="M324.588,80C330.335,80 335,81.485 335,82.865C335,84.244 330.335,85 324.588,85C318.842,85 314.177,84.097 314.177,82.717C314.177,81.338 318.842,80 324.588,80Z" style="fill:url(#_Linear4);"/>
                    </g>
                    <g transform="matrix(0.0702325,0,0,0.0729604,232.792,59.7076)">
                        <g>
                            <g transform="matrix(1,0,0,1,181.513,-0.760801)">
                                <path d="M40.793,71.858L46.846,75.563C47.867,75.563 48.382,75.143 48.382,74.298C48.382,73.756 48.137,73.006 47.66,72.04L34.287,46.92L4.648,47.644C3.32,47.707 2.661,48.398 2.661,49.722C2.661,50.025 3.081,50.445 3.926,50.987L10.07,54.692L3.564,64.81C1.757,67.702 0.854,70.083 0.854,71.949C0.854,73.639 1.454,75.537 2.661,77.641L22.811,112.79C22.327,110.564 22.087,108.454 22.087,106.465C22.087,102.915 23.199,99.417 25.431,95.984L40.793,71.858Z" style="fill:rgb(72,105,146);fill-rule:nonzero;"/>
                            </g>
                            <g transform="matrix(1,0,0,1,181.513,-0.760801)">
                                <path d="M48.563,51.348L65.189,25.596C58.981,11.442 52.384,4.362 45.4,4.362C41.18,4.362 38.352,5.537 36.907,7.886L21.184,33.005L48.563,51.348Z" style="fill:rgb(72,105,146);fill-rule:nonzero;"/>
                            </g>
                            <g transform="matrix(1,0,0,1,181.513,-0.760801)">
                                <path d="M35.009,121.104L67.086,121.104L67.086,87.761L36.184,87.761C32.389,93.183 30.007,96.861 29.045,98.786C27.477,101.858 26.696,104.994 26.696,108.182C26.696,116.798 29.465,121.104 35.009,121.104Z" style="fill:rgb(72,105,146);fill-rule:nonzero;"/>
                            </g>
                            <g transform="matrix(1,0,0,1,181.513,-0.760801)">
                                <path d="M101.06,45.204L115.336,21.168C115.815,20.329 116.059,19.452 116.059,18.548C116.059,17.463 115.698,16.921 114.975,16.921C115.092,16.921 114.614,17.102 113.53,17.463L107.024,20.446L101.06,8.609C98.408,3.31 93.108,0.657 85.157,0.657L48.021,0.657C52.539,2.044 55.611,3.4 57.238,4.723C61.033,7.737 64.918,13.398 68.892,21.71L76.301,37.252L70.79,39.873C70.248,40.118 69.976,40.595 69.976,41.319C69.976,42.222 70.545,42.738 71.693,42.855L101.06,45.204Z" style="fill:rgb(72,105,146);fill-rule:nonzero;"/>
                            </g>
                            <g transform="matrix(1,0,0,1,181.513,-0.760801)">
                                <path d="M115.336,116.134L136.119,78.364C133.046,81.862 129.704,84.21 126.089,85.413C123.198,86.379 119.068,86.858 113.71,86.858L90.579,86.858L90.579,82.069C90.579,80.204 90.127,79.268 89.223,79.268C88.558,79.268 88.075,79.512 87.777,79.991L73.139,105.381L88.32,128.694C89.462,130.443 90.457,131.132 91.301,130.772C92.141,130.533 92.566,130.082 92.566,129.416L92.566,121.465L105.397,121.465C110.096,121.465 113.407,119.69 115.336,116.134Z" style="fill:rgb(72,105,146);fill-rule:nonzero;"/>
                            </g>
                            <g transform="matrix(1,0,0,1,181.513,-0.760801)">
                                <path d="M106.3,82.069L120.126,82.069C123.437,82.069 126.871,80.623 130.426,77.732C134.221,74.723 136.119,71.529 136.119,68.154C136.119,66.591 135.603,65.055 134.583,63.545L118.138,38.427L89.855,54.873L106.3,82.069Z" style="fill:rgb(72,105,146);fill-rule:nonzero;"/>
                            </g>
                        </g>
                    </g>
                </g>
            </g>
        </g>
    </g>
    <defs>
        <linearGradient id="_Linear2" x1="0" y1="0" x2="1" y2="0" gradientUnits="userSpaceOnUse" gradientTransform="matrix(19.1898,0,0,18.1389,323.257,93.41)"><stop offset="0%" style="stop-color:rgb(233,233,233);stop-opacity:1"/><stop offset="100%" style="stop-color:rgb(162,162,162);stop-opacity:1"/></linearGradient>
        <radialGradient id="_Radial3" cx="0" cy="0" r="1" gradientUnits="userSpaceOnUse" gradientTransform="matrix(3.52464e-16,5.44167,-17.2685,9.99619e-16,325.177,80.9829)"><stop offset="0%" style="stop-color:rgb(94,94,94);stop-opacity:1"/><stop offset="100%" style="stop-color:rgb(94,94,94);stop-opacity:0"/></radialGradient>
        <linearGradient id="_Linear4" x1="0" y1="0" x2="1" y2="0" gradientUnits="userSpaceOnUse" gradientTransform="matrix(4.76515e-16,-16.7815,7.78208,1.02757e-15,324.578,95.1713)"><stop offset="0%" style="stop-color:rgb(92,88,88);stop-opacity:1"/><stop offset="100%" style="stop-color:rgb(199,199,199);stop-opacity:1"/></linearGradient>
    </defs>
</svg>
