<?xml version="1.0"?>
<!-- Converted with SVG Converter - Version 0.9.6 (Compiled Fri Dec  1 22:15:06 2017) - Copyright (C) 2011 Nokia -->
<svg xmlns="http://www.w3.org/2000/svg" viewBox="0 0 24 24" width="100%" xml:space="preserve" version="1.1" xmlns:xlink="http://www.w3.org/1999/xlink" height="100%" baseProfile="tiny">
 <g transform="matrix(1,0,0,1,-324,-94)">
  <g transform="matrix(1,0,0,1,86,40.9959)">
   <g id="detailed">
    <rect style="fill:none;" width="24" id="trash_detailed" y="53" x="238" height="24"/>
    <g>
     <g transform="matrix(1,0,0,1.17016,-74.634,-43.1237)">
      <path style="fill:rgb(120,120,120);" d="M333,84C333,84 332.828,83.165 325.021,83.165C317.213,83.165 317,84 317,84L317,84.336L317.17,84.424C317.17,84.424 317.945,98.757 318.037,100.457C318.042,100.552 318.085,100.643 318.157,100.716C318.558,100.991 320.119,101.801 324.807,101.801C329.441,101.801 331.264,101.01 331.772,100.723C331.874,100.647 331.935,100.54 331.941,100.425C332.05,98.586 332.862,84.424 332.862,84.424L333,84.336L333,84Z"/>
     </g>
     <g transform="matrix(0.9375,0,0,1.11929,-54.3215,-38.9009)">
      <path style="fill:url(#_Linear2);" d="M317,84.009C318.656,84.454 321.339,84.773 325.253,84.773C328.692,84.773 331.242,84.423 333,84.013L333,84.485L332.869,84.523C332.869,84.523 332.043,99.069 331.939,100.827C331.933,100.928 331.886,101.024 331.806,101.1C331.366,101.404 329.659,102.296 324.807,102.296C319.854,102.296 318.456,101.366 318.139,101.084C318.091,101.019 318.064,100.945 318.059,100.868C317.975,99.312 317.17,84.527 317.17,84.527L317,84.481L317,84.009Z"/>
      <g>
       <path style="fill:url(#_Radial4);" d="M317,84.462C318.875,84.97 321.768,85.135 325.008,85.135C328.247,85.135 331.14,84.97 333,84.466L333,84.57L332.862,84.659C332.862,84.659 332.329,94.039 332.061,98.585C331.978,100.054 330.639,101.261 328.887,101.447C327.473,101.63 325.874,101.801 324.807,101.801C323.815,101.801 322.391,101.646 321.105,101.481C319.352,101.29 318.016,100.079 317.935,98.609C317.686,94.071 317.17,84.659 317.17,84.659L317,84.57L317,84.462Z"/>
      </g>
     </g>
     <g transform="matrix(0.951977,0,0,1.11929,-58.3975,-38.904)">
      <path style="fill:url(#_Linear5);" d="M316.64,84.174L316.555,84.003C316.555,84.003 316.671,83.058 324.359,83.058C332.048,83.058 332.117,84.003 332.117,84.003L332.122,84.144C330.391,84.554 327.975,84.733 324.588,84.733C320.734,84.733 318.271,84.618 316.64,84.174Z"/>
     </g>
     <g transform="matrix(1,0,0,1,-86,-40.9959)">
      <path style="fill:url(#_Linear6);" d="M328.866,96.133L328.866,96.115C328.866,96.115 329.066,94.996 336.385,94.996C343.705,94.996 343.866,96.115 343.866,96.115L343.866,96.166C343.58,96.833 339.799,97.03 336.531,97.029C332.69,97.027 328.944,96.683 328.866,96.133ZM336.373,95.144C340.413,95.144 343.692,95.644 343.692,96.109C343.692,96.574 340.413,96.829 336.373,96.829C332.334,96.829 329.054,96.525 329.054,96.06C329.054,95.595 332.334,95.144 336.373,95.144Z"/>
     </g>
     <g transform="matrix(0.0712086,0,0,0.073009,232.564,59.7762)">
      <g>
       <g transform="matrix(1,0,0,1,181.513,-0.760801)">
        <path style="fill:rgb(72,105,146);fill-rule:nonzero;" d="M40.793,71.858L46.846,75.563C47.867,75.563 48.382,75.143 48.382,74.298C48.382,73.756 48.137,73.006 47.66,72.04L34.287,46.92L4.648,47.644C3.32,47.707 2.661,48.398 2.661,49.722C2.661,50.025 3.081,50.445 3.926,50.987L10.07,54.692L3.564,64.81C1.757,67.702 0.854,70.083 0.854,71.949C0.854,73.639 1.454,75.537 2.661,77.641L22.811,112.79C22.327,110.564 22.087,108.454 22.087,106.465C22.087,102.915 23.199,99.417 25.431,95.984L40.793,71.858Z"/>
       </g>
       <g transform="matrix(1,0,0,1,181.513,-0.760801)">
        <path style="fill:rgb(72,105,146);fill-rule:nonzero;" d="M48.563,51.348L65.189,25.596C58.981,11.442 52.384,4.362 45.4,4.362C41.18,4.362 38.352,5.537 36.907,7.886L21.184,33.005L48.563,51.348Z"/>
       </g>
       <g transform="matrix(1,0,0,1,181.513,-0.760801)">
        <path style="fill:rgb(72,105,146);fill-rule:nonzero;" d="M35.009,121.104L67.086,121.104L67.086,87.761L36.184,87.761C32.389,93.183 30.007,96.861 29.045,98.786C27.477,101.858 26.696,104.994 26.696,108.182C26.696,116.798 29.465,121.104 35.009,121.104Z"/>
       </g>
       <g transform="matrix(1,0,0,1,181.513,-0.760801)">
        <path style="fill:rgb(72,105,146);fill-rule:nonzero;" d="M101.06,45.204L115.336,21.168C115.815,20.329 116.059,19.452 116.059,18.548C116.059,17.463 115.698,16.921 114.975,16.921C115.092,16.921 114.614,17.102 113.53,17.463L107.024,20.446L101.06,8.609C98.408,3.31 93.108,0.657 85.157,0.657L48.021,0.657C52.539,2.044 55.611,3.4 57.238,4.723C61.033,7.737 64.918,13.398 68.892,21.71L76.301,37.252L70.79,39.873C70.248,40.118 69.976,40.595 69.976,41.319C69.976,42.222 70.545,42.738 71.693,42.855L101.06,45.204Z"/>
       </g>
       <g transform="matrix(1,0,0,1,181.513,-0.760801)">
        <path style="fill:rgb(72,105,146);fill-rule:nonzero;" d="M115.336,116.134L136.119,78.364C133.046,81.862 129.704,84.21 126.089,85.413C123.198,86.379 119.068,86.858 113.71,86.858L90.579,86.858L90.579,82.069C90.579,80.204 90.127,79.268 89.223,79.268C88.558,79.268 88.075,79.512 87.777,79.991L73.139,105.381L88.32,128.694C89.462,130.443 90.457,131.132 91.301,130.772C92.141,130.533 92.566,130.082 92.566,129.416L92.566,121.465L105.397,121.465C110.096,121.465 113.407,119.69 115.336,116.134Z"/>
       </g>
       <g transform="matrix(1,0,0,1,181.513,-0.760801)">
        <path style="fill:rgb(72,105,146);fill-rule:nonzero;" d="M106.3,82.069L120.126,82.069C123.437,82.069 126.871,80.623 130.426,77.732C134.221,74.723 136.119,71.529 136.119,68.154C136.119,66.591 135.603,65.055 134.583,63.545L118.138,38.427L89.855,54.873L106.3,82.069Z"/>
       </g>
      </g>
     </g>
    </g>
   </g>
  </g>
 </g>
 <defs>
  <linearGradient x1="0" id="_Linear2" x2="1" gradientUnits="userSpaceOnUse" y2="0" y1="0" gradientTransform="matrix(15.6485,0.400386,-0.427079,14.6704,315.933,92)">
   <stop style="stop-color:rgb(180,180,180);stop-opacity:1" offset="0.0"/>
   <stop style="stop-color:rgb(225,225,225);stop-opacity:1" offset="0.3"/>
   <stop style="stop-color:rgb(251,251,251);stop-opacity:1" offset="0.7"/>
   <stop style="stop-color:rgb(248,248,248);stop-opacity:1" offset="0.9"/>
   <stop style="stop-color:rgb(240,240,240);stop-opacity:1" offset="0.9"/>
   <stop style="stop-color:rgb(232,232,232);stop-opacity:1" offset="1.0"/>
  </linearGradient>
  <radialGradient r="1" id="_Radial4" cx="0" gradientUnits="userSpaceOnUse" gradientTransform="matrix(1.80342e-16,2.45137,-11.8075,6.01772e-16,325.933,84.126)" cy="0">
   <stop style="stop-color:rgb(166,166,166);stop-opacity:1" offset="0.0"/>
   <stop style="stop-color:rgb(166,166,166);stop-opacity:0" offset="1.0"/>
  </radialGradient>
  <linearGradient x1="0" id="_Linear5" x2="1" gradientUnits="userSpaceOnUse" y2="0" y1="0" gradientTransform="matrix(16.2069,0,0,15.4286,317.315,85)">
   <stop style="stop-color:rgb(188,188,188);stop-opacity:1" offset="0.0"/>
   <stop style="stop-color:rgb(228,228,228);stop-opacity:1" offset="0.2"/>
   <stop style="stop-color:rgb(240,240,240);stop-opacity:1" offset="0.5"/>
   <stop style="stop-color:rgb(207,207,207);stop-opacity:1" offset="0.7"/>
   <stop style="stop-color:rgb(195,195,195);stop-opacity:1" offset="1.0"/>
  </linearGradient>
  <linearGradient x1="0" id="_Linear6" x2="1" gradientUnits="userSpaceOnUse" y2="0" y1="0" gradientTransform="matrix(15,0,0,15,336,97.1006)">
   <stop style="stop-color:rgb(205,205,205);stop-opacity:1" offset="0.0"/>
   <stop style="stop-color:rgb(139,139,139);stop-opacity:1" offset="1.0"/>
  </linearGradient>
 </defs>
</svg>
