<svg xmlns="http://www.w3.org/2000/svg" viewBox="0 0 16 16" fill-rule="evenodd" stroke-linecap="round" stroke-linejoin="round" xmlns:v="https://vecta.io/nano"><path d="M10.34 9.93c-.01.42-1.06.75-2.35.73-1.3-.02-2.33-.38-2.33-.8.01-.43 1.06-.75 2.35-.73 1.3.02 2.33.38 2.33.8Z" fill="#414141" fill-opacity=".52"/><path d="M5.22 12.35v-1.72a5.15 5.15 0 0 1 2.7-9.43h.23a5.15 5.15 0 0 1 2.71 9.43v1.72H5.22Z" fill="url(#A)" fill-rule="nonzero" stroke="#ffc42e" stroke-width=".5"/><path d="M6.82 2.41c1.22-.42 2.4-.18 2.65.54s-.54 1.64-1.75 2.06c-1.22.42-2.4.18-2.65-.54s.54-1.64 1.75-2.06Z" fill="#fff"/><path d="M10.85 11.95a2.85 2.85 0 0 1-5.7 0h5.7z" fill="#aaa" fill-rule="nonzero" stroke="#5b5b5b" stroke-width=".5"/><defs><radialGradient id="A" cx="0" cy="0" r="1" gradientUnits="userSpaceOnUse" gradientTransform="translate(8 6.78) scale(5.14505)"><stop offset="0" stop-color="#dec400" stop-opacity="0"/><stop offset="1" stop-color="#ffe944"/></radialGradient></defs></svg>