<?xml version="1.0" encoding="UTF-8" standalone="no"?>
<!DOCTYPE svg PUBLIC "-//W3C//DTD SVG 1.1//EN" "http://www.w3.org/Graphics/SVG/1.1/DTD/svg11.dtd">
<svg width="100%" height="100%" viewBox="0 0 16 16" version="1.1" xmlns="http://www.w3.org/2000/svg" xmlns:xlink="http://www.w3.org/1999/xlink" xml:space="preserve" xmlns:serif="http://www.serif.com/" style="fill-rule:evenodd;clip-rule:evenodd;stroke-linecap:round;stroke-linejoin:round;">
    <g id="Layer-1" serif:id="Layer 1" transform="matrix(1,0,0,1,0,-1106.52)">
        <circle id="path940" cx="8.081" cy="1112.66" r="5.146" style="fill:rgb(255,220,94);"/>
        <rect id="rect942" x="5.235" y="1116.38" width="5.693" height="2.292" style="fill:rgb(255,218,83);"/>
        <g id="path972" transform="matrix(0.264583,0,0,0.264583,0,1106.52)">
            <path d="M30.273,3.78C19.705,3.926 11.092,12.662 11.095,23.231C11.097,29.737 14.363,35.827 19.783,39.427L19.783,45.937L41.302,45.937L41.302,39.427C46.722,35.827 49.988,29.737 49.99,23.231C49.992,12.562 41.215,3.782 30.546,3.78C30.455,3.779 30.364,3.779 30.273,3.78Z" style="fill:none;fill-rule:nonzero;stroke:rgb(234,180,0);stroke-width:3.78px;"/>
        </g>
        <path id="circle953" d="M8.01,1107.52C5.214,1107.56 2.935,1109.87 2.936,1112.67C2.936,1114.39 3.801,1116 5.235,1116.95L5.235,1118.67L10.928,1118.67L10.928,1116.95C12.362,1116 13.227,1114.39 13.227,1112.67C13.227,1109.84 10.905,1107.52 8.082,1107.52L8.01,1107.52Z" style="fill:url(#_Radial1);fill-rule:nonzero;"/>
        <g transform="matrix(9.15934e-17,1.42081,-1.1773,1.48233e-16,16.2402,1105.62)">
            <ellipse cx="5.5" cy="6.93" rx="2.5" ry="2.93" style="fill:rgb(231,181,0);"/>
        </g>
        <g transform="matrix(-0.0046442,0.306727,-0.797158,-0.0120699,13.6313,1114.61)">
            <ellipse cx="5.5" cy="6.93" rx="2.5" ry="2.93" style="fill:rgb(130,102,0);"/>
        </g>
        <g transform="matrix(1.35024,-0.438721,0.309018,0.951056,-3.99287,1110.07)">
            <ellipse cx="7.618" cy="4.288" rx="2.382" ry="2.288" style="fill:white;"/>
        </g>
        <path id="path948" d="M10.928,1118.67C10.928,1119.69 10.384,1120.63 9.504,1121.14C8.625,1121.65 7.538,1121.65 6.658,1121.14C5.778,1120.63 5.235,1119.69 5.235,1118.67L10.928,1118.67Z" style="fill:rgb(247,233,208);fill-rule:nonzero;stroke:rgb(160,128,22);stroke-width:1px;"/>
    </g>
    <defs>
        <radialGradient id="_Radial1" cx="0" cy="0" r="1" gradientUnits="userSpaceOnUse" gradientTransform="matrix(5.14551,0,0,5.57721,8.08147,1113.1)"><stop offset="0" style="stop-color:white;stop-opacity:0"/><stop offset="0.71" style="stop-color:white;stop-opacity:0.02"/><stop offset="1" style="stop-color:white;stop-opacity:0.25"/></radialGradient>
    </defs>
</svg>
