<?xml version="1.0" encoding="UTF-8" standalone="no"?>
<!DOCTYPE svg PUBLIC "-//W3C//DTD SVG 1.1//EN" "http://www.w3.org/Graphics/SVG/1.1/DTD/svg11.dtd">
<svg width="100%" height="100%" viewBox="0 0 16 16" version="1.1" xmlns="http://www.w3.org/2000/svg" xmlns:xlink="http://www.w3.org/1999/xlink" xml:space="preserve" xmlns:serif="http://www.serif.com/" style="fill-rule:evenodd;clip-rule:evenodd;stroke-linecap:round;stroke-linejoin:round;">
    <g id="Layer-1" serif:id="Layer 1" transform="matrix(1,0,0,1,0,-1106.52)">
        <circle id="path940" cx="8.081" cy="1112.66" r="5.146" style="fill:rgb(255,140,130);"/>
        <g id="circle1117" transform="matrix(0.264583,0,0,0.264583,0,1106.52)">
            <path d="M30.273,3.78C19.705,3.926 11.092,12.662 11.095,23.231C11.094,24.5 11.218,25.766 11.464,27.01C13.261,17.936 21.295,11.337 30.546,11.339C39.792,11.34 47.822,17.934 49.621,27.003C49.867,25.761 49.99,24.497 49.99,23.231C49.992,12.562 41.215,3.782 30.546,3.78C30.455,3.779 30.364,3.779 30.273,3.78Z" style="fill:rgb(255,182,176);fill-rule:nonzero;"/>
        </g>
        <rect id="rect942" x="5.235" y="1116.38" width="5.693" height="2.292" style="fill:rgb(255,140,130);"/>
        <path id="path938" d="M10.928,1118.67C10.928,1119.69 10.385,1120.63 9.505,1121.14C8.625,1121.65 7.538,1121.65 6.658,1121.14C5.779,1120.63 5.235,1119.69 5.235,1118.67L10.928,1118.67Z" style="fill:rgb(171,172,174);fill-rule:nonzero;"/>
        <path id="path972" d="M8.01,1107.52C5.214,1107.56 2.935,1109.87 2.936,1112.67C2.936,1114.39 3.801,1116 5.235,1116.95L5.235,1118.67L10.928,1118.67L10.928,1116.95C12.362,1116 13.227,1114.39 13.227,1112.67C13.227,1109.84 10.905,1107.52 8.082,1107.52C8.058,1107.52 8.034,1107.52 8.01,1107.52L8.01,1107.52Z" style="fill:none;fill-rule:nonzero;stroke:rgb(122,0,0);stroke-width:1px;"/>
        <path id="circle953" d="M8.01,1107.52C5.214,1107.56 2.935,1109.87 2.936,1112.67C2.936,1114.39 3.801,1116 5.235,1116.95L5.235,1118.67L10.928,1118.67L10.928,1116.95C12.362,1116 13.227,1114.39 13.227,1112.67C13.227,1109.84 10.905,1107.52 8.082,1107.52C8.058,1107.52 8.034,1107.52 8.01,1107.52L8.01,1107.52Z" style="fill:url(#_Radial1);fill-rule:nonzero;"/>
        <path id="path948" d="M10.928,1118.67C10.928,1119.69 10.385,1120.63 9.505,1121.14C8.625,1121.65 7.538,1121.65 6.658,1121.14C5.779,1120.63 5.235,1119.69 5.235,1118.67L10.928,1118.67Z" style="fill:none;fill-rule:nonzero;stroke:rgb(85,87,97);stroke-width:1px;"/>
        <path id="path976" d="M10.928,1118.67C10.928,1119.69 10.385,1120.63 9.505,1121.14C8.625,1121.65 7.538,1121.65 6.658,1121.14C5.779,1120.63 5.235,1119.69 5.235,1118.67L10.928,1118.67Z" style="fill:url(#_Linear2);fill-rule:nonzero;"/>
    </g>
    <defs>
        <radialGradient id="_Radial1" cx="0" cy="0" r="1" gradientUnits="userSpaceOnUse" gradientTransform="matrix(5.14551,0,0,5.57721,8.08147,1113.1)"><stop offset="0" style="stop-color:white;stop-opacity:0"/><stop offset="0.71" style="stop-color:white;stop-opacity:0.02"/><stop offset="1" style="stop-color:white;stop-opacity:0.25"/></radialGradient>
        <linearGradient id="_Linear2" x1="0" y1="0" x2="1" y2="0" gradientUnits="userSpaceOnUse" gradientTransform="matrix(-0.312997,8.8848,-8.8848,-0.312997,8.62633,1113.63)"><stop offset="0" style="stop-color:rgb(255,140,130);stop-opacity:1"/><stop offset="1" style="stop-color:rgb(255,140,130);stop-opacity:0"/></linearGradient>
    </defs>
</svg>
