<svg xmlns="http://www.w3.org/2000/svg" viewBox="0 0 16 16" fill-rule="evenodd" stroke-linecap="round" stroke-linejoin="round" xmlns:v="https://vecta.io/nano"><path d="M5.66 9.93c.01.42 1.06.75 2.35.73s2.33-.38 2.32-.8c0-.43-1.05-.75-2.34-.73-1.3.02-2.33.38-2.33.8z" fill="#414141" fill-opacity=".52"/><g fill-rule="nonzero" stroke-width=".5"><path d="M8.08 12.35H5.15v-1.72A5.15 5.15 0 0 1 8.07 1.2" fill="url(#A)" stroke="url(#B)"/><path d="M8.07 1.2a5.15 5.15 0 0 1 2.78 9.43v1.72H8.08" fill="url(#C)" stroke="#5b5b5b"/></g><path d="M4.7 3.38c-.65.66-.83 1.53-.4 1.95.42.42 1.29.22 1.93-.43.65-.66.83-1.53.4-1.95-.42-.42-1.29-.22-1.93.43Z" fill="#fff"/><g stroke="#5b5b5b"><path d="M5.15 11.95a2.85 2.85 0 0 0 5.7 0h-5.7z" fill="#aaa" fill-rule="nonzero" stroke-width=".5"/><path d="M8 1.2v10.75" fill="none" stroke-width=".45" stroke-miterlimit="1.5"/></g><defs><radialGradient id="A" cx="0" cy="0" r="1" gradientUnits="userSpaceOnUse" gradientTransform="matrix(-5.145 0 0 5.145 8 7.11)"><stop offset="0" stop-color="#ffa1a1" stop-opacity="0"/><stop offset="1" stop-color="#ffa1a1"/></radialGradient><radialGradient id="B" cx="0" cy="0" r="1" gradientUnits="userSpaceOnUse" gradientTransform="matrix(-5.145 0 0 5.145 8 7.11)"><stop offset="0" stop-color="#ff3f3f" stop-opacity="0"/><stop offset="1" stop-color="#ff3f3f"/></radialGradient><radialGradient id="C" cx="0" cy="0" r="1" gradientUnits="userSpaceOnUse" gradientTransform="matrix(5.06445 0 0 -5.06445 8.08 7)"><stop offset="0" stop-color="#fff"/><stop offset="1" stop-color="#b3b3b3"/></radialGradient></defs></svg>