<svg xmlns="http://www.w3.org/2000/svg" width="100%" height="100%" viewBox="0 0 22 22" fill-rule="evenodd" stroke-linecap="round" stroke-linejoin="round" xmlns:v="https://vecta.io/nano"><path d="M8.5 15v-1.5c-1.729-1.148-2.999-2.924-3-5-.001-3.349 2.545-5.91 5.875-5.998L11.5 2.5l.125.002c3.33.088 5.876 2.649 5.875 5.998-.001 2.076-1.271 3.852-3 5V15h-6z" fill="#ffed68" fill-rule="nonzero" stroke="#ffc42e"/><path d="M16 8.5c-.038 2.485-2.016 4.538-4.5 4.5S6.962 10.985 7 8.5 9.016 3.962 11.5 4s4.538 2.015 4.5 4.5z" fill="#ffca67"/><path d="M15 9.553c-.029 1.932-1.569 3.476-3.5 3.447S7.971 11.432 8 9.5 9.623 5.971 11.554 6 15.029 7.622 15 9.553z" fill="#f90"/><path d="M8.53 4.268c1.434-.828 3.046-.724 3.598.232s-.164 2.404-1.598 3.232-3.046.724-3.598-.232.164-2.404 1.598-3.232z" fill="#fff"/><path d="M14.5 15.5c0 1.23.5 4-3 4s-3-2.77-3-4h6z" fill="#a3907c" fill-rule="nonzero" stroke="#715343"/></svg>