<svg xmlns="http://www.w3.org/2000/svg" viewBox="0 0 16 16" fill-rule="evenodd" stroke-linecap="round" stroke-linejoin="round" xmlns:v="https://vecta.io/nano"><path d="M10.34 9.93c-.01.42-1.06.75-2.35.73-1.3-.02-2.33-.38-2.33-.8.01-.43 1.06-.75 2.35-.73 1.3.02 2.33.38 2.33.8Z" fill="#414141" fill-opacity=".52"/><g fill-rule="nonzero" stroke-width=".5"><path d="M7.92 12.35h2.93v-1.72A5.15 5.15 0 0 0 7.93 1.2" fill="url(#A)" stroke="url(#B)"/><path d="M7.93 1.2a5.15 5.15 0 0 0-2.77 9.43v1.72h2.76" fill="url(#C)" stroke="#5b5b5b"/></g><path d="M11.29 3.37c.64.66.8 1.54.38 1.96-.44.42-1.31.23-1.95-.43-.65-.65-.82-1.53-.38-1.96.43-.42 1.3-.23 1.95.43Z" fill="#fff"/><g stroke="#5b5b5b"><path d="M10.85 11.95a2.85 2.85 0 0 1-5.7 0h5.7z" fill="#aaa" fill-rule="nonzero" stroke-width=".5"/><path d="M8 1.2v10.75" fill="none" stroke-width=".45" stroke-miterlimit="1.5"/></g><defs><radialGradient id="A" cx="0" cy="0" r="1" gradientUnits="userSpaceOnUse" gradientTransform="translate(8 7.11) scale(5.145)"><stop offset="0" stop-color="#a1f2ff" stop-opacity="0"/><stop offset="1" stop-color="#a1f2ff"/></radialGradient><radialGradient id="B" cx="0" cy="0" r="1" gradientUnits="userSpaceOnUse" gradientTransform="translate(8 7.11) scale(5.145)"><stop offset="0" stop-color="#3f7fff" stop-opacity="0"/><stop offset="1" stop-color="#3f7fff"/></radialGradient><radialGradient id="C" cx="0" cy="0" r="1" gradientUnits="userSpaceOnUse" gradientTransform="rotate(180 3.96 3.5) scale(5.06445)"><stop offset="0" stop-color="#fff"/><stop offset="1" stop-color="#b3b3b3"/></radialGradient></defs></svg>