<?xml version="1.0" encoding="UTF-8" standalone="no"?>
<!DOCTYPE svg PUBLIC "-//W3C//DTD SVG 1.1//EN" "http://www.w3.org/Graphics/SVG/1.1/DTD/svg11.dtd">
<svg width="100%" height="100%" viewBox="0 0 198 175" version="1.1" xmlns="http://www.w3.org/2000/svg" xmlns:xlink="http://www.w3.org/1999/xlink" xml:space="preserve" style="fill-rule:evenodd;clip-rule:evenodd;stroke-linejoin:round;stroke-miterlimit:1.41421;">
    <g transform="matrix(1,0,0,1,-134,0)">
        <g transform="matrix(0.352275,0,0,0.35171,137.671,0.855046)">
            <g id="path3040-4" transform="matrix(1.07075,-0.287563,0.286628,1.07215,-95.3291,45.7443)">
                <path d="M352.427,98.73C273.334,146.203 212.458,179.948 124.582,230.276C124.582,230.276 47.387,351.989 22.041,390.402C9.509,414.107 15.226,422.112 40.222,422.696C103.48,420.112 186.236,415.473 230.235,413.272C305.3,368.187 392.437,321.884 458.08,281.726C494.005,259.667 512.009,204.58 479.024,147.638C446.039,90.696 390.014,77.808 352.427,98.73Z" style="fill-rule:nonzero;"/>
            </g>
            <g id="body_segments" transform="matrix(1.07116,-0.287671,0.287015,1.0736,-297.221,-211.067)">
                <path id="path3007-5" d="M442.505,393.562L539.74,561.978C539.74,561.978 556.686,552.197 573.683,542.384C590.679,532.572 623.139,484.223 587.368,422.267C551.598,360.31 496.266,362.526 476.448,373.968C456.629,385.411 444.713,392.29 444.713,392.29L442.505,393.562Z" style="fill:url(#_Linear1);fill-rule:nonzero;"/>
                <path id="path3062-8" d="M443.241,393.14L361.942,440.078L459.177,608.494L540.476,561.556C540.476,561.556 563.316,514.31 529.473,455.692C495.63,397.075 443.241,393.14 443.241,393.14L443.241,393.14Z" style="fill:url(#_Linear2);fill-rule:nonzero;"/>
                <path id="path4084-8" d="M425.772,403.226L344.473,450.164L441.708,618.58L523.007,571.642C523.007,571.642 548.295,522.983 514.452,464.365C480.609,405.747 425.772,403.226 425.772,403.226L425.772,403.226Z" style="fill:rgb(108,108,144);fill-rule:nonzero;"/>
                <path id="path4086-1" d="M420.246,406.416L338.947,453.354L436.183,621.77L517.482,574.832C517.482,574.832 542.77,526.173 508.927,467.555C475.084,408.937 420.246,406.416 420.246,406.416L420.246,406.416Z" style="fill:url(#_Linear3);fill-rule:nonzero;"/>
                <path id="path4088-2" d="M404.481,415.518L323.182,462.456L420.417,630.872L501.716,583.934C501.716,583.934 527.004,535.275 493.161,476.657C459.318,418.039 404.481,415.518 404.481,415.518L404.481,415.518Z" style="fill:rgb(108,108,144);fill-rule:nonzero;"/>
                <path id="path4090-1" d="M399.205,418.564L317.906,465.502L415.141,633.918L496.44,586.98C496.44,586.98 521.729,538.321 487.886,479.703C454.043,421.085 399.205,418.564 399.205,418.564L399.205,418.564Z" style="fill:url(#_Linear4);fill-rule:nonzero;"/>
                <path id="path7117-4" d="M381.328,428.886L300.029,475.824L397.264,644.24L478.563,597.302C478.563,597.302 503.851,548.642 470.008,490.025C436.165,431.407 381.328,428.886 381.328,428.886Z" style="fill:rgb(108,108,144);fill-rule:nonzero;"/>
                <path id="path3065-2-9" d="M467.789,491.336C431.035,427.677 375.412,432.246 375.412,432.246L369.815,435.477C369.815,435.477 426.429,426.028 465.048,492.919C503.668,559.81 467.061,603.912 467.061,603.912L472.658,600.681C472.658,600.681 504.543,554.996 467.789,491.336L467.789,491.336Z" style="fill:rgb(69,69,108);fill-rule:nonzero;"/>
                <g transform="matrix(0.870365,0.233214,-0.233214,0.870365,209.817,252.404)">
                    <path d="M313.681,161.365C317.143,163.466 320.642,165.814 324.168,168.431C330.275,172.941 336.469,178.246 342.692,184.469C403.305,245.082 376.781,302.906 376.781,302.906L264.408,415.279L111.605,262.476L111.636,262.445L111.552,262.475L224.1,150.293C224.1,150.293 236.857,144.485 256.648,144.557L256.967,144.559L257.092,144.56L257.153,144.56L257.236,144.561L257.384,144.563L257.533,144.565L257.651,144.566L257.735,144.567L257.803,144.568L257.961,144.571L258.153,144.574L258.224,144.575L258.284,144.577C258.684,144.585 259.087,144.595 259.493,144.608L259.674,144.613L259.929,144.623C262.488,144.715 265.15,144.909 267.907,145.227L267.979,145.235L268.028,145.241L268.201,145.261L268.372,145.281L268.443,145.29L268.551,145.303L268.756,145.328L268.859,145.341L268.91,145.347L269.107,145.372L269.314,145.399L269.356,145.404C269.525,145.426 269.695,145.448 269.864,145.471L269.874,145.472L269.926,145.48L270.319,145.533L270.408,145.546L270.436,145.55L270.497,145.559L270.792,145.6L270.972,145.627L271.001,145.631L271.032,145.635C283.772,147.498 298.327,152.05 313.681,161.365Z" style="fill:rgb(229,130,25);"/>
                    <clipPath id="_clip5">
                        <path d="M313.681,161.365C317.143,163.466 320.642,165.814 324.168,168.431C330.275,172.941 336.469,178.246 342.692,184.469C403.305,245.082 376.781,302.906 376.781,302.906L264.408,415.279L111.605,262.476L111.636,262.445L111.552,262.475L224.1,150.293C224.1,150.293 236.857,144.485 256.648,144.557L256.967,144.559L257.092,144.56L257.153,144.56L257.236,144.561L257.384,144.563L257.533,144.565L257.651,144.566L257.735,144.567L257.803,144.568L257.961,144.571L258.153,144.574L258.224,144.575L258.284,144.577C258.684,144.585 259.087,144.595 259.493,144.608L259.674,144.613L259.929,144.623C262.488,144.715 265.15,144.909 267.907,145.227L267.979,145.235L268.028,145.241L268.201,145.261L268.372,145.281L268.443,145.29L268.551,145.303L268.756,145.328L268.859,145.341L268.91,145.347L269.107,145.372L269.314,145.399L269.356,145.404C269.525,145.426 269.695,145.448 269.864,145.471L269.874,145.472L269.926,145.48L270.319,145.533L270.408,145.546L270.436,145.55L270.497,145.559L270.792,145.6L270.972,145.627L271.001,145.631L271.032,145.635C283.772,147.498 298.327,152.05 313.681,161.365Z"/>
                    </clipPath>
                    <g clip-path="url(#_clip5)">
                        <g id="rect3855-5" transform="matrix(1.07198,-0.287236,0.287236,1.07198,-297.418,-210.305)">
                            <path d="M445.201,466.005C409.61,428.832 369.815,435.477 369.815,435.477L245.695,506.869C245.695,506.869 287.579,502.732 322.51,536.841L445.201,466.005L445.201,466.005Z" style="fill:rgb(240,214,134);fill-rule:nonzero;"/>
                        </g>
                        <g id="rect3849-2" transform="matrix(1.07198,-0.287236,0.287236,1.07198,-95.4125,45.9907)">
                            <path d="M361.946,252.155L239.356,322.933C252.102,370.775 227.01,405.325 227.01,405.325L351.014,333.731C351.014,333.731 377.147,302.28 361.946,252.155L361.946,252.155Z" style="fill:rgb(210,153,89);fill-rule:nonzero;"/>
                        </g>
                        <g id="rect3853-4" transform="matrix(1.53626,-0.411639,0.411639,1.53626,-549.125,-406.375)">
                            <path d="M465.048,492.919C458.785,482.07 452.091,473.201 445.201,466.005L322.51,536.841C329.765,543.924 336.745,552.635 342.963,563.405C348.935,573.748 351.711,580.734 354.232,590.198L476.822,519.421C474.032,510.223 471.036,503.29 465.048,492.919L465.048,492.919Z" style="fill:rgb(230,196,94);fill-rule:nonzero;"/>
                        </g>
                        <g id="path4362-2" transform="matrix(1.07198,-0.287236,0.287236,1.07198,-118.413,45.9907)">
                            <path d="M346.019,196.051C344.086,193.712 342.16,191.511 340.19,189.453L206.463,266.66C208.515,268.664 210.598,270.809 212.595,273.083L346.019,196.051Z" style="fill:rgb(255,226,157);fill-rule:nonzero;"/>
                        </g>
                    </g>
                </g>
                <path id="path3071-6" d="M237.455,681.13C237.455,681.13 250.973,659.729 232.773,627.917C214.572,596.105 188.314,596.017 188.314,596.017L188.273,595.946C188.273,595.946 154.44,649.381 146.072,664.947C137.705,680.513 141.033,682.37 157.363,684.503C173.693,686.636 237.455,681.13 237.455,681.13L237.455,681.13Z" style="fill:rgb(18,18,25);fill-rule:nonzero;"/>
            </g>
            <g transform="matrix(1.06866,-0.286999,0.287271,1.07456,-296.764,-211.461)">
                <path d="M188.314,596.017L246.614,507.114C246.614,507.114 307.922,500.102 344.082,562.732C380.241,625.362 343.212,675.093 343.212,675.093L237.552,680.769L237.455,681.13C237.455,681.13 250.973,659.729 232.773,627.917C214.572,596.105 188.314,596.017 188.314,596.017Z" style="fill:rgb(234,219,172);"/>
            </g>
            <g transform="matrix(0.999232,0,0,1.00151,-0.0307014,-0.443673)">
                <path d="M76.089,374.522L111.605,262.476C114.494,254.827 173.032,251.244 196.819,269.48C203.549,262.459 259.818,312.677 259.051,333.248C272.174,342.418 274.781,421.053 264.361,415.285L264.432,415.214L264.408,415.279L152.773,451.647L152.773,451.647L152.773,451.647L152.773,451.647C152.773,451.647 161.117,424.822 132.469,395.948C103.821,367.075 76.089,374.522 76.089,374.522L76.089,374.522Z" style="fill:url(#_Linear6);"/>
            </g>
            <g transform="matrix(0.999232,0,0,1.00151,-0.0307014,-0.443673)">
                <path d="M75.583,374.457L111.605,262.476L111.605,262.476C111.605,262.476 111.689,262.444 111.854,262.385C116.601,248.45 196.167,256.951 196.819,269.48C203.28,261.924 259.507,312.12 259.051,333.248C272.332,333.582 276.659,400.116 264.361,415.285L264.432,415.214C264.432,415.214 264.43,415.272 264.408,415.279C245.798,421.351 152.773,451.647 152.773,451.647L152.773,451.647L152.773,451.647L152.773,451.647C152.773,451.647 161.117,424.822 132.469,395.948C103.821,367.075 75.648,374.522 75.648,374.522L75.583,374.457Z" style="fill:url(#_Linear7);"/>
            </g>
            <g id="shadow" transform="matrix(1.07116,-0.287671,0.287015,1.0736,-95.37,45.6166)">
                <path id="path4232-9" d="M483.269,179.417C489.2,191.995 480.235,240.746 431.308,238.892C425.564,255.621 392.657,283.227 364.487,261.852C365.213,265.422 365.832,268.749 366.1,272.12C366.844,281.459 366.943,289.327 365.837,296.649C362.168,320.929 350.717,334.217 351.014,333.731L432.303,286.799L457.649,272.165C471.713,264.045 497.818,230.88 483.269,179.417L483.269,179.417Z" style="fill:rgb(54,21,75);fill-opacity:0.584314;fill-rule:nonzero;"/>
            </g>
            <g id="path4074-2" transform="matrix(1.07116,-0.287671,0.287015,1.0736,-95.37,45.6166)">
                <path d="M118.259,403.182C109.101,410.096 29.447,416.11 32.779,403.963C36.11,391.816 84.705,405.035 112.572,364.428C119.69,376.091 121.803,389.266 118.259,403.182Z" style="fill:rgb(30,30,42);fill-rule:nonzero;"/>
            </g>
            <g id="highlight" transform="matrix(1.07116,-0.287671,0.287015,1.0736,-95.37,45.6166)">
                <path id="path4072-6" d="M73.419,334.397C87.456,335.296 100.51,343.99 108.288,357.708C102.279,377.491 47.737,396.27 43.256,387.731C38.775,379.191 59.295,358.203 73.419,334.397Z" style="fill:rgb(150,150,177);fill-rule:nonzero;"/>
            </g>
            <g id="path6929-9" transform="matrix(1.07116,-0.287671,0.287015,1.0736,-95.37,45.6166)">
                <path d="M229.743,291.591C200.403,240.772 155.421,233.352 136.817,232.548L129.749,236.629C130.315,236.574 190.925,230.886 226.916,293.224C263.076,355.854 227.01,405.325 227.01,405.325L234.281,401.127C242.97,384.622 258.998,342.261 229.743,291.591L229.743,291.591Z" style="fill:rgb(177,132,97);fill-rule:nonzero;"/>
            </g>
        </g>
    </g>
    <defs>
        <linearGradient id="_Linear1" x1="0" y1="0" x2="1" y2="0" gradientUnits="userSpaceOnUse" gradientTransform="matrix(97.235,168.416,-168.416,97.235,491.719,365.152)"><stop offset="0%" style="stop-color:rgb(255,138,159);stop-opacity:1"/><stop offset="64%" style="stop-color:rgb(191,94,120);stop-opacity:1"/><stop offset="100%" style="stop-color:rgb(128,50,81);stop-opacity:1"/></linearGradient>
        <linearGradient id="_Linear2" x1="0" y1="0" x2="1" y2="0" gradientUnits="userSpaceOnUse" gradientTransform="matrix(96.4367,168.416,-167.033,97.235,422.112,405.052)"><stop offset="0%" style="stop-color:rgb(203,203,213);stop-opacity:1"/><stop offset="12%" style="stop-color:rgb(241,241,244);stop-opacity:1"/><stop offset="25%" style="stop-color:white;stop-opacity:1"/><stop offset="28%" style="stop-color:rgb(247,247,251);stop-opacity:1"/><stop offset="29%" style="stop-color:rgb(225,225,240);stop-opacity:1"/><stop offset="30%" style="stop-color:rgb(199,199,227);stop-opacity:1"/><stop offset="100%" style="stop-color:rgb(167,167,190);stop-opacity:1"/></linearGradient>
        <linearGradient id="_Linear3" x1="0" y1="0" x2="1" y2="0" gradientUnits="userSpaceOnUse" gradientTransform="matrix(97.235,168.416,-168.416,97.235,399.615,418.328)"><stop offset="0%" style="stop-color:rgb(203,203,213);stop-opacity:1"/><stop offset="12%" style="stop-color:rgb(241,241,244);stop-opacity:1"/><stop offset="25%" style="stop-color:white;stop-opacity:1"/><stop offset="28%" style="stop-color:rgb(247,247,251);stop-opacity:1"/><stop offset="29%" style="stop-color:rgb(225,225,240);stop-opacity:1"/><stop offset="30%" style="stop-color:rgb(199,199,227);stop-opacity:1"/><stop offset="100%" style="stop-color:rgb(167,167,190);stop-opacity:1"/></linearGradient>
        <linearGradient id="_Linear4" x1="0" y1="0" x2="1" y2="0" gradientUnits="userSpaceOnUse" gradientTransform="matrix(97.235,168.416,-168.416,97.235,378.574,430.476)"><stop offset="0%" style="stop-color:rgb(203,203,213);stop-opacity:1"/><stop offset="12%" style="stop-color:rgb(241,241,244);stop-opacity:1"/><stop offset="25%" style="stop-color:white;stop-opacity:1"/><stop offset="28%" style="stop-color:rgb(247,247,251);stop-opacity:1"/><stop offset="29%" style="stop-color:rgb(225,225,240);stop-opacity:1"/><stop offset="30%" style="stop-color:rgb(199,199,227);stop-opacity:1"/><stop offset="100%" style="stop-color:rgb(167,167,190);stop-opacity:1"/></linearGradient>
        <linearGradient id="_Linear6" x1="0" y1="0" x2="1" y2="0" gradientUnits="userSpaceOnUse" gradientTransform="matrix(75,20,-20,75,90,296)"><stop offset="0%" style="stop-color:white;stop-opacity:0"/><stop offset="10%" style="stop-color:white;stop-opacity:0.117647"/><stop offset="14%" style="stop-color:white;stop-opacity:0.443137"/><stop offset="16%" style="stop-color:white;stop-opacity:0.831373"/><stop offset="100%" style="stop-color:white;stop-opacity:0"/></linearGradient>
        <linearGradient id="_Linear7" x1="0" y1="0" x2="1" y2="0" gradientUnits="userSpaceOnUse" gradientTransform="matrix(-58,-104.003,104.003,-58,256,461)"><stop offset="0%" style="stop-color:rgb(177,148,106);stop-opacity:1"/><stop offset="55%" style="stop-color:rgb(177,148,106);stop-opacity:0.792157"/><stop offset="100%" style="stop-color:rgb(177,148,106);stop-opacity:0"/></linearGradient>
    </defs>
</svg>
