<svg xmlns="http://www.w3.org/2000/svg" xml:space="preserve" style="fill-rule:evenodd;clip-rule:evenodd;stroke-linecap:round;stroke-linejoin:round" viewBox="0 0 48 48"><path d="M43.13 43.45H4.87a2.9 2.9 0 0 1-2.5-4.33l7.07-12.23L21.5 5.99a2.9 2.9 0 0 1 5 0l7.06 12.24 12.07 20.89a2.9 2.9 0 0 1-2.5 4.33Z" style="fill:#e84850;fill-opacity:.99;fill-rule:nonzero"/><path d="M43.13 43.45H4.87a2.9 2.9 0 0 1-2.5-4.33l7.07-12.23L21.5 5.99a2.9 2.9 0 0 1 5 0l7.06 12.24 12.07 20.89a2.9 2.9 0 0 1-2.5 4.33Z" style="fill:none;fill-rule:nonzero;stroke:#7a0000;stroke-width:1px"/><path d="M24.02 32.43a3.4 3.4 0 0 1 0 6.78H24a3.4 3.4 0 0 1 0-6.78h.02ZM22.6 30.75h2.82a2 2 0 0 0 1.97-2v-11.9a2 2 0 0 0-2-2h-2.78a2 2 0 0 0-2 2v11.9c0 1.1.9 2 2 2Z" style="fill:#fafafa;stroke:#7a0000;stroke-opacity:.99;stroke-width:1px;stroke-linecap:butt;stroke-miterlimit:2"/></svg>