<?xml version="1.0" encoding="UTF-8" standalone="no"?>
<!DOCTYPE svg PUBLIC "-//W3C//DTD SVG 1.1//EN" "http://www.w3.org/Graphics/SVG/1.1/DTD/svg11.dtd">
<svg width="100%" height="100%" viewBox="0 0 48 48" version="1.1" xmlns="http://www.w3.org/2000/svg" xmlns:xlink="http://www.w3.org/1999/xlink" xml:space="preserve" xmlns:serif="http://www.serif.com/" style="fill-rule:evenodd;clip-rule:evenodd;stroke-linecap:round;stroke-linejoin:round;">
    <g id="Layer-1" serif:id="Layer 1" transform="matrix(1,0,0,1,0,-1074.52)">
        <path id="path3678" d="M43.128,1117.97L4.872,1117.97C3.842,1117.97 2.887,1117.42 2.372,1116.53C1.857,1115.64 1.857,1114.53 2.372,1113.64L9.436,1101.41L21.5,1080.51C22.015,1079.62 22.97,1079.07 24,1079.07C25.03,1079.07 25.985,1079.62 26.5,1080.51L33.564,1092.75L45.628,1113.64C46.143,1114.53 46.143,1115.64 45.628,1116.53C45.113,1117.42 44.158,1117.97 43.128,1117.97Z" style="fill:url(#_Linear1);fill-rule:nonzero;"/>
        <g id="path3758" transform="matrix(0.264583,0,0,0.264583,0,1074.52)">
            <path d="M8.179,149.535C7.732,150.745 7.504,152.025 7.504,153.314C7.504,159.3 12.429,164.225 18.414,164.225C18.415,164.225 18.417,164.225 18.418,164.225L163,164.225C163.001,164.225 163.002,164.225 163.003,164.225C168.988,164.225 173.914,159.3 173.914,153.314C173.914,152.025 173.685,150.745 173.238,149.535C171.659,153.812 167.558,156.667 163,156.666L18.418,156.666C13.859,156.667 9.758,153.812 8.179,149.535Z" style="fill:rgb(161,7,5);fill-rule:nonzero;"/>
        </g>
        <g id="path3771" transform="matrix(0.264583,0,0,0.264583,0,1074.52)">
            <path d="M90.62,17.192C86.758,17.224 83.191,19.303 81.26,22.648L35.662,101.619L8.969,147.859C7.35,150.667 7.063,154.054 8.187,157.094C8.399,156.514 8.661,155.954 8.969,155.418L35.662,109.178L81.26,30.207C83.206,26.835 86.816,24.751 90.709,24.751C94.602,24.751 98.211,26.835 100.157,30.207L126.858,76.447L172.448,155.418C172.759,155.953 173.023,156.514 173.238,157.094C174.36,154.053 174.07,150.665 172.448,147.859L126.858,68.888L100.157,22.648C98.195,19.249 94.545,17.161 90.62,17.192Z" style="fill:rgb(237,83,83);fill-rule:nonzero;"/>
        </g>
        <path id="path3703" d="M43.128,1117.97L4.872,1117.97C3.842,1117.97 2.887,1117.42 2.372,1116.53C1.857,1115.64 1.857,1114.53 2.372,1113.64L9.436,1101.41L21.5,1080.51C22.015,1079.62 22.97,1079.07 24,1079.07C25.03,1079.07 25.985,1079.62 26.5,1080.51L33.564,1092.75L45.628,1113.64C46.143,1114.53 46.143,1115.64 45.628,1116.53C45.113,1117.42 44.158,1117.97 43.128,1117.97Z" style="fill:none;fill-rule:nonzero;stroke:rgb(122,0,0);stroke-width:1px;"/>
        <g id="g3731" transform="matrix(1,0,0,1.00001,0,1.98735)">
            <circle id="circle3725" cx="24" cy="1110.34" r="3.392" style="fill-opacity:0.15;"/>
            <path id="rect3727" d="M27.392,1091.37C27.392,1090.26 26.496,1089.37 25.392,1089.37L22.608,1089.37C21.504,1089.37 20.608,1090.26 20.608,1091.37L20.608,1103.27C20.608,1104.37 21.504,1105.27 22.608,1105.27L25.392,1105.27C26.496,1105.27 27.392,1104.37 27.392,1103.27L27.392,1091.37Z" style="fill-opacity:0.15;"/>
        </g>
        <circle id="path3707" cx="24" cy="1110.34" r="3.392" style="fill:rgb(250,250,250);"/>
        <path id="rect3709" d="M27.392,1091.37C27.392,1090.26 26.496,1089.37 25.392,1089.37L22.608,1089.37C21.504,1089.37 20.608,1090.26 20.608,1091.37L20.608,1103.27C20.608,1104.37 21.504,1105.27 22.608,1105.27L25.392,1105.27C26.496,1105.27 27.392,1104.37 27.392,1103.27L27.392,1091.37Z" style="fill:rgb(250,250,250);"/>
        <circle id="circle3733" cx="24" cy="1110.34" r="3.392" style="fill:none;stroke:rgb(122,0,0);stroke-width:1px;"/>
        <path id="rect3735" d="M27.392,1091.37C27.392,1090.26 26.496,1089.37 25.392,1089.37L22.608,1089.37C21.504,1089.37 20.608,1090.26 20.608,1091.37L20.608,1103.27C20.608,1104.37 21.504,1105.27 22.608,1105.27L25.392,1105.27C26.496,1105.27 27.392,1104.37 27.392,1103.27L27.392,1091.37Z" style="fill:none;stroke:rgb(122,0,0);stroke-width:1px;"/>
    </g>
    <defs>
        <linearGradient id="_Linear1" x1="0" y1="0" x2="1" y2="0" gradientUnits="userSpaceOnUse" gradientTransform="matrix(-0.55357,50.4465,-50.4465,-0.55357,24.2143,1079.93)"><stop offset="0" style="stop-color:rgb(198,38,46);stop-opacity:1"/><stop offset="1" style="stop-color:rgb(161,7,5);stop-opacity:1"/></linearGradient>
    </defs>
</svg>
