<?xml version="1.0" encoding="UTF-8" standalone="no"?>
<svg
   xmlns:dc="http://purl.org/dc/elements/1.1/"
   xmlns:cc="http://creativecommons.org/ns#"
   xmlns:rdf="http://www.w3.org/1999/02/22-rdf-syntax-ns#"
   xmlns:svg="http://www.w3.org/2000/svg"
   xmlns="http://www.w3.org/2000/svg"
   xmlns:xlink="http://www.w3.org/1999/xlink"
   xmlns:sodipodi="http://sodipodi.sourceforge.net/DTD/sodipodi-0.dtd"
   xmlns:inkscape="http://www.inkscape.org/namespaces/inkscape"
   sodipodi:docname="hand.svg"
   inkscape:version="1.0 (4035a4fb49, 2020-05-01)"
   id="svg5652"
   version="1.1"
   viewBox="0 0 8.4666665 8.4666669"
   height="32"
   width="32">
  <defs
     id="defs5646">
    <linearGradient
       inkscape:collect="always"
       id="linearGradient953">
      <stop
         style="stop-color:#000000;stop-opacity:0.1"
         offset="0"
         id="stop949" />
      <stop
         style="stop-color:#ffffff;stop-opacity:0"
         offset="1"
         id="stop951" />
    </linearGradient>
    <linearGradient
       id="linearGradient1236"
       inkscape:collect="always">
      <stop
         id="stop1232"
         offset="0"
         style="stop-color:#feb392;stop-opacity:1" />
      <stop
         id="stop1234"
         offset="1"
         style="stop-color:#febe82;stop-opacity:1" />
    </linearGradient>
    <linearGradient
       inkscape:collect="always"
       id="linearGradient1022">
      <stop
         style="stop-color:#f6ae85;stop-opacity:1"
         offset="0"
         id="stop1018" />
      <stop
         style="stop-color:#fec794;stop-opacity:1"
         offset="1"
         id="stop1020" />
    </linearGradient>
    <linearGradient
       id="linearGradient980"
       inkscape:collect="always">
      <stop
         id="stop976"
         offset="0"
         style="stop-color:#000000;stop-opacity:0.15000001" />
      <stop
         id="stop978"
         offset="1"
         style="stop-color:#ffffff;stop-opacity:0" />
    </linearGradient>
    <linearGradient
       gradientTransform="matrix(1.0104921,0,0,1.0104921,-205.78062,205.05353)"
       gradientUnits="userSpaceOnUse"
       y2="2.3233805"
       x2="-0.13884707"
       y1="6.6720958"
       x1="-0.80407947"
       id="linearGradient3389"
       xlink:href="#linearGradient1022"
       inkscape:collect="always" />
    <linearGradient
       id="linearGradient5272"
       inkscape:collect="always">
      <stop
         id="stop5268"
         offset="0"
         style="stop-color:#f37329;stop-opacity:1;" />
      <stop
         id="stop5270"
         offset="1"
         style="stop-color:#fb9145;stop-opacity:1" />
    </linearGradient>
    <linearGradient
       gradientTransform="matrix(1.0104898,0,0,1.0104943,-0.41491508,290.59362)"
       gradientUnits="userSpaceOnUse"
       y2="1.1990117"
       x2="5.1714253"
       y1="5.2929559"
       x1="5.1967177"
       id="linearGradient3381"
       xlink:href="#linearGradient1236"
       inkscape:collect="always" />
    <linearGradient
       inkscape:collect="always"
       xlink:href="#linearGradient953"
       id="linearGradient1040"
       x1="17"
       y1="35"
       x2="17.495651"
       y2="2.9999993"
       gradientUnits="userSpaceOnUse" />
    <linearGradient
       gradientTransform="matrix(0.26458333,0,0,0.26458333,9.5911459,288.53332)"
       y2="2.9999993"
       x2="17.495651"
       y1="29"
       x1="16.983002"
       gradientUnits="userSpaceOnUse"
       id="linearGradient981"
       xlink:href="#linearGradient980"
       inkscape:collect="always" />
    <linearGradient
       y2="1.1990117"
       x2="5.1714253"
       y1="7.1328411"
       x1="5.2661476"
       gradientTransform="matrix(1.0104898,0,0,1.0104943,9.1762308,290.59362)"
       gradientUnits="userSpaceOnUse"
       id="linearGradient983"
       xlink:href="#linearGradient5272"
       inkscape:collect="always" />
    <linearGradient
       y2="2.3233805"
       x2="-0.13884707"
       y1="7.2853899"
       x1="-1.7645235"
       gradientTransform="matrix(1.0104921,0,0,1.0104921,-198.99864,211.83551)"
       gradientUnits="userSpaceOnUse"
       id="linearGradient985"
       xlink:href="#linearGradient5272"
       inkscape:collect="always" />
  </defs>
  <sodipodi:namedview
     inkscape:lockguides="true"
     inkscape:snap-global="true"
     id="base"
     pagecolor="#ffffff"
     bordercolor="#666666"
     borderopacity="1.0"
     inkscape:pageopacity="0.0"
     inkscape:pageshadow="2"
     inkscape:zoom="16"
     inkscape:cx="25.513146"
     inkscape:cy="14.42099"
     inkscape:document-units="px"
     inkscape:current-layer="layer2"
     inkscape:document-rotation="0"
     showgrid="true"
     units="px"
     inkscape:snap-grids="true"
     showguides="true"
     inkscape:guide-bbox="true"
     inkscape:snap-bbox="true"
     inkscape:snap-nodes="true"
     inkscape:bbox-nodes="true"
     inkscape:object-paths="false"
     inkscape:snap-intersection-paths="true"
     inkscape:snap-smooth-nodes="true"
     inkscape:object-nodes="true">
    <inkscape:grid
       type="xygrid"
       id="grid6215" />
    <sodipodi:guide
       inkscape:locked="true"
       position="6.3499999,7.6729169"
       orientation="0,1"
       id="guide6217" />
    <sodipodi:guide
       inkscape:locked="true"
       position="214.02944,0.79375"
       orientation="0,1"
       id="guide6219" />
    <sodipodi:guide
       inkscape:locked="true"
       position="7.6729167,6.8791667"
       orientation="1,0"
       id="guide6221" />
    <sodipodi:guide
       inkscape:locked="true"
       position="0.79374998,6.8791669"
       orientation="1,0"
       id="guide6223" />
  </sodipodi:namedview>
  <metadata
     id="metadata5649">
    <rdf:RDF>
      <cc:Work
         rdf:about="">
        <dc:format>image/svg+xml</dc:format>
        <dc:type
           rdf:resource="http://purl.org/dc/dcmitype/StillImage" />
        <dc:title />
      </cc:Work>
    </rdf:RDF>
  </metadata>
  <g
     style="display:none"
     inkscape:label="Layer 3"
     id="layer3"
     inkscape:groupmode="layer">
    <g
       id="g1048"
       style="display:inline"
       transform="translate(0,-288.53331)">
      <rect
         ry="0.52916676"
         rx="0.52916676"
         y="289.46011"
         x="11.857482"
         height="4.1504745"
         width="1.7581381"
         id="rect933"
         style="display:inline;fill:#fb9145;fill-opacity:1;stroke:none;stroke-width:0.264582;stroke-linecap:round;stroke-linejoin:round;stroke-opacity:1" />
      <rect
         style="display:inline;fill:#fb9145;fill-opacity:1;stroke:none;stroke-width:0.264582;stroke-linecap:round;stroke-linejoin:round;stroke-opacity:1"
         id="rect935"
         width="1.7581381"
         height="3.1103468"
         x="15.373757"
         y="290.50024"
         rx="0.52916676"
         ry="0.52916676" />
      <rect
         ry="0.52916676"
         rx="0.52916676"
         y="289.80911"
         x="13.61562"
         height="3.8014679"
         width="1.7581381"
         id="rect937"
         style="display:inline;fill:#fb9145;fill-opacity:1;stroke:none;stroke-width:0.264582;stroke-linecap:round;stroke-linejoin:round;stroke-opacity:1" />
      <rect
         transform="matrix(0.70710522,-0.70710834,0.70710522,0.70710834,0,0)"
         style="display:inline;fill:url(#linearGradient985);fill-opacity:1;stroke:none;stroke-width:0.264582;stroke-linecap:round;stroke-linejoin:round;stroke-opacity:1"
         id="rect939"
         width="2.4612439"
         height="3.8676691"
         x="-200.79292"
         y="214.43817"
         rx="0.66145837"
         ry="0.66145837" />
      <path
         id="path941"
         style="display:inline;fill:#cc3b02;fill-opacity:1;stroke:none;stroke-width:0.264582;stroke-linecap:round;stroke-linejoin:round;stroke-opacity:1"
         d="m 11.389191,292.1467 c -0.06728,0 -0.133937,0.0132 -0.198823,0.0336 0.09813,0.031 0.191095,0.0826 0.26924,0.16051 l 5.27e-4,1.17577 h 0.397647 l -5.27e-4,-1.17577 c -0.129743,-0.12945 -0.298883,-0.19415 -0.468064,-0.19415 z"
         sodipodi:nodetypes="scccccs" />
      <path
         id="path943"
         style="display:inline;fill:#ffc27d;fill-opacity:1;stroke:none;stroke-width:0.264582;stroke-linecap:round;stroke-linejoin:round;stroke-opacity:1"
         d="m 11.3889,292.14682 c -0.169409,0 -0.338769,0.0649 -0.468581,0.19469 l -0.80306,0.80306 c -0.1992293,0.19922 -0.2442622,0.49158 -0.1377272,0.73419 0.032304,-0.0737 0.077218,-0.14348 0.1377272,-0.20399 l 0.80306,-0.80307 c 0.259623,-0.25963 0.677539,-0.25963 0.937163,0 l 1.797696,1.79771 c 0.06041,0.0604 0.105429,0.12991 0.137726,0.20348 0.106506,-0.24261 0.06149,-0.53447 -0.137726,-0.73369 l -1.797696,-1.79769 c -0.129808,-0.12982 -0.299172,-0.19469 -0.468582,-0.19469 z" />
      <path
         id="path945"
         style="display:inline;fill:#cc3b02;fill-opacity:1;stroke:none;stroke-width:0.264582;stroke-linecap:round;stroke-linejoin:round;stroke-opacity:1"
         d="m 12.687757,289.45997 c 0.293729,0 0.530196,0.23647 0.530196,0.5302 v 1.73558 H 13.6156 v -1.73558 c 0,-0.29373 -0.236467,-0.5302 -0.530196,-0.5302 z"
         sodipodi:nodetypes="csccssc" />
      <path
         id="path947"
         style="display:inline;fill:#cc3b02;fill-opacity:1;stroke:none;stroke-width:0.264582;stroke-linecap:round;stroke-linejoin:round;stroke-opacity:1"
         d="m 16.204053,290.50025 c 0.293728,0 0.530196,0.23647 0.530196,0.53021 v 3.09006 c 0,0.29373 -0.236468,0.5302 -0.530196,0.5302 H 16.6017 c 0.293728,0 0.530196,-0.23647 0.530196,-0.5302 v -3.09006 c 0,-0.29374 -0.236468,-0.53021 -0.530196,-0.53021 z" />
      <rect
         ry="0.52916676"
         rx="0.52916676"
         y="291.80524"
         x="11.857481"
         height="4.2690744"
         width="5.2740817"
         id="rect949"
         style="display:inline;fill:url(#linearGradient983);fill-opacity:1;stroke:none;stroke-width:0.264582;stroke-linecap:round;stroke-linejoin:round;stroke-opacity:1" />
      <path
         id="path951"
         style="display:inline;fill:#ffc27d;fill-opacity:1;stroke:none;stroke-width:0.264582;stroke-linecap:round;stroke-linejoin:round;stroke-opacity:1"
         d="m 12.387451,289.45997 c -0.293729,0 -0.530196,0.23647 -0.530196,0.5302 v 0.5302 c 0,-0.29373 0.236467,-0.5302 0.530196,-0.5302 h 0.697953 c 0.293729,0 0.530196,0.23647 0.530196,0.5302 v -0.5302 c 0,-0.29373 -0.236467,-0.5302 -0.530196,-0.5302 z" />
      <path
         id="path953"
         style="fill:#cc3b02;fill-opacity:1;stroke:none;stroke-width:0.264583px;stroke-linecap:butt;stroke-linejoin:miter;stroke-opacity:1"
         d="m 16.734126,292.76595 v 3.2894 c 0.228538,-0.059 0.397647,-0.26356 0.397647,-0.51104 v -2.77836 z" />
      <path
         id="path955"
         style="display:inline;fill:#cc3b02;fill-opacity:1;stroke:none;stroke-width:0.264582;stroke-linecap:round;stroke-linejoin:round;stroke-opacity:1"
         d="m 16.204053,290.50025 c 0.293728,0 0.530196,0.23647 0.530196,0.53021 v 1.73556 h 0.397647 v -1.73556 c 0,-0.29374 -0.236468,-0.53021 -0.530196,-0.53021 z"
         sodipodi:nodetypes="csccssc" />
      <path
         id="path957"
         style="display:inline;fill:#ffc27d;fill-opacity:1;stroke:none;stroke-width:0.264582;stroke-linecap:round;stroke-linejoin:round;stroke-opacity:1"
         d="m 15.904141,290.50018 c -0.293729,0 -0.530196,0.23646 -0.530196,0.5302 v 0.5302 c 0,-0.29374 0.236467,-0.5302 0.530196,-0.5302 h 0.697436 c 0.293728,0 0.530196,0.23646 0.530196,0.5302 v -0.5302 c 0,-0.29374 -0.236468,-0.5302 -0.530196,-0.5302 z" />
      <path
         sodipodi:nodetypes="csccssc"
         d="m 14.445915,289.80912 c 0.293728,0 0.530196,0.23647 0.530196,0.5302 v 1.58083 h 0.397647 v -1.58083 c 0,-0.29373 -0.236468,-0.5302 -0.530196,-0.5302 z"
         style="display:inline;fill:#cc3b02;fill-opacity:1;stroke:none;stroke-width:0.264582;stroke-linecap:round;stroke-linejoin:round;stroke-opacity:1"
         id="path959" />
      <path
         id="path961"
         style="display:inline;fill:#ffc27d;fill-opacity:1;stroke:none;stroke-width:0.264582;stroke-linecap:round;stroke-linejoin:round;stroke-opacity:1"
         d="m 14.145796,289.80896 c -0.293729,0 -0.530196,0.23646 -0.530196,0.53019 v 0.53021 c 0,-0.29374 0.236467,-0.53021 0.530196,-0.53021 h 0.697953 c 0.293729,0 0.530196,0.23647 0.530196,0.53021 v -0.53021 c 0,-0.29373 -0.236467,-0.53019 -0.530196,-0.53019 z" />
      <path
         id="path963"
         style="display:inline;fill:none;fill-opacity:1;stroke:#a62100;stroke-width:0.264582;stroke-linecap:round;stroke-linejoin:round;stroke-opacity:1"
         d="m 12.387451,289.45997 c -0.293729,0 -0.530196,0.23647 -0.530196,0.5302 v 2.34552 0.005 c -0.259662,-0.2591 -0.677716,-0.25893 -0.937163,5.2e-4 l -0.803061,0.80358 c -0.2596228,0.25962 -0.2596228,0.67753 0,0.93716 l 1.797696,1.79771 c 0.130333,0.13033 0.300559,0.19521 0.470653,0.19468 7.04e-4,0 0.0014,0 0.0021,0 h 4.214125 c 0.293729,0 0.530196,-0.23646 0.530196,-0.5302 v -3.20862 -1.30531 c 0,-0.29374 -0.236467,-0.5302 -0.530196,-0.5302 h -0.697434 c -0.293729,0 -0.530196,0.23646 -0.530196,0.5302 v -0.69123 c 0,-0.29373 -0.236467,-0.53019 -0.530196,-0.53019 h -0.697953 c -0.293729,0 -0.530196,0.23646 -0.530196,0.53019 V 289.99 c 0,-0.29373 -0.236467,-0.5302 -0.530196,-0.5302 z" />
      <path
         id="path965"
         d="m 11.460135,293.51663 c 0,0.27039 0.397346,0.3975 0.397346,0.3975 l 3.02e-4,-0.3975 z"
         style="display:inline;fill:#cc3b02;fill-opacity:1;stroke:none;stroke-width:0.264583px;stroke-linecap:butt;stroke-linejoin:miter;stroke-opacity:1" />
      <path
         sodipodi:nodetypes="cc"
         id="path967"
         d="m 11.857481,292.40811 v 1.37326"
         style="display:inline;fill:#cc3b02;fill-opacity:1;stroke:#a62100;stroke-width:0.264999;stroke-linecap:round;stroke-linejoin:miter;stroke-miterlimit:4;stroke-dasharray:none;stroke-opacity:1" />
      <path
         id="path969"
         d="m 14.976111,291.92002 c 0,0.27038 0.397345,0.39749 0.397345,0.39749 l 3.02e-4,-0.39749 z"
         style="display:inline;fill:#cc3b02;fill-opacity:1;stroke:none;stroke-width:0.264583px;stroke-linecap:butt;stroke-linejoin:miter;stroke-opacity:1" />
      <path
         style="display:inline;fill:none;fill-opacity:1;stroke:#a62100;stroke-width:0.264999;stroke-linecap:round;stroke-linejoin:miter;stroke-miterlimit:4;stroke-dasharray:none;stroke-opacity:1"
         d="m 15.373945,290.86936 -4.09e-4,1.3154"
         id="path971"
         sodipodi:nodetypes="cc" />
      <path
         style="display:inline;fill:#cc3b02;fill-opacity:1;stroke:none;stroke-width:0.264583px;stroke-linecap:butt;stroke-linejoin:miter;stroke-opacity:1"
         d="m 13.21789,291.72005 c 0,0.27038 0.397346,0.3975 0.397346,0.3975 l 3.01e-4,-0.3975 z"
         id="path973" />
      <path
         sodipodi:nodetypes="cc"
         id="path975"
         d="m 13.615772,290.32542 -2.63e-4,1.65937"
         style="display:inline;fill:none;fill-opacity:1;stroke:#a62100;stroke-width:0.264999;stroke-linecap:round;stroke-linejoin:miter;stroke-miterlimit:4;stroke-dasharray:none;stroke-opacity:1" />
      <path
         style="display:inline;fill:#cc3b02;fill-opacity:1;stroke:#a62100;stroke-width:0.264999;stroke-linecap:round;stroke-linejoin:miter;stroke-miterlimit:4;stroke-dasharray:none;stroke-opacity:1"
         d="m 11.857481,290.72197 v 1.37326"
         id="path977"
         sodipodi:nodetypes="cc" />
      <path
         id="path979"
         style="display:inline;fill:url(#linearGradient981);fill-opacity:1;stroke:none;stroke-width:0.264582;stroke-linecap:round;stroke-linejoin:round;stroke-opacity:1"
         d="m 12.386841,289.45988 c -0.293159,0 -0.529167,0.23601 -0.529167,0.52917 v 2.34559 0.007 l -10e-4,-10e-4 c -0.259119,-0.25912 -0.676225,-0.25912 -0.935344,0 l -0.805119,0.8046 c -0.2591112,0.25911 -0.2591183,0.67674 0,0.93586 l 1.799374,1.79937 c 0.130881,0.13089 0.302036,0.19513 0.472839,0.19379 h 4.214213 c 0.293158,0 0.529167,-0.23601 0.529167,-0.52917 v -3.21065 -1.30535 c 0,-0.29316 -0.236009,-0.52916 -0.529167,-0.52916 h -0.699699 c -0.293158,0 -0.529166,0.236 -0.529166,0.52916 v -0.69091 c 0,-0.29316 -0.236009,-0.52917 -0.529167,-0.52917 h -0.699699 c -0.293158,0 -0.529167,0.23601 -0.529167,0.52917 v -0.34933 c 0,-0.29316 -0.236008,-0.52917 -0.529166,-0.52917 z" />
    </g>
  </g>
  <g
     style="display:inline"
     inkscape:label="Layer 1"
     inkscape:groupmode="layer"
     id="layer1"
     transform="translate(0,-288.53332)">
    <rect
       ry="0.52916676"
       rx="0.52916676"
       y="289.46011"
       x="2.266336"
       height="4.1504745"
       width="1.7581381"
       id="rect3263"
       style="display:inline;fill:#febe82;fill-opacity:1;stroke:none;stroke-width:0.264582;stroke-linecap:round;stroke-linejoin:round;stroke-opacity:1" />
    <rect
       style="display:inline;fill:#febe82;fill-opacity:1;stroke:none;stroke-width:0.264582;stroke-linecap:round;stroke-linejoin:round;stroke-opacity:1"
       id="rect3303"
       width="1.7581381"
       height="3.1103468"
       x="5.7826118"
       y="290.50024"
       rx="0.52916676"
       ry="0.52916676" />
    <rect
       ry="0.52916676"
       rx="0.52916676"
       y="289.80911"
       x="4.0244741"
       height="3.8014679"
       width="1.7581381"
       id="rect3307"
       style="display:inline;fill:#febe82;fill-opacity:1;stroke:none;stroke-width:0.264582;stroke-linecap:round;stroke-linejoin:round;stroke-opacity:1" />
    <rect
       transform="matrix(0.70710522,-0.70710834,0.70710522,0.70710834,0,0)"
       style="display:inline;fill:url(#linearGradient3389);fill-opacity:1;stroke:none;stroke-width:0.264582;stroke-linecap:round;stroke-linejoin:round;stroke-opacity:1"
       id="rect3269"
       width="2.4612439"
       height="3.8676691"
       x="-207.57491"
       y="207.65619"
       rx="0.66145837"
       ry="0.66145837" />
    <path
       id="rect963"
       style="display:inline;fill:#ed7f6e;fill-opacity:1;stroke:none;stroke-width:0.264582;stroke-linecap:round;stroke-linejoin:round;stroke-opacity:1"
       d="m 1.7980454,292.1467 c -0.067278,0 -0.1339376,0.0132 -0.1988235,0.0336 0.09813,0.031 0.1910955,0.0826 0.26924,0.16051 l 5.276e-4,1.17577 h 0.397647 l -5.276e-4,-1.17577 C 2.1363661,292.21136 1.967226,292.14666 1.7980454,292.14666 Z"
       sodipodi:nodetypes="scccccs" />
    <path
       id="rect890"
       style="display:inline;fill:#fed5a4;fill-opacity:1;stroke:none;stroke-width:0.264582;stroke-linecap:round;stroke-linejoin:round;stroke-opacity:1"
       d="m 1.7977546,292.14682 c -0.1694096,0 -0.3387699,0.0649 -0.4685814,0.19469 l -0.80306055,0.80306 c -0.19922882,0.19922 -0.24426168,0.49158 -0.1377267,0.73419 0.032304,-0.0737 0.0772178,-0.14348 0.1377267,-0.20399 L 1.3291732,292.8717 c 0.2596232,-0.25963 0.6775394,-0.25963 0.9371627,0 l 1.7976959,1.79771 c 0.060411,0.0604 0.1054294,0.12991 0.1377265,0.20348 0.1065056,-0.24261 0.061487,-0.53447 -0.1377265,-0.73369 l -1.7976959,-1.79769 c -0.129808,-0.12982 -0.2991718,-0.19469 -0.4685813,-0.19469 z" />
    <path
       id="rect901"
       style="display:inline;fill:#ed7f6e;fill-opacity:1;stroke:none;stroke-width:0.264582;stroke-linecap:round;stroke-linejoin:round;stroke-opacity:1"
       d="m 3.0966111,289.45997 c 0.2937287,0 0.530196,0.23647 0.530196,0.5302 v 1.73558 h 0.397647 v -1.73558 c 0,-0.29373 -0.2364674,-0.5302 -0.5301961,-0.5302 z"
       sodipodi:nodetypes="csccssc" />
    <path
       id="path916"
       style="display:inline;fill:#ed7f6e;fill-opacity:1;stroke:none;stroke-width:0.264582;stroke-linecap:round;stroke-linejoin:round;stroke-opacity:1"
       d="m 6.6129067,290.50025 c 0.2937286,0 0.530196,0.23647 0.530196,0.53021 v 3.09006 c 0,0.29373 -0.2364674,0.5302 -0.530196,0.5302 h 0.397647 c 0.2937285,0 0.530196,-0.23647 0.530196,-0.5302 v -3.09006 c 0,-0.29374 -0.2364675,-0.53021 -0.530196,-0.53021 z" />
    <rect
       ry="0.52916676"
       rx="0.52916676"
       y="291.80524"
       x="2.266335"
       height="4.2690744"
       width="5.2740817"
       id="rect3261"
       style="display:inline;fill:url(#linearGradient3381);fill-opacity:1;stroke:none;stroke-width:0.264582;stroke-linecap:round;stroke-linejoin:round;stroke-opacity:1" />
    <path
       id="rect869"
       style="display:inline;fill:#fed5a4;fill-opacity:1;stroke:none;stroke-width:0.264582;stroke-linecap:round;stroke-linejoin:round;stroke-opacity:1"
       d="m 2.796305,289.45997 c -0.2937287,0 -0.5301961,0.23647 -0.5301961,0.5302 v 0.5302 c 0,-0.29373 0.2364674,-0.5302 0.5301961,-0.5302 h 0.697953 c 0.2937287,0 0.5301961,0.23647 0.5301961,0.5302 v -0.5302 c 0,-0.29373 -0.2364674,-0.5302 -0.5301961,-0.5302 z" />
    <path
       id="path994"
       style="fill:#ed7f6e;fill-opacity:1;stroke:none;stroke-width:0.264583px;stroke-linecap:butt;stroke-linejoin:miter;stroke-opacity:1"
       d="m 7.1429797,292.76595 v 3.2894 c 0.2285384,-0.059 0.397647,-0.26356 0.397647,-0.51104 v -2.77836 z" />
    <path
       id="path992"
       style="display:inline;fill:#ed7f6e;fill-opacity:1;stroke:none;stroke-width:0.264582;stroke-linecap:round;stroke-linejoin:round;stroke-opacity:1"
       d="m 6.6129067,290.50025 c 0.2937286,0 0.530196,0.23647 0.530196,0.53021 v 1.73556 h 0.397647 v -1.73556 c 0,-0.29374 -0.2364674,-0.53021 -0.530196,-0.53021 z"
       sodipodi:nodetypes="csccssc" />
    <path
       id="rect871"
       style="display:inline;fill:#fed5a4;fill-opacity:1;stroke:none;stroke-width:0.264582;stroke-linecap:round;stroke-linejoin:round;stroke-opacity:1"
       d="m 6.3129954,290.50018 c -0.2937289,0 -0.5301959,0.23646 -0.5301959,0.5302 v 0.5302 c 0,-0.29374 0.236467,-0.5302 0.5301959,-0.5302 h 0.6974354 c 0.2937286,0 0.5301959,0.23646 0.5301959,0.5302 v -0.5302 c 0,-0.29374 -0.2364673,-0.5302 -0.5301959,-0.5302 z" />
    <path
       sodipodi:nodetypes="csccssc"
       d="m 4.8547689,289.80912 c 0.2937287,0 0.5301961,0.23647 0.5301961,0.5302 v 1.58083 h 0.3976469 v -1.58083 c 0,-0.29373 -0.2364674,-0.5302 -0.530196,-0.5302 z"
       style="display:inline;fill:#ed7f6e;fill-opacity:1;stroke:none;stroke-width:0.264582;stroke-linecap:round;stroke-linejoin:round;stroke-opacity:1"
       id="path990" />
    <path
       id="rect873"
       style="display:inline;fill:#fed5a4;fill-opacity:1;stroke:none;stroke-width:0.264582;stroke-linecap:round;stroke-linejoin:round;stroke-opacity:1"
       d="m 4.5546501,289.80896 c -0.2937286,0 -0.530196,0.23646 -0.530196,0.53019 v 0.53021 c 0,-0.29374 0.2364674,-0.53021 0.530196,-0.53021 h 0.6979533 c 0.2937284,0 0.5301961,0.23647 0.5301961,0.53021 v -0.53021 c 0,-0.29373 -0.2364677,-0.53019 -0.5301961,-0.53019 z" />
    <path
       id="rect947"
       style="display:inline;fill:none;fill-opacity:1;stroke:#a62100;stroke-width:0.264582;stroke-linecap:round;stroke-linejoin:round;stroke-opacity:1"
       d="m 2.796305,289.45997 c -0.2937287,0 -0.5301961,0.23647 -0.5301961,0.5302 v 2.34552 0.005 c -0.2596617,-0.2591 -0.6777155,-0.25893 -0.9371627,5.2e-4 l -0.80306057,0.80358 c -0.25962331,0.25962 -0.25962331,0.67753 0,0.93716 l 1.79769577,1.79771 c 0.1303328,0.13033 0.3005586,0.19521 0.4706524,0.19468 7.048e-4,0 0.00136,0 0.00207,0 h 4.2141258 c 0.2937286,0 0.530196,-0.23646 0.530196,-0.5302 v -3.20862 -1.30531 c 0,-0.29374 -0.2364674,-0.5302 -0.530196,-0.5302 H 6.3129954 c -0.2937289,0 -0.5301959,0.23646 -0.5301959,0.5302 v -0.69123 c 0,-0.29373 -0.2364677,-0.53019 -0.5301961,-0.53019 H 4.5546501 c -0.2937286,0 -0.530196,0.23646 -0.530196,0.53019 V 289.99 c 0,-0.29373 -0.2364674,-0.5302 -0.5301961,-0.5302 z" />
    <path
       id="path981"
       d="m 1.8689896,293.51663 c 0,0.27039 0.3973454,0.3975 0.3973454,0.3975 l 3.017e-4,-0.3975 z"
       style="display:inline;fill:#ed7f6e;fill-opacity:1;stroke:none;stroke-width:0.264583px;stroke-linecap:butt;stroke-linejoin:miter;stroke-opacity:1" />
    <path
       sodipodi:nodetypes="cc"
       id="path3325"
       d="m 2.266335,292.40811 v 1.37326"
       style="display:inline;fill:#ed7f6e;fill-opacity:1;stroke:#a62100;stroke-width:0.264999;stroke-linecap:round;stroke-linejoin:miter;stroke-miterlimit:4;stroke-dasharray:none;stroke-opacity:1" />
    <path
       id="path988"
       d="m 5.384965,291.92002 c 0,0.27038 0.3973454,0.39749 0.3973454,0.39749 l 3.016e-4,-0.39749 z"
       style="display:inline;fill:#ed7f6e;fill-opacity:1;stroke:none;stroke-width:0.264583px;stroke-linecap:butt;stroke-linejoin:miter;stroke-opacity:1" />
    <path
       style="display:inline;fill:none;fill-opacity:1;stroke:#a62100;stroke-width:0.264999;stroke-linecap:round;stroke-linejoin:miter;stroke-miterlimit:4;stroke-dasharray:none;stroke-opacity:1"
       d="m 5.7827995,290.86936 -4.098e-4,1.3154"
       id="path3327"
       sodipodi:nodetypes="cc" />
    <path
       style="display:inline;fill:#ed7f6e;fill-opacity:1;stroke:none;stroke-width:0.264583px;stroke-linecap:butt;stroke-linejoin:miter;stroke-opacity:1"
       d="m 3.6267444,291.72005 c 0,0.27038 0.3973455,0.3975 0.3973455,0.3975 l 3.016e-4,-0.3975 z"
       id="path983" />
    <path
       sodipodi:nodetypes="cc"
       id="path3329"
       d="m 4.0246266,290.32542 -2.637e-4,1.65937"
       style="display:inline;fill:none;fill-opacity:1;stroke:#a62100;stroke-width:0.264999;stroke-linecap:round;stroke-linejoin:miter;stroke-miterlimit:4;stroke-dasharray:none;stroke-opacity:1" />
    <path
       style="display:inline;fill:#ed7f6e;fill-opacity:1;stroke:#a62100;stroke-width:0.264999;stroke-linecap:round;stroke-linejoin:miter;stroke-miterlimit:4;stroke-dasharray:none;stroke-opacity:1"
       d="m 2.266335,290.72197 v 1.37326"
       id="path890"
       sodipodi:nodetypes="cc" />
    <path
       d="m 8.9033353,-9.124454 h 2.3926667 v 2.392668 H 8.9033353 Z"
       style="display:inline;opacity:1;fill:#ffd887;fill-opacity:1;stroke:none;stroke-width:0.264582;stroke-linecap:round;stroke-linejoin:round"
       id="path1040"
       transform="translate(0,288.53332)" />
    <path
       id="path1042"
       style="display:inline;opacity:1;fill:#fe9ab8;fill-opacity:1;stroke:none;stroke-width:0.264582;stroke-linecap:round;stroke-linejoin:round"
       d="m 61.621807,-9.124454 h 2.392668 v 2.392668 h -2.392668 z"
       transform="translate(0,288.53332)" />
    <g
       style="display:inline;stroke-width:13.4044"
       id="g1209"
       transform="matrix(0.07460225,0,0,0.07460225,38.133774,283.7254)">
      <path
         id="path1185"
         d="m -391.817,-57.8607 h 32.072 v 32.0724 h -32.072 z"
         style="opacity:1;fill:#ffd887;fill-opacity:1;stroke:none;stroke-width:3.54657;stroke-linecap:round;stroke-linejoin:round" />
      <path
         id="path1187"
         d="m -327.575,-57.8607 h 32.072 v 32.0724 h -32.072 z"
         style="opacity:1;fill:#fed28b;fill-opacity:1;stroke:none;stroke-width:3.54657;stroke-linecap:round;stroke-linejoin:round" />
      <path
         id="path1189"
         d="m -263.333,-57.8607 h 32.072 v 32.0724 h -32.072 z"
         style="opacity:1;fill:#fecc8f;fill-opacity:1;stroke:none;stroke-width:3.54657;stroke-linecap:round;stroke-linejoin:round" />
      <path
         id="path1191"
         d="m -199.092,-57.8607 h 32.073 v 32.0724 h -32.073 z"
         style="opacity:1;fill:#fec794;fill-opacity:1;stroke:none;stroke-width:3.54657;stroke-linecap:round;stroke-linejoin:round" />
      <path
         id="path1193"
         d="m -134.85,-57.8607 h 32.073 v 32.0724 h -32.073 z"
         style="opacity:1;fill:#fec198;fill-opacity:1;stroke:none;stroke-width:3.54657;stroke-linecap:round;stroke-linejoin:round" />
      <path
         id="path1195"
         d="m -70.6078,-57.8607 h 32.0724 v 32.0724 h -32.0724 z"
         style="opacity:1;fill:#febb9d;fill-opacity:1;stroke:none;stroke-width:3.54657;stroke-linecap:round;stroke-linejoin:round" />
      <path
         id="path1197"
         d="M -6.36588,-57.8607 H 25.7065 v 32.0724 H -6.36588 Z"
         style="opacity:1;fill:#feb6a1;fill-opacity:1;stroke:none;stroke-width:3.54657;stroke-linecap:round;stroke-linejoin:round" />
      <path
         id="path1199"
         d="m 57.876,-57.8607 h 32.0723 v 32.0724 H 57.876 Z"
         style="opacity:1;fill:#feb0a6;fill-opacity:1;stroke:none;stroke-width:3.54657;stroke-linecap:round;stroke-linejoin:round" />
      <path
         id="path1201"
         d="m 122.118,-57.8607 h 32.072 v 32.0724 h -32.072 z"
         style="opacity:1;fill:#feaaaa;fill-opacity:1;stroke:none;stroke-width:3.54657;stroke-linecap:round;stroke-linejoin:round" />
      <path
         id="path1203"
         d="m 186.36,-57.8607 h 32.072 v 32.0724 H 186.36 Z"
         style="opacity:1;fill:#fea5af;fill-opacity:1;stroke:none;stroke-width:3.54657;stroke-linecap:round;stroke-linejoin:round" />
      <path
         id="path1205"
         d="m 250.602,-57.8607 h 32.072 v 32.0724 h -32.072 z"
         style="opacity:1;fill:#fe9fb3;fill-opacity:1;stroke:none;stroke-width:3.54657;stroke-linecap:round;stroke-linejoin:round" />
      <path
         id="path1207"
         d="m 314.844,-57.8607 h 32.072 v 32.0724 h -32.072 z"
         style="opacity:1;fill:#fe9ab8;fill-opacity:1;stroke:none;stroke-width:3.54657;stroke-linecap:round;stroke-linejoin:round" />
    </g>
    <path
       id="path1226"
       style="display:inline;opacity:1;fill:#ffd887;fill-opacity:1;stroke:none;stroke-width:0.264582;stroke-linecap:round;stroke-linejoin:round"
       d="m 8.9033353,-4.725586 h 2.3926667 v 2.392668 H 8.9033353 Z"
       transform="translate(0,288.53332)" />
    <path
       d="m 61.621807,-4.725586 h 2.392668 v 2.392668 h -2.392668 z"
       style="display:inline;opacity:1;fill:#de3e80;fill-opacity:1;stroke:none;stroke-width:0.264582;stroke-linecap:round;stroke-linejoin:round"
       id="path1228"
       transform="translate(0,288.53332)" />
    <g
       style="display:inline;stroke-width:13.4044"
       id="g1425"
       transform="matrix(0.07460225,0,0,0.07460225,38.133774,283.7254)">
      <path
         id="path1401"
         d="m 314.844,1.10363 h 32.072 V 33.176 h -32.072 z"
         style="opacity:1;fill:#de3e80;fill-opacity:1;stroke:none;stroke-width:3.54657;stroke-linecap:round;stroke-linejoin:round" />
      <path
         id="path1403"
         d="m 250.602,1.10363 h 32.072 V 33.176 h -32.072 z"
         style="opacity:1;fill:#e14c80;fill-opacity:1;stroke:none;stroke-width:3.54657;stroke-linecap:round;stroke-linejoin:round" />
      <path
         id="path1405"
         d="m 186.36,1.10363 h 32.072 V 33.176 H 186.36 Z"
         style="opacity:1;fill:#e45a81;fill-opacity:1;stroke:none;stroke-width:3.54657;stroke-linecap:round;stroke-linejoin:round" />
      <path
         id="path1407"
         d="M 122.118,1.10363 H 154.19 V 33.176 h -32.072 z"
         style="opacity:1;fill:#e76881;fill-opacity:1;stroke:none;stroke-width:3.54657;stroke-linecap:round;stroke-linejoin:round" />
      <path
         id="path1409"
         d="M 57.876,1.10363 H 89.9483 V 33.176 H 57.876 Z"
         style="opacity:1;fill:#ea7682;fill-opacity:1;stroke:none;stroke-width:3.54657;stroke-linecap:round;stroke-linejoin:round" />
      <path
         id="path1411"
         d="M -6.36588,1.10363 H 25.7065 V 33.176 H -6.36588 Z"
         style="opacity:1;fill:#ed8483;fill-opacity:1;stroke:none;stroke-width:3.54657;stroke-linecap:round;stroke-linejoin:round" />
      <path
         id="path1413"
         d="m -70.6078,1.10363 h 32.0724 V 33.176 h -32.0724 z"
         style="opacity:1;fill:#f09283;fill-opacity:1;stroke:none;stroke-width:3.54657;stroke-linecap:round;stroke-linejoin:round" />
      <path
         id="path1415"
         d="m -134.85,1.10363 h 32.073 V 33.176 h -32.073 z"
         style="opacity:1;fill:#f3a084;fill-opacity:1;stroke:none;stroke-width:3.54657;stroke-linecap:round;stroke-linejoin:round" />
      <path
         id="path1417"
         d="m -199.092,1.10363 h 32.073 V 33.176 h -32.073 z"
         style="opacity:1;fill:#f6ae85;fill-opacity:1;stroke:none;stroke-width:3.54657;stroke-linecap:round;stroke-linejoin:round" />
      <path
         id="path1419"
         d="m -263.333,1.10363 h 32.072 V 33.176 h -32.072 z"
         style="opacity:1;fill:#f9bc85;fill-opacity:1;stroke:none;stroke-width:3.54657;stroke-linecap:round;stroke-linejoin:round" />
      <path
         id="path1421"
         d="m -327.575,1.10363 h 32.072 V 33.176 h -32.072 z"
         style="opacity:1;fill:#fcca86;fill-opacity:1;stroke:none;stroke-width:3.54657;stroke-linecap:round;stroke-linejoin:round" />
      <path
         id="path1423"
         d="m -391.817,1.10363 h 32.072 V 33.176 h -32.072 z"
         style="opacity:1;fill:#ffd887;fill-opacity:1;stroke:none;stroke-width:3.54657;stroke-linecap:round;stroke-linejoin:round" />
    </g>
    <path
       d="m 61.621807,275.30415 h 2.392668 v 2.39267 h -2.392668 z"
       style="display:inline;opacity:1;fill:#fe9ab8;fill-opacity:1;stroke:none;stroke-width:0.264582;stroke-linecap:round;stroke-linejoin:round"
       id="path1076" />
    <path
       id="path1078"
       style="display:inline;opacity:1;fill:#ffc27d;fill-opacity:1;stroke:none;stroke-width:0.264582;stroke-linecap:round;stroke-linejoin:round"
       d="m 8.9033353,275.30415 h 2.3926667 v 2.39267 H 8.9033353 Z" />
    <g
       id="g1208">
      <path
         style="display:inline;opacity:1.0;fill:#ffc27d;fill-opacity:1.0;stroke:none;stroke-width:0.264582;stroke-linecap:round;stroke-linejoin:round"
         d="M 8.90334 275.304 L 11.296 275.304 L 11.296 275.305 C 11.296 275.341 11.296 277.697 11.296 277.697 L 11.296 277.697 L 8.90334 277.697 L 8.90334 277.696 C 8.90334 277.66 8.90334 275.304 8.90334 275.304"
         id="path1184" />
      <path
         style="display:inline;opacity:1.0;fill:#febe82;fill-opacity:1.0;stroke:none;stroke-width:0.264582;stroke-linecap:round;stroke-linejoin:round"
         d="M 13.6959 275.304 L 16.0886 275.304 L 16.0886 275.305 C 16.0886 275.338 16.0886 277.697 16.0886 277.697 L 16.0886 277.697 C 16.0852 277.697 13.6959 277.697 13.6959 277.697 L 13.6959 277.696 C 13.6959 277.663 13.6959 275.304 13.6959 275.304"
         id="path1186" />
      <path
         style="display:inline;opacity:1.0;fill:#feba87;fill-opacity:1.0;stroke:none;stroke-width:0.264582;stroke-linecap:round;stroke-linejoin:round"
         d="M 18.4885 275.304 L 20.8812 275.304 L 20.8812 275.305 C 20.8812 275.335 20.8812 277.697 20.8812 277.697 L 20.8811 277.697 C 20.8744 277.697 18.4885 277.697 18.4885 277.697 L 18.4885 277.696 C 18.4885 277.666 18.4885 275.304 18.4885 275.304"
         id="path1188" />
      <path
         style="display:inline;opacity:1.0;fill:#feb78d;fill-opacity:1.0;stroke:none;stroke-width:0.264582;stroke-linecap:round;stroke-linejoin:round"
         d="M 23.2811 275.304 L 25.6738 275.304 L 25.6738 275.304 C 25.6738 275.331 25.6738 277.697 25.6738 277.697 L 25.6736 277.697 C 25.6636 277.697 23.2811 277.697 23.2811 277.697 L 23.2811 277.697 C 23.2811 277.67 23.2811 275.304 23.2811 275.304"
         id="path1190" />
      <path
         style="display:inline;opacity:1.0;fill:#feb392;fill-opacity:1.0;stroke:none;stroke-width:0.264582;stroke-linecap:round;stroke-linejoin:round"
         d="M 28.0737 275.304 L 30.4664 275.304 L 30.4664 275.304 C 30.4664 275.328 30.4664 277.697 30.4664 277.697 L 30.4662 277.697 C 30.4528 277.697 28.0737 277.697 28.0737 277.697 L 28.0737 277.697 C 28.0737 277.673 28.0737 275.304 28.0737 275.304"
         id="path1192" />
      <path
         style="display:inline;opacity:1.0;fill:#feaf97;fill-opacity:1.0;stroke:none;stroke-width:0.264582;stroke-linecap:round;stroke-linejoin:round"
         d="M 32.8663 275.304 L 35.2589 275.304 L 35.2589 275.304 C 35.2589 275.324 35.2589 277.697 35.2589 277.697 L 35.2587 277.697 C 35.242 277.697 32.8663 277.697 32.8663 277.697 L 32.8663 277.697 C 32.8663 277.677 32.8663 275.304 32.8663 275.304"
         id="path1194" />
      <path
         style="display:inline;opacity:1.0;fill:#feac9d;fill-opacity:1.0;stroke:none;stroke-width:0.264582;stroke-linecap:round;stroke-linejoin:round"
         d="M 37.6589 275.304 L 40.0515 275.304 L 40.0515 275.304 C 40.0515 275.321 40.0515 277.697 40.0515 277.697 L 40.0513 277.697 C 40.0312 277.697 37.6589 277.697 37.6589 277.697 L 37.6589 277.697 C 37.6589 277.68 37.6589 275.304 37.6589 275.304"
         id="path1196" />
      <path
         style="display:inline;opacity:1.0;fill:#fea8a2;fill-opacity:1.0;stroke:none;stroke-width:0.264582;stroke-linecap:round;stroke-linejoin:round"
         d="M 42.4515 275.304 L 44.8441 275.304 L 44.8441 275.304 C 44.8441 275.318 44.8441 277.697 44.8441 277.697 L 44.8438 277.697 C 44.8204 277.697 42.4515 277.697 42.4515 277.697 L 42.4515 277.697 C 42.4515 277.683 42.4515 275.304 42.4515 275.304"
         id="path1198" />
      <path
         style="display:inline;opacity:1.0;fill:#fea4a7;fill-opacity:1.0;stroke:none;stroke-width:0.264582;stroke-linecap:round;stroke-linejoin:round"
         d="M 47.244 275.304 L 49.6367 275.304 L 49.6367 275.304 C 49.6367 275.314 49.6367 277.697 49.6367 277.697 L 49.6364 277.697 C 49.6096 277.697 47.244 277.697 47.244 277.697 L 47.244 277.697 C 47.244 277.687 47.244 275.304 47.244 275.304"
         id="path1200" />
      <path
         style="display:inline;opacity:1.0;fill:#fea1ad;fill-opacity:1.0;stroke:none;stroke-width:0.264582;stroke-linecap:round;stroke-linejoin:round"
         d="M 52.0366 275.304 L 54.4293 275.304 L 54.4293 275.304 C 54.4293 275.311 54.4293 277.697 54.4293 277.697 L 54.4289 277.697 C 54.3988 277.697 52.0366 277.697 52.0366 277.697 L 52.0366 277.697 C 52.0366 277.69 52.0366 275.304 52.0366 275.304"
         id="path1202" />
      <path
         style="display:inline;opacity:1.0;fill:#fe9db2;fill-opacity:1.0;stroke:none;stroke-width:0.264582;stroke-linecap:round;stroke-linejoin:round"
         d="M 56.8292 275.304 L 59.2219 275.304 L 59.2219 275.304 C 59.2219 275.308 59.2219 277.697 59.2219 277.697 L 59.2215 277.697 C 59.188 277.697 56.8292 277.697 56.8292 277.697 L 56.8292 277.697 C 56.8292 277.693 56.8292 275.304 56.8292 275.304"
         id="path1204" />
      <path
         style="display:inline;opacity:1.0;fill:#fe9ab8;fill-opacity:1.0;stroke:none;stroke-width:0.264582;stroke-linecap:round;stroke-linejoin:round"
         d="M 61.6218 275.304 L 64.0145 275.304 L 64.0145 275.304 L 64.0145 277.697 L 64.014 277.697 C 63.9772 277.697 61.6218 277.697 61.6218 277.697 L 61.6218 277.697 Z"
         id="path1206" />
    </g>
  </g>
  <g
     style="display:inline"
     inkscape:label="Layer 2"
     id="layer2"
     inkscape:groupmode="layer">
    <path
       transform="scale(0.26458333)"
       id="rect1018"
       style="display:inline;fill:url(#linearGradient1040);fill-opacity:1;stroke:none;stroke-width:0.999995;stroke-linecap:round;stroke-linejoin:round;stroke-opacity:1"
       d="m 10.566406,3.5019531 c -1.108,0 -1.9999998,0.8919937 -1.9999998,2 v 8.8652349 0.02734 l -0.00391,-0.0039 c -0.9793463,-0.979351 -2.55581,-0.979351 -3.5351562,0 l -3.042965,3.041013 c -0.9793196,0.979324 -0.9793463,2.557758 0,3.537109 l 6.8007812,6.800781 c 0.4946709,0.494673 1.1415525,0.737474 1.7871098,0.732422 H 26.5 c 1.108,0 2,-0.891994 2,-2 V 14.367188 9.4335938 c 0,-1.1080063 -0.892,-2 -2,-2 h -2.644531 c -1.108,0 -2,0.8919937 -2,2 V 6.8222656 c 0,-1.1080063 -0.892,-2 -2,-2 h -2.644531 c -1.108001,0 -2,0.8919937 -2,2 V 5.5019531 c -1e-6,-1.1080063 -0.892,-2 -2,-2 z" />
  </g>
</svg>
