<?xml version="1.0" encoding="UTF-8" standalone="no"?>
<!DOCTYPE svg PUBLIC "-//W3C//DTD SVG 1.1//EN" "http://www.w3.org/Graphics/SVG/1.1/DTD/svg11.dtd">
<svg width="100%" height="100%" viewBox="0 0 16 16" version="1.1" xmlns="http://www.w3.org/2000/svg" xmlns:xlink="http://www.w3.org/1999/xlink" xml:space="preserve" xmlns:serif="http://www.serif.com/" style="fill-rule:evenodd;clip-rule:evenodd;stroke-linecap:round;stroke-linejoin:round;">
    <g id="Layer-1" serif:id="Layer 1" transform="matrix(1,0,0,1,0,-1106.52)">
        <path id="path912" d="M2.429,1108.02C2.427,1108.02 2.426,1108.02 2.425,1108.02C1.917,1108.02 1.498,1108.44 1.497,1108.94L1.497,1111.73C1.498,1112.24 1.917,1112.66 2.425,1112.66C2.426,1112.66 2.427,1112.66 2.429,1112.66C2.935,1112.66 3.352,1112.24 3.354,1111.73L3.354,1109.88L5.211,1109.88C5.212,1109.88 5.213,1109.88 5.214,1109.88C5.724,1109.88 6.143,1109.46 6.143,1108.95C6.143,1108.95 6.143,1108.95 6.143,1108.94C6.141,1108.44 5.722,1108.02 5.214,1108.02C5.213,1108.02 5.212,1108.02 5.211,1108.02L2.429,1108.02ZM10.782,1108.02C10.275,1108.02 9.859,1108.44 9.857,1108.94C9.857,1108.95 9.857,1108.95 9.857,1108.95C9.857,1109.46 10.274,1109.88 10.782,1109.88L12.639,1109.88L12.639,1111.73C12.641,1112.24 13.059,1112.66 13.567,1112.66C13.569,1112.66 13.57,1112.66 13.571,1112.66C14.078,1112.66 14.494,1112.24 14.496,1111.73L14.496,1108.94C14.494,1108.44 14.078,1108.02 13.571,1108.02L10.782,1108.02ZM2.429,1116.37C2.427,1116.37 2.426,1116.37 2.425,1116.37C1.916,1116.37 1.497,1116.79 1.497,1117.3C1.497,1117.3 1.497,1117.3 1.497,1117.31L1.497,1120.09C1.497,1120.09 1.497,1120.09 1.497,1120.09C1.497,1120.6 1.916,1121.02 2.425,1121.02C2.426,1121.02 2.427,1121.02 2.429,1121.02L5.211,1121.02C5.212,1121.02 5.213,1121.02 5.214,1121.02C5.724,1121.02 6.143,1120.6 6.143,1120.09C6.143,1120.09 6.143,1120.09 6.143,1120.09C6.141,1119.58 5.722,1119.16 5.214,1119.16C5.213,1119.16 5.212,1119.16 5.211,1119.16L3.354,1119.16L3.354,1117.31C3.354,1117.3 3.354,1117.3 3.354,1117.3C3.354,1116.79 2.937,1116.38 2.429,1116.37ZM13.571,1116.37C13.57,1116.37 13.569,1116.37 13.567,1116.37C13.058,1116.37 12.639,1116.79 12.639,1117.3C12.639,1117.3 12.639,1117.3 12.639,1117.31L12.639,1119.16L10.782,1119.16C10.732,1119.16 10.681,1119.16 10.631,1119.17C10.582,1119.18 10.534,1119.19 10.487,1119.21C10.438,1119.23 10.39,1119.25 10.343,1119.27C10.3,1119.3 10.259,1119.32 10.22,1119.35C10.14,1119.42 10.071,1119.49 10.014,1119.57C9.956,1119.66 9.912,1119.75 9.884,1119.85C9.871,1119.9 9.862,1119.95 9.857,1120C9.855,1120.03 9.855,1120.06 9.857,1120.09C9.856,1120.19 9.872,1120.29 9.905,1120.39C9.922,1120.44 9.942,1120.48 9.967,1120.53C10.087,1120.75 10.295,1120.92 10.542,1120.99C10.592,1121 10.642,1121.01 10.693,1121.01C10.722,1121.02 10.752,1121.02 10.782,1121.02L13.571,1121.02C13.722,1121.02 13.87,1120.98 14.003,1120.91C14.23,1120.79 14.396,1120.58 14.462,1120.33C14.475,1120.28 14.484,1120.23 14.489,1120.18C14.493,1120.15 14.496,1120.12 14.496,1120.09L14.496,1117.31C14.496,1117.3 14.496,1117.3 14.496,1117.3C14.496,1116.79 14.079,1116.38 13.571,1116.37L13.571,1116.37Z" style="fill-rule:nonzero;"/>
        <path id="path914" d="M2.429,1108.02C2.427,1108.02 2.426,1108.02 2.425,1108.02C1.917,1108.02 1.498,1108.44 1.497,1108.94L1.497,1111.73C1.498,1112.24 1.917,1112.66 2.425,1112.66C2.426,1112.66 2.427,1112.66 2.429,1112.66C2.935,1112.66 3.352,1112.24 3.354,1111.73L3.354,1109.88L5.211,1109.88C5.212,1109.88 5.213,1109.88 5.214,1109.88C5.724,1109.88 6.143,1109.46 6.143,1108.95C6.143,1108.95 6.143,1108.95 6.143,1108.94C6.141,1108.44 5.722,1108.02 5.214,1108.02C5.213,1108.02 5.212,1108.02 5.211,1108.02L2.429,1108.02ZM10.782,1108.02C10.275,1108.02 9.859,1108.44 9.857,1108.94C9.857,1108.95 9.857,1108.95 9.857,1108.95C9.857,1109.46 10.274,1109.88 10.782,1109.88L12.639,1109.88L12.639,1111.73C12.641,1112.24 13.059,1112.66 13.567,1112.66C13.569,1112.66 13.57,1112.66 13.571,1112.66C14.078,1112.66 14.494,1112.24 14.496,1111.73L14.496,1108.94C14.494,1108.44 14.078,1108.02 13.571,1108.02L10.782,1108.02ZM2.429,1116.37C2.427,1116.37 2.426,1116.37 2.425,1116.37C1.916,1116.37 1.497,1116.79 1.497,1117.3C1.497,1117.3 1.497,1117.3 1.497,1117.31L1.497,1120.09C1.497,1120.09 1.497,1120.09 1.497,1120.09C1.497,1120.6 1.916,1121.02 2.425,1121.02C2.426,1121.02 2.427,1121.02 2.429,1121.02L5.211,1121.02C5.212,1121.02 5.213,1121.02 5.214,1121.02C5.724,1121.02 6.143,1120.6 6.143,1120.09C6.143,1120.09 6.143,1120.09 6.143,1120.09C6.141,1119.58 5.722,1119.16 5.214,1119.16C5.213,1119.16 5.212,1119.16 5.211,1119.16L3.354,1119.16L3.354,1117.31C3.354,1117.3 3.354,1117.3 3.354,1117.3C3.354,1116.79 2.937,1116.38 2.429,1116.37ZM13.571,1116.37C13.57,1116.37 13.569,1116.37 13.567,1116.37C13.058,1116.37 12.639,1116.79 12.639,1117.3C12.639,1117.3 12.639,1117.3 12.639,1117.31L12.639,1119.16L10.782,1119.16C10.732,1119.16 10.681,1119.16 10.631,1119.17C10.582,1119.18 10.534,1119.19 10.487,1119.21C10.438,1119.23 10.39,1119.25 10.343,1119.27C10.3,1119.3 10.259,1119.32 10.22,1119.35C10.14,1119.42 10.071,1119.49 10.014,1119.57C9.956,1119.66 9.912,1119.75 9.884,1119.85C9.871,1119.9 9.862,1119.95 9.857,1120C9.855,1120.03 9.855,1120.06 9.857,1120.09C9.856,1120.19 9.872,1120.29 9.905,1120.39C9.922,1120.44 9.942,1120.48 9.967,1120.53C10.087,1120.75 10.295,1120.92 10.542,1120.99C10.592,1121 10.642,1121.01 10.693,1121.01C10.722,1121.02 10.752,1121.02 10.782,1121.02L13.571,1121.02C13.722,1121.02 13.87,1120.98 14.003,1120.91C14.23,1120.79 14.396,1120.58 14.462,1120.33C14.475,1120.28 14.484,1120.23 14.489,1120.18C14.493,1120.15 14.496,1120.12 14.496,1120.09L14.496,1117.31C14.496,1117.3 14.496,1117.3 14.496,1117.3C14.496,1116.79 14.079,1116.38 13.571,1116.37L13.571,1116.37Z" style="fill:none;fill-rule:nonzero;stroke:white;stroke-width:0.75px;"/>
        <g id="g922" transform="matrix(1,0,0,1,-0.00365993,0)">
            <path id="path33156" d="M10.977,1112.93L10.977,1116.11C10.977,1116.51 11.262,1116.68 11.613,1116.47C12.529,1115.94 13.445,1115.42 14.361,1114.89C14.713,1114.68 14.713,1114.36 14.361,1114.15C13.445,1113.62 12.529,1113.09 11.613,1112.57C11.262,1112.36 10.977,1112.53 10.977,1112.93L10.977,1112.93Z" style="fill-rule:nonzero;"/>
            <path id="path916" d="M10.977,1112.93L10.977,1116.11C10.977,1116.51 11.262,1116.68 11.613,1116.47C12.529,1115.94 13.445,1115.42 14.361,1114.89C14.713,1114.68 14.713,1114.36 14.361,1114.15C13.445,1113.62 12.529,1113.09 11.613,1112.57C11.262,1112.36 10.977,1112.53 10.977,1112.93L10.977,1112.93Z" style="fill:none;fill-rule:nonzero;stroke:white;stroke-width:0.75px;"/>
        </g>
        <g id="g928" transform="matrix(-1,0,0,1,15.9963,4.35062e-06)">
            <path id="path924" d="M10.977,1112.93L10.977,1116.11C10.977,1116.51 11.262,1116.68 11.613,1116.47C12.529,1115.94 13.445,1115.42 14.361,1114.89C14.713,1114.68 14.713,1114.36 14.361,1114.15C13.445,1113.62 12.529,1113.09 11.613,1112.57C11.262,1112.36 10.977,1112.53 10.977,1112.93L10.977,1112.93Z" style="fill-rule:nonzero;"/>
            <path id="path926" d="M10.977,1112.93L10.977,1116.11C10.977,1116.51 11.262,1116.68 11.613,1116.47C12.529,1115.94 13.445,1115.42 14.361,1114.89C14.713,1114.68 14.713,1114.36 14.361,1114.15C13.445,1113.62 12.529,1113.09 11.613,1112.57C11.262,1112.36 10.977,1112.53 10.977,1112.93L10.977,1112.93Z" style="fill:none;fill-rule:nonzero;stroke:white;stroke-width:0.75px;"/>
        </g>
        <g id="g938" transform="matrix(-3.82857e-16,1,-1,-3.82857e-16,1122.52,1106.52)">
            <path id="path934" d="M10.977,1112.93L10.977,1116.11C10.977,1116.51 11.262,1116.68 11.613,1116.47C12.529,1115.94 13.445,1115.42 14.361,1114.89C14.713,1114.68 14.713,1114.36 14.361,1114.15C13.445,1113.62 12.529,1113.09 11.613,1112.57C11.262,1112.36 10.977,1112.53 10.977,1112.93L10.977,1112.93Z" style="fill-rule:nonzero;"/>
            <path id="path936" d="M10.977,1112.93L10.977,1116.11C10.977,1116.51 11.262,1116.68 11.613,1116.47C12.529,1115.94 13.445,1115.42 14.361,1114.89C14.713,1114.68 14.713,1114.36 14.361,1114.15C13.445,1113.62 12.529,1113.09 11.613,1112.57C11.262,1112.36 10.977,1112.53 10.977,1112.93L10.977,1112.93Z" style="fill:none;fill-rule:nonzero;stroke:white;stroke-width:0.75px;"/>
        </g>
        <g id="g948" transform="matrix(0,-1,-1,0,1122.52,1122.52)">
            <path id="path944" d="M10.977,1112.93L10.977,1116.11C10.977,1116.51 11.262,1116.68 11.613,1116.47C12.529,1115.94 13.445,1115.42 14.361,1114.89C14.713,1114.68 14.713,1114.36 14.361,1114.15C13.445,1113.62 12.529,1113.09 11.613,1112.57C11.262,1112.36 10.977,1112.53 10.977,1112.93L10.977,1112.93Z" style="fill-rule:nonzero;"/>
            <path id="path946" d="M10.977,1112.93L10.977,1116.11C10.977,1116.51 11.262,1116.68 11.613,1116.47C12.529,1115.94 13.445,1115.42 14.361,1114.89C14.713,1114.68 14.713,1114.36 14.361,1114.15C13.445,1113.62 12.529,1113.09 11.613,1112.57C11.262,1112.36 10.977,1112.53 10.977,1112.93L10.977,1112.93Z" style="fill:none;fill-rule:nonzero;stroke:white;stroke-width:0.75px;"/>
        </g>
    </g>
</svg>
