<?xml version="1.0" encoding="UTF-8" standalone="no"?>
<!DOCTYPE svg PUBLIC "-//W3C//DTD SVG 1.1//EN" "http://www.w3.org/Graphics/SVG/1.1/DTD/svg11.dtd">
<svg width="100%" height="100%" viewBox="0 0 16 16" version="1.1" xmlns="http://www.w3.org/2000/svg" xmlns:xlink="http://www.w3.org/1999/xlink" xml:space="preserve" xmlns:serif="http://www.serif.com/" style="fill-rule:evenodd;clip-rule:evenodd;stroke-linecap:round;stroke-linejoin:round;">
    <g id="g1991" transform="matrix(0.353554,0.353554,-0.350243,0.350243,391.965,-393.643)">
        <path id="path918" d="M39,1121.52L34,1117.73L29,1113.95L29,1118.37L21,1118.37L21,1113.95L16,1117.73L11,1121.52L16,1125.31L21,1129.09L21,1124.67L29,1124.67L29,1129.09L34,1125.31L39,1121.52Z" style="fill:rgb(250,250,250);fill-rule:nonzero;"/>
        <path id="path951" d="M39,1121.52L34,1117.73L29,1113.95L29,1118.37L21,1118.37L21,1113.95L16,1117.73L11,1121.52L16,1125.31L21,1129.09L21,1124.67L29,1124.67L29,1129.09L34,1125.31L39,1121.52Z" style="fill:none;fill-rule:nonzero;stroke:black;stroke-width:2.01px;"/>
    </g>
</svg>
