<?xml version="1.0" encoding="UTF-8" standalone="no"?>
<!DOCTYPE svg PUBLIC "-//W3C//DTD SVG 1.1//EN" "http://www.w3.org/Graphics/SVG/1.1/DTD/svg11.dtd">
<svg width="100%" height="100%" viewBox="0 0 32 32" version="1.1" xmlns="http://www.w3.org/2000/svg" xmlns:xlink="http://www.w3.org/1999/xlink" xml:space="preserve" xmlns:serif="http://www.serif.com/" style="fill-rule:evenodd;clip-rule:evenodd;stroke-linecap:round;stroke-linejoin:round;">
    <g id="Layer-1" serif:id="Layer 1">
        <g id="path1552">
            <g>
                <g id="path968">
                    <path d="M15.502,14.82C16.04,15.56 16.458,16.39 16.704,17.3C17.008,18.42 17.845,20.08 10.454,25.71C10.454,25.71 2.924,29.6 3.568,29.6C3.669,29.6 3.77,29.58 3.868,29.56L9.184,28.15L12.122,27.38C14.513,26.75 18.06,24.73 18.508,22.33C18.714,21.23 18.676,20.09 18.372,18.97C17.911,17.27 16.879,15.83 15.502,14.82Z" style="fill:rgb(200,154,67);fill-rule:nonzero;"/>
                    <path d="M17.169,16.49C16.164,15.11 11.359,13.123 10.81,13.223C8.416,13.673 5.547,15.961 4.915,18.351L3.072,27.371C3.046,27.471 6.28,21.54 6.28,21.54C10.911,15.15 13.574,14.98 14.692,15.29C15.599,15.53 16.431,15.95 17.169,16.49Z" style="fill:rgb(255,253,141);fill-rule:nonzero;"/>
                </g>
            </g>
            <path d="M2.632,29.35C2.383,29.094 2.286,28.724 2.377,28.377C2.399,28.291 3.847,22.807 3.847,22.807L3.849,22.804C3.877,22.697 4.774,19.302 4.774,19.302L4.773,19.301C5.323,17.222 7.046,14.168 9.1,13.613C10.365,13.272 11.721,13.264 13.033,13.621C14.331,13.972 15.488,14.654 16.41,15.572L16.419,15.582C17.337,16.503 18.018,17.659 18.372,18.954L18.37,18.958C18.728,20.271 18.72,21.627 18.379,22.892C17.824,24.946 14.766,26.671 12.689,27.218L9.184,28.144L3.614,29.614C3.267,29.706 2.898,29.609 2.641,29.359L2.632,29.35Z" style="fill:none;fill-rule:nonzero;stroke:rgb(115,86,34);stroke-width:1.03px;"/>
        </g>
        <g id="g1589">
            <path d="M2.825,28.855C2.843,28.79 5.183,24.144 5.183,24.144L5.185,24.141C5.204,24.062 6.754,21.283 6.754,21.283L6.753,21.283C7.686,19.586 9.742,16.865 11.421,15.935C12.455,15.363 13.474,15.018 14.369,14.958L14.369,14.957C15.251,14.896 15.947,15.117 16.409,15.572C11.82,20.774 7.015,28.687 2.825,28.855Z" style="fill:rgb(202,189,158);fill-rule:nonzero;"/>
            <path id="path1556" d="M3.304,29.301C8.333,16.873 12.574,13.831 16.409,15.618L17.033,17.622C16.973,18.517 16.628,19.536 16.056,20.57L16.055,20.57C15.126,22.249 12.404,24.304 10.707,25.236C10.707,25.236 7.855,26.779 7.849,26.805L7.847,26.808C7.847,26.808 3.413,29.224 3.304,29.301L3.302,29.303C3.302,29.303 3.303,29.302 3.303,29.302L3.304,29.301Z" style="fill:rgb(255,213,19);fill-rule:nonzero;"/>
            <path d="M2.687,28.688C2.705,28.623 5.183,24.144 5.183,24.144L5.185,24.141C5.204,24.062 6.754,21.283 6.754,21.283L6.753,21.283C7.686,19.586 9.742,16.865 11.421,15.935C12.455,15.363 13.474,15.018 14.369,14.958L14.369,14.957C15.251,14.896 15.947,15.117 16.409,15.572" style="fill:none;stroke:rgb(115,86,34);stroke-width:1.03px;"/>
            <path d="M16.409,15.572L16.418,15.582C16.873,16.043 17.093,16.738 17.034,17.618L17.033,17.622C16.973,18.517 16.628,19.536 16.056,20.57L16.055,20.57C15.126,22.249 12.404,24.304 10.707,25.236C10.707,25.236 7.855,26.779 7.849,26.805L7.847,26.808C7.847,26.808 3.306,29.282 3.302,29.303" style="fill:none;stroke:rgb(115,86,34);stroke-width:1.03px;"/>
            <path d="M2.969,29.003L16.418,15.582" style="fill:none;stroke:rgb(115,86,34);stroke-width:1px;stroke-miterlimit:1.5;"/>
        </g>
        <g>
            <path d="M36.36,2.073C36.804,1.629 36.804,0.909 36.36,0.466L31.515,-4.379C31.072,-4.822 30.352,-4.823 29.909,-4.379L17.587,7.943C17.143,8.387 17.143,9.107 17.586,9.55L22.431,14.395C22.875,14.838 23.595,14.838 24.038,14.395L36.36,2.073Z" style="fill:rgb(219,98,65);fill-opacity:0.99;"/>
            <g>
                <path d="M33.957,2.221C33.957,2.221 28.374,7.813 24.577,11.305C24.661,10.993 20.583,6.475 20.2,6.933L19.38,7.953C19.38,7.953 24.112,13.247 24.012,13.997L33.876,4.56C34.388,4.05 33.957,2.221 33.957,2.221Z" style="fill:rgb(134,47,25);fill-rule:nonzero;"/>
                <path d="M29.448,-1.62C29.96,-2.13 28.305,-2.469 28.049,-2.219L18.424,7.147C17.912,7.667 19.422,8.049 19.422,8.049C19.422,8.049 29.335,-2.169 29.448,-1.62Z" style="fill:rgb(246,215,207);fill-rule:nonzero;"/>
            </g>
            <path d="M36.36,2.073C36.804,1.629 36.804,0.909 36.36,0.466L31.515,-4.379C31.072,-4.822 30.352,-4.823 29.909,-4.379L17.587,7.943C17.143,8.387 17.143,9.107 17.586,9.55L22.431,14.395C22.875,14.838 23.595,14.838 24.038,14.395L36.36,2.073Z" style="fill:none;stroke:rgb(67,55,55);stroke-opacity:0.98;stroke-width:0.85px;"/>
        </g>
        <path id="path1025" d="M23.722,14.71C25.247,12.59 18.904,5.965 17.27,8.26C17.27,8.26 12.902,12.84 12.919,13.15C14.298,11.459 20.138,17.017 18.827,19.06C19.139,19.08 23.722,14.71 23.722,14.71Z" style="fill:rgb(163,164,167);fill-rule:nonzero;"/>
        <g>
            <path d="M21.41,9.578C21.767,9.989 22.097,10.415 22.355,10.852C23.097,12.107 23.237,13.197 22.723,13.711L18.873,17.561C19.057,18.183 19.054,18.713 18.828,19.062C19.139,19.081 19.453,18.981 19.691,18.742L21.92,16.516L22.918,15.516L23.723,14.713C24.237,14.199 24.097,13.107 23.356,11.851C22.874,11.035 22.178,10.245 21.41,9.578Z" style="fill:rgb(126,128,135);fill-rule:nonzero;"/>
            <path d="M15.683,14.2L20.291,9.578L23.174,11.773C23.174,11.773 21.97,10.77 21.429,11.092C20.406,11.701 17.172,14.964 17.172,14.964L15.683,14.2Z"/>
            <path d="M19.155,8.307C18.822,8.319 14.416,12.936 14.416,12.936C14.177,13.175 15.428,14.128 16.049,14.312L19.915,10.969C20.429,10.454 21.894,10.585 22.306,10.944C21.638,10.175 19.711,8.288 19.155,8.307Z" style="fill:rgb(212,212,212);fill-rule:nonzero;"/>
        </g>
        <path id="path10251" serif:id="path1025" d="M20.13,8.62C18.875,7.88 17.784,7.75 17.27,8.26L16.466,9.06L15.467,10.06L13.24,12.29C13.001,12.53 12.902,12.84 12.919,13.15C13.424,12.83 14.291,12.94 15.296,13.46C16.551,14.2 17.781,15.43 18.522,16.69C19.043,17.69 19.154,18.56 18.827,19.06C19.139,19.08 19.453,18.98 19.692,18.74L21.92,16.52L22.919,15.52L23.722,14.71C24.237,14.2 24.097,13.11 23.356,11.85C22.615,10.6 21.386,9.37 20.13,8.63L20.13,8.62Z" style="fill:none;fill-rule:nonzero;stroke:rgb(85,87,97);stroke-opacity:0.98;stroke-width:1px;"/>
    </g>
</svg>
