<?xml version="1.0" encoding="UTF-8" standalone="no"?>
<!DOCTYPE svg PUBLIC "-//W3C//DTD SVG 1.1//EN" "http://www.w3.org/Graphics/SVG/1.1/DTD/svg11.dtd">
<svg width="100%" height="100%" viewBox="0 0 32 32" version="1.1" xmlns="http://www.w3.org/2000/svg" xmlns:xlink="http://www.w3.org/1999/xlink" xml:space="preserve" xmlns:serif="http://www.serif.com/" style="fill-rule:evenodd;clip-rule:evenodd;stroke-linecap:round;stroke-linejoin:round;">
    <g id="Layer-1" serif:id="Layer 1" transform="matrix(1,0,0,1,0,-1090.52)">
        <g id="path1552" transform="matrix(1,0,0,1,1.13687e-13,1090.52)">
            <path d="M2.632,29.35C2.383,29.094 2.286,28.724 2.377,28.377C2.399,28.291 3.847,22.807 3.847,22.807L3.849,22.804C3.877,22.697 4.774,19.302 4.774,19.302L4.773,19.301C5.323,17.222 7.046,14.168 9.1,13.613C10.365,13.272 11.721,13.264 13.033,13.621C14.331,13.972 15.488,14.654 16.41,15.572L16.419,15.582C17.337,16.503 18.018,17.659 18.372,18.954L18.37,18.958C18.728,20.271 18.72,21.627 18.379,22.892C17.824,24.946 14.766,26.671 12.689,27.218L9.184,28.144L3.614,29.614C3.267,29.706 2.898,29.609 2.641,29.359L2.632,29.35Z" style="fill:rgb(253,214,91);fill-rule:nonzero;"/>
            <g>
                <g id="path981" transform="matrix(1,0,0,1,-1.13687e-13,-1090.52)">
                    <path d="M15.502,1105.34C16.04,1106.08 16.458,1106.91 16.704,1107.82C17.008,1108.94 17.845,1110.6 10.454,1116.23C10.454,1116.23 2.924,1120.12 3.568,1120.12C3.669,1120.12 3.77,1120.1 3.868,1120.08L9.184,1118.67L12.122,1117.9C14.513,1117.27 18.06,1115.25 18.508,1112.85C18.714,1111.75 18.676,1110.61 18.372,1109.49C17.911,1107.79 16.879,1106.35 15.502,1105.34Z" style="fill:rgb(212,142,21);fill-rule:nonzero;"/>
                </g>
                <g id="path968" transform="matrix(1,0,0,1,-1.13687e-13,-1090.52)">
                    <path d="M11.334,1103.88C10.769,1103.86 10.209,1103.9 9.66,1104C7.266,1104.45 5.244,1108 4.612,1110.39L3.837,1113.33L2.433,1118.64C2.407,1118.74 2.394,1118.84 2.394,1118.94C2.394,1119.59 3.505,1118 3.505,1118L6.28,1112.06C10.911,1105.67 13.574,1105.5 14.692,1105.81C15.599,1106.05 16.431,1106.47 17.169,1107.01C16.164,1105.63 14.718,1104.6 13.025,1104.14C12.465,1103.99 11.898,1103.9 11.334,1103.88Z" style="fill:rgb(255,243,148);fill-rule:nonzero;"/>
                </g>
            </g>
            <path d="M2.632,29.35C2.383,29.094 2.286,28.724 2.377,28.377C2.399,28.291 3.847,22.807 3.847,22.807L3.849,22.804C3.877,22.697 4.774,19.302 4.774,19.302L4.773,19.301C5.323,17.222 7.046,14.168 9.1,13.613C10.365,13.272 11.721,13.264 13.033,13.621C14.331,13.972 15.488,14.654 16.41,15.572L16.419,15.582C17.337,16.503 18.018,17.659 18.372,18.954L18.37,18.958C18.728,20.271 18.72,21.627 18.379,22.892C17.824,24.946 14.766,26.671 12.689,27.218L9.184,28.144L3.614,29.614C3.267,29.706 2.898,29.609 2.641,29.359L2.632,29.35Z" style="fill:none;fill-rule:nonzero;stroke:rgb(173,95,0);stroke-width:1.03px;"/>
        </g>
        <g id="g1589" transform="matrix(0.683293,0.683293,-0.683293,0.683293,792.618,348.299)">
            <path id="path1556" d="M-13.463,1142.67L-13.463,1142.14C-13.486,1142.11 -13.463,1136.99 -13.463,1136.99C-13.492,1136.94 -13.463,1133.75 -13.463,1133.75C-13.463,1131.83 -13.462,1128.33 -13.463,1126.42L-13.462,1126.42C-13.462,1125.25 -13.462,1124.25 -13.463,1123.55L-13.464,1123.55C-13.463,1122.85 -13.463,1122.51 -13.463,1122.51" style="fill:none;fill-rule:nonzero;stroke:rgb(173,95,0);stroke-width:1.03px;"/>
            <g id="path1554" transform="matrix(0.731751,-0.731751,0.731751,0.731751,-36.8787,1123.12)">
                <path d="M2.632,29.35C2.514,29.219 2.535,28.969 2.689,28.689L2.688,28.688C2.706,28.623 5.184,24.144 5.184,24.144L5.186,24.141C5.205,24.062 6.755,21.283 6.755,21.283L6.754,21.283C7.687,19.586 9.743,16.865 11.422,15.935C12.456,15.363 13.475,15.018 14.37,14.958L14.37,14.957C15.252,14.896 15.948,15.117 16.41,15.572L16.419,15.582C16.874,16.043 17.094,16.738 17.035,17.618L17.034,17.622C16.974,18.517 16.629,19.536 16.057,20.57L16.056,20.57C15.127,22.249 12.405,24.304 10.708,25.236C10.708,25.236 7.856,26.779 7.85,26.805L7.848,26.808C7.848,26.808 3.307,29.282 3.303,29.303C3.023,29.456 2.773,29.477 2.642,29.359L2.641,29.359L2.632,29.35Z" style="fill:none;fill-rule:nonzero;stroke:rgb(173,95,0);stroke-width:1.03px;"/>
            </g>
        </g>
        <g transform="matrix(0.707107,0.707107,-0.478418,0.478418,-175.046,175.046)">
            <path d="M798.29,737.995C798.29,737.068 797.781,736.316 797.154,736.316L790.302,736.316C789.675,736.316 789.166,737.068 789.166,737.995L789.166,763.751C789.166,764.678 789.675,765.431 790.302,765.431L797.154,765.431C797.781,765.431 798.29,764.678 798.29,763.751L798.29,737.995Z" style="fill:rgb(220,64,67);fill-opacity:0.99;"/>
            <g>
                <g transform="matrix(0.707107,-1.04511,0.707107,1.04511,-3.41061e-13,-365.885)">
                    <path d="M32.672,1093.98L24.159,1102.49C23.647,1103.01 22.822,1103.01 22.31,1102.49L17.931,1098.12L17.707,1098.34C17.195,1098.86 17.195,1099.68 17.707,1100.19L22.31,1104.8C22.822,1105.31 23.647,1105.31 24.159,1104.8L32.899,1096.29C33.411,1095.78 32.672,1093.98 32.672,1093.98Z" style="fill:rgb(161,7,5);fill-rule:nonzero;"/>
                </g>
                <g transform="matrix(0.707107,-1.04511,0.707107,1.04511,-3.41061e-13,-365.885)">
                    <path d="M30.371,1086.22C30.037,1086.22 29.703,1086.35 29.447,1086.6L17.707,1098.34C17.195,1098.86 17.195,1099.68 17.707,1100.19L17.931,1100.42L29.447,1088.9C29.959,1088.39 30.782,1088.39 31.294,1088.9L35.672,1093.28L35.899,1093.05C36.411,1092.54 36.411,1091.72 35.899,1091.21L31.294,1086.6C31.038,1086.35 30.705,1086.22 30.37,1086.22L30.371,1086.22Z" style="fill:rgb(255,140,130);fill-rule:nonzero;"/>
                </g>
            </g>
            <path d="M798.29,737.995C798.29,737.068 797.781,736.316 797.154,736.316L790.302,736.316C789.675,736.316 789.166,737.068 789.166,737.995L789.166,763.751C789.166,764.678 789.675,765.431 790.302,765.431L797.154,765.431C797.781,765.431 798.29,764.678 798.29,763.751L798.29,737.995Z" style="fill:none;stroke:rgb(122,0,0);stroke-opacity:0.98;stroke-width:1px;"/>
        </g>
        <path id="path1025" d="M20.13,1099.14C18.875,1098.4 17.784,1098.27 17.27,1098.78L16.466,1099.58L15.467,1100.58L13.24,1102.81C13.001,1103.05 12.902,1103.36 12.919,1103.67C13.424,1103.35 14.291,1103.46 15.296,1103.98C16.551,1104.72 17.781,1105.95 18.522,1107.21C19.043,1108.21 19.154,1109.08 18.827,1109.58C19.139,1109.6 19.453,1109.5 19.692,1109.26L21.92,1107.04L22.919,1106.04L23.722,1105.23C24.237,1104.72 24.097,1103.63 23.356,1102.37C22.615,1101.12 21.386,1099.89 20.13,1099.15L20.13,1099.14Z" style="fill:rgb(163,164,167);fill-rule:nonzero;"/>
        <g>
            <g id="path1038" transform="matrix(0.264583,0,0,0.264583,0,1090.52)">
                <path d="M80.92,36.201C82.269,37.755 83.518,39.362 84.493,41.014C87.294,45.759 87.826,49.877 85.881,51.821L71.331,66.371C72.027,68.722 72.016,70.726 71.161,72.047C72.338,72.119 73.522,71.739 74.424,70.837L82.847,62.421L86.619,58.642L89.66,55.608C91.606,53.664 91.074,49.539 88.273,44.793C86.452,41.709 83.821,38.723 80.92,36.201Z" style="fill:rgb(126,128,135);fill-rule:nonzero;"/>
            </g>
            <g id="path1027" transform="matrix(0.264583,0,0,0.264583,0,1090.52)">
                <path d="M68.297,30.059C67.038,30.104 66,30.488 65.271,31.218L62.237,34.259L58.457,38.031L50.042,46.454C49.139,47.357 48.766,48.541 48.831,49.717C50.151,48.863 52.152,48.854 54.5,49.547L66.016,38.032L69.05,34.998C70.994,33.052 75.112,33.577 79.857,36.378C81.516,37.357 83.132,38.617 84.692,39.973C82.168,37.066 79.175,34.422 76.085,32.598C73.119,30.848 70.396,29.985 68.297,30.059Z" style="fill:rgb(212,212,212);fill-rule:nonzero;"/>
            </g>
        </g>
        <path id="path10251" serif:id="path1025" d="M20.13,1099.14C18.875,1098.4 17.784,1098.27 17.27,1098.78L16.466,1099.58L15.467,1100.58L13.24,1102.81C13.001,1103.05 12.902,1103.36 12.919,1103.67C13.424,1103.35 14.291,1103.46 15.296,1103.98C16.551,1104.72 17.781,1105.95 18.522,1107.21C19.043,1108.21 19.154,1109.08 18.827,1109.58C19.139,1109.6 19.453,1109.5 19.692,1109.26L21.92,1107.04L22.919,1106.04L23.722,1105.23C24.237,1104.72 24.097,1103.63 23.356,1102.37C22.615,1101.12 21.386,1099.89 20.13,1099.15L20.13,1099.14Z" style="fill:none;fill-rule:nonzero;stroke:rgb(85,87,97);stroke-opacity:0.98;stroke-width:1px;"/>
    </g>
</svg>
