<?xml version="1.0" encoding="UTF-8" standalone="no"?>
<!DOCTYPE svg PUBLIC "-//W3C//DTD SVG 1.1//EN" "http://www.w3.org/Graphics/SVG/1.1/DTD/svg11.dtd">
<svg width="100%" height="100%" viewBox="0 0 32 32" version="1.1" xmlns="http://www.w3.org/2000/svg" xmlns:xlink="http://www.w3.org/1999/xlink" xml:space="preserve" xmlns:serif="http://www.serif.com/" style="fill-rule:evenodd;clip-rule:evenodd;stroke-linecap:round;stroke-linejoin:round;">
    <g id="Layer-1" serif:id="Layer 1" transform="matrix(1,0,0,1,0,-1087.52)">
        <path id="path1209" d="M22.977,1107.16C25.759,1109.19 27.626,1110.13 28.66,1109.17C29.825,1107.9 28.667,1106.29 26.636,1103.51C24.608,1100.72 21.635,1097.75 18.853,1095.72C16.069,1093.69 13.882,1092.9 13.13,1093.66C12.376,1094.41 13.165,1096.6 15.194,1099.38C17.222,1102.16 20.195,1105.14 22.977,1107.16Z" style="fill-rule:nonzero;stroke:rgb(85,87,97);stroke-width:1px;"/>
        <g id="path1004" transform="matrix(0.264583,0,0,0.264583,0,1090.52)">
            <path d="M80.042,24.715L74.018,30.716C64.262,40.472 62.44,37.469 58.782,67.544C58.375,70.889 55.616,73.215 44.509,75.102C20.772,79.136 13.565,82.447 11.339,88.819C11.339,97.865 56.108,109.642 96.844,96.324C109.379,92.665 100.602,80.814 106.107,62.798L112.131,56.774L80.042,24.715Z" style="fill:rgb(33,109,210);fill-rule:nonzero;"/>
            <g>
                <path id="path1014" d="M80.042,24.715L74.018,30.716C64.262,40.472 58.782,53.747 58.782,67.544C58.782,67.544 55.82,73.549 52.114,73.67C27.12,75.781 12.251,80.746 11.339,91.336C11.339,93.651 18.657,94.421 18.868,91.986C18.937,91.182 16.535,85.336 36.758,82.927C47.62,81.21 53.477,80.084 56.095,79.36C66.494,77.062 66.341,67.544 66.341,67.544C70.121,40.633 71.027,44.4 79.355,36.068L79.363,36.061L85.379,30.066C85.381,30.064 85.384,30.062 85.386,30.059L80.042,24.715Z" style="fill:rgb(69,153,238);fill-rule:nonzero;"/>
                <path id="path1028" d="M106.786,51.43C97.388,61.073 99.012,75.094 98.029,86.267C97.732,93.343 69.83,96.378 57.741,96.378C45.649,96.378 34.705,94.57 27.446,92.008C23.816,90.727 11.563,88.734 11.339,91.336C11.339,98.156 51.435,102.655 57.741,102.655C83.36,102.655 99.666,97.65 104.136,91.344L104.151,91.344L104.151,67.544C104.151,65.758 104.844,64.061 106.107,62.798L112.131,56.774C112.131,56.774 107.857,49.149 106.786,51.43Z" style="fill:rgb(13,82,191);fill-rule:nonzero;"/>
            </g>
            <path d="M80.042,24.715L74.018,30.716C64.262,40.472 62.44,37.469 58.782,67.544C58.375,70.889 55.616,73.215 44.509,75.102C20.772,79.136 13.565,82.447 11.339,88.819C11.339,97.865 56.108,109.642 96.844,96.324C109.379,92.665 100.602,80.814 106.107,62.798L112.131,56.774L80.042,24.715Z" style="fill:none;fill-rule:nonzero;stroke:rgb(0,46,153);stroke-width:3.78px;stroke-linecap:butt;"/>
        </g>
        <path id="path1154" d="M13.13,1093.66C13.882,1092.9 16.069,1093.69 18.853,1095.72C21.635,1097.75 24.608,1100.72 26.636,1103.5C28.667,1106.29 29.455,1108.48 28.699,1109.23L43.162,1094.77C43.918,1094.01 43.13,1091.83 41.1,1089.04C39.071,1086.26 36.098,1083.29 33.316,1081.26C30.532,1079.23 28.345,1078.44 27.593,1079.2L13.13,1093.66Z" style="fill:url(#_Linear1);fill-rule:nonzero;"/>
        <path id="path2512" d="M28.308,1106.01C28.308,1106.01 29.455,1108.48 28.698,1109.23L43.161,1094.77C43.544,1094.38 41.858,1094.06 41.465,1093.01L28.308,1106.01Z" style="fill:url(#_Linear2);fill-rule:nonzero;"/>
        <path id="path2506" d="M27.593,1081.4C28.347,1080.65 27.791,1079 27.593,1079.19L13.13,1093.66C13.512,1093.28 14.267,1093.28 15.316,1093.68L27.593,1081.4Z" style="fill:rgb(212,212,212);fill-rule:nonzero;"/>
        <path id="path1180" d="M22.977,1107.16C25.759,1109.19 27.944,1109.98 28.699,1109.23C29.455,1108.48 28.667,1106.29 26.636,1103.51C24.608,1100.72 21.635,1097.75 18.853,1095.72C16.069,1093.69 13.882,1092.9 13.13,1093.66C12.376,1094.41 13.165,1096.6 15.194,1099.38C17.222,1102.16 20.195,1105.14 22.977,1107.16Z" style="fill-opacity:0.3;fill-rule:nonzero;"/>
        <path id="path2475" d="M13.129,1093.66C13.882,1092.9 16.069,1093.69 18.853,1095.72C21.635,1097.75 24.608,1100.72 26.636,1103.5C28.666,1106.29 29.454,1108.48 28.699,1109.23L43.162,1094.77C43.917,1094.01 43.13,1091.83 41.099,1089.04C39.071,1086.26 36.098,1083.29 33.316,1081.26C30.532,1079.23 28.345,1078.44 27.592,1079.2L13.129,1093.66Z" style="fill:none;fill-rule:nonzero;stroke:rgb(134,137,149);stroke-width:0.88px;"/>
    </g>
    <defs>
        <linearGradient id="_Linear1" x1="0" y1="0" x2="1" y2="0" gradientUnits="userSpaceOnUse" gradientTransform="matrix(9,10.6363,-10.6363,9,26,1095.52)"><stop offset="0" style="stop-color:rgb(171,172,174);stop-opacity:1"/><stop offset="1" style="stop-color:rgb(134,134,134);stop-opacity:1"/></linearGradient>
        <linearGradient id="_Linear2" x1="0" y1="0" x2="1" y2="0" gradientUnits="userSpaceOnUse" gradientTransform="matrix(8.3306,11.1423,-11.1423,8.3306,26,1093.38)"><stop offset="0" style="stop-color:rgb(85,87,97);stop-opacity:0"/><stop offset="1" style="stop-color:rgb(85,87,97);stop-opacity:1"/></linearGradient>
    </defs>
</svg>
