<?xml version="1.0" encoding="UTF-8" standalone="no"?>
<!DOCTYPE svg PUBLIC "-//W3C//DTD SVG 1.1//EN" "http://www.w3.org/Graphics/SVG/1.1/DTD/svg11.dtd">
<svg width="100%" height="100%" viewBox="0 0 32 32" version="1.1" xmlns="http://www.w3.org/2000/svg" xmlns:xlink="http://www.w3.org/1999/xlink" xml:space="preserve" xmlns:serif="http://www.serif.com/" style="fill-rule:evenodd;clip-rule:evenodd;stroke-linecap:round;stroke-linejoin:round;">
    <g id="Layer-1" serif:id="Layer 1">
        <path id="path1209" d="M22.977,19.64C25.759,21.67 27.626,22.61 28.66,21.65C29.825,20.38 28.667,18.77 26.636,15.99C24.608,13.2 21.635,10.23 18.853,8.2C16.069,6.17 13.882,5.38 13.13,6.14C12.376,6.89 13.165,9.08 15.194,11.86C17.222,14.64 20.195,17.62 22.977,19.64Z" style="fill-rule:nonzero;stroke:rgb(85,87,97);stroke-width:1px;"/>
        <g id="path1004">
            <path d="M21.178,9.539L19.584,11.127C17.003,13.708 16.521,12.914 15.553,20.871C15.445,21.756 14.715,22.371 11.776,22.871C5.496,23.938 3.589,24.814 3,26.5C3,28.893 14.845,32.009 25.623,28.486C28.94,27.518 26.618,24.382 28.074,19.615L29.668,18.021L21.178,9.539Z" style="fill:rgb(33,109,210);fill-rule:nonzero;"/>
            <g>
                <path id="path1014" d="M22.592,10.953L20.569,12.081C17.987,14.663 17.766,15.028 16.802,20.929C16.627,22.002 15.769,23.46 14.788,23.492C13.175,23.544 6.241,24.364 6,26.166C6,26.778 10.983,27.578 16.334,26.941C19.208,26.487 21.251,26.625 22.553,24.871C24.163,22.701 23.793,16.127 25.996,13.922L22.59,10.955C22.59,10.954 22.591,10.954 22.592,10.953Z" style="fill:rgb(69,153,238);fill-rule:nonzero;"/>
                <path d="M19.605,22.001C20.155,22.351 20.321,23.167 19.788,23.338C19.056,23.572 18.065,23.05 15.21,23.41C16.82,20.741 18.45,21.483 19.605,22.001Z" style="fill:rgb(33,109,210);"/>
                <path d="M19.808,22.597C19.808,22.597 19.802,23.114 19.464,23.16C18.48,23.079 17.114,23.078 16.352,22.971C16.083,22.974 16.401,22.368 16.62,22.216C17.28,21.949 18.841,21.671 19.808,22.597Z" style="fill:rgb(13,82,191);"/>
                <path id="path1028" d="M28.254,16.608C25.767,19.159 26.197,22.869 25.937,25.825C25.858,27.697 18.476,28.5 15.277,28.5C12.078,28.5 9.182,28.022 7.262,27.344C6.301,27.005 3.059,26.478 3,27.166C3,28.97 13.609,30.161 15.277,30.161C22.056,30.161 26.37,28.837 27.553,27.168L27.557,27.168L27.557,20.871C27.557,20.398 27.74,19.949 28.074,19.615L29.668,18.021C29.668,18.021 28.537,16.004 28.254,16.608Z" style="fill:rgb(13,82,191);fill-rule:nonzero;"/>
            </g>
            <path d="M21.178,9.539L19.584,11.127C17.003,13.708 16.521,12.914 15.553,20.871C15.445,21.756 14.715,22.371 11.776,22.871C5.496,23.938 3.589,24.814 3,26.5C3,28.893 14.845,32.009 25.623,28.486C28.94,27.518 26.618,24.382 28.074,19.615L29.668,18.021L21.178,9.539Z" style="fill:none;fill-rule:nonzero;stroke:rgb(0,46,153);stroke-width:1px;stroke-linecap:butt;"/>
        </g>
        <path id="path1154" d="M13.13,6.14C13.882,5.38 16.069,6.17 18.853,8.2C21.635,10.23 24.608,13.2 26.636,15.98C28.667,18.77 29.455,20.96 28.699,21.71L43.162,7.25C43.918,6.49 43.13,4.31 41.1,1.52C39.071,-1.26 36.098,-4.23 33.316,-6.26C30.532,-8.29 28.345,-9.08 27.593,-8.32L13.13,6.14Z" style="fill:url(#_Linear1);fill-rule:nonzero;"/>
        <path id="path2512" d="M27.759,17.1C27.759,17.1 29.455,20.96 28.698,21.71L43.161,7.25C43.544,6.86 38.174,4.17 37.781,3.12C35.323,9.302 33.086,15.804 27.759,17.1Z" style="fill:url(#_Linear2);fill-rule:nonzero;"/>
        <path id="path2506" d="M31.932,-2.885C32.686,-3.635 27.791,-8.52 27.593,-8.33L13.13,6.14C13.512,5.76 19.229,8.64 20.278,9.04C20.876,0.943 26.358,-1.028 31.932,-2.885Z" style="fill:rgb(212,212,212);fill-rule:nonzero;"/>
        <path id="path1180" d="M22.977,19.64C25.759,21.67 27.944,22.46 28.699,21.71C29.455,20.96 28.667,18.77 26.636,15.99C24.608,13.2 21.635,10.23 18.853,8.2C16.069,6.17 13.882,5.38 13.13,6.14C12.376,6.89 13.165,9.08 15.194,11.86C17.222,14.64 20.195,17.62 22.977,19.64Z" style="fill-opacity:0.3;fill-rule:nonzero;"/>
        <path id="path2475" d="M13.129,6.14C13.882,5.38 16.069,6.17 18.853,8.2C21.635,10.23 24.608,13.2 26.636,15.98C28.666,18.77 29.454,20.96 28.699,21.71L43.162,7.25C43.917,6.49 43.13,4.31 41.099,1.52C39.071,-1.26 36.098,-4.23 33.316,-6.26C30.532,-8.29 28.345,-9.08 27.592,-8.32L13.129,6.14Z" style="fill:none;fill-rule:nonzero;stroke:rgb(134,137,149);stroke-width:0.88px;"/>
    </g>
    <defs>
        <linearGradient id="_Linear1" x1="0" y1="0" x2="1" y2="0" gradientUnits="userSpaceOnUse" gradientTransform="matrix(9,10.6363,-10.6363,9,26,8)"><stop offset="0" style="stop-color:rgb(171,172,174);stop-opacity:1"/><stop offset="1" style="stop-color:rgb(134,134,134);stop-opacity:1"/></linearGradient>
        <linearGradient id="_Linear2" x1="0" y1="0" x2="1" y2="0" gradientUnits="userSpaceOnUse" gradientTransform="matrix(8.3306,11.1423,-11.1423,8.3306,26,5.86)"><stop offset="0" style="stop-color:rgb(85,87,97);stop-opacity:0"/><stop offset="1" style="stop-color:rgb(85,87,97);stop-opacity:1"/></linearGradient>
    </defs>
</svg>
