<?xml version="1.0" encoding="UTF-8" standalone="no"?>
<!DOCTYPE svg PUBLIC "-//W3C//DTD SVG 1.1//EN" "http://www.w3.org/Graphics/SVG/1.1/DTD/svg11.dtd">
<svg width="100%" height="100%" viewBox="0 0 32 32" version="1.1" xmlns="http://www.w3.org/2000/svg" xmlns:xlink="http://www.w3.org/1999/xlink" xml:space="preserve" xmlns:serif="http://www.serif.com/" style="fill-rule:evenodd;clip-rule:evenodd;stroke-linecap:round;stroke-linejoin:round;">
    <g id="Layer-1" serif:id="Layer 1" transform="matrix(1,0,0,1,0,-1090.52)">
        <g id="path2541" transform="matrix(0.966827,0,0,0.816765,2.1461,204.283)">
            <clipPath id="_clip1">
                <path d="M27.214,1105.09L27.214,1118.08L21.59,1114.83L15.965,1111.58L21.59,1108.34L27.214,1105.09Z" clip-rule="nonzero"/>
            </clipPath>
            <g clip-path="url(#_clip1)">
                <g>
                    <path d="M27.214,1105.09L27.214,1118.08L21.59,1114.83L15.965,1111.58L21.59,1108.34L27.214,1105.09Z" style="fill:rgb(91,109,123);fill-rule:nonzero;"/>
                    <clipPath id="_clip2">
                        <path d="M27.214,1105.09L27.214,1118.08L21.59,1114.83L15.965,1111.58L21.59,1108.34L27.214,1105.09Z" clip-rule="nonzero"/>
                    </clipPath>
                    <g clip-path="url(#_clip2)">
                        <g id="path2552" transform="matrix(1.03431,0,0,1.22434,-2.21974,-250.112)">
                            <path d="M28.458,1106.88L23.019,1109.53L17.582,1112.18L19.55,1113.14L23.019,1111.45L28.458,1108.8L28.458,1106.88Z" style="fill:rgb(149,163,171);fill-rule:nonzero;"/>
                        </g>
                        <g id="path2619" transform="matrix(1.03431,0,0,1.22434,-2.21974,-250.112)">
                            <path d="M19.55,1111.22L17.582,1112.18L23.019,1114.84L28.458,1117.49L28.458,1115.57L23.019,1112.92L19.55,1111.22Z" style="fill:rgb(39,52,69);fill-rule:nonzero;"/>
                        </g>
                    </g>
                </g>
            </g>
            <path d="M27.214,1105.09L27.214,1118.08L21.59,1114.83L15.965,1111.58L21.59,1108.34L27.214,1105.09Z" style="fill:none;fill-rule:nonzero;stroke:rgb(14,20,31);stroke-width:1.13px;"/>
        </g>
        <path id="rect2481" d="M22.227,1108.3C22.227,1106.67 20.907,1105.35 19.28,1105.35L6.446,1105.35C4.82,1105.35 3.5,1106.67 3.5,1108.3L3.5,1116.07C3.5,1117.7 4.82,1119.02 6.446,1119.02L19.28,1119.02C20.907,1119.02 22.227,1117.7 22.227,1116.07L22.227,1108.3Z" style="fill:url(#_Linear3);"/>
        <path id="rect2621" d="M3.5,1114.27L3.5,1116.19C3.5,1117.76 4.762,1119.02 6.329,1119.02L19.398,1119.02C20.965,1119.02 22.228,1117.76 22.228,1116.19L22.228,1114.27C22.228,1115.84 20.965,1117.1 19.398,1117.1L6.329,1117.1C4.762,1117.1 3.5,1115.84 3.5,1114.27Z" style="fill:rgb(39,52,69);fill-rule:nonzero;"/>
        <g id="circle2535" transform="matrix(1,0,0,1,0,1090.52)">
            <path d="M12.801,5.886C13.687,4.454 15.272,3.5 17.077,3.5C19.851,3.5 22.102,5.752 22.102,8.525C22.102,11.299 19.851,13.55 17.077,13.55C15.272,13.55 13.687,12.596 12.801,11.164C11.915,12.596 10.331,13.55 8.525,13.55C5.752,13.55 3.5,11.299 3.5,8.525C3.5,5.752 5.752,3.5 8.525,3.5C10.331,3.5 11.915,4.454 12.801,5.886Z" style="fill:url(#_Linear4);"/>
        </g>
        <path id="rect2554" d="M6.329,1105.35C4.762,1105.35 3.5,1106.61 3.5,1108.18L3.5,1110.1C3.5,1108.53 4.762,1107.27 6.329,1107.27L19.398,1107.27C20.965,1107.27 22.228,1108.53 22.228,1110.1L22.228,1108.18C22.228,1106.61 20.965,1105.35 19.398,1105.35L6.329,1105.35Z" style="fill:rgb(149,163,171);fill-rule:nonzero;"/>
        <path id="rect2539" d="M22.227,1108.3C22.227,1106.67 20.907,1105.35 19.28,1105.35L6.446,1105.35C4.82,1105.35 3.5,1106.67 3.5,1108.3L3.5,1116.07C3.5,1117.7 4.82,1119.02 6.446,1119.02L19.28,1119.02C20.907,1119.02 22.227,1117.7 22.227,1116.07L22.227,1108.3Z" style="fill:none;stroke:rgb(14,20,31);stroke-width:1px;"/>
        <path id="circle2596" d="M8.525,1094.02C5.768,1094.02 3.5,1096.29 3.5,1099.04C3.5,1099.37 3.532,1099.69 3.594,1100.01C4.051,1097.65 6.129,1095.94 8.525,1095.94C10.266,1095.94 11.887,1096.84 12.801,1098.33C13.715,1096.84 15.336,1095.94 17.077,1095.94C19.472,1095.94 21.55,1097.65 22.008,1100C22.07,1099.69 22.102,1099.37 22.102,1099.04C22.102,1096.29 19.834,1094.02 17.077,1094.02C15.336,1094.02 13.715,1094.92 12.801,1096.41C11.887,1094.92 10.266,1094.02 8.525,1094.02Z" style="fill:rgb(255,140,130);fill-rule:nonzero;"/>
        <path id="circle2610" d="M22.008,1098.08C21.551,1100.44 19.473,1102.15 17.077,1102.15C15.336,1102.15 13.715,1101.25 12.801,1099.76C11.887,1101.25 10.266,1102.15 8.525,1102.15C6.129,1102.15 4.052,1100.44 3.594,1098.09C3.532,1098.4 3.501,1098.72 3.5,1099.04C3.5,1099.05 3.5,1099.05 3.5,1099.05C3.5,1101.8 5.768,1104.07 8.525,1104.07C10.266,1104.07 11.887,1103.17 12.801,1101.68C13.715,1103.17 15.336,1104.07 17.077,1104.07C19.834,1104.07 22.102,1101.8 22.102,1099.05C22.102,1099.05 22.102,1099.05 22.102,1099.04C22.102,1098.72 22.07,1098.4 22.008,1098.08L22.008,1098.08Z" style="fill:rgb(161,7,5);fill-rule:nonzero;"/>
        <path id="circle2543" d="M8.525,1094.02C5.768,1094.02 3.5,1096.29 3.5,1099.04C3.5,1099.05 3.5,1099.05 3.5,1099.05C3.5,1101.8 5.768,1104.07 8.525,1104.07C10.266,1104.07 11.887,1103.17 12.801,1101.68C13.715,1103.17 15.336,1104.07 17.077,1104.07C19.834,1104.07 22.102,1101.8 22.102,1099.05C22.102,1099.05 22.102,1099.05 22.102,1099.04C22.102,1096.29 19.834,1094.02 17.077,1094.02C15.336,1094.02 13.715,1094.92 12.801,1096.41C11.887,1094.92 10.266,1094.02 8.525,1094.02Z" style="fill:none;fill-rule:nonzero;stroke:rgb(122,0,0);stroke-width:1px;"/>
    </g>
    <defs>
        <linearGradient id="_Linear3" x1="0" y1="0" x2="1" y2="0" gradientUnits="userSpaceOnUse" gradientTransform="matrix(-0.568255,-21.3084,21.3084,-0.568255,14.1185,1125.42)"><stop offset="0" style="stop-color:rgb(72,90,108);stop-opacity:1"/><stop offset="1" style="stop-color:rgb(102,120,133);stop-opacity:1"/></linearGradient>
        <linearGradient id="_Linear4" x1="0" y1="0" x2="1" y2="0" gradientUnits="userSpaceOnUse" gradientTransform="matrix(1.09397,-13.9272,13.9272,1.09397,7.82816,1106.59)"><stop offset="0" style="stop-color:rgb(198,38,46);stop-opacity:1"/><stop offset="1" style="stop-color:rgb(237,83,83);stop-opacity:1"/></linearGradient>
    </defs>
</svg>
