<?xml version="1.0" encoding="UTF-8" standalone="no"?>
<!DOCTYPE svg PUBLIC "-//W3C//DTD SVG 1.1//EN" "http://www.w3.org/Graphics/SVG/1.1/DTD/svg11.dtd">
<svg width="100%" height="100%" viewBox="0 0 32 32" version="1.1" xmlns="http://www.w3.org/2000/svg" xmlns:xlink="http://www.w3.org/1999/xlink" xml:space="preserve" xmlns:serif="http://www.serif.com/" style="fill-rule:evenodd;clip-rule:evenodd;stroke-linecap:round;stroke-linejoin:round;">
    <rect id="Artboard1" x="0" y="0" width="32" height="32" style="fill:none;"/>
    <g id="Layer-2" serif:id="Layer 2">
        <rect id="rect4745" x="2.557" y="6.129" width="26.887" height="19.533" style="fill:white;"/>
        <path d="M23.01,12.139L21.361,10.49L9.165,22.686L10.814,24.335L23.01,12.139Z" style="fill:rgb(184,77,77);"/>
        <path d="M23.01,11.139L21.361,9.49L8.99,21.861L10.639,23.51L23.01,11.139Z" style="fill:rgb(255,93,93);"/>
        <path d="M10.639,10.49L8.99,12.139L21.361,24.51L23.01,22.861L10.639,10.49Z" style="fill:rgb(184,77,77);"/>
        <path d="M10.639,9.49L8.99,11.139L21.361,23.51L23.01,21.861L10.639,9.49Z" style="fill:rgb(255,93,93);"/>
        <rect id="rect4814" x="2.557" y="6.129" width="26.887" height="19.533" style="fill:none;stroke:rgb(57,57,57);stroke-width:0.94px;"/>
        <circle cx="16" cy="9.893" r="1.075" style="fill:rgb(57,57,57);"/>
        <path d="M9.547,9.893C9.547,9.3 9.065,8.818 8.472,8.818L5.245,8.818C4.652,8.818 4.17,9.3 4.17,9.893C4.17,10.487 4.652,10.969 5.245,10.969L8.472,10.969C9.065,10.969 9.547,10.487 9.547,9.893Z" style="fill:rgb(57,57,57);"/>
        <path d="M27.83,9.893C27.83,9.3 27.348,8.818 26.755,8.818L23.528,8.818C22.935,8.818 22.453,9.3 22.453,9.893C22.453,10.487 22.935,10.969 23.528,10.969L26.755,10.969C27.348,10.969 27.83,10.487 27.83,9.893Z" style="fill:rgb(57,57,57);"/>
        <rect x="2.557" y="25.663" width="26.887" height="3.337" style="fill:rgb(194,194,194);stroke:rgb(57,57,57);stroke-width:1px;stroke-miterlimit:1.5;"/>
    </g>
</svg>
