<?xml version="1.0" encoding="UTF-8" standalone="no"?>
<!DOCTYPE svg PUBLIC "-//W3C//DTD SVG 1.1//EN" "http://www.w3.org/Graphics/SVG/1.1/DTD/svg11.dtd">
<svg width="100%" height="100%" viewBox="0 0 32 32" version="1.1" xmlns="http://www.w3.org/2000/svg" xmlns:xlink="http://www.w3.org/1999/xlink" xml:space="preserve" xmlns:serif="http://www.serif.com/" style="fill-rule:evenodd;clip-rule:evenodd;stroke-linecap:round;stroke-linejoin:round;">
    <g id="rect960">
        <path d="M33.96,11.29C35.131,10.119 35.13,8.218 33.96,7.048L24.952,-1.96C23.782,-3.131 21.881,-3.131 20.71,-1.96L4.196,14.744L4.09,18.083L15.877,29.744L33.96,11.29Z" style="fill:rgb(190,190,190);stroke:rgb(85,87,97);stroke-width:1px;"/>
    </g>
    <g id="rect879">
        <path d="M34.608,7.694C35.779,6.523 35.779,4.622 34.608,3.451L27.075,-4.082C25.904,-5.253 24.003,-5.253 22.832,-4.082L4.348,14.604L15.907,26.301L19.738,23.597L34.608,7.694Z" style="fill:rgb(236,236,236);"/>
    </g>
    <path id="rect1060" d="M34.582,3.426C35.757,4.601 35.757,6.493 34.582,7.668L15.908,26.296L15.853,29.594L36.082,9.168C37.257,7.993 37.257,6.101 36.082,4.926L34.582,3.426Z" style="fill:rgb(126,128,135);fill-rule:nonzero;"/>
    <g id="rect9601" serif:id="rect960">
        <path d="M33.96,11.29C35.131,10.119 35.13,8.218 33.96,7.048L24.952,-1.96C23.782,-3.131 21.881,-3.131 20.71,-1.96L4.196,14.744L4.09,18.083L15.877,29.744L33.96,11.29Z" style="fill:none;stroke:rgb(85,87,97);stroke-width:1px;"/>
    </g>
    <path id="path1021" d="M29.104,-6.112C27.929,-7.287 26.037,-7.287 24.862,-6.112L13.189,5.561L23.94,18.311L23.94,21.811L38.112,7.138C39.287,5.963 39.287,4.071 38.112,2.896L29.104,-6.112Z" style="fill:rgb(214,57,120);fill-rule:nonzero;"/>
    <g>
        <path id="path1034" d="M38.112,7.138C39.287,5.963 37.787,4.463 36.612,5.638L23.94,18.31L24.13,21.438L38.112,7.138Z" style="fill:rgb(188,36,93);fill-rule:nonzero;"/>
    </g>
    <path id="path10211" serif:id="path1021" d="M23.94,21.811L38.112,7.138C39.287,5.963 39.287,4.071 38.112,2.896L29.104,-6.112C27.929,-7.287 26.037,-7.287 24.862,-6.112L13.189,5.561" style="fill:none;fill-rule:nonzero;stroke:rgb(145,14,56);stroke-width:1px;"/>
    <path id="path10212" serif:id="path1021" d="M23.94,18.311L23.94,21.811" style="fill:none;fill-rule:nonzero;stroke:rgb(85,87,97);stroke-width:1px;"/>
    <path id="path10213" serif:id="path1021" d="M13.189,5.561L23.94,18.311" style="fill:none;fill-rule:nonzero;stroke:rgb(85,87,97);stroke-width:1px;"/>
</svg>
