<?xml version="1.0" encoding="UTF-8" standalone="no"?>
<!DOCTYPE svg PUBLIC "-//W3C//DTD SVG 1.1//EN" "http://www.w3.org/Graphics/SVG/1.1/DTD/svg11.dtd">
<svg width="100%" height="100%" viewBox="0 0 32 32" version="1.1" xmlns="http://www.w3.org/2000/svg" xmlns:xlink="http://www.w3.org/1999/xlink" xml:space="preserve" xmlns:serif="http://www.serif.com/" style="fill-rule:evenodd;clip-rule:evenodd;">
    <g id="Layer-1" serif:id="Layer 1">
        <path id="rect1753" d="M20.573,4.37L11.38,13.57C10.082,14.86 9.095,16.44 8.493,18.17L7.57,20.83C7.133,22.09 6.418,23.23 5.477,24.17L3.882,25.77C3.422,26.23 3.422,26.98 3.882,27.44L4.559,28.12C5.019,28.58 5.775,28.58 6.235,28.12L7.83,26.53C8.771,25.58 9.913,24.87 11.17,24.43L13.829,23.51C15.563,22.91 17.138,21.92 18.436,20.62L27.629,11.43L20.573,4.37Z" style="fill:url(#_Linear1);fill-rule:nonzero;"/>
        <path id="path3164" d="M24.037,7.257L14.576,16.55C13.278,17.85 11.881,19.009 10.147,19.609L8.31,21.36C7.052,21.79 6.91,23.51 5.968,24.45L5.271,25.47C4.886,25.86 5.583,26.87 6.043,26.41L7.041,25.53C7.983,24.58 9.125,23.87 10.383,23.43L13.04,22.51C14.775,21.91 16.35,20.92 17.649,19.62L26.841,10.43L24.037,7.257Z" style="fill:rgb(18,79,145);fill-opacity:0.3;fill-rule:nonzero;"/>
        <path id="path3318" d="M12.889,20.1C11.056,20.1 9.239,20.33 7.559,20.86C7.121,22.11 6.409,23.24 5.476,24.17L3.882,25.77C3.659,25.99 3.534,26.29 3.534,26.6C3.534,26.92 3.659,27.22 3.882,27.44L4.559,28.12C5.019,28.58 5.775,28.58 6.235,28.12L7.829,26.53C8.771,25.58 9.913,24.87 11.171,24.43L13.829,23.51C15.517,22.92 17.055,21.97 18.334,20.72C16.597,20.35 14.744,20.11 12.889,20.1Z" style="fill:url(#_Linear2);fill-rule:nonzero;"/>
        <path id="path3357" d="M12.889,20.1C11.056,20.1 9.239,20.33 7.559,20.86C7.121,22.11 6.409,23.24 5.476,24.17L3.882,25.77C3.659,25.99 3.534,26.29 3.534,26.6C3.534,26.92 3.659,27.22 3.882,27.44L4.559,28.12C4.575,28.13 4.592,28.15 4.609,28.16C4.622,27.87 4.745,27.59 4.956,27.38L6.55,25.78C7.483,24.85 12.13,21.71 13.963,21.71C14.954,21.72 15.942,21.79 16.914,21.91C17.417,21.55 17.892,21.15 18.334,20.72C16.597,20.35 14.744,20.11 12.889,20.1Z" style="fill:rgb(249,128,170);fill-rule:nonzero;"/>
        <path id="path3347" d="M12.889,20.1C11.056,20.1 9.239,20.33 7.559,20.86C7.121,22.11 6.409,23.24 5.476,24.17L3.882,25.77C3.659,25.99 3.534,26.29 3.534,26.6C3.534,26.92 3.659,27.22 3.882,27.44L4.559,28.12C5.019,28.58 5.775,28.58 6.235,28.12L7.829,26.53C8.771,25.58 9.913,24.87 11.171,24.43L13.829,23.51C15.517,22.92 17.055,21.97 18.334,20.72C16.597,20.35 14.744,20.11 12.889,20.1Z" style="fill-opacity:0;fill-rule:nonzero;stroke:rgb(145,14,56);stroke-width:1px;"/>
        <g id="path1097">
            <path d="M21.707,10.294C24.873,13.459 27.861,15.61 28.376,15.094C28.892,14.579 26.741,11.59 23.576,8.425C20.411,5.26 17.422,3.109 16.907,3.625C16.391,4.14 18.542,7.129 21.707,10.294Z" style="fill:rgb(102,10,47);"/>
        </g>
        <path id="ellipse1099" d="M16.907,3.62C16.391,4.14 18.54,7.13 21.708,10.29C24.875,13.46 27.861,15.61 28.377,15.09" style="fill:none;fill-rule:nonzero;stroke:rgb(145,14,56);stroke-width:1px;stroke-linecap:round;stroke-linejoin:round;"/>
        <path id="path3176" d="M18.754,6.523C17.411,7.461 9.422,16.267 9.422,16.267C8.123,17.557 8.247,19.677 8.791,19.323C9.912,18.594 19.854,7.849 20.284,7.348C20.72,6.84 19.544,5.971 18.754,6.523Z" style="fill:rgb(243,250,254);fill-opacity:0.87;fill-rule:nonzero;"/>
        <path id="path1782" d="M33.381,-5.03C31.598,-5.51 29.695,-5 28.389,-3.69L21.306,3.39L28.612,10.7L35.696,3.61C37.001,2.31 37.511,0.41 37.034,-1.38C36.556,-3.16 35.164,-4.55 33.381,-5.03Z" style="fill:rgb(222,63,129);fill-rule:nonzero;"/>
        <g>
            <path id="path2904" d="M34.801,-4.41C35.078,-3.97 35.289,-3.49 35.424,-2.99C35.901,-1.21 35.391,0.7 34.085,2L27.001,9.08L28.612,10.7L35.696,3.61C37.001,2.31 37.511,0.41 37.035,-1.38C36.698,-2.63 35.9,-3.71 34.801,-4.41Z" style="fill:rgb(188,36,93);fill-rule:nonzero;stroke:rgb(188,36,93);stroke-width:1px;stroke-linejoin:round;stroke-miterlimit:2;"/>
            <path id="path2919" d="M32.009,-5.21C30.65,-5.2 29.349,-4.65 28.388,-3.69L21.306,3.39L22.917,5L30.001,-2.08C31.307,-3.39 33.209,-3.9 34.991,-3.42C35.493,-3.28 35.972,-3.08 36.412,-2.8C35.718,-3.9 34.635,-4.69 33.381,-5.03C32.933,-5.15 32.472,-5.21 32.009,-5.21Z" style="fill:rgb(236,89,147);fill-rule:nonzero;"/>
        </g>
        <path id="path17821" serif:id="path1782" d="M33.381,-5.03C31.598,-5.51 29.695,-5 28.389,-3.69L21.306,3.39L28.612,10.7L35.696,3.61C37.001,2.31 37.511,0.41 37.034,-1.38C36.556,-3.16 35.164,-4.55 33.381,-5.03Z" style="fill:none;fill-rule:nonzero;stroke:rgb(145,14,56);stroke-width:1px;stroke-linejoin:round;stroke-miterlimit:2;"/>
        <g>
            <path d="M4.129,26.168C4.519,25.777 5.226,25.851 5.707,26.332C6.188,26.813 6.261,27.52 5.871,27.91C5.481,28.3 4.774,28.227 4.293,27.746C3.812,27.265 3.739,26.558 4.129,26.168Z" style="fill:rgb(102,10,47);stroke:rgb(196,19,78);stroke-width:1px;stroke-linecap:round;stroke-linejoin:round;stroke-miterlimit:1.5;"/>
        </g>
        <path id="path1786" d="M20.573,4.37L11.38,13.57C10.082,14.86 9.095,16.44 8.493,18.17L7.57,20.83C7.133,22.09 6.417,23.23 5.477,24.17L3.882,25.77C3.422,26.23 3.142,27.3 4.039,28.14C4.909,29.02 5.775,28.58 6.235,28.12L7.83,26.53C8.771,25.58 9.913,24.87 11.17,24.43L13.829,23.51C15.563,22.91 17.138,21.92 18.436,20.62L27.629,11.43L20.573,4.37Z" style="fill:none;fill-rule:nonzero;stroke:rgb(21,64,94);stroke-width:1px;stroke-linecap:round;stroke-linejoin:round;"/>
        <path id="rect1684" d="M24.325,1.5C22.231,-0.22 20.704,-1.05 20.327,-0.67L19.331,0.32L17.344,2.31C16.964,2.69 16.824,3.19 16.91,3.61C17.373,3.44 18.637,4.13 20.348,5.48C22.443,7.2 24.801,9.56 26.521,11.65C27.872,13.36 28.56,14.63 28.39,15.09C28.811,15.18 29.31,15.04 29.691,14.66L31.678,12.67L32.674,11.67C33.049,11.3 32.218,9.77 30.499,7.68C28.779,5.58 26.421,3.22 24.325,1.5Z" style="fill:rgb(222,63,129);fill-rule:nonzero;"/>
        <g id="path1116">
            <path d="M17.84,1.815L17.344,2.311C16.963,2.691 16.824,3.19 16.91,3.611C17.373,3.442 18.637,4.129 20.348,5.481C22.443,7.2 24.801,9.559 26.522,11.654C27.872,13.365 28.56,14.629 28.391,15.092C28.812,15.178 29.311,15.039 29.691,14.658L31.678,12.67L32.674,11.674C32.877,11.47 32.729,10.923 32.248,10.1L31.678,10.67L29.691,12.658C29.311,13.039 27.872,11.365 26.522,9.654C24.801,7.559 22.443,5.2 20.348,3.481C19.339,2.684 18.473,2.109 17.84,1.815Z" style="fill:rgb(188,36,93);fill-rule:nonzero;"/>
        </g>
        <g id="path1104">
            <path d="M20.601,-0.762C20.479,-0.763 20.387,-0.733 20.326,-0.672L19.332,0.324L17.344,2.311C16.963,2.691 16.824,3.19 16.91,3.611C17.096,3.545 17.411,3.614 17.84,3.814L19.332,2.324L20.326,1.328C20.702,0.952 22.23,1.783 24.326,3.504C26.421,5.223 28.778,7.581 30.498,9.676C31.257,10.6 31.856,11.43 32.248,12.1L32.674,11.674C33.047,11.297 32.217,9.77 30.498,7.676C28.78,5.581 26.422,3.223 24.326,1.502C22.589,0.076 21.223,-0.754 20.601,-0.762Z" style="fill:rgb(236,89,147);fill-rule:nonzero;"/>
        </g>
        <path id="path1101" d="M24.325,1.5C22.231,-0.22 20.704,-1.05 20.327,-0.67L19.331,0.32L17.344,2.31C16.964,2.69 16.824,3.19 16.91,3.61C17.373,3.44 18.637,4.13 20.348,5.48C22.443,7.2 24.801,9.56 26.521,11.65C27.872,13.36 28.56,14.63 28.39,15.09C28.811,15.18 29.31,15.04 29.691,14.66L31.678,12.67L32.674,11.67C33.049,11.3 32.218,9.77 30.499,7.68C28.779,5.58 26.421,3.22 24.325,1.5Z" style="fill:none;fill-rule:nonzero;stroke:rgb(145,14,56);stroke-width:1px;stroke-linecap:round;stroke-linejoin:round;"/>
    </g>
    <defs>
        <linearGradient id="_Linear1" x1="0" y1="0" x2="1" y2="0" gradientUnits="userSpaceOnUse" gradientTransform="matrix(21.4015,21.3212,-21.3212,21.4015,0.637664,2.96)"><stop offset="0" style="stop-color:rgb(173,224,254);stop-opacity:1"/><stop offset="1" style="stop-color:rgb(140,213,255);stop-opacity:1"/></linearGradient>
        <linearGradient id="_Linear2" x1="0" y1="0" x2="1" y2="0" gradientUnits="userSpaceOnUse" gradientTransform="matrix(13.7836,8.34007,-8.34007,13.7836,6.68654,22.76)"><stop offset="0" style="stop-color:rgb(244,103,157);stop-opacity:1"/><stop offset="1" style="stop-color:rgb(222,62,128);stop-opacity:1"/></linearGradient>
    </defs>
</svg>
