<?xml version="1.0" encoding="UTF-8" standalone="no"?>
<!DOCTYPE svg PUBLIC "-//W3C//DTD SVG 1.1//EN" "http://www.w3.org/Graphics/SVG/1.1/DTD/svg11.dtd">
<svg width="100%" height="100%" viewBox="0 0 32 32" version="1.1" xmlns="http://www.w3.org/2000/svg" xmlns:xlink="http://www.w3.org/1999/xlink" xml:space="preserve" xmlns:serif="http://www.serif.com/" style="fill-rule:evenodd;clip-rule:evenodd;">
    <g id="Layer-1" serif:id="Layer 1" transform="matrix(1,0,0,1,0,-1090.52)">
        <path id="rect1753" d="M20.573,1094.89L11.38,1104.09C10.082,1105.38 9.095,1106.96 8.493,1108.69L7.57,1111.35C7.133,1112.61 6.418,1113.75 5.477,1114.69L3.882,1116.29C3.422,1116.75 3.422,1117.5 3.882,1117.96L4.559,1118.64C5.019,1119.1 5.775,1119.1 6.235,1118.64L7.83,1117.05C8.771,1116.1 9.913,1115.39 11.17,1114.95L13.829,1114.03C15.563,1113.43 17.138,1112.44 18.436,1111.14L27.629,1101.95L20.573,1094.89Z" style="fill:url(#_Linear1);fill-rule:nonzero;"/>
        <path id="path3318" d="M12.889,1110.62C11.056,1110.62 9.239,1110.85 7.559,1111.38C7.121,1112.63 6.409,1113.76 5.476,1114.69L3.882,1116.29C3.659,1116.51 3.534,1116.81 3.534,1117.12C3.534,1117.44 3.659,1117.74 3.882,1117.96L4.559,1118.64C5.019,1119.1 5.775,1119.1 6.235,1118.64L7.829,1117.05C8.771,1116.1 9.913,1115.39 11.171,1114.95L13.829,1114.03C15.517,1113.44 17.055,1112.49 18.334,1111.24C16.597,1110.87 14.744,1110.63 12.889,1110.62Z" style="fill:url(#_Linear2);fill-rule:nonzero;"/>
        <path id="path3357" d="M12.889,1110.62C11.056,1110.62 9.239,1110.85 7.559,1111.38C7.121,1112.63 6.409,1113.76 5.476,1114.69L3.882,1116.29C3.659,1116.51 3.534,1116.81 3.534,1117.12C3.534,1117.44 3.659,1117.74 3.882,1117.96L4.559,1118.64C4.575,1118.65 4.592,1118.67 4.609,1118.68C4.622,1118.39 4.745,1118.11 4.956,1117.9L6.55,1116.3C7.483,1115.37 8.195,1114.24 8.633,1112.99C10.313,1112.46 12.13,1112.23 13.963,1112.23C14.954,1112.24 15.942,1112.31 16.914,1112.43C17.417,1112.07 17.892,1111.67 18.334,1111.24C16.597,1110.87 14.744,1110.63 12.889,1110.62Z" style="fill:rgb(249,128,170);fill-rule:nonzero;"/>
        <path id="path3347" d="M12.889,1110.62C11.056,1110.62 9.239,1110.85 7.559,1111.38C7.121,1112.63 6.409,1113.76 5.476,1114.69L3.882,1116.29C3.659,1116.51 3.534,1116.81 3.534,1117.12C3.534,1117.44 3.659,1117.74 3.882,1117.96L4.559,1118.64C5.019,1119.1 5.775,1119.1 6.235,1118.64L7.829,1117.05C8.771,1116.1 9.913,1115.39 11.171,1114.95L13.829,1114.03C15.517,1113.44 17.055,1112.49 18.334,1111.24C16.597,1110.87 14.744,1110.63 12.889,1110.62Z" style="fill-opacity:0;fill-rule:nonzero;stroke:rgb(145,14,56);stroke-width:1px;"/>
        <g id="path1097" transform="matrix(0.707107,0.707107,0.707107,-0.707107,0,0)">
            <ellipse cx="793.742" cy="-761.722" rx="8.11" ry="1.321" style="fill:rgb(188,36,93);"/>
        </g>
        <path id="ellipse1099" d="M16.907,1094.14C16.391,1094.66 18.54,1097.65 21.708,1100.81C24.875,1103.98 27.861,1106.13 28.377,1105.61" style="fill:none;fill-rule:nonzero;stroke:rgb(145,14,56);stroke-width:1px;stroke-linecap:round;stroke-linejoin:round;"/>
        <path id="path3176" d="M20.572,1094.89L11.381,1104.09C10.082,1105.38 9.095,1106.96 8.492,1108.69L7.569,1111.35C7.133,1112.61 6.417,1113.75 5.476,1114.69L3.882,1116.29C3.659,1116.51 3.534,1116.81 3.534,1117.12C3.534,1117.44 3.659,1117.74 3.882,1117.96L4.559,1118.64C4.627,1118.71 4.703,1118.77 4.786,1118.82C4.499,1118.35 4.57,1117.75 4.956,1117.36L6.552,1115.77C7.492,1114.82 8.207,1113.68 8.643,1112.43L9.568,1109.77C10.17,1108.03 11.157,1106.46 12.455,1105.16L21.646,1095.97L20.572,1094.89Z" style="fill:rgb(250,250,250);fill-opacity:0.3;fill-rule:nonzero;"/>
        <path id="path1782" d="M33.381,1085.49C31.598,1085.01 29.695,1085.52 28.389,1086.83L21.306,1093.91L28.612,1101.22L35.696,1094.13C37.001,1092.83 37.511,1090.93 37.034,1089.14C36.556,1087.36 35.164,1085.97 33.381,1085.49Z" style="fill:url(#_Linear3);fill-rule:nonzero;"/>
        <g>
            <path id="path2904" d="M34.801,1086.11C35.078,1086.55 35.289,1087.03 35.424,1087.53C35.901,1089.31 35.391,1091.22 34.085,1092.52L27.001,1099.6L28.612,1101.22L35.696,1094.13C37.001,1092.83 37.511,1090.93 37.035,1089.14C36.698,1087.89 35.9,1086.81 34.801,1086.11Z" style="fill:rgb(188,36,93);fill-rule:nonzero;stroke:rgb(188,36,93);stroke-width:1px;stroke-linejoin:round;stroke-miterlimit:2;"/>
            <path id="path2919" d="M32.009,1085.31C30.65,1085.32 29.349,1085.87 28.388,1086.83L21.306,1093.91L22.917,1095.52L30.001,1088.44C31.307,1087.13 33.209,1086.62 34.991,1087.1C35.493,1087.24 35.972,1087.44 36.412,1087.72C35.718,1086.62 34.635,1085.83 33.381,1085.49C32.933,1085.37 32.472,1085.31 32.009,1085.31Z" style="fill:rgb(236,89,147);fill-rule:nonzero;"/>
        </g>
        <path id="path17821" serif:id="path1782" d="M33.381,1085.49C31.598,1085.01 29.695,1085.52 28.389,1086.83L21.306,1093.91L28.612,1101.22L35.696,1094.13C37.001,1092.83 37.511,1090.93 37.034,1089.14C36.556,1087.36 35.164,1085.97 33.381,1085.49Z" style="fill:none;fill-rule:nonzero;stroke:rgb(145,14,56);stroke-width:1px;stroke-linejoin:round;stroke-miterlimit:2;"/>
        <path id="path3164" d="M26.555,1100.87L17.363,1110.07C16.065,1111.37 14.489,1112.35 12.755,1112.95L10.097,1113.88C8.839,1114.31 7.697,1115.03 6.755,1115.97L6.058,1116.99C5.673,1117.38 6.37,1118.39 6.83,1117.93L7.828,1117.05C8.77,1116.1 9.912,1115.39 11.17,1114.95L13.827,1114.03C15.562,1113.43 17.137,1112.44 18.436,1111.14L27.628,1101.95L26.555,1100.87Z" style="fill:rgb(54,137,230);fill-opacity:0.3;fill-rule:nonzero;"/>
        <g transform="matrix(0.707107,-0.707107,0.707107,0.707107,-14.9631,1099.01)">
            <ellipse cx="1" cy="27.232" rx="1" ry="1.232" style="fill:rgb(102,10,47);stroke:rgb(196,19,78);stroke-width:1px;stroke-linecap:round;stroke-linejoin:round;stroke-miterlimit:1.5;"/>
        </g>
        <path id="path1786" d="M20.573,1094.89L11.38,1104.09C10.082,1105.38 9.095,1106.96 8.493,1108.69L7.57,1111.35C7.133,1112.61 6.417,1113.75 5.477,1114.69L3.882,1116.29C3.422,1116.75 3.142,1117.82 4.039,1118.66C4.909,1119.54 5.775,1119.1 6.235,1118.64L7.83,1117.05C8.771,1116.1 9.913,1115.39 11.17,1114.95L13.829,1114.03C15.563,1113.43 17.138,1112.44 18.436,1111.14L27.629,1101.95L20.573,1094.89Z" style="fill:none;fill-rule:nonzero;stroke:rgb(85,87,97);stroke-width:1px;stroke-linecap:round;stroke-linejoin:round;"/>
        <path id="rect1684" d="M24.325,1092.02C22.231,1090.3 20.704,1089.47 20.327,1089.85L19.331,1090.84L17.344,1092.83C16.964,1093.21 16.824,1093.71 16.91,1094.13C17.373,1093.96 18.637,1094.65 20.348,1096C22.443,1097.72 24.801,1100.08 26.521,1102.17C27.872,1103.88 28.56,1105.15 28.39,1105.61C28.811,1105.7 29.31,1105.56 29.691,1105.18L31.678,1103.19L32.674,1102.19C33.049,1101.82 32.218,1100.29 30.499,1098.2C28.779,1096.1 26.421,1093.74 24.325,1092.02Z" style="fill:url(#_Linear4);fill-rule:nonzero;"/>
        <g id="path1116" transform="matrix(0.264583,0,0,0.264583,0,1090.52)">
            <path d="M67.426,6.858L65.551,8.733C64.114,10.17 63.586,12.056 63.912,13.649C65.661,13.009 70.439,15.607 76.905,20.714C84.825,27.214 93.738,36.127 100.239,44.048C105.345,50.513 107.943,55.291 107.303,57.04C108.896,57.367 110.782,56.839 112.219,55.401L119.727,47.886L123.492,44.122C124.261,43.35 123.701,41.282 121.882,38.172L119.727,40.327L112.219,47.842C110.782,49.28 108.896,49.808 107.303,49.481C107.943,47.732 105.345,42.954 100.239,36.489C93.738,28.568 84.825,19.655 76.905,13.155C73.093,10.145 69.821,7.972 67.426,6.858Z" style="fill:rgb(188,36,93);fill-rule:nonzero;"/>
        </g>
        <g id="path1104" transform="matrix(0.264583,0,0,0.264583,0,1090.52)">
            <path d="M77.864,-2.879C77.402,-2.885 77.054,-2.772 76.823,-2.539L73.066,1.225L65.551,8.733C64.114,10.17 63.586,12.056 63.912,13.649C64.613,13.398 65.804,13.658 67.426,14.417L73.066,8.784L76.823,5.02C78.243,3.599 84.018,6.74 91.941,13.243C99.86,19.742 108.769,28.652 115.268,36.57C118.135,40.062 120.401,43.201 121.882,45.731L123.492,44.122C124.904,42.696 121.764,36.925 115.268,29.011C108.774,21.094 99.864,12.181 91.941,5.677C85.374,0.287 80.214,-2.849 77.864,-2.879Z" style="fill:rgb(236,89,147);fill-rule:nonzero;"/>
        </g>
        <path id="path1101" d="M24.325,1092.02C22.231,1090.3 20.704,1089.47 20.327,1089.85L19.331,1090.84L17.344,1092.83C16.964,1093.21 16.824,1093.71 16.91,1094.13C17.373,1093.96 18.637,1094.65 20.348,1096C22.443,1097.72 24.801,1100.08 26.521,1102.17C27.872,1103.88 28.56,1105.15 28.39,1105.61C28.811,1105.7 29.31,1105.56 29.691,1105.18L31.678,1103.19L32.674,1102.19C33.049,1101.82 32.218,1100.29 30.499,1098.2C28.779,1096.1 26.421,1093.74 24.325,1092.02Z" style="fill:none;fill-rule:nonzero;stroke:rgb(145,14,56);stroke-width:1px;stroke-linecap:round;stroke-linejoin:round;"/>
    </g>
    <defs>
        <linearGradient id="_Linear1" x1="0" y1="0" x2="1" y2="0" gradientUnits="userSpaceOnUse" gradientTransform="matrix(21.4015,21.3212,-21.3212,21.4015,0.637664,1093.48)"><stop offset="0" style="stop-color:rgb(250,250,250);stop-opacity:1"/><stop offset="1" style="stop-color:rgb(140,213,255);stop-opacity:1"/></linearGradient>
        <linearGradient id="_Linear2" x1="0" y1="0" x2="1" y2="0" gradientUnits="userSpaceOnUse" gradientTransform="matrix(13.7836,8.34007,-8.34007,13.7836,6.68654,1113.28)"><stop offset="0" style="stop-color:rgb(244,103,157);stop-opacity:1"/><stop offset="1" style="stop-color:rgb(222,62,128);stop-opacity:1"/></linearGradient>
        <linearGradient id="_Linear3" x1="0" y1="0" x2="1" y2="0" gradientUnits="userSpaceOnUse" gradientTransform="matrix(7.30673,7.30673,-7.30673,7.30673,27.8762,1087.34)"><stop offset="0" style="stop-color:rgb(222,62,128);stop-opacity:1"/><stop offset="0.49" style="stop-color:rgb(214,56,120);stop-opacity:1"/><stop offset="1" style="stop-color:rgb(188,36,93);stop-opacity:1"/></linearGradient>
        <linearGradient id="_Linear4" x1="0" y1="0" x2="1" y2="0" gradientUnits="userSpaceOnUse" gradientTransform="matrix(15.3592,15.427,-15.427,15.3592,18.6953,1091.48)"><stop offset="0" style="stop-color:rgb(222,62,128);stop-opacity:1"/><stop offset="0.48" style="stop-color:rgb(215,57,121);stop-opacity:1"/><stop offset="1" style="stop-color:rgb(188,36,93);stop-opacity:1"/></linearGradient>
    </defs>
</svg>
