<?xml version="1.0" encoding="UTF-8" standalone="no"?>
<!DOCTYPE svg PUBLIC "-//W3C//DTD SVG 1.1//EN" "http://www.w3.org/Graphics/SVG/1.1/DTD/svg11.dtd">
<svg width="100%" height="100%" viewBox="0 0 32 32" version="1.1" xmlns="http://www.w3.org/2000/svg" xmlns:xlink="http://www.w3.org/1999/xlink" xml:space="preserve" xmlns:serif="http://www.serif.com/" style="fill-rule:evenodd;clip-rule:evenodd;stroke-linecap:round;stroke-linejoin:round;">
    <g transform="matrix(0.264583,0,0,0.264583,0,0)">
        <g id="Layer-1" serif:id="Layer 1">
            <path id="rect1159" d="M39.936,33.189C35.748,33.189 32.377,36.56 32.377,40.748L32.377,57.165C31.44,57.369 30.515,57.67 29.638,58.177L19.141,64.237C14.608,66.855 13.069,72.615 15.687,77.148L30.605,102.992C32.464,106.211 35.906,107.88 39.368,107.665C39.559,107.679 39.741,107.724 39.936,107.724L100.157,107.724C104.345,107.724 107.717,104.353 107.717,100.165L107.717,48.388C107.717,44.201 104.345,40.829 100.157,40.829L90.162,40.829C86.542,40.829 83.544,43.353 82.795,46.742L82.603,46.742L82.603,44.018C82.603,39.83 79.232,36.459 75.044,36.459L65.049,36.459C60.861,36.459 57.49,39.83 57.49,44.018L57.49,40.748C57.49,36.56 54.119,33.189 49.931,33.189L39.936,33.189Z" style="fill:rgb(248,182,138);fill-rule:nonzero;"/>
            <g>
                <g id="path1212" transform="matrix(3.77953,0,0,3.77953,0,0)">
                    <path d="M7.077,20.876C7.228,21.782 8.565,22.21 8.565,22.21L8.566,20.876L8.566,15.842L7.063,15.842L7.063,20.876L7.077,20.876Z" style="fill:rgb(237,127,110);fill-rule:nonzero;"/>
                </g>
                <path id="rect1293" d="M33.364,63.35C33.364,63.35 31.338,57.195 29.638,58.177L19.141,64.237C14.608,66.855 13.069,72.615 15.687,77.148C15.687,77.148 20.277,70.634 24.811,68.017L33.364,63.35Z" style="fill:rgb(254,213,164);fill-rule:nonzero;"/>
                <g id="path994" transform="matrix(3.77953,0,0,3.77953,0,-4121.65)">
                    <path d="M26.997,1102.95L26.997,1118.95C27.861,1118.73 28.5,1117.96 28.5,1117.02L28.5,1102.95L26.997,1102.95Z" style="fill:rgb(237,127,110);fill-rule:nonzero;"/>
                </g>
                <g id="path1153" transform="matrix(3.77953,0,0,3.77953,0,-4121.65)">
                    <path d="M8.566,1104.83L8.566,1112.24" style="fill:none;fill-rule:nonzero;stroke:rgb(166,33,0);stroke-width:1px;"/>
                </g>
                <g id="path1210" transform="matrix(3.77953,0,0,3.77953,0,-4121.65)">
                    <path d="M13.708,1100.96L13.708,1105.57C14.571,1105.35 15.211,1104.57 15.211,1103.64L15.211,1100.96L13.708,1100.96Z" style="fill:rgb(237,127,110);fill-rule:nonzero;"/>
                </g>
                <path id="rect1175" d="M39.936,33.189C35.748,33.189 32.377,36.56 32.377,40.748L32.377,48.307C32.377,44.119 35.748,40.748 39.936,40.748L49.931,40.748C54.119,40.748 57.49,44.119 57.49,48.307L57.49,40.748C57.49,36.56 54.119,33.189 49.931,33.189L39.936,33.189Z" style="fill:rgb(254,213,164);fill-rule:nonzero;"/>
                <g id="path1208" transform="matrix(3.77953,0,0,3.77953,0,-4121.65)">
                    <path d="M20.353,1101.61L20.353,1106.21C21.216,1105.99 21.855,1105.22 21.855,1104.28L21.855,1101.61L20.353,1101.61Z" style="fill:rgb(237,127,110);fill-rule:nonzero;"/>
                </g>
                <path id="rect1179" d="M65.049,36.459C60.861,36.459 57.49,39.83 57.49,44.018L57.49,51.577C57.49,47.39 60.861,44.018 65.049,44.018L75.044,44.018C79.232,44.018 82.603,47.39 82.603,51.577L82.603,44.018C82.603,39.83 79.232,36.459 75.044,36.459L65.049,36.459Z" style="fill:rgb(254,213,164);fill-rule:nonzero;"/>
                <g id="path1155" transform="matrix(3.77953,0,0,3.77953,0,-4121.65)">
                    <path d="M15.211,1102.09L15.211,1103.64" style="fill:none;fill-rule:nonzero;stroke:rgb(166,33,0);stroke-width:1px;stroke-linejoin:miter;"/>
                </g>
                <path id="rect1177" d="M90.162,40.829C85.975,40.829 82.603,44.201 82.603,48.388L82.603,55.947C82.603,51.76 85.975,48.388 90.162,48.388L100.157,48.388C104.345,48.388 107.717,51.76 107.717,55.947L107.717,48.388C107.717,44.201 104.345,40.829 100.157,40.829L90.162,40.829Z" style="fill:rgb(254,213,164);fill-rule:nonzero;"/>
                <g id="path1157" transform="matrix(3.77953,0,0,3.77953,0,-4121.65)">
                    <path d="M21.855,1102.74L21.855,1104.28" style="fill:none;fill-rule:nonzero;stroke:rgb(166,33,0);stroke-width:1px;stroke-linejoin:miter;"/>
                </g>
            </g>
            <path id="rect11591" serif:id="rect1159" d="M39.936,33.189C35.748,33.189 32.377,36.56 32.377,40.748L32.377,57.165C31.44,57.369 30.515,57.67 29.638,58.177L19.141,64.237C14.608,66.855 13.069,72.615 15.687,77.148L30.605,102.992C32.464,106.211 35.906,107.88 39.368,107.665C39.559,107.679 39.741,107.724 39.936,107.724L100.157,107.724C104.345,107.724 107.717,104.353 107.717,100.165L107.717,48.388C107.717,44.201 104.345,40.829 100.157,40.829L90.162,40.829C86.542,40.829 83.544,43.353 82.795,46.742L82.603,46.742L82.603,44.018C82.603,39.83 79.232,36.459 75.044,36.459L65.049,36.459C60.861,36.459 57.49,39.83 57.49,44.018L57.49,40.748C57.49,36.56 54.119,33.189 49.931,33.189L39.936,33.189Z" style="fill:none;fill-rule:nonzero;stroke:rgb(166,33,0);stroke-width:3.78px;"/>
        </g>
    </g>
</svg>
