<?xml version="1.0" encoding="UTF-8" standalone="no"?>
<!DOCTYPE svg PUBLIC "-//W3C//DTD SVG 1.1//EN" "http://www.w3.org/Graphics/SVG/1.1/DTD/svg11.dtd">
<svg width="100%" height="100%" viewBox="0 0 32 32" version="1.1" xmlns="http://www.w3.org/2000/svg" xmlns:xlink="http://www.w3.org/1999/xlink" xml:space="preserve" xmlns:serif="http://www.serif.com/" style="fill-rule:evenodd;clip-rule:evenodd;stroke-linecap:round;stroke-linejoin:round;">
    <g id="Layer-1" serif:id="Layer 1" transform="matrix(1,0,0,1,0,-1090.52)">
        <path id="rect947" d="M10.569,1094.02C9.459,1094.02 8.565,1094.92 8.565,1096.03L8.565,1104.91C7.583,1103.93 6.003,1103.93 5.023,1104.91L1.988,1107.95C1.006,1108.93 1.006,1110.51 1.988,1111.49L8.782,1118.29C9.275,1118.78 9.918,1119.02 10.561,1119.02L26.496,1119.02C27.606,1119.02 28.5,1118.13 28.5,1117.02L28.5,1099.96C28.5,1098.85 27.606,1097.95 26.496,1097.95L23.86,1097.95C22.75,1097.95 21.856,1098.85 21.856,1099.96L21.856,1097.34C21.856,1096.23 20.963,1095.34 19.852,1095.34L17.214,1095.34C16.104,1095.34 15.211,1096.23 15.211,1097.34L15.211,1096.03C15.211,1094.91 14.317,1094.02 13.207,1094.02L10.569,1094.02Z" style="fill:rgb(248,182,138);fill-rule:nonzero;"/>
        <clipPath id="_clip1">
            <path id="rect9471" serif:id="rect947" d="M10.569,1094.02C9.459,1094.02 8.565,1094.92 8.565,1096.03L8.565,1104.91C7.583,1103.93 6.003,1103.93 5.023,1104.91L1.988,1107.95C1.006,1108.93 1.006,1110.51 1.988,1111.49L8.782,1118.29C9.275,1118.78 9.918,1119.02 10.561,1119.02L26.496,1119.02C27.606,1119.02 28.5,1118.13 28.5,1117.02L28.5,1099.96C28.5,1098.85 27.606,1097.95 26.496,1097.95L23.86,1097.95C22.75,1097.95 21.856,1098.85 21.856,1099.96L21.856,1097.34C21.856,1096.23 20.963,1095.34 19.852,1095.34L17.214,1095.34C16.104,1095.34 15.211,1096.23 15.211,1097.34L15.211,1096.03C15.211,1094.91 14.317,1094.02 13.207,1094.02L10.569,1094.02Z" clip-rule="nonzero"/>
        </clipPath>
        <g clip-path="url(#_clip1)">
            <path id="rect890" d="M6.795,1104.18C6.154,1104.18 5.514,1104.42 5.024,1104.91L1.988,1107.95C1.235,1108.7 1.065,1109.81 1.468,1110.72C1.59,1110.44 1.76,1110.18 1.988,1109.95L5.024,1106.92C6.005,1105.93 7.584,1105.93 8.566,1106.92L8.566,1104.91C8.075,1104.42 7.435,1104.18 6.795,1104.18Z" style="fill:rgb(254,213,164);fill-rule:nonzero;"/>
            <path id="path916" d="M24.994,1097.95C26.104,1097.95 26.998,1098.85 26.998,1099.96L26.998,1111.64C26.998,1112.75 28.5,1112.75 28.5,1111.64L28.5,1099.96C28.5,1098.85 27.607,1097.95 26.497,1097.95L24.994,1097.95Z" style="fill:rgb(237,127,110);fill-rule:nonzero;"/>
            <g id="rect901" transform="matrix(1,0,0,1,0,1090.52)">
                <path d="M13.708,12.044L13.707,12.044C13.707,13.066 15.209,13.547 15.209,13.547L15.21,12.066L15.211,12.066L15.211,5.506C15.211,4.396 13.708,4.396 13.708,5.506L13.708,12.044Z" style="fill:rgb(237,127,110);fill-rule:nonzero;"/>
            </g>
            <path id="rect869" d="M10.569,1094.02C9.459,1094.02 8.565,1094.92 8.565,1096.03L8.565,1098.03C8.565,1096.92 9.459,1096.03 10.569,1096.03L13.207,1096.03C14.317,1096.03 15.211,1096.92 15.211,1098.03L15.211,1096.03C15.211,1094.92 14.317,1094.02 13.207,1094.02L10.569,1094.02Z" style="fill:rgb(254,213,164);fill-rule:nonzero;"/>
            <g id="path994" transform="matrix(1,0,0,1,0,1090.52)">
                <path d="M26.998,15.997L26.997,15.997L26.997,28.43C27.861,28.207 28.5,27.434 28.5,26.498L28.5,15.998L28.5,15.998L28.5,9.438C28.5,8.328 26.998,8.328 26.998,9.438L26.998,15.997Z" style="fill:rgb(237,127,110);fill-rule:nonzero;"/>
            </g>
            <g id="path990" transform="matrix(1,0,0,1,0,1090.52)">
                <path d="M20.353,12.801C20.353,13.822 21.854,14.302 21.854,14.302L21.856,12.8C21.856,12.8 21.856,6.826 21.856,6.826C21.856,5.716 20.353,5.716 20.353,6.826L20.353,12.801L20.353,12.801Z" style="fill:rgb(237,127,110);fill-rule:nonzero;"/>
            </g>
            <path id="rect871" d="M23.86,1097.95C22.75,1097.95 21.856,1098.85 21.856,1099.96L21.856,1101.96C21.856,1100.85 22.75,1099.96 23.86,1099.96L26.496,1099.96C27.606,1099.96 28.5,1100.85 28.5,1101.96L28.5,1099.96C28.5,1098.85 27.606,1097.95 26.496,1097.95L23.86,1097.95Z" style="fill:rgb(254,213,164);fill-rule:nonzero;"/>
            <path id="rect873" d="M17.214,1095.34C16.104,1095.34 15.211,1096.24 15.211,1097.35L15.211,1099.35C15.211,1098.24 16.104,1097.35 17.214,1097.35L19.852,1097.35C20.963,1097.35 21.856,1098.24 21.856,1099.35L21.856,1097.35C21.856,1096.24 20.963,1095.34 19.852,1095.34L17.214,1095.34Z" style="fill:rgb(254,213,164);fill-rule:nonzero;"/>
            <g id="rect963" transform="matrix(1,0,0,1,0,1090.52)">
                <path d="M7.064,18.835C7.064,19.857 8.566,20.337 8.566,20.337L8.567,18.835L7.064,18.835ZM8.565,14.391C8.074,13.901 7.137,13.311 7.062,14.391L7.064,18.834L8.567,18.834L8.565,14.391Z" style="fill:rgb(237,127,110);fill-rule:nonzero;"/>
            </g>
        </g>
        <path id="rect9472" serif:id="rect947" d="M10.569,1094.02C9.459,1094.02 8.565,1094.92 8.565,1096.03L8.565,1104.91C7.583,1103.93 6.003,1103.93 5.023,1104.91L1.988,1107.95C1.006,1108.93 1.006,1110.51 1.988,1111.49L8.782,1118.29C9.275,1118.78 9.918,1119.02 10.561,1119.02L26.496,1119.02C27.606,1119.02 28.5,1118.13 28.5,1117.02L28.5,1099.96C28.5,1098.85 27.606,1097.95 26.496,1097.95L23.86,1097.95C22.75,1097.95 21.856,1098.85 21.856,1099.96L21.856,1097.34C21.856,1096.23 20.963,1095.34 19.852,1095.34L17.214,1095.34C16.104,1095.34 15.211,1096.23 15.211,1097.34L15.211,1096.03C15.211,1094.91 14.317,1094.02 13.207,1094.02L10.569,1094.02Z" style="fill:none;fill-rule:nonzero;stroke:rgb(166,33,0);stroke-width:1px;"/>
        <path id="path3325" d="M8.566,1105.16L8.566,1110.36" style="fill:none;fill-rule:nonzero;stroke:rgb(166,33,0);stroke-width:1px;stroke-linejoin:miter;"/>
        <path id="path3327" d="M21.856,1099.35L21.855,1104.32" style="fill:none;fill-rule:nonzero;stroke:rgb(166,33,0);stroke-width:1px;stroke-linejoin:miter;"/>
        <path id="path3329" d="M15.211,1097.29L15.21,1103.57" style="fill:none;fill-rule:nonzero;stroke:rgb(166,33,0);stroke-width:1px;stroke-linejoin:miter;"/>
    </g>
</svg>
