<?xml version="1.0" encoding="UTF-8" standalone="no"?>
<!DOCTYPE svg PUBLIC "-//W3C//DTD SVG 1.1//EN" "http://www.w3.org/Graphics/SVG/1.1/DTD/svg11.dtd">
<svg width="100%" height="100%" viewBox="0 0 32 32" version="1.1" xmlns="http://www.w3.org/2000/svg" xmlns:xlink="http://www.w3.org/1999/xlink" xml:space="preserve" xmlns:serif="http://www.serif.com/" style="fill-rule:evenodd;clip-rule:evenodd;stroke-linecap:round;">
    <rect id="Artboard3" x="0" y="0" width="32" height="32" style="fill:none;"/>
    <path id="rect947" d="M9.385,8.426C9.417,9.538 12.38,18.556 11.543,19.464C11.082,19.965 9.497,19.198 8.164,18.827C6.531,18.373 5.989,17.848 5.078,19.799C4.586,21.413 7.234,21.549 10.305,25.726C11.318,27.352 11.971,28.198 13.068,29.037C14.845,30.397 17.355,28.797 19.441,27.256C20.812,26.243 22.591,30.46 23.337,29.592C26.044,27.8 23.488,20.884 25.305,16.452C25.775,13.112 27.115,8.928 26.67,7.772C25.157,6.849 23.867,7.187 23.17,8.668C22.8,9.453 20.796,16.4 20.544,16.365C19.845,14.229 20.13,5.611 19.755,4.642C19.157,4.386 16.474,2.622 15.896,6.669C15.86,6.92 15.742,16.068 15.638,16.076C15.535,16.085 13.201,8.02 13.179,7.783C12.917,5.057 9.3,5.338 9.385,8.426Z" style="fill:rgb(198,190,216);fill-rule:nonzero;"/>
    <path d="M21.879,28.875C20.62,26.794 18.732,26.823 16.292,28.706L14.958,30.17C17.764,30.353 20.846,30.38 23.653,30.01L21.879,28.875Z" style="fill:rgb(69,32,75);"/>
    <path id="rect9471" serif:id="rect947" d="M9.202,8.201C9.233,9.312 11.737,17.619 11.555,19.401C11.436,20.556 9.44,19.261 8.108,18.89C6.477,18.093 6.07,18.045 5.492,18.988C4.999,20.601 6.731,18.299 9.802,22.476C11.648,25.436 13.125,26.809 14.723,27.119C16.321,27.43 17.646,25.297 18.73,24.579C19.798,23.921 21.49,24.456 21.9,24.66C23.398,24.474 26.073,8.004 26.14,7.166C23.035,5.951 22.002,13.216 21.304,14.698C20.935,15.483 20.986,16.703 20.299,16.775C17.863,17.034 19.973,4.431 18.683,4.25C16.477,3.646 16.106,5.649 15.828,8.636C16.315,9.338 16.45,17.843 14.764,16.451C14.66,16.46 12.214,7.732 12.191,7.495C11.73,5.19 9.002,6.308 9.202,8.201Z" style="fill:white;fill-rule:nonzero;"/>
    <path d="M8.913,19.692L11.341,19.848L12.002,17.759C12.002,17.759 12.449,20.79 12.62,21.269C13.17,22.808 11.515,21.418 10.915,21.008C10.242,20.605 8.913,19.692 8.913,19.692Z" style="fill:rgb(198,190,216);"/>
    <path id="path3329" d="M14.295,18.378C14.342,18.647 14.965,21.653 14.965,21.653" style="fill:none;fill-rule:nonzero;stroke:rgb(69,32,75);stroke-width:1.21px;"/>
    <path id="path33291" serif:id="path3329" d="M17.976,18.378L17.947,21.629" style="fill:none;fill-rule:nonzero;stroke:rgb(69,32,75);stroke-width:1.21px;"/>
    <path id="path33292" serif:id="path3329" d="M21.32,18.637L20.656,21.647" style="fill:none;fill-rule:nonzero;stroke:rgb(69,32,75);stroke-width:1.21px;"/>
    <path d="M9.389,8.696C9.573,9.792 12.791,19.782 11.379,20.016C9.563,20.317 8.446,18.454 7.384,18.378C6.501,18.316 5.451,18.113 5.009,19.566C4.517,21.18 7.234,21.549 10.305,25.726C12.162,28.705 12.766,29.644 15.06,29.644C16.337,29.644 18.312,27.622 19.387,27.15C20.658,26.592 21.543,30.126 23.412,29.495C25.838,25.835 24.84,18.53 25.183,17.12C26.062,13.517 27.318,9.049 26.998,8.218C26.242,6.252 24.181,6.524 23.484,8.005C23.114,8.79 21.066,16.788 20.544,16.365C20.022,15.941 20.423,6.447 20.048,5.478C19.269,3.462 16.78,3.539 16.202,5.586C16.133,5.83 15.714,16 15.714,16C15.714,16 13.676,8.883 13.273,7.783C12.422,5.125 8.879,5.656 9.389,8.696Z" style="fill:none;fill-rule:nonzero;stroke:rgb(69,32,75);stroke-width:1.08px;stroke-linejoin:round;"/>
</svg>
