<?xml version="1.0" encoding="UTF-8" standalone="no"?>
<!DOCTYPE svg PUBLIC "-//W3C//DTD SVG 1.1//EN" "http://www.w3.org/Graphics/SVG/1.1/DTD/svg11.dtd">
<svg width="100%" height="100%" viewBox="0 0 32 32" version="1.1" xmlns="http://www.w3.org/2000/svg" xmlns:xlink="http://www.w3.org/1999/xlink" xml:space="preserve" xmlns:serif="http://www.serif.com/" style="fill-rule:evenodd;clip-rule:evenodd;stroke-linecap:round;">
    <g id="Layer-1" serif:id="Layer 1">
        <g id="path2305">
            <path d="M7.309,3.498C5.937,3.5 4.81,4.63 4.813,6.002L4.813,24.691C4.813,24.695 9.055,26.481 9.08,26.457L22.19,13.348L22.19,26.002C22.19,27.373 23.318,28.502 24.689,28.502L24.693,28.502C26.064,28.499 27.19,27.369 27.187,25.998L27.187,7.414C27.208,6.889 23.363,5.1 22.92,5.543L9.81,18.652L9.81,5.998C9.81,4.626 8.682,3.498 7.31,3.498L7.309,3.498Z" style="fill:rgb(249,196,64);fill-rule:nonzero;"/>
            <g>
                <path id="path2312" d="M27.187,7.236L27.187,7.414C27.19,7.355 27.19,7.296 27.187,7.236ZM22.695,10.837L9.08,24.451C9.055,24.475 9.055,26.481 9.08,26.457L22.631,12.906L22.695,10.837ZM26.843,13.009C26.01,18.177 24.991,27.009 22.19,26.002C22.19,27.373 23.318,28.502 24.689,28.502L24.693,28.502C26.064,28.499 27.19,26.369 27.188,24.998C27.188,24.998 27.559,12.855 26.843,13.009Z" style="fill:rgb(212,142,21);fill-rule:nonzero;"/>
                <path id="path2307" d="M7.309,3.498C5.937,3.5 4.81,4.63 4.813,6.002C4.813,6.002 4.396,20.766 4.813,21.932C5.229,23.097 6.227,15.776 6.311,12.994C6.579,4.138 9.81,5.998 9.81,5.998C9.81,4.626 8.682,3.498 7.31,3.498L7.309,3.498ZM22.92,7.539C23.363,7.096 23.363,5.1 22.92,5.543L9.322,19.141L9.343,20.648L22.92,7.539Z" style="fill:rgb(255,225,107);fill-rule:nonzero;"/>
                <g id="circle930">
                    <circle cx="25.689" cy="8.311" r="3.811" style="fill-opacity:0.22;"/>
                </g>
                <g id="circle1097">
                    <circle cx="8.311" cy="25.691" r="3.811" style="fill-opacity:0.22;"/>
                </g>
            </g>
            <path d="M7.309,3.498C5.937,3.5 4.81,4.63 4.813,6.002L4.813,24.691C4.813,24.695 9.055,26.481 9.08,26.457L22.19,13.348L22.19,26.002C22.19,27.373 23.318,28.502 24.689,28.502L24.693,28.502C26.064,28.499 27.19,27.369 27.187,25.998L27.187,7.414C27.208,6.889 23.363,5.1 22.92,5.543L9.81,18.652L9.81,5.998C9.81,4.626 8.682,3.498 7.31,3.498L7.309,3.498Z" style="fill:none;fill-rule:nonzero;stroke:rgb(173,95,0);stroke-width:1px;"/>
        </g>
        <circle id="circle9301" serif:id="circle930" cx="24.689" cy="7.31" r="3.811" style="fill:rgb(227,227,227);"/>
        <g>
            <path id="circle938" d="M22.609,4.117C20.858,5.258 20.354,7.638 21.494,9.39C21.609,9.565 21.738,9.732 21.882,9.889C21.139,8.189 21.737,6.177 23.291,5.165C24.847,4.152 26.929,4.42 28.182,5.787C28.097,5.592 27.996,5.407 27.883,5.23C26.742,3.48 24.362,2.976 22.609,4.117Z" style="fill:rgb(250,250,250);fill-rule:nonzero;"/>
            <path id="circle977" d="M21.194,8.833C21.28,9.028 21.38,9.214 21.494,9.39C22.635,11.141 25.015,11.644 26.767,10.503C28.519,9.362 29.022,6.983 27.883,5.23C27.767,5.055 27.639,4.888 27.495,4.731C28.244,6.439 27.64,8.443 26.085,9.456C24.53,10.468 22.454,10.209 21.194,8.833Z" style="fill:rgb(126,128,135);fill-rule:nonzero;"/>
        </g>
        <circle id="circle9302" serif:id="circle930" cx="24.689" cy="7.31" r="3.811" style="fill:none;stroke:rgb(85,87,97);stroke-width:1px;stroke-linejoin:round;"/>
        <circle id="circle10971" serif:id="circle1097" cx="7.311" cy="24.69" r="3.811" style="fill:rgb(227,227,227);"/>
        <g>
            <path id="path1099" d="M5.71,21.233C3.814,22.111 2.975,24.395 3.853,26.291C3.941,26.482 4.045,26.665 4.16,26.832C3.668,25.043 4.552,23.146 6.236,22.367C7.92,21.587 9.938,22.141 10.983,23.674C10.93,23.477 10.858,23.28 10.77,23.089C9.891,21.193 7.608,20.354 5.71,21.233Z" style="fill:rgb(250,250,250);fill-rule:nonzero;"/>
            <path id="path1101" d="M3.635,25.698C3.693,25.903 3.764,26.101 3.853,26.291C4.731,28.188 7.015,29.026 8.912,28.148C10.809,27.269 11.647,24.986 10.77,23.089C10.681,22.899 10.578,22.715 10.458,22.539C10.95,24.328 10.071,26.234 8.387,27.013C6.703,27.793 4.681,27.23 3.635,25.698Z" style="fill:rgb(126,128,135);fill-rule:nonzero;"/>
        </g>
        <circle id="circle10972" serif:id="circle1097" cx="7.311" cy="24.69" r="3.811" style="fill:none;stroke:rgb(85,87,97);stroke-width:1px;stroke-linejoin:round;"/>
    </g>
</svg>
