<?xml version="1.0" encoding="UTF-8" standalone="no"?>
<!DOCTYPE svg PUBLIC "-//W3C//DTD SVG 1.1//EN" "http://www.w3.org/Graphics/SVG/1.1/DTD/svg11.dtd">
<svg width="100%" height="100%" viewBox="0 0 32 32" version="1.1" xmlns="http://www.w3.org/2000/svg" xmlns:xlink="http://www.w3.org/1999/xlink" xml:space="preserve" xmlns:serif="http://www.serif.com/" style="fill-rule:evenodd;clip-rule:evenodd;stroke-linecap:round;">
    <g id="Layer-1" serif:id="Layer 1" transform="matrix(1,0,0,1,0,-1090.52)">
        <g id="path2305" transform="matrix(0.264583,0,0,0.264583,0,1090.52)">
            <path d="M27.623,13.221C22.44,13.229 18.181,17.501 18.189,22.685L18.189,93.322C18.189,93.334 34.222,100.086 34.318,99.995L83.866,50.448L83.866,98.275C83.866,103.459 88.131,107.724 93.314,107.724L93.329,107.724C98.51,107.712 102.764,103.441 102.756,98.26L102.756,28.022C102.835,26.039 88.3,19.275 86.626,20.95L37.079,70.497L37.079,22.67C37.079,17.486 32.814,13.221 27.63,13.221L27.623,13.221Z" style="fill:rgb(249,196,64);fill-rule:nonzero;"/>
            <g>
                <path id="path2312" d="M102.756,27.35L102.756,28.022C102.764,27.798 102.764,27.574 102.756,27.35ZM85.775,40.958L34.318,92.414C34.222,92.505 34.222,100.086 34.318,99.995L85.534,48.779L85.775,40.958ZM83.866,90.679L83.866,98.275C83.866,103.459 88.131,107.724 93.314,107.724L93.329,107.724C98.51,107.712 102.764,103.441 102.756,98.26L102.756,90.937C102.625,96.02 98.414,100.132 93.329,100.143L93.314,100.143C88.131,100.143 83.866,95.877 83.866,90.694L83.866,90.679Z" style="fill:rgb(212,142,21);fill-rule:nonzero;"/>
                <path id="path2307" d="M27.623,13.221C22.44,13.229 18.181,17.501 18.189,22.685L18.189,29.978C18.324,24.895 22.539,20.786 27.623,20.78L27.623,20.765L27.63,20.765C32.814,20.765 37.079,25.031 37.079,30.214L37.079,30.229L37.079,22.67C37.079,17.486 32.814,13.221 27.63,13.221L27.623,13.221ZM86.626,28.494C88.3,26.82 88.3,19.275 86.626,20.95L35.233,72.343L35.314,78.041L86.626,28.494Z" style="fill:rgb(255,225,107);fill-rule:nonzero;"/>
                <g id="circle930" transform="matrix(3.77953,0,0,3.77953,-3.77953,-4114.09)">
                    <circle cx="24.689" cy="1097.83" r="3.811" style="fill-opacity:0.22;"/>
                </g>
                <g id="circle1097" transform="matrix(3.77953,0,0,3.77953,3.77953,-4129.21)">
                    <circle cx="7.311" cy="1115.21" r="3.811" style="fill-opacity:0.22;"/>
                </g>
            </g>
            <path d="M27.623,13.221C22.44,13.229 18.181,17.501 18.189,22.685L18.189,93.322C18.189,93.334 34.222,100.086 34.318,99.995L83.866,50.448L83.866,98.275C83.866,103.459 88.131,107.724 93.314,107.724L93.329,107.724C98.51,107.712 102.764,103.441 102.756,98.26L102.756,28.022C102.835,26.039 88.3,19.275 86.626,20.95L37.079,70.497L37.079,22.67C37.079,17.486 32.814,13.221 27.63,13.221L27.623,13.221Z" style="fill:none;fill-rule:nonzero;stroke:rgb(173,95,0);stroke-width:3.78px;"/>
        </g>
        <circle id="circle9301" serif:id="circle930" cx="24.689" cy="1097.83" r="3.811" style="fill:rgb(227,227,227);"/>
        <g>
            <path id="circle938" d="M24.688,1094.02C22.598,1094.02 20.877,1095.74 20.877,1097.83C20.877,1098.04 20.895,1098.25 20.929,1098.46C21.234,1096.63 22.833,1095.27 24.688,1095.27C26.544,1095.27 28.143,1096.63 28.447,1098.46C28.482,1098.25 28.499,1098.04 28.5,1097.83C28.499,1095.74 26.779,1094.02 24.688,1094.02Z" style="fill:rgb(250,250,250);fill-rule:nonzero;"/>
            <path id="circle977" d="M20.929,1097.2C20.895,1097.41 20.877,1097.62 20.877,1097.83C20.877,1099.92 22.598,1101.64 24.688,1101.64C26.779,1101.64 28.499,1099.92 28.5,1097.83C28.499,1097.62 28.482,1097.41 28.447,1097.2C28.143,1099.04 26.544,1100.39 24.688,1100.39C22.833,1100.39 21.234,1099.04 20.929,1097.2Z" style="fill:rgb(126,128,135);fill-rule:nonzero;"/>
        </g>
        <circle id="circle9302" serif:id="circle930" cx="24.689" cy="1097.83" r="3.811" style="fill:none;stroke:rgb(85,87,97);stroke-width:1px;stroke-linejoin:round;"/>
        <circle id="circle10971" serif:id="circle1097" cx="7.311" cy="1115.21" r="3.811" style="fill:rgb(227,227,227);"/>
        <g>
            <path id="path1099" d="M7.311,1111.4C5.221,1111.4 3.5,1113.12 3.5,1115.21C3.5,1115.42 3.518,1115.63 3.552,1115.83C3.857,1114 5.456,1112.65 7.311,1112.65C9.167,1112.65 10.766,1114 11.07,1115.83C11.105,1115.63 11.122,1115.42 11.123,1115.21C11.122,1113.12 9.402,1111.4 7.311,1111.4Z" style="fill:rgb(250,250,250);fill-rule:nonzero;"/>
            <path id="path1101" d="M3.552,1114.58C3.518,1114.79 3.5,1115 3.5,1115.21C3.5,1117.3 5.221,1119.02 7.311,1119.02C9.402,1119.02 11.122,1117.3 11.123,1115.21C11.122,1115 11.105,1114.79 11.07,1114.58C10.766,1116.41 9.167,1117.77 7.311,1117.77C5.456,1117.77 3.857,1116.41 3.552,1114.58Z" style="fill:rgb(126,128,135);fill-rule:nonzero;"/>
        </g>
        <circle id="circle10972" serif:id="circle1097" cx="7.311" cy="1115.21" r="3.811" style="fill:none;stroke:rgb(85,87,97);stroke-width:1px;stroke-linejoin:round;"/>
    </g>
</svg>
