<?xml version="1.0" encoding="UTF-8" standalone="no"?>
<!DOCTYPE svg PUBLIC "-//W3C//DTD SVG 1.1//EN" "http://www.w3.org/Graphics/SVG/1.1/DTD/svg11.dtd">
<svg width="100%" height="100%" viewBox="0 0 22 22" version="1.1" xmlns="http://www.w3.org/2000/svg" xmlns:xlink="http://www.w3.org/1999/xlink" xml:space="preserve" xmlns:serif="http://www.serif.com/" style="fill-rule:evenodd;clip-rule:evenodd;stroke-linecap:round;stroke-linejoin:round;">
    <g id="Layer-1" serif:id="Layer 1" transform="matrix(1,0,0,1,0,-1100.52)">
        <g id="path1548" transform="matrix(1,0,0,1,0,-4.33086e-05)">
            <path d="M11,1101.67C9.441,1105.15 7.881,1108.62 6.322,1112.1C5.51,1113.9 4.793,1117.13 5.871,1118.76C6.388,1119.54 7.086,1120.21 7.926,1120.69C9.828,1121.79 12.172,1121.79 14.074,1120.69C14.914,1120.21 15.612,1119.54 16.129,1118.76C17.207,1117.13 16.49,1113.9 15.678,1112.1C14.119,1108.62 12.559,1105.15 11,1101.67Z" style="fill:url(#_Linear1);fill-rule:nonzero;"/>
        </g>
        <g id="path1760" transform="matrix(1,0,0,1,0,-4.33086e-05)">
            <path d="M5.371,1115.74C5.265,1116.89 5.368,1118 5.871,1118.76C6.388,1119.54 7.086,1120.21 7.926,1120.69C9.828,1121.79 12.172,1121.79 14.074,1120.69C14.914,1120.21 15.612,1119.54 16.129,1118.76C16.632,1118 16.735,1116.89 16.629,1115.74C16.56,1116.32 16.406,1116.84 16.129,1117.26C15.612,1118.04 14.914,1118.71 14.074,1119.19C12.172,1120.29 9.828,1120.29 7.926,1119.19C7.086,1118.71 6.388,1118.04 5.871,1117.26C5.594,1116.84 5.44,1116.32 5.371,1115.74Z" style="fill:rgb(13,82,191);fill-rule:nonzero;"/>
        </g>
        <g id="path1773" transform="matrix(1,0,0,1,0,-4.33086e-05)">
            <path d="M14.375,1115.8C14.172,1113.85 12.559,1110.98 12.054,1110.13" style="fill:none;fill-rule:nonzero;stroke:rgb(250,250,250);stroke-width:1.5px;"/>
        </g>
        <g id="path1775" transform="matrix(1,0,0,1,0,-4.33086e-05)">
            <path d="M11,1101.67C9.441,1105.15 7.881,1108.62 6.322,1112.1C5.51,1113.9 4.793,1117.13 5.871,1118.76C6.388,1119.54 7.086,1120.21 7.926,1120.69C9.828,1121.79 12.172,1121.79 14.074,1120.69C14.914,1120.21 15.612,1119.54 16.129,1118.76C17.207,1117.13 16.49,1113.9 15.678,1112.1C14.119,1108.62 12.559,1105.15 11,1101.67Z" style="fill:none;fill-rule:nonzero;stroke:rgb(0,46,153);stroke-width:1px;"/>
        </g>
    </g>
    <defs>
        <linearGradient id="_Linear1" x1="0" y1="0" x2="1" y2="0" gradientUnits="userSpaceOnUse" gradientTransform="matrix(0.301081,-26.4534,26.4534,0.301081,10.8179,1126.65)"><stop offset="0" style="stop-color:rgb(54,137,230);stop-opacity:1"/><stop offset="1" style="stop-color:rgb(100,186,255);stop-opacity:1"/></linearGradient>
    </defs>
</svg>
