<?xml version="1.0" encoding="UTF-8" standalone="no"?>
<!DOCTYPE svg PUBLIC "-//W3C//DTD SVG 1.1//EN" "http://www.w3.org/Graphics/SVG/1.1/DTD/svg11.dtd">
<svg width="100%" height="100%" viewBox="0 0 32 32" version="1.1" xmlns="http://www.w3.org/2000/svg" xmlns:xlink="http://www.w3.org/1999/xlink" xml:space="preserve" xmlns:serif="http://www.serif.com/" style="fill-rule:evenodd;clip-rule:evenodd;stroke-linecap:round;stroke-linejoin:round;">
    <g id="Layer-2" serif:id="Layer 2">
        <path id="path2073" d="M26.905,-8.526L18.754,-0.375C17.343,1.036 16.519,2.932 16.45,4.926L16.288,9.591L22.174,15.478L26.839,15.315C28.834,15.246 30.729,14.422 32.14,13.011L40.291,4.86C40.3,4.852 40.3,4.837 40.291,4.829L36.573,1.111L26.937,-8.526C26.932,-8.53 26.927,-8.532 26.921,-8.532C26.915,-8.532 26.909,-8.53 26.905,-8.526Z" style="fill:rgb(32,132,203);fill-rule:nonzero;"/>
        <path id="path1352" d="M29.293,-2.867L24.849,-4.632C24.849,-4.632 22.371,-4.2 19.632,-1.356C17.036,1.338 16.514,3.391 16.524,7.451C17.491,7.142 19.602,7.742 19.602,7.742L29.293,-2.867Z" style="fill:rgb(184,230,255);fill-rule:nonzero;"/>
        <path id="path13521" serif:id="path1352" d="M33,-0.867L27.556,-3.632C27.556,-3.632 25.079,-3.2 22.339,-0.356C19.743,2.338 19.573,3.676 19.583,7.736C21.298,8.269 22.222,9.495 22.222,9.495L33,-0.867Z" style="fill:rgb(70,163,226);fill-rule:nonzero;"/>
        <path id="path1363" d="M38.291,6.827C38.291,6.827 35.398,0.402 35.389,0.411L23.621,11.24C24.081,12.513 24.214,13.785 23.937,15.058L27.304,15.094C29.468,15.019 30.797,14.356 32.328,12.824L38.291,6.861C38.3,6.852 38.3,6.837 38.291,6.827Z" style="fill:rgb(21,50,87);fill-rule:nonzero;"/>
        <path id="path2112" d="M26.014,-7.635L18.754,-0.375C17.343,1.036 16.519,2.932 16.45,4.926L16.288,9.591L22.174,15.478L26.839,15.315C28.834,15.246 30.729,14.422 32.14,13.011L39.4,5.751L26.014,-7.635Z" style="fill:none;fill-rule:nonzero;"/>
        <g>
            <path d="M16.055,15.563C14.436,13.944 15.654,10.527 16.288,8.979C16.476,8.521 16.184,8.227 16.288,8.192C17.903,7.643 20.073,8.268 21.712,9.906C23.4,11.594 24.012,13.848 23.372,15.478C23.218,15.873 18.153,17.661 16.055,15.563Z" style="fill:rgb(14,20,31);"/>
        </g>
        <path id="path21121" serif:id="path2112" d="M26.014,-7.635L18.754,-0.375C17.343,1.036 16.519,2.932 16.45,4.926L16.288,9.591L22.174,15.478L26.839,15.315C28.834,15.246 30.729,14.422 32.14,13.011L39.4,5.751L26.014,-7.635Z" style="fill:none;fill-rule:nonzero;stroke:rgb(14,20,31);stroke-width:1px;"/>
        <path id="path1350" d="M20.475,11.285C18.868,9.704 17.015,8.969 16.34,9.644C16.34,9.644 11.493,11.301 9.357,12.44L3.5,28.5L19.323,22.427C20.455,18.99 22.226,15.53 22.226,15.53C22.226,15.53 22.227,15.53 22.227,15.529C22.909,14.844 22.143,12.954 20.53,11.34C20.512,11.322 20.493,11.303 20.475,11.285Z" style="fill:rgb(246,245,241);fill-rule:nonzero;"/>
        <g id="path1400">
            <path d="M17.111,9.391C16.779,9.381 16.516,9.467 16.34,9.645C16.34,9.645 10.468,11.642 9.358,12.439L3.5,28.5L5.881,27.586L10.857,13.94C12.19,12.244 19.03,10.727 19.03,10.727C19.594,10.162 18.017,9.419 17.111,9.391Z" style="fill:rgb(202,202,202);fill-rule:nonzero;"/>
        </g>
        <g id="path1411">
            <path d="M22.227,15.529C22.909,14.844 21.674,12.064 21.11,12.629C21.11,12.63 20.727,14.031 20.727,14.031C20.727,14.031 19.141,20.421 17.822,20.928L4.381,26.086L3.5,28.5L19.322,22.428C20.775,18.749 22.227,15.531 22.227,15.531L22.227,15.529Z" style="fill:rgb(157,157,157);fill-rule:nonzero;"/>
        </g>
        <path id="path2065" d="M4.19,27.704L13.838,18.056" style="fill:none;fill-rule:nonzero;stroke:rgb(51,51,51);stroke-width:1px;stroke-linejoin:miter;"/>
        <g id="path2071">
            <path d="M15.266,16.629C16.054,17.417 16.054,18.696 15.266,19.484C14.478,20.272 13.198,20.272 12.41,19.484C11.622,18.696 11.622,17.417 12.41,16.629C13.198,15.841 14.478,15.841 15.266,16.629Z" style="fill:rgb(51,51,51);"/>
        </g>
        <path id="path1398" d="M20.475,11.285C18.868,9.704 16.34,9.644 16.34,9.644C16.34,9.644 13.078,11.291 9.357,12.44C7.869,18.515 3.5,28.5 3.5,28.5C3.5,28.5 15.281,22.957 19.323,22.427C20.703,18.088 22.226,15.53 22.226,15.53L22.227,15.529C22.227,15.529 22.143,12.954 20.53,11.34C20.512,11.322 20.493,11.303 20.475,11.285Z" style="fill:none;fill-rule:nonzero;stroke:rgb(57,57,57);stroke-width:1px;"/>
    </g>
</svg>
