<?xml version="1.0" encoding="UTF-8" standalone="no"?>
<!DOCTYPE svg PUBLIC "-//W3C//DTD SVG 1.1//EN" "http://www.w3.org/Graphics/SVG/1.1/DTD/svg11.dtd">
<svg width="100%" height="100%" viewBox="0 0 32 32" version="1.1" xmlns="http://www.w3.org/2000/svg" xmlns:xlink="http://www.w3.org/1999/xlink" xml:space="preserve" xmlns:serif="http://www.serif.com/" style="fill-rule:evenodd;clip-rule:evenodd;stroke-linecap:round;stroke-linejoin:round;">
    <g id="Layer-2" serif:id="Layer 2" transform="matrix(1,0,0,1,0,8)">
        <path id="path2073" d="M26.905,-16.526L18.754,-8.375C17.343,-6.964 16.519,-5.068 16.45,-3.074L16.288,1.591L22.174,7.478L26.839,7.315C28.834,7.246 30.729,6.422 32.14,5.011L40.291,-3.14C40.3,-3.148 40.3,-3.163 40.291,-3.171L36.573,-6.889L26.937,-16.526C26.932,-16.53 26.927,-16.532 26.921,-16.532C26.915,-16.532 26.909,-16.53 26.905,-16.526L26.905,-16.526Z" style="fill:url(#_Linear1);fill-rule:nonzero;"/>
        <path id="path1352" d="M37.912,-27.53C37.909,-27.529 37.906,-27.527 37.904,-27.524L18.943,-8.563C17.411,-7.032 16.517,-4.975 16.441,-2.81L16.287,1.591L18.457,3.762L18.612,-0.639C18.687,-2.804 19.582,-4.861 21.114,-6.393L40.074,-25.353C40.084,-25.362 40.099,-25.362 40.108,-25.353L37.937,-27.524C37.931,-27.531 37.921,-27.533 37.912,-27.53L37.912,-27.53Z" style="fill:rgb(149,163,171);fill-rule:nonzero;"/>
        <path id="path1363" d="M36.12,-3.344C36.129,-3.334 36.129,-3.319 36.12,-3.31L30.157,2.653C28.625,4.184 26.568,5.078 24.404,5.153L20.003,5.307L22.174,7.478L26.575,7.325C28.739,7.25 30.797,6.356 32.328,4.824L38.291,-1.139C38.3,-1.148 38.3,-1.163 38.291,-1.173L36.12,-3.344Z" style="fill:rgb(39,52,69);fill-rule:nonzero;"/>
        <path id="path2112" d="M26.014,-15.635L18.754,-8.375C17.343,-6.964 16.519,-5.068 16.45,-3.074L16.288,1.591L22.174,7.478L26.839,7.315C28.834,7.246 30.729,6.422 32.14,5.011L39.4,-2.249L35.651,-5.998L26.014,-15.635Z" style="fill:none;fill-rule:nonzero;"/>
        <clipPath id="_clip2">
            <path id="path21121" serif:id="path2112" d="M26.014,-15.635L18.754,-8.375C17.343,-6.964 16.519,-5.068 16.45,-3.074L16.288,1.591L22.174,7.478L26.839,7.315C28.834,7.246 30.729,6.422 32.14,5.011L39.4,-2.249L35.651,-5.998L26.014,-15.635Z" clip-rule="nonzero"/>
        </clipPath>
        <g clip-path="url(#_clip2)">
            <g transform="matrix(0.707107,-0.707107,0.760211,0.760211,-4.38138,9.75408)">
                <ellipse cx="20" cy="12" rx="4" ry="5" style="fill:rgb(58,68,73);"/>
            </g>
        </g>
        <path id="path21122" serif:id="path2112" d="M26.014,-15.635L18.754,-8.375C17.343,-6.964 16.519,-5.068 16.45,-3.074L16.288,1.591L22.174,7.478L26.839,7.315C28.834,7.246 30.729,6.422 32.14,5.011L39.4,-2.249L35.651,-5.998L26.014,-15.635Z" style="fill:none;fill-rule:nonzero;stroke:rgb(14,20,31);stroke-width:1px;"/>
        <path id="path1350" d="M20.475,3.285C18.868,1.704 17.015,0.969 16.34,1.644C16.34,1.644 11.493,3.301 9.357,4.44L3.5,20.5L19.323,14.427C20.455,10.99 22.226,7.53 22.226,7.53C22.226,7.53 22.227,7.53 22.227,7.529C22.909,6.844 22.143,4.954 20.53,3.34C20.512,3.322 20.493,3.303 20.475,3.285Z" style="fill:rgb(246,245,241);fill-rule:nonzero;"/>
        <g id="path1400" transform="matrix(0.264583,0,0,0.264583,0,-8)">
            <path d="M64.673,35.492C63.417,35.455 62.423,35.782 61.757,36.452C61.757,36.452 39.565,44 35.367,47.015L13.228,107.717L22.227,104.262L41.036,52.685C46.073,46.277 71.923,40.543 71.923,40.543C74.057,38.408 68.095,35.598 64.673,35.492Z" style="fill:rgb(202,202,202);fill-rule:nonzero;"/>
        </g>
        <g id="path1411" transform="matrix(0.264583,0,0,0.264583,0,-8)">
            <path d="M84.006,58.693C86.586,56.105 81.916,45.598 79.786,47.732C79.786,47.734 78.337,53.029 78.337,53.031C78.337,53.031 72.343,77.183 67.36,79.097L16.558,98.593L13.228,107.717L73.029,84.766C78.52,70.863 84.006,58.701 84.006,58.701C84.006,58.698 84.006,58.696 84.006,58.693Z" style="fill:rgb(157,157,157);fill-rule:nonzero;"/>
        </g>
        <path id="path2065" d="M4.19,19.704L13.838,10.056" style="fill:none;fill-rule:nonzero;stroke:rgb(51,51,51);stroke-width:1px;stroke-linejoin:miter;"/>
        <g id="path2071" transform="matrix(0.569924,0.569924,-0.569924,0.569924,2.68462,1.95104)">
            <circle cx="16.896" cy="-2.674" r="2.505" style="fill:rgb(51,51,51);"/>
        </g>
        <path id="path1398" d="M20.475,3.285C18.868,1.704 16.34,1.644 16.34,1.644C16.34,1.644 13.078,3.291 9.357,4.44C7.869,10.515 3.5,20.5 3.5,20.5C3.5,20.5 15.281,14.957 19.323,14.427C20.703,10.088 22.226,7.53 22.226,7.53C22.226,7.53 22.227,7.529 22.227,7.529C22.227,7.529 22.143,4.954 20.53,3.34C20.512,3.322 20.493,3.303 20.475,3.285Z" style="fill:none;fill-rule:nonzero;stroke:rgb(57,57,57);stroke-width:1px;"/>
    </g>
    <defs>
        <linearGradient id="_Linear1" x1="0" y1="0" x2="1" y2="0" gradientUnits="userSpaceOnUse" gradientTransform="matrix(16.9482,17.1403,-17.1403,16.9482,21.3942,-14.1115)"><stop offset="0" style="stop-color:rgb(102,120,133);stop-opacity:1"/><stop offset="0.45" style="stop-color:rgb(97,115,129);stop-opacity:0.99"/><stop offset="1" style="stop-color:rgb(72,90,108);stop-opacity:0.99"/></linearGradient>
    </defs>
</svg>
