<?xml version="1.0" encoding="UTF-8" standalone="no"?>
<!DOCTYPE svg PUBLIC "-//W3C//DTD SVG 1.1//EN" "http://www.w3.org/Graphics/SVG/1.1/DTD/svg11.dtd">
<svg width="100%" height="100%" viewBox="0 0 32 32" version="1.1" xmlns="http://www.w3.org/2000/svg" xmlns:xlink="http://www.w3.org/1999/xlink" xml:space="preserve" xmlns:serif="http://www.serif.com/" style="fill-rule:evenodd;clip-rule:evenodd;stroke-linecap:round;stroke-linejoin:round;">
    <g id="Layer-2" serif:id="Layer 2">
        <g id="rect976">
            <path d="M40.64,5.237L26.762,-8.642L5.653,12.467L19.532,26.345L40.64,5.237Z" style="fill:rgb(249,194,65);"/>
        </g>
        <path id="rect895" d="M38.051,2.646L18.869,21.828L19.531,26.345L40.641,5.236L38.051,2.646Z" style="fill:rgb(212,142,21);fill-rule:nonzero;"/>
        <path id="rect884" d="M26.762,-8.641L5.653,12.467L10.142,13.273L29.41,-5.994L26.762,-8.641Z" style="fill:rgb(255,225,107);fill-rule:nonzero;"/>
        <g id="rect2898">
            <path d="M40.64,5.237L26.762,-8.642L5.653,12.467L19.532,26.345L40.64,5.237Z" style="fill:none;stroke:rgb(173,95,0);stroke-width:1px;"/>
        </g>
        <g id="path905">
            <path d="M8.457,11.396C7.296,11.421 6.331,11.789 5.654,12.467L3.5,28.498L19.533,26.346C20.962,24.918 20.96,22.269 19.529,19.41C18.099,16.552 15.448,13.901 12.59,12.471C11.133,11.742 9.704,11.37 8.457,11.396Z" style="fill:rgb(162,143,124);fill-opacity:0.99;fill-rule:nonzero;"/>
        </g>
        <g id="path911">
            <path d="M8.457,11.396C7.296,11.421 6.331,11.789 5.654,12.467L4.139,23.744L7.566,21.305L11.445,11.969C10.388,11.572 9.372,11.377 8.457,11.396Z" style="fill:rgb(184,169,154);fill-rule:nonzero;"/>
        </g>
        <g id="path914">
            <path d="M20.06,20.637L10.693,24.433L10.726,27.527L19.531,26.346L19.537,26.342C20.746,25.13 20.939,23.03 20.063,20.637L20.06,20.637Z" style="fill:rgb(87,57,45);fill-rule:nonzero;"/>
        </g>
        <path id="path917" d="M20.061,20.637L38.05,2.647" style="fill:none;fill-rule:nonzero;stroke:rgb(173,95,0);stroke-width:1px;stroke-linecap:butt;stroke-linejoin:miter;"/>
        <path id="path920" d="M11.446,11.969L29.41,-5.994" style="fill:none;fill-rule:nonzero;stroke:rgb(173,95,0);stroke-width:1px;stroke-linecap:butt;stroke-linejoin:miter;"/>
        <g id="path909">
            <path d="M5.654,12.467L3.5,28.498" style="fill:none;fill-rule:nonzero;stroke:black;stroke-width:1px;"/>
            <path d="M3.5,28.498L19.533,26.346" style="fill:none;fill-rule:nonzero;stroke:black;stroke-width:1px;"/>
            <path d="M19.533,26.346C20.962,24.918 20.669,21.516 20.137,20.58C18.706,17.722 12.776,12.429 11.637,11.922C10.388,11.365 6.257,11.297 5.654,12.467" style="fill:none;fill-rule:nonzero;stroke:rgb(61,33,27);stroke-width:1px;"/>
        </g>
        <path id="path916" d="M8.978,22.212C7.539,20.976 5.101,20.642 4.471,21.273L3.501,28.499L10.725,27.528C11.357,26.898 11.639,24.558 8.978,22.212Z" style="fill-rule:nonzero;"/>
        <path d="M5.746,20.807C5.215,20.807 4.775,20.968 4.471,21.274L3.502,28.498L7.047,21.074C6.587,20.898 6.145,20.807 5.746,20.807Z" style="fill:rgb(250,250,250);fill-rule:nonzero;"/>
        <path id="path9161" serif:id="path916" d="M7.565,21.305C6.283,20.654 5.101,20.642 4.471,21.273C4.471,21.273 2.459,27.456 3.501,28.499C4.543,29.542 10.725,27.528 10.725,27.528C11.357,26.898 11.345,25.716 10.694,24.433C10.042,23.151 8.848,21.956 7.565,21.305Z" style="fill:none;fill-rule:nonzero;stroke:black;stroke-width:1px;"/>
    </g>
</svg>
