<?xml version="1.0" encoding="UTF-8" standalone="no"?>
<!DOCTYPE svg PUBLIC "-//W3C//DTD SVG 1.1//EN" "http://www.w3.org/Graphics/SVG/1.1/DTD/svg11.dtd">
<svg width="100%" height="100%" viewBox="0 0 32 32" version="1.1" xmlns="http://www.w3.org/2000/svg" xmlns:xlink="http://www.w3.org/1999/xlink" xml:space="preserve" xmlns:serif="http://www.serif.com/" style="fill-rule:evenodd;clip-rule:evenodd;stroke-linecap:round;stroke-linejoin:round;">
    <g id="Layer-2" serif:id="Layer 2" transform="matrix(1,0,0,1,0,8)">
        <g id="rect976" transform="matrix(0.707107,0.707107,-0.707107,0.707107,0,0)">
            <rect x="7.156" y="-30.691" width="19.627" height="29.852" style="fill:url(#_Linear1);"/>
        </g>
        <path id="rect895" d="M38.051,-5.354L18.869,13.828L19.531,18.345L40.641,-2.764L38.051,-5.354Z" style="fill:rgb(212,142,21);fill-rule:nonzero;"/>
        <path id="rect884" d="M26.762,-16.641L5.653,4.467L10.142,5.273L29.41,-13.994L26.762,-16.641Z" style="fill:rgb(255,225,107);fill-rule:nonzero;"/>
        <g id="rect2898" transform="matrix(0.707107,0.707107,-0.707107,0.707107,0,0)">
            <rect x="7.156" y="-30.691" width="19.627" height="29.852" style="fill:none;stroke:rgb(173,95,0);stroke-width:1px;"/>
        </g>
        <g id="path905" transform="matrix(0.264583,0,0,0.264583,0,-8)">
            <path d="M31.964,43.073C27.575,43.166 23.93,44.558 21.371,47.119L13.228,107.709L73.826,99.574C79.225,94.179 79.219,84.166 73.812,73.361C68.405,62.558 58.387,52.54 47.584,47.133C42.079,44.378 36.677,42.974 31.964,43.073Z" style="fill:rgb(162,143,124);fill-opacity:0.99;fill-rule:nonzero;"/>
        </g>
        <g id="path911" transform="matrix(0.264583,0,0,0.264583,0,-8)">
            <path d="M31.964,43.073C27.575,43.166 23.93,44.558 21.371,47.119L15.642,89.742L28.597,80.522L43.258,45.236C39.262,43.736 35.421,43 31.964,43.073Z" style="fill:rgb(184,169,154);fill-rule:nonzero;"/>
        </g>
        <g id="path914" transform="matrix(0.264583,0,0,0.264583,0,-8)">
            <path d="M75.819,77.997L40.416,92.347L40.541,104.04L73.819,99.574L73.841,99.56C78.41,94.981 79.141,87.044 75.827,77.997C75.824,77.997 75.822,77.997 75.819,77.997Z" style="fill:rgb(87,57,45);fill-rule:nonzero;"/>
        </g>
        <path id="path917" d="M20.061,12.637L38.05,-5.353" style="fill:none;fill-rule:nonzero;stroke:rgb(173,95,0);stroke-width:1px;stroke-linecap:butt;stroke-linejoin:miter;"/>
        <path id="path920" d="M11.446,3.969L29.41,-13.994" style="fill:none;fill-rule:nonzero;stroke:rgb(173,95,0);stroke-width:1px;stroke-linecap:butt;stroke-linejoin:miter;"/>
        <g id="path909" transform="matrix(0.264583,0,0,0.264583,0,-8)">
            <path d="M31.964,43.073C27.575,43.166 23.93,44.558 21.371,47.119L13.228,107.709L73.826,99.574C79.225,94.179 79.219,84.166 73.812,73.361C68.405,62.558 58.387,52.54 47.584,47.133C42.079,44.378 36.677,42.974 31.964,43.073Z" style="fill:none;fill-rule:nonzero;stroke:rgb(61,33,27);stroke-width:3.79px;"/>
        </g>
        <path id="path916" d="M7.565,13.305C6.283,12.654 5.101,12.642 4.471,13.273L3.501,20.499L10.725,19.528C11.357,18.898 11.345,17.716 10.694,16.433C10.042,15.151 8.848,13.956 7.565,13.305Z" style="fill-rule:nonzero;"/>
        <clipPath id="_clip2">
            <path id="path9161" serif:id="path916" d="M7.565,13.305C6.283,12.654 5.101,12.642 4.471,13.273L3.501,20.499L10.725,19.528C11.357,18.898 11.345,17.716 10.694,16.433C10.042,15.151 8.848,13.956 7.565,13.305Z" clip-rule="nonzero"/>
        </clipPath>
        <g clip-path="url(#_clip2)">
            <g id="path928" transform="matrix(0.264583,0,0,0.264583,0,-8)">
                <path d="M21.718,78.639C19.709,78.64 18.048,79.248 16.897,80.404L13.236,107.709L26.634,79.651C24.895,78.984 23.225,78.641 21.718,78.639Z" style="fill:rgb(250,250,250);fill-rule:nonzero;"/>
            </g>
        </g>
        <path id="path9162" serif:id="path916" d="M7.565,13.305C6.283,12.654 5.101,12.642 4.471,13.273L3.501,20.499L10.725,19.528C11.357,18.898 11.345,17.716 10.694,16.433C10.042,15.151 8.848,13.956 7.565,13.305Z" style="fill:none;fill-rule:nonzero;stroke:black;stroke-width:1px;"/>
        <g id="rect896" transform="matrix(0.264583,0,0,0.264583,0,-8)">
            <path d="M101.147,-32.657L21.371,47.119L13.228,107.709L13.236,107.709L73.819,99.574L73.974,99.419L153.602,19.791L101.147,-32.657Z" style="fill:url(#_Linear3);fill-rule:nonzero;"/>
        </g>
    </g>
    <defs>
        <linearGradient id="_Linear1" x1="0" y1="0" x2="1" y2="0" gradientUnits="userSpaceOnUse" gradientTransform="matrix(22.5863,-0.178734,0.178734,22.5863,7.15624,-15.765)"><stop offset="0" style="stop-color:rgb(249,196,64);stop-opacity:1"/><stop offset="0.47" style="stop-color:rgb(241,185,55);stop-opacity:1"/><stop offset="1" style="stop-color:rgb(212,142,21);stop-opacity:1"/></linearGradient>
        <linearGradient id="_Linear3" x1="0" y1="0" x2="1" y2="0" gradientUnits="userSpaceOnUse" gradientTransform="matrix(52.4132,52.4955,-52.4955,52.4132,61.2576,7.22914)"><stop offset="0" style="stop-color:white;stop-opacity:0.09"/><stop offset="0.46" style="stop-color:rgb(209,209,209);stop-opacity:0.1"/><stop offset="1" style="stop-color:black;stop-opacity:0.09"/></linearGradient>
    </defs>
</svg>
