<?xml version="1.0" encoding="UTF-8" standalone="no"?>
<!DOCTYPE svg PUBLIC "-//W3C//DTD SVG 1.1//EN" "http://www.w3.org/Graphics/SVG/1.1/DTD/svg11.dtd">
<svg width="100%" height="100%" viewBox="0 0 32 32" version="1.1" xmlns="http://www.w3.org/2000/svg" xmlns:xlink="http://www.w3.org/1999/xlink" xml:space="preserve" xmlns:serif="http://www.serif.com/" style="fill-rule:evenodd;clip-rule:evenodd;stroke-linecap:round;stroke-linejoin:round;">
    <g id="Layer-1" serif:id="Layer 1" transform="matrix(1,0,0,1,0,-1090.52)">
        <rect id="rect2096" x="3.5" y="1094.02" width="16.478" height="16.478" style="fill:url(#_Linear1);"/>
        <g id="rect2434" transform="matrix(0.264583,0,0,0.264583,0,1090.52)">
            <path d="M75.509,37.832C58.809,38.386 45.372,52.274 45.369,68.984C45.37,71.177 45.603,73.365 46.063,75.509L75.509,75.509L75.509,37.832Z" style="fill:url(#_Linear2);fill-rule:nonzero;"/>
        </g>
        <g id="rect2323" transform="matrix(0.264583,0,0,0.264583,0,1090.52)">
            <rect x="13.228" y="13.228" width="62.281" height="7.559" style="fill:rgb(140,213,255);fill-rule:nonzero;"/>
        </g>
        <g id="rect2377" transform="matrix(0.264583,0,0,0.264583,0,1090.52)">
            <rect x="13.228" y="67.95" width="62.281" height="7.559" style="fill:rgb(13,82,191);fill-rule:nonzero;"/>
        </g>
        <rect id="rect2317" x="3.5" y="1094.02" width="16.478" height="16.478" style="fill:none;stroke:rgb(0,46,153);stroke-width:1px;"/>
        <circle id="path2098" cx="20.252" cy="1110.77" r="8.248" style="fill:url(#_Linear3);"/>
        <g id="circle2325" transform="matrix(0.264583,0,0,0.264583,0,1090.52)">
            <path d="M76.543,45.369L76.542,45.369C59.441,45.369 45.369,59.441 45.369,76.542C45.369,76.543 45.369,76.543 45.369,76.543C45.371,77.806 45.45,79.068 45.605,80.322C47.506,64.76 60.865,52.931 76.543,52.928C92.226,52.928 105.59,64.762 107.488,80.33C107.641,79.073 107.717,77.809 107.717,76.543C107.717,76.543 107.717,76.543 107.717,76.542C107.717,59.441 93.644,45.369 76.543,45.369Z" style="fill:rgb(140,213,255);fill-rule:nonzero;"/>
        </g>
        <g id="circle2379" transform="matrix(0.264583,0,0,0.264583,0,1090.52)">
            <path d="M45.605,72.763C45.45,74.017 45.371,75.279 45.369,76.543C45.369,76.543 45.369,76.543 45.369,76.543C45.369,93.644 59.441,107.717 76.542,107.717L76.543,107.717C93.644,107.717 107.717,93.644 107.717,76.543C107.717,76.543 107.717,76.543 107.717,76.543C107.717,75.282 107.64,74.022 107.488,72.771C105.583,88.332 92.221,100.159 76.543,100.157C60.865,100.155 47.506,88.325 45.605,72.763Z" style="fill:rgb(13,82,191);fill-rule:nonzero;"/>
        </g>
        <circle id="circle2319" cx="20.252" cy="1110.77" r="8.248" style="fill:none;stroke:rgb(0,46,153);stroke-width:1px;"/>
        <g id="path2412" transform="matrix(0.264583,0,0,0.264583,0,1090.52)">
            <path d="M60.221,49.99C51.005,55.654 45.371,65.725 45.369,76.543C45.371,84.239 48.223,91.669 53.371,97.389L87.586,97.389L69.545,66.142L60.221,49.99Z" style="fill:url(#_Linear4);fill-rule:nonzero;"/>
        </g>
        <path id="path2102" d="M23.174,1114.29L4.08,1114.29L8.854,1106.02L13.627,1097.75L18.4,1106.02L23.174,1114.29Z" style="fill:url(#_Linear5);fill-rule:nonzero;"/>
        <g id="path2327" transform="matrix(0.264583,0,0,0.264583,0,1090.52)">
            <path d="M51.503,27.335L33.462,58.583L15.421,89.83L19.783,89.83L33.462,66.142L51.503,34.894L69.545,66.142L83.223,89.83L87.586,89.83L69.545,58.583L51.503,27.335Z" style="fill:rgb(140,213,255);fill-rule:nonzero;"/>
        </g>
        <g id="path2381" transform="matrix(0.264583,0,0,0.264583,0,1090.52)">
            <path d="M19.783,82.271L15.421,89.83L87.586,89.83L83.223,82.271L19.783,82.271Z" style="fill:rgb(13,82,191);fill-rule:nonzero;"/>
        </g>
        <path id="path2321" d="M23.174,1114.29L4.08,1114.29L8.854,1106.02L13.627,1097.75L18.4,1106.02L23.174,1114.29Z" style="fill:none;fill-rule:nonzero;stroke:rgb(0,46,153);stroke-width:1px;"/>
    </g>
    <defs>
        <linearGradient id="_Linear1" x1="0" y1="0" x2="1" y2="0" gradientUnits="userSpaceOnUse" gradientTransform="matrix(2.47643,-22.7913,22.7913,2.47643,4.08025,1114.29)"><stop offset="0" style="stop-color:rgb(54,137,230);stop-opacity:1"/><stop offset="1" style="stop-color:rgb(100,186,255);stop-opacity:1"/></linearGradient>
        <linearGradient id="_Linear2" x1="0" y1="0" x2="1" y2="0" gradientUnits="userSpaceOnUse" gradientTransform="matrix(-12.7438,56.6885,-56.6885,-12.7438,71.4394,32.2091)"><stop offset="0" style="stop-color:black;stop-opacity:0.25"/><stop offset="1" style="stop-color:white;stop-opacity:0"/></linearGradient>
        <linearGradient id="_Linear3" x1="0" y1="0" x2="1" y2="0" gradientUnits="userSpaceOnUse" gradientTransform="matrix(1.64909,-21.0869,21.0869,1.64909,21.5425,1122.26)"><stop offset="0" style="stop-color:rgb(54,137,230);stop-opacity:1"/><stop offset="1" style="stop-color:rgb(100,186,255);stop-opacity:1"/></linearGradient>
        <linearGradient id="_Linear4" x1="0" y1="0" x2="1" y2="0" gradientUnits="userSpaceOnUse" gradientTransform="matrix(3.52112,-91.1093,91.1093,3.52112,43.4802,117.164)"><stop offset="0" style="stop-color:black;stop-opacity:0.25"/><stop offset="1" style="stop-color:white;stop-opacity:0"/></linearGradient>
        <linearGradient id="_Linear5" x1="0" y1="0" x2="1" y2="0" gradientUnits="userSpaceOnUse" gradientTransform="matrix(0.931629,-24.106,24.106,0.931629,11.5041,1119.52)"><stop offset="0" style="stop-color:rgb(54,137,230);stop-opacity:1"/><stop offset="1" style="stop-color:rgb(100,186,255);stop-opacity:1"/></linearGradient>
    </defs>
</svg>
