<?xml version="1.0" encoding="UTF-8" standalone="no"?>
<!DOCTYPE svg PUBLIC "-//W3C//DTD SVG 1.1//EN" "http://www.w3.org/Graphics/SVG/1.1/DTD/svg11.dtd">
<svg width="100%" height="100%" viewBox="0 0 32 32" version="1.1" xmlns="http://www.w3.org/2000/svg" xmlns:xlink="http://www.w3.org/1999/xlink" xml:space="preserve" xmlns:serif="http://www.serif.com/" style="fill-rule:evenodd;clip-rule:evenodd;stroke-linecap:round;stroke-linejoin:round;stroke-miterlimit:1.5;">
    <g>
        <path d="M22.628,25.908C23.75,25.664 24.583,24.805 24.853,23.759C24.965,23.325 24.981,22.86 24.88,22.393C24.537,20.797 22.971,19.781 21.384,20.127L6.002,23.476C4.415,23.821 3.407,25.397 3.75,26.993C4.094,28.588 5.659,29.602 7.246,29.257L22.628,25.908Z" style="fill:url(#_Linear1);"/>
        <path d="M12.263,6.151C12.384,6.044 17.709,2.865 19.826,3.475C19.994,3.524 20.339,3.463 20.362,3.667C20.581,5.618 23.034,7.354 26.103,7.703C27.168,8.735 27.873,9.453 28.101,9.919C28.692,11.128 27.905,13.564 27.695,13.775C27.695,13.775 27.076,16.785 26.274,18.195C25.109,20.005 24.729,20.685 23.172,21.692C21.626,22.692 20.086,23.673 20.086,23.673C18.776,23.885 18.323,23.483 18.129,21.776C18.214,19.767 19.815,18.823 20.315,18.27C20.641,17.908 20.839,17.246 20.969,16.872C21.259,15.273 19.755,15.507 19.755,15.507C19.742,15.521 8.457,27.556 8.457,27.556L7.239,28.062C5.201,28.16 3.346,26.705 4.029,25.491C4.438,24.448 4.365,24.462 5.64,23.138C6.505,22.24 7.335,20.623 7.335,20.623C7.162,20.662 6.163,19.643 5.9,19.197C4.586,16.968 6.851,15.042 6.851,15.042C6.695,14.954 6.448,14.768 6.239,14.3C5.701,13.089 6.262,12.061 6.262,12.061C6.719,10.741 12.263,6.151 12.263,6.151Z" style="fill:white;"/>
        <g>
            <path d="M17.326,13.393L19.556,11.11" style="fill:none;stroke:rgb(69,32,75);stroke-width:1px;"/>
            <path d="M14.997,11.28L17.337,8.943" style="fill:none;stroke:rgb(69,32,75);stroke-width:1px;"/>
            <path d="M12.824,8.362L15.223,6.497" style="fill:none;stroke:rgb(69,32,75);stroke-width:1px;"/>
            <path d="M10.078,15.54C12.009,15.54 12.015,14.965 11.127,16.681C10.227,17.935 10.201,18.076 9.5,19.055C7.059,21.011 6.133,20.485 6,18.838C7.439,16.424 8.146,15.54 10.078,15.54Z" style="fill:rgb(198,181,102);"/>
            <path d="M11.913,14.532C12.63,13.81 13.09,14.822 12.646,15.269C10.207,17.722 9.303,18.695 7.64,19.922C6.446,20.803 6.815,19.771 7.056,19.511C8.176,18.308 7.722,18.747 11.913,14.532Z" style="fill:rgb(113,102,55);"/>
            <path d="M20.5,20C22.127,19.129 22.602,20.207 22.491,21.57C22.491,23.502 17.387,24.319 18.275,22.604C19.444,20.201 18.692,21.494 20.5,20Z" style="fill:rgb(84,196,162);"/>
            <path d="M25.293,19.795C25.293,19.795 30.987,10.125 21.177,7.08C20.496,6.56 20.346,4.916 19.434,4.509C18.417,4.055 15.837,5.022 15.675,4.671C16.729,3.734 18.52,3.251 20.104,3.56C20.489,3.721 20.803,5.032 21.4,5.971C23.208,7.421 23.629,5.482 27.496,8.96C28.649,9.679 28.111,12.171 27.64,14.399C26.796,18.477 25.293,19.795 25.293,19.795Z" style="fill:rgb(198,190,216);"/>
            <path d="M5.5,22.324C7.215,21.436 9,23.893 9,25.824C9,27.756 7.495,27.893 5.564,27.893C3.729,27.893 4.096,24.633 5.5,22.324Z" style="fill:rgb(99,113,205);"/>
            <path d="M7.44,10.336C9.156,9.448 9.15,10.279 9.15,12.211C8.325,13.569 7.936,14.137 6.875,14.743C5.04,14.743 6.036,12.644 7.44,10.336Z" style="fill:rgb(99,113,205);"/>
            <path d="M10.582,9.871C11.202,9.247 11.699,10.222 11.315,10.609C9.204,12.732 8.425,13.578 6.956,14.611C5.901,15.352 6.176,14.414 6.384,14.188C7.348,13.141 6.954,13.52 10.582,9.871Z" style="fill:rgb(53,60,110);"/>
            <path d="M7.5,25C9.432,25 9.491,24.638 9.491,26.57C9.491,28.502 3.528,28.597 4.416,26.882C5.911,25.691 5.568,25 7.5,25Z" style="fill:rgb(255,97,61);"/>
            <path d="M12.078,21.176C14.009,21.176 14.015,20.602 13.127,22.317C12.227,23.571 12.201,23.712 11.5,24.692C10.183,26.105 6.316,28.551 8,24.474C9.439,22.06 10.146,21.176 12.078,21.176Z" style="fill:rgb(56,192,76);"/>
            <path d="M19.872,14.319C21.183,13.521 24.299,15.124 20.157,19.808C19.258,20.857 19.515,20.114 18.129,22.921C17.844,22.017 18.025,21.355 18.252,20.919C19.666,19.697 20.013,18.535 20.478,17.619C21.136,16.322 20.877,15.516 19.796,15.727C19.767,15.732 15.188,20.191 12.398,23.484C10.105,26.192 10.321,26.967 8.537,27.628C7.819,27.693 6.279,28.064 6.405,27.95C8.38,26.392 17.086,16.013 19.872,14.319Z" style="fill:rgb(56,98,62);"/>
        </g>
        <path d="M12.263,6.151C12.384,6.044 17.709,2.865 19.826,3.475C20.441,3.652 21.212,5.807 22.034,6.323C22.647,6.709 25.038,7.161 25.666,7.641C27.638,9.144 27.725,9.15 28.101,9.919C28.692,11.128 26.842,17.27 26.04,18.68C24.875,20.489 23.814,21.245 21.88,22.629C20.418,23.723 18.212,24.094 18.041,21.649C18.347,20.124 21.08,17.775 20.969,16.872C21.259,15.273 19.755,15.507 19.755,15.507C19.742,15.521 9.135,26.842 9.135,26.842C6.564,29.404 1.888,27.264 4.93,23.959C5.551,23.285 7.335,20.623 7.335,20.623C7.304,20.63 12.764,15.154 12.688,15.101C12.622,15.056 7.328,20.639 7.242,20.563C6.876,20.239 6.075,19.493 5.9,19.197C4.586,16.968 6.851,15.042 6.851,15.042C6.804,15.016 11.317,10.489 11.257,10.439C11.188,10.383 6.859,15.106 6.784,15.006C6.706,14.903 6.313,14.466 6.239,14.3C5.701,13.089 6.262,12.061 6.262,12.061C6.719,10.741 12.263,6.151 12.263,6.151Z" style="fill:none;stroke:rgb(69,32,75);stroke-width:1px;"/>
    </g>
    <defs>
        <linearGradient id="_Linear1" x1="0" y1="0" x2="1" y2="0.0550945" gradientUnits="userSpaceOnUse" gradientTransform="matrix(21.0433,-4.16549,2.11841,12.9945,2.00726,27.6381)"><stop offset="0" style="stop-color:rgb(85,35,71);stop-opacity:1"/><stop offset="1" style="stop-color:white;stop-opacity:0"/></linearGradient>
    </defs>
</svg>
