<?xml version="1.0" encoding="UTF-8" standalone="no"?>
<!DOCTYPE svg PUBLIC "-//W3C//DTD SVG 1.1//EN" "http://www.w3.org/Graphics/SVG/1.1/DTD/svg11.dtd">
<svg width="100%" height="100%" viewBox="0 0 32 32" version="1.1" xmlns="http://www.w3.org/2000/svg" xmlns:xlink="http://www.w3.org/1999/xlink" xml:space="preserve" xmlns:serif="http://www.serif.com/" style="fill-rule:evenodd;clip-rule:evenodd;stroke-linecap:round;stroke-linejoin:round;stroke-miterlimit:1.5;">
    <rect id="Simpler" x="0" y="0" width="32" height="32" style="fill:none;"/>
    <g>
        <path d="M22.578,29.465C23.726,29.454 24.719,29.115 25.2,28.63C25.399,28.428 25.51,28.202 25.509,27.964C25.503,27.151 24.181,26.503 22.557,26.518L6.815,26.668C5.191,26.683 3.879,27.356 3.885,28.169C3.891,28.982 5.212,29.63 6.836,29.614L22.578,29.465Z" style="fill:url(#_Linear1);"/>
        <path d="M13.263,7.151C13.384,7.044 17.709,2.865 19.826,3.475C19.994,3.524 20.339,3.463 20.362,3.667C20.581,5.618 22.953,7.918 26.023,8.267C27.088,9.3 27.873,9.453 28.101,9.919C28.692,11.128 26.424,12.902 26.214,13.114C26.214,13.114 24.541,15.775 23.045,17.885C21.69,18.639 19.614,19.052 20.113,18.499C20.44,18.137 20.839,17.246 20.969,16.872C21.259,15.273 19.755,15.507 19.755,15.507C20.14,15.565 10.885,26.445 10.303,26.38L7.324,27.035C5.286,27.133 5.214,26.652 5.166,25.765C5.575,24.723 5.318,25.177 6.593,23.853C7.458,22.954 11.007,17.51 11.007,17.51C8.834,16.549 9.551,14.754 9.288,14.308C7.974,12.079 8.679,12.889 8.679,12.889C8.523,12.801 9.153,10.637 9.153,10.637C9.61,9.318 13.263,7.151 13.263,7.151Z" style="fill:white;"/>
        <g>
            <path d="M15.873,12.41L18.384,10.183" style="fill:none;stroke:rgb(69,32,75);stroke-width:1px;"/>
            <path d="M14.545,10.836L17.017,8.865" style="fill:none;stroke:rgb(69,32,75);stroke-width:1px;"/>
            <path d="M13.601,9.362L16,7.497" style="fill:none;stroke:rgb(69,32,75);stroke-width:1px;"/>
            <path d="M11.913,14.532C12.63,13.81 13.09,14.822 12.646,15.269C10.207,17.722 10.056,17.506 10.056,17.506C10.056,17.506 9.318,17.267 9.56,17.008C10.679,15.804 7.722,18.747 11.913,14.532Z" style="fill:rgb(198,190,216);"/>
            <path d="M25.571,14.358C22.727,12.436 30.987,11.125 21.177,8.08C20.496,7.56 20.346,5.916 19.434,5.509C18.417,5.055 15.837,6.022 15.675,5.671C16.729,4.734 18.52,3.251 20.104,3.56C20.489,3.721 20.803,5.032 21.4,5.971C23.208,7.421 23.075,6.353 27.443,9.502C28.596,10.221 26.963,12.015 25.571,14.358Z" style="fill:rgb(198,190,216);"/>
            <path d="M11.744,10.719C12.12,10.342 12.71,11.223 12.477,11.457C11.201,12.74 10.743,13.264 9.768,13.8C9.067,14.185 9.104,13.487 9.226,13.348C9.793,12.699 9.552,12.925 11.744,10.719Z" style="fill:rgb(198,190,216);"/>
            <path d="M19.872,14.319C21.183,13.521 23.915,14.365 19.773,19.049C18.874,18.097 18.564,18.892 17.483,18.102C17.459,18.084 15.09,20.364 12.484,23.805C11.19,25.512 17.086,16.013 19.872,14.319Z" style="fill:rgb(198,190,216);"/>
            <path d="M5.372,26.104C5.094,25.323 6.287,23.644 6.736,23.559C8.175,21.146 10.146,21.176 12.078,21.176C14.009,21.176 17.431,17.693 16.543,19.408C16.445,21.226 10.055,26.866 8.691,27.03C7.739,27.388 7.51,26.961 6.101,26.961C5.767,26.961 5.203,26.455 5.372,26.104Z" style="fill:rgb(255,126,126);"/>
        </g>
        <path d="M8.949,11.298C9.406,9.979 17.709,2.865 19.826,3.475C20.441,3.652 21.212,5.807 22.034,6.323C22.647,6.709 27.725,9.15 28.101,9.919C28.277,10.279 25.68,14.618 24.947,15.64C22.692,18.782 20.188,20.032 18.198,18.047C19.101,16.849 19.755,15.507 19.755,15.507C20.109,16.011 11.217,26.135 9.135,26.842C7.386,27.665 3.458,26.791 5.93,24.692C6.629,24.099 10.126,18.852 10.126,18.852C10.095,18.859 12.764,15.154 12.688,15.101C12.622,15.056 10.813,16.937 10.721,17.006C9.14,18.19 8.637,15.398 9.538,14.28C9.491,14.253 12.317,11.489 12.257,11.439C12.188,11.383 9.546,14.343 9.471,14.243C9.393,14.14 9,13.703 8.926,13.537C8.388,12.326 8.949,11.298 8.949,11.298Z" style="fill:none;stroke:rgb(69,32,75);stroke-width:1px;"/>
    </g>
    <defs>
        <linearGradient id="_Linear1" x1="0" y1="0" x2="1" y2="0.304837" gradientUnits="userSpaceOnUse" gradientTransform="matrix(21.4492,-0.00114536,-0.616202,6.55763,2.04599,28.3164)"><stop offset="0" style="stop-color:rgb(255,126,126);stop-opacity:1"/><stop offset="0.54" style="stop-color:rgb(255,155,155);stop-opacity:0.78"/><stop offset="1" style="stop-color:white;stop-opacity:0"/></linearGradient>
    </defs>
</svg>
