<?xml version="1.0" encoding="UTF-8" standalone="no"?>
<!DOCTYPE svg PUBLIC "-//W3C//DTD SVG 1.1//EN" "http://www.w3.org/Graphics/SVG/1.1/DTD/svg11.dtd">
<svg width="100%" height="100%" viewBox="0 0 17 17" version="1.1" xmlns="http://www.w3.org/2000/svg" xmlns:xlink="http://www.w3.org/1999/xlink" xml:space="preserve" xmlns:serif="http://www.serif.com/" style="fill-rule:evenodd;clip-rule:evenodd;stroke-linecap:round;stroke-linejoin:round;stroke-miterlimit:1.5;">
    <g transform="matrix(0.0377539,0,0,0.0377517,-17.9324,-15.4062)">
        <g transform="matrix(4.22573,19.5249,-32.0195,6.93068,963.806,624.084)">
            <path d="M6.461,6.36C6.461,5.609 5.462,5 4.231,5C3,5 2,5.609 2,6.36L2,13.64C2,14.391 3,15 4.231,15C5.462,15 6.461,14.391 6.461,13.64L6.461,6.36Z" style="fill:url(#_Linear1);"/>
        </g>
        <path d="M659.183,466.429C661.009,464.816 741.701,416.914 773.79,426.109C811.883,437.025 889.248,502.974 899.187,523.199C908.135,541.408 902.988,580.298 899.802,583.484C899.802,583.484 898.496,634.606 886.341,655.85C868.69,683.113 848.091,706.689 824.494,721.862C801.065,736.929 771.25,754.326 771.25,754.326C751.393,757.526 739.32,736.937 736.378,711.231C737.663,680.951 773.622,657.345 781.191,649.013C786.142,643.564 789.133,633.59 791.112,627.961C795.502,603.869 772.706,607.382 772.706,607.382C772.512,607.592 584.431,809.696 584.431,809.696L558.819,826.028C550.552,834.294 533.202,830.941 522.564,827.595C511.926,824.248 500.08,807.096 500.382,795.824C500.794,780.435 501.786,774.375 507.916,766.26C516.267,755.205 539.502,742.315 558.819,722.365C571.93,708.824 584.5,684.474 584.5,684.474C581.886,685.059 566.745,669.7 562.759,662.981C542.839,629.407 577.166,600.386 577.166,600.386C574.803,599.062 571.054,596.247 567.901,589.201C559.738,570.955 568.242,555.463 568.242,555.463C575.17,535.587 659.183,466.429 659.183,466.429Z" style="fill:rgb(252,203,151);"/>
        <g>
            <g transform="matrix(0.369897,0.369897,-1.12601,1.12601,1318.02,-331.664)">
                <path d="M527.531,656.213C547.798,656.213 544,712.48 544,762C544,793.795 550.506,834.05 538.424,852.839C529.744,866.339 484.528,868.831 484.779,867.217C565.348,843.049 475.817,653.446 527.531,656.213Z" style="fill:rgb(240,144,122);"/>
            </g>
            <g transform="matrix(0.288433,0.288433,-1.11399,1.11399,1384.18,-422.958)">
                <path d="M500.207,784.746C500.207,775.399 540.248,778.951 540.248,784.746C540.248,816.541 541.973,828.743 529.891,847.532C521.21,861.032 501.663,859.836 501.209,856.58C499.104,841.482 500.207,839.385 500.207,784.746Z" style="fill:rgb(240,144,122);"/>
                <g transform="matrix(45.9159,-11.8885,45.9186,11.8892,-135.469,781.088)">
                    <path d="M1.767,15.318C1.117,14.157 1.604,13.826 1.992,13.512C2.919,12.761 3.767,12.188 4.196,11.686C4.589,11.227 4.414,10.796 5.097,9.928" style="fill:none;stroke:rgb(255,238,203);stroke-width:1px;"/>
                </g>
            </g>
            <g transform="matrix(1,0,0,1,-3,2)">
                <path d="M641.213,543.416C667.173,560.154 597.243,601.054 584.959,632.573C576.787,653.542 592.633,660.4 605.419,666.301C599.375,673.011 589.98,684.18 580.865,684.18C569.507,669.936 562,661.973 562,641C560.2,617.626 633.866,550.388 641.213,543.416Z" style="fill:rgb(255,238,203);"/>
            </g>
            <g transform="matrix(0.277326,0.277326,-1.00613,1.00613,1284.54,-405.797)">
                <path d="M500.207,784.746C500.207,775.399 540.248,778.951 540.248,784.746C540.248,816.541 541.973,828.743 529.891,847.532C521.21,861.032 503.24,851.935 502.786,848.679C500.681,833.581 500.207,839.385 500.207,784.746Z" style="fill:rgb(240,144,122);"/>
            </g>
            <path d="M646.535,484.362C652.77,496.885 604.889,533.118 587.65,553.918C570.679,574.396 584.346,579.491 590.205,585.793C588.341,593.564 584.174,597.844 580,597.844C573.929,597.844 565.194,586.433 565.194,572.678C565.194,549.288 641.926,487.331 646.535,484.362Z" style="fill:rgb(255,238,203);"/>
            <g transform="matrix(1.26224,-0.692754,0.696541,1.26913,-711.636,279.006)">
                <path d="M735.325,759.268C736.006,743.114 725.202,744.855 747.589,731.068C808.654,718.093 802.752,690.839 805.602,699.313C806.923,703.693 816.803,725.465 789.774,739.966C776.194,745.004 759.736,734.687 735.325,759.268Z" style="fill:rgb(240,144,122);"/>
            </g>
            <g transform="matrix(26.4873,0,0,26.4889,474.981,408.093)">
                <path d="M14.515,10.583C14.349,12.772 16.541,5.065 12.5,2.348C6.619,-2.116 15.717,3.014 15.669,3.8C16.329,4.209 16.201,5.71 16.043,6.996C15.592,10.256 14.817,9.818 14.515,10.583Z" style="fill:rgb(240,144,122);"/>
            </g>
        </g>
        <path d="M659.183,466.429C661.009,464.816 741.701,416.914 773.79,426.109C811.883,437.025 889.248,502.974 899.187,523.199C908.135,541.408 901.739,563.482 899.802,583.484C897.661,605.593 898.496,634.606 886.341,655.85C868.69,683.113 848.091,706.689 824.494,721.862C801.065,736.929 771.25,754.326 771.25,754.326C751.393,757.526 739.32,736.937 736.378,711.231C737.663,680.951 773.622,657.345 781.191,649.013C786.142,643.564 789.133,633.59 791.112,627.961C795.502,603.869 772.706,607.382 772.706,607.382C772.512,607.592 584.431,809.696 584.431,809.696L558.819,826.028C550.552,834.294 533.202,830.941 522.564,827.595C511.926,824.248 500.08,807.096 500.382,795.824C500.794,780.435 501.786,774.375 507.916,766.26C516.267,755.205 539.502,742.315 558.819,722.365C571.93,708.824 584.5,684.474 584.5,684.474C581.886,685.059 566.745,669.7 562.759,662.981C542.839,629.407 577.166,600.386 577.166,600.386C574.803,599.062 571.054,596.247 567.901,589.201C559.738,570.955 568.242,555.463 568.242,555.463C575.17,535.587 659.183,466.429 659.183,466.429Z" style="fill:none;stroke:rgb(71,71,71);stroke-width:10.6px;"/>
        <path d="M584.431,684.147L666.129,602.844" style="fill:none;stroke:rgb(71,71,71);stroke-width:11.92px;"/>
        <g transform="matrix(1,0,0,1,-11,-81.6298)">
            <path d="M587.391,682.183L657.129,611.844" style="fill:none;stroke:rgb(71,71,71);stroke-width:11.92px;"/>
        </g>
    </g>
    <defs>
        <linearGradient id="_Linear1" x1="0" y1="0" x2="1" y2="0.0194002" gradientUnits="userSpaceOnUse" gradientTransform="matrix(0.113957,-9.92081,9.92081,0.113957,4.42717,15.8508)"><stop offset="0" style="stop-color:black;stop-opacity:0.5"/><stop offset="1" style="stop-color:white;stop-opacity:0.5"/></linearGradient>
    </defs>
</svg>
