<?xml version="1.0" encoding="UTF-8" standalone="no"?>
<!DOCTYPE svg PUBLIC "-//W3C//DTD SVG 1.1//EN" "http://www.w3.org/Graphics/SVG/1.1/DTD/svg11.dtd">
<svg width="100%" height="100%" viewBox="0 0 32 32" version="1.1" xmlns="http://www.w3.org/2000/svg" xmlns:xlink="http://www.w3.org/1999/xlink" xml:space="preserve" xmlns:serif="http://www.serif.com/" style="fill-rule:evenodd;clip-rule:evenodd;stroke-linecap:round;">
    <g id="Layer-1" serif:id="Layer 1" transform="matrix(1,0,0,1,0,-1090.52)">
        <path id="path2017" d="M16,1096.02L16,1117.02" style="fill:none;fill-rule:nonzero;stroke:rgb(250,250,250);stroke-width:5px;"/>
        <path id="path2019" d="M26.5,1096.02L5.5,1096.02" style="fill:none;fill-rule:nonzero;stroke:rgb(250,250,250);stroke-width:5px;"/>
        <g id="path2046" transform="matrix(0.264583,0,0,0.264583,0,1090.52)">
            <path d="M20.787,11.324C20.782,11.324 20.778,11.324 20.773,11.324C15.589,11.324 11.324,15.589 11.324,20.773L11.324,20.795C11.324,25.978 15.589,30.244 20.773,30.244C20.778,30.244 20.782,30.244 20.787,30.244L51.031,30.244L51.031,100.157C51.023,105.338 55.277,109.609 60.458,109.621C60.46,109.621 60.463,109.621 60.465,109.621C65.649,109.621 69.914,105.356 69.914,100.172C69.914,100.167 69.914,100.162 69.914,100.157L69.914,30.244L100.165,30.244C100.167,30.244 100.17,30.244 100.172,30.244C105.356,30.244 109.621,25.978 109.621,20.795L109.621,20.773C109.621,15.589 105.356,11.324 100.172,11.324C100.17,11.324 100.167,11.324 100.165,11.324L20.787,11.324Z" style="fill:rgb(250,250,250);fill-rule:nonzero;"/>
        </g>
        <g id="path2055" transform="matrix(0.264583,0,0,0.264583,0,1090.52)">
            <path d="M12.114,17C11.592,18.195 11.323,19.484 11.324,20.787C11.324,20.79 11.324,20.792 11.324,20.795C11.324,25.978 15.589,30.244 20.773,30.244C20.778,30.244 20.782,30.244 20.787,30.244L51.031,30.244L51.031,22.685L20.787,22.685C17.029,22.687 13.611,20.448 12.114,17ZM108.831,17C107.335,20.445 103.921,22.685 100.165,22.685L69.914,22.685L69.914,30.244L100.165,30.244C100.167,30.244 100.17,30.244 100.172,30.244C105.356,30.244 109.621,25.978 109.621,20.795C109.621,20.792 109.621,20.79 109.621,20.787C109.622,19.484 109.353,18.195 108.831,17ZM51.031,92.598L51.031,100.157C51.023,105.338 55.277,109.609 60.458,109.621C60.46,109.621 60.463,109.621 60.465,109.621C65.649,109.621 69.914,105.356 69.914,100.172C69.914,100.167 69.914,100.162 69.914,100.157L69.914,92.598C69.914,92.603 69.914,92.608 69.914,92.613C69.914,97.797 65.649,102.062 60.465,102.062C60.463,102.062 60.46,102.062 60.458,102.062C55.277,102.05 51.023,97.779 51.031,92.598Z" style="fill:rgb(126,128,135);fill-rule:nonzero;"/>
        </g>
        <g id="path2049" transform="matrix(0.264583,0,0,0.264583,0,1090.52)">
            <path d="M20.787,11.324C20.782,11.324 20.778,11.324 20.773,11.324C15.589,11.324 11.324,15.589 11.324,20.773L11.324,20.795C11.324,25.978 15.589,30.244 20.773,30.244C20.778,30.244 20.782,30.244 20.787,30.244L51.031,30.244L51.031,100.157C51.023,105.338 55.277,109.609 60.458,109.621C60.46,109.621 60.463,109.621 60.465,109.621C65.649,109.621 69.914,105.356 69.914,100.172C69.914,100.167 69.914,100.162 69.914,100.157L69.914,30.244L100.165,30.244C100.167,30.244 100.17,30.244 100.172,30.244C105.356,30.244 109.621,25.978 109.621,20.795L109.621,20.773C109.621,15.589 105.356,11.324 100.172,11.324C100.17,11.324 100.167,11.324 100.165,11.324L20.787,11.324Z" style="fill:none;fill-rule:nonzero;stroke:black;stroke-width:3.78px;stroke-linejoin:round;"/>
        </g>
    </g>
</svg>
