<svg xmlns="http://www.w3.org/2000/svg" width="100%" height="100%" viewBox="0 0 22 22" fill-rule="evenodd" stroke-linecap="round" stroke-linejoin="round" stroke-miterlimit="1.5" xmlns:v="https://vecta.io/nano"><path d="M16.5 21v-2h-12c-1.24.011-2.505.379-2.5 1s1.26 1.012 2.5 1h12z" fill="url(#A)"/><path d="M9.159 3.853C9.251 3.771 12.384 1.034 14 1.5c.128.037.482.344.5.5.167 1.489 1.656 2.234 4 2.5 1.038.34 2.211 1.017 1.985 1.465L19.5 8.5l-3 4c-.668.749-3.02.592-3 0 .012-.372 1-2 1-2 .294.044-7.556 8.05-8 8h-2C2.944 18.575 3 18 3 18s.527-.489 1.5-1.5c.66-.686 3-5 3-5-2.036-.032-.689-2.148-.5-2.5-.522-.399-.694-.561-.5-1.5l2.659-3.647z" fill="#fff"/><g fill="#c6bed8"><path d="M8.5 9.5c.549-.549 1.252.091 1 .5-1.5 2.435-2.904 1.667-3 1.5s1.451-1.451 2-2zm10 0c-1.5-.5-.147-2.201 0-3 .097-.524-1.498-.629-4.5-1.5-.52-.397.196-1.689-.5-2-.776-.347-2.5 0-2.5 0s2.172-2.125 3.381-1.889c.294.123.533 1.124.989 1.841 1.38 1.107 1.796.184 5.13 2.588.88.549-.937 2.171-2 3.96zM8 6.665c.54-.436 1.253.187.5.835C7.453 8.401 7.744 8.591 7 9c-.535.294-.5-.5-.5-.5S6.153 8.157 8 6.665z"/><path d="M14.5 9.5c1.001-.609 3.5.5-.5 3.5-.829-1.208-1.03-1.096-1.5-.5-.014.018-1.5 1.5-4 3.5-1.277 1.021 3.873-5.207 6-6.5z"/></g><path d="M11.5 7.5l2-2m-3 1l2-2m-3 1l2-2" fill="none" stroke="#45204b"/><path d="M3.5 18.5c-.5-.5.657-1.935 1-2 1.098-1.842 2.525-2 4-2s3.678-2.309 3-1c-.075 1.388-4.959 4.875-6 5-.727.273-2.129.268-2 0z" fill="#ff7e7e"/><path d="M8.5 4.5c1.591-1.213 3.884-3.466 5.5-3 .469.135.873 1.606 1.5 2 .468.295 4.713 1.413 5 2 .134.275-1.858 4.286-2.5 5-1.716 1.907-2.97 2.47-4.5 2 .689-.915 1-2 1-2s-.668.593-1.5 1.5c-2.086 2.274-5.364 6.114-6.5 6.5-1.335.628-4.887.602-3-1 .534-.453 6.058-7.46 6-7.5-.05-.034-1.918 1.469-2 1.5-1.132.427-1.058-.771-1-1.5.003-.041 2-2 2-2L6.975 9c-.141.118-1.598-2.119 1.525-4.5z" fill="none" stroke="#45204b"/><defs><linearGradient id="A" x1=".596" y1="20.009" x2="16.826" y2="21.534" gradientUnits="userSpaceOnUse"><stop offset="0" stop-color="#ff7e7e"/><stop offset=".54" stop-color="#ff9b9b" stop-opacity=".78"/><stop offset="1" stop-color="#fff" stop-opacity="0"/></linearGradient></defs></svg>