<svg xmlns="http://www.w3.org/2000/svg" width="100%" height="100%" viewBox="0 0 22 22" fill-rule="evenodd" stroke-linecap="round" stroke-linejoin="round" xmlns:v="https://vecta.io/nano"><g fill-rule="nonzero"><path d="M18.633-5L12 1c-.882.882-1.464 2.254-1.507 3.5l.007 3 4 4.007h3c1.247-.043 2.118-.134 3-1.016L27 3.366l-2.324-2.343L18.653-5z" fill="#2084cb"/><path d="M23-.5l-3.403-1.919S16.213-.278 14.5 1.5c-1.623 1.684-2.006 2.462-2 5 .592.888 1.711 1.334 2 1l8.5-8z" fill="#46a3e2"/><path d="M24.246 6.1l-1.814-4.01L15 9c.288.796.673 1.704.5 2.5h2A5.05 5.05 0 0 0 21 10l3.246-3.879c.005-.005.005-.015 0-.021z" fill="#153257"/><path d="M20.5-1.838l-2.778-1.103S14.295-.792 12.583.985c-1.622 1.684-1.949 2.967-1.943 5.505.605-.193 1.924.182 1.924.182l7.936-8.51z" fill="#b8e6ff"/></g><path d="M18.5-5l-7 6.5c-.882.882-.964 1.754-1.007 3v3l4.007 4.007 3-.007c1.247-.043 2.618-.618 3.5-1.5l6-6.5L18.5-5z" fill="none" stroke="#0e141f"/><path d="M10.347 11.56c-1.012-1.012.088-5.038.153-5.06 1.009-.343 2.976-.024 4 1 1.055 1.055 1.4 2.988 1 4.007-.096.247-3.841 1.365-5.153.053z" fill="#0e141f"/><g fill-rule="nonzero"><path d="M13.5 8.5l-3-1-4 2-3 9 9-3c.707-2.148 2-3.993 2-3.993l-1-3.007z" fill="#f6f5f1"/><path d="M11.007 7.703S7.194 9.002 6.5 9.5l-4 10.146 2-2.146 3-7c.736-.385 4.441-1.989 4.5-2.5.353-.353-.993-.297-.993-.297z" fill="#cacaca"/><path d="M14.205 11.539c.426-.428.256-.849-.205-1.039-.527-.217-2.317 3.418-2.5 4l-7.5 3-.5 1 9-3 1.705-3.96v-.001z" fill="#9d9d9d"/></g><path d="M2.5,19.5L9,13.081" fill="none" stroke="#393939"/><path d="M10.561 11.439c.585.586.585 1.536 0 2.122s-1.536.585-2.122 0-.585-1.536 0-2.122 1.536-.585 2.122 0z" fill="#393939"/><path d="M13.5 8.5c-.998-1-3-1-3-1s-1.674 1.282-4 2c-.93 3.797-4 10-4 10s7.474-3.669 10-4c.863-2.712 2-3.993 2-3.993s-.002-2.007-1-3.007z" fill="none" stroke="#393939"/></svg>