<svg xmlns="http://www.w3.org/2000/svg" width="100%" height="100%" viewBox="0 0 22 22" fill-rule="evenodd" stroke-linecap="round" stroke-linejoin="round" xmlns:v="https://vecta.io/nano"><g fill-rule="nonzero"><path d="M10.361 10.417c.397.546.706 1.158.887 1.83.225.827.842 2.052-4.612 6.206 0 0-4.111 2.047-3.636 2.047.075 0 4.867-.814 4.867-.814 1.764-.465 4.382-1.956 4.713-3.727a5.53 5.53 0 0 0-.101-2.48c-.34-1.254-1.101-2.317-2.118-3.062z" fill="#c89a43"/><path d="M11.592 11.649c-.742-1.018-4.687-2.4-5.092-2.327-1.767.332-3.534 2.414-4 4.178l-1 5.5c-.019.074 2.056-3.624 2.056-3.624 3.417-4.716 5.382-4.841 6.208-4.612.669.177 1.283.487 1.828.885z" fill="#fffd8d"/><path d="M5.5 13c1.217-1.327 2.5-3 4.5-2.489L11.499 12c-.044.66-1.247 3.812-2.499 4.5-.04 1.345-6.035 3.803-6 2.5 0 0-3 0 2.5-6z" fill="#ffd513"/></g><g fill="none" stroke="#735622"><path d="M1.5 20.5c0-2.93 1-6 1-6s1.484-4.59 3-5c.934-.252 2.071-.232 3.039.032.958.259 1.812.762 2.492 1.44l.007.007c.678.68 1.18 1.533 1.441 2.489l-.001.003a5.54 5.54 0 0 1 .006 2.903C12.075 17.89 7.5 19.5 7.5 19.5s-2.845 1-6 1z"/><path d="M1.5 20.5c.013-.048.881-2.344 1.247-3.204C5 12 8.865 10.563 9.525 10.519c0 0 1.165.117 1.506.453"/><path d="M11.031 10.972l.006.007c.336.34.498.853.455 1.503l-.001.003c-.044.66-1.491 4.515-6.778 6.777L1.5 20.5"/><path d="M1.5 20.5l9.537-9.521" stroke-miterlimit="1.5"/></g><path d="M25.754 1.01a.84.84 0 0 0 0-1.186l-3.575-3.576a.84.84 0 0 0-1.186 0L11.9 5.342a.84.84 0 0 0-.001 1.186l3.576 3.575a.84.84 0 0 0 1.186 0l9.093-9.093z" fill="#db6241" fill-opacity=".99"/><g fill-rule="nonzero"><path d="M24 1l-7 6.5c.322-.251-2.618-3.264-3.172-2.904L13.5 5.5S17.074 9.447 17 10l7-6.5c.378-.376 0-2.5 0-2.5z" fill="#862f19"/><path d="M21-1.5c.378-.376-1.19-.842-1.379-.658L12.5 4.5c-.378.384 1 1 1 1s7.417-7.405 7.5-7z" fill="#f6d7cf"/></g><path d="M26 1.119c.328-.328-4.68-5.199-5.007-4.871L11.5 5.5c-.328.328 4.673 5.346 5 5.019l9.5-9.4z" fill="none" stroke="#433737" stroke-opacity=".98"/><g fill-rule="nonzero"><path d="M16.428 10.336c1.125-1.565-3.556-6.454-4.762-4.76L8.455 9.184c1.018-1.248 5.328 2.854 4.36 4.362.23.015 3.613-3.21 3.613-3.21z" fill="#a3a4a7"/><path d="M16.157 8.226c-.355-.603-.278.895-.657 1.274l-3 3c.136.459.824 1.222 1 1.046l3.101-3.012c.379-.379.103-1.381-.444-2.308z" fill="#7e8087"/></g><path d="M10.5 9.5L14 6l2 2.5s-1.101-.738-1.5-.5c-.755.449-3.015 2.534-3.015 2.534L10.5 9.5z"/><path d="M13 5.5C12.754 5.509 9.5 9 9.5 9c-.176.176.542.864 1 1l3-2.5c.379-.38 1.696-.265 2 0-.493-.568-2.09-2.014-2.5-2z" fill="#d4d4d4" fill-rule="nonzero"/><path d="M14 6c-.926-.546-2.121-.876-2.5-.5l-3 3c-.176.177-.058.271-.045.5.373-.236 1.303.116 2.045.5a5.04 5.04 0 0 1 2 2c.384.738.741 1.677.5 2.046.23.015.324.177.5 0l3-3.027c.38-.377.047-1.589-.5-2.519-.547-.922-2-2-2-2z" fill="none" stroke="#555761" stroke-opacity=".98"/></svg>