<svg xmlns="http://www.w3.org/2000/svg" width="100%" height="100%" viewBox="0 0 22 22" fill-rule="evenodd" stroke-linecap="round" xmlns:v="https://vecta.io/nano"><g fill-rule="nonzero"><path d="M5 2.498c-1 0-1.502 1.079-1.5 2.002v13h3l9-9v9c0 .923.577 2 1.5 2s1.502-1.077 1.5-2V5h-3l-9 7.5v-8c0-.923-.5-2.002-1.5-2.002z" fill="#f9c440"/><path d="M16 7l-9.5 9c-.017.016 0 1.5 0 1.5L16 9V7zm2 1.5c0 7.5-1 9.5-2.5 9 0 .923.577 2 1.5 2s1.501-1.077 1.5-2c0 0-.018-9.104-.5-9z" fill="#d48e15"/><path d="M5.064 2.498c-1.064 0-1.682.762-1.68 1.685L4 13.5C4 5 5 4 6.5 4.5c.779.26-.5-2.002-1.436-2.002zM15.5 5.5c.298-.298-.202-1.798-.5-1.5l-9 8.5v2l9.5-9z" fill="#ffe16b"/></g><path d="M5 2.498c-1.064 0-1.502.579-1.5 1.502v12.5c0 .003 2.983 1.016 3 1l9-8.5v9c0 .923.5 1.5 1.5 1.5s1.502-.577 1.5-1.5V5.5c.014-.353-3.202-1.798-3.5-1.5l-8.5 8.5V4c0-.923-.577-1.502-1.5-1.502z" fill="none" stroke="#ad5f00"/><circle cx="16.996" cy="4.998" r="2.5" fill="#e3e3e3"/><path d="M16.5 7.5c-.777-.424-2.626-2.592-1.5-4 2-2.5 4.072.223 4.496 1-.355-.194-1.966-1.03-2.996 0-.988.988-.194 2.645 0 3z" fill="#fff"/><path d="M17.5 2.467c.777.424 2.768 2.592 1.642 4-2 2.5-4.218-.19-4.642-.967.355.194 1.97 1.03 3 0 .988-.988.194-2.678 0-3.033z" fill="#3c3c3c"/><circle cx="17" cy="4.998" r="2.5" fill="none" stroke="#555761" stroke-linejoin="round"/><circle cx="5" cy="17" r="2.5" fill="#e3e3e3"/><path d="M4.527 19.5c-.776-.424-2.626-2.592-1.5-4 2-2.5 4.073.223 4.497 1-.355-.194-1.967-1.03-2.997 0-.987.988-.194 2.645 0 3z" fill="#fff"/><path d="M5.5 14.467c.777.424 2.796 2.592 1.669 4-2 2.5-4.241-.19-4.665-.967.355.194 1.966 1.03 2.996 0 .988-.988.194-2.678 0-3.033z" fill="#3c3c3c"/><circle cx="5.004" cy="17" r="2.5" fill="none" stroke="#555761" stroke-linejoin="round"/></svg>