<svg xmlns="http://www.w3.org/2000/svg" width="100%" height="100%" viewBox="0 0 22 22" fill-rule="evenodd" xmlns:v="https://vecta.io/nano"><style><![CDATA[.B{stroke:#910e38}.C{fill-rule:nonzero}.D{stroke-linejoin:round}]]></style><g class="C"><path d="M12.5 4.5l-6 6c-.843.838-1.109 1.376-1.5 2.5l-.583 2.421c-.284.819 1.266 2.365 2.083 2.079h2c1.127-.39 2.157-1.155 3-2l6-6-5-5z" fill="url(#A)"/><path d="M15 6.5l-6 6c-.843.845-1.873 2.11-3 2.5l2 1.5c1.127-.39 2.156-1.155 3-2L16.5 9 15 6.5z" fill="#124f91" fill-opacity=".3"/><path d="M7.874 14.946c-1.192 0-2.372.15-3.464.494a5.69 5.69 0 0 1-1.353 2.151l-1.036 1.04a.76.76 0 0 0-.226.539c0 .208.081.403.226.546l.44.442c.299.299.79.299 1.089 0l1.036-1.033a5.69 5.69 0 0 1 2.171-1.365l1.727-.598c1.097-.383 2.097-1 2.928-1.813-1.129-.24-2.333-.396-3.538-.403z" fill="url(#B)"/><path d="M10.5 16.5c.327-.234.713-.721 1-1-1.129-.24-2.421-.547-3.626-.554-1.192 0-2.372.15-3.464.494a5.69 5.69 0 0 1-1.353 2.151l-1.036 1.04c-.145.143-.148.354-.226.539-.235.553.84 1.302 1.205.83l.5-1.5c.606-.604 2.429-1.993 5-2 .644-.002 1.368-.078 2 0" fill="#f980aa"/><path d="M11.5 15.5c-1.129-.24-2.421-.547-3.626-.554-1.192 0-2.282.21-3.374.554" fill-opacity="0" class="B"/></g><path d="M13.5 8.5c2.057 2.057 4.165 3.392 4.5 3.056S16.557 9.557 14.5 7.5s-3.665-3.335-4-3 .943 1.943 3 4z" fill="#660a2f"/><path d="M10.447 4c-.336.338 1.099 2.519 3.157 4.572 2.058 2.06 4.061 3.266 4.396 2.928" fill="none" stroke-linecap="round" class="B D"/><g class="C"><path d="M11.412 5.5c-.873.61-5.912 6-5.912 6-1.215 1.101-.836 3.072 0 2.5.717-.49 7.221-7.674 7.5-8s-1.075-.859-1.588-.5z" fill="#f3fafe" fill-opacity=".87"/><path d="M24.324 2.744c.848-.845-3.899-5.595-4.748-4.744L13 4l5 5 6.324-6.256z" fill="#de3f81"/><path d="M23.5 3.402c.848-.845-.345-1.576-1.194-.731L19 6l1 1 3.5-3.598z" fill="#bc245d"/><path d="M20-.5c.849-.851-.431-1.636-1.055-1.012L15 2.5l1 1 4-4z" fill="#ec5993"/></g><g fill="none" class="D"><path d="M24.89 2c.848-.845-3.9-5.595-4.749-4.744L13.5 4 18 9l6.89-7z" stroke-miterlimit="2" class="B"/><path d="M12.5 4.5l-6 6c-.843.838-1.609 1.876-2 3v2c-.284.819-.889 1.389-1.5 2l-1 1c-.299.299-.583.954 0 1.5.565.572 1.201.299 1.5 0l1-1c.611-.617 1.183-1.214 2-1.5h2c1.127-.39 2.157-1.155 3-2l6-6-5-5z" stroke="#15405e"/></g><path d="M2.112 19.112c.174-.174.489-.141.703.073s.247.529.073.703-.489.142-.703-.073-.247-.529-.073-.703z" fill="#660a2f"/><g class="C"><path d="M15.5 2.5c-1.361-1.118-2.755-1.247-3-1l-2 2c-.247.247-.056.674 0 .947.301-.111.888.176 2 1.053 1.361 1.118 2.882 2.642 4 4 .878 1.111 1.11 1.701 1 2 .274.058.752.303 1 .056L20 10l.5-.5c.244-.24.117-1.642-1-3a30.79 30.79 0 0 0-4-4z" fill="#de3f81"/><path d="M11 3l-.5.5c-.248.247-.085.726-.03 1 .301-.11.918.121 2.03 1a31.04 31.04 0 0 1 4 4c.877 1.112 1.11 1.807 1 2.108.274.056.753.14 1-.108l2-2c.132-.133.313-.465 0-1H20L18.5 10c-.5 0-.623-.888-1.5-2a31.04 31.04 0 0 0-4-4c-.656-.518-1.589-.809-2-1z" fill="#bc245d"/><path d="M12.885 1.39c-.079 0-.825.706-.825.706l-1.292 1.291c-.247.247-.337.571-.282.845.121-.043.647.138.926.268L13 3s.638-.118 2 1a39.27 39.27 0 0 1 4.5 4.5c.493.6.698.813.953 1.248l.277-.277c.242-.245-.113-1.61-1.23-2.971s-2.638-2.882-4-4c-1.129-.927-2.211-1.104-2.615-1.11z" fill="#ec5993"/></g><path d="M15.5 2.5c-1.361-1.118-2.755-1.247-3-1l-2 2c-.247.247-.085.727-.03 1 .301-.11.918.123 2.03 1 1.361 1.118 2.882 2.642 4 4 .878 1.111 1.11 1.701 1 2 .274.058.752.247 1 0l2-2c.244-.24.117-1.642-1-3a30.79 30.79 0 0 0-4-4z" fill="none" class="B D"/><defs><linearGradient id="A" x1="-.087" y1="3.809" x2="13.819" y2="17.663" gradientUnits="userSpaceOnUse"><stop offset="0" stop-color="#ade0fe"/><stop offset="1" stop-color="#8cd5ff"/></linearGradient><linearGradient id="B" x1="3.843" y1="16.675" x2="12.8" y2="22.094" gradientUnits="userSpaceOnUse"><stop offset="0" stop-color="#f4679d"/><stop offset="1" stop-color="#de3e80"/></linearGradient></defs></svg>