<svg xmlns="http://www.w3.org/2000/svg" width="100%" height="100%" viewBox="0 0 22 22" fill-rule="evenodd" stroke-linecap="round" stroke-linejoin="round" stroke-miterlimit="1.5" xmlns:v="https://vecta.io/nano"><g fill-rule="nonzero"><path d="M4.592 5.846L7.5 13.5c-1.521.252-1-1.5-4-1-1.56.26-1.5 1.5-1 2 2.458.793 2.363.401 4.632 3.455C10.58 22.594 18.65 21.158 17.5 13.5a185.64 185.64 0 0 1 2.5-7c.588-1.469-1.869-2.5-2.5-1-1.061 2.522-2.5 4.98-2.5 4.98h-1.5s.11-5.448 0-6.98c-.189-2.629-3-2.631-3 0 .106 1.537 0 6.5 0 6.5l-.5 1.5L7 5c-.613-1.456-2.903-.608-2.408.846z" fill="#c6bed8"/><path d="M8.336 14c.049.222.096.51-.054.68C8 15 7.328 15 7 15c-1 0-2.5-1-2.5-.5 1.887 1.796 5.662 6.15 9.549 4.063a3.7 3.7 0 0 0 1.245-1.063c.404-.559.7-1.208.879-1.875.228-.852.327-1.743.327-2.625.979-2.888 1-3 1-3.5 0-1.5-.737-2.435-1.327-.834-.663 1.797.129 1.252-1.173 2.834-.679.826-2-.5-2-1.5 0-3-.739-3.573-1-4-.5-.819-.905-.319-1 0-.223.75-.339 2.5-.339 4.5 0 1.01-1.072 1.855-1.532 1.006C7.5 8.5 7.5 8.5 7 8c-.779-.779-1.194-.579-1 0 .452 1.35-.048.686.5 2 .565 1.354 1.216 2.671 1.836 4z" fill="#fff" fill-opacity=".99"/></g><g fill="none" stroke="#000"><path d="M10.5 17.5V15m4 2.5V15m-2 2.5V15"/><path d="M4.592 5.846C5.19 7.608 7.682 12.391 7.5 13.5s-1-1.5-4-1c-1.56.26-1.5 1.5-1 2 2.458.793 2.258.481 4.632 3.455C10.58 22.272 19 21.292 17.5 13.5c-.468-2.433 1.549-4.485 2.5-7 .588-1.469-1.869-2.5-2.5-1-1.061 2.522-2.833 5.833-3.5 5.5s-.5-5.964-.5-7.5c0-2.5-3-2.5-3 0 0 1.5.583 7.25 0 7.5S7.696 6.652 7 5c-.613-1.456-2.903-.608-2.408.846z" stroke-miterlimit="4"/></g></svg>