<svg xmlns="http://www.w3.org/2000/svg" width="100%" height="100%" viewBox="0 0 22 22" fill-rule="evenodd" stroke-linecap="round" xmlns:v="https://vecta.io/nano"><path d="M7.91 12.302l-.186.588c-.411.231-1.477-.273-2.383-.525-1.19-.331-1.585-.713-2.249.708-.358 1.176 1.571 1.275 3.808 4.318.738 1.184 1.301 1.498 2.1 2.109 1.295.991 3.036.128 4.556-.994.998-.738 2.401 1.697 2.944 1.065 1.972-1.305-.324-5.842 1-9.071.342-2.433 1.824-5.158 1.5-6-.5-1-2.22-.614-2.728.465-.269.571-1.729 5.632-1.913 5.607-.509-1.556-.301-7.834-.575-8.54-.435-.187-2.39-1.472-2.811 1.476-.026.183-.112 6.847-.188 6.853S9.01 4.492 8.994 4.32c-.191-1.986-2.826-1.781-2.764.468.02.706 1.659 5.777 1.68 7.514z" fill="#c6bed8" fill-rule="nonzero"/><path d="M14 17.5c-1 0-2 .5-4 2.5h6.5s.413-.174 0-1c-.5-1-2.208-1.5-2.5-1.5z" fill="#45204b"/><path d="M7.5 4c-.343.687 2.788 8.212 1 10-.598.598-2.53-1.73-3.5-2-1.188-.581-1.185-.205-1.606.482-.359 1.175.903-.501 3.14 2.541C7.879 17.18 9.336 17.274 10.5 17.5s1.748-.422 2.538-.945c.778-.479 2.163-.204 2.462-.055.478-.059.774-1.338.774-4.5-.277-1.525 2.134-7.786 2.162-8.13-2.262-.885-3.015 4.408-3.523 5.487-.269.572-.232 1.461-.732 1.513-1.775.189-.238-8.992-1.178-9.124C11.396 1.306 12 3 12 5s0 6-1 6c-1.149.366-1.983-6.827-2-7 0 0-1-1-1.5 0z" fill="#fff" fill-rule="nonzero"/><g fill="none" stroke="#45204b"><path d="M9.5 11.5c.034.196 1 3 1 3m2-3v3m3-3l-1.059 2.919"/><path d="M6.5 5c0 .81 2.211 8.061 1.183 8.231C6.36 13.451 7 12 4.5 11.587c-.636-.105-1.178-.145-1.5.913-.358 1.176.763.457 3 3.5 1.353 2.17 2.829 3.5 4.5 3.5.93 0 2.233-.728 3.016-1.072.926-.406.667 1.072 2.984 1.072 1.767-2.666.75-7.473 1-8.5L19 5c.128-1.641-1.977-2.083-2.5 0-.154.613-1.62 5.808-2 5.5s-.229-7.153-.502-7.859c-.568-1.469-2.381-1.413-2.802.078-.05.178-.355 7.587-.355 7.587L9.062 4.32C8.647 2.857 6.008 3.329 6.5 5z" stroke-linejoin="round"/></g></svg>