<svg xmlns="http://www.w3.org/2000/svg" width="100%" height="100%" viewBox="0 0 22 22" fill-rule="evenodd" stroke-linecap="round" stroke-linejoin="round" xmlns:v="https://vecta.io/nano"><path d="M21.611 8.311a2.02 2.02 0 0 0 0-2.856L15.545-.611a2.02 2.02 0 0 0-2.856 0L1.569 10.637l-.071 2.248 7.937 7.852L21.611 8.311z" fill="#bebebe"/><path d="M22.047 5.89a2.02 2.02 0 0 0 0-2.857L16.975-2.04c-.789-.788-2.069-.788-2.857 0L1.498 10.5 9.5 18 22.047 5.89z" fill="#ececec"/><g fill-rule="nonzero"><path d="M15 15l-1-1.5L9.5 18v2.5L15 15z" fill="#7e8087"/><path d="M26.422 3.5c.791-.791-8.131-9.713-8.922-8.922L7.5 4.5l7 9v2l11.922-12z" fill="#d63978"/><path d="M24.407 5.515c.791-.791-.116-2.806-.907-2.015l-9 9.5.492 2.144 9.415-9.629z" fill="#bc245d"/></g><g fill="none"><path d="M14.5 15.5L26.603 3.319c.791-.791-8.131-9.713-8.922-8.922L7.625 4.453" stroke="#910e38"/><path d="M7.542 4.5l-6.042 6-.002 2.5L9.5 20.5l5-5v-2l-6.958-9z" stroke="#555761"/></g></svg>