<svg xmlns="http://www.w3.org/2000/svg" xml:space="preserve" style="fill-rule:evenodd;clip-rule:evenodd;stroke-linecap:round;stroke-linejoin:round" viewBox="0 0 22 22"><path d="M10.36 10.42c.4.54.7 1.15.89 1.83.22.82.84 2.05-4.61 6.2 0 0-4.12 2.05-3.64 2.05.08 0 4.87-.81 4.87-.81 1.76-.47 4.38-1.96 4.71-3.73a5.53 5.53 0 0 0-2.22-5.54Z" style="fill:#c89a43;fill-rule:nonzero"/><path d="M11.6 11.65c-.75-1.02-4.7-2.4-5.1-2.33-1.77.33-3.53 2.42-4 4.18l-1 5.5c-.02.07 2.06-3.62 2.06-3.62 3.41-4.72 5.38-4.85 6.2-4.62.67.18 1.29.5 1.83.89Z" style="fill:#fffd8d;fill-rule:nonzero"/><path d="M5.5 13c1.22-1.33 2.5-3 4.5-2.49L11.5 12c-.04.66-1.25 3.81-2.5 4.5-.04 1.34-6.04 3.8-6 2.5 0 0-3 0 2.5-6Z" style="fill:#ffd513;fill-rule:nonzero"/><path d="M1.5 20.5c0-2.93 1-6 1-6s1.48-4.59 3-5a6.07 6.07 0 0 1 3.04.03 5.6 5.6 0 0 1 2.5 1.44h0a5.62 5.62 0 0 1 1.44 2.5h0c.26.97.26 1.97 0 2.9-.4 1.52-4.98 3.13-4.98 3.13s-2.84 1-6 1Z" style="fill:none;fill-rule:nonzero;stroke:#735622;stroke-width:1px"/><path d="M2 19c.01-.05.38-.84.75-1.7C5 12 8.87 10.56 9.53 10.52c0 0 1.16.12 1.5.45M11.03 10.97h0c.34.35.5.86.46 1.51h0c-.04.66-1.49 4.52-6.78 6.78 0 0-1.91.72-1.91.74" style="fill:none;stroke:#735622;stroke-width:1px"/><path d="m2 20 9.04-9.02" style="fill:none;stroke:#735622;stroke-width:1px;stroke-miterlimit:1.5"/><path d="M25.75 1.01a.84.84 0 0 0 0-1.19l-3.57-3.57a.84.84 0 0 0-1.19 0l-9.09 9.1a.84.84 0 0 0 0 1.18l3.57 3.57c.33.33.86.33 1.2 0l9.08-9.09Z" style="fill:#db6241;fill-opacity:.99"/><path d="M24 1s-4.2 3.92-7 6.5c.32-.25-2.62-3.26-3.17-2.9l-.33.9S17.07 9.45 17 10l7-6.5c.38-.38 0-2.5 0-2.5Z" style="fill:#862f19;fill-rule:nonzero"/><path d="M21-1.5c.38-.38-1.19-.84-1.38-.66L12.5 4.5c-.38.38 1 1 1 1s7.42-7.4 7.5-7Z" style="fill:#f6d7cf;fill-rule:nonzero"/><path d="M26 1.12c.33-.33-4.68-5.2-5-4.87L11.5 5.5c-.33.33 4.67 5.35 5 5.02l9.5-9.4Z" style="fill:none;stroke:#433737;stroke-opacity:.98;stroke-width:1px"/><path d="M16.43 10.34c1.12-1.57-3.56-6.46-4.76-4.76 0 0-3.23 3.38-3.21 3.6 1.01-1.24 5.32 2.86 4.35 4.37.23.01 3.62-3.21 3.62-3.21Z" style="fill:#a3a4a7;fill-rule:nonzero"/><path d="M16.16 8.23c-.36-.6-.28.9-.66 1.27l-3 3c.14.46.82 1.22 1 1.05l3.1-3.02c.38-.38.1-1.38-.44-2.3Z" style="fill:#7e8087;fill-rule:nonzero"/><path d="M10.5 9.5 14 6l2 2.5s-1.1-.74-1.5-.5c-.76.45-3.02 2.53-3.02 2.53L10.5 9.5Z"/><path d="M13 5.5C12.75 5.5 9.5 9 9.5 9c-.18.18.54.86 1 1l3-2.5c.38-.38 1.7-.26 2 0-.5-.57-2.09-2.01-2.5-2Z" style="fill:#d4d4d4;fill-rule:nonzero"/><path d="M14 6c-.93-.55-2.12-.88-2.5-.5l-3 3c-.18.18-.06.27-.04.5.37-.24 1.3.12 2.04.5a5.04 5.04 0 0 1 2 2c.38.74.74 1.68.5 2.05.23.01.32.17.5 0l3-3.03c.38-.38.05-1.59-.5-2.52-.55-.92-2-2-2-2Z" style="fill:none;fill-rule:nonzero;stroke:#555761;stroke-opacity:.98;stroke-width:1px"/></svg>