<svg xmlns="http://www.w3.org/2000/svg" width="100%" height="100%" viewBox="0 0 22 22" fill-rule="evenodd" stroke-linecap="round" stroke-linejoin="round" stroke-miterlimit="1.5" xmlns:v="https://vecta.io/nano"><g transform="matrix(.846154 0 0 .916659 -135.9487 0)"><path d="M41 65h20v13H41z" fill="#fff" transform="matrix(.639845 .590631 -.636364 .587417 185.943 -59.5772)"/><path d="M38 1.999h13V14H38z" fill="none" stroke="#494949" stroke-width=".97" transform="matrix(1 .923084 -.689327 .636307 134.09 -33.6218)"/><g fill="#494949"><path d="M51 63h1v4.5h-1z" transform="matrix(.94687 .874041 -1.07657 .993764 200.999 -103.257)"/><circle cx="52.5" cy="62.5" r="2.5" transform="matrix(1.18182 0 0 1.09092 119.303 -63.2732)"/></g><circle cx="52.5" cy="62.5" r="2.5" fill="#fff" transform="matrix(.709091 0 0 .654551 144.121 -36.0003)"/><path d="M112 68c2.871-.055 4.025 1.161 4 4h1.5l-2 3-2-3h1.5c.022-2.338-.593-3.09-3-3v1.5l-3.026-1.961L112 66.5V68z" fill="#404040" transform="matrix(1.18182 0 0 1.09092 38.9394 -64.3643)"/></g></svg>