<svg xmlns="http://www.w3.org/2000/svg" viewBox="0 0 22 22" fill-rule="evenodd" stroke-linecap="round" stroke-linejoin="round" stroke-miterlimit="1.5" xmlns:v="https://vecta.io/nano"><path d="M6.5 8.5c-.47-4.54 3.5-6.7 5.55-6.88C19 1 21.77 8.74 18.5 12.5c-1.29 1.48-3.27 3.35-4.64 5-.47.58-1.45-.04-1.61-.5a9 9 0 0 1 .75-3.5s-4.02 4.58-5.48 6c-2.26 2.2-4.15.02-2.8-1.44 2.88-3.13 5.06-5 6.28-7.06l-3.48 3.5c-1.07.5-2.44-.8-1.52-2l3-3-2.23 2.23c-.26-.2-1.81-1.69-.27-3.23.13-.13 1.93-1.87 2-2l-2 2z" fill="#c6bed8"/><path d="M6.5 8.34c1-4.84 1.86-5.07 6.13-5.07 4.87 0 8 7.96 1.87 10.73 2-1 2.13-5.1-.55-2.95 0 0-6.59 7.5-7.86 8.45-.51.38-2.91.4-1.72-.83.8-.84 3.13-3.52 3.13-3.52-3.13-1.65-1.12-2.72-.88-3.15-.64-.49-1.12-2.66-.12-3.66Z" fill="#fff"/><path d="M13.35 2.35a.5.5 0 0 0-.7-.7L10.9 3.4a.5.5 0 0 0 .7.7l1.75-1.75zm2.45.55a.5.5 0 0 0-.7-.7l-2.2 2.2a.5.5 0 0 0 .7.7l2.2-2.2zm1.74 1.26a.5.5 0 0 0-.7-.7L14.7 5.59a.5.5 0 0 0 .71.7l2.13-2.13z"/><path d="M6.5 8.5c-.47-4.54 3.46-6.82 5.5-7 6.95-.62 9 7 6.5 11-.94 1.5-3.73 3.27-4.4 4.5-.64 1.17-3.19.8-1.6-2.75 0 0 0-.25.5-.75l-6 6.44c-1.5 1.56-3.63-.42-2.28-1.88C7.6 14.93 11 11 11 11l-3.26 3.72c-1.07.5-2.66-1.02-1.74-2.22l3-3-2.23 2.23c-.72.25-2.28-1.22-.27-3.23.13-.13 1.93-1.87 2-2l-2 2z" fill="none" stroke="#000"/><path d="M11 15s2.75-3.57 3.5-4c.52-.28 1.5 1 1 1.5-.6.6-2.43 2.34-3.5 3-.37.23-1-.5-1-.5Z"/></svg>