<svg xmlns="http://www.w3.org/2000/svg" width="100%" height="100%" viewBox="0 0 22 22" fill-rule="evenodd" stroke-linecap="round" stroke-linejoin="round" stroke-miterlimit="1.5" xmlns:v="https://vecta.io/nano"><style><![CDATA[.B{stroke:#494949}.C{stroke-width:1.134}.D{stroke-width:3.12}]]></style><g transform="matrix(.846154 0 0 .916659 -135.949 0)"><path d="M41 65h20v13H41z" fill="#fff" transform="matrix(.886364 0 0 1.09092 128.462 -66.0005)"/><g fill="none" class="B"><path d="M38 1.999h13V14H38z" stroke-width=".89" transform="matrix(1.36364 0 0 1.18171 112.985 2.54707)"/><path d="M162.439 2.727h4.727v4.364h-4.727z" class="C"/></g><path d="M162.439 2.727h4.727v4.364h-4.727z" fill="#fff"/><g fill="none" class="B"><path d="M38 1.999h13V14H38z" transform="matrix(.363636 0 0 .363604 148.621 2.00051)" class="D"/><path d="M162.439 16.909h4.727v4.364h-4.727z" class="C"/></g><path d="M162.439 16.909h4.727v4.364h-4.727z" fill="#fff"/><g fill="none" class="B"><path d="M38 1.999h13V14H38z" transform="matrix(.363636 0 0 .363604 148.621 16.1824)" class="D"/><path d="M180.166 16.909h4.727v4.364h-4.727z" class="C"/></g><path d="M180.166 16.909h4.727v4.364h-4.727z" fill="#fff"/><g fill="none" class="B"><path d="M38 1.999h13V14H38z" transform="matrix(.363636 0 0 .363604 166.348 16.1824)" class="D"/><path d="M180.166 2.727h4.727v4.364h-4.727z" class="C"/></g><path d="M180.166 2.727h4.727v4.364h-4.727z" fill="#fff"/><path d="M38 1.999h13V14H38z" fill="none" transform="matrix(.363636 0 0 .363604 166.348 2.00051)" class="B D"/><path d="M80.5 70l-2-2-1.5 1v-3h3l-1 1.5 2 2 2-2.5-1-1h3v3l-1.5-1-2 2 2 2 1.5-1v3h-3l1-1.5-2-2-2 2 1 1.5h-3v-3l1.5 1 2-2z" fill="#404040" transform="matrix(1.18182 0 0 1.09092 77.9394 -64.3643)"/></g></svg>