<svg xmlns="http://www.w3.org/2000/svg" width="100%" height="100%" viewBox="0 0 22 22" fill-rule="evenodd" stroke-linecap="round" stroke-linejoin="round" xmlns:v="https://vecta.io/nano"><path d="M28 3l-9.138-9.5L4.5 8.5l9 9L28 3z" fill="#f9c241"/><g fill-rule="nonzero"><path d="M26.5 1l-13 13.5v3L28 3l-1.5-2z" fill="#d48e15"/><path d="M18.862-6.499L4.5 8.5l2.82.219 13.381-13.38-1.839-1.838z" fill="#ffe16b"/></g><path d="M28 2.5L19-6 4.5 8.5l9 9L28 2.5z" fill="none" stroke="#ad5f00"/><g fill-rule="nonzero"><path d="M8.5 7.612l-4 .888L3 19l10.5-1.5 1-4-6-5.888z" fill="#a28f7c" fill-opacity=".99"/><path d="M8.5 7.5l-4 1-1 6h2l3-7z" fill="#b8a99a"/><path d="M14.5 13.5l-7 3v2l6-1 1-4z" fill="#57392d"/></g><g fill="none"><path d="M14.5 13.5L26.5 1m-18 6.612L20.701-4.661" stroke="#ad5f00" stroke-linecap="butt" stroke-linejoin="miter"/><path d="M4.5 8.5l-2 11m0 0l11-2" stroke="#000"/><path d="M13.5 17.5l1-4-6-6-4 1" stroke="#3d211b"/></g><g fill-rule="nonzero"><path d="M7.5 18.5v-2l-2-2c-.832-.268-2 0-2 0L3 19l4.5-.5z"/><path d="M5.5 14.5h-2S3.01 17.497 3 19l2.5-4.5z" fill="#fafafa"/></g><path d="M5.5 14.5h-2l-1 5 5-1v-2l-2-2z" fill="none" stroke="#000"/></svg>