<svg xmlns="http://www.w3.org/2000/svg" xml:space="preserve" style="fill-rule:evenodd;clip-rule:evenodd;stroke-linecap:round;stroke-linejoin:round;stroke-miterlimit:1.5" viewBox="0 0 22 22"><path d="M16.5 21v-2h-12c-1.2 0-2.5.4-2.5 1s1.3 1 2.5 1h12Z" style="fill:url(#a)"/><path d="M9.2 3.9c0-.1 3.2-2.9 4.8-2.4.1 0 .5.3.5.5.2 1.5 1.7 2.2 4 2.5 1 .3 2.2 1 2 1.5l-1 2.5-3 4c-.7.7-3 .6-3 0 0-.4 1-2 1-2 .3 0-7.6 8-8 8h-2C2.9 18.5 3 18 3 18l1.5-1.5c.7-.7 3-5 3-5-2 0-.7-2.1-.5-2.5-.5-.4-.7-.6-.5-1.5l2.7-3.6Z" style="fill:#fff"/><path d="M8.5 9.5c.5-.5 1.3 0 1 .5-1.5 2.4-2.9 1.7-3 1.5-.1-.2 1.5-1.5 2-2Zm10 0c-1.5-.5-.1-2.2 0-3C18.6 6 17 5.9 14 5c-.5-.4.2-1.7-.5-2-.8-.3-3 0-3 0s1.3-1.7 2.5-1.5c.3.1 2 .7 2.4 1.5 1.3 1 1.8.1 5.1 2.5.9.6-1 2.2-2 4ZM8 6.7c.5-.5 1.3.2.5.8-1 .9-.8 1-1.5 1.5-.5.3-.5-.5-.5-.5S6.2 8.2 8 6.7ZM14.5 9.5c1-.6 3.5.5-.5 3.5-.8-1.2-1-1.1-1.5-.5 0 0-1.5 1.5-4 3.5-1.3 1 3.9-5.2 6-6.5Z" style="fill:#c6bed8"/><path d="m11.5 7.5 2-2m-3 1 2-2m-3 1 2-2" style="fill:none;stroke:#45204b;stroke-width:1px"/><path d="M3.5 18.5c-.5-.5.7-2 1-2 1.1-1.8 2.5-2 4-2s3.7-2.3 3-1c0 1.4-5 4.9-6 5-.7.3-2.1.3-2 0Z" style="fill:#ff7e7e"/><path d="M8.5 4.5C12 1 14 1.5 14 1.5s.9 1.6 1.5 2c.5.3 4.7 1.4 5 2 .1.3-1.9 4.3-2.5 5-1.7 2-3 2.5-4.5 2 .7-1 1-2 1-2L13 12c-2 2.3-5.4 6.1-6.5 6.5-1.3.6-4.9.6-3-1l6-7.5-2 1.5c-1.1.4-1-.8-1-1.5l2-2L7 9c-.2.1-1.3-1.7 1.5-4.5Z" style="fill:none;stroke:#45204b;stroke-width:1px"/><defs><linearGradient id="a" x1="0" x2="1" y1="0" y2="0" gradientTransform="scale(16.301) rotate(5.4 -13 1)" gradientUnits="userSpaceOnUse"><stop offset="0" style="stop-color:#ff7e7e;stop-opacity:1"/><stop offset=".5" style="stop-color:#ff9b9b;stop-opacity:.78"/><stop offset="1" style="stop-color:white;stop-opacity:0"/></linearGradient></defs></svg>