<svg xmlns="http://www.w3.org/2000/svg" width="100%" height="100%" viewBox="0 0 22 22" fill-rule="evenodd" stroke-linejoin="round" xmlns:v="https://vecta.io/nano"><path d="M5 8h1v1H5zm0 5h1v1H5zm0-3h1v2H5zm4 7v-1H8v1h1zm3 0v-1h-2v1h2zm2 0v-1h-1v1h1zM9 6V5H8v1h1zm5 0V5h-1v1h1zm-2 0V5h-2v1h2zm4 2h1v1h-1zm0 2h1v2h-1zm0 3h1v1h-1z" fill="#555761"/><g fill="#e9e9e9"><path d="M3.5 3.5h4v4h-4z"/><path d="M6 6h10v10H6z"/></g><path d="M3.5 3.5h4v4h-4z" fill="none" stroke="#555761"/><path d="M3.5 14.5h4v4h-4z" fill="#e9e9e9"/><path d="M3.5 14.5h4v4h-4z" fill="none" stroke="#555761"/><path d="M14.5 14.5h4v4h-4z" fill="#e9e9e9"/><path d="M14.5 14.5h4v4h-4z" fill="none" stroke="#555761"/><path d="M14.5 3.5h4v4h-4z" fill="#e9e9e9"/><path d="M14.5 3.5h4v4h-4z" fill="none" stroke="#555761"/></svg>