<svg xmlns="http://www.w3.org/2000/svg" xml:space="preserve" style="fill-rule:evenodd;clip-rule:evenodd;stroke-linecap:round;stroke-linejoin:round" viewBox="0 0 22 22"><path d="M18.63-5 12 1a5.46 5.46 0 0 0-1.5 3.5v3l4 4h3c1.25-.04 2.12-.13 3-1L27 3.36v-.02l-2.32-2.33L18.65-5h-.02Z" style="fill:#2084cb;fill-rule:nonzero"/><path d="m23-.5-3.4-1.92S16.2-.28 14.5 1.5c-1.62 1.68-2 2.46-2 5 .6.89 1.71 1.33 2 1l8.5-8Z" style="fill:#46a3e2;fill-rule:nonzero"/><path d="M24.25 6.1s-1.81-4.02-1.82-4.01L15 9c.29.8.67 1.7.5 2.5h2A5.05 5.05 0 0 0 21 10l3.25-3.88V6.1Z" style="fill:#153257;fill-rule:nonzero"/><path d="m20.5-1.84-2.78-1.1S14.3-.8 12.58.98c-1.62 1.69-1.95 2.97-1.94 5.51.6-.2 1.92.18 1.92.18l7.94-8.5Z" style="fill:#b8e6ff;fill-rule:nonzero"/><path d="m18.5-5-7 6.5c-.88.88-.96 1.75-1 3v3l4 4h3A5.45 5.45 0 0 0 21 10l6-6.5L18.5-5Z" style="fill:none;fill-rule:nonzero;stroke:#0e141f;stroke-width:1px"/><path d="M10.35 11.56c-1.01-1.01.09-5.04.15-5.06 1-.34 2.98-.02 4 1 1.05 1.05 1.4 2.99 1 4-.1.25-3.84 1.37-5.15.06Z" style="fill:#0e141f"/><path d="m13.5 8.5-3-1s-2.67 1.29-4 2l-3 9 9-3c.7-2.15 2-4 2-4l-1-3Z" style="fill:#f6f5f1;fill-rule:nonzero"/><path d="M11 7.7S7.2 9 6.5 9.5l-4 10.15 2-2.15 3-7c.74-.38 4.44-1.99 4.5-2.5.35-.35-1-.3-1-.3Z" style="fill:#cacaca;fill-rule:nonzero"/><path d="M14.2 11.54c.43-.43.26-.85-.2-1.04-.53-.22-2.32 3.42-2.5 4l-7.5 3-.5 1 9-3c.9-2.3 1.7-3.96 1.7-3.96Z" style="fill:#9d9d9d;fill-rule:nonzero"/><path d="M3.52 18.5 9 13.07" style="fill:none;fill-rule:nonzero;stroke:#393939;stroke-width:1px"/><path d="M10.56 11.44a1.5 1.5 0 1 1-2.13 2.12 1.5 1.5 0 0 1 2.13-2.12Z" style="fill:#393939"/><path d="M13.5 8.5c-1-1-3-1-3-1s-1.67 1.28-4 2c-.93 3.8-4 10-4 10s7.47-3.67 10-4c.86-2.71 2-4 2-4s0-2-1-3Z" style="fill:none;fill-rule:nonzero;stroke:#393939;stroke-width:1px"/></svg>