<svg xmlns="http://www.w3.org/2000/svg" width="100%" height="100%" viewBox="0 0 22 22" fill-rule="evenodd" stroke-linecap="round" stroke-linejoin="round" xmlns:v="https://vecta.io/nano"><g fill-rule="nonzero"><path d="M14.124 14.146c1.75 1.277 2.725 1.958 3.376 1.354.733-.799.203-1.901-1.074-3.65-1.276-1.755-3.147-3.624-4.897-4.901S7.973 5.022 7.5 5.5c-.474.472.451 2.003 1.727 3.752a23.84 23.84 0 0 0 4.897 4.894z" stroke="#555761"/><path d="M14 14c1.75 1.277 3.025 1.972 3.5 1.5s.203-1.901-1.074-3.65c-1.276-1.755-3.147-3.624-4.897-4.901S7.973 5.022 7.5 5.5c-.474.472.224 1.751 1.5 3.5s3.25 3.729 5 5z" fill-opacity=".3"/><path d="M12.992 7.792l-1.003.999c-1.624 1.623-1.927 1.124-2.536 6.13-.068.556-.527.943-2.376 1.258-3.951.671-5.151 1.222-5.521 2.283 0 1.506 7.452 3.466 14.232 1.249 2.087-.609.626-2.581 1.542-5.58l1.003-1.003-5.341-5.336z" fill="#216dd2"/><path d="M13.881 8.681L12.5 9.5c-1.555 1.555-2.164 4.608-1.5 5 .646.108 2.974 1.914 1.5 2.5-.636.252-2.883-.02-3.5 0-1.015.033-5.348.366-5.5 1.5 0 .385 3.134.901 6.5.5 1.808-.286 3.181-.397 4-1.5 1.013-1.365.637-5.564 2.023-6.951L13.88 8.682z" fill="#4599ee"/></g><path d="M12.13 16.007c.167.25-.748.588-1.13.493-2-.5-3.521.067-4 0-.169.002 2.862-1.404 3-1.5 1 0 1.963.757 2.13 1.007z" fill="#002e99"/><path d="M17.444 12.239c-1.565 1.605-1.295 3.939-1.458 5.798-.05 1.178-4.694 1.683-6.707 1.683s-3.834-.3-5.042-.727c-.605-.213-2.644-.545-2.681-.112 0 1.135 6.674 1.884 7.723 1.884 4.265 0 6.979-.833 7.724-1.883h.002v-3.961a1.11 1.11 0 0 1 .325-.79l1.003-1.003s-.711-1.269-.889-.889z" fill="#0d52bf" fill-rule="nonzero"/><path d="M13 8l-1.5 1c-1.624 1.624-1.391.994-2 6-.068.557-.651.685-2.5 1-3.951.671-5.074 1.439-5.444 2.5 0 1.505 7.163 3.216 13.944 1 2.087-.609 1.084-2.001 2-5l1-1L13 8z" fill="none" stroke="#002e99"/><g fill-rule="nonzero"><path d="M7.929 5.653c.473-.478 1.849.019 3.6 1.296a24.02 24.02 0 0 1 4.897 4.895c1.277 1.755 1.773 3.133 1.298 3.605l9.098-9.098c.476-.478-.02-1.849-1.297-3.604a24.02 24.02 0 0 0-4.897-4.895c-1.751-1.277-3.127-1.774-3.6-1.296L7.929 5.653z" fill="url(#A)"/><path d="M17 12s.976 2.977.5 3.449l9.322-9.098c.241-.245-3.138-1.937-3.385-2.598C21.891 7.642 20.351 11.185 17 12z" fill="url(#B)"/><path d="M19.5-.5c.474-.472-2.348-3.07-2.472-2.95L8 5c.24-.239 3.84 2.248 4.5 2.5.376-5.094 3.493-6.832 7-8z" fill="#d4d4d4"/></g><path d="M7.5 5.5c.474-.478 2.249.223 4 1.5s3.724 3.251 5 5c1.277 1.755 1.475 3.028 1 3.5L29 4.5c.475-.478-9.675-10.83-10.149-10.351L7.5 5.5z" fill="none" stroke="#868995"/><defs><linearGradient id="A" x1="16.026" y1="6.823" x2="21.688" y2="13.515" gradientUnits="userSpaceOnUse"><stop offset="0" stop-color="#abacae"/><stop offset="1" stop-color="#868686"/></linearGradient><linearGradient id="B" x1="16.026" y1="5.477" x2="21.266" y2="12.487" gradientUnits="userSpaceOnUse"><stop offset="0" stop-color="#555761" stop-opacity="0"/><stop offset="1" stop-color="#555761"/></linearGradient></defs></svg>