<svg xmlns="http://www.w3.org/2000/svg" viewBox="0 0 24 24" baseProfile="tiny"><path fill="none" d="M0 0h24v24H0z"/><path d="M11.396 6.982a.99.99 0 0 1 .15-.523C12.991 4.14 23.16-4.804 23.16-4.804a.786.786 0 0 1 1.04 0l6.585 6.023a.633.633 0 0 1 0 .95S22.301 10.386 18.59 12.33a1.293 1.293 0 0 1-.295.11c.197 3.42-3.395 7.58-8.985 8.315-2.985.394-8.213.974-8.04.798 4.682-4.807 1.65-11.8 9.217-14.377.298-.102.603-.165.91-.194z" fill="#7d6767"/><path d="M145 33.966c0-.276-.244-.501-.545-.501h-6.91c-.301 0-.545.225-.545.501 0 0 .079 9.617.65 11.533.331 1.108 3.088.822 3.389.822 0 0 2.674-.046 2.999-1.145.831-2.811.962-11.21.962-11.21z" fill="url(#_Linear2)" transform="matrix(.84028 .8271 -.91528 .90093 -61.876 -148.027)"/><path d="M12.296 6.939c.124-.162.329-.234.592-.24 1.588.113 2.534.968 3.46 1.88 1.497 1.473 1.323 2.837 1.323 2.837-.197 1.36-3.39-1.119-3.39-1.119-.239-.235-2.683-2.153-1.985-3.358z"/><path d="M223.873 61.787c1.872-.069 4.975 1.979 4.733 4.385-.618 6.138-6.964 5.549-10.094 10.041-.115.166-.714-3.816-1.003-6.103-.589-4.648 3.216-8.208 6.364-8.323z" fill="url(#_Radial4)" transform="matrix(-.28176 -1.03504 -1.11518 .29413 149.415 224.65)"/><g><path d="M223.951 61.661c2.109-.359 4.994 1.986 4.655 4.511-.618 6.138-6.964 5.549-10.094 10.041-.115.166-.714-3.816-1.003-6.103-.554-4.371 2.779-7.78 5.796-8.267.18-.154.459-.175.646-.182z" fill="url(#_Radial5)" transform="matrix(-.28176 -1.03504 -1.11518 .29413 149.415 224.65)"/></g><defs><linearGradient id="_Linear2" x2="1" gradientUnits="userSpaceOnUse" gradientTransform="matrix(0 10.3816 -4.04219 0 140.452 33.99)"><stop offset="0" stop-color="#d6d6d6"/><stop offset="1" stop-color="#6e6e6e"/></linearGradient><radialGradient r="1" id="_Radial4" cx="0" gradientUnits="userSpaceOnUse" gradientTransform="matrix(-7.64907 -4.68614 -6.68617 9.70343 225.562 67.1)" cy="0"><stop offset="0" stop-color="#ffce98"/><stop offset=".5" stop-color="#dcae7c"/><stop offset="1" stop-color="#6b4824"/></radialGradient><radialGradient r="1" id="_Radial5" cx="0" gradientUnits="userSpaceOnUse" gradientTransform="matrix(-6.74835 8.71779 4.69583 3.2319 220.339 71.982)" cy="0"><stop offset="0" stop-color="#150015" stop-opacity="0"/><stop offset=".6" stop-color="#150015" stop-opacity=".204"/><stop offset="1" stop-color="#150015"/></radialGradient></defs></svg>