<svg xmlns="http://www.w3.org/2000/svg" viewBox="0 0 24 24" baseProfile="tiny"><path fill="none" d="M0 0h24v24H0z"/><path d="M10.305-.728l13.03-7.522 7.908 13.282-13.635 7.105c-.118.212-.492.562-.817.728-.37.189-1.004.5-1.402.4-.37.174-.56.443-.785.68-.242.256-1.146 1.013-2.054 1.856-.95.884-2.227 2.808-2.927 3.933-.6.966-.549 1.71-1.147 2.686-.17.28-.92.269-1.337.043-.467-.254-.364-.438-.577-1.119-.075.188-1.505 1.26-1.625 1.295-.295.081-.791.6-1.1.238-.278-.327-.36-.892-.398-1.3-.1-1.079.09-2.189.448-3.206.56-1.59.58-3.265 1.235-4.853.237-.577.716-.95.318-.645-.568.436-1.16-.095-1.226-.761-.146-1.507.364-3.042 1.212-4.218.647-.897 1.714-2.156 2.777-3.455-.546-1.907-.516-3.5.163-4.247a1.326 1.326 0 0 1 .416-.312c.18-.11.362-.212.447-.261l.004-.002c.117-.069.22-.128.277-.16.233-.136.502-.195.795-.185z" fill="#367786"/><path fill="url(#_Linear2)" d="M136 55h13v14.841h-13z" transform="rotate(-120 65.696 70.673) scale(1.03596)"/><path d="M11.13 7.572C9.507 4.592 8.502 1.843 9.334.66c.109-.155.646-.452.805-.543 1.37-.792 4.042 1.264 5.96 4.586 1.918 3.323 2.231 6.47.992 7.456-1.96 1.558-4.106-1.18-5.96-4.587z" fill="#c1c1c1"/><path d="M10.872 7.722C9.25 4.742 8.244 1.993 9.076.81c.109-.155.646-.452.805-.543 1.37-.792 4.042 1.264 5.96 4.586 1.918 3.323 2.231 6.47.992 7.456-1.96 1.558-4.106-1.18-5.96-4.587z" fill="#d6d6d6"/><ellipse ry="2.682" cx="142.5" rx="6.5" cy="58.318" fill="#d5d5d5" transform="rotate(-120 66.532 74.76) scale(1.06961 1.0696)"/><path d="M9.157 4.422c-.55-1.784-.455-3.205.324-3.654.659-.38 1.677.011 2.74.953l-.122-.116c-.023-.012-1.084.593-1.524 1.015L9.157 4.422z" fill="#5e5e5e"/><path d="M144.813 74.446l-.483 1.002c-.139.233-.426.815-.773.576-.312-.216-.512-.681-.638-1.02-.333-.901-.424-1.893-.351-2.846l-.043-1.639.343-.71c.146-.254.321-2.172.395-2.472.251-1.005 1.345-2.948 1.478-3.189.041-.074.143-.251.117-.35-.026-.095-.043-.296-.122-.361-.114-.094-.28-.042-.411-.007-.293.079-.582.195-.796.418-.211.221-.344.516-.506.77l-.377 1.009-.003-.003c-.078.441-.215.961-.485 1.312-.387.504-.816.369-1.023-.185-.471-1.255-.108-2.705.348-3.904.374-.984 1.066-2.436 1.719-3.893 0 0 .477-1.505.816-2.065.306-.504 1.146-1.325 1.17-1.318.812.225 2.274 1.221 3.755 2.702 2.444 2.443 3.7 5.185 2.879 6.231h-.015s-1.246.751-1.607 1.418c-.524.968-.736 1.171-1.319 2.101-.611.974-1.212 2.6-1.552 3.722-.293.965-.233 2.015-.52 2.987-.082.277-.207.898-.616.8-.276-.066-.468-.275-.602-.545.01-.666.016-2.109.261-3.089.1-.397.632-1.985.527-2.374-.005-.02-.042-.273-.098-.28-.522-.062-.721.674-.867 1.02-.347.823-.485 1.609-.602 2.489-.08.597-.121 1.112.001 1.693z" fill="url(#_Linear3)" transform="matrix(1.00066 .26813 -.26813 1.00066 -118.333 -92.968)"/><path d="M7.248 21.104a3.5 3.5 0 0 1-.058-.397l.047-.379.035-.285-.006.001a.656.656 0 0 1-.347-.042l-.304.353c.034-.614.213-1.118.453-1.694.354-.849.702-1.598 1.27-2.329.239-.307.635-.99 1.141-.788.055.022.023.285.023.306 0 .417-.958 1.864-1.164 2.235-.508.914-.901 2.356-1.089 3.02l-.001-.001zM6.114 13.014l.593-1.232c.14-.296.19-.574.098-.824l.006-.008.649-.909c.23-.211.442-.47.712-.634.274-.166.595-.205.908-.205.141 0 .321-.008.41.117.062.086.025.292.025.394 0 .106-.149.256-.21.319-.199.205-1.814 1.856-2.334 2.794-.155.28-.845 2.153-1.059 2.368l-.534.618.138-.574.204-.951.394-1.273z" fill="#357685"/><defs><linearGradient id="_Linear2" x2="1" gradientUnits="userSpaceOnUse" gradientTransform="rotate(-174.564 75.704 28.429) scale(16.25399)"><stop offset="0" stop-color="#99a2a6"/><stop offset="1" stop-color="#5e676c"/></linearGradient><linearGradient id="_Linear3" x2="1" gradientUnits="userSpaceOnUse" gradientTransform="rotate(-70.008 120.931 -69.822) scale(11.78283)"><stop offset="0" stop-color="#1fc2c0"/><stop offset="1" stop-color="#3b5352"/></linearGradient></defs></svg>