<svg xmlns="http://www.w3.org/2000/svg" viewBox="0 0 24 24" baseProfile="tiny"><path fill="none" d="M-.022 0h24.044v24H-.022z"/><path d="M100.462 36.571c-.659.721-1.695 1.63-2.446 2.415-.563.588-1.066 1.357-1.876 1.572-.545.145-1.98-.589-2.543-.564-.118.005-.274.117-.368.193-.757.612-2.279 2.792-2.854 2.475-.328-.323-.964-.579-.834-1.146.13-.184.225-.236.424-.22.11.009.195.216.314.202.117-.014.31-.288.427-.318.13-.032.091-.343.227-.376.179-.043.289-.136.46-.213.14-.063.334-.021.476-.072.154-.055.511-.25.658-.255.212-.008.28-.181.447-.269a7.07 7.07 0 0 0 .344-.212c.213-.136.174.007.382-.182.203-.184.451-.009.657-.133.227-.137.313-.44.591-.518.331-.094.365-.294.701-.385.245-.066.354-.35.635-.376.267-.024.584.216.828.119.481-.192.204-.171.729-.266.429-.077.436-.271.857-.383.331-.089.521-.368.805-.525l.959-.563z" fill="url(#_Linear2)" transform="matrix(1.12764 0 0 1.03382 -98.74 -22.263)"/><path d="M87.211 41.541l.288-.51c.446-.464.213-.322.866-.843.603-.48 1.506-1.568 2.224-1.867.415-.173.647-.541 1.084-.657.618-.164 1.02-.762 1.651-.872.215-.037.424.063.633.091.479.063.951-.453 1.378-.6.342-.118.725.021 1.071-.094.283-.094.67-.177.985-.289 2.811-.997 2.59-.408 1.516.632l-1.003.611c-.305.164-.5.463-.855.555-.451.117-.459.318-.919.399-.563.098-.262.08-.777.279-.262.102-.638-.082-.924-.056-.302.026-.368.269-.631.338-.361.094-.394.305-.75.402-.297.082-.397.39-.64.532-.221.129-.468-.033-.685.159-.223.196-.195.033-.423.175-.066.041-.275.172-.369.22-.179.092-.272.253-.499.261-.158.005-.534.214-.698.272-.152.053-.363.006-.514.072-.183.08-.284.194-.476.239-.145.035-.084.377-.224.411-.125.03-.335.287-.46.301-.129.015-.287-.243-.405-.252-.213-.017-.315.037-.454.229l.002-.11.008-.028z" fill="url(#_Linear3)" transform="matrix(1.05201 0 0 .99332 -89.505 -20.743)"/><path d="M98.978 27.35l6.571-6.298c2.898-2.508 8.448 1.355 6.145 4.778l-7.108 7.128-5.608-5.608z" fill="url(#_Linear4)" transform="matrix(1.13866 0 0 1.07513 -98.825 -24.77)"/><path d="M91 29.154a.75.75 0 0 0-.75-.751h-1.5a.75.75 0 0 0-.75.751v15.095c0 .414.336.751.75.751h1.5c.414 0 .75-.337.75-.751V29.154z" fill="url(#_Linear5)" transform="scale(1.052 .99332) rotate(-45 17.095 109.337)"/><path d="M91 45h-.836a.75.75 0 0 1-.75-.75V29.153a.75.75 0 0 1 .75-.75H91V45z" fill="url(#_Linear6)" transform="scale(1.052 .99332) rotate(-45 17.802 111.044)"/><path d="M100.336 26.265l5.336 5.336-9.006 9.006c-.773.2-2.387-.611-2.992-.616l-2.267 2.267a.996.996 0 0 1-1.414 0l-.273-.273a1 1 0 0 1 0-1.415l2.316-2.316c-.016-.615-.858-2.225-.706-2.983l9.006-9.006z" fill="url(#_Linear7)" transform="matrix(1.13866 0 0 1.07513 -99.849 -23.748)"/><path d="M100.336 26.265l5.336 5.336-9.006 9.006c-.773.2-2.387-.611-2.992-.616l-2.267 2.267a.996.996 0 0 1-1.414 0l-.273-.273a1 1 0 0 1 0-1.415l2.316-2.316c-.016-.615-.858-2.225-.706-2.983l9.006-9.006z" fill="url(#_Radial8)" transform="matrix(1.13866 0 0 1.07513 -99.849 -23.748)"/><path d="M94 31.464c0-.808-.453-1.464-1.011-1.464-.558 0-1.011.656-1.011 1.464v17.072c0 .808.453 1.464 1.011 1.464.558 0 1.011-.656 1.011-1.464V31.464z" fill="url(#_Linear9)" transform="matrix(.74388 .70238 -.51464 .48593 -37.974 -72.892)"/><path d="M89 41.112c0-.609-.672-1.103-1.5-1.103s-1.5.494-1.5 1.103v1.815c0 .609.672 1.104 1.5 1.104s1.5-.495 1.5-1.104v-1.815z" fill="url(#_Linear10)" transform="matrix(.21624 -.20417 .29449 .27806 -28.4 27.297)"/><path fill="url(#_Linear11)" d="M92.336 20H93v18h-.664z" transform="matrix(.24124 -.22778 .33718 .31837 -14.773 19.306)"/><path d="M14.144 5.66l-.002.187-.14.137-.157.151-.357.34-.408.388-.45.425-.486.455-.511.478-.53.493-.54.5-.539.498-.532.49-.517.474-.491.45-.46.417-.418.377-.368.33-.309.276-.314.277-.156.14-.158.138-.158.138-.16.137-.162.137-.163.133-.066.052-.069.052-.069.05-.07.051-.141.102-.069.05-.067.052-.065.052-.063.053-.029.026-.03.027-.027.028-.027.026-.025.028-.026.028-.023.028-.022.029-.02.029-.019.028-.018.03-.012.022-.001.007-.004.022-.004.03-.007.078-.006.094-.015.209-.008.102-.005.049-.005.045-.151.119-.12-.152.005-.042.004-.043.009-.098.013-.207.008-.098.007-.085.005-.039.005-.036.008-.031.006-.021.009-.02.023-.042.024-.039.024-.037.026-.037.029-.036.028-.035.03-.033.031-.033.032-.033.031-.03.034-.032.034-.03.068-.059.07-.056.072-.054.073-.054.142-.102.07-.05.066-.049.065-.048.062-.049.16-.131.158-.134.16-.135.156-.137.158-.138.156-.138.313-.278.31-.274.367-.33.417-.376.459-.417.492-.45.516-.472.532-.49.54-.497.538-.499.53-.492.512-.477.485-.454.451-.425.407-.386.356-.34.155-.15.14-.137.188.003z" fill="#fff" fill-opacity=".589"/><defs><linearGradient id="_Linear2" x2="1" gradientUnits="userSpaceOnUse" gradientTransform="matrix(.9239 10.7674 -10.7674 .9239 94.083 34.208)"><stop offset="0" stop-color="#ff5d8d"/><stop offset="1" stop-color="#ffb5fc"/></linearGradient><linearGradient id="_Linear3" x2="1" gradientUnits="userSpaceOnUse" gradientTransform="rotate(90 29.182 64.57) scale(3.05499)"><stop offset="0" stop-color="#fffdf9"/><stop offset="1" stop-color="#ff90b2"/></linearGradient><linearGradient id="_Linear4" x2="1" gradientUnits="userSpaceOnUse" gradientTransform="scale(6.53297) rotate(45 3.181 20.814)"><stop offset="0" stop-color="#c09374"/><stop offset=".2" stop-color="#e7c69c"/><stop offset=".5" stop-color="#f3d6a8"/><stop offset=".8" stop-color="#e9c99e"/><stop offset=".9" stop-color="#d4ad89"/><stop offset="1" stop-color="#c09374"/></linearGradient><linearGradient id="_Linear5" x2="1" gradientUnits="userSpaceOnUse" gradientTransform="rotate(90 28.884 60.633) scale(9.89949)"><stop offset="0" stop-color="#876046"/><stop offset=".1" stop-color="#b1886a"/><stop offset=".2" stop-color="#d5ab89"/><stop offset=".5" stop-color="#e3b895"/><stop offset=".8" stop-color="#d6ab8a"/><stop offset=".9" stop-color="#b2886b"/><stop offset="1" stop-color="#865f45"/></linearGradient><linearGradient id="_Linear6" x2="1" gradientUnits="userSpaceOnUse" gradientTransform="matrix(8.67519 -.4697 -.02783 8.66251 82.978 36.523)"><stop offset="0" stop-color="#4a322e"/><stop offset=".7" stop-color="#62493f"/><stop offset=".8" stop-color="#a38a6e"/><stop offset="1" stop-color="#f2d7a7"/></linearGradient><linearGradient id="_Linear7" x2="1" gradientUnits="userSpaceOnUse" gradientTransform="rotate(42.863 5.06 136.322) scale(11.34419)"><stop offset="0" stop-color="#fff" stop-opacity=".157"/><stop offset="1" stop-color="#b4b4b4" stop-opacity=".506"/></linearGradient><radialGradient r="1" id="_Radial8" cx="0" gradientUnits="userSpaceOnUse" gradientTransform="rotate(45 4.086 133.65) scale(11.47616 22.49533)" cy="0"><stop offset="0" stop-color="#010000" stop-opacity="0"/><stop offset="1" stop-color="#010000"/></radialGradient><linearGradient id="_Linear9" x2="1" gradientUnits="userSpaceOnUse" gradientTransform="matrix(2.47183 -.00834 .00518 3.97962 91.917 39.795)"><stop offset="0" stop-color="#fff"/><stop offset="1" stop-color="#fff" stop-opacity="0"/></linearGradient><linearGradient id="_Linear10" x2="1" gradientUnits="userSpaceOnUse" gradientTransform="matrix(-9.73002 0 0 -2.55779 90.685 42.665)"><stop offset="0" stop-color="#343434"/><stop offset=".2" stop-color="#343434" stop-opacity=".584"/><stop offset=".4" stop-color="#343434" stop-opacity=".176"/><stop offset="1" stop-color="#343434" stop-opacity="0"/></linearGradient><linearGradient id="_Linear11" x2="1" gradientUnits="userSpaceOnUse" gradientTransform="matrix(-.14729 12.2768 -17.1592 -.10538 92.809 23.613)"><stop offset="0" stop-color="#676767" stop-opacity="0"/><stop offset=".5" stop-color="#676767" stop-opacity=".855"/><stop offset="1" stop-color="#676767" stop-opacity="0"/></linearGradient></defs></svg>