<svg xmlns="http://www.w3.org/2000/svg" viewBox="0 0 24 24" baseProfile="tiny"><path fill="none" d="M0 0h24v24H0z"/><path d="M22.941 18.72s1.502-9.036-10.79-15.457c-1.29-.696-1.87.173-1.87.173s-.536-.71-2.465-1.273C5.887 1.6 4.526 2.579 4.74 3.83c0 .003-1.868-1.429-3.085-.394-1.218 1.036-.436 2.9-.047 3.674.808 1.61 5.993 6.847 6.616 8.096.541 1.086.247.963-1.677.58-1.292-.257-4.028 1.95-2.427 5.482.315.697 2.37.652 3.233.345 1.517-.541 1.823-.43 2.805-.188.981.24 2.69 1.789 6.288 1.558 3.597-.23 6.45-3.365 6.496-4.262" fill="#934e44"/><path d="M22.025 18.197S23.4 9.922 12.144 4.042c-1.181-.638-1.712.159-1.712.159s-.49-.65-2.257-1.166c-1.766-.516-3.014.38-2.818 1.526 0 .003-1.71-1.308-2.825-.36-1.116.948.083 2.469.439 3.177.741 1.475 5.762 6.176 6.333 7.32.495.993.61 2.342-1.152 1.99-1.182-.235-4.83.607-3.363 3.841.289.638 2.17.597 2.96.316 1.39-.495 1.67-.393 2.57-.172.898.22 2.462 1.638 5.757 1.427 3.295-.21 5.906-3.081 5.95-3.903" fill="#e3ac9b"/><path d="M21.884 18.393c-.009-.085.458-2.447-1.167-6.099-.83-1.863-3.4-4.586-3.507-4.645-.914-1.09-4.843-3.564-5.596-3.728-.236-.032-.289-.044-.457-.021-.544.076-.725.412-.725.412s-.49-.687-2.257-1.203c-1.728-.515-2.88.3-2.774 1.45-.01.136-1.637-1.184-2.752-.237-1.115.948.072 2.348.428 3.056.741 1.475 5.79 6.176 6.361 7.32.497.993.476 2.496-1.286 2.145-1.182-.236-4.763.384-3.298 3.619.29.637 2.105.54 2.896.259 1.389-.496 1.669-.375 2.568-.154.899.22 2.463 1.59 5.758 1.378 1.318-.085 2.793-.674 3.87-1.549 1.914-1.351 1.944-1.958 1.938-2.003z" fill="#e3ac9b"/><path d="M167 114s6.168 4.605 7.527 6.817" fill="none" stroke="#934e44" stroke-width=".21" transform="matrix(.92091 0 0 .95162 -148.822 -104.37)"/><path d="M167 114s6.922 5.605 8.28 7.817" fill="none" stroke="#934e44" stroke-width=".21" transform="matrix(.92091 0 0 .95162 -145.646 -106.403)"/></svg>