<svg xmlns="http://www.w3.org/2000/svg" viewBox="0 0 24 24" baseProfile="tiny"><path fill="none" d="M0 0h24v24H0z"/><path d="M20.496 2.332S20.385.5 12 .5 3.337 2.332 3.337 2.332v.358l.247.042.902 18.407a.497.497 0 0 0 .265.418C5.535 21.93 8.088 23 11.697 23c3.606 0 6.228-1.018 7.04-1.377a.5.5 0 0 0 .28-.42l1.097-18.406.382-.107v-.358z" fill="#9b9b9b"/><path d="M317 84.009c1.656.445 4.339.764 8.253.764 3.439 0 5.989-.35 7.747-.76v.472l-.131.038s-.826 14.546-.93 16.304a.411.411 0 0 1-.133.273c-.44.304-2.147 1.196-6.999 1.196-4.953 0-6.351-.93-6.668-1.212a.406.406 0 0 1-.08-.216l-.889-16.341-.17-.046v-.472z" fill="url(#_Linear2)" transform="matrix(.9375 0 0 1.0646 -292.77 -86.91)"/><path d="M317 84.009c1.656.445 4.339.764 8.253.764 3.439 0 5.989-.35 7.747-.76v.472l-.131.038s-.826 14.546-.93 16.304a.411.411 0 0 1-.133.273c-.44.304-2.147 1.196-6.999 1.196-4.953 0-6.351-.93-6.668-1.212a.406.406 0 0 1-.08-.216l-.889-16.341-.17-.046v-.472z" fill="url(#_Radial3)" transform="matrix(.9375 0 0 1.0646 -292.77 -86.91)"/><path d="M4.221 3.075v-.596c5.035.819 10.154.85 15.367 0v.623c-1.664.501-4.248.78-7.676.78-3.358 0-5.97-.286-7.69-.807z" fill="#f9f9f9"/><path d="M4.221 2.666V2.48s.205-1.093 7.703-1.093c7.499 0 7.664 1.093 7.664 1.093v.27c-1.689.448-4.138.692-7.44.692-3.76 0-6.336-.29-7.927-.775z" fill="#dfdfdf"/><path d="M324.588 80C330.335 80 335 81.485 335 82.865c0 1.379-4.665 2.135-10.412 2.135-5.746 0-10.411-.903-10.411-2.283 0-1.379 4.665-2.717 10.411-2.717z" fill="url(#_Linear4)" transform="matrix(.72015 0 0 .3292 -221.84 -24.806)"/><path d="M10.405 11.895l.425.27c.072 0 .108-.03.108-.092a.424.424 0 0 0-.05-.165l-.94-1.833-2.081.053c-.094.005-.14.055-.14.152 0 .022.03.053.089.092l.431.27-.457.739c-.126.21-.19.384-.19.52 0 .124.042.262.127.416l1.415 2.564a2.256 2.256 0 0 1-.05-.461c0-.26.077-.514.234-.765l1.08-1.76zM10.95 10.398l1.168-1.878c-.436-1.033-.899-1.55-1.39-1.55-.296 0-.494.086-.596.257L9.028 9.06l1.923 1.338z" fill="#486992"/><path d="M9.999 15.488h2.253v-2.433h-2.17c-.267.396-.434.664-.502.805a1.54 1.54 0 0 0-.165.685c0 .629.195.943.584.943zM14.638 9.95l1.002-1.753a.393.393 0 0 0 .051-.192c0-.079-.025-.118-.076-.118a.413.413 0 0 1-.101.04l-.457.217-.42-.864c-.185-.386-.558-.58-1.116-.58h-2.608c.317.101.533.2.647.297.267.22.54.633.819 1.24l.52 1.133-.387.191c-.038.018-.057.053-.057.106 0 .066.04.103.12.112l2.063.171zM15.64 15.125l1.46-2.755c-.216.255-.45.426-.704.514-.203.07-.493.105-.87.105h-1.624v-.35c0-.135-.032-.203-.096-.203-.046 0-.08.017-.101.052l-1.028 1.853 1.066 1.7c.08.128.15.179.21.152.058-.017.088-.05.088-.099v-.58h.901c.33 0 .563-.13.698-.389z" fill="#486992"/><path d="M15.006 12.64h.97c.233 0 .475-.106.724-.317.267-.22.4-.452.4-.698a.611.611 0 0 0-.108-.337l-1.155-1.832-1.986 1.2 1.155 1.984z" fill="#486992"/><defs><linearGradient id="_Linear2" x2="1" gradientUnits="userSpaceOnUse" gradientTransform="matrix(19.1898 0 0 18.1389 323.257 93.41)"><stop offset="0" stop-color="#e9e9e9"/><stop offset="1" stop-color="#a2a2a2"/></linearGradient><radialGradient r="1" id="_Radial3" cx="0" gradientUnits="userSpaceOnUse" gradientTransform="matrix(0 5.44167 -17.2685 0 325.177 80.983)" cy="0"><stop offset="0" stop-color="#5e5e5e"/><stop offset="1" stop-color="#5e5e5e" stop-opacity="0"/></radialGradient><linearGradient id="_Linear4" x2="1" gradientUnits="userSpaceOnUse" gradientTransform="matrix(0 -16.7815 7.78208 0 324.578 95.171)"><stop offset="0" stop-color="#5c5858"/><stop offset="1" stop-color="#c7c7c7"/></linearGradient></defs></svg>