<svg xmlns="http://www.w3.org/2000/svg" viewBox="0 0 24 24" baseProfile="tiny"><path fill="none" d="M0-.004h24v24H0z"/><path d="M20.366 2.166s-.172-.977-7.979-.977c-7.808 0-8.021.977-8.021.977v.393l.17.103.867 18.761a.507.507 0 0 0 .12.303c.401.322 1.962 1.27 6.65 1.27 4.634 0 6.457-.926 6.965-1.262a.49.49 0 0 0 .169-.348c.109-2.152.921-18.724.921-18.724l.138-.103v-.393z" fill="#787878"/><path d="M317 84.009c1.656.445 4.339.764 8.253.764 3.439 0 5.989-.35 7.747-.76v.472l-.131.038s-.826 14.546-.93 16.304a.411.411 0 0 1-.133.273c-.44.304-2.147 1.196-6.999 1.196-4.953 0-6.351-.93-6.668-1.212a.406.406 0 0 1-.08-.216l-.889-16.341-.17-.046v-.472z" fill="url(#_Linear2)" transform="matrix(.9375 0 0 1.11929 -292.322 -91.905)"/><path d="M317 84.462c1.875.508 4.768.673 8.008.673 3.239 0 6.132-.165 7.992-.669v.104l-.138.089s-.533 9.38-.801 13.926c-.083 1.469-1.422 2.676-3.174 2.862-1.414.183-3.013.354-4.08.354-.992 0-2.416-.155-3.702-.32-1.753-.191-3.089-1.402-3.17-2.872l-.765-13.95-.17-.089v-.108z" fill="url(#_Radial4)" transform="matrix(.9375 0 0 1.11929 -292.322 -91.905)"/><path d="M316.64 84.174l-.085-.171s.116-.945 7.804-.945c7.689 0 7.758.945 7.758.945l.005.141c-1.731.41-4.147.589-7.534.589-3.854 0-6.317-.115-7.948-.559z" fill="url(#_Linear5)" transform="matrix(.95198 0 0 1.11929 -296.397 -91.908)"/><path d="M328.866 96.133v-.018s.2-1.119 7.519-1.119c7.32 0 7.481 1.119 7.481 1.119v.051c-.286.667-4.067.864-7.335.863-3.841-.002-7.587-.346-7.665-.896zm7.507-.989c4.04 0 7.319.5 7.319.965 0 .465-3.279.72-7.319.72-4.039 0-7.319-.304-7.319-.769s3.28-.916 7.319-.916z" fill="url(#_Linear6)" transform="translate(-324 -94)"/><g><path d="M10.394 11.963l.431.27c.073 0 .11-.03.11-.092a.42.42 0 0 0-.052-.165l-.952-1.834-2.11.053c-.095.005-.142.055-.142.152 0 .022.03.052.09.092l.437.27-.463.74c-.129.21-.193.384-.193.52 0 .124.043.262.129.416l1.435 2.566a2.23 2.23 0 0 1-.052-.462c0-.259.08-.514.238-.765l1.094-1.761zM10.947 10.465l1.184-1.88c-.442-1.033-.912-1.55-1.409-1.55-.3 0-.502.086-.605.257l-1.12 1.834 1.95 1.34z" fill="#486992"/><path d="M9.982 15.558h2.284v-2.434h-2.2c-.27.396-.44.664-.508.805a1.524 1.524 0 0 0-.168.686c0 .629.197.943.592.943zM14.686 10.017l1.016-1.755a.39.39 0 0 0 .052-.191c0-.08-.026-.12-.078-.12a.422.422 0 0 1-.102.04l-.464.218-.424-.864c-.19-.387-.567-.58-1.133-.58H10.91c.322.1.54.2.656.296.27.22.547.634.83 1.24l.528 1.135-.393.192c-.038.018-.058.052-.058.105 0 .066.04.104.122.112l2.092.172zM15.702 15.195l1.48-2.757c-.219.255-.457.427-.714.514-.206.071-.5.106-.882.106H13.94v-.35c0-.136-.032-.204-.096-.204-.048 0-.082.018-.103.053l-1.043 1.853 1.081 1.702c.082.128.153.178.213.152.06-.017.09-.05.09-.099v-.58h.913c.335 0 .57-.13.708-.39z" fill="#486992"/><path d="M15.059 12.708h.984c.236 0 .48-.105.734-.316.27-.22.405-.453.405-.7a.606.606 0 0 0-.11-.336l-1.17-1.834-2.014 1.2 1.17 1.986z" fill="#486992"/></g><defs><linearGradient id="_Linear2" x2="1" gradientUnits="userSpaceOnUse" gradientTransform="matrix(15.6485 .40039 -.42708 14.6704 315.933 92)"><stop offset="0" stop-color="#b4b4b4"/><stop offset=".3" stop-color="#e1e1e1"/><stop offset=".7" stop-color="#fbfbfb"/><stop offset=".9" stop-color="#f8f8f8"/><stop offset=".9" stop-color="#f0f0f0"/><stop offset="1" stop-color="#e8e8e8"/></linearGradient><radialGradient r="1" id="_Radial4" cx="0" gradientUnits="userSpaceOnUse" gradientTransform="matrix(0 2.45137 -11.8075 0 325.933 84.126)" cy="0"><stop offset="0" stop-color="#a6a6a6"/><stop offset="1" stop-color="#a6a6a6" stop-opacity="0"/></radialGradient><linearGradient id="_Linear5" x2="1" gradientUnits="userSpaceOnUse" gradientTransform="matrix(16.2069 0 0 15.4286 317.315 85)"><stop offset="0" stop-color="#bcbcbc"/><stop offset=".2" stop-color="#e4e4e4"/><stop offset=".5" stop-color="#f0f0f0"/><stop offset=".7" stop-color="#cfcfcf"/><stop offset="1" stop-color="#c3c3c3"/></linearGradient><linearGradient id="_Linear6" x2="1" gradientUnits="userSpaceOnUse" gradientTransform="matrix(15 0 0 15 336 97.1)"><stop offset="0" stop-color="#cdcdcd"/><stop offset="1" stop-color="#8b8b8b"/></linearGradient></defs></svg>