<svg xmlns="http://www.w3.org/2000/svg" width="100%" height="100%" viewBox="0 0 64 64" fill-rule="evenodd" stroke-linecap="round" xmlns:v="https://vecta.io/nano"><style><![CDATA[.B{stroke-linejoin:round}.C{fill-rule:nonzero}]]></style><g transform="translate(0 -1058.52)"><path d="M3.837 8.85v18.981h13.454l-.121-13.927-6.043-5.054h-7.29z" fill="url(#A)" transform="matrix(3.21033 0 0 3.05575 -1.8188 1032.97)" class="C"/><path d="M32.135 1075.462h21.169v2.529H32.135z" fill-opacity=".25"/><path d="M34.211 1060.521v14.942h-2.076v-14.942z" fill-opacity=".25"/><path d="M18 13.904L11.524 8.85l.001 5.054H18z" fill="url(#B)" transform="matrix(3.05575 0 0 3.05575 -1.31347 1032.97)" class="C"/><g fill="none" stroke="#5b5b5b"><path d="M53.305 1075.467l-19.404-.075v-14.869" stroke-width="1.006"/><path d="M10.498 1060.021v58.003h42.805v-42.557l-19.613-15.445H10.498z" stroke-width=".996" class="B"/></g><g stroke="#7a0000" class="B"><circle cx="23.292" cy="1086.16" r="9.061" fill="#ff8c82" transform="matrix(.724783 0 0 .724783 8.68562 299.857)"/><ellipse cx="-930.765" cy="574.296" rx="9.061" ry="9.835" fill="#ed5353" transform="matrix(.362391 -.62768 .62768 .362391 8.68562 299.857)"/><ellipse cx="-751.283" cy="807.837" rx="9.061" ry="10.372" fill="#c6262e" transform="matrix(.512499 -.512499 .512499 .512499 8.68562 299.857)"/></g></g><defs><linearGradient id="A" x1="11.501" y1="7.667" x2="11.501" y2="27.701" gradientUnits="userSpaceOnUse"><stop offset="0" stop-color="#f4f4f4"/><stop offset="1" stop-color="#dbdbdb"/></linearGradient><linearGradient id="B" x1="13.015" y1="14.198" x2="14.385" y2="8.43" gradientUnits="userSpaceOnUse"><stop offset="0" stop-color="#fafafa"/><stop offset="1" stop-color="#f2f2f2"/></linearGradient></defs></svg>