<?xml version="1.0" encoding="UTF-8" standalone="no"?>
<!DOCTYPE svg PUBLIC "-//W3C//DTD SVG 1.1//EN" "http://www.w3.org/Graphics/SVG/1.1/DTD/svg11.dtd">
<svg width="100%" height="100%" viewBox="0 0 64 64" version="1.1" xmlns="http://www.w3.org/2000/svg" xmlns:xlink="http://www.w3.org/1999/xlink" xml:space="preserve" xmlns:serif="http://www.serif.com/" style="fill-rule:evenodd;clip-rule:evenodd;stroke-linecap:round;stroke-linejoin:round;">
    <g id="Layer-1" serif:id="Layer 1" transform="matrix(1,0,0,1,0,-1058.52)">
        <path id="rect980" d="M58.054,1066.97C58.054,1065.59 56.933,1064.47 55.554,1064.47L8.446,1064.47C7.067,1064.47 5.946,1065.59 5.946,1066.97L5.946,1114.07C5.946,1115.45 7.067,1116.57 8.446,1116.57L55.554,1116.57C56.933,1116.57 58.054,1115.45 58.054,1114.07L58.054,1066.97Z" style="fill:url(#_Linear1);"/>
        <g id="rect1033" transform="matrix(0.264583,0,0,0.264583,0,1058.52)">
            <path d="M22.478,204.301L22.478,209.963C22.478,215.198 26.692,219.412 31.927,219.412L209.963,219.412C215.198,219.412 219.412,215.198 219.412,209.963L219.412,204.301C219.412,209.536 215.198,213.75 209.963,213.75L31.927,213.75C26.692,213.75 22.478,209.536 22.478,204.301Z" style="fill:rgb(26,26,26);fill-rule:nonzero;"/>
        </g>
        <path id="path1007" d="M20.777,1084.35C18.734,1084.35 16.893,1083.12 16.111,1081.23C15.329,1079.34 15.761,1077.17 17.206,1075.73C18.65,1074.28 20.822,1073.85 22.71,1074.63C24.597,1075.41 25.827,1077.25 25.827,1079.3L25.827,1101.74C25.827,1103.79 24.597,1105.63 22.71,1106.41C20.822,1107.19 18.65,1106.76 17.206,1105.31C15.761,1103.87 15.329,1101.7 16.111,1099.81C16.893,1097.92 18.734,1096.69 20.777,1096.69L43.223,1096.69C45.266,1096.69 47.107,1097.92 47.889,1099.81C48.671,1101.7 48.238,1103.87 46.794,1105.31C45.35,1106.76 43.177,1107.19 41.29,1106.41C39.403,1105.63 38.173,1103.79 38.173,1101.74L38.173,1079.3C38.173,1077.25 39.403,1075.41 41.29,1074.63C43.178,1073.85 45.35,1074.28 46.794,1075.73C48.239,1077.17 48.671,1079.34 47.889,1081.23C47.107,1083.12 45.266,1084.35 43.223,1084.35L20.777,1084.35Z" style="fill:none;fill-rule:nonzero;stroke:rgb(250,250,250);stroke-width:3px;"/>
        <g id="rect1022" transform="matrix(0.264583,0,0,0.264583,0,1058.52)">
            <path d="M31.927,22.478C26.692,22.478 22.478,26.692 22.478,31.927L22.478,37.596C22.478,32.361 26.692,28.147 31.927,28.147L209.963,28.147C215.198,28.147 219.412,32.361 219.412,37.596L219.412,31.927C219.412,26.692 215.198,22.478 209.963,22.478L31.927,22.478Z" style="fill:rgb(171,172,174);fill-rule:nonzero;"/>
        </g>
        <path id="rect1019" d="M58.054,1066.97C58.054,1065.59 56.933,1064.47 55.554,1064.47L8.446,1064.47C7.067,1064.47 5.946,1065.59 5.946,1066.97L5.946,1114.07C5.946,1115.45 7.067,1116.57 8.446,1116.57L55.554,1116.57C56.933,1116.57 58.054,1115.45 58.054,1114.07L58.054,1066.97Z" style="fill:none;stroke:black;stroke-width:1px;"/>
        <path id="path1048" d="M19.503,1072.88C18.258,1073.12 17.079,1073.73 16.144,1074.66C14.274,1076.53 13.715,1079.36 14.727,1081.8C15.739,1084.25 18.135,1085.85 20.78,1085.85L24.331,1085.85L24.331,1095.19L20.78,1095.19C18.135,1095.19 15.739,1096.79 14.727,1099.24C13.715,1101.68 14.274,1104.51 16.144,1106.38C18.015,1108.25 20.839,1108.81 23.282,1107.79C25.726,1106.78 27.328,1104.38 27.328,1101.74L27.328,1098.19L36.673,1098.19L36.673,1101.74C36.673,1104.38 38.275,1106.78 40.719,1107.79C43.162,1108.81 45.986,1108.25 47.857,1106.38C49.727,1104.51 50.286,1101.68 49.274,1099.24C48.262,1096.79 45.866,1095.19 43.221,1095.19L39.67,1095.19L39.67,1085.85L43.221,1085.85C45.866,1085.85 48.262,1084.25 49.274,1081.8C50.286,1079.36 49.727,1076.53 47.857,1074.66C45.986,1072.79 43.162,1072.23 40.719,1073.25C38.275,1074.26 36.673,1076.65 36.673,1079.3L36.673,1082.85L27.328,1082.85L27.328,1079.3C27.328,1076.65 25.726,1074.26 23.282,1073.25C22.061,1072.74 20.748,1072.63 19.503,1072.88ZM22.138,1076.01C23.469,1076.57 24.331,1077.86 24.331,1079.3L24.331,1082.85L20.78,1082.85C19.34,1082.85 18.046,1081.99 17.495,1080.66C16.944,1079.33 17.244,1077.81 18.263,1076.79C19.281,1075.77 20.808,1075.46 22.138,1076.01ZM41.863,1076.01C43.193,1075.46 44.712,1075.77 45.731,1076.79C46.749,1077.81 47.057,1079.33 46.506,1080.66C45.955,1081.99 44.661,1082.85 43.221,1082.85L39.67,1082.85L39.67,1079.3C39.67,1077.86 40.532,1076.57 41.863,1076.01ZM27.328,1085.85L36.673,1085.85L36.673,1095.19L27.328,1095.19L27.328,1085.85ZM20.78,1098.19L24.331,1098.19L24.331,1101.74C24.331,1103.18 23.469,1104.47 22.138,1105.03C20.808,1105.58 19.281,1105.27 18.263,1104.25C17.244,1103.23 16.944,1101.71 17.495,1100.38C18.046,1099.05 19.34,1098.19 20.78,1098.19ZM39.67,1098.19L43.221,1098.19C44.661,1098.19 45.955,1099.05 46.506,1100.38C47.057,1101.71 46.749,1103.23 45.731,1104.25C44.712,1105.27 43.193,1105.58 41.863,1105.03C40.532,1104.47 39.67,1103.18 39.67,1101.74L39.67,1098.19Z" style="fill:none;fill-rule:nonzero;stroke:black;stroke-width:1px;"/>
    </g>
    <defs>
        <linearGradient id="_Linear1" x1="0" y1="0" x2="1" y2="0" gradientUnits="userSpaceOnUse" gradientTransform="matrix(4.16743e-15,68.0593,-68.0593,4.16743e-15,33.9502,1051.46)"><stop offset="0" style="stop-color:rgb(77,77,77);stop-opacity:1"/><stop offset="1" style="stop-color:rgb(51,51,51);stop-opacity:1"/></linearGradient>
    </defs>
</svg>
