<svg xmlns="http://www.w3.org/2000/svg" width="100%" height="100%" viewBox="0 0 64 64" fill-rule="evenodd" stroke-linecap="round" stroke-linejoin="round" xmlns:v="https://vecta.io/nano"><style><![CDATA[.B{stroke-opacity:.99}.C{fill:#ececec}.D{fill-opacity:.99}.E{stroke-miterlimit:1.5}]]></style><path d="M6 12h52v40H6z" fill="#d4d4d4"/><path d="M6 30h7v16H6zm0-13.5h7v12.359H6z" class="C D"/><path d="M50 12H14v34.002h1V13h35v-1z" fill-opacity=".2"/><g class="C"><path d="M5.5 12.141h53V16.5h-53z"/><path d="M6 47.977h52V52H6z" class="D"/></g><path d="M17.108 19.14h29.783v22.92H17.108z" fill="#fff"/><g fill="none" stroke="#555761" class="B"><path d="M17.5 19.5h29v23h-29z" stroke-width=".99"/><path d="M58 16.5H6m7.5 12h-8m12 18.5v5m-4-35.5v29.502" class="E"/></g><path d="M51 37h7v9h-7zm0-20h7v17.989h-7z" class="C D"/><g fill="none" stroke="#555761" class="B"><path d="M50.5 16.5v29.502" class="E"/><path d="M5.5 46.5h53v6h-53z" stroke-width=".99"/><path d="M50.5 35.489l8 .011" class="E"/><path d="M5.5 11.558h53V52.5h-53z" stroke-width="1.01"/></g></svg>