<svg xmlns="http://www.w3.org/2000/svg" xml:space="preserve" style="fill-rule:evenodd;clip-rule:evenodd;stroke-linecap:round;stroke-linejoin:round" viewBox="0 0 64 64"><path d="M5.95 41.99h52.11v11.53H5.95z" style="fill:url(#a)"/><path d="M5.95 52.12h52.11v1.4H5.95z" style="fill:#d48e15"/><path d="M5.95 42.55h52.11v10.97H5.95z" style="fill:none;stroke:#ad5f00;stroke-width:.98px"/><path d="M42 45.5c0-.87-.8-1.58-1.77-1.58h-1.46c-.98 0-1.77.71-1.77 1.57v5.06c0 .87.8 1.57 1.77 1.57h1.46c.98 0 1.77-.7 1.77-1.57v-5.06Z" style="fill:#ffe16b;stroke:#ad5f00;stroke-width:1px"/><path d="M5.95 30.45h52.11v11.53H5.95z" style="fill:url(#b)"/><path d="M5.95 40.59h52.11v1.4H5.95z" style="fill:#3a9104"/><path d="M5.95 31.03h52.11v10.95H5.95z" style="fill:none;stroke:#206b00;stroke-width:.98px"/><path d="M29.23 33.97c0-.87-.79-1.57-1.77-1.57H26c-.98 0-1.77.7-1.77 1.57v5.05c0 .86.8 1.57 1.77 1.57h1.46c.98 0 1.77-.71 1.77-1.57v-5.05Z" style="fill:#9bdb4d;stroke:#206b00;stroke-width:1px;stroke-linecap:butt;stroke-miterlimit:2"/><path d="M5.95 18.92h52.11v11.53H5.95z" style="fill:url(#c)"/><path d="M5.95 29.06h52.11v1.4H5.95z" style="fill:#0d52bf"/><path d="M49 22.43c0-.87-.8-1.57-1.77-1.57h-1.46c-.98 0-1.77.7-1.77 1.57v5.07c0 .86.8 1.56 1.77 1.56h1.46c.98 0 1.77-.7 1.77-1.56v-5.07Z" style="fill:#64baff;stroke:#002e99;stroke-width:1px;stroke-linecap:butt;stroke-miterlimit:2"/><path d="M5.95 19.5h52.11v10.96H5.95z" style="fill:none;stroke:#002e99;stroke-width:.98px"/><path d="M5.95 10.48h52.11v8.44H5.95z" style="fill:#d4d4d4"/><path d="M5.95 16.92h52.11v2H5.95z" style="fill:#7e8087"/><path d="M5.95 10.48h52.11v8.44H5.95z" style="fill:none;stroke:#5b5b5b;stroke-width:1px"/><path d="M22.73 10.48h7.7v43.04h-7.7z" style="fill:#ed5353;fill-opacity:.75"/><path d="M22.73 10.48h7.7v43.04h-7.7z" style="fill:none;stroke:#7a0000;stroke-width:1px"/><defs><linearGradient id="a" x1="0" x2="1" y1="0" y2="0" gradientTransform="rotate(-89.1 47.08 14.75) scale(19.88)" gradientUnits="userSpaceOnUse"><stop offset="0" style="stop-color:#d48e15;stop-opacity:1"/><stop offset="1" style="stop-color:#f9c440;stop-opacity:1"/></linearGradient><linearGradient id="b" x1="0" x2="1" y1="0" y2="0" gradientTransform="rotate(-89.21 39.04 7.69) scale(16.353)" gradientUnits="userSpaceOnUse"><stop offset="0" style="stop-color:#3a9104;stop-opacity:1"/><stop offset="1" style="stop-color:#68b723;stop-opacity:1"/></linearGradient><linearGradient id="c" x1="0" x2="1" y1="0" y2="0" gradientTransform="rotate(-90.43 36.46 5.01) scale(22.787)" gradientUnits="userSpaceOnUse"><stop offset="0" style="stop-color:#0d52bf;stop-opacity:1"/><stop offset="1" style="stop-color:#3689e6;stop-opacity:.99"/></linearGradient></defs></svg>