<svg xmlns="http://www.w3.org/2000/svg" width="100%" height="100%" viewBox="0 0 64 64" fill-rule="evenodd" stroke-linecap="round" stroke-linejoin="round" xmlns:v="https://vecta.io/nano"><path d="M5.947 11.42h52.106v41.161H5.947z" fill="#d4d4d4"/><path d="M5.947 30.001h8.285v16.298H5.947zm0-17.441h8.285v16.298H5.947z" fill="#b6b6b6"/><path d="M14.108 11.639h35.658v1.502H14.108z" fill-opacity=".2"/><path d="M15.735 13.144v32.858h-1.502V13.144z" fill-opacity=".2"/><path d="M5.947 47.3h52.106v5.281H5.947z" fill="#b6b6b6"/><path d="M17.108 17.14h29.783v22.92H17.108z" fill="#fff"/><g fill="none" stroke="#5b5b5b"><path d="M17.108 17.14h29.783v22.92H17.108z"/><path d="M14.108 28.86h-8.16m11.16 17.44v6.285m-3-41.167l.125 34.732" stroke-miterlimit="1.5"/></g><path d="M49.768 36.557h8.285v9.742h-8.285zm0-23.997h8.285v10.45h-8.285zm0 11.72h8.285v11.007h-8.285z" fill="#b6b6b6"/><g fill="none" stroke="#5b5b5b"><path d="M49.768 11.42v34.878" stroke-miterlimit="1.5"/><path d="M5.947 46.3h52.106v6.285H5.947z"/><path d="M49.769 23.013l8.285-.003m-8.285 12.28h8.284" stroke-miterlimit="1.5"/><path d="M5.947 11.42h52.106v41.161H5.947z"/></g></svg>