<?xml version="1.0" encoding="UTF-8" standalone="no"?>
<!DOCTYPE svg PUBLIC "-//W3C//DTD SVG 1.1//EN" "http://www.w3.org/Graphics/SVG/1.1/DTD/svg11.dtd">
<svg width="100%" height="100%" viewBox="0 0 64 64" version="1.1" xmlns="http://www.w3.org/2000/svg" xmlns:xlink="http://www.w3.org/1999/xlink" xml:space="preserve" xmlns:serif="http://www.serif.com/" style="fill-rule:evenodd;clip-rule:evenodd;stroke-linecap:round;stroke-linejoin:round;">
    <g id="Layer-1" serif:id="Layer 1" transform="matrix(1,0,0,1,0,-1058.52)">
        <path id="rect2676" d="M33.95,1074.15C33.95,1073.05 33.054,1072.15 31.95,1072.15L18.224,1072.15C17.12,1072.15 16.224,1073.05 16.224,1074.15L16.224,1087.88C16.224,1088.98 17.12,1089.88 18.224,1089.88L31.95,1089.88C33.054,1089.88 33.95,1088.98 33.95,1087.88L33.95,1074.15Z" style="fill:rgb(126,128,135);"/>
        <path id="rect2710" d="M33.95,1074.15C33.95,1073.05 33.054,1072.15 31.95,1072.15L18.224,1072.15C17.12,1072.15 16.224,1073.05 16.224,1074.15L16.224,1087.88C16.224,1088.98 17.12,1089.88 18.224,1089.88L31.95,1089.88C33.054,1089.88 33.95,1088.98 33.95,1087.88L33.95,1074.15Z" style="fill:none;stroke:black;stroke-width:1px;"/>
        <path id="use2678" d="M20.727,1096.84C20.727,1095.74 19.83,1094.84 18.727,1094.84L5,1094.84C3.896,1094.84 3,1095.74 3,1096.84L3,1110.57C3,1111.67 3.896,1112.57 5,1112.57L18.727,1112.57C19.83,1112.57 20.727,1111.67 20.727,1110.57L20.727,1096.84Z" style="fill:rgb(126,128,135);"/>
        <path id="rect2712" d="M20.727,1096.84C20.727,1095.74 19.83,1094.84 18.727,1094.84L5,1094.84C3.896,1094.84 3,1095.74 3,1096.84L3,1110.57C3,1111.67 3.896,1112.57 5,1112.57L18.727,1112.57C19.83,1112.57 20.727,1111.67 20.727,1110.57L20.727,1096.84Z" style="fill:none;stroke:black;stroke-width:1px;"/>
        <path id="use2680" d="M40.863,1096.84C40.863,1095.74 39.967,1094.84 38.863,1094.84L25.137,1094.84C24.033,1094.84 23.137,1095.74 23.137,1096.84L23.137,1110.57C23.137,1111.67 24.033,1112.57 25.137,1112.57L38.863,1112.57C39.967,1112.57 40.863,1111.67 40.863,1110.57L40.863,1096.84Z" style="fill:rgb(126,128,135);"/>
        <path id="rect2714" d="M40.863,1096.84C40.863,1095.74 39.967,1094.84 38.863,1094.84L25.137,1094.84C24.033,1094.84 23.137,1095.74 23.137,1096.84L23.137,1110.57C23.137,1111.67 24.033,1112.57 25.137,1112.57L38.863,1112.57C39.967,1112.57 40.863,1111.67 40.863,1110.57L40.863,1096.84Z" style="fill:none;stroke:black;stroke-width:1px;"/>
        <path id="use2682" d="M61,1096.84C61,1095.74 60.104,1094.84 59,1094.84L45.273,1094.84C44.17,1094.84 43.273,1095.74 43.273,1096.84L43.273,1110.57C43.273,1111.67 44.17,1112.57 45.273,1112.57L59,1112.57C60.104,1112.57 61,1111.67 61,1110.57L61,1096.84Z" style="fill:rgb(126,128,135);"/>
        <path id="rect2662" d="M33.95,1071.33C33.95,1070.22 33.054,1069.33 31.95,1069.33L18.224,1069.33C17.12,1069.33 16.224,1070.22 16.224,1071.33L16.224,1085.05C16.224,1086.16 17.12,1087.05 18.224,1087.05L31.95,1087.05C33.054,1087.05 33.95,1086.16 33.95,1085.05L33.95,1071.33Z" style="fill:url(#_Linear1);"/>
        <g id="use2670" transform="matrix(1,0,0,1,-13.2235,22.512)">
            <path d="M33.95,1071.33C33.95,1070.22 33.054,1069.33 31.95,1069.33L18.224,1069.33C17.12,1069.33 16.224,1070.22 16.224,1071.33L16.224,1085.05C16.224,1086.16 17.12,1087.05 18.224,1087.05L31.95,1087.05C33.054,1087.05 33.95,1086.16 33.95,1085.05L33.95,1071.33Z" style="fill:url(#_Linear2);"/>
        </g>
        <g id="use2672" transform="matrix(1,0,0,1,6.91312,22.512)">
            <path d="M33.95,1071.33C33.95,1070.22 33.054,1069.33 31.95,1069.33L18.224,1069.33C17.12,1069.33 16.224,1070.22 16.224,1071.33L16.224,1085.05C16.224,1086.16 17.12,1087.05 18.224,1087.05L31.95,1087.05C33.054,1087.05 33.95,1086.16 33.95,1085.05L33.95,1071.33Z" style="fill:url(#_Linear3);"/>
        </g>
        <path id="rect2716" d="M61,1096.84C61,1095.74 60.104,1094.84 59,1094.84L45.273,1094.84C44.169,1094.84 43.273,1095.74 43.273,1096.84L43.273,1110.57C43.273,1111.67 44.169,1112.57 45.273,1112.57L59,1112.57C60.104,1112.57 61,1111.67 61,1110.57L61,1096.84Z" style="fill:none;stroke:black;stroke-width:1px;"/>
        <g id="use2674" transform="matrix(1,0,0,1,27.0498,22.512)">
            <path d="M33.95,1071.33C33.95,1070.22 33.054,1069.33 31.95,1069.33L18.224,1069.33C17.12,1069.33 16.224,1070.22 16.224,1071.33L16.224,1085.05C16.224,1086.16 17.12,1087.05 18.224,1087.05L31.95,1087.05C33.054,1087.05 33.95,1086.16 33.95,1085.05L33.95,1071.33Z" style="fill:url(#_Linear4);"/>
        </g>
        <path id="rect2718" d="M18.223,1069.15C17.115,1069.15 16.223,1070.04 16.223,1071.15L16.223,1073.15C16.223,1072.04 17.115,1071.15 18.223,1071.15L31.951,1071.15C33.059,1071.15 33.951,1072.04 33.951,1073.15L33.951,1071.15C33.951,1070.04 33.059,1069.15 31.951,1069.15L18.223,1069.15Z" style="fill:rgb(250,250,250);fill-rule:nonzero;"/>
        <path id="rect2702" d="M33.95,1071.15C33.95,1070.05 33.054,1069.15 31.95,1069.15L18.224,1069.15C17.12,1069.15 16.224,1070.05 16.224,1071.15L16.224,1084.88C16.224,1085.98 17.12,1086.88 18.224,1086.88L31.95,1086.88C33.054,1086.88 33.95,1085.98 33.95,1084.88L33.95,1071.15Z" style="fill:none;stroke:black;stroke-width:1px;"/>
        <path id="path2736" d="M4.948,1091.84C3.84,1091.84 2.948,1092.73 2.948,1093.84L2.948,1095.84C2.948,1094.73 3.84,1093.84 4.948,1093.84L18.677,1093.84C19.785,1093.84 20.677,1094.73 20.677,1095.84L20.677,1093.84C20.677,1092.73 19.785,1091.84 18.677,1091.84L4.948,1091.84Z" style="fill:rgb(250,250,250);fill-rule:nonzero;"/>
        <g id="use2704" transform="matrix(1,0,0,1,-13.2235,22.6906)">
            <path d="M33.95,1071.15C33.95,1070.05 33.054,1069.15 31.95,1069.15L18.224,1069.15C17.12,1069.15 16.224,1070.05 16.224,1071.15L16.224,1084.88C16.224,1085.98 17.12,1086.88 18.224,1086.88L31.95,1086.88C33.054,1086.88 33.95,1085.98 33.95,1084.88L33.95,1071.15Z" style="fill:none;stroke:black;stroke-width:1px;"/>
        </g>
        <path id="path2738" d="M25.085,1091.84C23.977,1091.84 23.085,1092.73 23.085,1093.84L23.085,1095.84C23.085,1094.73 23.977,1093.84 25.085,1093.84L38.814,1093.84C39.922,1093.84 40.814,1094.73 40.814,1095.84L40.814,1093.84C40.814,1092.73 39.922,1091.84 38.814,1091.84L25.085,1091.84Z" style="fill:rgb(250,250,250);fill-rule:nonzero;"/>
        <g id="use2706" transform="matrix(1,0,0,1,6.91312,22.6906)">
            <path d="M33.95,1071.15C33.95,1070.05 33.054,1069.15 31.95,1069.15L18.224,1069.15C17.12,1069.15 16.224,1070.05 16.224,1071.15L16.224,1084.88C16.224,1085.98 17.12,1086.88 18.224,1086.88L31.95,1086.88C33.054,1086.88 33.95,1085.98 33.95,1084.88L33.95,1071.15Z" style="fill:none;stroke:black;stroke-width:1px;"/>
        </g>
        <path id="path2740" d="M45.222,1091.84C44.114,1091.84 43.222,1092.73 43.222,1093.84L43.222,1095.84C43.222,1094.73 44.114,1093.84 45.222,1093.84L58.95,1093.84C60.058,1093.84 60.95,1094.73 60.95,1095.84L60.95,1093.84C60.95,1092.73 60.058,1091.84 58.95,1091.84L45.222,1091.84Z" style="fill:rgb(250,250,250);fill-rule:nonzero;"/>
        <g id="use2708" transform="matrix(1,0,0,1,27.0498,22.6906)">
            <path d="M33.95,1071.15C33.95,1070.05 33.054,1069.15 31.95,1069.15L18.224,1069.15C17.12,1069.15 16.224,1070.05 16.224,1071.15L16.224,1084.88C16.224,1085.98 17.12,1086.88 18.224,1086.88L31.95,1086.88C33.054,1086.88 33.95,1085.98 33.95,1084.88L33.95,1071.15Z" style="fill:none;stroke:black;stroke-width:1px;"/>
        </g>
    </g>
    <defs>
        <linearGradient id="_Linear1" x1="0" y1="0" x2="1" y2="0" gradientUnits="userSpaceOnUse" gradientTransform="matrix(0.932879,-27.5512,27.5512,0.932879,26.8933,1087.05)"><stop offset="0" style="stop-color:rgb(212,212,212);stop-opacity:1"/><stop offset="1" style="stop-color:rgb(250,250,250);stop-opacity:1"/></linearGradient>
        <linearGradient id="_Linear2" x1="0" y1="0" x2="1" y2="0" gradientUnits="userSpaceOnUse" gradientTransform="matrix(0.932879,-27.5512,27.5512,0.932879,26.8933,1087.05)"><stop offset="0" style="stop-color:rgb(212,212,212);stop-opacity:1"/><stop offset="1" style="stop-color:rgb(250,250,250);stop-opacity:1"/></linearGradient>
        <linearGradient id="_Linear3" x1="0" y1="0" x2="1" y2="0" gradientUnits="userSpaceOnUse" gradientTransform="matrix(0.932879,-27.5512,27.5512,0.932879,26.8933,1087.05)"><stop offset="0" style="stop-color:rgb(212,212,212);stop-opacity:1"/><stop offset="1" style="stop-color:rgb(250,250,250);stop-opacity:1"/></linearGradient>
        <linearGradient id="_Linear4" x1="0" y1="0" x2="1" y2="0" gradientUnits="userSpaceOnUse" gradientTransform="matrix(0.932879,-27.5512,27.5512,0.932879,26.8933,1087.05)"><stop offset="0" style="stop-color:rgb(212,212,212);stop-opacity:1"/><stop offset="1" style="stop-color:rgb(250,250,250);stop-opacity:1"/></linearGradient>
    </defs>
</svg>
