<?xml version="1.0" encoding="UTF-8" standalone="no"?>
<!DOCTYPE svg PUBLIC "-//W3C//DTD SVG 1.1//EN" "http://www.w3.org/Graphics/SVG/1.1/DTD/svg11.dtd">
<svg width="100%" height="100%" viewBox="0 0 64 64" version="1.1" xmlns="http://www.w3.org/2000/svg" xmlns:xlink="http://www.w3.org/1999/xlink" xml:space="preserve" xmlns:serif="http://www.serif.com/" style="fill-rule:evenodd;clip-rule:evenodd;stroke-linecap:round;stroke-linejoin:round;">
    <g id="Layer-1" serif:id="Layer 1" transform="matrix(1,0,0,1,0,-1058.52)">
        <rect id="rect1058" x="5.947" y="1092.31" width="52.106" height="25.023" style="fill:rgb(198,38,46);"/>
        <rect id="rect1170" x="5.947" y="1115.84" width="52.105" height="1.5" style="fill:rgb(161,7,5);fill-rule:nonzero;"/>
        <path id="path1144" d="M18.263,1065.2C17.38,1065.2 16.536,1065.42 15.768,1065.95C14.999,1066.47 14.232,1067.48 14.232,1068.75L14.232,1081.91C14.235,1083.28 15.364,1084.4 16.735,1084.4C18.102,1084.4 19.227,1083.28 19.23,1081.91L19.23,1070.21L44.742,1070.21L44.742,1081.91C44.744,1083.28 45.874,1084.4 47.244,1084.4C48.612,1084.4 49.736,1083.28 49.739,1081.91L49.739,1068.75C49.739,1067.48 48.972,1066.47 48.204,1065.95C47.435,1065.42 46.591,1065.2 45.709,1065.2L18.263,1065.2Z" style="fill:rgb(171,172,174);fill-rule:nonzero;"/>
        <path id="path1153" d="M18.794,1068.71L18.77,1070.21L45.237,1070.21L45.282,1068.73L18.794,1068.71Z" style="fill:rgb(126,128,135);fill-rule:nonzero;"/>
        <path id="path1148" d="M18.264,1065.2C17.381,1065.2 16.536,1065.42 15.768,1065.95C14.999,1066.47 14.232,1067.48 14.232,1068.75L14.232,1070.25C14.232,1068.98 14.999,1067.97 15.768,1067.45C16.536,1066.93 17.381,1066.7 18.264,1066.7L45.709,1066.7C46.592,1066.7 47.435,1066.92 48.203,1067.45C48.971,1067.97 49.738,1068.98 49.738,1070.25L49.738,1068.75C49.738,1067.48 48.971,1066.47 48.203,1065.95C47.435,1065.42 46.592,1065.2 45.709,1065.2L18.264,1065.2Z" style="fill:rgb(212,212,212);fill-rule:nonzero;"/>
        <path id="path1146" d="M18.263,1065.2C17.38,1065.2 16.536,1065.42 15.768,1065.95C14.999,1066.47 14.232,1067.48 14.232,1068.75L14.232,1081.91C14.235,1083.28 19.227,1083.28 19.23,1081.91L19.23,1070.21L44.742,1070.21L44.742,1081.91C44.744,1083.28 49.736,1083.28 49.739,1081.91L49.739,1068.75C49.739,1067.48 48.972,1066.47 48.204,1065.95C47.435,1065.42 46.591,1065.2 45.709,1065.2L18.263,1065.2Z" style="fill:none;fill-rule:nonzero;stroke:rgb(85,87,97);stroke-width:1px;"/>
        <path id="rect1062" d="M8.89,1077.09L55.11,1077.09L58.054,1092.31L5.946,1092.31L8.89,1077.09Z" style="fill:rgb(198,38,46);fill-rule:nonzero;"/>
        <path id="rect1068" d="M22.871,1063.7L41.129,1063.7C42.514,1063.7 43.629,1064.82 43.629,1066.2L43.629,1068.67C43.629,1070.06 42.514,1071.17 41.129,1071.17L22.871,1071.17C21.486,1071.17 20.371,1070.06 20.371,1068.67L20.371,1066.2C20.371,1064.82 21.486,1063.7 22.871,1063.7Z" style="fill:rgb(113,83,68);fill-rule:nonzero;"/>
        <path id="path1193" d="M22.871,1063.7C21.486,1063.7 20.371,1064.82 20.371,1066.2L20.371,1067.7C20.371,1066.32 21.486,1065.2 22.871,1065.2L41.129,1065.2C42.514,1065.2 43.629,1066.32 43.629,1067.7L43.629,1066.2C43.629,1064.82 42.514,1063.7 41.129,1063.7L22.871,1063.7Z" style="fill:rgb(138,113,94);fill-rule:nonzero;"/>
        <path id="path1188" d="M22.871,1063.7L41.129,1063.7C42.514,1063.7 43.629,1064.82 43.629,1066.2L43.629,1068.67C43.629,1070.06 42.514,1071.17 41.129,1071.17L22.871,1071.17C21.486,1071.17 20.371,1070.06 20.371,1068.67L20.371,1066.2C20.371,1064.82 21.486,1063.7 22.871,1063.7Z" style="fill:none;fill-rule:nonzero;stroke:rgb(61,33,27);stroke-width:1px;"/>
        <rect id="rect1158" x="5.947" y="1092.31" width="52.105" height="1.5" style="fill:rgb(237,84,84);fill-rule:nonzero;"/>
        <path id="path1160" d="M8.891,1077.09L5.947,1092.31L6.236,1092.31L8.891,1078.59L55.109,1078.59L57.764,1092.31L58.053,1092.31L55.109,1077.09L8.891,1077.09Z" style="fill:rgb(237,84,84);fill-rule:nonzero;"/>
        <rect id="rect1136" x="5.947" y="1092.31" width="52.106" height="25.023" style="fill:none;stroke:rgb(122,0,0);stroke-width:1px;"/>
        <path id="path1138" d="M8.89,1077.09L55.11,1077.09L58.054,1092.31L5.946,1092.31L8.89,1077.09Z" style="fill:none;fill-rule:nonzero;stroke:rgb(122,0,0);stroke-width:1px;"/>
        <rect id="rect1177" x="5.947" y="1092.31" width="52.106" height="25.023" style="fill:url(#_Linear1);"/>
        <path id="path1189" d="M8.89,1077.09L55.11,1077.09L58.054,1092.31L5.946,1092.31L8.89,1077.09Z" style="fill:url(#_Linear2);fill-rule:nonzero;"/>
        <path id="rect1121" d="M23.053,1092.51C23.053,1091.13 21.933,1090.01 20.553,1090.01L16.731,1090.01C15.352,1090.01 14.231,1091.13 14.231,1092.51L14.231,1098.12C14.231,1099.5 15.352,1100.62 16.731,1100.62L20.553,1100.62C21.933,1100.62 23.053,1099.5 23.053,1098.12L23.053,1092.51Z" style="fill-opacity:0.15;"/>
        <path id="rect1123" d="M49.743,1092.51C49.743,1091.13 48.623,1090.01 47.243,1090.01L43.421,1090.01C42.041,1090.01 40.921,1091.13 40.921,1092.51L40.921,1098.12C40.921,1099.5 42.041,1100.62 43.421,1100.62L47.243,1100.62C48.623,1100.62 49.743,1099.5 49.743,1098.12L49.743,1092.51Z" style="fill-opacity:0.15;"/>
        <path id="rect1072" d="M23.053,1089.51C23.053,1088.13 21.933,1087.01 20.553,1087.01L16.732,1087.01C15.352,1087.01 14.232,1088.13 14.232,1089.51L14.232,1095.12C14.232,1096.5 15.352,1097.62 16.732,1097.62L20.553,1097.62C21.933,1097.62 23.053,1096.5 23.053,1095.12L23.053,1089.51Z" style="fill:rgb(171,172,174);"/>
        <path id="rect1084" d="M49.743,1089.51C49.743,1088.13 48.623,1087.01 47.243,1087.01L43.421,1087.01C42.042,1087.01 40.921,1088.13 40.921,1089.51L40.921,1095.12C40.921,1096.5 42.042,1097.62 43.421,1097.62L47.243,1097.62C48.623,1097.62 49.743,1096.5 49.743,1095.12L49.743,1089.51Z" style="fill:rgb(171,172,174);"/>
        <path id="rect1093" d="M16.732,1087.01C15.347,1087.01 14.232,1088.12 14.232,1089.51L14.232,1091.01C14.232,1089.62 15.347,1088.51 16.732,1088.51L20.554,1088.51C21.939,1088.51 23.054,1089.62 23.054,1091.01L23.054,1089.51C23.054,1088.12 21.939,1087.01 20.554,1087.01L16.732,1087.01Z" style="fill:rgb(212,212,212);fill-rule:nonzero;"/>
        <path id="rect1107" d="M14.232,1093.62L14.232,1095.12C14.232,1096.5 15.347,1097.62 16.732,1097.62L20.554,1097.62C21.939,1097.62 23.054,1096.5 23.054,1095.12L23.054,1093.62C23.054,1095 21.939,1096.12 20.554,1096.12L16.732,1096.12C15.347,1096.12 14.232,1095 14.232,1093.62Z" style="fill:rgb(126,128,135);fill-rule:nonzero;"/>
        <path id="rect1086" d="M23.053,1089.51C23.053,1088.13 21.933,1087.01 20.553,1087.01L16.732,1087.01C15.352,1087.01 14.232,1088.13 14.232,1089.51L14.232,1095.12C14.232,1096.5 15.352,1097.62 16.732,1097.62L20.553,1097.62C21.933,1097.62 23.053,1096.5 23.053,1095.12L23.053,1089.51Z" style="fill:none;stroke:rgb(85,87,97);stroke-width:1px;"/>
        <path id="rect1095" d="M43.421,1087.01C42.036,1087.01 40.921,1088.12 40.921,1089.51L40.921,1091.01C40.921,1089.62 42.036,1088.51 43.421,1088.51L47.243,1088.51C48.628,1088.51 49.743,1089.62 49.743,1091.01L49.743,1089.51C49.743,1088.12 48.628,1087.01 47.243,1087.01L43.421,1087.01Z" style="fill:rgb(212,212,212);fill-rule:nonzero;"/>
        <path id="rect1109" d="M40.921,1093.62L40.921,1095.12C40.921,1096.5 42.036,1097.62 43.421,1097.62L47.243,1097.62C48.628,1097.62 49.743,1096.5 49.743,1095.12L49.743,1093.62C49.743,1095 48.628,1096.12 47.243,1096.12L43.421,1096.12C42.036,1096.12 40.921,1095 40.921,1093.62Z" style="fill:rgb(126,128,135);fill-rule:nonzero;"/>
        <path id="rect1088" d="M49.743,1089.51C49.743,1088.13 48.623,1087.01 47.243,1087.01L43.421,1087.01C42.042,1087.01 40.921,1088.13 40.921,1089.51L40.921,1095.12C40.921,1096.5 42.042,1097.62 43.421,1097.62L47.243,1097.62C48.623,1097.62 49.743,1096.5 49.743,1095.12L49.743,1089.51Z" style="fill:none;stroke:rgb(85,87,97);stroke-width:1px;"/>
    </g>
    <defs>
        <linearGradient id="_Linear1" x1="0" y1="0" x2="1" y2="0" gradientUnits="userSpaceOnUse" gradientTransform="matrix(-0.337472,-24.3533,24.3533,-0.337472,32.3375,1117.34)"><stop offset="0" style="stop-color:black;stop-opacity:0.2"/><stop offset="1" style="stop-color:white;stop-opacity:0"/></linearGradient>
        <linearGradient id="_Linear2" x1="0" y1="0" x2="1" y2="0" gradientUnits="userSpaceOnUse" gradientTransform="matrix(-1.655,-26.4382,26.4382,-1.655,33.6404,1102.99)"><stop offset="0" style="stop-color:black;stop-opacity:0.2"/><stop offset="1" style="stop-color:white;stop-opacity:0"/></linearGradient>
    </defs>
</svg>
