<?xml version="1.0" encoding="UTF-8" standalone="no"?>
<!DOCTYPE svg PUBLIC "-//W3C//DTD SVG 1.1//EN" "http://www.w3.org/Graphics/SVG/1.1/DTD/svg11.dtd">
<svg width="100%" height="100%" viewBox="0 0 64 64" version="1.1" xmlns="http://www.w3.org/2000/svg" xmlns:xlink="http://www.w3.org/1999/xlink" xml:space="preserve" xmlns:serif="http://www.serif.com/" style="fill-rule:evenodd;clip-rule:evenodd;stroke-linecap:round;stroke-linejoin:round;">
    <g id="Layer-1" serif:id="Layer 1" transform="matrix(1,0,0,1,0,-1058.52)">
        <rect id="rect3693" x="5.947" y="1069.94" width="52.106" height="41.161" style="fill:rgb(212,212,212);"/>
        <rect id="rect3717" x="5.947" y="1104.82" width="52.106" height="6.285" style="fill:rgb(171,172,174);"/>
        <rect id="rect3703" x="5.947" y="1087.38" width="8.285" height="17.438" style="fill:rgb(171,172,174);"/>
        <rect id="rect3695" x="5.947" y="1069.94" width="8.285" height="17.438" style="fill:rgb(171,172,174);"/>
        <rect id="rect3749" x="17.108" y="1077.16" width="29.783" height="22.92" style="fill-opacity:0.2;"/>
        <rect id="rect3697" x="17.108" y="1075.66" width="29.783" height="22.92" style="fill:rgb(250,250,250);"/>
        <rect id="rect3751" x="17.108" y="1075.66" width="29.783" height="1.502" style="fill:white;fill-rule:nonzero;"/>
        <rect id="rect3699" x="17.108" y="1075.66" width="29.783" height="22.92" style="fill:none;stroke:rgb(85,87,97);stroke-width:1px;"/>
        <rect id="rect3793" x="5.948" y="1087.38" width="8.285" height="1" style="fill:rgb(212,212,212);fill-rule:nonzero;"/>
        <rect id="rect3705" x="5.947" y="1087.38" width="8.285" height="17.438" style="fill:none;stroke:rgb(77,77,77);stroke-width:1px;"/>
        <rect id="rect3795" x="5.948" y="1069.94" width="8.285" height="1" style="fill:rgb(212,212,212);fill-rule:nonzero;"/>
        <rect id="rect3707" x="5.947" y="1069.94" width="8.285" height="17.438" style="fill:none;stroke:rgb(77,77,77);stroke-width:1px;"/>
        <rect id="rect3709" x="49.768" y="1093.81" width="8.285" height="11.009" style="fill:rgb(171,172,174);"/>
        <rect id="rect3711" x="49.768" y="1069.94" width="8.285" height="11.59" style="fill:rgb(171,172,174);"/>
        <rect id="path5489" x="49.768" y="1093.81" width="8.285" height="1" style="fill:rgb(212,212,212);fill-rule:nonzero;"/>
        <rect id="rect3713" x="49.768" y="1093.81" width="8.285" height="11.009" style="fill:none;stroke:rgb(77,77,77);stroke-width:1px;"/>
        <rect id="rect3799" x="49.768" y="1069.94" width="8.285" height="1" style="fill:rgb(212,212,212);fill-rule:nonzero;"/>
        <rect id="rect3715" x="49.768" y="1069.94" width="8.285" height="11.59" style="fill:none;stroke:rgb(77,77,77);stroke-width:1px;"/>
        <rect id="rect3758" x="5.948" y="1104.82" width="52.105" height="1" style="fill:rgb(212,212,212);fill-rule:nonzero;"/>
        <rect id="rect3735" x="5.947" y="1104.82" width="52.106" height="6.285" style="fill:none;stroke:rgb(77,77,77);stroke-width:1px;"/>
        <rect id="rect5485" x="49.768" y="1081.53" width="8.285" height="12.277" style="fill:rgb(171,172,174);"/>
        <rect id="rect3797" x="49.768" y="1081.53" width="8.285" height="1" style="fill:rgb(212,212,212);fill-rule:nonzero;"/>
        <rect id="rect5487" x="49.768" y="1081.53" width="8.285" height="12.277" style="fill:none;stroke:rgb(77,77,77);stroke-width:1px;"/>
        <rect id="rect3701" x="5.947" y="1069.94" width="52.106" height="41.161" style="fill:none;stroke:black;stroke-width:1px;"/>
    </g>
</svg>
