<svg xmlns="http://www.w3.org/2000/svg" xmlns:xlink="http://www.w3.org/1999/xlink" width="100%" height="100%" viewBox="0 0 64 64" fill-rule="evenodd" stroke-linecap="round" stroke-linejoin="round" xmlns:v="https://vecta.io/nano"><style><![CDATA[.B{fill-opacity:.99}.C{stroke-opacity:.99}.D{stroke:#555761}.E{fill:#7e8087}.F{fill:#b6b6b6}.G{fill:#ececec}]]></style><path d="M30.5 15.77c0-1.1-.446-2.14-1.55-2.14H15.224c-1.104 0-1.724 1.04-1.724 2.14V29.5c0 1.1.396 2 1.5 2h14c1.104 0 1.5-.9 1.5-2V15.77z" class="B C D E"/><path d="M30.5 12.538c0-1.11-.896-2.038-2-2.038h-13c-1.104 0-2 .924-2 2.034v13.962c0 1.11.896 2.034 2 2.034h13c1.104 0 2-.92 2-2.03V12.538z" class="F"/><path d="M29.5 13.5c0-.976-.52-2-1.5-2H16c-.98 0-1.5 1.024-1.5 2v12c0 .976.52 2 1.5 2h12c.98 0 1.5-1.024 1.5-2v-12z" class="B G"/><g class="D C"><path d="M30.5 12.538c0-1.119-.432-2.038-1.519-2.038H15.469c-1.087 0-1.969.915-1.969 2.034v13.962c0 1.119.882 2.034 1.969 2.034h13.512c1.087 0 1.519-.911 1.519-2.03V12.538z" fill="none"/><path d="M19.5 39.77c0-1.1-.446-2.14-1.55-2.14H4.224c-1.104 0-1.724 1.04-1.724 2.14V53.5c0 1.1.396 2 1.5 2h14c1.104 0 1.5-.9 1.5-2V39.77z" class="B E"/></g><use xlink:href="#B" class="F"/><path d="M18.5 37.5c0-.976-.52-2-1.5-2H5c-.98 0-1.5 1.024-1.5 2v12c0 .976.52 2 1.5 2h12c.98 0 1.5-1.024 1.5-2v-12z" class="B G"/><g class="D C"><path d="M19.5 36.538c0-1.119-.432-2.038-1.519-2.038H4.469c-1.087 0-1.969.915-1.969 2.034v13.962c0 1.119.882 2.034 1.969 2.034h13.512c1.087 0 1.519-.911 1.519-2.03V36.538z" fill="none"/><path d="M40.5 39.77c0-1.1-.446-2.14-1.55-2.14H25.224c-1.104 0-1.724 1.04-1.724 2.14V53.5c0 1.1.396 2 1.5 2h14c1.104 0 1.5-.9 1.5-2V39.77z" class="B E"/></g><use xlink:href="#B" x="21" class="F"/><path d="M39.5 37.5c0-.976-.52-2-1.5-2H26c-.98 0-1.5 1.024-1.5 2v12c0 .976.52 2 1.5 2h12c.98 0 1.5-1.024 1.5-2v-12z" class="B G"/><g class="D C"><path d="M40.5 36.538c0-1.119-.432-2.038-1.519-2.038H25.469c-1.087 0-1.969.915-1.969 2.034v13.962c0 1.119.882 2.034 1.969 2.034h13.512c1.087 0 1.519-.911 1.519-2.03V36.538z" fill="none"/><path d="M61.5 39.77c0-1.1-.446-2.14-1.55-2.14H46.224c-1.104 0-1.724 1.04-1.724 2.14V53.5c0 1.1.396 2 1.5 2h14c1.104 0 1.5-.9 1.5-2V39.77z" class="B E"/></g><use xlink:href="#B" x="42" class="F"/><path d="M60.5 37.5c0-.976-.52-2-1.5-2H47c-.98 0-1.5 1.024-1.5 2v12c0 .976.52 2 1.5 2h12c.98 0 1.5-1.024 1.5-2v-12z" class="B G"/><path d="M61.5 36.538c0-1.119-.432-2.038-1.519-2.038H46.469c-1.087 0-1.969.915-1.969 2.034v13.962c0 1.119.882 2.034 1.969 2.034h13.512c1.087 0 1.519-.911 1.519-2.03V36.538z" fill="none" class="C D"/><defs ><path id="B" d="M19.5 36.538c0-1.11-.896-2.038-2-2.038h-13c-1.104 0-2 .924-2 2.034v13.962c0 1.11.896 2.034 2 2.034h13c1.104 0 2-.92 2-2.03V36.538z"/></defs></svg>