<svg xmlns="http://www.w3.org/2000/svg" xml:space="preserve" style="fill-rule:evenodd;clip-rule:evenodd;stroke-linecap:round;stroke-linejoin:round" viewBox="0 0 64 64"><path d="M30.95 15.63a2 2 0 0 0-2-2H15.22a2 2 0 0 0-2 2v13.73c0 1.1.9 2 2 2h13.73a2 2 0 0 0 2-2V15.63ZM20.73 38.32a2 2 0 0 0-2-2H5a2 2 0 0 0-2 2v13.73c0 1.1.9 2 2 2h13.73a2 2 0 0 0 2-2V38.32Zm20.13 0a2 2 0 0 0-2-2H25.14a2 2 0 0 0-2 2v13.73c0 1.1.9 2 2 2h13.72a2 2 0 0 0 2-2V38.32Z" style="fill:#7e8087;stroke:#5b5b5b;stroke-width:1px"/><path d="M30.95 12.81a2 2 0 0 0-2-2H15.22a2 2 0 0 0-2 2v13.72a2 2 0 0 0 2 2h13.73a2 2 0 0 0 2-2V12.81Z" style="fill:url(#a)"/><path d="M20.73 35.32a2 2 0 0 0-2-2H5a2 2 0 0 0-2 2v13.72a2 2 0 0 0 2 2h13.73a2 2 0 0 0 2-2V35.32Z" style="fill:url(#b)"/><path d="M40.86 35.32a2 2 0 0 0-2-2H25.14a2 2 0 0 0-2 2v13.72a2 2 0 0 0 2 2h13.72a2 2 0 0 0 2-2V35.32Z" style="fill:url(#c)"/><path d="M61 38.32a2 2 0 0 0-2-2H45.27a2 2 0 0 0-2 2v13.73c0 1.1.9 2 2 2H59a2 2 0 0 0 2-2V38.32Z" style="fill:#7e8087;stroke:#5b5b5b;stroke-width:1px"/><path d="M61 35.32a2 2 0 0 0-2-2H45.27a2 2 0 0 0-2 2v13.72a2 2 0 0 0 2 2H59a2 2 0 0 0 2-2V35.32Z" style="fill:url(#d)"/><path d="M15.22 10.63a2 2 0 0 0-2 2v2a2 2 0 0 1 2-2h13.73a2 2 0 0 1 2 2v-2a2 2 0 0 0-2-2H15.22Z" style="fill:#fafafa;fill-rule:nonzero"/><path d="M30.95 12.63a2 2 0 0 0-2-2H15.22a2 2 0 0 0-2 2v13.73c0 1.1.9 2 2 2h13.73a2 2 0 0 0 2-2V12.63Z" style="fill:none;stroke:#5b5b5b;stroke-width:1px"/><path d="M4.95 33.32a2 2 0 0 0-2 2v2a2 2 0 0 1 2-2h13.73a2 2 0 0 1 2 2v-2a2 2 0 0 0-2-2H4.95Z" style="fill:#fafafa;fill-rule:nonzero"/><path d="M20.73 35.32a2 2 0 0 0-2-2H5a2 2 0 0 0-2 2v13.73c0 1.1.9 2 2 2h13.73a2 2 0 0 0 2-2V35.32Z" style="fill:none;stroke:#5b5b5b;stroke-width:1px"/><path d="M25.09 33.32a2 2 0 0 0-2 2v2a2 2 0 0 1 2-2H38.8a2 2 0 0 1 2 2v-2a2 2 0 0 0-2-2H25.08Z" style="fill:#fafafa;fill-rule:nonzero"/><path d="M40.86 35.32a2 2 0 0 0-2-2H25.14a2 2 0 0 0-2 2v13.73c0 1.1.9 2 2 2h13.72a2 2 0 0 0 2-2V35.32Z" style="fill:none;stroke:#5b5b5b;stroke-width:1px"/><path d="M45.22 33.32a2 2 0 0 0-2 2v2a2 2 0 0 1 2-2h13.73a2 2 0 0 1 2 2v-2a2 2 0 0 0-2-2H45.22Z" style="fill:#fafafa;fill-rule:nonzero"/><path d="M61 35.32a2 2 0 0 0-2-2H45.27a2 2 0 0 0-2 2v13.73c0 1.1.9 2 2 2H59a2 2 0 0 0 2-2V35.32Z" style="fill:none;stroke:#5b5b5b;stroke-width:1px"/><defs><linearGradient id="a" x1="0" x2="1" y1="0" y2="0" gradientTransform="rotate(-88.06 26.7 1.9) scale(27.567)" gradientUnits="userSpaceOnUse"><stop offset="0" style="stop-color:#d4d4d4;stop-opacity:1"/><stop offset="1" style="stop-color:#fafafa;stop-opacity:1"/></linearGradient><linearGradient id="b" x1="0" x2="1" y1="0" y2="0" gradientTransform="rotate(-88.06 33.23 18.45) scale(27.567)" gradientUnits="userSpaceOnUse"><stop offset="0" style="stop-color:#d4d4d4;stop-opacity:1"/><stop offset="1" style="stop-color:#fafafa;stop-opacity:1"/></linearGradient><linearGradient id="c" x1="0" x2="1" y1="0" y2="0" gradientTransform="rotate(-88.06 43.3 8.04) scale(27.567)" gradientUnits="userSpaceOnUse"><stop offset="0" style="stop-color:#d4d4d4;stop-opacity:1"/><stop offset="1" style="stop-color:#fafafa;stop-opacity:1"/></linearGradient><linearGradient id="d" x1="0" x2="1" y1="0" y2="0" gradientTransform="rotate(-88.06 53.37 -2.38) scale(27.567)" gradientUnits="userSpaceOnUse"><stop offset="0" style="stop-color:#d4d4d4;stop-opacity:1"/><stop offset="1" style="stop-color:#fafafa;stop-opacity:1"/></linearGradient></defs></svg>