<svg xmlns="http://www.w3.org/2000/svg" width="100%" height="100%" viewBox="0 0 64 64" fill-rule="evenodd" stroke-linecap="round" stroke-linejoin="round" stroke-miterlimit="1.5" xmlns:v="https://vecta.io/nano"><style><![CDATA[.B{stroke-opacity:.99}.C{stroke:#555761}.D{fill-opacity:.99}.E{fill:#ececec}.F{fill:#b6b6b6}]]></style><g class="C E B D"><path d="M9.5 8.5h13v48h-13z"/><path d="M22.5 8.5h31v48h-31z"/><path d="M25.5 32.5h5v5h-5z"/></g><path d="M33 35.5l2.5-2L37 37l3-3.5 2.5 3.5 2.5-2.5 2 1.5 2-2 1.5 2.5" fill="none" class="B C"/><path d="M36.5 16.5a1 1 0 0 0-1-1h-9a1 1 0 1 0 0 2h9a1 1 0 0 0 1-1z" class="B C F"/><g class="E B C D"><circle cx="30" cy="16.5" r="3"/><path d="M38.5 13.5h7v6h-7zm12 .75a.75.75 0 0 0-.75-.75h-1.5a.75.75 0 0 0-.75.75v2.25h3v-2.25z"/><path d="M47.5 18.75a.75.75 0 0 0 .75.75h1.5a.75.75 0 0 0 .75-.75V16.5h-3v2.25z"/></g><path d="M50.5 25.5a1 1 0 0 0-1-1h-23a1 1 0 1 0 0 2h23a1 1 0 0 0 1-1z" class="B C F"/><circle cx="45" cy="25.5" r="3" class="B C D E"/><path d="M12.5 12.5h7v7h-7zm0 11h7v7h-7zm0 11h7v7h-7zm0 11h7v7h-7z" class="F B C"/></svg>