<svg xmlns="http://www.w3.org/2000/svg" fill-rule="evenodd" stroke-linecap="round" stroke-linejoin="round" viewBox="0 0 64 64"><style>.B{fill-opacity:.99}.C{fill:none}.D{fill:#ececec}.E{stroke-width:.99}.F{stroke-miterlimit:1.5}.G{stroke-opacity:.99}</style><path d="M5.95 41.99h52.11v11.53H5.95z" class="B D"/><path stroke="#b6b6b6" d="M5.5 41.5h53v11h-53z" class="C E"/><path fill="#b6b6b6" d="M5.95 30.45H58V42H5.95z"/><path stroke="#7e8087" d="M5.5 30.53h53V41.5h-53z" class="C E G"/><path stroke="#333" d="M7.5 32.5h6v7h-6zm8 0h6v7h-6zm-8 11h6v7h-6z" class="D F B"/><path fill="#7e8087" d="M5.95 19h52.11v11.45H5.95z" class="B"/><path stroke="#333" d="M7.5 21.5h6v7h-6zm8 0h6v7h-6zm8 0h6v7h-6z" class="D F B"/><path stroke="#555761" d="M5.5 19.5h53v10.96h-53z" class="C E G"/><path d="M5.95 10.48h52.11v8.44H5.95z" class="B D"/><g stroke="#333" class="F"><path d="M14.5 11.5h1v2h-1z" class="C"/><path d="M6.5 11.5h1v4h-1zm16 0h1v2h-1zm8 0h1v2h-1zm8 0h1v2h-1zm8 0h1v2h-1zm8 0h1v2h-1z" class="D B"/></g><path stroke="#5b5b5b" stroke-width="1.01" d="M5.5 10.48h53v8.44h-53z" class="C"/><path fill="#b6b6b6" fill-opacity=".5" d="M39.5 10.5h6.93v41H39.5z"/><path stroke="#555761" stroke-width=".93" d="M39.5 10.5h6.93v41H39.5z" class="C"/></svg>