<svg xmlns="http://www.w3.org/2000/svg" viewBox="0 0 16 16" fill-rule="evenodd" stroke-linecap="round" stroke-linejoin="round" xmlns:v="https://vecta.io/nano"><path fill="#3d1939" d="M3.28 4.5h9.45v7H3.28z"/><path fill="#f63e48" d="M4.12 5.5h2.56v5H4.12z"/><path fill="#53f63e" d="M6.68 5.5h2.6v5h-2.6z"/><path fill="#3e91f6" d="M9.28 5.5h2.6v5h-2.6z"/><g fill-rule="nonzero"><path d="M9.15 6.77V8.7H7.2v2.6h1.94v1.93h2.6V11.3h1.93V8.7h-1.93V6.77h-2.6Z" fill="#323232" fill-opacity=".59"/><path d="M10.37 7.77V9.7H8.43v2.6h1.94v1.93h2.6V12.3h1.93V9.7h-1.94V7.77h-2.6Z" fill="#81d835"/></g><path d="M10.37 7.77V9.7H8.43v2.6h1.94v1.93h2.6V12.3h1.93V9.7h-1.94V7.77h-2.6Z" fill="none" stroke="#206b00" stroke-width=".54"/></svg>