<svg xmlns="http://www.w3.org/2000/svg" width="100%" height="100%" viewBox="0 0 22 22" fill-rule="evenodd" stroke-linecap="round" stroke-linejoin="round" stroke-miterlimit="1.5" xmlns:v="https://vecta.io/nano"><g fill-rule="nonzero"><path d="M16.5 9.5c0 5.059-2.339 6-5.89 6-3.065 0-6.11-.94-6.11-6h6.137H16.5z" fill="#f63e48"/><path d="M5.5 12.5c-1-1-2.041-3.958-.863-6 1.135-1.966 3.594-2.931 5.863-3 .089-.003 5 3 5 3l-10 6z" fill="#1ee387"/><path d="M10.5 3.5c2.358 0 4.479.918 5.833 2.849 1.398 1.994-.221 6.175-.833 6.151l-5-3v-6z" fill="#1f86f4"/></g><circle cx="10.5" cy="9.5" r="1" fill="#ff6969" stroke="#fff"/><g fill-rule="nonzero"><path d="M10.5 4c-3.194.213-5.613 2.877-5.613 6.125a6.11 6.11 0 0 0 .54 2.52l-.541.312C3.707 10.915 3.206 7.901 5 6c1.055-2.109 3.142-3.5 5.5-3.5V4z" fill="#dcfadb"/><path d="M5.15 8.19a6.14 6.14 0 0 0 4.432 7.113c.868.233 1.742.267 2.575.13l.162.604a6.62 6.62 0 0 1-6.384-1.711C4.268 12.659 3.392 10.278 4.002 8l1.148.19z" fill="#fcea73"/><path d="M16.318 9.653C16.105 6.459 13.748 4 10.5 4c-.898 0-1.731.153-2.5.5l-.5-1c2.042-1.179 4.428-.749 6.471.43s3.304 3.365 3.304 5.723h-.957z" fill="#73e5fc"/><path d="M10.61 15.304a6.14 6.14 0 0 0 5.723-6.123 6.11 6.11 0 0 0-.541-2.52l.541-.312c1.179 2.042 1.179 4.566 0 6.608s-3.365 3.304-5.723 3.304v-.957z" fill="#a6499e"/></g><circle cx="10.5" cy="9.5" r="7" fill="none" stroke="#0e141f"/><path d="M2 15h17v5H2z" fill="#0e141f"/><path d="M3 16h3v3H3z" fill="#f63e48"/><path d="M6 16h3v3H6z" fill="#f6e43e"/><path d="M9 16h3v3H9z" fill="#53f63e"/><path d="M12 16h3v3h-3z" fill="#3ef6f6"/><path d="M15 16h2.998v3H15z" fill="#af3ef6"/></svg>