<svg xmlns="http://www.w3.org/2000/svg" width="100%" height="100%" viewBox="0 0 16 16" fill-rule="evenodd" stroke-linecap="round" stroke-linejoin="round" stroke-miterlimit="1.5" xmlns:v="https://vecta.io/nano"><g fill-rule="nonzero"><path d="M12.746 9.26c-.983 1.701-2.805 2.753-4.769 2.753a5.51 5.51 0 0 1-4.769-2.754l4.769-2.753 4.769 2.754z" fill="#f63e48"/><path d="M3.208 9.26c-.983-1.702-.982-3.805 0-5.507S6.012 1 7.977 1v5.506L3.208 9.26z" fill="#1ee387"/><path d="M7.977 1c1.965 0 3.786 1.052 4.769 2.753s.982 3.805 0 5.507L7.977 6.507V1z" fill="#1f86f4"/></g><circle cx="7.977" cy="6.507" r=".787" fill="#ff6969" stroke="#fff"/><g fill-rule="nonzero"><path d="M7.977 1.798c-2.662.177-4.769 2.395-4.769 5.101 0 .749.161 1.46.451 2.101l-.451.26c-.983-1.702-.982-3.805 0-5.507S6.012 1 7.977 1v.798z" fill="#dcfadb"/><path d="M3.427 5.288a5.12 5.12 0 0 0 3.694 5.926c.723.194 1.451.222 2.145.109l.135.502a5.51 5.51 0 0 1-6.744-6.744l.77.207z" fill="#fcea73"/><path d="M12.733 6.507a5.12 5.12 0 0 0-5.102-4.769c-.748 0-1.459.161-2.1.45l-.26-.45a5.51 5.51 0 0 1 8.26 4.769h-.798z" fill="#73e5fc"/><path d="M7.977 11.215a5.12 5.12 0 0 0 4.769-5.102 5.1 5.1 0 0 0-.451-2.1l.451-.26c.982 1.702.982 3.805 0 5.506s-2.804 2.754-4.769 2.754v-.798z" fill="#a6499e"/></g><circle cx="7.976" cy="6.506" r="5.506" fill="none" stroke="#3d1939"/><path d="M1 11.544h14v4.001H1z" fill="#3d1939"/><path d="M1.93 12.5h2.556v2H1.93z" fill="#f63e48"/><path d="M4.486 12.5h2.556v2H4.486z" fill="#f6e43e"/><path d="M6.782 12.5h3.774v2H6.782z" fill="#53f63e"/><path d="M8.669 12.5h3.774v2H8.669z" fill="#3ef6f6"/><path d="M11.056 12.5h2.774v2h-2.774z" fill="#af3ef6"/></svg>