<svg xmlns="http://www.w3.org/2000/svg" width="100%" height="100%" viewBox="0 0 22 22" fill-rule="evenodd" stroke-linecap="round" stroke-linejoin="round" stroke-miterlimit="1.5" xmlns:v="https://vecta.io/nano"><path d="M1.5 3.5h19v6h-19z" fill="#fff" stroke="#4d4d4d"/><path d="M16 5h3.002L17.5 7 16 5z" fill-rule="nonzero"/><path d="M8.5 9.5h12v3h-12z" fill="#fff"/><path d="M9 11h11v1H9zM2 8h18v1H2z" fill="#abacae"/><path d="M8.5 9.5h12v3h-12z" fill="none" stroke="#4d4d4d" stroke-miterlimit="4"/><path d="M8.5 12.5h12v3h-12z" fill="#fff"/><path d="M9 14h11v1H9z" fill="#abacae"/><path d="M8.5 12.5h12v3h-12z" fill="none" stroke="#4d4d4d" stroke-miterlimit="4"/><path d="M8.5 15.5h12v3h-12z" fill="#fff"/><path d="M9 17h11v1H9z" fill="#abacae"/><path d="M8.5 15.5h12v3h-12z" fill="none" stroke="#4d4d4d" stroke-miterlimit="4"/></svg>