<svg xmlns="http://www.w3.org/2000/svg" xml:space="preserve" style="fill-rule:evenodd;clip-rule:evenodd;stroke-linecap:round;stroke-linejoin:round;stroke-miterlimit:1.5" viewBox="0 0 22 22"><path d="M0 0h22v22H0z" style="fill:none"/><path d="M1.5 3.5h19v6h-19z" style="fill:#ececec;fill-opacity:.99;stroke:#333;stroke-width:1px"/><path d="M16 5h3l-1.5 2L16 5Z" style="fill-rule:nonzero"/><path d="M8.5 9.5h12v3h-12z" style="fill:#ececec;fill-opacity:.99"/><path d="M9 11h11v1H9zM2 8h18v1H2z" style="fill:#b6b6b6"/><path d="M8.5 9.5h12v3h-12z" style="fill:none;stroke:#333;stroke-width:1px;stroke-miterlimit:4"/><path d="M8.5 12.5h12v3h-12z" style="fill:#ececec;fill-opacity:.99"/><path d="M9 14h11v1H9z" style="fill:#b6b6b6"/><path d="M8.5 12.5h12v3h-12z" style="fill:none;stroke:#333;stroke-width:1px;stroke-miterlimit:4"/><path d="M8.5 15.5h12v3h-12z" style="fill:#ececec;fill-opacity:.99"/><path d="M9 17h11v1H9z" style="fill:#b6b6b6"/><path d="M8.5 15.5h12v3h-12z" style="fill:none;stroke:#333;stroke-width:1px;stroke-miterlimit:4"/></svg>