<svg xmlns="http://www.w3.org/2000/svg" viewBox="0 0 16 16" fill-rule="evenodd" stroke-linecap="round" stroke-linejoin="round" xmlns:v="https://vecta.io/nano"><path fill="#3d1939" d="M3.28 4.5h9.45v7H3.28z"/><path fill="#f63e48" d="M4.12 5.5h2.56v5H4.12z"/><path fill="#53f63e" d="M6.68 5.5h2.6v5h-2.6z"/><path fill="#3e91f6" d="M9.28 5.5h2.6v5h-2.6z"/><path d="M14.57 12.41c.24 0 .43-.2.43-.43V8.43c0-.24-.2-.43-.43-.43H7.43C7.2 8 7 8.2 7 8.43v3.55c0 .24.2.43.43.43h7.14Z" fill-opacity=".4"/><path d="M15.57 13.41c.24 0 .43-.2.43-.43V9.43c0-.24-.2-.43-.43-.43H8.43C8.2 9 8 9.2 8 9.43v3.55c0 .24.2.43.43.43h7.14Z" fill="#fff"/><path d="M15 12.41V10H9v2.41h6Z" fill="#e84850"/><path d="M15 12.41V10H9v2.41h6Z" fill="none" stroke="#7a0000" stroke-width=".5"/></svg>