<?xml version="1.0" encoding="UTF-8" standalone="no"?>
<svg
   xmlns:dc="http://purl.org/dc/elements/1.1/"
   xmlns:cc="http://creativecommons.org/ns#"
   xmlns:rdf="http://www.w3.org/1999/02/22-rdf-syntax-ns#"
   xmlns:svg="http://www.w3.org/2000/svg"
   xmlns="http://www.w3.org/2000/svg"
   xmlns:xlink="http://www.w3.org/1999/xlink"
   xmlns:sodipodi="http://sodipodi.sourceforge.net/DTD/sodipodi-0.dtd"
   xmlns:inkscape="http://www.inkscape.org/namespaces/inkscape"
   width="32"
   height="32"
   viewBox="0 0 8.4666665 8.4666669"
   version="1.1"
   id="svg8"
   inkscape:version="1.0 (4035a4fb49, 2020-05-01)"
   sodipodi:docname="eraser_detailed.svg">
  <defs
     id="defs2">
    <linearGradient
       inkscape:collect="always"
       id="linearGradient1015-3">
      <stop
         style="stop-color:#de3e80;stop-opacity:1"
         offset="0"
         id="stop1009" />
      <stop
         id="stop961"
         offset="0.6393066"
         style="stop-color:#d63877;stop-opacity:0.99607843;" />
      <stop
         style="stop-color:#c72c68;stop-opacity:0.98823529;"
         offset="1"
         id="stop963" />
    </linearGradient>
    <linearGradient
       id="linearGradient1565"
       inkscape:collect="always">
      <stop
         id="stop1561"
         offset="0"
         style="stop-color:#e5e5e5;stop-opacity:1;" />
      <stop
         id="stop1563"
         offset="1"
         style="stop-color:#d4d4d4;stop-opacity:0.97126436" />
    </linearGradient>
    <inkscape:path-effect
       hide_knots="false"
       only_selected="false"
       apply_with_radius="true"
       apply_no_radius="true"
       use_knot_distance="true"
       flexible="false"
       chamfer_steps="1"
       radius="0"
       mode="F"
       method="auto"
       unit="px"
       satellites_param="F,0,0,1,0,0,0,1 @ F,0,0,1,0,0.61950093,0,1 @ F,0,0,1,0,0,0,1"
       lpeversion="1"
       is_visible="true"
       id="path-effect1465"
       effect="fillet_chamfer" />
    <inkscape:path-effect
       hide_knots="false"
       only_selected="false"
       apply_with_radius="true"
       apply_no_radius="true"
       use_knot_distance="true"
       flexible="false"
       chamfer_steps="1"
       radius="0"
       mode="F"
       method="auto"
       unit="px"
       satellites_param="F,0,0,1,0,0.61935052,0,1 @ F,0,0,1,0,0,0,1 @ F,0,0,1,0,0,0,1"
       lpeversion="1"
       is_visible="true"
       id="path-effect1463"
       effect="fillet_chamfer" />
    <linearGradient
       inkscape:collect="always"
       id="linearGradient914">
      <stop
         style="stop-color:#ffffff;stop-opacity:0.09714286"
         offset="0"
         id="stop908" />
      <stop
         style="stop-color:#000000;stop-opacity:0.09714286"
         offset="1"
         id="stop912" />
    </linearGradient>
    <linearGradient
       id="linearGradient882"
       inkscape:collect="always">
      <stop
         id="stop878"
         offset="0"
         style="stop-color:#a3907c;stop-opacity:1;" />
      <stop
         style="stop-color:#9d8875;stop-opacity:1;"
         offset="0.42207134"
         id="stop886" />
      <stop
         id="stop880"
         offset="1"
         style="stop-color:#8a715e;stop-opacity:1" />
    </linearGradient>
    <linearGradient
       id="linearGradient870-3"
       inkscape:collect="always">
      <stop
         id="stop866"
         offset="0"
         style="stop-color:#f9c440;stop-opacity:1;" />
      <stop
         style="stop-color:#f1b937;stop-opacity:1;"
         offset="0.46516398"
         id="stop874" />
      <stop
         id="stop868"
         offset="1"
         style="stop-color:#d48e15;stop-opacity:1" />
    </linearGradient>
    <inkscape:path-effect
       hide_knots="false"
       only_selected="false"
       apply_with_radius="true"
       apply_no_radius="true"
       use_knot_distance="true"
       flexible="false"
       chamfer_steps="1"
       radius="0"
       mode="F"
       method="auto"
       unit="px"
       satellites_param="F,0,0,1,0,0.61935052,0,1 @ F,0,0,1,0,0,0,1 @ F,0,0,1,0,0,0,1"
       lpeversion="1"
       is_visible="true"
       id="path-effect860"
       effect="fillet_chamfer" />
    <inkscape:path-effect
       hide_knots="false"
       only_selected="false"
       apply_with_radius="true"
       apply_no_radius="true"
       use_knot_distance="true"
       flexible="false"
       chamfer_steps="1"
       radius="0"
       mode="F"
       method="auto"
       unit="px"
       satellites_param="F,0,0,1,0,0,0,1 @ F,0,0,1,0,0.61950093,0,1 @ F,0,0,1,0,0,0,1"
       lpeversion="1"
       is_visible="true"
       id="path-effect852"
       effect="fillet_chamfer" />
    <inkscape:path-effect
       hide_knots="false"
       only_selected="false"
       apply_with_radius="true"
       apply_no_radius="true"
       use_knot_distance="true"
       flexible="false"
       chamfer_steps="1"
       radius="0"
       mode="F"
       method="auto"
       unit="px"
       satellites_param="F,0,0,1,0,0,0,1 @ F,0,0,1,0,0.61950093,0,1 @ F,0,0,1,0,0,0,1"
       lpeversion="1"
       is_visible="true"
       id="path-effect1004"
       effect="fillet_chamfer" />
    <inkscape:path-effect
       hide_knots="false"
       only_selected="false"
       apply_with_radius="true"
       apply_no_radius="true"
       use_knot_distance="true"
       flexible="false"
       chamfer_steps="1"
       radius="0"
       mode="F"
       method="auto"
       unit="px"
       satellites_param="F,0,0,1,0,0,0,1 @ F,0,0,1,0,0.61950093,0,1 @ F,0,0,1,0,0,0,1"
       lpeversion="1"
       is_visible="true"
       id="path-effect995"
       effect="fillet_chamfer" />
    <inkscape:path-effect
       hide_knots="false"
       only_selected="false"
       apply_with_radius="true"
       apply_no_radius="true"
       use_knot_distance="true"
       flexible="false"
       chamfer_steps="1"
       radius="0"
       mode="F"
       method="auto"
       unit="px"
       satellites_param="F,0,0,1,0,0.61935052,0,1 @ F,0,0,1,0,0,0,1 @ F,0,0,1,0,0,0,1"
       lpeversion="1"
       is_visible="true"
       id="path-effect987"
       effect="fillet_chamfer" />
    <inkscape:path-effect
       effect="fillet_chamfer"
       id="path-effect935"
       is_visible="true"
       lpeversion="1"
       satellites_param="F,0,0,1,0,0.61935052,0,1 @ F,0,0,1,0,0,0,1 @ F,0,0,1,0,0,0,1"
       unit="px"
       method="auto"
       mode="F"
       radius="0"
       chamfer_steps="1"
       flexible="false"
       use_knot_distance="true"
       apply_no_radius="true"
       apply_with_radius="true"
       only_selected="false"
       hide_knots="false" />
    <inkscape:path-effect
       effect="fillet_chamfer"
       id="path-effect933"
       is_visible="true"
       lpeversion="1"
       satellites_param="F,0,0,1,0,0,0,1 @ F,0,0,1,0,0.61950093,0,1 @ F,0,0,1,0,0,0,1"
       unit="px"
       method="auto"
       mode="F"
       radius="0"
       chamfer_steps="1"
       flexible="false"
       use_knot_distance="true"
       apply_no_radius="true"
       apply_with_radius="true"
       only_selected="false"
       hide_knots="false" />
    <linearGradient
       gradientTransform="matrix(1.3386574,0,0,1.3386574,-1.516192,-1.9597179)"
       gradientUnits="userSpaceOnUse"
       y2="-2.0913575"
       x2="7.806932"
       y1="-2.0579488"
       x1="1.9417232"
       id="linearGradient872"
       xlink:href="#linearGradient870-3"
       inkscape:collect="always" />
    <linearGradient
       gradientTransform="matrix(0.35418643,0,0,0.35418643,0.31362014,-2.4578394)"
       gradientUnits="userSpaceOnUse"
       y2="21.018597"
       x2="15.032427"
       y1="8.9598999"
       x1="3.1785464"
       id="linearGradient884"
       xlink:href="#linearGradient882"
       inkscape:collect="always" />
    <linearGradient
       id="_Linear2"
       x2="1"
       gradientUnits="userSpaceOnUse"
       gradientTransform="matrix(-3.86139,0,0,-3.1122,200.139,41.926)">
      <stop
         offset="0"
         stop-color="#505050"
         id="stop1185" />
      <stop
         offset=".9"
         stop-color="#afafaf"
         id="stop1187" />
      <stop
         offset="1"
         stop-color="#b8b8b8"
         id="stop1189" />
    </linearGradient>
    <linearGradient
       id="_Linear3"
       x2="1"
       gradientUnits="userSpaceOnUse"
       gradientTransform="matrix(22.5814,-1.29817,1.25452,23.367,186.289,40.519)">
      <stop
         offset="0"
         stop-color="#e2e2e2"
         id="stop1192" />
      <stop
         offset=".5"
         stop-color="#c6c6c6"
         id="stop1194" />
      <stop
         offset="1"
         stop-color="#bdbdbd"
         id="stop1196" />
    </linearGradient>
    <linearGradient
       id="_Linear4"
       x2="1"
       gradientUnits="userSpaceOnUse"
       gradientTransform="matrix(2.94,0.11475,-0.05514,6.11811,195.918,44.7)">
      <stop
         offset="0"
         stop-color="#d0d0d0"
         stop-opacity="0"
         id="stop1199" />
      <stop
         offset=".3"
         stop-color="#cecece"
         stop-opacity=".204"
         id="stop1201" />
      <stop
         offset=".5"
         stop-color="#c6c6c6"
         id="stop1203" />
      <stop
         offset=".7"
         stop-color="#9c9c9c"
         stop-opacity=".267"
         id="stop1205" />
      <stop
         offset="1"
         stop-color="#8d8d8d"
         stop-opacity="0"
         id="stop1207" />
    </linearGradient>
    <linearGradient
       id="_Linear5"
       x2="1"
       gradientUnits="userSpaceOnUse"
       gradientTransform="matrix(-7.2811068,7.2811068,-7.2811068,-7.2811068,197.67723,36.913026)">
      <stop
         offset="0"
         stop-color="#cacaca"
         id="stop1210" />
      <stop
         offset=".2"
         stop-color="#c7c7c7"
         id="stop1212" />
      <stop
         offset=".3"
         stop-color="#bfbfbf"
         id="stop1214" />
      <stop
         offset=".4"
         stop-color="#b8b8b8"
         id="stop1216" />
      <stop
         offset=".5"
         stop-color="#a9a9a9"
         id="stop1218" />
      <stop
         offset=".6"
         stop-color="#9c9c9c"
         id="stop1220" />
      <stop
         offset="1"
         stop-color="#979797"
         id="stop1222" />
    </linearGradient>
    <linearGradient
       id="_Linear6"
       x2="1"
       gradientUnits="userSpaceOnUse"
       gradientTransform="matrix(2.48223,0.09689,-0.04656,5.1655,195.501,43.509)">
      <stop
         offset="0"
         stop-color="#588cdd"
         stop-opacity="0"
         id="stop1225" />
      <stop
         offset=".5"
         stop-color="#5488db"
         stop-opacity=".141"
         id="stop1227" />
      <stop
         offset=".6"
         stop-color="#487cd6"
         stop-opacity=".533"
         id="stop1229" />
      <stop
         offset=".7"
         stop-color="#3a6ed1"
         id="stop1231" />
      <stop
         offset="1"
         stop-color="#4d45ac"
         stop-opacity="0"
         id="stop1233" />
    </linearGradient>
    <linearGradient
       y2="-2.0913575"
       x2="7.806932"
       y1="-2.0746531"
       x1="1.641045"
       gradientTransform="matrix(2.6725296,2.6725296,-2.6725296,2.6725296,0,0)"
       gradientUnits="userSpaceOnUse"
       id="linearGradient1131"
       xlink:href="#linearGradient914"
       inkscape:collect="always" />
    <linearGradient
       y2="-2.0913575"
       x2="7.806932"
       y1="-2.0746531"
       x1="1.641045"
       gradientTransform="matrix(2.6725296,2.6725296,-2.6725296,2.6725296,0,0)"
       gradientUnits="userSpaceOnUse"
       id="linearGradient1133"
       xlink:href="#linearGradient914"
       inkscape:collect="always" />
    <linearGradient
       y2="-2.0913575"
       x2="7.806932"
       y1="-2.0579488"
       x1="1.9417232"
       gradientTransform="matrix(1.3386574,0,0,1.3386574,-13.096539,9.2464516)"
       gradientUnits="userSpaceOnUse"
       id="linearGradient1471"
       xlink:href="#linearGradient870-3"
       inkscape:collect="always" />
    <linearGradient
       y2="21.018597"
       x2="15.032427"
       y1="8.9598999"
       x1="3.1785464"
       gradientTransform="matrix(0.35418643,0,0,0.35418643,-15.79888,-2.7224227)"
       gradientUnits="userSpaceOnUse"
       id="linearGradient1473"
       xlink:href="#linearGradient882"
       inkscape:collect="always" />
    <linearGradient
       gradientTransform="matrix(0.81968629,0,0,0.81968629,0.80963174,0.74416068)"
       gradientUnits="userSpaceOnUse"
       y2="-4.6647639"
       x2="7.5143501"
       y1="-4.6647639"
       x1="1.4659058"
       id="linearGradient1567"
       xlink:href="#linearGradient1565"
       inkscape:collect="always" />
    <linearGradient
       inkscape:collect="always"
       xlink:href="#linearGradient1015-3"
       id="linearGradient1043"
       gradientUnits="userSpaceOnUse"
       gradientTransform="matrix(0.57960573,0.57960573,-0.57960573,0.57960573,0.583278,0.56171434)"
       x1="1.4659058"
       y1="-4.6647639"
       x2="7.5879807"
       y2="-4.7691264" />
    <linearGradient
       y2="-4.6647639"
       x2="7.5143499"
       y1="-4.6647639"
       x1="1.4659058"
       gradientTransform="matrix(2.1906358,2.1906358,-2.1906358,2.1906358,0.17497334,12.152556)"
       gradientUnits="userSpaceOnUse"
       id="linearGradient970"
       xlink:href="#linearGradient914"
       inkscape:collect="always" />
  </defs>
  <sodipodi:namedview
     inkscape:snap-nodes="true"
     inkscape:snap-page="false"
     id="base"
     pagecolor="#ffffff"
     bordercolor="#666666"
     borderopacity="1.0"
     inkscape:pageopacity="0.0"
     inkscape:pageshadow="2"
     inkscape:zoom="15.839192"
     inkscape:cx="24.392105"
     inkscape:cy="25.66552"
     inkscape:document-units="px"
     inkscape:current-layer="layer3"
     inkscape:document-rotation="0"
     showgrid="true"
     units="px"
     showguides="true"
     inkscape:guide-bbox="true"
     inkscape:lockguides="true"
     inkscape:snap-center="false"
     inkscape:snap-grids="false"
     inkscape:object-paths="true"
     inkscape:snap-intersection-paths="true"
     inkscape:snap-smooth-nodes="true"
     inkscape:object-nodes="true"
     inkscape:snap-bbox="true"
     inkscape:snap-bbox-edge-midpoints="false"
     inkscape:bbox-nodes="true"
     inkscape:snap-to-guides="true">
    <inkscape:grid
       type="xygrid"
       id="grid869" />
    <sodipodi:guide
       position="6.8791667,0.79375"
       orientation="0,1"
       id="guide871"
       inkscape:locked="true" />
    <sodipodi:guide
       position="1.8520833,7.6729167"
       orientation="0,1"
       id="guide873"
       inkscape:locked="true" />
    <sodipodi:guide
       position="0.79375,4.4979167"
       orientation="1,0"
       id="guide875"
       inkscape:locked="true" />
    <sodipodi:guide
       position="7.6729167,2.38125"
       orientation="1,0"
       id="guide877"
       inkscape:locked="true" />
  </sodipodi:namedview>
  <metadata
     id="metadata5">
    <rdf:RDF>
      <cc:Work
         rdf:about="">
        <dc:format>image/svg+xml</dc:format>
        <dc:type
           rdf:resource="http://purl.org/dc/dcmitype/StillImage" />
        <dc:title />
      </cc:Work>
    </rdf:RDF>
  </metadata>
  <g
     inkscape:label="Layer 1"
     inkscape:groupmode="layer"
     id="layer1"
     transform="translate(0,-288.53332)"
     style="display:none">
    <rect
       y="288.49951"
       x="0"
       height="8.500474"
       width="8.500474"
       id="rect877"
       style="fill:#4d4d4d;fill-opacity:0.5;stroke:none;stroke-width:0.264999;stroke-linecap:round;stroke-linejoin:round" />
    <path
       id="path1378"
       d="m 7.6729166,5.5562499 v 0.79375 H 0 v -7.6729166 h 0.79374999 v 6.8791666 z"
       style="display:inline;fill:#f6f5f4;stroke:none;stroke-width:0.264583px;stroke-linecap:butt;stroke-linejoin:miter;stroke-opacity:1"
       transform="translate(0,290.64999)" />
  </g>
  <g
     transform="translate(0,2.1166667)"
     style="display:inline"
     inkscape:groupmode="layer"
     id="layer2"
     inkscape:label="Layer 2">
    <rect
       inkscape:transform-center-x="-4.5587728"
       transform="rotate(45)"
       inkscape:transform-center-y="-4.5587728"
       rx="0.79374993"
       ry="0.79374999"
       y="-7.3257608"
       x="2.0112147"
       height="8.4925566"
       width="4.9578266"
       id="rect879"
       style="fill:url(#linearGradient1567);fill-opacity:1;stroke-width:0.264999;stroke-linecap:round;stroke-linejoin:round" />
    <g
       id="g892"
       transform="translate(-16.1125,-0.2645833)">
      <rect
         transform="rotate(45)"
         style="fill:url(#linearGradient872);fill-opacity:1;stroke:none;stroke-width:0.264999;stroke-linecap:round;stroke-linejoin:round;stroke-miterlimit:4;stroke-dasharray:none;stroke-opacity:0.984314"
         id="rect976"
         width="6.8228807"
         height="7.4695392"
         x="1.0831103"
         y="-8.4493771" />
      <path
         inkscape:original-d="M 0.54494539,5.8113093 1.4587242,0.07302508 6.2832297,4.8975305 Z"
         inkscape:path-effect="#path-effect935"
         sodipodi:nodetypes="cccc"
         id="path890"
         d="M 0.64234512,5.1996653 1.4587242,0.07302508 6.2832297,4.8975305 1.1565894,5.7139096 A 0.44919297,0.44919297 45 0 1 0.64234512,5.1996653 Z"
         style="fill:#a3907c;fill-opacity:0.988506;stroke:none;stroke-width:0.264583px;stroke-linecap:butt;stroke-linejoin:miter;stroke-opacity:1" />
      <path
         inkscape:transform-center-x="-3.5121874"
         style="fill:#a28f7c;fill-opacity:0.992157;stroke:none;stroke-width:0.265001;stroke-linecap:round;stroke-linejoin:round;stroke-miterlimit:4;stroke-dasharray:none;stroke-opacity:0.984314"
         id="path942"
         sodipodi:type="arc"
         sodipodi:cx="-4.4945512"
         sodipodi:cy="0.979837"
         sodipodi:rx="3.4114404"
         sodipodi:ry="1.9670395"
         sodipodi:start="0"
         sodipodi:end="3.1415927"
         sodipodi:arc-type="slice"
         d="m -1.0831108,0.979837 a 3.4114404,1.9670395 0 0 1 -1.7057202,1.7035062 3.4114404,1.9670395 0 0 1 -3.4114405,-10e-8 3.4114404,1.9670395 0 0 1 -1.7057201,-1.7035061 h 3.4114404 z"
         transform="rotate(-135)"
         inkscape:transform-center-y="-3.5121875" />
      <path
         inkscape:transform-center-x="-1.1314304"
         inkscape:original-d="M 0.9485103,3.2766872 0.54487203,5.8113832 3.0795679,5.4077448 Z"
         inkscape:path-effect="#path-effect933"
         inkscape:transform-center-y="-1.1314302"
         d="M 0.9485103,3.2766872 0.64229703,5.1995909 A 0.44929952,0.44929952 44.999998 0 0 1.1566643,5.7139582 L 3.0795679,5.4077448 Z"
         style="fill:#333333;fill-opacity:1;stroke:none;stroke-width:0.264998;stroke-linecap:round;stroke-linejoin:round;stroke-miterlimit:4;stroke-dasharray:none;stroke-opacity:0.984314"
         id="rect907" />
      <path
         inkscape:transform-center-x="-1.5513865"
         inkscape:transform-center-y="-1.5513868"
         transform="rotate(-135)"
         d="m -2.9876659,-1.6462696 a 1.5068853,0.86887127 0 0 1 -0.7534427,0.75246464 1.5068853,0.86887127 0 0 1 -1.5068853,-2e-8 1.5068853,0.86887127 0 0 1 -0.7534426,-0.75246462 h 1.5068853 z"
         sodipodi:arc-type="slice"
         sodipodi:end="3.1415927"
         sodipodi:start="0"
         sodipodi:ry="0.86887127"
         sodipodi:rx="1.5068853"
         sodipodi:cy="-1.6462696"
         sodipodi:cx="-4.4945512"
         sodipodi:type="arc"
         id="path913"
         style="fill:#333333;fill-opacity:1;stroke:none;stroke-width:0.265001;stroke-linecap:round;stroke-linejoin:round;stroke-miterlimit:4;stroke-dasharray:none;stroke-opacity:0.984314" />
      <path
         d="M 6.7401669,-5.2090102 6.4053502,-4.8741933 10.89494,-0.38391181 5.9480898,4.5629382 6.2829069,4.8977549 11.565265,-0.38391181 Z"
         style="fill:#d48e15;fill-opacity:1;stroke:none;stroke-width:0.264999;stroke-linecap:round;stroke-linejoin:round;stroke-miterlimit:4;stroke-dasharray:none;stroke-opacity:0.984314"
         id="rect876" />
      <path
         d="M 6.7401669,-5.2090102 1.4585002,0.0733484 6.2829069,4.8977549 6.6177235,4.56363 2.1274421,0.0733484 7.0749839,-4.8741933 Z"
         style="fill:#ffe16b;fill-opacity:1;stroke:none;stroke-width:0.264999;stroke-linecap:round;stroke-linejoin:round;stroke-miterlimit:4;stroke-dasharray:none;stroke-opacity:0.984314"
         id="rect878" />
      <path
         d="M 6.7401669,-5.2090102 1.4585002,0.0733484 a 3.4114405,1.9670395 45 0 1 2.4108195,0.001385 3.4114405,1.9670395 45 0 1 2.4122034,2.4122035 3.4114405,1.9670395 45 0 1 0.00138,2.4108195 l 5.2823609,-5.28166808 z"
         style="fill:none;fill-opacity:1;stroke:#ad5f00;stroke-width:0.264999;stroke-linecap:round;stroke-linejoin:round;stroke-miterlimit:4;stroke-dasharray:none;stroke-opacity:1"
         id="rect978" />
      <path
         id="path858"
         style="fill:url(#linearGradient884);fill-opacity:1;stroke:none;stroke-width:0.264583px;stroke-linecap:butt;stroke-linejoin:miter;stroke-opacity:1"
         d="M 2.4442729,-0.29882408 A 3.4114405,1.9670395 45 0 0 1.4585002,0.0733484 L 0.67541605,4.9925274 A 0.60131548,0.60131548 0 0 0 1.3637276,5.6808391 L 6.2829069,4.8977549 A 3.4114405,1.9670395 45 0 0 6.2815255,2.4869354 3.4114405,1.9670395 45 0 0 3.8693197,0.07473192 3.4114405,1.9670395 45 0 0 2.4442729,-0.29882408 Z" />
      <path
         id="path926"
         style="fill:#57392d;fill-opacity:1;stroke:none;stroke-width:0.264583px;stroke-linecap:butt;stroke-linejoin:miter;stroke-opacity:1"
         d="M 6.6281001,3.5315084 A 3.4114405,1.9670395 45 0 1 6.2829069,4.2281212 L 1.3637276,5.0112054 A 0.60131548,0.60131548 0 0 1 0.72591528,4.6743132 L 0.67541605,4.9925274 A 0.60131548,0.60131548 0 0 0 1.3637276,5.6808391 L 6.2829069,4.8977549 A 3.4114404,1.9670394 45 0 0 6.6281001,3.5315084 Z" />
      <path
         id="path978"
         style="fill:#b8a99a;fill-opacity:1;stroke:none;stroke-width:0.264583px;stroke-linecap:butt;stroke-linejoin:miter;stroke-opacity:1"
         d="M 2.4442729,-0.29882408 A 3.4114404,1.9670394 45 0 0 1.4585002,0.0733484 L 0.67541605,4.9925274 A 0.60131548,0.60131548 0 0 0 1.3637276,5.6808391 L 1.6812502,5.63034 A 0.60131548,0.60131548 0 0 1 1.3450498,4.9925274 l 0.7830841,-4.919179 a 3.4114405,1.9670395 45 0 1 0.6952292,-0.34519343 3.4114404,1.9670394 45 0 0 -0.3790902,-0.0269791 z" />
      <path
         sodipodi:nodetypes="ccccccccccc"
         d="M 2.4442729,-0.29882408 C 2.0355702,-0.29255008 1.6961811,-0.16441614 1.4585002,0.0733484 L 0.94866536,3.2769369 C 1.0601596,3.1651893 1.2223051,3.1082712 1.4176857,3.1122955 c 0.182312,0.00404 0.3872595,0.060927 0.5956143,0.1653331 0.4393287,0.21992 0.8454065,0.625998 1.0653264,1.0653266 0.2198363,0.4393282 0.2201,0.8451423 6.906e-4,1.0646344 L 6.2829058,4.8977549 C 6.7799845,4.4008809 6.7794571,3.4818571 6.2815245,2.4869354 5.7836326,1.4921437 4.8641115,0.57262234 3.8693197,0.07473192 3.3675475,-0.17638608 2.875179,-0.30545357 2.4442729,-0.29882408 Z"
         style="fill:none;fill-opacity:0.988506;stroke:#3d211b;stroke-width:0.264999;stroke-linecap:round;stroke-linejoin:round;stroke-miterlimit:4;stroke-dasharray:none;stroke-opacity:1"
         id="path985" />
      <path
         id="path850"
         style="fill:#333333;fill-opacity:1;stroke:none;stroke-width:0.264999;stroke-linecap:round;stroke-linejoin:round;stroke-miterlimit:4;stroke-dasharray:none;stroke-opacity:0.984314"
         inkscape:transform-center-x="-1.1469805"
         inkscape:transform-center-y="-1.1469804"
         d="M 1.4176857,3.1122955 A 1.5068852,0.86887127 45 0 0 0.94866536,3.2769369 L 0.67541605,4.9925274 A 0.60145811,0.60145811 0 0 0 1.3637276,5.6808391 L 3.0793182,5.4075896 A 1.5068852,0.86887127 45 0 0 3.0786264,4.3429552 1.5068852,0.86887127 45 0 0 2.0133,3.2776286 1.5068852,0.86887127 45 0 0 1.4176857,3.1122955 Z" />
      <path
         id="path921"
         style="fill:#1a1a1a;fill-opacity:1;stroke:none;stroke-width:0.264999;stroke-linecap:round;stroke-linejoin:round;stroke-miterlimit:4;stroke-dasharray:none;stroke-opacity:0.984314"
         inkscape:transform-center-x="-1.1469805"
         inkscape:transform-center-y="-1.1469804"
         d="M 3.1810084,4.5919925 A 1.5068852,0.86887127 45 0 1 3.0793182,4.7379559 L 1.3637276,5.0112054 A 0.60145811,0.60145811 0 0 1 0.72591528,4.6743132 L 0.67541605,4.9925274 A 0.60145811,0.60145811 0 0 0 1.3637276,5.6808391 L 3.0793182,5.4075896 A 1.5068852,0.86887127 45 0 0 3.1810084,4.5919925 Z" />
      <path
         id="path958"
         style="fill:#4d4d4d;fill-opacity:1;stroke:none;stroke-width:0.264999;stroke-linecap:round;stroke-linejoin:round;stroke-miterlimit:4;stroke-dasharray:none;stroke-opacity:0.984314"
         inkscape:transform-center-x="-1.1469805"
         inkscape:transform-center-y="-1.1469803"
         d="M 1.3699536,3.1122955 A 1.5068852,0.86887127 45 0 0 0.94866536,3.2769369 L 0.67541605,4.9925274 A 0.60145811,0.60145811 0 0 0 1.3637276,5.6808391 L 1.6812502,5.63034 A 0.60145811,0.60145811 0 0 1 1.3450498,4.9925274 L 1.6182991,3.2769369 a 1.5068852,0.86887127 45 0 1 0.1459636,-0.1016901 1.5068852,0.86887127 45 0 0 -0.346577,-0.062951 1.5068852,0.86887127 45 0 0 -0.047732,-3e-7 z" />
      <path
         d="M 1.4176857,3.1122955 A 1.5068852,0.86887127 45 0 0 0.94866536,3.2769369 L 0.67541605,4.9925274 A 0.60145811,0.60145811 0 0 0 1.3637276,5.6808391 L 3.0793182,5.4075896 A 1.5068852,0.86887127 45 0 0 3.0786264,4.3429552 1.5068852,0.86887127 45 0 0 2.0133,3.2776286 1.5068852,0.86887127 45 0 0 1.4176857,3.1122955 Z"
         inkscape:transform-center-y="-1.1469804"
         inkscape:transform-center-x="-1.1469805"
         style="fill:none;fill-opacity:1;stroke:#000000;stroke-width:0.264999;stroke-linecap:round;stroke-linejoin:round;stroke-miterlimit:4;stroke-dasharray:none;stroke-opacity:1"
         id="path1002" />
    </g>
    <g
       inkscape:label="Layer 1"
       id="layer1-62"
       transform="translate(29.596301,-298.17134)"
       style="display:none">
      <rect
         y="288.49951"
         x="0"
         height="8.500474"
         width="8.500474"
         id="rect877-6"
         style="fill:#4d4d4d;fill-opacity:0.5;stroke:none;stroke-width:0.264999;stroke-linecap:round;stroke-linejoin:round" />
    </g>
    <g
       inkscape:label="Layer 1"
       id="layer1-6"
       transform="translate(64.515836,-311.77775)"
       style="display:none">
      <rect
         y="288.49951"
         x="0"
         height="8.500474"
         width="8.500474"
         id="rect877-1"
         style="fill:#4d4d4d;fill-opacity:0.5;stroke:none;stroke-width:0.264999;stroke-linecap:round;stroke-linejoin:round" />
    </g>
    <g
       transform="translate(64.515836,-21.127759)"
       style="display:none"
       inkscape:label="Layer 3"
       id="layer3-1">
      <path
         transform="scale(0.26458333)"
         d="M 18.144531,-7.7675781 3.2324219,7.1464844 1.7929688,16.191406 1.0214844,21.035156 a 1.6981399,1.6981399 0 0 0 0.052734,0.757813 1.6977372,1.6977372 0 0 0 0.076172,0.205078 1.6981399,1.6981399 0 0 0 0.048828,0.09961 1.6977372,1.6977372 0 0 0 0.052734,0.09375 1.6981399,1.6981399 0 0 0 0.00195,0.002 1.6977372,1.6977372 0 0 0 0.125,0.177735 1.6981399,1.6981399 0 0 0 0.072266,0.08203 1.6977372,1.6977372 0 0 0 0.076172,0.07813 1.6981399,1.6981399 0 0 0 0.082031,0.07422 1.6977372,1.6977372 0 0 0 0.085937,0.06641 1.6981399,1.6981399 0 0 0 0.2832031,0.167969 1.6977372,1.6977372 0 0 0 0.099609,0.04297 1.6981399,1.6981399 0 0 0 0.00195,0 1.6977372,1.6977372 0 0 0 0.1015625,0.03711 1.6981399,1.6981399 0 0 0 0.00195,0 1.6977372,1.6977372 0 0 0 0.1035156,0.0293 1.6981399,1.6981399 0 0 0 0.2167968,0.03906 1.6977372,1.6977372 0 0 0 0.1074219,0.0098 1.6981399,1.6981399 0 0 0 0.328125,-0.01563 1.6977372,1.6977372 0 0 0 0.025391,-0.0039 l 4.84375,-0.771485 9.0449217,-1.439453 14.914062,-14.9121092 z"
         style="fill:url(#linearGradient1131);fill-opacity:1;stroke:none;stroke-width:1.00157;stroke-linecap:round;stroke-linejoin:round;stroke-miterlimit:4;stroke-dasharray:none;stroke-opacity:0.984314"
         id="rect888-2" />
    </g>
    <g
       transform="translate(29.596301,-7.5213554)"
       style="display:none"
       inkscape:label="Layer 3"
       id="layer3-12">
      <path
         transform="scale(0.26458333)"
         d="M 18.144531,-7.7675781 3.2324219,7.1464844 1.7929688,16.191406 1.0214844,21.035156 a 1.6981399,1.6981399 0 0 0 0.052734,0.757813 1.6977372,1.6977372 0 0 0 0.076172,0.205078 1.6981399,1.6981399 0 0 0 0.048828,0.09961 1.6977372,1.6977372 0 0 0 0.052734,0.09375 1.6981399,1.6981399 0 0 0 0.00195,0.002 1.6977372,1.6977372 0 0 0 0.125,0.177735 1.6981399,1.6981399 0 0 0 0.072266,0.08203 1.6977372,1.6977372 0 0 0 0.076172,0.07813 1.6981399,1.6981399 0 0 0 0.082031,0.07422 1.6977372,1.6977372 0 0 0 0.085937,0.06641 1.6981399,1.6981399 0 0 0 0.2832031,0.167969 1.6977372,1.6977372 0 0 0 0.099609,0.04297 1.6981399,1.6981399 0 0 0 0.00195,0 1.6977372,1.6977372 0 0 0 0.1015625,0.03711 1.6981399,1.6981399 0 0 0 0.00195,0 1.6977372,1.6977372 0 0 0 0.1035156,0.0293 1.6981399,1.6981399 0 0 0 0.2167968,0.03906 1.6977372,1.6977372 0 0 0 0.1074219,0.0098 1.6981399,1.6981399 0 0 0 0.328125,-0.01563 1.6977372,1.6977372 0 0 0 0.025391,-0.0039 l 4.84375,-0.771485 9.0449217,-1.439453 14.914062,-14.9121092 z"
         style="fill:url(#linearGradient1133);fill-opacity:1;stroke:none;stroke-width:1.00157;stroke-linecap:round;stroke-linejoin:round;stroke-miterlimit:4;stroke-dasharray:none;stroke-opacity:0.984314"
         id="rect888-9" />
    </g>
    <path
       id="rect1049"
       style="fill:#f7f7f7;fill-opacity:1;stroke-width:0.264999;stroke-linecap:round;stroke-linejoin:round"
       inkscape:transform-center-x="-4.5587728"
       inkscape:transform-center-y="-4.5587726"
       d="m 6.6021808,-3.4297646 c -0.2028976,-1e-7 -0.4057353,0.07759 -0.5612061,0.2330606 L 1.1585855,1.6856853 c -0.31094142,0.3109412 -0.31094142,0.8119875 0,1.1229287 l 0.396875,0.396875 c -0.3109414,-0.3109412 -0.3109414,-0.8119875 0,-1.1229287 L 6.4378497,-2.799829 c 0.3109415,-0.3109414 0.8114707,-0.3109414 1.1224122,0 L 7.1633869,-3.196704 C 7.0079161,-3.3521747 6.8050781,-3.4297644 6.6021808,-3.4297646 Z" />
    <path
       id="rect1060"
       style="fill:#7e8087;fill-opacity:1;stroke-width:0.264999;stroke-linecap:round;stroke-linejoin:round"
       inkscape:transform-center-x="-4.5587728"
       inkscape:transform-center-y="-4.5587727"
       d="m 9.1498288,-1.210262 c 0.3109413,0.3109413 0.3109415,0.81147077 0,1.12241214 L 4.2674395,4.7945395 c -0.3109412,0.3109412 -0.8119874,0.3109413 -1.1229287,0 l 0.396875,0.396875 c 0.3109413,0.3109413 0.8119875,0.3109412 1.1229287,0 L 9.5467038,0.30902513 c 0.3109412,-0.31094122 0.3109415,-0.81147072 0,-1.12241213 z" />
    <rect
       inkscape:transform-center-x="-4.5587728"
       transform="rotate(45)"
       style="fill:none;fill-opacity:1;stroke:#555761;stroke-width:0.264999;stroke-linecap:round;stroke-linejoin:round;stroke-opacity:1"
       id="rect1403"
       width="4.9578266"
       height="8.4925566"
       x="2.0112147"
       y="-7.3257608"
       ry="0.79374999"
       rx="0.79374993"
       inkscape:transform-center-y="-4.5587728" />
    <rect
       transform="rotate(45)"
       style="fill:url(#linearGradient1471);fill-opacity:1;stroke:none;stroke-width:0.264999;stroke-linecap:round;stroke-linejoin:round;stroke-miterlimit:4;stroke-dasharray:none;stroke-opacity:0.984314"
       id="rect1429"
       width="6.8228807"
       height="7.4695392"
       x="-10.497236"
       y="2.7567923" />
    <path
       inkscape:original-d="m -15.567555,5.546726 0.913779,-5.73828422 4.8245057,4.82450542 z"
       inkscape:path-effect="#path-effect1463"
       sodipodi:nodetypes="cccc"
       id="path1431"
       d="m -15.470155,4.935082 0.816379,-5.12664022 4.8245057,4.82450542 -5.1266407,0.8163791 A 0.44919296,0.44919296 45.000001 0 1 -15.470155,4.935082 Z"
       style="fill:#a3907c;fill-opacity:0.988506;stroke:none;stroke-width:0.264583px;stroke-linecap:butt;stroke-linejoin:miter;stroke-opacity:1" />
    <path
       inkscape:transform-center-x="-3.5121874"
       style="fill:#a28f7c;fill-opacity:0.992157;stroke:none;stroke-width:0.265001;stroke-linecap:round;stroke-linejoin:round;stroke-miterlimit:4;stroke-dasharray:none;stroke-opacity:0.984314"
       id="path1433"
       sodipodi:type="arc"
       sodipodi:cx="7.0857954"
       sodipodi:cy="-10.226333"
       sodipodi:rx="3.4114404"
       sodipodi:ry="1.9670395"
       sodipodi:start="0"
       sodipodi:end="3.1415927"
       sodipodi:arc-type="slice"
       transform="rotate(-135)"
       inkscape:transform-center-y="-3.5121875"
       d="m 10.497236,-10.226333 a 3.4114404,1.9670395 0 0 1 -1.7057205,1.7035065 3.4114404,1.9670395 0 0 1 -3.4114404,0 3.4114404,1.9670395 0 0 1 -1.7057201,-1.7035065 h 3.4114404 z" />
    <path
       inkscape:transform-center-x="-1.1314304"
       inkscape:original-d="m -15.16399,3.0121039 -0.403638,2.534696 2.534696,-0.4036384 z"
       inkscape:path-effect="#path-effect1465"
       inkscape:transform-center-y="-1.1314302"
       d="m -15.16399,3.0121039 -0.306213,1.9229037 a 0.44929957,0.44929957 44.999996 0 0 0.514367,0.5143673 l 1.922904,-0.3062134 z"
       style="fill:#333333;fill-opacity:1;stroke:none;stroke-width:0.264998;stroke-linecap:round;stroke-linejoin:round;stroke-miterlimit:4;stroke-dasharray:none;stroke-opacity:0.984314"
       id="path1435" />
    <path
       inkscape:transform-center-x="-1.5513865"
       inkscape:transform-center-y="-1.5513868"
       transform="rotate(-135)"
       sodipodi:arc-type="slice"
       sodipodi:end="3.1415927"
       sodipodi:start="0"
       sodipodi:ry="0.86887127"
       sodipodi:rx="1.5068853"
       sodipodi:cy="-12.852439"
       sodipodi:cx="7.0857954"
       sodipodi:type="arc"
       id="path1437"
       style="fill:#333333;fill-opacity:1;stroke:none;stroke-width:0.265001;stroke-linecap:round;stroke-linejoin:round;stroke-miterlimit:4;stroke-dasharray:none;stroke-opacity:0.984314"
       d="m 8.5926807,-12.852439 a 1.5068853,0.86887127 0 0 1 -0.7534427,0.752465 1.5068853,0.86887127 0 0 1 -1.5068853,0 1.5068853,0.86887127 0 0 1 -0.7534426,-0.752465 h 1.5068853 z" />
    <path
       d="m -9.3723331,-5.4735935 -0.3348167,0.3348169 4.4895898,4.49028149 -4.94685,4.94685001 0.3348169,0.3348167 5.2823581,-5.28166671 z"
       style="fill:#d48e15;fill-opacity:1;stroke:none;stroke-width:0.264999;stroke-linecap:round;stroke-linejoin:round;stroke-miterlimit:4;stroke-dasharray:none;stroke-opacity:0.984314"
       id="path1439" />
    <path
       d="M -9.3723331,-5.4735935 -14.654,-0.1912349 -9.8295931,4.6331716 -9.4947765,4.2990467 -13.985058,-0.1912349 -9.0375161,-5.1387766 Z"
       style="fill:#ffe16b;fill-opacity:1;stroke:none;stroke-width:0.264999;stroke-linecap:round;stroke-linejoin:round;stroke-miterlimit:4;stroke-dasharray:none;stroke-opacity:0.984314"
       id="path1441" />
    <path
       d="M -9.3723331,-5.4735935 -14.654,-0.1912349 a 3.4114405,1.9670395 45 0 1 2.41082,0.001385 3.4114405,1.9670395 45 0 1 2.4122031,2.4122035 3.4114405,1.9670395 45 0 1 0.00138,2.4108195 l 5.2823609,-5.28166808 z"
       style="fill:none;fill-opacity:1;stroke:#ad5f00;stroke-width:0.264999;stroke-linecap:round;stroke-linejoin:round;stroke-miterlimit:4;stroke-dasharray:none;stroke-opacity:1"
       id="path1443" />
    <path
       id="path1445"
       style="fill:url(#linearGradient1473);fill-opacity:1;stroke:none;stroke-width:0.264583px;stroke-linecap:butt;stroke-linejoin:miter;stroke-opacity:1"
       d="M -13.668227,-0.56340738 A 3.4114405,1.9670395 45 0 0 -14.654,-0.1912349 l -0.783084,4.919179 a 0.60131548,0.60131548 0 0 0 0.688312,0.6883117 l 4.9191789,-0.7830842 a 3.4114405,1.9670395 45 0 0 -0.00138,-2.4108195 3.4114405,1.9670395 45 0 0 -2.4122055,-2.41220348 3.4114405,1.9670395 45 0 0 -1.425047,-0.373556 z" />
    <path
       id="path1447"
       style="fill:#57392d;fill-opacity:1;stroke:none;stroke-width:0.264583px;stroke-linecap:butt;stroke-linejoin:miter;stroke-opacity:1"
       d="m -9.4843999,3.2669251 a 3.4114405,1.9670395 45 0 1 -0.3451932,0.6966128 l -4.9191789,0.7830842 a 0.60131548,0.60131548 0 0 1 -0.637813,-0.3368922 l -0.0505,0.3182142 a 0.60131548,0.60131548 0 0 0 0.688312,0.6883117 l 4.9191789,-0.7830842 a 3.4114404,1.9670394 45 0 0 0.3451932,-1.3662465 z" />
    <path
       id="path1449"
       style="fill:#b8a99a;fill-opacity:1;stroke:none;stroke-width:0.264583px;stroke-linecap:butt;stroke-linejoin:miter;stroke-opacity:1"
       d="M -13.668227,-0.56340738 A 3.4114404,1.9670394 45 0 0 -14.654,-0.1912349 l -0.783084,4.919179 a 0.60131548,0.60131548 0 0 0 0.688312,0.6883117 l 0.317522,-0.050499 a 0.60131548,0.60131548 0 0 1 -0.3362,-0.6378126 l 0.783084,-4.919179 a 3.4114405,1.9670395 45 0 1 0.695229,-0.34519343 3.4114404,1.9670394 45 0 0 -0.37909,-0.0269791 z" />
    <path
       sodipodi:nodetypes="ccccccccccc"
       d="m -13.668227,-0.56340738 c -0.408703,0.006274 -0.748092,0.13440794 -0.985773,0.37217248 l -0.509835,3.2035885 c 0.111495,-0.1117476 0.27364,-0.1686657 0.469021,-0.1646414 0.182312,0.00404 0.387259,0.060927 0.595614,0.1653331 0.439329,0.21992 0.845406,0.625998 1.065326,1.0653266 0.219837,0.4393282 0.2201,0.8451423 6.91e-4,1.0646344 l 3.2035888,-0.5098347 c 0.4970787,-0.496874 0.4965513,-1.4158978 -0.00138,-2.4108195 -0.4978915,-0.9947917 -1.4174135,-1.91431306 -2.4122045,-2.41220348 -0.501773,-0.251118 -0.994141,-0.38018549 -1.425047,-0.373556 z"
       style="fill:none;fill-opacity:0.988506;stroke:#3d211b;stroke-width:0.264999;stroke-linecap:round;stroke-linejoin:round;stroke-miterlimit:4;stroke-dasharray:none;stroke-opacity:1"
       id="path1451" />
    <path
       id="path1453"
       style="fill:#333333;fill-opacity:1;stroke:none;stroke-width:0.264999;stroke-linecap:round;stroke-linejoin:round;stroke-miterlimit:4;stroke-dasharray:none;stroke-opacity:0.984314"
       inkscape:transform-center-x="-1.1469805"
       inkscape:transform-center-y="-1.1469804"
       d="m -14.694814,2.8477122 a 1.5068852,0.86887127 45 0 0 -0.469021,0.1646414 l -0.273249,1.7155905 a 0.60145811,0.60145811 0 0 0 0.688312,0.6883117 l 1.71559,-0.2732495 A 1.5068852,0.86887127 45 0 0 -13.033874,4.0783719 1.5068852,0.86887127 45 0 0 -14.0992,3.0130453 1.5068852,0.86887127 45 0 0 -14.694814,2.8477122 Z" />
    <path
       id="path1455"
       style="fill:#1a1a1a;fill-opacity:1;stroke:none;stroke-width:0.264999;stroke-linecap:round;stroke-linejoin:round;stroke-miterlimit:4;stroke-dasharray:none;stroke-opacity:0.984314"
       inkscape:transform-center-x="-1.1469805"
       inkscape:transform-center-y="-1.1469804"
       d="m -12.931492,4.3274092 a 1.5068852,0.86887127 45 0 1 -0.10169,0.1459634 l -1.71559,0.2732495 a 0.60145811,0.60145811 0 0 1 -0.637813,-0.3368922 l -0.0505,0.3182142 a 0.60145811,0.60145811 0 0 0 0.688312,0.6883117 l 1.71559,-0.2732495 a 1.5068852,0.86887127 45 0 0 0.10169,-0.8155971 z" />
    <path
       id="path1457"
       style="fill:#4d4d4d;fill-opacity:1;stroke:none;stroke-width:0.264999;stroke-linecap:round;stroke-linejoin:round;stroke-miterlimit:4;stroke-dasharray:none;stroke-opacity:0.984314"
       inkscape:transform-center-x="-1.1469805"
       inkscape:transform-center-y="-1.1469803"
       d="m -14.742546,2.8477122 a 1.5068852,0.86887127 45 0 0 -0.421289,0.1646414 l -0.273249,1.7155905 a 0.60145811,0.60145811 0 0 0 0.688312,0.6883117 l 0.317522,-0.050499 a 0.60145811,0.60145811 0 0 1 -0.3362,-0.6378126 l 0.273249,-1.7155905 a 1.5068852,0.86887127 45 0 1 0.145964,-0.1016901 1.5068852,0.86887127 45 0 0 -0.346577,-0.062951 1.5068852,0.86887127 45 0 0 -0.04773,-3e-7 z" />
    <path
       d="m -14.694814,2.8477122 a 1.5068852,0.86887127 45 0 0 -0.469021,0.1646414 l -0.273249,1.7155905 a 0.60145811,0.60145811 0 0 0 0.688312,0.6883117 l 1.71559,-0.2732495 A 1.5068852,0.86887127 45 0 0 -13.033874,4.0783719 1.5068852,0.86887127 45 0 0 -14.0992,3.0130453 1.5068852,0.86887127 45 0 0 -14.694814,2.8477122 Z"
       inkscape:transform-center-y="-1.1469804"
       inkscape:transform-center-x="-1.1469805"
       style="fill:none;fill-opacity:1;stroke:#000000;stroke-width:0.264999;stroke-linecap:round;stroke-linejoin:round;stroke-miterlimit:4;stroke-dasharray:none;stroke-opacity:1"
       id="path1459" />
    <path
       inkscape:transform-center-x="-5.0433933"
       id="rect1003"
       style="fill:url(#linearGradient1043);fill-opacity:1;stroke-width:0.264999;stroke-linecap:round;stroke-linejoin:round"
       inkscape:transform-center-y="-5.0433933"
       d="m 7.7005176,-3.7337056 c -0.3109413,-0.3109413 -0.8115906,-0.3109414 -1.1225321,10e-8 l -4.1466448,4.14664484 3.50572,3.50572016 4.1466453,-4.14664492 c 0.310941,-0.31094151 0.310941,-0.81159078 0,-1.12253218 z" />
    <path
       id="path1025"
       style="fill:#f4679d;fill-opacity:1;stroke-width:0.264999;stroke-linecap:round;stroke-linejoin:round"
       inkscape:transform-center-x="-5.0433933"
       inkscape:transform-center-y="-5.0433933"
       d="m 7.1391636,-3.9667475 c -0.2028975,0 -0.4057354,0.07759 -0.5612061,0.2330607 l -4.1465168,4.14651689 0.396875,0.396875 4.1465168,-4.14651689 c 0.3109415,-0.3109416 0.811471,-0.3109413 1.1224123,0 l -0.396875,-0.396875 C 7.544899,-3.8891575 7.3420609,-3.9667473 7.1391636,-3.9667475 Z" />
    <path
       inkscape:transform-center-x="-5.0433933"
       d="m 7.7005176,-3.7337056 c -0.3109413,-0.3109413 -0.8115906,-0.3109414 -1.1225321,10e-8 l -4.1466448,4.14664484 3.50572,3.50572016 4.1466453,-4.14664492 c 0.310941,-0.31094151 0.310941,-0.81159078 0,-1.12253218 z"
       inkscape:transform-center-y="-5.0433933"
       style="fill:none;fill-opacity:1;stroke:#7a0000;stroke-width:0.264999;stroke-linecap:round;stroke-linejoin:round;stroke-opacity:1"
       id="path1017" />
    <path
       id="path1034"
       style="fill:#bc245d;fill-opacity:1;stroke-width:0.264999;stroke-linecap:round;stroke-linejoin:round"
       inkscape:transform-center-x="-5.0433933"
       inkscape:transform-center-y="-5.0433933"
       d="m 9.6868117,-1.7472448 c 0.3109414,0.3109415 0.3109414,0.8114707 0,1.12241211 l -4.146517,4.14651689 0.396875,0.396875 4.1465173,-4.1465169 c 0.310941,-0.31094144 0.310941,-0.8114706 0,-1.1224121 z" />
    <path
       inkscape:transform-center-x="-5.0433933"
       id="path1021"
       style="fill:none;fill-opacity:1;stroke:#910e38;stroke-width:0.264999;stroke-linecap:round;stroke-linejoin:round;stroke-opacity:1"
       inkscape:transform-center-y="-5.0433933"
       d="m 7.7005176,-3.7337056 c -0.3109413,-0.3109413 -0.8115906,-0.3109414 -1.1225321,10e-8 l -4.1466448,4.14664484 3.50572,3.50572016 4.1466453,-4.14664492 c 0.310941,-0.31094151 0.310941,-0.81159078 0,-1.12253218 z" />
  </g>
  <g
     transform="translate(0,2.1166667)"
     style="display:inline"
     inkscape:label="Layer 3"
     id="layer3"
     inkscape:groupmode="layer">
    <path
       transform="matrix(0.26458333,0,0,0.26458333,0,-2.1166667)"
       d="m 26.982422,-6.9921875 c -0.766857,0 -1.533488,0.2932534 -2.121094,0.8808594 L 22.832031,-4.0820312 9.1894531,9.5605469 4.3789062,14.371094 c -1.1752114,1.175211 -1.1752114,3.068929 0,4.24414 l 9.0058598,9.00586 c 1.175211,1.175211 3.068929,1.175211 4.24414,0 L 22.439453,22.810547 36.082031,9.1679688 38.111328,7.1386719 c 1.17521,-1.175212 1.17521,-3.0669759 0,-4.2421875 L 29.103516,-6.1113281 C 28.51591,-6.6989337 27.749279,-6.9921875 26.982422,-6.9921875 Z"
       inkscape:transform-center-y="-4.5587728"
       inkscape:transform-center-x="-4.5587728"
       style="display:inline;fill:url(#linearGradient970);fill-opacity:1;stroke-width:1.00157;stroke-linecap:round;stroke-linejoin:round"
       id="rect965" />
  </g>
</svg>
