<?xml version="1.0" encoding="UTF-8" standalone="no"?>
<svg
   xmlns:dc="http://purl.org/dc/elements/1.1/"
   xmlns:cc="http://creativecommons.org/ns#"
   xmlns:rdf="http://www.w3.org/1999/02/22-rdf-syntax-ns#"
   xmlns:svg="http://www.w3.org/2000/svg"
   xmlns="http://www.w3.org/2000/svg"
   xmlns:xlink="http://www.w3.org/1999/xlink"
   xmlns:sodipodi="http://sodipodi.sourceforge.net/DTD/sodipodi-0.dtd"
   xmlns:inkscape="http://www.inkscape.org/namespaces/inkscape"
   sodipodi:docname="smudge.svg"
   inkscape:version="1.0 (4035a4fb49, 2020-05-01)"
   id="svg1411"
   version="1.1"
   viewBox="0 0 8.4666665 8.4666669"
   height="32"
   width="32">
  <defs
     id="defs1405">
    <linearGradient
       inkscape:collect="always"
       id="linearGradient860">
      <stop
         style="stop-color:#000000;stop-opacity:0.5"
         offset="0"
         id="stop856" />
      <stop
         style="stop-color:#ffffff;stop-opacity:0"
         offset="1"
         id="stop858" />
    </linearGradient>
    <linearGradient
       inkscape:collect="always"
       xlink:href="#linearGradient860"
       id="linearGradient862"
       x1="3.1301153"
       y1="296.20624"
       x2="9.4303856"
       y2="293.5827"
       gradientUnits="userSpaceOnUse"
       gradientTransform="translate(-0.88819632,-0.9921875)" />
  </defs>
  <sodipodi:namedview
     inkscape:snap-nodes="false"
     inkscape:snap-bbox="true"
     inkscape:snap-grids="false"
     inkscape:guide-bbox="true"
     showguides="true"
     units="px"
     showgrid="true"
     inkscape:document-rotation="0"
     inkscape:current-layer="layer1"
     inkscape:document-units="mm"
     inkscape:cy="31.918264"
     inkscape:cx="22.917897"
     inkscape:zoom="11.2"
     inkscape:pageshadow="2"
     inkscape:pageopacity="0.0"
     borderopacity="1.0"
     bordercolor="#666666"
     pagecolor="#ffffff"
     id="base">
    <inkscape:grid
       id="grid2057"
       type="xygrid" />
    <sodipodi:guide
       id="guide2059"
       orientation="0,1"
       position="5.5562499,7.9375002" />
    <sodipodi:guide
       id="guide2061"
       orientation="0,1"
       position="7.9374998,0.79375002" />
    <sodipodi:guide
       id="guide2063"
       orientation="1,0"
       position="0.79374998,5.2916668" />
    <sodipodi:guide
       id="guide2065"
       orientation="1,0"
       position="7.6729165,4.7625001" />
  </sodipodi:namedview>
  <metadata
     id="metadata1408">
    <rdf:RDF>
      <cc:Work
         rdf:about="">
        <dc:format>image/svg+xml</dc:format>
        <dc:type
           rdf:resource="http://purl.org/dc/dcmitype/StillImage" />
        <dc:title />
      </cc:Work>
    </rdf:RDF>
  </metadata>
  <g
     transform="translate(0,-288.53332)"
     id="layer1"
     inkscape:groupmode="layer"
     inkscape:label="Layer 1">
    <path
       style="fill:none;stroke:url(#linearGradient862);stroke-width:1.98438;stroke-linecap:round;stroke-linejoin:miter;stroke-miterlimit:4;stroke-dasharray:none;stroke-opacity:1"
       d="m 2.241919,295.21405 c 2.6222098,-0.009 4.4955542,-0.69453 5.7877604,-1.40324"
       id="path854"
       sodipodi:nodetypes="cc" />
    <rect
       style="display:inline;opacity:0.998;fill:#ed7f6e;fill-opacity:1;stroke:none;stroke-width:0.79375;stroke-linecap:round;stroke-linejoin:round;filter:url(#filter1121)"
       id="rect1274"
       width="1.7569075"
       height="2.5425649"
       x="0.92681503"
       y="290.43338"
       rx="0.29556894"
       ry="0.29556897" />
    <rect
       ry="0.29556894"
       rx="0.29556894"
       y="290.92545"
       x="2.0118127"
       height="2.8537965"
       width="1.7569075"
       id="rect1280"
       style="display:inline;opacity:0.998;fill:#ed7f6e;fill-opacity:1;stroke:none;stroke-width:0.79375;stroke-linecap:round;stroke-linejoin:round;filter:url(#filter1121)" />
    <rect
       transform="matrix(1,0,-0.71075269,0.70344197,0,0)"
       ry="0.52222908"
       rx="0.38233787"
       y="407.0513"
       x="296.05463"
       height="6.9896092"
       width="2.3950095"
       id="rect1278"
       style="display:inline;opacity:0.998;fill:#fbb392;fill-opacity:1;stroke:none;stroke-width:0.946387;stroke-linecap:round;stroke-linejoin:round;filter:url(#filter1121)" />
    <rect
       style="display:inline;opacity:0.998;fill:#fbb392;fill-opacity:1;stroke:none;stroke-width:0.946387;stroke-linecap:round;stroke-linejoin:round;filter:url(#filter1121)"
       id="rect1264"
       width="2.3950095"
       height="6.9896092"
       x="294.50601"
       y="406.39902"
       rx="0.38233787"
       ry="0.52222908"
       transform="matrix(1,0,-0.71075269,0.70344197,0,0)" />
    <rect
       style="display:inline;opacity:0.998;fill:#fbb392;fill-opacity:1;stroke:none;stroke-width:0.79375;stroke-linecap:round;stroke-linejoin:round;filter:url(#filter1121)"
       id="rect1290"
       width="2.1349919"
       height="1.9149536"
       x="4.3153501"
       y="290.97626"
       rx="0"
       ry="0" />
    <path
       style="display:inline;fill:#fbb392;fill-opacity:1;stroke:none;stroke-width:0.264583px;stroke-linecap:butt;stroke-linejoin:miter;stroke-opacity:1;filter:url(#filter1121)"
       d="m 7.0231379,290.19367 3.0208611,-3.29239 -1.7960745,-0.5643 -3.3687589,3.28961 1.435855,0.96664 z"
       id="path1292" />
    <path
       id="rect1294"
       style="display:inline;opacity:0.998;fill:#fbb392;fill-opacity:1;stroke:none;stroke-width:0.793754;stroke-linecap:round;stroke-linejoin:round;filter:url(#filter1121)"
       d="m 7.5398786,288.63388 v 2.80947 c 0,0.22772 -0.1296112,0.54069 -0.2906504,0.70168 l -0.6535633,0.65339 c -0.161039,0.161 -0.2906496,0.10731 -0.2906496,-0.12038 v -2.80948 c 0,-0.22771 0.1296106,-0.54068 0.2906496,-0.70168 l 0.6535633,-0.65338 c 0.1610392,-0.161 0.2906504,-0.10731 0.2906504,0.12038 z"
       sodipodi:nodetypes="sssssssss" />
    <path
       id="path1358"
       style="display:inline;opacity:0.998;fill:#ed7f6e;fill-opacity:1;stroke:none;stroke-width:0.793754;stroke-linecap:round;stroke-linejoin:round;filter:url(#filter1121)"
       d="m 7.5397705,290.87137 c 0,0.22771 -0.1293714,0.541 -0.2904105,0.70198 l -0.6534227,0.6534 c -0.1610392,0.16101 -0.2909685,0.1071 -0.2909685,-0.12062 v 0.57187 c 0,0.22771 0.1299293,0.28163 0.2909685,0.12063 l 0.6534227,-0.6534 c 0.1610391,-0.16101 0.2904105,-0.47429 0.2904105,-0.70201 z" />
    <path
       style="display:inline;fill:#ed7f6e;fill-opacity:1;stroke:none;stroke-width:0.264583px;stroke-linecap:butt;stroke-linejoin:miter;stroke-opacity:1;filter:url(#filter1121)"
       d="m 2.0941339,294.7513 c 0.7271759,-0.0449 1.1097067,-0.37462 1.6459689,-0.88532 1.1726906,-1.11678 2.2177008,-2.20985 2.5649125,-2.6106 -0.0027,-0.74685 -0.00105,-0.99819 -0.00105,-0.99819 0,0 -0.1319502,0.11661 -0.349572,0.30891 -1.0212147,0.9023 -3.9289726,3.47076 -3.9410466,3.47312 -0.014644,0.003 0.080795,0.71208 0.080796,0.71208 z"
       id="path1288"
       sodipodi:nodetypes="csccsccc" />
    <path
       style="display:inline;opacity:0.998;fill:#ed7f6e;fill-opacity:1;stroke:none;stroke-width:0.793747;stroke-linecap:round;stroke-linejoin:round;filter:url(#filter1121)"
       id="path1282"
       sodipodi:type="arc"
       sodipodi:cx="2.0941334"
       sodipodi:cy="293.77917"
       sodipodi:rx="0.97207123"
       sodipodi:ry="0.97204256"
       sodipodi:start="1.5707963"
       sodipodi:end="3.1415927"
       sodipodi:arc-type="slice"
       d="M 2.0941334,294.75122 A 0.97207123,0.97204256 0 0 1 1.4067752,294.46651 0.97207123,0.97204256 0 0 1 1.1220621,293.77917 H 2.0941334 Z" />
    <path
       id="rect1363"
       style="display:inline;opacity:0.998;fill:#ed7f6e;fill-opacity:1;stroke:none;stroke-width:0.79375;stroke-linecap:round;stroke-linejoin:round;filter:url(#filter1121)"
       d="m 4.3151005,292.31947 v 0.57186 h 2.1350737 v -0.57186 z" />
    <path
       style="display:inline;fill:#a62100;fill-opacity:1;stroke:#a62100;stroke-width:0.264583px;stroke-linecap:round;stroke-linejoin:miter;stroke-opacity:1;filter:url(#filter1121)"
       d="m 4.7373114,292.89133 1.5677039,-1.63595"
       id="path1342" />
    <path
       id="rect1346"
       style="display:inline;opacity:0.998;fill:none;fill-opacity:1;stroke:#a62100;stroke-width:0.264583;stroke-linecap:round;stroke-linejoin:round;stroke-miterlimit:4;stroke-dasharray:none;stroke-opacity:1;filter:url(#filter1121)"
       d="m 6.1324491,285.81632 h 1.5686027 c 0.2289153,0 0.2342972,0.17706 0.012071,0.397 l -4.1656171,4.12277 c -0.2222275,0.21994 -0.5854221,0.39701 -0.8143365,0.39701 H 1.1645669 c -0.22891524,0 -0.23429721,-0.17707 -0.012071,-0.39701 l 4.1656151,-4.12277 c 0.2222289,-0.21994 0.5854224,-0.397 0.8143381,-0.397 z" />
    <rect
       style="display:inline;opacity:0.998;fill:#fbb392;fill-opacity:1;stroke:none;stroke-width:0.946387;stroke-linecap:round;stroke-linejoin:round;filter:url(#filter1121)"
       id="rect1352"
       width="2.3950095"
       height="6.9896092"
       x="296.05463"
       y="407.0513"
       rx="0.38233787"
       ry="0.52222908"
       transform="matrix(1,0,-0.71075269,0.70344197,0,0)" />
    <path
       d="m 4.6325025,290.79494 c -0.2222278,0.21993 -0.5854223,0.39699 -0.8143365,0.39699 H 3.4405189 2.249563 c -0.2289143,0 -0.2342974,-0.17706 -0.012071,-0.39699 l 0.5868252,-0.58079"
       style="display:inline;opacity:0.998;fill:none;fill-opacity:1;stroke:#a62100;stroke-width:0.264583;stroke-linecap:round;stroke-linejoin:round;stroke-miterlimit:4;stroke-dasharray:none;stroke-opacity:1;filter:url(#filter1121)"
       id="path1350"
       sodipodi:nodetypes="cscscc" />
    <path
       style="display:inline;fill:none;stroke:#a62100;stroke-width:0.264583px;stroke-linecap:butt;stroke-linejoin:miter;stroke-opacity:1;filter:url(#filter1121)"
       d="m 2.0754438,291.05311 v 1.60457"
       id="path1356" />
    <rect
       style="display:inline;opacity:0.998;fill:#fbb392;fill-opacity:1;stroke:none;stroke-width:0.946395;stroke-linecap:round;stroke-linejoin:round;filter:url(#filter1121)"
       id="rect1270"
       width="1.9992332"
       height="5.8345728"
       x="297.77487"
       y="412.22281"
       rx="0.92254794"
       ry="0.922548"
       transform="matrix(1,0,-0.71075267,0.70344199,0,0)" />
    <path
       id="rect1301"
       style="display:inline;opacity:0.998;fill:none;fill-opacity:1;stroke:#a62100;stroke-width:0.264583;stroke-linecap:round;stroke-linejoin:round;stroke-miterlimit:4;stroke-dasharray:none;stroke-opacity:1;filter:url(#filter1121)"
       d="m 6.0698479,285.87813 c -0.2289142,0 -0.5920373,0.17712 -0.8142652,0.39707 l -4.1657113,4.12259 c -0.12995845,0.12863 -0.17960599,0.2414 -0.15469959,0.31385 -0.001948,0.0142 -0.008321,0.0266 -0.008321,0.0414 v 1.90381 c 0,0.17696 0.14248729,0.31944 0.31945099,0.31944 h 0.507101 l -0.4054587,0.40154 c -0.1514141,0.14985 -0.2236856,0.28781 -0.2256265,0.40154 -1.535e-4,0.25778 0.1020962,0.50507 0.2842669,0.68747 0.1823121,0.18236 0.4296192,0.28481 0.6874905,0.28481 0.7271747,-0.0449 1.1095815,-0.37502 1.6458437,-0.88572 0.352464,-0.33566 0.6835318,-0.6613 0.9974473,-0.97452 h 1.7128629 v -0.005 c 0.042905,-0.008 0.092369,-0.0355 0.1457629,-0.0889 l 0.6534226,-0.65339 c 0.1610391,-0.16101 0.2904106,-0.47429 0.2904106,-0.70201 v -1.81276 l 2.504231,-2.72922 -1.164993,-0.36579 c 0.048081,-0.11826 -0.00216,-0.19826 -0.1552583,-0.19826 H 8.2479786 7.5884119 l 0.062552,-0.062 c 0.2222277,-0.21995 0.2166274,-0.39707 -0.012289,-0.39707 z"
       sodipodi:nodetypes="scccssscccccscccccscccscccss" />
    <path
       style="display:inline;fill:none;stroke:#a62100;stroke-width:0.264583px;stroke-linecap:round;stroke-linejoin:miter;stroke-opacity:1;filter:url(#filter1121)"
       d="m 1.7540279,292.97599 1.947532,-1.92751"
       id="path1330"
       sodipodi:nodetypes="cc" />
  </g>
</svg>
