<?xml version="1.0" encoding="UTF-8" standalone="no"?>
<!DOCTYPE svg PUBLIC "-//W3C//DTD SVG 1.1//EN" "http://www.w3.org/Graphics/SVG/1.1/DTD/svg11.dtd">
<svg width="100%" height="100%" viewBox="0 0 22 22" version="1.1" xmlns="http://www.w3.org/2000/svg" xmlns:xlink="http://www.w3.org/1999/xlink" xml:space="preserve" xmlns:serif="http://www.serif.com/" style="fill-rule:evenodd;clip-rule:evenodd;stroke-linecap:round;stroke-linejoin:round;">
    <g id="Layer-2" serif:id="Layer 2" transform="matrix(1,0,0,1,0,-7.33333)">
        <rect id="rect921" x="8.588" y="12.334" width="4.823" height="12" style="fill:rgb(104,183,35);"/>
        <g id="rect925" transform="matrix(-3.82857e-16,1,-1,-3.82857e-16,0,0)">
            <rect x="15.922" y="-17" width="4.823" height="12" style="fill:rgb(104,183,35);"/>
        </g>
        <path id="rect927" d="M8.588,12.333L8.588,15.921L5,15.921L5,20.745L8.588,20.745L8.588,24.333L13.412,24.333L13.412,20.745L17,20.745L17,15.921L13.412,15.921L13.412,12.333L8.588,12.333Z" style="fill:url(#_Linear1);fill-rule:nonzero;"/>
        <g id="path1784" transform="matrix(0.75,0,0,0.75,0,7.33333)">
            <path d="M6.667,15.216L6.667,17.883L11.451,17.883L11.451,15.216L6.667,15.216ZM17.883,15.216L17.883,17.883L22.667,17.883L22.667,15.216L17.883,15.216ZM11.451,20L11.451,22.667L17.883,22.667L17.883,20L11.451,20Z" style="fill:rgb(58,145,4);fill-rule:nonzero;"/>
        </g>
        <g id="path1762" transform="matrix(0.75,0,0,0.75,0,7.33333)">
            <path d="M11.451,6.667L11.451,9.333L17.883,9.333L17.883,6.667L11.451,6.667ZM6.667,11.451L6.667,14.117L11.451,14.117L11.451,11.451L6.667,11.451ZM17.883,11.451L17.883,14.117L22.667,14.117L22.667,11.451L17.883,11.451Z" style="fill:rgb(209,255,130);fill-rule:nonzero;"/>
        </g>
        <path id="path934" d="M8.588,12.333L8.588,15.921L5,15.921L5,20.745L8.588,20.745L8.588,24.333L13.412,24.333L13.412,20.745L17,20.745L17,15.921L13.412,15.921L13.412,12.333L8.588,12.333Z" style="fill:none;fill-rule:nonzero;stroke:rgb(32,107,0);stroke-width:1px;"/>
    </g>
    <defs>
        <linearGradient id="_Linear1" x1="0" y1="0" x2="1" y2="0" gradientUnits="userSpaceOnUse" gradientTransform="matrix(0.0178558,16.2555,-16.2555,0.0178558,11.4464,12.3337)"><stop offset="0" style="stop-color:rgb(104,183,35);stop-opacity:1"/><stop offset="1" style="stop-color:rgb(58,145,4);stop-opacity:1"/></linearGradient>
    </defs>
</svg>
