<svg xmlns="http://www.w3.org/2000/svg" width="100%" height="100%" viewBox="0 0 22 22" fill-rule="evenodd" stroke-linecap="round" stroke-linejoin="round" xmlns:v="https://vecta.io/nano"><g fill-rule="nonzero"><path d="M13.5 3.5l-5 4h-4c-.099 0-2 .9-2 1v6h13v-10c0-.635-.365-1-1-1-.203 0-.824-.101-1 0z" fill="url(#A)"/><path d="M15.5 7.5c4.147 0 4 3.463 4 4 0 1.333-.464 4-4 4" fill="url(#B)"/></g><g fill="none" stroke="#0e141f"><path d="M15.5 7.5c2.597 0 4 1.176 4 4s-1.403 4-4 4"/><path d="M13.5 3.5l-5 4h-4c-.893 0-2 .606-2 1.5v5h13V4.5c0-.516-.484-1-1-1h-1z"/></g><path d="M1.071 13H21v7H1.071z" fill="#fff"/><path d="M1.5 12.5h19v7h-19z" fill="none" stroke="#0e141f" stroke-miterlimit="1.5"/><path d="M9 13h4v6H9z" fill="#e84850" fill-opacity=".6"/><path d="M3.5 13v3.5m5-3.5v3.5m5-3.5v3.5m5-3.5v3.5" fill="none" stroke="#0e141f" stroke-miterlimit="1.5"/><defs><linearGradient id="A" x1="0" y1="0" x2="1" y2="-.005" gradientUnits="userSpaceOnUse" gradientTransform="matrix(0.0946092,33.9622,-22.6127,0.142095,6.84128,1.48393)"><stop offset="0" stop-color="#f4f4f4"/><stop offset="1" stop-color="#dbdbdb"/></linearGradient><linearGradient id="B" x1="0" y1="0" x2="1" y2=".003" gradientUnits="userSpaceOnUse" gradientTransform="matrix(-0.165625,12.084,-11.08,-0.180632,17.4812,6.10296)"><stop offset="0" stop-color="#d4d4d4"/><stop offset="1" stop-color="#abacae"/></linearGradient></defs></svg>