<svg xmlns="http://www.w3.org/2000/svg" xml:space="preserve" style="fill-rule:evenodd;clip-rule:evenodd;stroke-linecap:round;stroke-linejoin:round;stroke-miterlimit:1.5" viewBox="0 0 22 22"><path d="M0 0h22v22H0z" style="fill:none"/><path d="m13.5 3.5-5 4h-4c-.1 0-2 .9-2 1v6h13v-10c0-.63-.37-1-1-1-.2 0-.82-.1-1 0Z" style="fill:#ececec;fill-opacity:.99;fill-rule:nonzero"/><path d="M17.5 6.92a5 5 0 0 1 0 9.17M16 9.5a2.5 2.5 0 0 1 0 4.02" style="fill:none;stroke:#164b88;stroke-width:2px"/><path d="m13.5 3.5-5 4h-4c-.9 0-2 .6-2 1.5v5h13V4.5c0-.52-.48-1-1-1h-1Z" style="fill:none;fill-rule:nonzero;stroke:#333;stroke-width:1px;stroke-miterlimit:4"/><path d="M1.07 13H21v7H1.07z" style="fill:#fff"/><path d="M1.5 12.5h19v7h-19z" style="fill:none;stroke:#0e141f;stroke-width:1px"/><path d="M9 13h4v6H9z" style="fill:#e84850;fill-opacity:.6"/><path d="M3.5 13v3.5M8.5 13v3.5M13.5 13v3.5M18.5 13v3.5" style="fill:none;stroke:#0e141f;stroke-width:1px"/></svg>