<svg xmlns="http://www.w3.org/2000/svg" viewBox="0 0 22 22" fill-rule="evenodd" stroke-linecap="round" stroke-linejoin="round" xmlns:v="https://vecta.io/nano"><path d="M11.42 1a.5.5 0 0 0-.26.08l-2.2 1.38-3.81 2.38c-.17.1-.27.3-.27.5s.1.4.27.5l2.2 1.38 3.81 2.38a.5.5 0 0 0 .27.08c.29 0 .53-.26.53-.58V7.12a4.94 4.94 0 0 1 2.92 8.43 4.95 4.95 0 0 1-8.47-3.51c0-1.1-.9-2-2-2s-2 .9-2 2a8.97 8.97 0 0 0 15.3 6.34A8.98 8.98 0 0 0 11.96 3.1V1.58c0-.32-.24-.58-.53-.58Z" fill="#2f7ede" fill-rule="nonzero"/><path d="M18.34 7c3.37 13.57-13 17.64-14.96 3.5-1.87.1-.38 15.16 13.95 8.62 2.7-2.79 4.18-7.95 1-12.12Z" fill="#0456b3"/><path d="M11.42 1a.5.5 0 0 0-.26.08l-2.2 1.38-3.81 2.38c-.17.1-.27.3-.27.5s.1.4.27.5l2.2 1.38 3.81 2.38a.5.5 0 0 0 .27.08c.29 0 .53-.26.53-.58V7.12a4.94 4.94 0 0 1 2.92 8.43 4.95 4.95 0 0 1-8.47-3.51c0-1.1-.9-2-2-2s-2 .9-2 2a8.97 8.97 0 0 0 15.3 6.34A8.98 8.98 0 0 0 11.96 3.1V1.58c0-.32-.24-.58-.53-.58h0Z" fill="none" stroke="#335985"/></svg>