<svg xmlns="http://www.w3.org/2000/svg" width="100%" height="100%" viewBox="0 0 22 22" fill-rule="evenodd" stroke-linecap="round" stroke-linejoin="round" xmlns:v="https://vecta.io/nano"><g fill-rule="nonzero"><path d="M13.5 3.5l-5 4h-4c-.099 0-2 .9-2 1v6c0 .1 1.901 1 2 1h4l5 4.016c.176.101.797 0 1 0 .635 0 1-.381 1-1.016v-14c0-.635-.365-1-1-1-.203 0-.824-.101-1 0z" fill="url(#A)"/><path d="M2.5 12.273V13.5a2.01 2.01 0 0 0 2 2h4l5 4.016c.176.102.797 0 1 0 .634 0 .999-.382 1-1.016v-2c-.025.616-.383 1-1 1h-1l-5-4h-4c-1.099-.001-1.999-.128-2-1.227z" fill="#959595"/><path d="M15.5 7.5c4.147 0 4 3.463 4 4 0 1.333-.464 4-4 4" fill="url(#B)"/><path d="M19.5 10.773C19.162 12.495 17.619 14 16 14v1.5c3.68-.364 3.578-1.886 3.578-3.941 0-.262-.027-.524-.078-.786z" fill="#7e8087"/></g><g fill="none" stroke="#0e141f"><path d="M15.5 7.5c2.597 0 4 1.176 4 4s-1.403 4-4 4"/><path d="M13.5 3.5l-5 4h-4c-.893 0-2 .606-2 1.5v5c0 .894 1.107 1.5 2 1.5h4l5 4h1c.516 0 1-.484 1-1v-14c0-.516-.484-1-1-1h-1z"/></g><defs><linearGradient id="A" x1="0" y1="0" x2="1" y2="-.005" gradientUnits="userSpaceOnUse" gradientTransform="matrix(0.0946092,33.9622,-22.6127,0.142095,6.84128,1.48393)"><stop offset="0" stop-color="#f4f4f4"/><stop offset="1" stop-color="#dbdbdb"/></linearGradient><linearGradient id="B" x1="0" y1="0" x2="1" y2=".003" gradientUnits="userSpaceOnUse" gradientTransform="matrix(-0.165625,12.084,-11.08,-0.180632,17.4812,6.10296)"><stop offset="0" stop-color="#d4d4d4"/><stop offset="1" stop-color="#abacae"/></linearGradient></defs></svg>