<svg xmlns="http://www.w3.org/2000/svg" xml:space="preserve" style="fill-rule:evenodd;clip-rule:evenodd;stroke-linecap:round;stroke-linejoin:round;stroke-miterlimit:1.5" viewBox="0 0 22 22"><path d="M0 0h22v22H0z" style="fill:none"/><path d="M17.5 6.92a5 5 0 0 1 0 9.17" style="fill:none;stroke:#164b88;stroke-width:2px"/><path d="M19.5 8.5a5.01 5.01 0 0 1 0 6" style="fill:none;stroke:#2f7ede;stroke-opacity:.99;stroke-width:2px"/><path d="M16 9.5a2.5 2.5 0 0 1 0 4.02" style="fill:none;stroke:#164b88;stroke-width:2px"/><path d="M16.96 11a2.57 2.57 0 0 1 0 1" style="fill:none;stroke:#2f7ede;stroke-opacity:.99;stroke-width:2px"/><path d="m13.5 3.5-5 4h-4c-.1 0-2 .9-2 1v6c0 .1 1.9 1 2 1h4l5 4.02c.18.1.8 0 1 0 .63 0 1-.38 1-1.02v-14c0-.63-.37-1-1-1-.2 0-.82-.1-1 0Z" style="fill:#ececec;fill-rule:nonzero"/><path d="M8.5 7.5H4.07c-.87 0-1.57.7-1.57 1.57v4.86c0 .87.7 1.57 1.57 1.57H8.5v-8Z" style="fill:#b6b6b6"/><path d="m13.5 3.5-5 4h-4c-.9 0-2 .6-2 1.5v5c0 .9 1.1 1.5 2 1.5h4l5 4h1c.52 0 1-.48 1-1v-14c0-.52-.48-1-1-1h-1Z" style="fill:none;fill-rule:nonzero;stroke:#333;stroke-width:1px;stroke-miterlimit:4"/><path d="m11 17.5 2.5 2h1c.52 0 1-.48 1-1v-14c0-.52-.48-1-1-1h-1l-2.5 2" style="fill:none;fill-rule:nonzero;stroke:#555761;stroke-opacity:.99;stroke-width:1px;stroke-miterlimit:4"/></svg>