<svg xmlns="http://www.w3.org/2000/svg" viewBox="0 0 22 23" fill-rule="evenodd" stroke-linecap="round" stroke-linejoin="round" stroke-miterlimit="1.5" xmlns:v="https://vecta.io/nano"><path d="M15 9c4.1.28 3.9 5.19 0 5.47" fill="none" stroke="#2f7ede" stroke-width="1.5"/><g fill-rule="nonzero"><path d="M14.5 1.64 9.85 6.07l-1.13.65H2.75a2 2 0 0 0-2 2v5.55c0 1.1.9 2 2 2H8.7l1.13.66 4.67 4.43c.17.1.37.16.57.16.64 0 1.16-.53 1.16-1.16V2.64a1.16 1.16 0 0 0-1.73-1Z" fill="url(#A)"/><path d="M.76 11.43v2.84c0 1.1.9 2 2 2h5.95l1.13.66 4.67 4.43a1.15 1.15 0 0 0 1.73-1v-2.8a1.16 1.16 0 0 1-1.73.96l-4.67-4.43-1.13-.65H2.75c-1.1 0-2-.91-2-2Z" fill="#959595"/></g><g fill="none"><path d="M14.5 1.64 8.7 6.72H2.76a2 2 0 0 0-2 2v5.55c0 1.1.9 2 2 2h5.95l5.8 5.1a1.16 1.16 0 0 0 1.73-1V2.63a1.16 1.16 0 0 0-1.73-1Z" stroke="#0e141f" stroke-miterlimit="4"/><path d="M18 7c4.1.5 3.9 8.98 0 9.47" stroke="#2f7ede" stroke-width="1.5"/></g><defs><linearGradient id="A" x1="0" y1="0" x2="1" y2="-.01" gradientUnits="userSpaceOnUse" gradientTransform="matrix(.0946 33.9622 -22.6127 .1421 7.84 1.48)"><stop offset="0" stop-color="#f4f4f4"/><stop offset="1" stop-color="#dbdbdb"/></linearGradient></defs></svg>