<svg xmlns="http://www.w3.org/2000/svg" width="100%" height="100%" viewBox="0 0 22 22" fill-rule="evenodd" stroke-linecap="round" stroke-linejoin="round" stroke-miterlimit="1.5" xmlns:v="https://vecta.io/nano"><circle cx="11" cy="11.988" r="9" fill="#ececec" fill-opacity=".99" stroke="#333"/><path d="M12 3.488a.5.5 0 0 0-.5-.5h-1a.5.5 0 0 0-.5.5v1.5a.5.5 0 0 0 .5.5h1a.5.5 0 0 0 .5-.5v-1.5zm7.442 9.469a.5.5 0 0 0 .5-.5v-1a.5.5 0 0 0-.5-.5H18a.5.5 0 0 0-.5.5v1a.5.5 0 0 0 .5.5h1.442zM12 18.988a.5.5 0 0 0-.5-.5h-1a.5.5 0 0 0-.5.5v1.445a.5.5 0 0 0 .5.5h1a.5.5 0 0 0 .5-.5v-1.445zm-9.445-8a.5.5 0 0 0-.5.5v1a.5.5 0 0 0 .5.5H4a.5.5 0 0 0 .5-.5v-1a.5.5 0 0 0-.5-.5H2.555zm3.268-5.591a.5.5 0 0 0-.707 0l-.707.707a.5.5 0 0 0 0 .707l.823.823a.5.5 0 0 0 .707 0l.707-.707a.5.5 0 0 0 0-.707l-.823-.823zm12.031 1.151a.5.5 0 0 0 0-.707l-.708-.707a.5.5 0 0 0-.707 0L15.354 6.22a.5.5 0 0 0 0 .707l.707.707a.5.5 0 0 0 .707 0l1.086-1.086zm-1.677 12.031a.5.5 0 0 0 .707 0l.707-.708a.5.5 0 0 0 0-.707l-.823-.823a.5.5 0 0 0-.707 0l-.707.707a.5.5 0 0 0 0 .707l.823.824zM4.646 17.164a.5.5 0 0 0 0 .707l.708.708a.5.5 0 0 0 .707 0l.823-.824a.5.5 0 0 0 0-.707l-.707-.707a.5.5 0 0 0-.707 0l-.824.823z" fill-opacity=".99" fill="#555761"/><path d="M4.878 3.391c-.209-.209-.547-.209-.756 0L2.403 5.11c-.208.208-.208.547 0 .756l.756.756c.209.209.548.209.757 0l1.718-1.719c.209-.208.209-.547 0-.756l-.756-.756zM14 1.622c0-.343-.279-.622-.622-.622H8.622C8.279 1 8 1.279 8 1.622v1.244c0 .343.279.622.622.622h4.756c.343 0 .622-.279.622-.622V1.622zm3.344 1.83c.243-.242.637-.242.88 0l1.595 1.596a.62.62 0 0 1 0 .879l-.879.88a.62.62 0 0 1-.88 0l-1.595-1.596a.62.62 0 0 1 0-.879l.879-.88z" fill-opacity=".99" fill="#7e8087"/><circle cx="11" cy="11.988" r="9" fill="none" stroke="#333"/><g fill="#333"><path d="M4.5 11.988l.754.707 2.953-2.768-.754-.707L4.5 11.988z"/><path d="M5.254 11.281l-.754.707 2.953 2.767.754-.707-2.953-2.767zm12.246.707l-.767.707-3.001-2.768.767-.707 3.001 2.768z"/><path d="M16.733 11.281l.767.707-3.001 2.767-.767-.707 3.001-2.767zm-3.906-1.543l-.866-.5-2.827 4.897.866.5 2.827-4.897z"/></g><circle cx="17" cy="17" r="4.5" fill="#ececec" fill-opacity=".99" stroke="#333"/><path d="M17 19l-2.355-3h4.71L17 19z" fill="#333"/></svg>