<svg xmlns="http://www.w3.org/2000/svg" viewBox="0 0 22 23" fill-rule="evenodd" stroke-linecap="round" stroke-linejoin="round" xmlns:v="https://vecta.io/nano"><g fill-rule="nonzero"><path d="M16.7 1.86 12.05 6.3l-1.13.66H4.95a2 2 0 0 0-2 2v5.54c0 1.1.9 2.01 2 2.01h13.48V2.87a1.16 1.16 0 0 0-1.73-1Z" fill="url(#A)"/><path d="M2.96 11.66v2.83c0 1.1.9 2 2 2l3.34-2.83H4.96a2 2 0 0 1-2-2Z" fill="#959595"/></g><path d="m16.7 1.86-5.8 5.09H4.96a2 2 0 0 0-2 2v5.54c0 1.1.9 2.01 2 2.01h5.94l7.54-2.51V2.86a1.16 1.16 0 0 0-1.73-1Z" fill="none" stroke="#0e141f"/><path fill="#fff" d="M1.07 13H21v7H1.07z"/><path fill="none" stroke="#0e141f" stroke-miterlimit="1.5" d="M1.07 13H21v7H1.07z"/><path fill="#e84850" fill-opacity=".6" d="M8.22 13.5h4.95V23H8.22z"/><path d="M3.22 13v3m5-3v3m5-3v3m5-3v3" fill="none" stroke="#0e141f" stroke-miterlimit="1.5"/><defs><linearGradient id="A" x1="0" y1="0" x2="1" y2="-.01" gradientUnits="userSpaceOnUse" gradientTransform="matrix(.0946 33.9622 -22.6127 .1421 10.04 1.7)"><stop offset="0" stop-color="#f4f4f4"/><stop offset="1" stop-color="#dbdbdb"/></linearGradient></defs></svg>