<svg xmlns="http://www.w3.org/2000/svg" width="100%" height="100%" viewBox="0 0 22 22" fill-rule="evenodd" stroke-linecap="round" stroke-linejoin="round" xmlns:v="https://vecta.io/nano"><path d="M11.5 3.5c0-.238-5.123 3.923-5 4l5 3.009V8.5c1.328.156 2.793.342 3 3.5.072 1.444-.569 3.567-3 3.5-2.465.089-3.942-1.712-3.942-3.221a1.51 1.51 0 0 0-1.5-1.5 1.51 1.51 0 0 0-1.5 1.5C4.558 14.994 6.492 16.96 9 18s5.113.951 7.032-.968S18.039 12.509 17 10c-.983-2.372-2.962-4.334-5.5-4.5v-2z" fill="#2f7ede" fill-rule="nonzero"/><path d="M16.5 8.499c1.455 5.855-2.055 8.607-5.5 8.501-2.545-.078-5.055-1.502-5.5-5.5-2.407.071.255 9.907 10 6 2.032-2.087 3.377-5.869 1-9.001z" fill="#0456b3"/><path d="M11.5 3.5l-5 4c-.123.077 5 3.237 5 3v-2c1.328.156 2.987.484 3 3.5.001.144.068 3.459-3 3.5-2.508.033-4-1.49-4-3A1.51 1.51 0 0 0 6 11c-.823 0-1.442.677-1.442 1.5 0 2.715 1.434 4.46 3.942 5.5 2.508.908 5.581.919 7.5-1s2.039-4.991 1-7.5c-.983-2.372-2.962-3.834-5.5-4v-2z" fill="none" stroke="#335985"/></svg>