<?xml version="1.0" encoding="UTF-8" standalone="no"?>
<!DOCTYPE svg PUBLIC "-//W3C//DTD SVG 1.1//EN" "http://www.w3.org/Graphics/SVG/1.1/DTD/svg11.dtd">
<svg width="100%" height="100%" viewBox="0 0 22 22" version="1.1" xmlns="http://www.w3.org/2000/svg" xmlns:xlink="http://www.w3.org/1999/xlink" xml:space="preserve" xmlns:serif="http://www.serif.com/" style="fill-rule:evenodd;clip-rule:evenodd;stroke-linecap:round;stroke-linejoin:round;">
    <g id="Layer-2" serif:id="Layer 2">
        <path id="rect927" d="M8.739,5.375L8.739,8.739L5.375,8.739L5.375,13.261L8.739,13.261L8.739,16.625L13.261,16.625L13.261,13.261L16.625,13.261L16.625,8.739L13.261,8.739L13.261,5.375L8.739,5.375Z" style="fill:url(#_Linear1);fill-rule:nonzero;"/>
        <path id="path1776" d="M8.739,5.375L8.739,6.446L13.261,6.446L13.261,5.375L8.739,5.375ZM5.375,8.739L5.375,9.81L8.739,9.81L8.739,8.739L5.375,8.739ZM13.261,8.739L13.261,9.81L16.625,9.81L16.625,8.739L13.261,8.739Z" style="fill:rgb(140,213,255);fill-rule:nonzero;"/>
        <path id="path1785" d="M5.375,12.19L5.375,13.261L8.739,13.261L8.739,12.19L5.375,12.19ZM13.261,12.19L13.261,13.261L16.625,13.261L16.625,12.19L13.261,12.19ZM8.739,15.554L8.739,16.625L13.261,16.625L13.261,15.554L8.739,15.554Z" style="fill:rgb(13,82,191);fill-rule:nonzero;"/>
        <path id="path934" d="M8.739,5.375L8.739,8.739L5.375,8.739L5.375,13.261L8.739,13.261L8.739,16.625L13.261,16.625L13.261,13.261L16.625,13.261L16.625,8.739L13.261,8.739L13.261,5.375L8.739,5.375Z" style="fill:none;fill-rule:nonzero;stroke:rgb(0,46,153);stroke-width:0.75px;"/>
    </g>
    <defs>
        <linearGradient id="_Linear1" x1="0" y1="0" x2="1" y2="0" gradientUnits="userSpaceOnUse" gradientTransform="matrix(-0.281571,-14.5412,14.5412,-0.281571,11.0705,18.4844)"><stop offset="0" style="stop-color:rgb(54,137,230);stop-opacity:1"/><stop offset="1" style="stop-color:rgb(100,186,255);stop-opacity:1"/></linearGradient>
    </defs>
</svg>
