<?xml version="1.0" encoding="UTF-8" standalone="no"?>
<!DOCTYPE svg PUBLIC "-//W3C//DTD SVG 1.1//EN" "http://www.w3.org/Graphics/SVG/1.1/DTD/svg11.dtd">
<svg width="100%" height="100%" viewBox="0 0 22 22" version="1.1" xmlns="http://www.w3.org/2000/svg" xmlns:xlink="http://www.w3.org/1999/xlink" xml:space="preserve" xmlns:serif="http://www.serif.com/" style="fill-rule:evenodd;clip-rule:evenodd;stroke-linecap:round;stroke-linejoin:round;">
    <g id="Layer-2" serif:id="Layer 2" transform="matrix(1,0,0,1,0,-7.33333)">
        <g transform="matrix(0.387357,-0.223839,0.223641,0.3877,21.3862,19.0471)">
            <path d="M-4.099,-4.207L-48.776,-4.207L-37.607,-23.553L-26.437,-42.898L-15.268,-23.553L-4.099,-4.207Z" style="fill:rgb(74,159,241);fill-rule:nonzero;"/>
            <g>
                <g transform="matrix(1.9362,1.11786,-1.11688,1.93449,-20.1346,-60.7532)">
                    <path d="M1.552,8.333L1.552,28.333L10.204,23.333L18.857,18.333L16.004,16.683L8.777,20.859L4.408,23.383L4.408,9.983L1.552,8.333Z" style="fill:rgb(25,112,204);fill-rule:nonzero;"/>
                </g>
                <g transform="matrix(1.9362,1.11786,-1.11688,1.93449,-20.1346,-60.7532)">
                    <path d="M1.552,8.333L1.552,11.19L10.204,16.19L16.385,19.762L18.857,18.333L10.204,13.333L1.552,8.333Z" style="fill:rgb(140,213,255);fill-rule:nonzero;"/>
                </g>
            </g>
            <path d="M-4.099,-4.207L-48.776,-4.207L-37.607,-23.553L-26.437,-42.898L-15.268,-23.553L-4.099,-4.207Z" style="fill:none;fill-rule:nonzero;stroke:rgb(0,46,153);stroke-width:2.23px;"/>
        </g>
        <rect id="rect1658" x="17.148" y="8.333" width="3.3" height="20" style="fill:url(#_Linear1);"/>
        <rect id="rect1681" x="17.148" y="25.476" width="3.301" height="2.857" style="fill:rgb(25,112,204);"/>
        <rect id="rect3180" x="17.148" y="8.333" width="3.301" height="2.857" style="fill:rgb(140,213,255);"/>
        <rect id="rect1668" x="17.148" y="8.333" width="3.3" height="20" style="fill:none;stroke:rgb(0,46,153);stroke-width:1px;"/>
    </g>
    <defs>
        <linearGradient id="_Linear1" x1="0" y1="0" x2="1" y2="0" gradientUnits="userSpaceOnUse" gradientTransform="matrix(-0.067342,-22.6096,22.6096,-0.067342,18.8992,29.6381)"><stop offset="0" style="stop-color:rgb(54,137,230);stop-opacity:1"/><stop offset="1" style="stop-color:rgb(100,186,255);stop-opacity:1"/></linearGradient>
    </defs>
</svg>
