<?xml version="1.0" encoding="UTF-8" standalone="no"?>
<!DOCTYPE svg PUBLIC "-//W3C//DTD SVG 1.1//EN" "http://www.w3.org/Graphics/SVG/1.1/DTD/svg11.dtd">
<svg width="100%" height="100%" viewBox="0 0 22 22" version="1.1" xmlns="http://www.w3.org/2000/svg" xmlns:xlink="http://www.w3.org/1999/xlink" xml:space="preserve" xmlns:serif="http://www.serif.com/" style="fill-rule:evenodd;clip-rule:evenodd;stroke-linecap:round;stroke-linejoin:round;">
    <g id="Layer-2" serif:id="Layer 2" transform="matrix(1,0,0,1,0,-9.33333)">
        <rect id="rect904" x="2.875" y="13.333" width="16.25" height="14" style="fill:url(#_Linear1);"/>
        <rect id="rect1466" x="2.875" y="13.333" width="16.25" height="14" style="fill:none;stroke:rgb(85,87,97);stroke-width:1px;"/>
        <rect id="rect921" x="12.456" y="18.247" width="3.251" height="8.087" style="fill:rgb(104,183,35);"/>
        <g id="rect925" transform="matrix(-3.82857e-16,1,-1,-3.82857e-16,0,0)">
            <rect x="20.665" y="-18.125" width="3.251" height="8.087" style="fill:rgb(104,183,35);"/>
        </g>
        <path id="rect927" d="M12.456,18.247L12.456,20.665L10.038,20.665L10.038,23.915L12.456,23.915L12.456,26.333L15.707,26.333L15.707,23.915L18.125,23.915L18.125,20.665L15.707,20.665L15.707,18.247L12.456,18.247Z" style="fill:url(#_Linear2);fill-rule:nonzero;"/>
        <path id="path1202" d="M12.457,18.247L12.457,19.747L15.707,19.747L15.707,18.247L12.457,18.247ZM10.039,20.665L10.039,22.165L12.457,22.165L12.457,20.665L10.039,20.665ZM15.707,20.665L15.707,22.165L18.125,22.165L18.125,20.665L15.707,20.665Z" style="fill:rgb(209,255,130);fill-rule:nonzero;"/>
        <path id="path1218" d="M10.039,22.415L10.039,23.915L12.457,23.915L12.457,22.415L10.039,22.415ZM15.707,22.415L15.707,23.915L18.125,23.915L18.125,22.415L15.707,22.415ZM12.457,24.833L12.457,26.333L15.707,26.333L15.707,24.833L12.457,24.833Z" style="fill:rgb(58,145,4);fill-rule:nonzero;"/>
        <path id="path934" d="M12.456,18.247L12.456,20.665L10.038,20.665L10.038,23.915L12.456,23.915L12.456,26.333L15.707,26.333L15.707,23.915L18.125,23.915L18.125,20.665L15.707,20.665L15.707,18.247L12.456,18.247Z" style="fill:none;fill-rule:nonzero;stroke:rgb(32,107,0);stroke-width:1px;"/>
    </g>
    <defs>
        <linearGradient id="_Linear1" x1="0" y1="0" x2="1" y2="0" gradientUnits="userSpaceOnUse" gradientTransform="matrix(0.0993024,23.7344,-23.7344,0.0993024,10.3086,13.3333)"><stop offset="0" style="stop-color:rgb(244,244,244);stop-opacity:1"/><stop offset="1" style="stop-color:rgb(219,219,219);stop-opacity:1"/></linearGradient>
        <linearGradient id="_Linear2" x1="0" y1="0" x2="1" y2="0" gradientUnits="userSpaceOnUse" gradientTransform="matrix(0.0120334,10.9549,-10.9549,0.0120334,14.3822,18.2468)"><stop offset="0" style="stop-color:rgb(104,183,35);stop-opacity:1"/><stop offset="1" style="stop-color:rgb(58,145,4);stop-opacity:1"/></linearGradient>
    </defs>
</svg>
