<svg xmlns="http://www.w3.org/2000/svg" width="100%" height="100%" viewBox="0 0 22 22" fill-rule="evenodd" stroke-linecap="round" stroke-linejoin="round" xmlns:v="https://vecta.io/nano"><path d="M18.377 16.594a.75.75 0 0 0 .748-.748v-3.303a.75.75 0 0 0-.748-.749H9.32a.75.75 0 0 0-.749.749v3.303a.75.75 0 0 0 .749.748h9.057z" fill="#3b3b3b" fill-opacity=".59"/><path d="M3 4h16v14H3z" fill="url(#A)"/><path d="M2.5 3.5h17v15h-17z" fill="none" stroke="#555761"/><path d="M20.5 17.5v-3.978h-10V17.5h10z" fill="#e84850"/><path d="M20.5 17.479V13.5h-10v3.979h10z" fill="none" stroke="#7a0000"/><defs><linearGradient id="A" x1="0" y1="0" x2="1" y2="0" gradientUnits="userSpaceOnUse" gradientTransform="matrix(0.0977747,23.735,-23.3693,0.0993047,10.3192,3.99997)"><stop offset="0" stop-color="#f4f4f4"/><stop offset="1" stop-color="#dbdbdb"/></linearGradient></defs></svg>