<?xml version="1.0" encoding="UTF-8" standalone="no"?>
<!DOCTYPE svg PUBLIC "-//W3C//DTD SVG 1.1//EN" "http://www.w3.org/Graphics/SVG/1.1/DTD/svg11.dtd">
<svg width="100%" height="100%" viewBox="0 0 22 22" version="1.1" xmlns="http://www.w3.org/2000/svg" xmlns:xlink="http://www.w3.org/1999/xlink" xml:space="preserve" xmlns:serif="http://www.serif.com/" style="fill-rule:evenodd;clip-rule:evenodd;stroke-linecap:round;stroke-linejoin:round;">
    <g id="Layer-2" serif:id="Layer 2" transform="matrix(1,0,0,1,0,-7.33333)">
        <g id="rect2694" transform="matrix(0.898451,-0.439074,0.898451,0.439074,0,0)">
            <rect x="-23.866" y="26.287" width="9.822" height="9.822" style="fill:rgb(171,172,174);"/>
        </g>
        <g id="rect2696" transform="matrix(0.898451,-0.439074,0.898451,0.439074,0,0)">
            <rect x="-23.866" y="26.287" width="9.822" height="9.822" style="fill:none;stroke:rgb(85,87,97);stroke-opacity:0.99;stroke-width:1.13px;"/>
        </g>
        <g id="rect2698" transform="matrix(0.898451,-0.439074,0.898451,0.439074,0,0)">
            <rect x="-19.667" y="22.088" width="9.822" height="9.822" style="fill:rgb(212,212,212);"/>
        </g>
        <g id="rect2700" transform="matrix(0.898451,-0.439074,0.898451,0.439074,0,0)">
            <rect x="-19.667" y="22.088" width="9.822" height="9.822" style="fill:none;stroke:rgb(85,87,97);stroke-opacity:0.99;stroke-width:1.13px;"/>
        </g>
        <g id="rect2702" transform="matrix(0.898451,-0.439074,0.898451,0.439074,0,0)">
            <rect x="-15.467" y="17.889" width="9.822" height="9.822" style="fill:rgb(250,250,250);"/>
        </g>
        <g id="rect2704" transform="matrix(0.898451,-0.439074,0.898451,0.439074,0,0)">
            <rect x="-15.467" y="17.889" width="9.822" height="9.822" style="fill:none;stroke:rgb(85,87,97);stroke-width:1.13px;"/>
        </g>
        <g id="rect2708" transform="matrix(-3.82857e-16,1,-1,-3.82857e-16,0,0)">
            <rect x="20.665" y="-20.04" width="3.251" height="8.087" style="fill:url(#_Linear1);"/>
        </g>
        <g id="rect3158" transform="matrix(0.75,0,0,0.75,0,7.33333)">
            <rect x="15.938" y="20.109" width="10.781" height="2" style="fill:rgb(154,15,14);fill-rule:nonzero;"/>
        </g>
        <g id="rect3147" transform="matrix(0.75,0,0,0.75,0,7.33333)">
            <rect x="15.938" y="17.776" width="10.781" height="2" style="fill:rgb(252,148,139);fill-rule:nonzero;"/>
        </g>
        <g id="rect3143" transform="matrix(-3.82857e-16,1,-1,-3.82857e-16,0,0)">
            <rect x="20.665" y="-20.04" width="3.251" height="8.087" style="fill:none;stroke:rgb(122,0,0);stroke-width:1px;"/>
        </g>
    </g>
    <defs>
        <linearGradient id="_Linear1" x1="0" y1="0" x2="1" y2="0" gradientUnits="userSpaceOnUse" gradientTransform="matrix(3.66867,-0.00373467,0.00373467,3.66867,20.6647,-15.9963)"><stop offset="0" style="stop-color:rgb(198,38,46);stop-opacity:1"/><stop offset="1" style="stop-color:rgb(161,7,5);stop-opacity:1"/></linearGradient>
    </defs>
</svg>
