<?xml version="1.0" encoding="UTF-8" standalone="no"?>
<!DOCTYPE svg PUBLIC "-//W3C//DTD SVG 1.1//EN" "http://www.w3.org/Graphics/SVG/1.1/DTD/svg11.dtd">
<svg width="100%" height="100%" viewBox="0 0 22 22" version="1.1" xmlns="http://www.w3.org/2000/svg" xmlns:xlink="http://www.w3.org/1999/xlink" xml:space="preserve" xmlns:serif="http://www.serif.com/" style="fill-rule:evenodd;clip-rule:evenodd;stroke-linecap:round;stroke-linejoin:round;">
    <g id="Layer-2" serif:id="Layer 2" transform="matrix(1,0,0,1,0,-7.33333)">
        <g id="rect906" transform="matrix(0.898451,-0.439074,0.898451,0.439074,0,0)">
            <rect x="-23.866" y="26.287" width="9.822" height="9.822" style="fill:rgb(171,172,174);"/>
        </g>
        <g id="rect914" transform="matrix(0.898451,-0.439074,0.898451,0.439074,0,0)">
            <rect x="-23.866" y="26.287" width="9.822" height="9.822" style="fill:none;stroke:rgb(85,87,97);stroke-opacity:0.99;stroke-width:1.13px;"/>
        </g>
        <g id="rect908" transform="matrix(0.898451,-0.439074,0.898451,0.439074,0,0)">
            <rect x="-19.667" y="22.088" width="9.822" height="9.822" style="fill:rgb(212,212,212);"/>
        </g>
        <g id="rect912" transform="matrix(0.898451,-0.439074,0.898451,0.439074,0,0)">
            <rect x="-19.667" y="22.088" width="9.822" height="9.822" style="fill:none;stroke:rgb(85,87,97);stroke-opacity:0.99;stroke-width:1.13px;"/>
        </g>
        <g id="rect904" transform="matrix(0.898451,-0.439074,0.898451,0.439074,0,0)">
            <rect x="-15.467" y="17.889" width="9.822" height="9.822" style="fill:rgb(250,250,250);"/>
        </g>
        <g id="rect910" transform="matrix(0.898451,-0.439074,0.898451,0.439074,0,0)">
            <rect x="-15.467" y="17.889" width="9.822" height="9.822" style="fill:none;stroke:rgb(85,87,97);stroke-width:1.13px;"/>
        </g>
        <rect id="rect921" x="14.371" y="18.247" width="3.251" height="8.087" style="fill:rgb(104,183,35);"/>
        <g id="rect925" transform="matrix(-3.82857e-16,1,-1,-3.82857e-16,0,0)">
            <rect x="20.665" y="-20.04" width="3.251" height="8.087" style="fill:rgb(104,183,35);"/>
        </g>
        <path id="rect927" d="M14.371,18.246L14.371,20.664L11.953,20.664L11.953,23.915L14.371,23.915L14.371,26.333L17.622,26.333L17.622,23.915L20.04,23.915L20.04,20.664L17.622,20.664L17.622,18.246L14.371,18.246Z" style="fill:url(#_Linear1);fill-rule:nonzero;"/>
        <path id="path1202" d="M14.372,18.247L14.372,19.747L17.622,19.747L17.622,18.247L14.372,18.247ZM11.954,20.665L11.954,22.165L14.372,22.165L14.372,20.665L11.954,20.665ZM17.622,20.665L17.622,22.165L20.04,22.165L20.04,20.665L17.622,20.665Z" style="fill:rgb(209,255,130);fill-rule:nonzero;"/>
        <path id="path1218" d="M11.954,22.415L11.954,23.915L14.372,23.915L14.372,22.415L11.954,22.415ZM17.622,22.415L17.622,23.915L20.04,23.915L20.04,22.415L17.622,22.415ZM14.372,24.833L14.372,26.333L17.622,26.333L17.622,24.833L14.372,24.833Z" style="fill:rgb(58,145,4);fill-rule:nonzero;"/>
        <path id="path934" d="M14.371,18.246L14.371,20.664L11.953,20.664L11.953,23.915L14.371,23.915L14.371,26.333L17.622,26.333L17.622,23.915L20.04,23.915L20.04,20.664L17.622,20.664L17.622,18.246L14.371,18.246Z" style="fill:none;fill-rule:nonzero;stroke:rgb(32,107,0);stroke-width:1px;"/>
    </g>
    <defs>
        <linearGradient id="_Linear1" x1="0" y1="0" x2="1" y2="0" gradientUnits="userSpaceOnUse" gradientTransform="matrix(0.0120334,10.9549,-10.9549,0.0120334,16.2971,18.2465)"><stop offset="0" style="stop-color:rgb(104,183,35);stop-opacity:1"/><stop offset="1" style="stop-color:rgb(58,145,4);stop-opacity:1"/></linearGradient>
    </defs>
</svg>
