<svg xmlns="http://www.w3.org/2000/svg" viewBox="0 0 22 22" fill-rule="evenodd" stroke-linecap="round" stroke-linejoin="round" xmlns:v="https://vecta.io/nano"><path d="m11 10.38-8.82 4.3L11 19l8.82-4.31L11 10.38Z" fill="#abacae"/><path d="m11 10.38-8.82 4.3L11 19l8.82-4.31L11 10.38Z" fill="none" stroke="#555761" stroke-opacity=".99"/><path d="M11 6.69 2.18 11 11 15.31 19.82 11 11 6.69Z" fill="#d4d4d4"/><path d="M11 6.69 2.18 11 11 15.31 19.82 11 11 6.69Z" fill="none" stroke="#555761" stroke-opacity=".99"/><path d="M11 3 2.18 7.31 11 11.63l8.82-4.32L11 3Z" fill="#fafafa"/><path d="M11 3 2.18 7.31 11 11.63l8.82-4.32L11 3Z" fill="none" stroke="#555761"/><path d="M18.38 16.6c.41 0 .75-.34.75-.75v-3.3a.75.75 0 0 0-.75-.76H9.32a.75.75 0 0 0-.75.75v3.3c0 .42.34.75.75.75h9.06Z" fill="#3b3b3b" fill-opacity=".59"/><path d="M20.43 17.48v-3.8H11v3.8h9.43Z" fill="#e84850"/><path d="M20.43 17.48v-3.8H11v3.8h9.43Z" fill="none" stroke="#7a0000" stroke-width=".79"/></svg>