<svg xmlns="http://www.w3.org/2000/svg" width="100%" height="100%" viewBox="0 0 22 22" fill-rule="evenodd" stroke-linecap="round" stroke-linejoin="round" xmlns:v="https://vecta.io/nano"><path d="M11 11.375L2.5 15.5l8.5 4 8.824-3.813L11 11.375z" fill="#abacae"/><path d="M11 11.375L2.5 15.5l8.5 4 8.824-3.812L11 11.375z" fill="none" stroke="#555761" stroke-opacity=".99"/><path d="M11,6.688L2.175,11L11,15.313L19.824,11L11,6.688Z" fill="#d4d4d4"/><path d="M11,7L2.5,11.5L11,15.625L19.5,11.5L11,7Z" fill="none" stroke="#555761" stroke-opacity=".99"/><path d="M11 3.5l-8.5 4 8.501 4.125L19.5 7.5l-8.5-4z" fill="#fafafa"/><path d="M11 3.5l-8.5 4 8.5 4 8.5-4-8.5-4z" fill="none" stroke="#555761"/><path d="M14.5 10.5v3h-3v4h3v3h4v-3h3v-4h-3v-3h-4z" fill="#81d835" fill-rule="nonzero"/><path d="M14.5 10.5v3h-3v4h3v3h4v-3h3v-4h-3v-3h-4z" fill="none" stroke="#206b00"/></svg>