<svg xmlns="http://www.w3.org/2000/svg" viewBox="0 0 22 22" fill-rule="evenodd" stroke-linecap="round" stroke-linejoin="round" xmlns:v="https://vecta.io/nano"><path d="m11 10.38-8.82 4.3L11 19l8.82-4.31L11 10.38Z" fill="#abacae"/><path d="m11 10.38-8.82 4.3L11 19l8.82-4.31L11 10.38Z" fill="none" stroke="#555761" stroke-opacity=".99"/><path d="M11 6.69 2.18 11 11 15.31 19.82 11 11 6.69Z" fill="#d4d4d4"/><path d="M11 6.69 2.18 11 11 15.31 19.82 11 11 6.69Z" fill="none" stroke="#555761" stroke-opacity=".99"/><path d="M11 3 2.18 7.31 11 11.63l8.82-4.32L11 3Z" fill="#fafafa"/><path d="M11 3 2.18 7.31 11 11.63l8.82-4.32L11 3Z" fill="none" stroke="#555761"/><g fill-rule="nonzero"><path d="M12.9 10.01v2.69h-2.69v3.61h2.7V19h3.6v-2.69h2.7V12.7h-2.7V10h-3.6Z" fill="#323232" fill-opacity=".59"/><path d="M14.6 11.16v2.69h-2.7v3.6h2.7v2.7h3.61v-2.7h2.69v-3.6h-2.7v-2.7h-3.6Z" fill="#81d835"/></g><path d="M14.6 11.16v2.69h-2.7v3.6h2.7v2.7h3.61v-2.7h2.69v-3.6h-2.7v-2.7h-3.6Z" fill="none" stroke="#206b00" stroke-width=".75"/></svg>