<?xml version="1.0" encoding="UTF-8" standalone="no"?>
<!DOCTYPE svg PUBLIC "-//W3C//DTD SVG 1.1//EN" "http://www.w3.org/Graphics/SVG/1.1/DTD/svg11.dtd">
<svg width="100%" height="100%" viewBox="0 0 22 22" version="1.1" xmlns="http://www.w3.org/2000/svg" xmlns:xlink="http://www.w3.org/1999/xlink" xml:space="preserve" xmlns:serif="http://www.serif.com/" style="fill-rule:evenodd;clip-rule:evenodd;stroke-linecap:round;stroke-linejoin:round;">
    <g id="Layer-2" serif:id="Layer 2" transform="matrix(1,0,0,1,0,-7.33333)">
        <path id="path1078" d="M11.376,12.41C14.187,12.41 16.733,14.111 17.809,16.708C18.884,19.304 18.287,22.308 16.3,24.296C14.312,26.283 11.308,26.88 8.712,25.805C6.115,24.729 4.414,22.183 4.414,19.372" style="fill:none;fill-rule:nonzero;stroke:rgb(104,183,35);stroke-width:4px;"/>
        <g id="path1559" transform="matrix(0,0.750629,0.692782,0,-7.39131,12.0402)">
            <path d="M5.856,27.934L-4.168,27.934C-4.443,27.934 -4.698,27.787 -4.835,27.55C-4.973,27.312 -4.973,27.018 -4.835,26.78L-2.996,23.594L0.177,18.098C0.314,17.86 0.569,17.713 0.844,17.713C1.118,17.713 1.373,17.86 1.51,18.098L3.35,21.284L6.523,26.78C6.66,27.018 6.66,27.312 6.523,27.55C6.385,27.787 6.131,27.934 5.856,27.934Z" style="fill:rgb(104,183,35);fill-rule:nonzero;"/>
        </g>
        <g id="path1637" transform="matrix(0.75,0,0,0.75,0,7.33333)">
            <path d="M7.927,5.786L6.862,6.453C6.643,6.591 6.507,6.845 6.507,7.12C6.507,7.394 6.643,7.649 6.862,7.786L9.805,9.628L14.883,12.805C14.991,12.872 15.113,12.907 15.237,12.907C15.627,12.907 15.948,12.559 15.948,12.137L15.948,9.492C15.937,9.906 15.62,10.24 15.237,10.24C15.113,10.24 14.991,10.205 14.883,10.138L9.805,6.961L7.927,5.786ZM15.948,9.492C18.309,9.77 20.355,11.284 21.281,13.521C21.448,13.924 21.557,14.337 21.641,14.753C21.911,13.475 21.805,12.119 21.281,10.854C20.355,8.618 18.309,7.104 15.948,6.826L15.948,9.492ZM27.018,14.648C26.733,17.311 25.588,19.866 23.617,21.836C20.205,25.248 15.052,26.274 10.594,24.427C6.704,22.816 3.989,19.283 3.359,15.203C3.267,15.477 3.219,15.763 3.219,16.052C3.219,20.878 6.135,25.247 10.594,27.094C15.052,28.94 20.205,27.915 23.617,24.503C26.242,21.878 27.438,18.224 27.018,14.648Z" style="fill:rgb(58,145,4);fill-rule:nonzero;"/>
        </g>
        <g id="path1639" transform="matrix(0.75,0,0,0.75,0,7.33333)">
            <path d="M15.232,1.333C15.109,1.335 14.989,1.371 14.883,1.438L11.938,3.279L6.862,6.453C6.643,6.591 6.507,6.845 6.507,7.12C6.507,7.394 6.643,7.649 6.862,7.786L7.927,8.453L11.938,5.945L14.883,4.104C14.989,4.037 15.109,4.002 15.232,4C15.233,4 15.235,4 15.237,4C15.627,4 15.948,4.348 15.948,4.77L15.948,6.797C20.46,7.091 24.461,9.928 26.208,14.146C26.635,15.175 26.892,16.242 27.018,17.315C27.227,15.367 26.989,13.363 26.208,11.479C24.461,7.262 20.46,4.425 15.948,4.13L15.948,2.104C15.948,1.681 15.627,1.333 15.237,1.333C15.235,1.333 15.233,1.333 15.232,1.333ZM5.885,13.385C4.423,13.385 3.219,14.589 3.219,16.052C3.219,16.667 3.267,17.274 3.359,17.87C3.723,16.787 4.743,16.053 5.885,16.052C7.348,16.052 8.552,17.256 8.552,18.719C8.552,21.403 10.156,23.806 12.635,24.833C15.115,25.86 17.949,25.294 19.846,23.396C21.436,21.806 22.074,19.564 21.641,17.419C21.381,18.646 20.776,19.8 19.846,20.729C17.949,22.627 15.115,23.194 12.635,22.167C10.156,21.14 8.552,18.736 8.552,16.052C8.552,14.589 7.348,13.385 5.885,13.385Z" style="fill:rgb(155,219,77);fill-rule:nonzero;"/>
        </g>
        <g id="path1633" transform="matrix(0.75,0,0,0.75,0,7.33333)">
            <path d="M15.232,1.333C15.109,1.335 14.989,1.371 14.883,1.438L11.938,3.279L6.862,6.453C6.643,6.591 6.507,6.845 6.507,7.12C6.507,7.394 6.643,7.649 6.862,7.786L9.805,9.628L14.883,12.805C14.991,12.872 15.113,12.907 15.237,12.907C15.627,12.907 15.948,12.559 15.948,12.137L15.948,9.492C18.309,9.77 20.355,11.284 21.281,13.521C22.308,16 21.744,18.831 19.846,20.729C17.949,22.627 15.115,23.194 12.635,22.167C10.156,21.14 8.552,18.736 8.552,16.052C8.552,14.589 7.348,13.385 5.885,13.385C4.423,13.385 3.219,14.589 3.219,16.052C3.219,20.878 6.135,25.247 10.594,27.094C15.052,28.94 20.205,27.915 23.617,24.503C27.029,21.09 28.055,15.938 26.208,11.479C24.461,7.262 20.46,4.425 15.948,4.13L15.948,2.104C15.948,1.681 15.627,1.333 15.237,1.333C15.235,1.333 15.233,1.333 15.232,1.333Z" style="fill:none;fill-rule:nonzero;stroke:rgb(32,107,0);stroke-width:1.33px;"/>
        </g>
    </g>
</svg>
