<?xml version="1.0" encoding="UTF-8" standalone="no"?>
<!DOCTYPE svg PUBLIC "-//W3C//DTD SVG 1.1//EN" "http://www.w3.org/Graphics/SVG/1.1/DTD/svg11.dtd">
<svg width="100%" height="100%" viewBox="0 0 16 16" version="1.1" xmlns="http://www.w3.org/2000/svg" xmlns:xlink="http://www.w3.org/1999/xlink" xml:space="preserve" xmlns:serif="http://www.serif.com/" style="fill-rule:evenodd;clip-rule:evenodd;stroke-linecap:round;stroke-linejoin:round;">
    <g id="g7504">
        <rect id="rect7432" x="1" y="12.063" width="14" height="3" style="fill:rgb(212,212,212);"/>
        <rect id="rect7466" x="1" y="12.063" width="14" height="1" style="fill:rgb(250,250,250);fill-rule:nonzero;"/>
        <rect id="rect7473" x="1" y="14.063" width="14" height="1" style="fill:rgb(171,172,174);fill-rule:nonzero;"/>
        <rect id="rect7488" x="1" y="12.063" width="14" height="3" style="fill:none;stroke:rgb(77,77,77);stroke-width:1px;"/>
    </g>
    <g id="g7514" transform="matrix(1,0,0,1,-5e-07,-11.0625)">
        <rect id="rect7506" x="1" y="12.063" width="14" height="3" style="fill:rgb(212,212,212);"/>
        <rect id="path7508" x="1" y="12.063" width="14" height="1" style="fill:rgb(250,250,250);fill-rule:nonzero;"/>
        <rect id="path7510" x="1" y="14.063" width="14" height="1" style="fill:rgb(171,172,174);fill-rule:nonzero;"/>
        <rect id="rect7512" x="1" y="12.063" width="14" height="3" style="fill:none;stroke:rgb(77,77,77);stroke-width:1px;"/>
    </g>
    <g id="g7524" transform="matrix(1,0,0,1,-5e-07,-5.53125)">
        <rect id="rect7516" x="1" y="12.063" width="14" height="3" style="fill:rgb(212,212,212);"/>
        <rect id="path7518" x="1" y="12.063" width="14" height="1" style="fill:rgb(250,250,250);fill-rule:nonzero;"/>
        <rect id="path7520" x="1" y="14.063" width="14" height="1" style="fill:rgb(171,172,174);fill-rule:nonzero;"/>
        <rect id="rect7522" x="1" y="12.063" width="14" height="3" style="fill:none;stroke:rgb(77,77,77);stroke-width:1px;"/>
    </g>
</svg>
