<?xml version="1.0" encoding="UTF-8" standalone="no"?>
<!DOCTYPE svg PUBLIC "-//W3C//DTD SVG 1.1//EN" "http://www.w3.org/Graphics/SVG/1.1/DTD/svg11.dtd">
<svg width="100%" height="100%" viewBox="0 0 22 22" version="1.1" xmlns="http://www.w3.org/2000/svg" xmlns:xlink="http://www.w3.org/1999/xlink" xml:space="preserve" xmlns:serif="http://www.serif.com/" style="fill-rule:evenodd;clip-rule:evenodd;stroke-linecap:round;stroke-linejoin:round;">
    <g transform="matrix(0.387357,-0.223839,0.223641,0.3877,22.1817,11.7138)">
        <g id="Layer-2" serif:id="Layer 2">
            <path d="M-4.099,-4.207L-48.776,-4.207L-37.607,-23.553L-26.437,-42.898L-15.268,-23.553L-4.099,-4.207Z" style="fill:rgb(74,159,241);fill-rule:nonzero;"/>
            <g>
                <g transform="matrix(1.9362,1.11787,-1.11688,1.93448,-21.6749,-61.6425)">
                    <path d="M2.348,8.333L2.348,28.333L10.999,23.333L19.653,18.333L16.799,16.683L9.573,20.859L5.203,23.383L5.203,9.983L2.348,8.333Z" style="fill:rgb(25,112,204);fill-rule:nonzero;"/>
                </g>
                <g transform="matrix(1.9362,1.11787,-1.11688,1.93448,-21.6749,-61.6425)">
                    <path d="M2.348,8.333L2.348,11.19L10.999,16.19L17.181,19.762L19.653,18.333L10.999,13.333L2.348,8.333Z" style="fill:rgb(140,213,255);fill-rule:nonzero;"/>
                </g>
            </g>
            <path d="M-4.099,-4.207L-48.776,-4.207L-37.607,-23.553L-26.437,-42.898L-15.268,-23.553L-4.099,-4.207Z" style="fill:none;fill-rule:nonzero;stroke:rgb(0,46,153);stroke-width:2.23px;"/>
        </g>
    </g>
</svg>
