<?xml version="1.0" encoding="UTF-8" standalone="no"?>
<!DOCTYPE svg PUBLIC "-//W3C//DTD SVG 1.1//EN" "http://www.w3.org/Graphics/SVG/1.1/DTD/svg11.dtd">
<svg width="100%" height="100%" viewBox="0 0 22 22" version="1.1" xmlns="http://www.w3.org/2000/svg" xmlns:xlink="http://www.w3.org/1999/xlink" xml:space="preserve" xmlns:serif="http://www.serif.com/" style="fill-rule:evenodd;clip-rule:evenodd;stroke-linecap:round;stroke-linejoin:round;">
    <g id="Layer-2" serif:id="Layer 2" transform="matrix(1,0,0,1,0,-7.33333)">
        <path id="path915" d="M18.506,8.487L10.84,12.917L9.705,13.573L3.763,13.573C2.664,13.573 1.759,14.478 1.759,15.578L1.759,21.119C1.759,22.219 2.664,23.124 3.763,23.124L9.705,23.124L10.84,23.781L18.506,28.21C18.682,28.311 18.881,28.365 19.084,28.365C19.719,28.365 20.241,27.843 20.241,27.208L20.241,9.489C20.241,8.854 19.719,8.332 19.084,8.332C18.881,8.332 18.682,8.386 18.506,8.487Z" style="fill:url(#_Linear1);fill-rule:nonzero;"/>
        <path id="path2317" d="M1.759,18.28L1.759,21.119C1.76,22.218 2.664,23.123 3.763,23.123L9.705,23.123L10.84,23.781L18.505,28.209C18.681,28.311 18.881,28.364 19.084,28.364C19.718,28.364 20.24,27.843 20.241,27.209L20.241,24.416C20.216,25.032 19.702,25.525 19.085,25.525C18.882,25.525 18.681,25.472 18.505,25.369L10.84,20.94L9.705,20.284L3.763,20.284C2.664,20.283 1.76,19.379 1.759,18.28Z" style="fill:rgb(39,52,69);fill-rule:nonzero;"/>
        <path id="path2308" d="M19.054,8.333C18.861,8.338 18.673,8.391 18.505,8.487L10.84,12.916L9.705,13.573L3.763,13.573C2.664,13.573 1.759,14.478 1.759,15.577L1.759,18.396C1.771,17.304 2.672,16.413 3.763,16.412L9.705,16.412L10.84,15.756L18.505,11.326C18.681,11.225 18.881,11.171 19.084,11.171C19.719,11.171 20.241,11.693 20.241,12.328C20.241,12.328 20.241,12.328 20.241,12.328L20.241,9.489C20.241,8.855 19.719,8.333 19.084,8.333C19.074,8.333 19.064,8.333 19.054,8.333Z" style="fill:rgb(149,163,171);fill-rule:nonzero;"/>
        <path id="path2290" d="M18.506,8.487L10.84,12.917L9.705,13.573L3.763,13.573C2.664,13.573 1.759,14.478 1.759,15.578L1.759,21.119C1.759,22.219 2.664,23.124 3.763,23.124L9.705,23.124L10.84,23.781L18.506,28.21C18.682,28.311 18.881,28.365 19.084,28.365C19.719,28.365 20.241,27.843 20.241,27.208L20.241,9.489C20.241,8.854 19.719,8.332 19.084,8.332C18.881,8.332 18.682,8.386 18.506,8.487Z" style="fill:none;fill-rule:nonzero;stroke:rgb(14,20,31);stroke-width:1px;"/>
    </g>
    <defs>
        <linearGradient id="_Linear1" x1="0" y1="0" x2="1" y2="0" gradientUnits="userSpaceOnUse" gradientTransform="matrix(-0.491787,-25.3573,25.3573,-0.491787,11.8295,30.4277)"><stop offset="0" style="stop-color:rgb(39,52,69);stop-opacity:1"/><stop offset="1" style="stop-color:rgb(72,90,108);stop-opacity:1"/></linearGradient>
    </defs>
</svg>
