<?xml version="1.0" encoding="UTF-8" standalone="no"?>
<!DOCTYPE svg PUBLIC "-//W3C//DTD SVG 1.1//EN" "http://www.w3.org/Graphics/SVG/1.1/DTD/svg11.dtd">
<svg width="100%" height="100%" viewBox="0 0 22 22" version="1.1" xmlns="http://www.w3.org/2000/svg" xmlns:xlink="http://www.w3.org/1999/xlink" xml:space="preserve" xmlns:serif="http://www.serif.com/" style="fill-rule:evenodd;clip-rule:evenodd;stroke-linecap:round;stroke-linejoin:round;">
    <g id="Layer-2" serif:id="Layer 2" transform="matrix(1,0,0,1,0,-7.33333)">
        <path id="path915" d="M18.555,8.333L10.839,12.792L9.696,13.453L3.715,13.453C2.608,13.453 1.697,14.364 1.697,15.471L1.697,21.049C1.697,22.156 2.608,23.067 3.715,23.067L9.696,23.067L10.839,23.728L18.555,28.186C18.732,28.288 18.933,28.342 19.138,28.342C19.777,28.342 20.302,27.817 20.302,27.178L20.302,9.342C20.302,8.703 19.777,8.177 19.138,8.177C18.933,8.177 18.732,8.231 18.555,8.333Z" style="fill:url(#_Linear1);fill-rule:nonzero;"/>
        <path id="path2317" d="M1.698,18.19L1.698,21.049C1.699,22.155 2.609,23.066 3.716,23.066L9.697,23.066L10.839,23.728L18.555,28.185C18.732,28.288 18.933,28.342 19.138,28.342C19.776,28.342 20.301,27.817 20.302,27.179L20.302,24.367C20.277,24.987 19.76,25.484 19.139,25.484C18.934,25.484 18.732,25.43 18.555,25.327L10.839,20.868L9.697,20.208L3.716,20.208C2.609,20.207 1.699,19.297 1.698,18.19Z" style="fill:rgb(123,124,131);fill-rule:nonzero;"/>
        <path id="path2308" d="M19.108,8.178C18.913,8.183 18.723,8.236 18.555,8.333L10.839,12.792L9.697,13.452L3.716,13.452C2.609,13.453 1.698,14.363 1.698,15.47L1.698,18.307C1.71,17.209 2.617,16.311 3.716,16.311L9.697,16.311L10.839,15.65L18.555,11.191C18.732,11.089 18.933,11.035 19.138,11.035C19.777,11.035 20.302,11.561 20.302,12.199C20.302,12.2 20.302,12.2 20.302,12.2L20.302,9.341C20.302,8.703 19.776,8.178 19.138,8.178C19.128,8.178 19.118,8.178 19.108,8.178Z" style="fill:rgb(250,250,250);fill-rule:nonzero;"/>
        <path id="path2290" d="M18.555,8.333L10.839,12.792L9.696,13.453L3.715,13.453C2.608,13.453 1.697,14.364 1.697,15.471L1.697,21.049C1.697,22.156 2.608,23.067 3.715,23.067L9.696,23.067L10.839,23.728L18.555,28.186C18.732,28.288 18.933,28.342 19.138,28.342C19.777,28.342 20.302,27.817 20.302,27.178L20.302,9.342C20.302,8.703 19.777,8.177 19.138,8.177C18.933,8.177 18.732,8.231 18.555,8.333Z" style="fill:none;fill-rule:nonzero;stroke:rgb(85,87,97);stroke-width:1px;"/>
        <g id="g7447" transform="matrix(0.664809,0,0,0.664809,-6.2902,11.3993)">
            <path id="path880" d="M34,16.39L18,16.39" style="fill:none;fill-rule:nonzero;stroke:rgb(249,196,64);stroke-width:4.51px;stroke-linecap:butt;stroke-linejoin:miter;"/>
            <path id="path918" d="M35,20.175L30,13.238L22,13.238L22,8.817L17,12.603L12,16.389L17,20.175L22,23.961L22,19.54L30,19.54L30,23.961L35,20.175Z" style="fill:rgb(250,250,250);fill-rule:nonzero;"/>
            <path id="path951" d="M35,20.175L30,13.238L22,13.238L22,8.817L17,12.603L12,16.389L17,20.175L22,23.961L22,19.54L30,19.54L30,23.961L35,20.175Z" style="fill:none;fill-rule:nonzero;stroke:black;stroke-width:1.5px;"/>
        </g>
        <g id="g934" transform="matrix(1.24715,0,0,1.24715,-11.4865,-5.98405)">
            <path id="path923-5" d="M11.912,11.48C11.415,11.486 10.94,11.687 10.588,12.038C10.231,12.395 10.03,12.88 10.03,13.385C10.03,13.89 10.231,14.375 10.588,14.732L22.778,26.922C23.135,27.279 23.62,27.48 24.125,27.48C24.63,27.48 25.115,27.279 25.472,26.922C25.83,26.565 26.031,26.08 26.031,25.575C26.031,25.07 25.83,24.585 25.472,24.228L13.283,12.038C12.92,11.675 12.425,11.474 11.912,11.48Z" style="fill:url(#_Linear2);fill-rule:nonzero;"/>
            <path id="path933-3" d="M10.314,12.387C9.853,13.135 9.967,14.111 10.589,14.732L22.778,26.922C23.517,27.66 24.733,27.66 25.472,26.922C26.094,26.299 26.208,25.323 25.745,24.574C25.668,24.7 25.576,24.817 25.472,24.922C24.733,25.66 23.517,25.66 22.778,24.922L10.589,12.732C10.484,12.628 10.392,12.512 10.314,12.387Z" style="fill:rgb(161,7,5);fill-rule:nonzero;"/>
            <path id="path928-5" d="M11.911,11.48C11.415,11.487 10.94,11.687 10.589,12.039C9.966,12.661 9.852,13.637 10.314,14.387C10.392,14.26 10.484,14.144 10.589,14.039C10.94,13.687 11.415,13.487 11.911,13.48C12.425,13.474 12.92,13.676 13.282,14.039L25.472,26.228C25.576,26.333 25.668,26.449 25.745,26.574C26.207,25.826 26.093,24.85 25.472,24.228L13.282,12.039C12.92,11.676 12.425,11.474 11.911,11.48Z" style="fill:rgb(255,140,130);fill-rule:nonzero;"/>
            <path id="path926-6" d="M11.912,11.482C11.415,11.488 10.94,11.688 10.588,12.039C10.231,12.397 10.03,12.882 10.03,13.387C10.03,13.892 10.231,14.377 10.588,14.734L22.778,26.924C23.135,27.281 23.62,27.482 24.125,27.482C24.63,27.482 25.115,27.281 25.472,26.924C25.83,26.566 26.031,26.081 26.031,25.576C26.031,25.071 25.83,24.586 25.472,24.229L13.283,12.039C12.92,11.677 12.425,11.475 11.912,11.482Z" style="fill:none;fill-rule:nonzero;stroke:rgb(122,0,0);stroke-width:0.8px;stroke-linejoin:miter;"/>
        </g>
    </g>
    <defs>
        <linearGradient id="_Linear1" x1="0" y1="0" x2="1" y2="0" gradientUnits="userSpaceOnUse" gradientTransform="matrix(2.39835,21.5896,-21.5896,2.39835,9.94398,7.58545)"><stop offset="0" style="stop-color:rgb(171,172,174);stop-opacity:1"/><stop offset="1" style="stop-color:rgb(126,128,135);stop-opacity:1"/></linearGradient>
        <linearGradient id="_Linear2" x1="0" y1="0" x2="1" y2="0" gradientUnits="userSpaceOnUse" gradientTransform="matrix(-7.71831,8.3125,-8.3125,-7.71831,20.7176,18.7615)"><stop offset="0" style="stop-color:rgb(198,38,46);stop-opacity:1"/><stop offset="1" style="stop-color:rgb(161,7,5);stop-opacity:1"/></linearGradient>
    </defs>
</svg>
