<?xml version="1.0" encoding="UTF-8" standalone="no"?>
<!DOCTYPE svg PUBLIC "-//W3C//DTD SVG 1.1//EN" "http://www.w3.org/Graphics/SVG/1.1/DTD/svg11.dtd">
<svg width="100%" height="100%" viewBox="0 0 22 22" version="1.1" xmlns="http://www.w3.org/2000/svg" xmlns:xlink="http://www.w3.org/1999/xlink" xml:space="preserve" xmlns:serif="http://www.serif.com/" style="fill-rule:evenodd;clip-rule:evenodd;stroke-linecap:round;stroke-linejoin:round;">
    <g id="Layer-2" serif:id="Layer 2" transform="matrix(1,0,0,1,0,-7.33333)">
        <path id="path915" d="M18.506,8.487L10.84,12.917L9.705,13.573L3.763,13.573C2.664,13.573 1.759,14.478 1.759,15.578L1.759,21.119C1.759,22.219 2.664,23.124 3.763,23.124L9.705,23.124L10.84,23.781L18.506,28.21C18.682,28.311 18.881,28.365 19.084,28.365C19.719,28.365 20.241,27.843 20.241,27.208L20.241,9.489C20.241,8.854 19.719,8.332 19.084,8.332C18.881,8.332 18.682,8.386 18.506,8.487Z" style="fill:url(#_Linear1);fill-rule:nonzero;"/>
        <path id="path2317" d="M1.759,18.28L1.759,21.119C1.76,22.218 2.664,23.123 3.763,23.123L9.705,23.123L10.84,23.781L18.505,28.209C18.681,28.311 18.881,28.364 19.084,28.364C19.718,28.364 20.24,27.843 20.241,27.209L20.241,24.416C20.216,25.032 19.702,25.525 19.085,25.525C18.882,25.525 18.681,25.472 18.505,25.369L10.84,20.94L9.705,20.284L3.763,20.284C2.664,20.283 1.76,19.379 1.759,18.28Z" style="fill:rgb(39,52,69);fill-rule:nonzero;"/>
        <path id="path2308" d="M19.054,8.333C18.861,8.338 18.673,8.391 18.505,8.487L10.84,12.916L9.705,13.573L3.763,13.573C2.664,13.573 1.759,14.478 1.759,15.577L1.759,18.396C1.771,17.304 2.672,16.413 3.763,16.412L9.705,16.412L10.84,15.756L18.505,11.326C18.681,11.225 18.881,11.171 19.084,11.171C19.719,11.171 20.241,11.693 20.241,12.328C20.241,12.328 20.241,12.328 20.241,12.328L20.241,9.489C20.241,8.855 19.719,8.333 19.084,8.333C19.074,8.333 19.064,8.333 19.054,8.333Z" style="fill:rgb(149,163,171);fill-rule:nonzero;"/>
        <path id="path2290" d="M18.506,8.487L10.84,12.917L9.705,13.573L3.763,13.573C2.664,13.573 1.759,14.478 1.759,15.578L1.759,21.119C1.759,22.219 2.664,23.124 3.763,23.124L9.705,23.124L10.84,23.781L18.506,28.21C18.682,28.311 18.881,28.365 19.084,28.365C19.719,28.365 20.241,27.843 20.241,27.208L20.241,9.489C20.241,8.854 19.719,8.332 19.084,8.332C18.881,8.332 18.682,8.386 18.506,8.487Z" style="fill:none;fill-rule:nonzero;stroke:rgb(14,20,31);stroke-width:1px;"/>
        <g id="g934" transform="matrix(1.24715,0,0,1.24715,-11.4865,-5.98405)">
            <path id="path923-5" d="M11.912,11.48C11.415,11.486 10.94,11.687 10.588,12.038C10.231,12.395 10.03,12.88 10.03,13.385C10.03,13.89 10.231,14.375 10.588,14.732L22.778,26.922C23.135,27.279 23.62,27.48 24.125,27.48C24.63,27.48 25.115,27.279 25.472,26.922C25.83,26.565 26.031,26.08 26.031,25.575C26.031,25.07 25.83,24.585 25.472,24.228L13.283,12.038C12.92,11.675 12.425,11.474 11.912,11.48Z" style="fill:url(#_Linear2);fill-rule:nonzero;"/>
            <path id="path933-3" d="M10.314,12.387C9.853,13.135 9.967,14.111 10.589,14.732L22.778,26.922C23.517,27.66 24.733,27.66 25.472,26.922C26.094,26.299 26.208,25.323 25.745,24.574C25.668,24.7 25.576,24.817 25.472,24.922C24.733,25.66 23.517,25.66 22.778,24.922L10.589,12.732C10.484,12.628 10.392,12.512 10.314,12.387Z" style="fill:rgb(161,7,5);fill-rule:nonzero;"/>
            <path id="path928-5" d="M11.911,11.48C11.415,11.487 10.94,11.687 10.589,12.039C9.966,12.661 9.852,13.637 10.314,14.387C10.392,14.26 10.484,14.144 10.589,14.039C10.94,13.687 11.415,13.487 11.911,13.48C12.425,13.474 12.92,13.676 13.282,14.039L25.472,26.228C25.576,26.333 25.668,26.449 25.745,26.574C26.207,25.826 26.093,24.85 25.472,24.228L13.282,12.039C12.92,11.676 12.425,11.474 11.911,11.48Z" style="fill:rgb(255,140,130);fill-rule:nonzero;"/>
            <path id="path926-6" d="M11.912,11.482C11.415,11.488 10.94,11.688 10.588,12.039C10.231,12.397 10.03,12.882 10.03,13.387C10.03,13.892 10.231,14.377 10.588,14.734L22.778,26.924C23.135,27.281 23.62,27.482 24.125,27.482C24.63,27.482 25.115,27.281 25.472,26.924C25.83,26.566 26.031,26.081 26.031,25.576C26.031,25.071 25.83,24.586 25.472,24.229L13.283,12.039C12.92,11.677 12.425,11.475 11.912,11.482Z" style="fill:none;fill-rule:nonzero;stroke:rgb(122,0,0);stroke-width:0.8px;stroke-linejoin:miter;"/>
        </g>
    </g>
    <defs>
        <linearGradient id="_Linear1" x1="0" y1="0" x2="1" y2="0" gradientUnits="userSpaceOnUse" gradientTransform="matrix(-0.491787,-25.3573,25.3573,-0.491787,11.8295,30.4277)"><stop offset="0" style="stop-color:rgb(39,52,69);stop-opacity:1"/><stop offset="1" style="stop-color:rgb(72,90,108);stop-opacity:1"/></linearGradient>
        <linearGradient id="_Linear2" x1="0" y1="0" x2="1" y2="0" gradientUnits="userSpaceOnUse" gradientTransform="matrix(-7.71831,8.3125,-8.3125,-7.71831,20.7176,18.7615)"><stop offset="0" style="stop-color:rgb(198,38,46);stop-opacity:1"/><stop offset="1" style="stop-color:rgb(161,7,5);stop-opacity:1"/></linearGradient>
    </defs>
</svg>
