<?xml version="1.0" encoding="UTF-8" standalone="no"?>
<!DOCTYPE svg PUBLIC "-//W3C//DTD SVG 1.1//EN" "http://www.w3.org/Graphics/SVG/1.1/DTD/svg11.dtd">
<svg width="100%" height="100%" viewBox="0 0 22 22" version="1.1" xmlns="http://www.w3.org/2000/svg" xmlns:xlink="http://www.w3.org/1999/xlink" xml:space="preserve" xmlns:serif="http://www.serif.com/" style="fill-rule:evenodd;clip-rule:evenodd;stroke-linecap:round;stroke-linejoin:round;">
    <g id="Layer-2" serif:id="Layer 2" transform="matrix(1,0,0,1,0,-7.33333)">
        <path id="path915" d="M18.555,8.333L10.839,12.792L9.696,13.453L3.715,13.453C2.608,13.453 1.697,14.364 1.697,15.471L1.697,21.049C1.697,22.156 2.608,23.067 3.715,23.067L9.696,23.067L10.839,23.728L18.555,28.186C18.732,28.288 18.933,28.342 19.138,28.342C19.777,28.342 20.302,27.817 20.302,27.178L20.302,9.342C20.302,8.703 19.777,8.177 19.138,8.177C18.933,8.177 18.732,8.231 18.555,8.333Z" style="fill:url(#_Linear1);fill-rule:nonzero;"/>
        <path id="path2317" d="M1.698,18.19L1.698,21.049C1.699,22.155 2.609,23.066 3.716,23.066L9.697,23.066L10.839,23.728L18.555,28.185C18.732,28.288 18.933,28.342 19.138,28.342C19.776,28.342 20.301,27.817 20.302,27.179L20.302,24.367C20.277,24.987 19.76,25.484 19.139,25.484C18.934,25.484 18.732,25.43 18.555,25.327L10.839,20.868L9.697,20.208L3.716,20.208C2.609,20.207 1.699,19.297 1.698,18.19Z" style="fill:rgb(123,124,131);fill-rule:nonzero;"/>
        <path id="path2308" d="M19.108,8.178C18.913,8.183 18.723,8.236 18.555,8.333L10.839,12.792L9.697,13.452L3.716,13.452C2.609,13.453 1.698,14.363 1.698,15.47L1.698,18.307C1.71,17.209 2.617,16.311 3.716,16.311L9.697,16.311L10.839,15.65L18.555,11.191C18.732,11.089 18.933,11.035 19.138,11.035C19.777,11.035 20.302,11.561 20.302,12.199C20.302,12.2 20.302,12.2 20.302,12.2L20.302,9.341C20.302,8.703 19.776,8.178 19.138,8.178C19.128,8.178 19.118,8.178 19.108,8.178Z" style="fill:rgb(250,250,250);fill-rule:nonzero;"/>
        <path id="path2290" d="M18.555,8.333L10.839,12.792L9.696,13.453L3.715,13.453C2.608,13.453 1.697,14.364 1.697,15.471L1.697,21.049C1.697,22.156 2.608,23.067 3.715,23.067L9.696,23.067L10.839,23.728L18.555,28.186C18.732,28.288 18.933,28.342 19.138,28.342C19.777,28.342 20.302,27.817 20.302,27.178L20.302,9.342C20.302,8.703 19.777,8.177 19.138,8.177C18.933,8.177 18.732,8.231 18.555,8.333Z" style="fill:none;fill-rule:nonzero;stroke:rgb(85,87,97);stroke-width:1px;"/>
        <g id="g7447" transform="matrix(0.664809,0,0,0.664809,-6.28998,11.4038)">
            <path id="path918" d="M40,16.389L35,12.603L30,8.817L30,13.238L22,13.238L22,8.817L17,12.603L12,16.389L17,20.175L22,23.961L22,19.54L30,19.54L30,23.961L35,20.175L40,16.389Z" style="fill:rgb(250,250,250);fill-rule:nonzero;"/>
            <path id="path951" d="M40,16.389L35,12.603L30,8.817L30,13.238L22,13.238L22,8.817L17,12.603L12,16.389L17,20.175L22,23.961L22,19.54L30,19.54L30,23.961L35,20.175L40,16.389Z" style="fill:none;fill-rule:nonzero;stroke:black;stroke-width:1.5px;"/>
        </g>
    </g>
    <defs>
        <linearGradient id="_Linear1" x1="0" y1="0" x2="1" y2="0" gradientUnits="userSpaceOnUse" gradientTransform="matrix(2.39835,21.5896,-21.5896,2.39835,9.94398,7.58545)"><stop offset="0" style="stop-color:rgb(171,172,174);stop-opacity:1"/><stop offset="1" style="stop-color:rgb(126,128,135);stop-opacity:1"/></linearGradient>
    </defs>
</svg>
