<svg xmlns="http://www.w3.org/2000/svg" width="100%" height="100%" viewBox="0 0 22 22" fill-rule="evenodd" stroke-linecap="round" stroke-linejoin="round" stroke-miterlimit="1.5" xmlns:v="https://vecta.io/nano"><path d="M1.5 5.503h19.025v12H1.5z" fill="#fff"/><g fill="none"><path d="M1.5 5.503h19.025v12H1.5z" stroke="#494949"/><path d="M13.5 21.194v1.809" stroke="#555761" stroke-width=".57" stroke-miterlimit="4"/></g><path d="M19.503 27.226a1.7 1.7 0 0 0 2.399 0l4.259-4.259a1.7 1.7 0 0 0 0-2.399L16 10.501l-7 6.502 10.503 10.223z" fill="#ececec"/><g fill-rule="nonzero"><path d="M21.916 27.211c-.664.665-1.752-.044-2.416-.708L9 17.003h-.5v1.498l10.17 9.558a1.69 1.69 0 0 0 2.398 0l.848-.848z" fill="#7e8087"/><path d="M27.309 24.114c.664-.664.664-1.734 0-2.398L20.5 15.003l-6.999 6-.001 2 6.317 6.204a1.69 1.69 0 0 0 2.399 0l5.093-5.093z" fill="#d63978"/></g><g fill="none" stroke="#555761" stroke-miterlimit="4"><path d="M20.5 15.432l-4.774-4.657L8.5 17.003v1.5l4.5 4" stroke-width=".98"/><path d="M13.5 21.503v1.5m7-7.5l-7 5.923"/></g></svg>