<svg xmlns="http://www.w3.org/2000/svg" width="100%" height="100%" viewBox="0 0 22 22" fill-rule="evenodd" stroke-linecap="round" stroke-linejoin="round" stroke-miterlimit="1.5" xmlns:v="https://vecta.io/nano"><path d="M1.5 5.003h19.025V18H1.5z" fill="#fff"/><path d="M1.5 5.003h19.025v13H1.5z" fill="none" stroke="#494949"/><path d="M7.588 18.53v-3.253l5.693-5.001 8.635 8.227-14.328.027z" fill-opacity=".15"/><path d="M13.5 21.194v1.809" fill="none" stroke="#555761" stroke-width=".57" stroke-miterlimit="4"/><path d="M19.503 27.226a1.7 1.7 0 0 0 2.399 0l4.259-4.259a1.7 1.7 0 0 0 0-2.399L16 10.501l-7 6.502 10.503 10.223z" fill="#ececec"/><path d="M21.916 27.211c-.664.665-1.752-.044-2.416-.708L9 17.003h-.5v1.498l10.17 9.558a1.69 1.69 0 0 0 2.398 0l.848-.848z" fill="#7e8087" fill-rule="nonzero"/><path d="M13 22.503l7.5-7.5-4.5-4.502-7.5 6.502v1.527l4.5 3.973z" fill="none" stroke="#555761" stroke-miterlimit="4"/><path d="M27.309 24.114c.664-.664.664-1.734 0-2.398l-6.402-6.713-7.406 6-.001 2 6.317 6.204a1.69 1.69 0 0 0 2.399 0l5.093-5.093z" fill="#d63978" fill-rule="nonzero"/><path d="M13.5 21.194v1.809m7-8l-6.999 6" fill="none" stroke="#555761" stroke-miterlimit="4"/></svg>