<svg xmlns="http://www.w3.org/2000/svg" fill-rule="evenodd" stroke-linecap="round" stroke-linejoin="round" stroke-miterlimit="1.5" viewBox="0 0 22 22"><path fill="#fff" d="M1.5 5.5h19.02v12H1.5z"/><g fill="none" stroke="#555761"><path stroke-opacity=".99" d="M1.5 5.5h19.02v12H1.5z"/><path stroke-miterlimit="4" stroke-width=".57" d="M13.5 21.2V23"/></g><path fill="#ececec" d="M19.5 27.22a1.7 1.7 0 0 0 2.4 0l4.26-4.26a1.7 1.7 0 0 0 0-2.4L16 10.5 9 17l10.5 10.22z"/><g fill-rule="nonzero"><path fill="#7e8087" d="M21.92 27.2c-.67.67-1.76-.03-2.42-.7L9 17h-.5v1.5l10.17 9.56a1.7 1.7 0 0 0 2.4 0l.85-.85z"/><path fill="#d63978" d="M27.3 24.11a1.7 1.7 0 0 0 0-2.4l-6.8-6.7-7 6v2l6.32 6.2a1.7 1.7 0 0 0 2.4 0l5.09-5.1z"/></g><g fill="none" stroke="#555761" stroke-miterlimit="4"><path stroke-width=".98" d="m20.5 15.43-4.77-4.66L8.5 17v1.5l4.5 4"/><path d="M13.5 21.5V23m7-7.5-7 5.92"/></g></svg>