<svg xmlns="http://www.w3.org/2000/svg" xmlns:ns1="http://www.serif.com/" width="100%" height="100%" viewBox="0 0 22 23" version="1.1" xml:space="preserve" style="fill-rule:evenodd;clip-rule:evenodd;stroke-linecap:round;stroke-linejoin:round;stroke-miterlimit:1.5;"><rect x="1.5" y="5.5" width="19.025" height="13.173" style="fill:none;stroke:#494949;stroke-width:1px;" /><rect x="1.5" y="5.5" width="19.025" height="13.173" style="fill:#fff;" /><g id="Layer-2" ns1:id="Layer 2"><path d="M7.588,19.027l-0,-3.253l5.693,-5.001l8.614,8.055l-14.307,0.199Z" style="fill-opacity:0.15;" /><path id="path1021" d="M13.5,21.692l0,1.808" style="fill:none;fill-rule:nonzero;stroke:#555761;stroke-width:0.57px;stroke-miterlimit:4;" /><path d="M19.503,27.723c0.662,0.662 1.737,0.662 2.399,0l4.259,-4.259c0.662,-0.662 0.662,-1.737 0,-2.399l-10.161,-9.565l-7.018,5.65l10.521,10.573Z" style="fill:#ececec;" /><path id="rect1060" d="M21.916,27.709c-0.664,0.664 -1.734,0.664 -2.398,-0l-10.533,-10.559l-0.019,1.93l9.704,9.477c0.664,0.664 1.734,0.664 2.398,-0l0.848,-0.848Z" style="fill:#7e8087;fill-rule:nonzero;" /><path d="M17.47,27.357c0.662,0.662 1.737,0.662 2.398,0l5.094,-5.093c0.661,-0.662 0.662,-1.737 -0,-2.399l-8.962,-8.365l-7.018,5.65l0.026,1.884l8.462,8.323Z" style="fill:none;stroke:#555761;stroke-width:0.57px;stroke-miterlimit:4;" /><path id="path10211" ns1:id="path1021" d="M27.309,24.611c0.664,-0.664 0.664,-1.734 -0,-2.398l-6.6,-6.6l-7.209,6.079l0,1.808l6.317,6.204c0.665,0.665 1.734,0.665 2.399,0l5.093,-5.093Z" style="fill:#d63978;fill-rule:nonzero;" /><path id="path1034" d="M19.817,29.704c0.665,0.665 1.513,-0.183 0.848,-0.848l-7.164,-7.164l0.001,1.861l6.315,6.151Z" style="fill:#bc245d;fill-rule:nonzero;" /><path id="path10212" ns1:id="path1021" d="M13.5,23.603l6.317,6.101c0.665,0.665 1.734,0.665 2.399,0l5.093,-5.093c0.664,-0.664 0.652,-1.5 -0.012,-2.165l-6.6,-6.6" style="fill:none;fill-rule:nonzero;stroke:#910e38;stroke-width:0.57px;stroke-miterlimit:4;" /><path id="path10213" ns1:id="path1021" d="M13.5,21.692l0,1.808" style="fill:none;fill-rule:nonzero;stroke:#555761;stroke-width:0.57px;stroke-miterlimit:4;" /><path id="path10214" ns1:id="path1021" d="M20.566,15.734l-7.066,5.958" style="fill:none;fill-rule:nonzero;stroke:#555761;stroke-width:0.57px;stroke-miterlimit:4;" /></g></svg>