<svg xmlns="http://www.w3.org/2000/svg" xml:space="preserve" style="fill-rule:evenodd;clip-rule:evenodd;stroke-linejoin:round" viewBox="0 0 22 22"><path d="M2.5 1.5h11v15h-11v-15Z" style="fill:#b6b6b6;fill-rule:nonzero"/><path d="M2.5 1.5h11v15h-11v-15Z" style="fill:none;fill-rule:nonzero;stroke:#7e8087;stroke-width:1px"/><path d="M8.5 6.5h11v14h-11v-14Z" style="fill:#e9e9e9;fill-rule:nonzero;stroke:#7e8087;stroke-width:1px"/><path d="M8.5 7c-3.55 2.4-1.62 7 2 7v2.03l5-3.57-5-3.46v2c-2.55.1-3.33-2.32-1.5-4h-.5Z" style="fill:#81d835;fill-rule:nonzero"/><path d="M8 7.5C4.45 9.9 6.88 14 10.5 14v2.5l5-4-5-4V11c-2.55.1-3.83-1.82-2-3.5H8Z" style="fill:none;fill-rule:nonzero;stroke:#206b00;stroke-width:1px;stroke-linecap:round"/><path d="M8.5 6.5v3" style="fill:none;fill-rule:nonzero;stroke:#7e8087;stroke-width:1px;stroke-linecap:round"/></svg>