<svg xmlns="http://www.w3.org/2000/svg" width="100%" height="100%" viewBox="0 0 22 22" fill-rule="evenodd" stroke-linejoin="round" xmlns:v="https://vecta.io/nano"><path d="M2.5 1.502l11 .001v14.999h-11v-15z" fill="#b6b6b6" fill-rule="nonzero"/><g stroke="#7e8087"><path d="M2.5 1.502l11 .001v14.999h-11v-15z" fill="none"/><path d="M8.5 6.502l11 .001v13.999h-11v-14z" fill="#e9e9e9" fill-rule="nonzero"/></g><path d="M8.5 7.002C4.949 9.407 6.882 14 10.5 14l.003 2.026 5-3.571L10.5 9.002v2c-2.553.099-3.325-2.322-1.5-4h-.5z" fill="#81d835" fill-rule="nonzero"/><g fill="none"><path d="M8.303 7.098c-3.551 2.405-1.418 7.018 2.2 7.018v1.91l5-3.571-5-3.339v2c-2.553.099-3.669-2.34-1.844-4.018h-.356z" stroke="#206b00" stroke-width=".45"/><path d="M8.5 6.502v2.567" stroke="#7e8087"/></g></svg>