<svg xmlns="http://www.w3.org/2000/svg" fill-rule="evenodd" stroke-linejoin="round" viewBox="0 0 22 22"><path fill="#b6b6b6" fill-rule="nonzero" d="M2.5 1.5h11v15h-11v-15z"/><path fill="none" stroke="#7e8087" stroke-opacity=".99" d="M2.5 1.5h11v15h-11v-15z"/><g fill-rule="nonzero"><path fill="#e9e9e9" stroke="#555761" stroke-opacity=".99" d="M8.5 6.5h11v14h-11v-14z"/><path fill="#81d835" d="M8.5 7c-3.55 2.4-1.62 7 2 7v2.02l5-3.57-5-3.45v2c-2.55.1-3.33-2.32-1.5-4h-.5z"/></g><g fill="none"><path stroke="#206b00" d="M8 7.5C4.45 9.9 6.88 14 10.5 14v2.5l5-4-5-4V11c-2.55.1-3.83-1.82-2-3.5H8z"/><path stroke="#555761" stroke-linecap="round" stroke-opacity=".99" d="M8.5 6.5v3"/></g></svg>