<?xml version="1.0" encoding="UTF-8" standalone="no"?>
<!DOCTYPE svg PUBLIC "-//W3C//DTD SVG 1.1//EN" "http://www.w3.org/Graphics/SVG/1.1/DTD/svg11.dtd">
<svg width="100%" height="100%" viewBox="0 0 22 22" version="1.1" xmlns="http://www.w3.org/2000/svg" xmlns:xlink="http://www.w3.org/1999/xlink" xml:space="preserve" xmlns:serif="http://www.serif.com/" style="fill-rule:evenodd;clip-rule:evenodd;stroke-linejoin:round;">
    <g id="Layer-2" serif:id="Layer 2" transform="matrix(1,0,0,1,0,-7.33333)">
        <path id="path4160-8" d="M2.5,8.833C5.021,8.833 13.5,8.834 13.5,8.834L13.5,23.833L2.5,23.833L2.5,8.833Z" style="fill:rgb(233,233,233);fill-rule:nonzero;stroke:rgb(126,128,135);stroke-width:1px;"/>
        <rect id="rect6741-1-7" x="3.5" y="9.833" width="9" height="13" style="fill:none;fill-rule:nonzero;stroke:url(#_Linear1);stroke-width:1px;stroke-linecap:round;stroke-linejoin:miter;"/>
        <path id="path4160-3-9-6-0" d="M7,11.332C8.604,11.332 14,11.333 14,11.333L14,24.333L7,24.333L7,11.332Z" style="fill-opacity:0.05;fill-rule:nonzero;"/>
        <path id="path4160-8-3" d="M8.5,12.833C11.021,12.833 19.5,12.834 19.5,12.834L19.5,27.833L8.5,27.833L8.5,12.833Z" style="fill:rgb(233,233,233);fill-rule:nonzero;stroke:rgb(126,128,135);stroke-width:1px;"/>
        <rect id="rect6741-1-2" x="9.5" y="13.833" width="9" height="13" style="fill:none;fill-rule:nonzero;stroke:url(#_Linear2);stroke-width:1px;stroke-linecap:round;stroke-linejoin:miter;"/>
        <path id="path3503" d="M8.303,13.928C4.752,16.333 6.885,20.946 10.503,20.946L10.503,22.856L15.503,19.285L10.503,15.946L10.503,17.946C7.95,18.045 6.834,15.606 8.659,13.928L8.303,13.928Z" style="fill:rgb(195,247,99);fill-rule:nonzero;"/>
        <path id="path3503-2" d="M8.303,13.928C4.752,16.333 6.885,20.946 10.503,20.946L10.503,22.856L15.503,19.285L10.503,15.946L10.503,17.946C7.95,18.045 6.834,15.606 8.659,13.928L8.303,13.928Z" style="fill:none;fill-rule:nonzero;stroke:rgb(32,107,0);stroke-opacity:0.5;stroke-width:1px;stroke-linecap:round;"/>
        <path id="path5643" d="M8.5,12.833L8.5,16.13" style="fill:none;fill-rule:nonzero;stroke:rgb(126,128,135);stroke-width:1px;stroke-linejoin:miter;"/>
        <path id="path5645" d="M9,13.833L9.831,13.833" style="fill:none;fill-rule:nonzero;stroke:white;stroke-width:1px;stroke-linejoin:miter;"/>
    </g>
    <defs>
        <linearGradient id="_Linear1" x1="0" y1="0" x2="1" y2="0" gradientUnits="userSpaceOnUse" gradientTransform="matrix(7.34788e-16,12,-12,7.34788e-16,8,10.3328)"><stop offset="0" style="stop-color:white;stop-opacity:1"/><stop offset="0" style="stop-color:white;stop-opacity:0.24"/><stop offset="1" style="stop-color:white;stop-opacity:0.16"/><stop offset="1" style="stop-color:white;stop-opacity:0.39"/></linearGradient>
        <linearGradient id="_Linear2" x1="0" y1="0" x2="1" y2="0" gradientUnits="userSpaceOnUse" gradientTransform="matrix(7.34788e-16,12,-12,7.34788e-16,14,14.3328)"><stop offset="0" style="stop-color:white;stop-opacity:1"/><stop offset="0" style="stop-color:white;stop-opacity:0.24"/><stop offset="1" style="stop-color:white;stop-opacity:0.16"/><stop offset="1" style="stop-color:white;stop-opacity:0.39"/></linearGradient>
    </defs>
</svg>
