<svg xmlns="http://www.w3.org/2000/svg" fill-rule="evenodd" stroke-linecap="round" stroke-linejoin="round" viewBox="0 0 22 22"><path fill="none" stroke="#555761" stroke-opacity=".99" d="m11 13.5 7.5-11L7.5 14v1L9 13.5h2z"/><path fill="#555761" fill-opacity=".99" d="m11 13.5 7.5-11L7.5 14v1L9 13.5h2z"/><path fill="#e84850" d="M4.5 15 7 13.5l.5 1.5L6 17c-.54-1.3-.94-1.47-1.5-2z"/><g fill="none"><g stroke="#7a0000"><path d="M5.5 17.5c.04-.12.08-1.59-1-2.5l3-2v2.5l-2 2z"/><circle cx="3" cy="17" r="2.5"/></g><path stroke="#7e8087" stroke-opacity=".99" d="m11 13.5-7.5-11L15 14v1l-2-1.5h-2z"/></g><path fill="#7e8087" fill-opacity=".99" d="m11 13.5-7.5-11L15 14v1l-2-1.5h-2z"/><path fill="none" stroke="#e9e9e9" d="M3.5 2.5 9 8"/><path fill="#e84850" d="M17.5 15 15 13.5l-.5 1.5 1.5 2c.54-1.3.94-1.47 1.5-2z"/><g fill="none" stroke="#7a0000"><path d="M16.5 17.5a3.06 3.06 0 0 1 1-2.5l-3-2v2.5l2 2z"/><circle cx="19" cy="17" r="2.5" stroke-opacity=".99"/></g><circle cx="11" cy="12" r="1" fill="#333"/><circle cx="10.75" cy="11.75" r=".75" fill="#e9e9e9"/></svg>