<svg xmlns="http://www.w3.org/2000/svg" width="100%" height="100%" viewBox="0 0 22 22" fill-rule="evenodd" stroke-linejoin="round" xmlns:v="https://vecta.io/nano"><g fill="#7e8087"><path d="M10 2.002v-1H6v1h4zm-1 15v-1H5v1h4zM4 1H2v3.002h1V2h1V1zM2 7.002h1v2H2z"/><path d="M2 9h1v2H2zm1 6.997v-1.999H2V17h1v-.003h1v-1H3zM14 1h-2v1h1v2.002h1V1zm-1 4h1v3.002h-1z"/></g><g fill-rule="nonzero"><path d="M8.5 6.502l11 .001v13.999h-11v-14z" fill="#e9e9e9" stroke="#7e8087"/><path d="M8.5 7.002c-3.551 2.405-1.618 7 2 7l.003 1.995 5-3.571L10.5 9.002V11c-2.553.099-3.325-2.32-1.5-3.998h-.5z" fill="#81d835"/></g><path d="M8.303 7.069c-3.551 2.405-1.418 7.018 2.2 7.018v1.91l5-3.571-5-3.339v2c-2.553.099-3.669-2.34-1.844-4.018h-.356z" fill="none" stroke="#206b00" stroke-width=".45"/></svg>