<svg xmlns="http://www.w3.org/2000/svg" fill-rule="evenodd" stroke-linecap="round" stroke-linejoin="round" viewBox="0 0 22 22"><path fill="#555761" fill-opacity=".99" d="M11 13.5 18 4V3L7.5 12.5V15L9 13.5h2z"/><path fill="#333" d="M11 14a1 1 0 0 0 .82-.43l7-10a1 1 0 0 0-1.53-1.27L6.8 12.8a1 1 0 0 0-.29.7v1a1 1 0 0 0 1.7.71l1.21-1.2 1.6-.01zm0-1 7-10L7.5 13.5v1L9 13h2z"/><path fill="#e84850" d="M4.5 15 7 13.5l.5 1.5L6 17c-.54-1.3-.94-1.47-1.5-2z"/><g fill="none" stroke="#7a0000"><path d="M5.5 17.5c.04-.12.08-1.59-1-2.5l3-2v2.5l-2 2z"/><circle cx="3" cy="17" r="2.5"/></g><path fill="#7e8087" fill-opacity=".99" d="M11 13.5 4 4V3l10.5 9.5V15L13 13.5h-2z"/><path fill="#333" d="M10.18 13.58A1 1 0 0 0 11 14h1.59l1.2 1.21a1 1 0 0 0 1.71-.7v-1a1 1 0 0 0-.3-.71L4.7 2.3a1 1 0 0 0-1.52 1.28l7 10zM11 13 4 3l10.5 10.5v1L13 13h-2z"/><path fill="none" stroke="#e9e9e9" d="m4 3 5 5"/><path fill="#e84850" d="M17.5 15 15 13.5l-.5 1.5 1.5 2c.54-1.3.94-1.47 1.5-2z"/><g fill="none" stroke="#7a0000"><path d="M16.5 17.5a3.06 3.06 0 0 1 1-2.5l-3-2v2.5l2 2z"/><circle cx="19" cy="17" r="2.5" stroke-opacity=".99"/></g><circle cx="11" cy="12" r="1" fill="#333"/><circle cx="10.75" cy="11.75" r=".75" fill="#e9e9e9"/></svg>