<?xml version="1.0" encoding="UTF-8" standalone="no"?>
<!DOCTYPE svg PUBLIC "-//W3C//DTD SVG 1.1//EN" "http://www.w3.org/Graphics/SVG/1.1/DTD/svg11.dtd">
<svg width="100%" height="100%" viewBox="0 0 22 22" version="1.1" xmlns="http://www.w3.org/2000/svg" xmlns:xlink="http://www.w3.org/1999/xlink" xml:space="preserve" xmlns:serif="http://www.serif.com/" style="fill-rule:evenodd;clip-rule:evenodd;stroke-linecap:round;stroke-linejoin:round;">
    <g id="Layer-2" serif:id="Layer 2" transform="matrix(1,0,0,1,0,-7.33333)">
        <rect id="rect2252" x="6.364" y="8.445" width="14.653" height="19.777" style="fill:rgb(149,163,171);stroke:rgb(14,20,31);stroke-width:1px;"/>
        <path id="path1961" d="M8.321,12.283L8.321,15.966L0.983,15.966L0.983,21.659L8.321,21.659L8.321,25.214L12.785,21.98L17.248,18.747L12.785,15.516L8.321,12.283Z" style="fill:url(#_Linear1);fill-rule:nonzero;"/>
        <path id="path1984" d="M16.125,17.934L12.785,20.353L8.321,23.587L8.321,25.214L12.785,21.98L17.248,18.747L16.125,17.934ZM0.983,20.032L0.983,21.659L8.321,21.659L8.321,20.032L0.983,20.032Z" style="fill:rgb(154,15,14);fill-rule:nonzero;"/>
        <path id="path1975" d="M8.321,12.282L8.321,13.909L12.785,17.143L16.125,19.561L17.248,18.747L12.785,15.516L8.321,12.282ZM0.983,15.966L0.983,17.592L8.321,17.592L8.321,15.966L0.983,15.966Z" style="fill:rgb(252,148,139);fill-rule:nonzero;"/>
        <path id="path1965" d="M8.321,12.283L8.321,15.966L0.983,15.966L0.983,21.659L8.321,21.659L8.321,25.214L12.785,21.98L17.248,18.747L12.785,15.516L8.321,12.283Z" style="fill:none;fill-rule:nonzero;stroke:rgb(116,6,6);stroke-width:1px;"/>
    </g>
    <defs>
        <linearGradient id="_Linear1" x1="0" y1="0" x2="1" y2="0" gradientUnits="userSpaceOnUse" gradientTransform="matrix(7.91811e-16,12.9313,-12.9313,7.91811e-16,8.32145,12.2825)"><stop offset="0" style="stop-color:rgb(198,38,46);stop-opacity:1"/><stop offset="1" style="stop-color:rgb(161,7,5);stop-opacity:1"/></linearGradient>
    </defs>
</svg>
