<?xml version="1.0" encoding="UTF-8" standalone="no"?>
<!DOCTYPE svg PUBLIC "-//W3C//DTD SVG 1.1//EN" "http://www.w3.org/Graphics/SVG/1.1/DTD/svg11.dtd">
<svg width="100%" height="100%" viewBox="0 0 16 16" version="1.1" xmlns="http://www.w3.org/2000/svg" xmlns:xlink="http://www.w3.org/1999/xlink" xml:space="preserve" xmlns:serif="http://www.serif.com/" style="fill-rule:evenodd;clip-rule:evenodd;stroke-linecap:round;">
    <g id="Layer-2" serif:id="Layer 2" transform="matrix(1,0,0,1,-214.358,-593.855)">
        <path id="path1367" d="M221.139,598.679C220.623,598.691 220.13,598.902 219.766,599.269C218.991,600.045 218.991,601.321 219.766,602.096L225.945,608.268C226.721,609.043 227.996,609.043 228.772,608.268C229.547,607.492 229.547,606.216 228.772,605.44L222.601,599.269C222.215,598.881 221.687,598.667 221.139,598.679Z" style="fill:rgb(163,144,124);fill-rule:nonzero;"/>
        <g>
            <g id="path1397" transform="matrix(0.264583,0,0,0.264583,214.358,593.855)">
                <path d="M25.63,18.233C23.678,18.278 21.817,19.077 20.44,20.463C18.302,22.606 17.649,25.836 18.787,28.642C19.165,27.703 19.727,26.849 20.44,26.132C21.817,24.747 23.678,23.947 25.63,23.903C27.697,23.859 29.694,24.665 31.152,26.132L54.478,49.459C55.195,50.175 55.759,51.029 56.139,51.969C57.275,49.161 56.619,45.931 54.478,43.789L31.152,20.463C29.694,18.996 27.697,18.19 25.63,18.233Z" style="fill:rgb(191,177,164);fill-rule:nonzero;"/>
            </g>
            <g id="path1407" transform="matrix(0.264583,0,0,0.264583,214.358,593.855)">
                <path d="M18.787,22.972C17.649,25.778 18.302,29.008 20.44,31.152L43.789,54.478C46.721,57.41 51.546,57.41 54.478,54.478C56.617,52.335 57.27,49.105 56.132,46.299C55.753,47.235 55.191,48.086 54.478,48.802C51.546,51.733 46.721,51.733 43.789,48.802L20.44,25.482C19.727,24.765 19.165,23.911 18.787,22.972Z" style="fill:rgb(138,113,94);fill-rule:nonzero;"/>
            </g>
        </g>
        <path id="path13671" serif:id="path1367" d="M221.139,598.679C220.623,598.691 220.13,598.902 219.766,599.269C218.991,600.045 218.991,601.321 219.766,602.096L225.945,608.268C226.721,609.043 227.996,609.043 228.772,608.268C229.547,607.492 229.547,606.216 228.772,605.44L222.601,599.269C222.215,598.881 221.687,598.667 221.139,598.679Z" style="fill:none;fill-rule:nonzero;stroke:rgb(113,83,67);stroke-width:1px;"/>
        <g transform="matrix(-1,0,0,1,0,0)">
            <circle cx="-220.626" cy="600.122" r="5.268" style="fill:rgb(65,101,171);"/>
        </g>
        <g transform="matrix(-0.810175,0,0,0.810175,41.8804,113.918)">
            <circle cx="-220.626" cy="600.122" r="5.268" style="fill:rgb(113,195,255);"/>
        </g>
        <g id="circle1359" transform="matrix(-1,0,0,1,0,0)">
            <circle cx="-220.626" cy="600.122" r="5.268" style="fill:none;stroke:rgb(113,83,67);stroke-width:1px;stroke-linejoin:round;"/>
        </g>
        <g transform="matrix(0.409787,1.12786,-1.31584,0.478085,225.405,590.941)">
            <circle cx="6.5" cy="5.5" r="2.5" style="fill:rgb(65,101,171);"/>
        </g>
        <g transform="matrix(1,0,0,1,214.358,593.855)">
            <path d="M9.7,5.694C9.723,5.746 9.744,5.798 9.763,5.852C10.329,7.408 9.314,9.207 7.498,9.867C5.683,10.526 3.749,9.799 3.184,8.242C3.11,8.038 3.063,7.83 3.041,7.621C3.677,9.068 5.539,9.724 7.292,9.088C8.87,8.514 9.843,7.081 9.7,5.694Z" style="fill:white;"/>
        </g>
        <g id="circle1354" transform="matrix(-1,0,0,1,0,0)">
            <path d="M-220.543,597.348C-219.067,597.348 -217.852,598.563 -217.852,600.039" style="fill:none;fill-rule:nonzero;stroke:rgb(250,250,250);stroke-width:2px;stroke-linejoin:round;"/>
        </g>
    </g>
    <g id="Layer-21" serif:id="Layer 2" transform="matrix(0.538676,0,0,0.538676,-1.69338,1.65918)">
        <rect id="rect921" x="8.588" y="12.334" width="4.823" height="12" style="fill:rgb(104,183,35);"/>
        <g id="rect925" transform="matrix(-3.82857e-16,1,-1,-3.82857e-16,0,0)">
            <rect x="15.922" y="-17" width="4.823" height="12" style="fill:rgb(104,183,35);"/>
        </g>
        <path id="rect927" d="M8.588,12.333L8.588,15.921L5,15.921L5,20.745L8.588,20.745L8.588,24.333L13.412,24.333L13.412,20.745L17,20.745L17,15.921L13.412,15.921L13.412,12.333L8.588,12.333Z" style="fill:url(#_Linear1);fill-rule:nonzero;"/>
        <g id="path1784" transform="matrix(0.75,0,0,0.75,0,7.33333)">
            <path d="M6.667,15.216L6.667,17.883L11.451,17.883L11.451,15.216L6.667,15.216ZM17.883,15.216L17.883,17.883L22.667,17.883L22.667,15.216L17.883,15.216ZM11.451,20L11.451,22.667L17.883,22.667L17.883,20L11.451,20Z" style="fill:rgb(58,145,4);fill-rule:nonzero;"/>
        </g>
        <g id="path1762" transform="matrix(0.75,0,0,0.75,0,7.33333)">
            <path d="M11.451,6.667L11.451,9.333L17.883,9.333L17.883,6.667L11.451,6.667ZM6.667,11.451L6.667,14.117L11.451,14.117L11.451,11.451L6.667,11.451ZM17.883,11.451L17.883,14.117L22.667,14.117L22.667,11.451L17.883,11.451Z" style="fill:rgb(209,255,130);fill-rule:nonzero;"/>
        </g>
        <path id="path934" d="M8.588,12.333L8.588,15.921L5,15.921L5,20.745L8.588,20.745L8.588,24.333L13.412,24.333L13.412,20.745L17,20.745L17,15.921L13.412,15.921L13.412,12.333L8.588,12.333Z" style="fill:none;fill-rule:nonzero;stroke:rgb(32,107,0);stroke-width:1px;stroke-linejoin:round;"/>
    </g>
    <defs>
        <linearGradient id="_Linear1" x1="0" y1="0" x2="1" y2="0" gradientUnits="userSpaceOnUse" gradientTransform="matrix(0.0178558,16.2555,-16.2555,0.0178558,11.4464,12.3337)"><stop offset="0" style="stop-color:rgb(104,183,35);stop-opacity:1"/><stop offset="1" style="stop-color:rgb(58,145,4);stop-opacity:1"/></linearGradient>
    </defs>
</svg>
