<svg xmlns="http://www.w3.org/2000/svg" viewBox="0 0 22 22" fill-rule="evenodd" xmlns:v="https://vecta.io/nano"><g fill="none" stroke="#7e8087" stroke-dasharray="1,2,1,0"><path d="M14 1.5H2h12Z" stroke-dashoffset="3.5"/><path d="M13.5 16.5H2h11.5Z" stroke-dashoffset="5"/><path d="M2.5 2v14.5V2Zm11-.25v14.5-14.5Z"/></g><g fill-rule="nonzero"><path d="M8.5 6.5h11v14h-11v-14Z" fill="#e9e9e9" stroke="#7e8087" stroke-linejoin="round"/><path d="M8.3 7.07c-3.55 2.4-1.42 7.02 2.2 7.02v1.9l5-3.57-5-3.33v2c-2.55.1-3.67-2.35-1.84-4.02H8.3Z" fill="#81d835"/></g><g fill="none" stroke-linejoin="round"><path d="M8.3 7.07c-3.55 2.4-1.42 7.02 2.2 7.02v1.9l5-3.57-5-3.33v2c-2.55.1-3.67-2.35-1.84-4.02H8.3Z" stroke="#206b00" stroke-width=".45"/><path d="M8.5 6.56v2.48" stroke="#7e8087"/></g></svg>