<svg xmlns="http://www.w3.org/2000/svg" xmlns:xlink="http://www.w3.org/1999/xlink" viewBox="0 0 22 22" fill-rule="evenodd" xmlns:v="https://vecta.io/nano"><g stroke="#715344"><use xlink:href="#B" fill="#e2b269" stroke-opacity=".96"/><use xlink:href="#B" fill="none" stroke-opacity=".96"/></g><g fill-rule="nonzero"><path d="M11.25 5c.97.05 1-1 1-1l-1-1V2s.07-1.02-1-1l-4 .03c-1.03.04-1 1-1 1V3l-1 1s.12.96 1 1h6Z" fill="#dbdbdb" stroke="#7e8087"/><path d="M9 6.5h10v14H9v-14Z" fill="#e9e9e9"/></g><path d="M8.5 6.5h11v14h-11v-14Z" fill="none" stroke="#7e8087" stroke-linejoin="round"/><use xlink:href="#C" fill="#81d835" fill-rule="nonzero"/><g fill="none" stroke-linejoin="round"><use xlink:href="#C" stroke="#206b00" stroke-width=".46"/><path d="M8.5 6.5v2.28" stroke="#7e8087"/></g><defs ><path id="B" d="M14 15.52a1.5 1.5 0 0 1-1.5 1.5H4a1.5 1.5 0 0 1-1.5-1.5V4.5A1.5 1.5 0 0 1 4 3h8.5A1.5 1.5 0 0 1 14 4.5v11.02z"/><path id="C" d="M8.3 7.06c-3.55 2.4-1.42 7.02 2.2 7.02V16l5-3.57-5-3.34v2c-2.55.1-3.67-2.34-1.84-4.02H8.3Z"/></defs></svg>