<svg xmlns="http://www.w3.org/2000/svg" xmlns:xlink="http://www.w3.org/1999/xlink" viewBox="0 0 23 22" fill-rule="evenodd" stroke-linecap="round" xmlns:v="https://vecta.io/nano"><g fill-rule="nonzero"><path d="M3.26 3.5c-.18 0-.3.2-.3.4v1.13h-.5c-.19 0-.33.16-.33.36v3.56h19.25V6c0-.2-.15-.37-.33-.37H10.59V3.87c-.01-.2-.16-.37-.34-.37H3.26Z" fill="#8a715e"/><path d="M2.26 7.06c-.5 0-.13 8.6-.13 8.6h19.25l-.2-8.6H2.26z" fill-opacity=".28"/></g><path d="M21.38 8.95V5.83a.33.33 0 0 0-.33-.33H10.59V3.83a.33.33 0 0 0-.34-.33H3.26c-.18 0-.3.18-.3.36V5.5h-.5a.33.33 0 0 0-.33.33v3.12" fill="none" stroke="#3c201a" stroke-opacity=".99"/><use xlink:href="#B" fill="#e7cfa8" fill-rule="nonzero"/><use xlink:href="#B" fill="none" stroke="#3d211b" stroke-opacity=".99"/><defs ><path id="B" d="m1.38 9.56.75 7.94s0 .33.33.33h18.58c.34 0 .34-.33.34-.33l.74-7.94c.02-.17.08-.5-.33-.5h-20c-.5 0-.43.34-.41.5Z"/></defs></svg>