<svg xmlns="http://www.w3.org/2000/svg" viewBox="0 0 22 22" fill-rule="evenodd" xmlns:v="https://vecta.io/nano"><g fill-rule="nonzero"><path d="M1.83 1.5c-.47 0-.85.38-.85.8v17.2c0 .45.38.8.85.8H19.6c.47 0 .85-.38.85-.8V3.96c0-.22-.1-.42-.25-.57l-1.7-1.64a.88.88 0 0 0-.6-.25H1.83Z" fill="#2f7ede" fill-opacity=".99"/><path d="M4.75 1.48v6.1c0 .27.23.52.53.52h11.46c.28 0 .28-.23.28-.53V1.48H4.75Zm8.7 1.7h1.39c.17 0 .3.13.3.3v3.27c0 .18-.13.3-.3.3h-1.4a.29.29 0 0 1-.3-.3V3.48c0-.17.13-.3.3-.3Z" fill-opacity=".3"/><path d="M5 .98v6.1c0 .27.23.52.53.52h10.96c.28 0 .53-.22.53-.53V.98H5Zm8.3 2.11h1.3c.17 0 .3.13.3.3V5.7c0 .18-.13.3-.3.3h-1.3a.29.29 0 0 1-.3-.3V3.4c0-.18.13-.3.3-.3ZM5.75 15c-.55 0-.75.43-.75.96v4.54h12.02L17 15.96a.98.98 0 0 0-1-.96H5.75Z" fill="#fafafa"/></g><path d="M2.35 1.5c-.48 0-.85.38-.85.8v17.4c0 .45.38.8.85.8h17.24c.47 0 .85-.38.85-.8V3.96c0-.22-.1-.42-.25-.57L18.6 1.75a.88.88 0 0 0-.6-.25H2.35Z" fill="none" stroke="#033c79"/></svg>