<svg xmlns="http://www.w3.org/2000/svg" viewBox="0 0 22 22" fill-rule="evenodd" stroke-linejoin="round" xmlns:v="https://vecta.io/nano"><path d="M2.5 1.5h11v15h-11v-15Z" fill="#b6b6b6" fill-rule="nonzero"/><g stroke="#7e8087"><path d="M2.5 1.5h11v15h-11v-15Z" fill="none"/><path d="M8.5 6.5h11v14h-11v-14Z" fill="#e9e9e9" fill-rule="nonzero"/></g><path d="M8.3 7.1c-3.55 2.4-1.42 7.01 2.2 7.01v1.91l5-3.57-5-3.34v2c-2.55.1-3.67-2.34-1.84-4.01H8.3Z" fill="#81d835" fill-rule="nonzero"/><g fill="none"><path d="M8.3 7.1c-3.55 2.4-1.42 7.01 2.2 7.01v1.91l5-3.57-5-3.34v2c-2.55.1-3.67-2.34-1.84-4.01H8.3Z" stroke="#206b00" stroke-width=".45"/><path d="M8.5 6.5v2.57" stroke="#7e8087"/></g></svg>