<?xml version="1.0" encoding="UTF-8" standalone="no"?>
<!DOCTYPE svg PUBLIC "-//W3C//DTD SVG 1.1//EN" "http://www.w3.org/Graphics/SVG/1.1/DTD/svg11.dtd">
<svg width="100%" height="100%" viewBox="0 0 22 22" version="1.1" xmlns="http://www.w3.org/2000/svg" xmlns:xlink="http://www.w3.org/1999/xlink" xml:space="preserve" xmlns:serif="http://www.serif.com/" style="fill-rule:evenodd;clip-rule:evenodd;stroke-linecap:round;stroke-linejoin:round;">
    <g id="Layer-2" serif:id="Layer 2" transform="matrix(1,0,0,1,0,-7.33333)">
        <path id="path1135" d="M3.269,8.337L3.269,28.368L18.731,28.368L18.731,13.904L11.524,8.337C7.946,8.337 5.16,8.337 3.269,8.337Z" style="fill:url(#_Linear1);fill-rule:nonzero;"/>
        <rect id="rect1177" x="11.524" y="13.904" width="7.207" height="2.12" style="fill:rgb(102,102,102);fill-opacity:0.4;"/>
        <path id="path1239" d="M18.733,13.904L11.525,8.337L11.525,13.904L18.733,13.904Z" style="fill:url(#_Linear2);fill-rule:nonzero;"/>
        <path id="path1262" d="M3.269,8.337L3.269,28.368L18.731,28.368L18.731,13.904L11.524,8.337C7.946,8.337 5.16,8.337 3.269,8.337Z" style="fill:none;fill-rule:nonzero;stroke:rgb(85,87,97);stroke-width:1px;"/>
        <path id="path1264" d="M18.731,13.904L11.524,13.904L11.524,8.333" style="fill:none;fill-rule:nonzero;stroke:rgb(85,87,97);stroke-width:1px;stroke-linejoin:miter;"/>
    </g>
    <defs>
        <linearGradient id="_Linear1" x1="0" y1="0" x2="1" y2="0" gradientUnits="userSpaceOnUse" gradientTransform="matrix(1.22673e-15,20.034,-20.034,1.22673e-15,11.5007,7.66718)"><stop offset="0" style="stop-color:rgb(244,244,244);stop-opacity:1"/><stop offset="1" style="stop-color:rgb(219,219,219);stop-opacity:1"/></linearGradient>
        <linearGradient id="_Linear2" x1="0" y1="0" x2="1" y2="0" gradientUnits="userSpaceOnUse" gradientTransform="matrix(1.37002,-5.76776,5.76776,1.37002,13.0149,14.1979)"><stop offset="0" style="stop-color:rgb(250,250,250);stop-opacity:1"/><stop offset="1" style="stop-color:rgb(242,242,242);stop-opacity:1"/></linearGradient>
    </defs>
</svg>
