<?xml version="1.0" encoding="UTF-8" standalone="no"?>
<!DOCTYPE svg PUBLIC "-//W3C//DTD SVG 1.1//EN" "http://www.w3.org/Graphics/SVG/1.1/DTD/svg11.dtd">
<svg width="100%" height="100%" viewBox="0 0 22 22" version="1.1" xmlns="http://www.w3.org/2000/svg" xmlns:xlink="http://www.w3.org/1999/xlink" xml:space="preserve" xmlns:serif="http://www.serif.com/" style="fill-rule:evenodd;clip-rule:evenodd;stroke-linecap:round;stroke-linejoin:round;">
    <g id="Layer-1" serif:id="Layer 1" transform="matrix(1,0,0,1,0,-13.2354)">
        <g id="path1961" transform="matrix(22,0,0,22,0,13.2354)">
            <path d="M0.456,0.124L0.456,0.33L0.045,0.33L0.045,0.648L0.456,0.648L0.456,0.846L0.955,0.485L0.705,0.304L0.456,0.124Z" style="fill:url(#_Linear1);fill-rule:nonzero;"/>
        </g>
        <g id="path1984" transform="matrix(22,0,0,22,0,13.2354)">
            <path d="M0.892,0.44L0.705,0.575L0.456,0.756L0.456,0.846L0.705,0.666L0.955,0.485L0.892,0.44ZM0.045,0.557L0.045,0.648L0.456,0.648L0.456,0.557L0.045,0.557Z" style="fill:rgb(58,145,4);fill-rule:nonzero;"/>
        </g>
        <g id="path1975" transform="matrix(22,0,0,22,0,13.2354)">
            <path d="M0.456,0.124L0.456,0.215L0.705,0.395L0.892,0.53L0.955,0.485L0.705,0.304L0.456,0.124ZM0.045,0.33L0.045,0.42L0.456,0.42L0.456,0.33L0.045,0.33Z" style="fill:rgb(155,219,77);fill-rule:nonzero;"/>
        </g>
        <g id="path1965" transform="matrix(22,0,0,22,0,13.2354)">
            <path d="M0.456,0.124L0.456,0.33L0.045,0.33L0.045,0.648L0.456,0.648L0.456,0.846L0.955,0.485L0.705,0.304L0.456,0.124Z" style="fill:none;fill-rule:nonzero;stroke:rgb(32,107,0);stroke-width:0.05px;"/>
        </g>
    </g>
    <defs>
        <linearGradient id="_Linear1" x1="0" y1="0" x2="1" y2="0" gradientUnits="userSpaceOnUse" gradientTransform="matrix(4.42546e-17,0.722732,-0.722732,4.42546e-17,0.455611,0.123681)"><stop offset="0" style="stop-color:rgb(104,183,35);stop-opacity:1"/><stop offset="1" style="stop-color:rgb(58,145,4);stop-opacity:1"/></linearGradient>
    </defs>
</svg>
