<svg xmlns="http://www.w3.org/2000/svg" width="100%" height="100%" viewBox="0 0 22 22" fill-rule="evenodd" stroke-linecap="round" xmlns:v="https://vecta.io/nano"><g fill-rule="nonzero"><path d="M9.5 3.5h-6L3 6v3l17-.055L20.006 6c0-.203-.148-.367-.332-.367L9.5 5.5v-2z" fill="#8a715e"/><path d="M3 7c-.497 0 .5 3 .5 3H19s.92-3 .506-3H3z" fill-opacity=".28"/></g><path d="M19.5 8.945l.006-3.113a.33.33 0 0 0-.332-.332H9.5V4c-.001-.184-.316-.5-.5-.5H4c-.184 0-.5.316-.5.5v1.445H3c-.184 0-.5.316-.5.5v3" fill="none" stroke="#3c201a" stroke-opacity=".99"/><path d="M1.5 8.5l1 9H19l1.63-9H1.5z" fill="#e7cfa8" fill-rule="nonzero"/><path d="M1.5 9l1 8s.168.5.5.5h16c.332 0 .332-.34.332-.34L20.506 9c.017-.17.083-.511-.331-.511L2 8.5c-.497 0-.518.334-.5.5z" fill="none" stroke="#3d211b" stroke-opacity=".99" stroke-width="1.01"/></svg>