<?xml version="1.0" encoding="UTF-8" standalone="no"?>
<!DOCTYPE svg PUBLIC "-//W3C//DTD SVG 1.1//EN" "http://www.w3.org/Graphics/SVG/1.1/DTD/svg11.dtd">
<svg width="100%" height="100%" viewBox="0 0 22 22" version="1.1" xmlns="http://www.w3.org/2000/svg" xmlns:xlink="http://www.w3.org/1999/xlink" xml:space="preserve" xmlns:serif="http://www.serif.com/" style="fill-rule:evenodd;clip-rule:evenodd;stroke-linecap:round;">
    <g id="Layer-2" serif:id="Layer 2" transform="matrix(1,0,0,1,-0.000233459,-10.3869)">
        <path id="path1062" d="M2.511,14.403C2.327,14.403 2.206,14.581 2.206,14.765L2.206,15.785L1.708,15.785C1.524,15.785 1.376,15.933 1.376,16.117L1.376,19.331L20.624,19.331L20.63,16.117C20.63,15.933 20.482,15.785 20.298,15.785L9.838,15.785L9.83,14.736C9.829,14.552 9.682,14.404 9.498,14.404L2.511,14.403Z" style="fill:rgb(138,113,94);fill-rule:nonzero;"/>
        <path id="path1418" d="M20.624,19.331L20.63,16.117C20.63,15.933 20.482,15.785 20.298,15.785L9.838,15.785L9.83,14.736C9.829,14.552 9.682,14.404 9.498,14.404L2.511,14.403C2.327,14.403 2.206,14.581 2.206,14.765L2.206,15.785L1.708,15.785C1.524,15.785 1.376,15.933 1.376,16.117L1.376,19.331" style="fill:none;fill-rule:nonzero;stroke:rgb(60,32,26);stroke-opacity:0.99;stroke-width:1px;"/>
        <path id="path4232" d="M0.629,19.947L1.376,28.039C1.376,28.039 1.376,28.37 1.708,28.37L20.292,28.37C20.624,28.37 20.624,28.039 20.624,28.039L21.37,19.947C21.387,19.781 21.453,19.449 21.039,19.449L1.044,19.449C0.547,19.449 0.611,19.785 0.629,19.947Z" style="fill:url(#_Linear1);fill-rule:nonzero;"/>
        <path id="path1428" d="M0.629,19.947L1.376,28.039C1.376,28.039 1.376,28.37 1.708,28.37L20.292,28.37C20.624,28.37 20.624,28.039 20.624,28.039L21.37,19.947C21.387,19.781 21.453,19.449 21.039,19.449L1.044,19.449C0.547,19.449 0.611,19.785 0.629,19.947Z" style="fill:none;fill-rule:nonzero;stroke:rgb(61,33,27);stroke-opacity:0.99;stroke-width:1px;stroke-linecap:butt;"/>
    </g>
    <defs>
        <linearGradient id="_Linear1" x1="0" y1="0" x2="1" y2="0" gradientUnits="userSpaceOnUse" gradientTransform="matrix(6.13296e-16,10.0159,-10.0159,6.13296e-16,11.3684,18.2572)"><stop offset="0" style="stop-color:rgb(239,223,196);stop-opacity:1"/><stop offset="1" style="stop-color:rgb(233,201,152);stop-opacity:1"/></linearGradient>
    </defs>
</svg>
