<svg xmlns="http://www.w3.org/2000/svg" fill-rule="evenodd" stroke-linecap="round" viewBox="0 0 22 22"><g fill-opacity=".99" fill-rule="nonzero"><path fill="#8a715e" d="M9.5 3.5h-6L3 6v3l17-.06V6c0-.2-.14-.37-.33-.37L9.5 5.5v-2z"/><path fill="#715343" d="M3 7c-.5 0 .5 3 .5 3H19s.92-3 .5-3H3z"/></g><path fill="none" stroke="#3d211b" d="M19.5 8.94V5.83a.33.33 0 0 0-.33-.33H9.5V4c0-.19-.32-.5-.5-.5H4c-.18 0-.5.31-.5.5v1.44H3c-.18 0-.5.32-.5.5v3"/><path fill="#e2b269" fill-opacity=".99" fill-rule="nonzero" d="m1.5 8.5 1 9H19l1.63-9H1.5z"/><path fill="none" stroke="#3d211b" stroke-width="1.01" d="m1.5 9 1 8s.17.5.5.5h16c.33 0 .33-.34.33-.34L20.51 9c.01-.17.08-.51-.34-.51H2c-.5 0-.52.34-.5.5z"/></svg>