<svg xmlns="http://www.w3.org/2000/svg" width="100%" height="100%" viewBox="0 0 22 22" fill-rule="evenodd" xmlns:v="https://vecta.io/nano"><path d="M14 15.525a1.5 1.5 0 0 1-1.5 1.5H4a1.5 1.5 0 0 1-1.5-1.5V4.503a1.5 1.5 0 0 1 1.5-1.5h8.5a1.5 1.5 0 0 1 1.5 1.5v11.022z" fill="#e2b269"/><path d="M14.5 15.002a1.5 1.5 0 0 1-1.5 1.5H4a1.5 1.5 0 0 1-1.5-1.5V5A1.5 1.5 0 0 1 4 3.502h9A1.5 1.5 0 0 1 14.5 5v10.002z" fill="none" stroke="#715344" stroke-opacity=".96"/><g fill-rule="nonzero"><path d="M12 5.502c.972.045.5-1.5.5-1.5l-1-.5v-1s.069-1.019-1-1h-4c-1.026.042-1 1-1 1v1l-1 .5s-.384 1.456.5 1.5h7z" fill="#dbdbdb" stroke="#7e8087"/><path d="M9 6.503l10 .001v13.999H9v-14z" fill="#e9e9e9"/></g><path d="M8.5 6.502l11 .001v13.999h-11v-14z" fill="none" stroke="#7e8087" stroke-linejoin="round"/><path d="M8.5 7.002c-3.551 2.405-1.618 7 2 7l.003 1.993 5-3.571-5-3.34-.003 1.918c-2.553.1-3.325-2.322-1.5-4h-.5z" fill="#81d835" fill-rule="nonzero"/><g fill="none" stroke-linejoin="round"><path d="M8.303 7.066c-3.551 2.405-1.418 7.018 2.2 7.018v1.911l5-3.571-5-3.34v2c-2.553.1-3.669-2.34-1.844-4.018h-.356z" stroke="#206b00" stroke-width=".46"/><path d="M8.5 6.503v2.274" stroke="#7e8087"/></g></svg>