<svg xmlns="http://www.w3.org/2000/svg" xml:space="preserve" style="fill-rule:evenodd;clip-rule:evenodd" viewBox="0 0 22 22"><path d="M14 15.53c0 .82-.67 1.5-1.5 1.5H4a1.5 1.5 0 0 1-1.5-1.5V4.5C2.5 3.68 3.17 3 4 3h8.5c.83 0 1.5.68 1.5 1.5v11.03Z" style="fill:#e2b269"/><path d="M14.5 15c0 .83-.67 1.5-1.5 1.5H4A1.5 1.5 0 0 1 2.5 15V5c0-.83.67-1.5 1.5-1.5h9c.83 0 1.5.67 1.5 1.5v10Z" style="fill:none;stroke:#715344;stroke-opacity:.96;stroke-width:1px"/><path d="M12 5.5c.97.05.5-1.5.5-1.5l-1-.5v-1s.07-1.02-1-1h-4c-1.03.04-1 1-1 1v1l-1 .5s-.38 1.46.5 1.5h7Z" style="fill:#dbdbdb;fill-rule:nonzero;stroke:#7e8087;stroke-width:1px"/><path d="M9 6.5h10v14H9v-14Z" style="fill:#e9e9e9;fill-rule:nonzero"/><path d="M8.5 6.5h11v14h-11v-14Z" style="fill:none;fill-rule:nonzero;stroke:#7e8087;stroke-width:1px;stroke-linejoin:round"/><path d="M8.5 7c-3.55 2.4-1.62 7 2 7v2l5-3.57-5-3.34V11c-2.55.1-3.33-2.32-1.5-4h-.5Z" style="fill:#81d835;fill-rule:nonzero"/><path d="M8 7.5C4.45 9.9 6.88 14 10.5 14v2.5l5-4-5-4V11c-2.55.1-3.83-1.82-2-3.5H8Z" style="fill:none;fill-rule:nonzero;stroke:#206b00;stroke-width:1px;stroke-linecap:round;stroke-linejoin:round"/><path d="M8.5 6.5v3" style="fill:none;fill-rule:nonzero;stroke:#7e8087;stroke-width:1px;stroke-linecap:round;stroke-linejoin:round"/></svg>