<?xml version="1.0" encoding="UTF-8" standalone="no"?>
<!DOCTYPE svg PUBLIC "-//W3C//DTD SVG 1.1//EN" "http://www.w3.org/Graphics/SVG/1.1/DTD/svg11.dtd">
<svg width="100%" height="100%" viewBox="0 0 22 22" version="1.1" xmlns="http://www.w3.org/2000/svg" xmlns:xlink="http://www.w3.org/1999/xlink" xml:space="preserve" xmlns:serif="http://www.serif.com/" style="fill-rule:evenodd;clip-rule:evenodd;">
    <g id="Layer-2" serif:id="Layer 2" transform="matrix(1,0,0,1,0,-7.33333)">
        <g id="rect4613" transform="matrix(1,0,0,-1,0,0)">
            <path d="M16.5,-24.333C16.5,-25.161 15.828,-25.833 15,-25.833L4,-25.833C3.172,-25.833 2.5,-25.161 2.5,-24.333L2.5,-11.333C2.5,-10.505 3.172,-9.833 4,-9.833L15,-9.833C15.828,-9.833 16.5,-10.505 16.5,-11.333L16.5,-24.333Z" style="fill:url(#_Linear1);stroke:rgb(113,83,68);stroke-opacity:0.96;stroke-width:1px;"/>
        </g>
        <g id="rect5786" transform="matrix(1,0,0,-1,0,0)">
            <path d="M15.5,-24.333C15.5,-24.609 15.276,-24.833 15,-24.833L4,-24.833C3.724,-24.833 3.5,-24.609 3.5,-24.333L3.5,-11.333C3.5,-11.057 3.724,-10.833 4,-10.833L15,-10.833C15.276,-10.833 15.5,-11.057 15.5,-11.333L15.5,-24.333Z" style="fill:none;stroke:url(#_Linear2);stroke-width:1px;"/>
        </g>
        <path id="path5584" d="M12.512,11.831C13.484,11.876 13.512,10.831 13.512,10.831L12.512,9.831L12.512,8.831C12.512,8.831 12.581,7.812 11.512,7.831L7.512,7.863C6.486,7.905 6.503,8.864 6.503,8.864L6.512,9.831L5.512,10.831C5.512,10.831 5.628,11.787 6.512,11.831L12.512,11.831Z" style="fill:url(#_Linear3);fill-rule:nonzero;stroke:rgb(126,128,135);stroke-width:1px;"/>
        <path id="path5377" d="M7.004,11.333L7.004,9.333C6.965,8.701 7.212,8.299 8.004,8.333L11.004,8.333C11.467,8.407 11.946,8.449 12.004,9.333L12.004,11.333L11.004,9.333L8.004,9.333L7.004,11.333Z" style="fill:url(#_Linear4);fill-rule:nonzero;"/>
        <path id="path4453" d="M6.507,10.833L12.507,10.833" style="fill:none;stroke:white;stroke-opacity:0.1;stroke-width:1px;stroke-linecap:round;"/>
        <path id="path4465" d="M7.5,25.333L7.5,12.833C7.5,12.833 7.5,11.895 8.5,11.833L16,11.833" style="fill:none;stroke:black;stroke-opacity:0.05;stroke-width:1px;stroke-linejoin:round;"/>
        <path id="path4160-2-4" d="M9,13.333C11.292,13.333 19,13.334 19,13.334L19,27.333L9,27.333L9,13.333Z" style="fill:url(#_Linear5);fill-rule:nonzero;"/>
        <rect id="rect6741-1-2-5" x="9.5" y="13.833" width="9" height="13" style="fill:none;fill-rule:nonzero;stroke:url(#_Linear6);stroke-width:1px;stroke-linecap:round;"/>
        <path id="path4160-8-3-0" d="M8.5,12.833C11.021,12.833 19.5,12.834 19.5,12.834L19.5,27.833L8.5,27.833C8.5,22.833 8.5,17.833 8.5,12.833Z" style="fill:none;fill-rule:nonzero;stroke:rgb(126,128,135);stroke-width:1px;stroke-linejoin:round;"/>
        <path id="path3503-3" d="M8.303,13.896C4.752,16.301 6.885,20.914 10.503,20.914L10.503,22.825L15.503,19.254L10.503,15.914L10.503,17.914C7.95,18.014 6.834,15.574 8.659,13.896L8.303,13.896Z" style="fill:url(#_Linear7);fill-rule:nonzero;"/>
        <path id="path3503-2-1" d="M8.303,13.896C4.752,16.301 6.885,20.914 10.503,20.914L10.503,22.825L15.503,19.254L10.503,15.914L10.503,17.914C7.95,18.014 6.834,15.574 8.659,13.896L8.303,13.896Z" style="fill:none;fill-rule:nonzero;stroke:rgb(15,90,0);stroke-opacity:0.5;stroke-width:1px;stroke-linecap:round;stroke-linejoin:round;"/>
        <path id="path5888" d="M9,13.833L10.087,13.833" style="fill:none;fill-rule:nonzero;stroke:white;stroke-width:1px;"/>
        <path id="path5890" d="M10.176,12.833L8.5,12.833L8.5,15.607" style="fill:none;fill-rule:nonzero;stroke:rgb(126,128,135);stroke-width:1px;stroke-linejoin:round;"/>
    </g>
    <defs>
        <linearGradient id="_Linear1" x1="0" y1="0" x2="1" y2="0" gradientUnits="userSpaceOnUse" gradientTransform="matrix(0.233333,-12.75,12.75,0.233333,9.96667,-12.3953)"><stop offset="0" style="stop-color:rgb(226,179,105);stop-opacity:1"/><stop offset="1" style="stop-color:rgb(199,155,85);stop-opacity:1"/></linearGradient>
        <linearGradient id="_Linear2" x1="0" y1="0" x2="1" y2="0" gradientUnits="userSpaceOnUse" gradientTransform="matrix(8.96219e-16,-14.6364,14.6364,8.96219e-16,5.16667,-10.5252)"><stop offset="0" style="stop-color:white;stop-opacity:0.5"/><stop offset="0.06" style="stop-color:white;stop-opacity:0.12"/><stop offset="0.96" style="stop-color:white;stop-opacity:0.08"/><stop offset="1" style="stop-color:white;stop-opacity:0.2"/></linearGradient>
        <linearGradient id="_Linear3" x1="0" y1="0" x2="1" y2="0" gradientUnits="userSpaceOnUse" gradientTransform="matrix(6.12323e-16,10,-10,6.12323e-16,11.012,5.33143)"><stop offset="0" style="stop-color:white;stop-opacity:1"/><stop offset="0.07" style="stop-color:rgb(221,221,221);stop-opacity:1"/><stop offset="0.66" style="stop-color:rgb(171,172,174);stop-opacity:1"/><stop offset="1" style="stop-color:rgb(137,137,139);stop-opacity:1"/></linearGradient>
        <linearGradient id="_Linear4" x1="0" y1="0" x2="1" y2="0" gradientUnits="userSpaceOnUse" gradientTransform="matrix(2.45049e-16,4.00196,-4.00196,2.45049e-16,11.502,7.33087)"><stop offset="0" style="stop-color:white;stop-opacity:1"/><stop offset="1" style="stop-color:white;stop-opacity:0"/></linearGradient>
        <linearGradient id="_Linear5" x1="0" y1="0" x2="1" y2="0" gradientUnits="userSpaceOnUse" gradientTransform="matrix(8.57352e-16,14.0016,-14.0016,8.57352e-16,14.3235,12.8651)"><stop offset="0" style="stop-color:rgb(244,244,244);stop-opacity:1"/><stop offset="1" style="stop-color:rgb(219,219,219);stop-opacity:1"/></linearGradient>
        <linearGradient id="_Linear6" x1="0" y1="0" x2="1" y2="0" gradientUnits="userSpaceOnUse" gradientTransform="matrix(7.34788e-16,12,-12,7.34788e-16,14,14.3328)"><stop offset="0" style="stop-color:white;stop-opacity:1"/><stop offset="0" style="stop-color:white;stop-opacity:0.24"/><stop offset="1" style="stop-color:white;stop-opacity:0.16"/><stop offset="1" style="stop-color:white;stop-opacity:0.39"/></linearGradient>
        <linearGradient id="_Linear7" x1="0" y1="0" x2="1" y2="0" gradientUnits="userSpaceOnUse" gradientTransform="matrix(4.81626e-16,7.86554,-7.86554,4.81626e-16,11.1436,15.4237)"><stop offset="0" style="stop-color:rgb(205,248,126);stop-opacity:1"/><stop offset="0.26" style="stop-color:rgb(162,227,79);stop-opacity:1"/><stop offset="0.66" style="stop-color:rgb(104,183,35);stop-opacity:1"/><stop offset="1" style="stop-color:rgb(29,126,13);stop-opacity:1"/></linearGradient>
    </defs>
</svg>
