<svg xmlns="http://www.w3.org/2000/svg" fill-rule="evenodd" viewBox="0 0 22 22"><path fill="#e2b269" fill-opacity=".99" d="M14 15.52a1.5 1.5 0 0 1-1.5 1.5H4a1.5 1.5 0 0 1-1.5-1.5V4.5A1.5 1.5 0 0 1 4 3h8.5A1.5 1.5 0 0 1 14 4.5v11.02z"/><path fill="none" stroke="#3d211b" d="M14.5 15a1.5 1.5 0 0 1-1.5 1.5H4A1.5 1.5 0 0 1 2.5 15V5A1.5 1.5 0 0 1 4 3.5h9A1.5 1.5 0 0 1 14.5 5v10z"/><g fill-rule="nonzero"><path fill="#dbdbdb" stroke="#7e8087" d="M12 5.5c.97.04.5-1.5.5-1.5l-1-.5v-1s.07-1.02-1-1h-4c-1.03.04-1 1-1 1v1l-1 .5s-.38 1.46.5 1.5h7z"/><path fill="#e9e9e9" d="M9 6.5h10v14H9v-14z"/></g><path fill="none" stroke="#555761" stroke-linejoin="round" stroke-opacity=".99" d="M8.5 6.5h11v14h-11v-14z"/><path fill="#81d835" fill-rule="nonzero" d="M8.5 7c-3.55 2.4-1.62 7 2 7v2l5-3.58-5-3.34V11c-2.55.1-3.33-2.32-1.5-4h-.5z"/><g fill="none" stroke-linejoin="round"><path stroke="#206b00" d="M8 7.5C4.45 9.9 6.88 14 10.5 14v2.5l5-4-5-4V11c-2.55.1-3.83-1.82-2-3.5H8z"/><path stroke="#555761" stroke-linecap="round" stroke-opacity=".99" d="M8.5 6.5v3"/></g></svg>