<?xml version="1.0" encoding="UTF-8" standalone="no"?>
<!DOCTYPE svg PUBLIC "-//W3C//DTD SVG 1.1//EN" "http://www.w3.org/Graphics/SVG/1.1/DTD/svg11.dtd">
<svg width="100%" height="100%" viewBox="0 0 22 22" version="1.1" xmlns="http://www.w3.org/2000/svg" xmlns:xlink="http://www.w3.org/1999/xlink" xml:space="preserve" xmlns:serif="http://www.serif.com/" style="fill-rule:evenodd;clip-rule:evenodd;stroke-linecap:round;stroke-linejoin:round;">
    <g id="Layer-1" serif:id="Layer 1" transform="matrix(1,0,0,1,0,-13.2354)">
        <path id="path1961" d="M11.977,15.956L11.977,20.485L21,20.485L21,27.485L11.977,27.485L11.977,31.856L1,23.905L6.488,19.932L11.977,15.956Z" style="fill:url(#_Linear1);fill-rule:nonzero;"/>
        <path id="path1984" d="M2.381,22.905L6.488,25.88L11.977,29.857L11.977,31.857L6.488,27.88L1,23.905L2.381,22.905ZM21,25.485L21,27.485L11.977,27.485L11.977,25.485L21,25.485Z" style="fill:rgb(58,145,4);fill-rule:nonzero;"/>
        <path id="path1975" d="M11.977,15.956L11.977,17.956L6.488,21.933L2.381,24.905L1,23.905L6.488,19.933L11.977,15.956ZM21,20.485L21,22.485L11.977,22.485L11.977,20.485L21,20.485Z" style="fill:rgb(155,219,77);fill-rule:nonzero;"/>
        <path id="path1965" d="M11.977,15.956L11.977,20.485L21,20.485L21,27.485L11.977,27.485L11.977,31.856L1,23.905L6.488,19.932L11.977,15.956Z" style="fill:none;fill-rule:nonzero;stroke:rgb(32,107,0);stroke-width:1px;"/>
    </g>
    <defs>
        <linearGradient id="_Linear1" x1="0" y1="0" x2="1" y2="0" gradientUnits="userSpaceOnUse" gradientTransform="matrix(9.73601e-16,15.9001,-15.9001,9.73601e-16,11.9765,15.9564)"><stop offset="0" style="stop-color:rgb(104,183,35);stop-opacity:1"/><stop offset="1" style="stop-color:rgb(58,145,4);stop-opacity:1"/></linearGradient>
    </defs>
</svg>
