<svg xmlns="http://www.w3.org/2000/svg" xml:space="preserve" style="fill-rule:evenodd;clip-rule:evenodd" viewBox="0 0 22 22"><path d="M2.5 1.5c-.48 0-1 .57-1 1v17c0 .45.52 1 1 1h17c.48 0 1-.57 1-1l-.06-15.54c0-.22-2.21-2.46-2.44-2.46H2.5Z" style="fill:#2f7ede;fill-opacity:.99;fill-rule:nonzero"/><path d="M5 1.5v5.98c0 .27.23.52.53.52h10.96c.28 0 .53-.22.53-.52V1.5H5ZM13.5 3h1c.5 0 .5.33.5.5v2c0 .17 0 .5-.5.5h-1c-.5 0-.5-.33-.5-.5v-2c0-.17 0-.5.5-.5Z" style="fill:#ececec;fill-opacity:.99;fill-rule:nonzero"/><path d="M5.75 15c-.55 0-.75.43-.75.96v4.54h12.02L17 15.96a.98.98 0 0 0-1-.96H5.75Z" style="fill:#164b88;fill-rule:nonzero"/><path d="M2.35 1.5c-.48 0-.85.38-.85.8v17.4c0 .45.38.8.85.8H19.5c.47 0 1-.07 1-.5V4c0-.23-2.27-2.5-2.5-2.5H2.35Z" style="fill:none;fill-rule:nonzero;stroke:#15405e;stroke-opacity:.99;stroke-width:1px"/></svg>