<?xml version="1.0" encoding="UTF-8" standalone="no"?>
<!DOCTYPE svg PUBLIC "-//W3C//DTD SVG 1.1//EN" "http://www.w3.org/Graphics/SVG/1.1/DTD/svg11.dtd">
<svg width="100%" height="100%" viewBox="0 0 22 22" version="1.1" xmlns="http://www.w3.org/2000/svg" xmlns:xlink="http://www.w3.org/1999/xlink" xml:space="preserve" xmlns:serif="http://www.serif.com/" style="fill-rule:evenodd;clip-rule:evenodd;">
    <g id="Layer-2" serif:id="Layer 2" transform="matrix(1,0,0,1,0,-7.33333)">
        <path id="path1063" d="M1.834,8.315C1.359,8.315 0.983,8.692 0.983,9.118L0.983,27.551C0.983,28.001 1.359,28.351 1.834,28.351L20.166,28.351C20.641,28.351 21.017,27.976 21.017,27.551L21.017,11.296C21.017,11.07 20.917,10.87 20.767,10.719L18.513,8.565C18.363,8.415 18.137,8.315 17.912,8.315L1.834,8.315Z" style="fill:url(#_Linear1);fill-rule:nonzero;"/>
        <path id="path1980" d="M4.751,8.814L4.751,14.906C4.751,15.181 4.978,15.431 5.278,15.431L16.743,15.431C17.018,15.431 17.268,15.206 17.268,14.906L17.268,8.814L4.751,8.814ZM13.442,10.515L14.835,10.515C15.01,10.515 15.135,10.639 15.135,10.814L15.135,14.084C15.135,14.259 15.01,14.385 14.835,14.385L13.442,14.385C13.267,14.385 13.141,14.259 13.141,14.084L13.141,10.814C13.141,10.639 13.267,10.515 13.442,10.515Z" style="fill-opacity:0.3;fill-rule:nonzero;"/>
        <path id="path1067" d="M4.751,8.314L4.751,14.406C4.751,14.682 4.978,14.932 5.278,14.932L16.743,14.932C17.018,14.932 17.268,14.707 17.268,14.406L17.268,8.314L4.751,8.314ZM13.442,10.015L14.835,10.015C15.01,10.015 15.135,10.139 15.135,10.314L15.135,13.584C15.135,13.759 15.01,13.885 14.835,13.885L13.442,13.885C13.267,13.885 13.141,13.759 13.141,13.584L13.141,10.314C13.141,10.139 13.267,10.015 13.442,10.015Z" style="fill:rgb(250,250,250);fill-rule:nonzero;"/>
        <path id="rect1870" d="M5.751,22.115C5.197,22.115 4.751,22.541 4.751,23.07L4.751,28.349L17.248,28.349L17.248,23.07C17.248,22.541 16.802,22.115 16.249,22.115L5.751,22.115Z" style="fill:rgb(250,250,250);fill-rule:nonzero;"/>
        <path id="path1866" d="M1.834,8.315C1.359,8.315 0.983,8.692 0.983,9.118L0.983,27.551C0.983,28.001 1.359,28.351 1.834,28.351L20.166,28.351C20.641,28.351 21.017,27.976 21.017,27.551L21.017,11.296C21.017,11.07 20.917,10.87 20.767,10.719L18.513,8.565C18.363,8.415 18.137,8.315 17.912,8.315L1.834,8.315Z" style="fill:none;fill-rule:nonzero;stroke:rgb(0,46,153);stroke-width:1px;"/>
    </g>
    <defs>
        <linearGradient id="_Linear1" x1="0" y1="0" x2="1" y2="0" gradientUnits="userSpaceOnUse" gradientTransform="matrix(0.722268,-44.9871,44.9871,0.722268,10.2632,53.0684)"><stop offset="0" style="stop-color:rgb(13,82,191);stop-opacity:1"/><stop offset="1" style="stop-color:rgb(54,137,230);stop-opacity:0.99"/></linearGradient>
    </defs>
</svg>
