<svg xmlns="http://www.w3.org/2000/svg" fill-rule="evenodd" viewBox="0 0 22 22"><g fill-rule="nonzero"><path fill="#2f7ede" fill-opacity=".99" d="M2.5 2c-.48 0-1 .07-1 .5V19c0 .45.02 1 .5 1l17.5.5c.47 0 .94-.57.94-1V3.96c0-.22-.1-.42-.25-.57L18.5 1.75a.88.88 0 0 0-.6-.25L2.5 2z"/><path fill-opacity=".3" d="M4.5 1.4v6.1c0 .28.2.5.5.5h12.02c.27 0 .48-.2.48-.5V1.4h-13zm9 2.1h1c.5 0 .5.32.5.5v2h-2V4c0-.17 0-.5.5-.5z"/><path fill="#fafafa" d="M5 .98v6c0 .27.23.52.53.52h10.96c.28 0 .53-.22.53-.52v-6H5zM13.5 3h1c.5 0 .5.33.5.5v2c0 .17 0 .5-.5.5h-1c-.5 0-.5-.33-.5-.5v-2c0-.17 0-.5.5-.5zM5.75 15c-.55 0-.75.43-.75.95v4.55h12.02L17 15.96a.98.98 0 0 0-1-.96H5.75z"/></g><path fill="none" stroke="#15405e" stroke-opacity=".99" d="M2.35 1.5c-.47 0-.85.38-.85.8v17.4c0 .45.38.8.85.8H19.5c.47 0 1-.07 1-.5V4c0-.23-2.27-2.5-2.5-2.5H2.35z"/></svg>