<svg xmlns="http://www.w3.org/2000/svg" width="100%" height="100%" viewBox="0 0 22 22" fill-rule="evenodd" xmlns:v="https://vecta.io/nano"><g fill-rule="nonzero"><path d="M2.499 2.002c-.475 0-1 .074-1 .5V19c0 .45.025 1 .5 1l17.501.502c.475 0 .938-.575.938-1V3.965c0-.226-.1-.426-.25-.577l-1.675-1.636c-.15-.15-.376-.25-.601-.25l-15.413.5z" fill="#2f7ede" fill-opacity=".99"/><path d="M4.499 1.41v6.092c0 .275.201.5.501.5h12.019c.275 0 .48-.2.48-.5V1.41h-13zm9 2.092h1c.502 0 .501.323.501.498l-.001 2.002H13v-2c0-.175-.004-.5.499-.5z" fill-opacity=".3"/><path d="M4.999.983v6.001c0 .272.227.518.527.518h10.968c.275 0 .525-.222.525-.518V.983H4.999zm8.5 2.019l1-.002c.501 0 .5.33.5.502v2c0 .172.001.498-.5.5l-1-.002C13 6 13 5.674 13 5.502v-2c0-.172 0-.502.499-.5zm-7.748 12c-.554 0-.751.426-.751.955V20.5h12.019l-.02-4.543c0-.529-.446-.955-.999-.955H5.751z" fill="#fafafa"/></g><path d="M2.35 1.502c-.475 0-.851.377-.851.803V19.7c0 .45.376.8.851.8h17.149c.475 0 1-.073 1-.498v-16c0-.226-2.274-2.5-2.5-2.5H2.35z" fill="none" stroke="#033c79"/></svg>