<?xml version="1.0" encoding="UTF-8" standalone="no"?>
<!DOCTYPE svg PUBLIC "-//W3C//DTD SVG 1.1//EN" "http://www.w3.org/Graphics/SVG/1.1/DTD/svg11.dtd">
<svg width="100%" height="100%" viewBox="0 0 22 22" version="1.1" xmlns="http://www.w3.org/2000/svg" xmlns:xlink="http://www.w3.org/1999/xlink" xml:space="preserve" xmlns:serif="http://www.serif.com/" style="fill-rule:evenodd;clip-rule:evenodd;stroke-linecap:round;stroke-linejoin:round;">
    <g id="Layer-2" serif:id="Layer 2" transform="matrix(1,0,0,1,0,-7.33333)">
        <g id="g1713">
            <path id="path3503-1" d="M17.033,28.337C23.526,22.677 21.218,13.586 11.41,13.339L11.41,8.557L1.024,16.525L11.41,24.493L11.41,19.75C17.119,19.528 20.317,24.593 16.235,28.337L17.033,28.337Z" style="fill:url(#_Linear1);fill-rule:nonzero;"/>
            <path id="path3503-1-0" d="M17.033,28.337C23.526,22.677 21.218,13.586 11.41,13.339L11.41,8.557L1.024,16.525L11.41,24.493L11.41,19.75C17.119,19.528 20.317,24.593 16.235,28.337L17.033,28.337Z" style="fill:none;fill-rule:nonzero;stroke:rgb(149,101,0);stroke-opacity:0.5;stroke-width:1px;"/>
        </g>
    </g>
    <defs>
        <linearGradient id="_Linear1" x1="0" y1="0" x2="1" y2="0" gradientUnits="userSpaceOnUse" gradientTransform="matrix(1.26675e-15,20.6877,-20.6877,1.26675e-15,11.7645,8.61736)"><stop offset="0" style="stop-color:rgb(255,243,203);stop-opacity:1"/><stop offset="0.26" style="stop-color:rgb(253,222,118);stop-opacity:1"/><stop offset="0.66" style="stop-color:rgb(249,196,64);stop-opacity:1"/><stop offset="1" style="stop-color:rgb(228,139,32);stop-opacity:1"/></linearGradient>
    </defs>
</svg>
