<svg xmlns="http://www.w3.org/2000/svg" xml:space="preserve" style="fill-rule:evenodd;clip-rule:evenodd;stroke-linecap:round;stroke-linejoin:round;stroke-miterlimit:1.5" viewBox="0 0 22 22"><path d="M1.81 5h17.82v12.34H1.81z" style="fill:#fff"/><path d="M1.5 4.5h18v13h-18z" style="fill:none;stroke:#494949;stroke-width:1px"/><path d="M3.5 6.5h14v9h-14z" style="fill:#85ddff"/><path d="M3.5 6.5h14v9h-14z" style="fill:none;stroke:#00a9f1;stroke-width:.93px"/><path d="M15.95 13.54a1.97 1.97 0 0 0-1.34 3.35l6.05 6.04c.76.76 2 .76 2.77 0 .76-.76.76-2 0-2.77l-6.04-6.04c-.38-.38-.9-.59-1.44-.58Z" style="fill:#a3907c;fill-rule:nonzero"/><path d="m19 19-1.53.74 3.19 3.2c.76.75 2.1-.18 1.34-.94l-3-3Z" style="fill:#8a715e;fill-rule:nonzero"/><path d="M19 16.5c-.5.01-1.14.14-1.5.5-.76.76-.8 2.24-.03 3l3.14 3.21c.76.76 2.06.48 2.82-.28.76-.76.33-2.2-.43-2.97L20.5 17c-.38-.38-.96-.51-1.5-.5Z" style="fill:none;fill-rule:nonzero;stroke:#715343;stroke-width:1px;stroke-linejoin:miter;stroke-miterlimit:4"/><ellipse cx="15.55" cy="15.01" rx="5.06" ry="4.86" style="fill:#6fafde"/><ellipse cx="15.56" cy="15" rx="4.07" ry="4" style="fill:#99d9ff"/><circle cx="15.5" cy="15" r="5" style="fill:none;stroke:#15405e;stroke-width:.97px;stroke-miterlimit:4"/><path d="M15.5 12a2.42 2.42 0 0 0-2.5 2.5" style="fill:none;fill-rule:nonzero;stroke:#e7f6fe;stroke-width:.97px;stroke-miterlimit:4"/></svg>