<svg xmlns="http://www.w3.org/2000/svg" width="100%" height="100%" viewBox="0 0 22 22" fill-rule="evenodd" stroke-linecap="round" stroke-linejoin="round" stroke-miterlimit="1.5" xmlns:v="https://vecta.io/nano"><path d="M1.811 5h17.82v12.339H1.811z" fill="#fff"/><path d="M1.5 4.49h18V17.5h-18z" fill="none" stroke="#494949" stroke-width="1.03"/><path d="M3.181 6.352h15.08v9.618H3.181z" fill="#85ddff"/><path d="M3.5 6.5h14v9h-14z" fill="none" stroke="#00a9f1" stroke-width=".93"/><g fill-rule="nonzero"><path d="M15.954 13.541c-.504.013-.988.22-1.344.579a1.97 1.97 0 0 0 0 2.768l6.05 6.043a1.97 1.97 0 0 0 2.768 0 1.97 1.97 0 0 0 0-2.769l-6.042-6.042a1.96 1.96 0 0 0-1.432-.579z" fill="#a3907c"/><path d="M19 19l-1.534.742 3.193 3.189c.759.76 2.1-.173 1.341-.931l-3-3z" fill="#8a715e"/></g><path d="M19 16.5c-.506.012-1.144.141-1.5.5-.758.759-.792 2.241-.034 3l3.145 3.213c.759.758 2.058.476 2.817-.282s.331-2.211-.428-2.97L20.5 17c-.377-.38-.964-.511-1.5-.5z" fill="none" stroke="#715343" stroke-linejoin="miter" stroke-miterlimit="4"/><ellipse cx="12.978" cy="13.857" rx="4.978" ry="4.857" fill="#245c82" fill-opacity=".39"/><ellipse cx="15.556" cy="15.012" rx="5.056" ry="4.857" fill="#6fafde"/><ellipse cx="15.565" cy="15" rx="4.065" ry="4" fill="#99d9ff"/><g fill="none" stroke-width=".97"><ellipse cx="15.556" cy="15" rx="5.056" ry="5" stroke="#15405e"/><path d="M15.37 12.239a2.65 2.65 0 0 0-2.634 2.635" stroke="#e7f6fe" stroke-miterlimit="4"/></g></svg>