<svg xmlns="http://www.w3.org/2000/svg" viewBox="0 0 16 16" fill-rule="evenodd" stroke-linecap="round" stroke-linejoin="round" stroke-miterlimit="1.5" xmlns:v="https://vecta.io/nano"><path fill="none" stroke="#494949" d="M1.31 3.5h13v9h-13z"/><path fill="#fff" d="M1.31 3.5h13v9h-13z"/><path fill="none" stroke="#00a9f1" d="M2.31 4.5h11v7h-11z"/><path fill="#85ddff" d="M2.31 4.5h11v7h-11z"/><g fill-rule="nonzero"><path d="M11.63 9.73a1.43 1.43 0 0 0-.98 2.44l4.41 4.41c.56.55 1.47.55 2.02 0 .56-.55.56-1.47 0-2.02l-4.4-4.4a1.43 1.43 0 0 0-1.05-.43Z" fill="#a3907c"/><path d="m13.38 13.82-.65.43 2.33 2.33c.55.55 1.47.55 2.02 0 .4-.4.53-1.01.31-1.54-.07.17-.17.33-.3.47-.56.55-1.47.55-2.03 0l-1.68-1.69Z" fill="#8a715e"/></g><path d="M13.77 11.87a1.43 1.43 0 0 0-.98 2.44l2.27 2.27c.56.55 1.47.55 2.02 0 .56-.55.56-1.47 0-2.02l-2.26-2.27a1.43 1.43 0 0 0-1.05-.42Z" fill="none" stroke="#715343" stroke-width=".36" stroke-linejoin="miter" stroke-miterlimit="4"/><circle cx="9.55" cy="9.74" r="3.76" fill="#245c82" fill-opacity=".39"/><circle cx="11.26" cy="10.76" r="3.76" fill="#6fafde"/><circle cx="11.26" cy="10.76" r="3.05" fill="#99d9ff"/><g fill="none"><circle cx="11.26" cy="10.76" r="3.76" stroke="#15405e" stroke-width=".36"/><path d="M11.2 8.78c-1.05 0-1.92.87-1.92 1.92" stroke="#e7f6fe" stroke-width=".71" stroke-miterlimit="4"/></g></svg>