<svg xmlns="http://www.w3.org/2000/svg" viewBox="0 0 16 16" fill-rule="evenodd" stroke-linecap="round" stroke-linejoin="round" stroke-miterlimit="1.5" xmlns:v="https://vecta.io/nano"><path fill="#fff" stroke="#494949" d="M1.31 3.5h13v9h-13z" stroke-width=".504"/><path fill="#85ddff" stroke="#00a9f1" d="M2.31 4.5h11v7h-11z" stroke-width=".501"/><g fill-rule="nonzero"><path d="M11.63 9.73a1.43 1.43 0 0 0-.98 2.44l4.41 4.4a1.42 1.42 0 1 0 2.02-2.01l-4.4-4.4a1.43 1.43 0 0 0-1.05-.43Z" fill="#a3907c"/><path d="M11.63 9.73a1.43 1.43 0 0 0-1.3 1.97 1.43 1.43 0 0 1 2.34-.48l4.41 4.41c.14.14.24.3.32.48.21-.53.09-1.15-.32-1.55l-4.4-4.4a1.43 1.43 0 0 0-1.05-.43Z" fill="#bfb1a4"/><path d="M10.34 10.63c-.22.53-.1 1.14.3 1.54l4.42 4.41c.56.55 1.47.55 2.02 0 .4-.4.53-1.02.31-1.55a1.43 1.43 0 0 1-2.33.48l-4.41-4.41c-.14-.14-.24-.3-.31-.47Z" fill="#8a715e"/></g><path d="M13.77 11.87a1.43 1.43 0 0 0-.98 2.44l2.27 2.27c.56.55 1.47.55 2.02 0 .55-.56.55-1.47 0-2.02l-2.26-2.27a1.43 1.43 0 0 0-1.05-.42Z" fill="none" stroke="#715343" stroke-width=".36" stroke-linejoin="miter" stroke-miterlimit="4"/><circle cx="-220.63" cy="600.12" r="5.27" fill="#4165ab" transform="matrix(-.71427 0 0 .71427 -146.32 -417.89)"/><circle cx="-220.63" cy="600.12" r="5.27" fill="#00a9f1" transform="matrix(-.57868 0 0 .57868 -116.4 -336.52)"/><g fill="none"><circle cx="-220.63" cy="600.12" r="5.27" stroke="#715343" stroke-width=".5" transform="matrix(-.71427 0 0 .71427 -146.32 -417.89)"/><path d="M11.2 8.78c-1.05 0-1.92.87-1.92 1.92" stroke="#fafafa" stroke-width="1.43" stroke-miterlimit="4"/></g></svg>