<svg xmlns="http://www.w3.org/2000/svg" fill-rule="evenodd" stroke-linecap="round" stroke-linejoin="round" stroke-miterlimit="1.5" viewBox="0 0 22 22"><path fill="#fff" d="M1.81 5h17.82v12.34H1.81z"/><path fill="none" stroke="#555761" stroke-opacity=".99" d="M1.5 4.5h18v13h-18z"/><path fill="#85ddff" fill-opacity=".99" d="M3.5 6.5h14v9h-14z"/><path fill="none" stroke="#00a9f1" stroke-opacity=".99" stroke-width=".93" d="M3.5 6.5h14v9h-14z"/><g fill-rule="nonzero"><path fill="#a3907c" d="M15.95 13.54a1.97 1.97 0 0 0-1.34 3.35l6.05 6.04a1.97 1.97 0 0 0 2.77 0 1.97 1.97 0 0 0 0-2.77l-6.04-6.04a1.96 1.96 0 0 0-1.44-.58z"/><path fill="#8a715e" d="m19 19-1.53.74 3.19 3.19c.76.76 2.1-.17 1.34-.93l-3-3z"/></g><path fill="none" stroke="#715343" stroke-linejoin="miter" stroke-miterlimit="4" d="M19 16.5c-.5.01-1.14.14-1.5.5-.76.76-.8 2.24-.03 3l3.14 3.21c.76.76 2.06.48 2.82-.28s.33-2.21-.43-2.97L20.5 17c-.38-.38-.97-.51-1.5-.5z"/><ellipse cx="15.55" cy="15.01" fill="#00a9f1" fill-opacity=".99" rx="5.06" ry="4.86"/><ellipse cx="15.56" cy="15" fill="#85ddff" fill-opacity=".99" rx="4.07" ry="4"/><g fill="none" stroke-width=".97"><circle cx="15.5" cy="15" r="5" stroke="#15405e" stroke-opacity=".99"/><path stroke="#e7f6fe" stroke-miterlimit="4" d="M15.5 12a2.42 2.42 0 0 0-2.5 2.5"/></g></svg>