<svg xmlns="http://www.w3.org/2000/svg" xml:space="preserve" style="fill-rule:evenodd;clip-rule:evenodd;stroke-linecap:round;stroke-linejoin:round;stroke-miterlimit:1.5" viewBox="0 0 22 22"><path d="M1.81 5h17.82v12.34H1.81z" style="fill:#fff"/><path d="M1.5 4.5h18v13h-18z" style="fill:none;stroke:#555761;stroke-opacity:.99;stroke-width:1px"/><path d="M3.5 6.5h14v9h-14z" style="fill:#85ddff;fill-opacity:.99"/><path d="M3.5 6.5h14v9h-14z" style="fill:none;stroke:#00a9f1;stroke-width:.93px"/><path d="m20.77 19.3-1.4 1.4 3.92 3.94a1 1 0 1 0 1.41-1.41l-3.93-3.94ZM18.66 17.88l-.71.7L19.36 20l.71-.7-1.41-1.42Z" style="fill:#333;stroke:#333;stroke-width:1px;stroke-miterlimit:4"/><circle cx="15.04" cy="14.5" r="5.5" style="fill:#00a9f1;fill-opacity:.99"/><path d="M17.84 12.15a4 4 0 1 0-5.66 5.68 4 4 0 0 0 5.66-5.68Z" style="fill:#85ddff;fill-opacity:.99"/><circle cx="15" cy="15" r="5.5" style="fill:none;stroke:#15405e;stroke-width:1.04px;stroke-miterlimit:4"/><path d="M14.5 11.5a3 3 0 0 0-3 3" style="fill:none;fill-rule:nonzero;stroke:#e7f6fe;stroke-width:1px;stroke-miterlimit:4"/></svg>