<svg xmlns="http://www.w3.org/2000/svg" fill-rule="evenodd" stroke-linecap="round" viewBox="0 0 22 22"><g fill-rule="nonzero"><path fill="#a3907c" d="M11.27 8.09c-.4-.4-3.64 2.54-2.77 3.4l6.5 7c.87.88 2.13.38 3-.5s.87-2.12 0-3l-6.73-6.9z"/><path fill="#8a715e" d="m12.36 13.85-.84.86 3.51 3.5a2.25 2.25 0 0 0 3.67-2.44 2.26 2.26 0 0 1-3.67.75l-2.67-2.67z"/></g><path fill="none" stroke="#715343" d="M13 10.5c-.58.01-1.13.58-1.54 1-.87.87-.81 2.13.06 3L15 18c.87.87 2.13.87 3 0s.87-2.13 0-3l-3.5-3.5c-.44-.44-.88-1.02-1.5-1z"/><circle cx="9.04" cy="9" r="5.5" fill="#00a9f1" fill-opacity=".99"/><circle cx="9" cy="9" r="4.5" fill="#85ddff" fill-opacity=".99"/><g fill="none" stroke-linejoin="round"><circle cx="9" cy="9" r="5.5" stroke="#15405e" stroke-width="1.04"/><path stroke="#e7f6fe" d="M8.5 5.5a3 3 0 0 0-3 3"/></g><path fill="#81d835" fill-opacity=".99" fill-rule="nonzero" d="M5.5 11.5v2h-2v3h2v2h3v-2h2v-3h-2v-2h-3z"/><path fill="none" stroke="#206b00" stroke-linejoin="round" d="M5.5 11.5v2h-2v3h2v2h3v-2h2v-3h-2v-2h-3z"/></svg>