<svg xmlns="http://www.w3.org/2000/svg" width="100%" height="100%" viewBox="0 0 22 22" fill-rule="evenodd" stroke-linecap="round" xmlns:v="https://vecta.io/nano"><g fill-rule="nonzero"><path d="M11.4 8.091c-.393-.395-3.645 2.538-2.773 3.409l6.5 7c.873.872 2.127.372 3-.5s.872-2.126 0-2.999L11.4 8.091z" fill="#a3907c"/><path d="M12.483 13.852l-.834.856 3.512 3.508a2.26 2.26 0 0 0 3.182 0c.636-.638.831-1.599.492-2.434-.113.278-.28.532-.492.745-.873.872-2.309.872-3.182 0l-2.678-2.675z" fill="#8a715e"/></g><path d="M13.127 10.5c-.58.014-1.131.588-1.541 1.001-.872.873-.958 2.128-.087 2.999L15 18.001c.873.871 2.127.871 3-.001s.871-2.126 0-2.999l-3.501-3.5c-.434-.437-.755-1.014-1.372-1.001z" fill="none" stroke="#715343"/><circle cx="8.999" cy="9" r="5.5" fill="#6fafde"/><circle cx="9.127" cy="9.001" r="4.5" fill="#99d9ff"/><g fill="none" stroke-linejoin="round"><circle cx="9.127" cy="9.001" r="5.5" stroke="#15405e" stroke-width="1.04"/><path d="M8.627 5.5c-1.66 0-3 1.34-3 3.001" stroke="#e7f6fe"/></g><path d="M10 16v-2H4v2h6z" fill="#e84850"/><path d="M10.5 16.501v-3h-7v3h7z" fill="none" stroke="#7a0000" stroke-linejoin="round"/></svg>