<svg xmlns="http://www.w3.org/2000/svg" xml:space="preserve" style="fill-rule:evenodd;clip-rule:evenodd;stroke-linecap:round;stroke-linejoin:round" viewBox="0 0 22 22"><path d="m14.76 13.76-1.41 1.4 3.93 3.94a1 1 0 0 0 1.41-1.41l-3.93-3.93ZM12.64 12.35l-.7.7 1.4 1.42.72-.71-1.42-1.41Z" style="fill:#555761;fill-opacity:.99;stroke:#333;stroke-width:1px"/><circle cx="9.04" cy="9" r="5.5" style="fill:#00a9f1;fill-opacity:.99"/><circle cx="9" cy="9" r="4" style="fill:#85ddff;fill-opacity:.99"/><circle cx="9" cy="9" r="5.5" style="fill:none;stroke:#15405e;stroke-width:1.04px"/><path d="M8.5 5.5a3 3 0 0 0-3 3" style="fill:none;fill-rule:nonzero;stroke:#e7f6fe;stroke-width:1px"/><path d="M4.5 10.5v3h-3v4h3v3h4v-3h3v-4h-3v-3h-4Z" style="fill:#81d835;fill-rule:nonzero"/><path d="M4.5 10.5v3h-3v4h3v3h4v-3h3v-4h-3v-3h-4Z" style="fill:none;fill-rule:nonzero;stroke:#206b00;stroke-opacity:.99;stroke-width:1px"/></svg>