<svg xmlns="http://www.w3.org/2000/svg" viewBox="0 0 16 16" fill-rule="evenodd" stroke-linecap="round" xmlns:v="https://vecta.io/nano"><g fill-rule="nonzero"><path d="M6.78 4.82a2 2 0 0 0-1.37 3.42l6.18 6.17a2 2 0 0 0 2.82 0 2 2 0 0 0 0-2.82L8.24 5.4a2 2 0 0 0-1.46-.59Z" fill="#a3907c"/><path d="M6.78 4.82a2 2 0 0 0-1.8 2.76 2 2 0 0 1 3.26-.67l6.17 6.18a2 2 0 0 1 .44.66 2 2 0 0 0-.44-2.16L8.24 5.4a2 2 0 0 0-1.46-.59Z" fill="#bfb1a4"/><path d="M4.97 6.08a2 2 0 0 0 .44 2.16l6.18 6.17a2 2 0 0 0 3.27-2.16 2 2 0 0 1-3.27.66L5.4 6.74a2 2 0 0 1-.44-.66Z" fill="#8a715e"/></g><path d="M9.78 7.82a2 2 0 0 0-1.37 3.42l3.18 3.17a2 2 0 0 0 2.82 0 2 2 0 0 0 0-2.82L11.24 8.4a2 2 0 0 0-1.46-.59Z" fill="none" stroke="#715343" stroke-width=".5"/><circle cx="-220.63" cy="600.12" r="5.27" fill="#4165ab" transform="matrix(-1 0 0 1 -214.36 -593.86)"/><circle cx="-220.63" cy="600.12" r="5.27" fill="#00a9f1" transform="matrix(-.81017 0 0 .81017 -172.48 -479.94)"/><g fill="none"><g stroke-linejoin="round"><circle cx="-220.63" cy="600.12" r="5.27" stroke="#715343" stroke-width=".5" transform="matrix(-1 0 0 1 -214.36 -593.86)"/><path d="M6.19 3.5a2.7 2.7 0 0 0-2.7 2.68" stroke="#fafafa" stroke-width="2"/></g></g><g fill-rule="nonzero"><path d="M3.93 7.3v1.94H2v2.6h1.93v1.93h2.6v-1.94h1.93v-2.6H6.53V7.3h-2.6Z" fill="#323232" fill-opacity=".59"/><path d="M2.93 8.3v1.94H1v2.6h1.93v1.93h2.6v-1.94h1.93v-2.6H5.53V8.3h-2.6Z" fill="#81d835"/></g><path d="M2.93 8.3v1.94H1v2.6h1.93v1.93h2.6v-1.94h1.93v-2.6H5.53V8.3h-2.6Z" fill="none" stroke="#206b00" stroke-linejoin="round" stroke-width=".54"/></svg>