<svg xmlns="http://www.w3.org/2000/svg" fill-rule="evenodd" stroke-linecap="round" viewBox="0 0 22 22"><g fill-rule="nonzero"><path fill="#a3907c" d="M11.4 8.09c-.4-.4-3.65 2.54-2.77 3.4l6.5 7c.87.88 2.12.38 3-.5s.87-2.12 0-3L11.4 8.1z"/><path fill="#8a715e" d="m12.48 13.85-.83.86 3.51 3.5c.87.88 2.31.88 3.18 0 .64-.63.83-1.6.5-2.43-.12.28-.28.53-.5.74a2.26 2.26 0 0 1-3.18 0l-2.68-2.67z"/></g><path fill="none" stroke="#715343" d="M13.13 10.5c-.58.01-1.13.58-1.54 1-.88.87-.96 2.13-.1 3L15 18c.87.87 2.13.87 3 0s.87-2.13 0-3l-3.5-3.5c-.43-.44-.76-1.02-1.37-1z"/><circle cx="9" cy="9" r="5.5" fill="#00a9f1" fill-opacity=".99"/><circle cx="9.13" cy="9" r="4.5" fill="#85ddff" fill-opacity=".99"/><g fill="none" stroke-linejoin="round"><circle cx="9.13" cy="9" r="5.5" stroke="#15405e" stroke-width="1.04"/><path stroke="#e7f6fe" d="M8.63 5.5a3 3 0 0 0-3 3"/></g><path fill="#e84850" d="M10 16v-2H4v2h6z"/><path fill="none" stroke="#7a0000" stroke-linejoin="round" d="M10.5 16.5v-3h-7v3h7z"/></svg>