<svg xmlns="http://www.w3.org/2000/svg" width="100%" height="100%" viewBox="0 0 22 22" fill-rule="evenodd" stroke-linecap="round" xmlns:v="https://vecta.io/nano"><g fill-rule="nonzero"><path d="M11.273 8.091c-.394-.395-3.645 2.538-2.773 3.409l6.499 7c.873.872 2.127.372 3-.5s.872-2.126 0-2.999l-6.726-6.91z" fill="#a3907c"/><path d="M12.356 13.852l-.834.856 3.512 3.508a2.26 2.26 0 0 0 3.181 0c.637-.638.831-1.599.493-2.434a2.27 2.27 0 0 1-.493.745c-.873.872-2.309.872-3.181 0l-2.678-2.675z" fill="#8a715e"/></g><path d="M12.999 10.5c-.58.014-1.131.588-1.54 1.001-.872.873-.809 2.128.063 3l3.478 3.5c.873.871 2.126.871 2.999-.001s.872-2.126 0-2.999l-3.5-3.5c-.434-.437-.883-1.014-1.5-1.001z" fill="none" stroke="#715343"/><circle cx="9.038" cy="9" r="5.5" fill="#6fafde"/><circle cx="8.999" cy="9.001" r="4.5" fill="#99d9ff"/><g fill="none" stroke-linejoin="round"><circle cx="9" cy="9.001" r="5.5" stroke="#15405e" stroke-width="1.04"/><path d="M8.499 5.5c-1.66 0-3 1.34-3 3.001" stroke="#e7f6fe"/></g><path d="M5.5 11.5v2h-2v3h2v2h3v-2h2v-3h-2v-2h-3z" fill="#81d835" fill-rule="nonzero"/><path d="M5.5 11.5v2h-2v3h2v2h3v-2h2v-3h-2v-2h-3z" fill="none" stroke="#206b00" stroke-linejoin="round"/></svg>